  0
SECTION
  2
BLOCKS
  0
ENDSEC
  0
SECTION
  2
ENTITIES
  0
LINE
  8
0
 10
197
 20
-75
 11
207
 21
-75
  0
LINE
  8
0
 10
207
 20
-75
 11
207
 21
75
  0
LINE
  8
0
 10
207
 20
75
 11
197
 21
75
  0
LINE
  8
0
 10
197
 20
75
 11
197
 21
79
  0
LINE
  8
0
 10
197
 20
79
 11
187
 21
79
  0
LINE
  8
0
 10
187
 20
79
 11
187
 21
75
  0
LINE
  8
0
 10
187
 20
75
 11
177
 21
75
  0
LINE
  8
0
 10
177
 20
75
 11
177
 21
-75
  0
LINE
  8
0
 10
177
 20
-75
 11
187
 21
-75
  0
LINE
  8
0
 10
187
 20
-75
 11
187
 21
-79
  0
LINE
  8
0
 10
187
 20
-79
 11
197
 21
-79
  0
LINE
  8
0
 10
197
 20
-79
 11
197
 21
-75
  0
LINE
  8
0
 10
191.2
 20
18.6143
 11
190.4
 21
20
  0
LINE
  8
0
 10
190.4
 20
20
 11
190.4
 21
60
  0
LINE
  8
0
 10
190.4
 20
60
 11
191.2
 21
61.3856
  0
LINE
  8
0
 10
191.2
 20
61.3856
 11
192.8
 21
61.3856
  0
LINE
  8
0
 10
192.8
 20
61.3856
 11
193.6
 21
60
  0
LINE
  8
0
 10
193.6
 20
60
 11
193.6
 21
20
  0
LINE
  8
0
 10
193.6
 20
20
 11
192.8
 21
18.6143
  0
LINE
  8
0
 10
192.8
 20
18.6143
 11
191.2
 21
18.6143
  0
LINE
  8
0
 10
191.2
 20
-61.3856
 11
190.4
 21
-60
  0
LINE
  8
0
 10
190.4
 20
-60
 11
190.4
 21
-20
  0
LINE
  8
0
 10
190.4
 20
-20
 11
191.2
 21
-18.6143
  0
LINE
  8
0
 10
191.2
 20
-18.6143
 11
192.8
 21
-18.6143
  0
LINE
  8
0
 10
192.8
 20
-18.6143
 11
193.6
 21
-20
  0
LINE
  8
0
 10
193.6
 20
-20
 11
193.6
 21
-60
  0
LINE
  8
0
 10
193.6
 20
-60
 11
192.8
 21
-61.3856
  0
LINE
  8
0
 10
192.8
 20
-61.3856
 11
191.2
 21
-61.3856
  0
LINE
  8
0
 10
357
 20
-75
 11
367
 21
-75
  0
LINE
  8
0
 10
367
 20
-75
 11
367
 21
75
  0
LINE
  8
0
 10
367
 20
75
 11
357
 21
75
  0
LINE
  8
0
 10
357
 20
75
 11
357
 21
79
  0
LINE
  8
0
 10
357
 20
79
 11
347
 21
79
  0
LINE
  8
0
 10
347
 20
79
 11
347
 21
75
  0
LINE
  8
0
 10
347
 20
75
 11
337
 21
75
  0
LINE
  8
0
 10
337
 20
75
 11
337
 21
-75
  0
LINE
  8
0
 10
337
 20
-75
 11
347
 21
-75
  0
LINE
  8
0
 10
347
 20
-75
 11
347
 21
-79
  0
LINE
  8
0
 10
347
 20
-79
 11
357
 21
-79
  0
LINE
  8
0
 10
357
 20
-79
 11
357
 21
-75
  0
LINE
  8
0
 10
351.2
 20
18.6143
 11
350.4
 21
20
  0
LINE
  8
0
 10
350.4
 20
20
 11
350.4
 21
60
  0
LINE
  8
0
 10
350.4
 20
60
 11
351.2
 21
61.3856
  0
LINE
  8
0
 10
351.2
 20
61.3856
 11
352.8
 21
61.3856
  0
LINE
  8
0
 10
352.8
 20
61.3856
 11
353.6
 21
60
  0
LINE
  8
0
 10
353.6
 20
60
 11
353.6
 21
20
  0
LINE
  8
0
 10
353.6
 20
20
 11
352.8
 21
18.6143
  0
LINE
  8
0
 10
352.8
 20
18.6143
 11
351.2
 21
18.6143
  0
LINE
  8
0
 10
351.2
 20
-61.3856
 11
350.4
 21
-60
  0
LINE
  8
0
 10
350.4
 20
-60
 11
350.4
 21
-20
  0
LINE
  8
0
 10
350.4
 20
-20
 11
351.2
 21
-18.6143
  0
LINE
  8
0
 10
351.2
 20
-18.6143
 11
352.8
 21
-18.6143
  0
LINE
  8
0
 10
352.8
 20
-18.6143
 11
353.6
 21
-20
  0
LINE
  8
0
 10
353.6
 20
-20
 11
353.6
 21
-60
  0
LINE
  8
0
 10
353.6
 20
-60
 11
352.8
 21
-61.3856
  0
LINE
  8
0
 10
352.8
 20
-61.3856
 11
351.2
 21
-61.3856
  0
LINE
  8
0
 10
389
 20
-75
 11
399
 21
-75
  0
LINE
  8
0
 10
399
 20
-75
 11
399
 21
75
  0
LINE
  8
0
 10
399
 20
75
 11
389
 21
75
  0
LINE
  8
0
 10
389
 20
75
 11
389
 21
79
  0
LINE
  8
0
 10
389
 20
79
 11
379
 21
79
  0
LINE
  8
0
 10
379
 20
79
 11
379
 21
75
  0
LINE
  8
0
 10
379
 20
75
 11
369
 21
75
  0
LINE
  8
0
 10
369
 20
75
 11
369
 21
-75
  0
LINE
  8
0
 10
369
 20
-75
 11
379
 21
-75
  0
LINE
  8
0
 10
379
 20
-75
 11
379
 21
-79
  0
LINE
  8
0
 10
379
 20
-79
 11
389
 21
-79
  0
LINE
  8
0
 10
389
 20
-79
 11
389
 21
-75
  0
LINE
  8
0
 10
383.2
 20
18.6143
 11
382.4
 21
20
  0
LINE
  8
0
 10
382.4
 20
20
 11
382.4
 21
60
  0
LINE
  8
0
 10
382.4
 20
60
 11
383.2
 21
61.3856
  0
LINE
  8
0
 10
383.2
 20
61.3856
 11
384.8
 21
61.3856
  0
LINE
  8
0
 10
384.8
 20
61.3856
 11
385.6
 21
60
  0
LINE
  8
0
 10
385.6
 20
60
 11
385.6
 21
20
  0
LINE
  8
0
 10
385.6
 20
20
 11
384.8
 21
18.6143
  0
LINE
  8
0
 10
384.8
 20
18.6143
 11
383.2
 21
18.6143
  0
LINE
  8
0
 10
383.2
 20
-61.3856
 11
382.4
 21
-60
  0
LINE
  8
0
 10
382.4
 20
-60
 11
382.4
 21
-20
  0
LINE
  8
0
 10
382.4
 20
-20
 11
383.2
 21
-18.6143
  0
LINE
  8
0
 10
383.2
 20
-18.6143
 11
384.8
 21
-18.6143
  0
LINE
  8
0
 10
384.8
 20
-18.6143
 11
385.6
 21
-20
  0
LINE
  8
0
 10
385.6
 20
-20
 11
385.6
 21
-60
  0
LINE
  8
0
 10
385.6
 20
-60
 11
384.8
 21
-61.3856
  0
LINE
  8
0
 10
384.8
 20
-61.3856
 11
383.2
 21
-61.3856
  0
LINE
  8
0
 10
325
 20
-75
 11
335
 21
-75
  0
LINE
  8
0
 10
335
 20
-75
 11
335
 21
75
  0
LINE
  8
0
 10
335
 20
75
 11
325
 21
75
  0
LINE
  8
0
 10
325
 20
75
 11
325
 21
79
  0
LINE
  8
0
 10
325
 20
79
 11
315
 21
79
  0
LINE
  8
0
 10
315
 20
79
 11
315
 21
75
  0
LINE
  8
0
 10
315
 20
75
 11
305
 21
75
  0
LINE
  8
0
 10
305
 20
75
 11
305
 21
-75
  0
LINE
  8
0
 10
305
 20
-75
 11
315
 21
-75
  0
LINE
  8
0
 10
315
 20
-75
 11
315
 21
-79
  0
LINE
  8
0
 10
315
 20
-79
 11
325
 21
-79
  0
LINE
  8
0
 10
325
 20
-79
 11
325
 21
-75
  0
LINE
  8
0
 10
319.2
 20
18.6143
 11
318.4
 21
20
  0
LINE
  8
0
 10
318.4
 20
20
 11
318.4
 21
60
  0
LINE
  8
0
 10
318.4
 20
60
 11
319.2
 21
61.3856
  0
LINE
  8
0
 10
319.2
 20
61.3856
 11
320.8
 21
61.3856
  0
LINE
  8
0
 10
320.8
 20
61.3856
 11
321.6
 21
60
  0
LINE
  8
0
 10
321.6
 20
60
 11
321.6
 21
20
  0
LINE
  8
0
 10
321.6
 20
20
 11
320.8
 21
18.6143
  0
LINE
  8
0
 10
320.8
 20
18.6143
 11
319.2
 21
18.6143
  0
LINE
  8
0
 10
319.2
 20
-61.3856
 11
318.4
 21
-60
  0
LINE
  8
0
 10
318.4
 20
-60
 11
318.4
 21
-20
  0
LINE
  8
0
 10
318.4
 20
-20
 11
319.2
 21
-18.6143
  0
LINE
  8
0
 10
319.2
 20
-18.6143
 11
320.8
 21
-18.6143
  0
LINE
  8
0
 10
320.8
 20
-18.6143
 11
321.6
 21
-20
  0
LINE
  8
0
 10
321.6
 20
-20
 11
321.6
 21
-60
  0
LINE
  8
0
 10
321.6
 20
-60
 11
320.8
 21
-61.3856
  0
LINE
  8
0
 10
320.8
 20
-61.3856
 11
319.2
 21
-61.3856
  0
LINE
  8
0
 10
421
 20
-75
 11
431
 21
-75
  0
LINE
  8
0
 10
431
 20
-75
 11
431
 21
75
  0
LINE
  8
0
 10
431
 20
75
 11
421
 21
75
  0
LINE
  8
0
 10
421
 20
75
 11
421
 21
79
  0
LINE
  8
0
 10
421
 20
79
 11
411
 21
79
  0
LINE
  8
0
 10
411
 20
79
 11
411
 21
75
  0
LINE
  8
0
 10
411
 20
75
 11
401
 21
75
  0
LINE
  8
0
 10
401
 20
75
 11
401
 21
-75
  0
LINE
  8
0
 10
401
 20
-75
 11
411
 21
-75
  0
LINE
  8
0
 10
411
 20
-75
 11
411
 21
-79
  0
LINE
  8
0
 10
411
 20
-79
 11
421
 21
-79
  0
LINE
  8
0
 10
421
 20
-79
 11
421
 21
-75
  0
LINE
  8
0
 10
415.2
 20
18.6143
 11
414.4
 21
20
  0
LINE
  8
0
 10
414.4
 20
20
 11
414.4
 21
60
  0
LINE
  8
0
 10
414.4
 20
60
 11
415.2
 21
61.3856
  0
LINE
  8
0
 10
415.2
 20
61.3856
 11
416.8
 21
61.3856
  0
LINE
  8
0
 10
416.8
 20
61.3856
 11
417.6
 21
60
  0
LINE
  8
0
 10
417.6
 20
60
 11
417.6
 21
20
  0
LINE
  8
0
 10
417.6
 20
20
 11
416.8
 21
18.6143
  0
LINE
  8
0
 10
416.8
 20
18.6143
 11
415.2
 21
18.6143
  0
LINE
  8
0
 10
415.2
 20
-61.3856
 11
414.4
 21
-60
  0
LINE
  8
0
 10
414.4
 20
-60
 11
414.4
 21
-20
  0
LINE
  8
0
 10
414.4
 20
-20
 11
415.2
 21
-18.6143
  0
LINE
  8
0
 10
415.2
 20
-18.6143
 11
416.8
 21
-18.6143
  0
LINE
  8
0
 10
416.8
 20
-18.6143
 11
417.6
 21
-20
  0
LINE
  8
0
 10
417.6
 20
-20
 11
417.6
 21
-60
  0
LINE
  8
0
 10
417.6
 20
-60
 11
416.8
 21
-61.3856
  0
LINE
  8
0
 10
416.8
 20
-61.3856
 11
415.2
 21
-61.3856
  0
LINE
  8
0
 10
293
 20
-75
 11
303
 21
-75
  0
LINE
  8
0
 10
303
 20
-75
 11
303
 21
75
  0
LINE
  8
0
 10
303
 20
75
 11
293
 21
75
  0
LINE
  8
0
 10
293
 20
75
 11
293
 21
79
  0
LINE
  8
0
 10
293
 20
79
 11
283
 21
79
  0
LINE
  8
0
 10
283
 20
79
 11
283
 21
75
  0
LINE
  8
0
 10
283
 20
75
 11
273
 21
75
  0
LINE
  8
0
 10
273
 20
75
 11
273
 21
-75
  0
LINE
  8
0
 10
273
 20
-75
 11
283
 21
-75
  0
LINE
  8
0
 10
283
 20
-75
 11
283
 21
-79
  0
LINE
  8
0
 10
283
 20
-79
 11
293
 21
-79
  0
LINE
  8
0
 10
293
 20
-79
 11
293
 21
-75
  0
LINE
  8
0
 10
287.2
 20
18.6143
 11
286.4
 21
20
  0
LINE
  8
0
 10
286.4
 20
20
 11
286.4
 21
60
  0
LINE
  8
0
 10
286.4
 20
60
 11
287.2
 21
61.3856
  0
LINE
  8
0
 10
287.2
 20
61.3856
 11
288.8
 21
61.3856
  0
LINE
  8
0
 10
288.8
 20
61.3856
 11
289.6
 21
60
  0
LINE
  8
0
 10
289.6
 20
60
 11
289.6
 21
20
  0
LINE
  8
0
 10
289.6
 20
20
 11
288.8
 21
18.6143
  0
LINE
  8
0
 10
288.8
 20
18.6143
 11
287.2
 21
18.6143
  0
LINE
  8
0
 10
287.2
 20
-61.3856
 11
286.4
 21
-60
  0
LINE
  8
0
 10
286.4
 20
-60
 11
286.4
 21
-20
  0
LINE
  8
0
 10
286.4
 20
-20
 11
287.2
 21
-18.6143
  0
LINE
  8
0
 10
287.2
 20
-18.6143
 11
288.8
 21
-18.6143
  0
LINE
  8
0
 10
288.8
 20
-18.6143
 11
289.6
 21
-20
  0
LINE
  8
0
 10
289.6
 20
-20
 11
289.6
 21
-60
  0
LINE
  8
0
 10
289.6
 20
-60
 11
288.8
 21
-61.3856
  0
LINE
  8
0
 10
288.8
 20
-61.3856
 11
287.2
 21
-61.3856
  0
LINE
  8
0
 10
453
 20
-75
 11
463
 21
-75
  0
LINE
  8
0
 10
463
 20
-75
 11
463
 21
75
  0
LINE
  8
0
 10
463
 20
75
 11
453
 21
75
  0
LINE
  8
0
 10
453
 20
75
 11
453
 21
79
  0
LINE
  8
0
 10
453
 20
79
 11
443
 21
79
  0
LINE
  8
0
 10
443
 20
79
 11
443
 21
75
  0
LINE
  8
0
 10
443
 20
75
 11
433
 21
75
  0
LINE
  8
0
 10
433
 20
75
 11
433
 21
-75
  0
LINE
  8
0
 10
433
 20
-75
 11
443
 21
-75
  0
LINE
  8
0
 10
443
 20
-75
 11
443
 21
-79
  0
LINE
  8
0
 10
443
 20
-79
 11
453
 21
-79
  0
LINE
  8
0
 10
453
 20
-79
 11
453
 21
-75
  0
LINE
  8
0
 10
447.2
 20
18.6143
 11
446.4
 21
20
  0
LINE
  8
0
 10
446.4
 20
20
 11
446.4
 21
60
  0
LINE
  8
0
 10
446.4
 20
60
 11
447.2
 21
61.3856
  0
LINE
  8
0
 10
447.2
 20
61.3856
 11
448.8
 21
61.3856
  0
LINE
  8
0
 10
448.8
 20
61.3856
 11
449.6
 21
60
  0
LINE
  8
0
 10
449.6
 20
60
 11
449.6
 21
20
  0
LINE
  8
0
 10
449.6
 20
20
 11
448.8
 21
18.6143
  0
LINE
  8
0
 10
448.8
 20
18.6143
 11
447.2
 21
18.6143
  0
LINE
  8
0
 10
447.2
 20
-61.3856
 11
446.4
 21
-60
  0
LINE
  8
0
 10
446.4
 20
-60
 11
446.4
 21
-20
  0
LINE
  8
0
 10
446.4
 20
-20
 11
447.2
 21
-18.6143
  0
LINE
  8
0
 10
447.2
 20
-18.6143
 11
448.8
 21
-18.6143
  0
LINE
  8
0
 10
448.8
 20
-18.6143
 11
449.6
 21
-20
  0
LINE
  8
0
 10
449.6
 20
-20
 11
449.6
 21
-60
  0
LINE
  8
0
 10
449.6
 20
-60
 11
448.8
 21
-61.3856
  0
LINE
  8
0
 10
448.8
 20
-61.3856
 11
447.2
 21
-61.3856
  0
LINE
  8
0
 10
261
 20
-75
 11
271
 21
-75
  0
LINE
  8
0
 10
271
 20
-75
 11
271
 21
75
  0
LINE
  8
0
 10
271
 20
75
 11
261
 21
75
  0
LINE
  8
0
 10
261
 20
75
 11
261
 21
79
  0
LINE
  8
0
 10
261
 20
79
 11
251
 21
79
  0
LINE
  8
0
 10
251
 20
79
 11
251
 21
75
  0
LINE
  8
0
 10
251
 20
75
 11
241
 21
75
  0
LINE
  8
0
 10
241
 20
75
 11
241
 21
-75
  0
LINE
  8
0
 10
241
 20
-75
 11
251
 21
-75
  0
LINE
  8
0
 10
251
 20
-75
 11
251
 21
-79
  0
LINE
  8
0
 10
251
 20
-79
 11
261
 21
-79
  0
LINE
  8
0
 10
261
 20
-79
 11
261
 21
-75
  0
LINE
  8
0
 10
255.2
 20
18.6143
 11
254.4
 21
20
  0
LINE
  8
0
 10
254.4
 20
20
 11
254.4
 21
60
  0
LINE
  8
0
 10
254.4
 20
60
 11
255.2
 21
61.3856
  0
LINE
  8
0
 10
255.2
 20
61.3856
 11
256.8
 21
61.3856
  0
LINE
  8
0
 10
256.8
 20
61.3856
 11
257.6
 21
60
  0
LINE
  8
0
 10
257.6
 20
60
 11
257.6
 21
20
  0
LINE
  8
0
 10
257.6
 20
20
 11
256.8
 21
18.6143
  0
LINE
  8
0
 10
256.8
 20
18.6143
 11
255.2
 21
18.6143
  0
LINE
  8
0
 10
255.2
 20
-61.3856
 11
254.4
 21
-60
  0
LINE
  8
0
 10
254.4
 20
-60
 11
254.4
 21
-20
  0
LINE
  8
0
 10
254.4
 20
-20
 11
255.2
 21
-18.6143
  0
LINE
  8
0
 10
255.2
 20
-18.6143
 11
256.8
 21
-18.6143
  0
LINE
  8
0
 10
256.8
 20
-18.6143
 11
257.6
 21
-20
  0
LINE
  8
0
 10
257.6
 20
-20
 11
257.6
 21
-60
  0
LINE
  8
0
 10
257.6
 20
-60
 11
256.8
 21
-61.3856
  0
LINE
  8
0
 10
256.8
 20
-61.3856
 11
255.2
 21
-61.3856
  0
LINE
  8
0
 10
485
 20
-75
 11
495
 21
-75
  0
LINE
  8
0
 10
495
 20
-75
 11
495
 21
75
  0
LINE
  8
0
 10
495
 20
75
 11
485
 21
75
  0
LINE
  8
0
 10
485
 20
75
 11
485
 21
79
  0
LINE
  8
0
 10
485
 20
79
 11
475
 21
79
  0
LINE
  8
0
 10
475
 20
79
 11
475
 21
75
  0
LINE
  8
0
 10
475
 20
75
 11
465
 21
75
  0
LINE
  8
0
 10
465
 20
75
 11
465
 21
-75
  0
LINE
  8
0
 10
465
 20
-75
 11
475
 21
-75
  0
LINE
  8
0
 10
475
 20
-75
 11
475
 21
-79
  0
LINE
  8
0
 10
475
 20
-79
 11
485
 21
-79
  0
LINE
  8
0
 10
485
 20
-79
 11
485
 21
-75
  0
LINE
  8
0
 10
479.2
 20
18.6143
 11
478.4
 21
20
  0
LINE
  8
0
 10
478.4
 20
20
 11
478.4
 21
60
  0
LINE
  8
0
 10
478.4
 20
60
 11
479.2
 21
61.3856
  0
LINE
  8
0
 10
479.2
 20
61.3856
 11
480.8
 21
61.3856
  0
LINE
  8
0
 10
480.8
 20
61.3856
 11
481.6
 21
60
  0
LINE
  8
0
 10
481.6
 20
60
 11
481.6
 21
20
  0
LINE
  8
0
 10
481.6
 20
20
 11
480.8
 21
18.6143
  0
LINE
  8
0
 10
480.8
 20
18.6143
 11
479.2
 21
18.6143
  0
LINE
  8
0
 10
479.2
 20
-61.3856
 11
478.4
 21
-60
  0
LINE
  8
0
 10
478.4
 20
-60
 11
478.4
 21
-20
  0
LINE
  8
0
 10
478.4
 20
-20
 11
479.2
 21
-18.6143
  0
LINE
  8
0
 10
479.2
 20
-18.6143
 11
480.8
 21
-18.6143
  0
LINE
  8
0
 10
480.8
 20
-18.6143
 11
481.6
 21
-20
  0
LINE
  8
0
 10
481.6
 20
-20
 11
481.6
 21
-60
  0
LINE
  8
0
 10
481.6
 20
-60
 11
480.8
 21
-61.3856
  0
LINE
  8
0
 10
480.8
 20
-61.3856
 11
479.2
 21
-61.3856
  0
LINE
  8
0
 10
229
 20
-75
 11
239
 21
-75
  0
LINE
  8
0
 10
239
 20
-75
 11
239
 21
75
  0
LINE
  8
0
 10
239
 20
75
 11
229
 21
75
  0
LINE
  8
0
 10
229
 20
75
 11
229
 21
79
  0
LINE
  8
0
 10
229
 20
79
 11
219
 21
79
  0
LINE
  8
0
 10
219
 20
79
 11
219
 21
75
  0
LINE
  8
0
 10
219
 20
75
 11
209
 21
75
  0
LINE
  8
0
 10
209
 20
75
 11
209
 21
-75
  0
LINE
  8
0
 10
209
 20
-75
 11
219
 21
-75
  0
LINE
  8
0
 10
219
 20
-75
 11
219
 21
-79
  0
LINE
  8
0
 10
219
 20
-79
 11
229
 21
-79
  0
LINE
  8
0
 10
229
 20
-79
 11
229
 21
-75
  0
LINE
  8
0
 10
223.2
 20
18.6143
 11
222.4
 21
20
  0
LINE
  8
0
 10
222.4
 20
20
 11
222.4
 21
60
  0
LINE
  8
0
 10
222.4
 20
60
 11
223.2
 21
61.3856
  0
LINE
  8
0
 10
223.2
 20
61.3856
 11
224.8
 21
61.3856
  0
LINE
  8
0
 10
224.8
 20
61.3856
 11
225.6
 21
60
  0
LINE
  8
0
 10
225.6
 20
60
 11
225.6
 21
20
  0
LINE
  8
0
 10
225.6
 20
20
 11
224.8
 21
18.6143
  0
LINE
  8
0
 10
224.8
 20
18.6143
 11
223.2
 21
18.6143
  0
LINE
  8
0
 10
223.2
 20
-61.3856
 11
222.4
 21
-60
  0
LINE
  8
0
 10
222.4
 20
-60
 11
222.4
 21
-20
  0
LINE
  8
0
 10
222.4
 20
-20
 11
223.2
 21
-18.6143
  0
LINE
  8
0
 10
223.2
 20
-18.6143
 11
224.8
 21
-18.6143
  0
LINE
  8
0
 10
224.8
 20
-18.6143
 11
225.6
 21
-20
  0
LINE
  8
0
 10
225.6
 20
-20
 11
225.6
 21
-60
  0
LINE
  8
0
 10
225.6
 20
-60
 11
224.8
 21
-61.3856
  0
LINE
  8
0
 10
224.8
 20
-61.3856
 11
223.2
 21
-61.3856
  0
LINE
  8
0
 10
517
 20
-75
 11
527
 21
-75
  0
LINE
  8
0
 10
527
 20
-75
 11
527
 21
75
  0
LINE
  8
0
 10
527
 20
75
 11
517
 21
75
  0
LINE
  8
0
 10
517
 20
75
 11
517
 21
79
  0
LINE
  8
0
 10
517
 20
79
 11
507
 21
79
  0
LINE
  8
0
 10
507
 20
79
 11
507
 21
75
  0
LINE
  8
0
 10
507
 20
75
 11
497
 21
75
  0
LINE
  8
0
 10
497
 20
75
 11
497
 21
-75
  0
LINE
  8
0
 10
497
 20
-75
 11
507
 21
-75
  0
LINE
  8
0
 10
507
 20
-75
 11
507
 21
-79
  0
LINE
  8
0
 10
507
 20
-79
 11
517
 21
-79
  0
LINE
  8
0
 10
517
 20
-79
 11
517
 21
-75
  0
LINE
  8
0
 10
511.2
 20
18.6143
 11
510.4
 21
20
  0
LINE
  8
0
 10
510.4
 20
20
 11
510.4
 21
60
  0
LINE
  8
0
 10
510.4
 20
60
 11
511.2
 21
61.3856
  0
LINE
  8
0
 10
511.2
 20
61.3856
 11
512.8
 21
61.3856
  0
LINE
  8
0
 10
512.8
 20
61.3856
 11
513.6
 21
60
  0
LINE
  8
0
 10
513.6
 20
60
 11
513.6
 21
20
  0
LINE
  8
0
 10
513.6
 20
20
 11
512.8
 21
18.6143
  0
LINE
  8
0
 10
512.8
 20
18.6143
 11
511.2
 21
18.6143
  0
LINE
  8
0
 10
511.2
 20
-61.3856
 11
510.4
 21
-60
  0
LINE
  8
0
 10
510.4
 20
-60
 11
510.4
 21
-20
  0
LINE
  8
0
 10
510.4
 20
-20
 11
511.2
 21
-18.6143
  0
LINE
  8
0
 10
511.2
 20
-18.6143
 11
512.8
 21
-18.6143
  0
LINE
  8
0
 10
512.8
 20
-18.6143
 11
513.6
 21
-20
  0
LINE
  8
0
 10
513.6
 20
-20
 11
513.6
 21
-60
  0
LINE
  8
0
 10
513.6
 20
-60
 11
512.8
 21
-61.3856
  0
LINE
  8
0
 10
512.8
 20
-61.3856
 11
511.2
 21
-61.3856
  0
LINE
  8
0
 10
549
 20
-75
 11
559
 21
-75
  0
LINE
  8
0
 10
559
 20
-75
 11
559
 21
75
  0
LINE
  8
0
 10
559
 20
75
 11
549
 21
75
  0
LINE
  8
0
 10
549
 20
75
 11
549
 21
79
  0
LINE
  8
0
 10
549
 20
79
 11
539
 21
79
  0
LINE
  8
0
 10
539
 20
79
 11
539
 21
75
  0
LINE
  8
0
 10
539
 20
75
 11
529
 21
75
  0
LINE
  8
0
 10
529
 20
75
 11
529
 21
-75
  0
LINE
  8
0
 10
529
 20
-75
 11
539
 21
-75
  0
LINE
  8
0
 10
539
 20
-75
 11
539
 21
-79
  0
LINE
  8
0
 10
539
 20
-79
 11
549
 21
-79
  0
LINE
  8
0
 10
549
 20
-79
 11
549
 21
-75
  0
LINE
  8
0
 10
543.2
 20
18.6143
 11
542.4
 21
20
  0
LINE
  8
0
 10
542.4
 20
20
 11
542.4
 21
60
  0
LINE
  8
0
 10
542.4
 20
60
 11
543.2
 21
61.3856
  0
LINE
  8
0
 10
543.2
 20
61.3856
 11
544.8
 21
61.3856
  0
LINE
  8
0
 10
544.8
 20
61.3856
 11
545.6
 21
60
  0
LINE
  8
0
 10
545.6
 20
60
 11
545.6
 21
20
  0
LINE
  8
0
 10
545.6
 20
20
 11
544.8
 21
18.6143
  0
LINE
  8
0
 10
544.8
 20
18.6143
 11
543.2
 21
18.6143
  0
LINE
  8
0
 10
543.2
 20
-61.3856
 11
542.4
 21
-60
  0
LINE
  8
0
 10
542.4
 20
-60
 11
542.4
 21
-20
  0
LINE
  8
0
 10
542.4
 20
-20
 11
543.2
 21
-18.6143
  0
LINE
  8
0
 10
543.2
 20
-18.6143
 11
544.8
 21
-18.6143
  0
LINE
  8
0
 10
544.8
 20
-18.6143
 11
545.6
 21
-20
  0
LINE
  8
0
 10
545.6
 20
-20
 11
545.6
 21
-60
  0
LINE
  8
0
 10
545.6
 20
-60
 11
544.8
 21
-61.3856
  0
LINE
  8
0
 10
544.8
 20
-61.3856
 11
543.2
 21
-61.3856
  0
LINE
  8
0
 10
613
 20
-75
 11
623
 21
-75
  0
LINE
  8
0
 10
623
 20
-75
 11
623
 21
75
  0
LINE
  8
0
 10
623
 20
75
 11
613
 21
75
  0
LINE
  8
0
 10
613
 20
75
 11
613
 21
79
  0
LINE
  8
0
 10
613
 20
79
 11
603
 21
79
  0
LINE
  8
0
 10
603
 20
79
 11
603
 21
75
  0
LINE
  8
0
 10
603
 20
75
 11
593
 21
75
  0
LINE
  8
0
 10
593
 20
75
 11
593
 21
-75
  0
LINE
  8
0
 10
593
 20
-75
 11
603
 21
-75
  0
LINE
  8
0
 10
603
 20
-75
 11
603
 21
-79
  0
LINE
  8
0
 10
603
 20
-79
 11
613
 21
-79
  0
LINE
  8
0
 10
613
 20
-79
 11
613
 21
-75
  0
LINE
  8
0
 10
607.2
 20
18.6143
 11
606.4
 21
20
  0
LINE
  8
0
 10
606.4
 20
20
 11
606.4
 21
60
  0
LINE
  8
0
 10
606.4
 20
60
 11
607.2
 21
61.3856
  0
LINE
  8
0
 10
607.2
 20
61.3856
 11
608.8
 21
61.3856
  0
LINE
  8
0
 10
608.8
 20
61.3856
 11
609.6
 21
60
  0
LINE
  8
0
 10
609.6
 20
60
 11
609.6
 21
20
  0
LINE
  8
0
 10
609.6
 20
20
 11
608.8
 21
18.6143
  0
LINE
  8
0
 10
608.8
 20
18.6143
 11
607.2
 21
18.6143
  0
LINE
  8
0
 10
607.2
 20
-61.3856
 11
606.4
 21
-60
  0
LINE
  8
0
 10
606.4
 20
-60
 11
606.4
 21
-20
  0
LINE
  8
0
 10
606.4
 20
-20
 11
607.2
 21
-18.6143
  0
LINE
  8
0
 10
607.2
 20
-18.6143
 11
608.8
 21
-18.6143
  0
LINE
  8
0
 10
608.8
 20
-18.6143
 11
609.6
 21
-20
  0
LINE
  8
0
 10
609.6
 20
-20
 11
609.6
 21
-60
  0
LINE
  8
0
 10
609.6
 20
-60
 11
608.8
 21
-61.3856
  0
LINE
  8
0
 10
608.8
 20
-61.3856
 11
607.2
 21
-61.3856
  0
LINE
  8
0
 10
37
 20
-75
 11
47
 21
-75
  0
LINE
  8
0
 10
47
 20
-75
 11
47
 21
75
  0
LINE
  8
0
 10
47
 20
75
 11
37
 21
75
  0
LINE
  8
0
 10
37
 20
75
 11
37
 21
79
  0
LINE
  8
0
 10
37
 20
79
 11
27
 21
79
  0
LINE
  8
0
 10
27
 20
79
 11
27
 21
75
  0
LINE
  8
0
 10
27
 20
75
 11
17
 21
75
  0
LINE
  8
0
 10
17
 20
75
 11
17
 21
-75
  0
LINE
  8
0
 10
17
 20
-75
 11
27
 21
-75
  0
LINE
  8
0
 10
27
 20
-75
 11
27
 21
-79
  0
LINE
  8
0
 10
27
 20
-79
 11
37
 21
-79
  0
LINE
  8
0
 10
37
 20
-79
 11
37
 21
-75
  0
LINE
  8
0
 10
31.2
 20
18.6143
 11
30.4
 21
20
  0
LINE
  8
0
 10
30.4
 20
20
 11
30.4
 21
60
  0
LINE
  8
0
 10
30.4
 20
60
 11
31.2
 21
61.3856
  0
LINE
  8
0
 10
31.2
 20
61.3856
 11
32.8
 21
61.3856
  0
LINE
  8
0
 10
32.8
 20
61.3856
 11
33.6
 21
60
  0
LINE
  8
0
 10
33.6
 20
60
 11
33.6
 21
20
  0
LINE
  8
0
 10
33.6
 20
20
 11
32.8
 21
18.6143
  0
LINE
  8
0
 10
32.8
 20
18.6143
 11
31.2
 21
18.6143
  0
LINE
  8
0
 10
31.2
 20
-61.3856
 11
30.4
 21
-60
  0
LINE
  8
0
 10
30.4
 20
-60
 11
30.4
 21
-20
  0
LINE
  8
0
 10
30.4
 20
-20
 11
31.2
 21
-18.6143
  0
LINE
  8
0
 10
31.2
 20
-18.6143
 11
32.8
 21
-18.6143
  0
LINE
  8
0
 10
32.8
 20
-18.6143
 11
33.6
 21
-20
  0
LINE
  8
0
 10
33.6
 20
-20
 11
33.6
 21
-60
  0
LINE
  8
0
 10
33.6
 20
-60
 11
32.8
 21
-61.3856
  0
LINE
  8
0
 10
32.8
 20
-61.3856
 11
31.2
 21
-61.3856
  0
LINE
  8
0
 10
69
 20
-75
 11
79
 21
-75
  0
LINE
  8
0
 10
79
 20
-75
 11
79
 21
75
  0
LINE
  8
0
 10
79
 20
75
 11
69
 21
75
  0
LINE
  8
0
 10
69
 20
75
 11
69
 21
79
  0
LINE
  8
0
 10
69
 20
79
 11
59
 21
79
  0
LINE
  8
0
 10
59
 20
79
 11
59
 21
75
  0
LINE
  8
0
 10
59
 20
75
 11
49
 21
75
  0
LINE
  8
0
 10
49
 20
75
 11
49
 21
-75
  0
LINE
  8
0
 10
49
 20
-75
 11
59
 21
-75
  0
LINE
  8
0
 10
59
 20
-75
 11
59
 21
-79
  0
LINE
  8
0
 10
59
 20
-79
 11
69
 21
-79
  0
LINE
  8
0
 10
69
 20
-79
 11
69
 21
-75
  0
LINE
  8
0
 10
63.2
 20
18.6143
 11
62.4
 21
20
  0
LINE
  8
0
 10
62.4
 20
20
 11
62.4
 21
60
  0
LINE
  8
0
 10
62.4
 20
60
 11
63.2
 21
61.3856
  0
LINE
  8
0
 10
63.2
 20
61.3856
 11
64.8
 21
61.3856
  0
LINE
  8
0
 10
64.8
 20
61.3856
 11
65.6
 21
60
  0
LINE
  8
0
 10
65.6
 20
60
 11
65.6
 21
20
  0
LINE
  8
0
 10
65.6
 20
20
 11
64.8
 21
18.6143
  0
LINE
  8
0
 10
64.8
 20
18.6143
 11
63.2
 21
18.6143
  0
LINE
  8
0
 10
63.2
 20
-61.3856
 11
62.4
 21
-60
  0
LINE
  8
0
 10
62.4
 20
-60
 11
62.4
 21
-20
  0
LINE
  8
0
 10
62.4
 20
-20
 11
63.2
 21
-18.6143
  0
LINE
  8
0
 10
63.2
 20
-18.6143
 11
64.8
 21
-18.6143
  0
LINE
  8
0
 10
64.8
 20
-18.6143
 11
65.6
 21
-20
  0
LINE
  8
0
 10
65.6
 20
-20
 11
65.6
 21
-60
  0
LINE
  8
0
 10
65.6
 20
-60
 11
64.8
 21
-61.3856
  0
LINE
  8
0
 10
64.8
 20
-61.3856
 11
63.2
 21
-61.3856
  0
LINE
  8
0
 10
645
 20
-75
 11
655
 21
-75
  0
LINE
  8
0
 10
655
 20
-75
 11
655
 21
75
  0
LINE
  8
0
 10
655
 20
75
 11
645
 21
75
  0
LINE
  8
0
 10
645
 20
75
 11
645
 21
79
  0
LINE
  8
0
 10
645
 20
79
 11
635
 21
79
  0
LINE
  8
0
 10
635
 20
79
 11
635
 21
75
  0
LINE
  8
0
 10
635
 20
75
 11
625
 21
75
  0
LINE
  8
0
 10
625
 20
75
 11
625
 21
-75
  0
LINE
  8
0
 10
625
 20
-75
 11
635
 21
-75
  0
LINE
  8
0
 10
635
 20
-75
 11
635
 21
-79
  0
LINE
  8
0
 10
635
 20
-79
 11
645
 21
-79
  0
LINE
  8
0
 10
645
 20
-79
 11
645
 21
-75
  0
LINE
  8
0
 10
639.2
 20
18.6143
 11
638.4
 21
20
  0
LINE
  8
0
 10
638.4
 20
20
 11
638.4
 21
60
  0
LINE
  8
0
 10
638.4
 20
60
 11
639.2
 21
61.3856
  0
LINE
  8
0
 10
639.2
 20
61.3856
 11
640.8
 21
61.3856
  0
LINE
  8
0
 10
640.8
 20
61.3856
 11
641.6
 21
60
  0
LINE
  8
0
 10
641.6
 20
60
 11
641.6
 21
20
  0
LINE
  8
0
 10
641.6
 20
20
 11
640.8
 21
18.6143
  0
LINE
  8
0
 10
640.8
 20
18.6143
 11
639.2
 21
18.6143
  0
LINE
  8
0
 10
639.2
 20
-61.3856
 11
638.4
 21
-60
  0
LINE
  8
0
 10
638.4
 20
-60
 11
638.4
 21
-20
  0
LINE
  8
0
 10
638.4
 20
-20
 11
639.2
 21
-18.6143
  0
LINE
  8
0
 10
639.2
 20
-18.6143
 11
640.8
 21
-18.6143
  0
LINE
  8
0
 10
640.8
 20
-18.6143
 11
641.6
 21
-20
  0
LINE
  8
0
 10
641.6
 20
-20
 11
641.6
 21
-60
  0
LINE
  8
0
 10
641.6
 20
-60
 11
640.8
 21
-61.3856
  0
LINE
  8
0
 10
640.8
 20
-61.3856
 11
639.2
 21
-61.3856
  0
LINE
  8
0
 10
101
 20
-75
 11
111
 21
-75
  0
LINE
  8
0
 10
111
 20
-75
 11
111
 21
75
  0
LINE
  8
0
 10
111
 20
75
 11
101
 21
75
  0
LINE
  8
0
 10
101
 20
75
 11
101
 21
79
  0
LINE
  8
0
 10
101
 20
79
 11
91
 21
79
  0
LINE
  8
0
 10
91
 20
79
 11
91
 21
75
  0
LINE
  8
0
 10
91
 20
75
 11
81
 21
75
  0
LINE
  8
0
 10
81
 20
75
 11
81
 21
-75
  0
LINE
  8
0
 10
81
 20
-75
 11
91
 21
-75
  0
LINE
  8
0
 10
91
 20
-75
 11
91
 21
-79
  0
LINE
  8
0
 10
91
 20
-79
 11
101
 21
-79
  0
LINE
  8
0
 10
101
 20
-79
 11
101
 21
-75
  0
LINE
  8
0
 10
95.2
 20
18.6143
 11
94.4
 21
20
  0
LINE
  8
0
 10
94.4
 20
20
 11
94.4
 21
60
  0
LINE
  8
0
 10
94.4
 20
60
 11
95.2
 21
61.3856
  0
LINE
  8
0
 10
95.2
 20
61.3856
 11
96.8
 21
61.3856
  0
LINE
  8
0
 10
96.8
 20
61.3856
 11
97.6
 21
60
  0
LINE
  8
0
 10
97.6
 20
60
 11
97.6
 21
20
  0
LINE
  8
0
 10
97.6
 20
20
 11
96.8
 21
18.6143
  0
LINE
  8
0
 10
96.8
 20
18.6143
 11
95.2
 21
18.6143
  0
LINE
  8
0
 10
95.2
 20
-61.3856
 11
94.4
 21
-60
  0
LINE
  8
0
 10
94.4
 20
-60
 11
94.4
 21
-20
  0
LINE
  8
0
 10
94.4
 20
-20
 11
95.2
 21
-18.6143
  0
LINE
  8
0
 10
95.2
 20
-18.6143
 11
96.8
 21
-18.6143
  0
LINE
  8
0
 10
96.8
 20
-18.6143
 11
97.6
 21
-20
  0
LINE
  8
0
 10
97.6
 20
-20
 11
97.6
 21
-60
  0
LINE
  8
0
 10
97.6
 20
-60
 11
96.8
 21
-61.3856
  0
LINE
  8
0
 10
96.8
 20
-61.3856
 11
95.2
 21
-61.3856
  0
LINE
  8
0
 10
165
 20
-75
 11
175
 21
-75
  0
LINE
  8
0
 10
175
 20
-75
 11
175
 21
75
  0
LINE
  8
0
 10
175
 20
75
 11
165
 21
75
  0
LINE
  8
0
 10
165
 20
75
 11
165
 21
79
  0
LINE
  8
0
 10
165
 20
79
 11
155
 21
79
  0
LINE
  8
0
 10
155
 20
79
 11
155
 21
75
  0
LINE
  8
0
 10
155
 20
75
 11
145
 21
75
  0
LINE
  8
0
 10
145
 20
75
 11
145
 21
-75
  0
LINE
  8
0
 10
145
 20
-75
 11
155
 21
-75
  0
LINE
  8
0
 10
155
 20
-75
 11
155
 21
-79
  0
LINE
  8
0
 10
155
 20
-79
 11
165
 21
-79
  0
LINE
  8
0
 10
165
 20
-79
 11
165
 21
-75
  0
LINE
  8
0
 10
159.2
 20
18.6143
 11
158.4
 21
20
  0
LINE
  8
0
 10
158.4
 20
20
 11
158.4
 21
60
  0
LINE
  8
0
 10
158.4
 20
60
 11
159.2
 21
61.3856
  0
LINE
  8
0
 10
159.2
 20
61.3856
 11
160.8
 21
61.3856
  0
LINE
  8
0
 10
160.8
 20
61.3856
 11
161.6
 21
60
  0
LINE
  8
0
 10
161.6
 20
60
 11
161.6
 21
20
  0
LINE
  8
0
 10
161.6
 20
20
 11
160.8
 21
18.6143
  0
LINE
  8
0
 10
160.8
 20
18.6143
 11
159.2
 21
18.6143
  0
LINE
  8
0
 10
159.2
 20
-61.3856
 11
158.4
 21
-60
  0
LINE
  8
0
 10
158.4
 20
-60
 11
158.4
 21
-20
  0
LINE
  8
0
 10
158.4
 20
-20
 11
159.2
 21
-18.6143
  0
LINE
  8
0
 10
159.2
 20
-18.6143
 11
160.8
 21
-18.6143
  0
LINE
  8
0
 10
160.8
 20
-18.6143
 11
161.6
 21
-20
  0
LINE
  8
0
 10
161.6
 20
-20
 11
161.6
 21
-60
  0
LINE
  8
0
 10
161.6
 20
-60
 11
160.8
 21
-61.3856
  0
LINE
  8
0
 10
160.8
 20
-61.3856
 11
159.2
 21
-61.3856
  0
LINE
  8
0
 10
133
 20
-75
 11
143
 21
-75
  0
LINE
  8
0
 10
143
 20
-75
 11
143
 21
75
  0
LINE
  8
0
 10
143
 20
75
 11
133
 21
75
  0
LINE
  8
0
 10
133
 20
75
 11
133
 21
79
  0
LINE
  8
0
 10
133
 20
79
 11
123
 21
79
  0
LINE
  8
0
 10
123
 20
79
 11
123
 21
75
  0
LINE
  8
0
 10
123
 20
75
 11
113
 21
75
  0
LINE
  8
0
 10
113
 20
75
 11
113
 21
-75
  0
LINE
  8
0
 10
113
 20
-75
 11
123
 21
-75
  0
LINE
  8
0
 10
123
 20
-75
 11
123
 21
-79
  0
LINE
  8
0
 10
123
 20
-79
 11
133
 21
-79
  0
LINE
  8
0
 10
133
 20
-79
 11
133
 21
-75
  0
LINE
  8
0
 10
127.2
 20
18.6143
 11
126.4
 21
20
  0
LINE
  8
0
 10
126.4
 20
20
 11
126.4
 21
60
  0
LINE
  8
0
 10
126.4
 20
60
 11
127.2
 21
61.3856
  0
LINE
  8
0
 10
127.2
 20
61.3856
 11
128.8
 21
61.3856
  0
LINE
  8
0
 10
128.8
 20
61.3856
 11
129.6
 21
60
  0
LINE
  8
0
 10
129.6
 20
60
 11
129.6
 21
20
  0
LINE
  8
0
 10
129.6
 20
20
 11
128.8
 21
18.6143
  0
LINE
  8
0
 10
128.8
 20
18.6143
 11
127.2
 21
18.6143
  0
LINE
  8
0
 10
127.2
 20
-61.3856
 11
126.4
 21
-60
  0
LINE
  8
0
 10
126.4
 20
-60
 11
126.4
 21
-20
  0
LINE
  8
0
 10
126.4
 20
-20
 11
127.2
 21
-18.6143
  0
LINE
  8
0
 10
127.2
 20
-18.6143
 11
128.8
 21
-18.6143
  0
LINE
  8
0
 10
128.8
 20
-18.6143
 11
129.6
 21
-20
  0
LINE
  8
0
 10
129.6
 20
-20
 11
129.6
 21
-60
  0
LINE
  8
0
 10
129.6
 20
-60
 11
128.8
 21
-61.3856
  0
LINE
  8
0
 10
128.8
 20
-61.3856
 11
127.2
 21
-61.3856
  0
LINE
  8
0
 10
581
 20
-75
 11
591
 21
-75
  0
LINE
  8
0
 10
591
 20
-75
 11
591
 21
75
  0
LINE
  8
0
 10
591
 20
75
 11
581
 21
75
  0
LINE
  8
0
 10
581
 20
75
 11
581
 21
79
  0
LINE
  8
0
 10
581
 20
79
 11
571
 21
79
  0
LINE
  8
0
 10
571
 20
79
 11
571
 21
75
  0
LINE
  8
0
 10
571
 20
75
 11
561
 21
75
  0
LINE
  8
0
 10
561
 20
75
 11
561
 21
-75
  0
LINE
  8
0
 10
561
 20
-75
 11
571
 21
-75
  0
LINE
  8
0
 10
571
 20
-75
 11
571
 21
-79
  0
LINE
  8
0
 10
571
 20
-79
 11
581
 21
-79
  0
LINE
  8
0
 10
581
 20
-79
 11
581
 21
-75
  0
LINE
  8
0
 10
575.2
 20
18.6143
 11
574.4
 21
20
  0
LINE
  8
0
 10
574.4
 20
20
 11
574.4
 21
60
  0
LINE
  8
0
 10
574.4
 20
60
 11
575.2
 21
61.3856
  0
LINE
  8
0
 10
575.2
 20
61.3856
 11
576.8
 21
61.3856
  0
LINE
  8
0
 10
576.8
 20
61.3856
 11
577.6
 21
60
  0
LINE
  8
0
 10
577.6
 20
60
 11
577.6
 21
20
  0
LINE
  8
0
 10
577.6
 20
20
 11
576.8
 21
18.6143
  0
LINE
  8
0
 10
576.8
 20
18.6143
 11
575.2
 21
18.6143
  0
LINE
  8
0
 10
575.2
 20
-61.3856
 11
574.4
 21
-60
  0
LINE
  8
0
 10
574.4
 20
-60
 11
574.4
 21
-20
  0
LINE
  8
0
 10
574.4
 20
-20
 11
575.2
 21
-18.6143
  0
LINE
  8
0
 10
575.2
 20
-18.6143
 11
576.8
 21
-18.6143
  0
LINE
  8
0
 10
576.8
 20
-18.6143
 11
577.6
 21
-20
  0
LINE
  8
0
 10
577.6
 20
-20
 11
577.6
 21
-60
  0
LINE
  8
0
 10
577.6
 20
-60
 11
576.8
 21
-61.3856
  0
LINE
  8
0
 10
576.8
 20
-61.3856
 11
575.2
 21
-61.3856
  0
ENDSEC
  0
SECTION
  2
OBJECTS
  0
DICTIONARY
  0
ENDSEC
  0
EOF
