  0
SECTION
  2
BLOCKS
  0
ENDSEC
  0
SECTION
  2
ENTITIES
  0
LINE
  8
0
 10
1.9509
 20
-189.808
 11
3.82683
 21
-189.239
  0
LINE
  8
0
 10
3.82683
 20
-189.239
 11
5.55569
 21
-188.315
  0
LINE
  8
0
 10
5.55569
 20
-188.315
 11
7.07106
 21
-187.071
  0
LINE
  8
0
 10
7.07106
 20
-187.071
 11
8.31468
 21
-185.556
  0
LINE
  8
0
 10
8.31468
 20
-185.556
 11
9.23878
 21
-183.827
  0
LINE
  8
0
 10
9.23878
 20
-183.827
 11
9.80785
 21
-181.951
  0
LINE
  8
0
 10
9.80785
 20
-181.951
 11
10
 21
-180
  0
LINE
  8
0
 10
10
 20
-180
 11
9.97238
 21
-179.72
  0
LINE
  8
0
 10
9.97238
 20
-179.72
 11
12.5562
 21
-179.562
  0
LINE
  8
0
 10
12.5562
 20
-179.562
 11
15.688
 21
-179.315
  0
LINE
  8
0
 10
15.688
 20
-179.315
 11
18.8151
 21
-179.014
  0
LINE
  8
0
 10
18.8151
 20
-179.014
 11
21.9365
 21
-178.658
  0
LINE
  8
0
 10
21.9365
 20
-178.658
 11
25.0511
 21
-178.248
  0
LINE
  8
0
 10
25.0511
 20
-178.248
 11
28.1582
 21
-177.784
  0
LINE
  8
0
 10
28.1582
 20
-177.784
 11
31.2567
 21
-177.265
  0
LINE
  8
0
 10
31.2567
 20
-177.265
 11
34.3456
 21
-176.693
  0
LINE
  8
0
 10
34.3456
 20
-176.693
 11
37.4241
 21
-176.067
  0
LINE
  8
0
 10
37.4241
 20
-176.067
 11
40.4912
 21
-175.387
  0
LINE
  8
0
 10
40.4912
 20
-175.387
 11
43.5459
 21
-174.653
  0
LINE
  8
0
 10
43.5459
 20
-174.653
 11
46.5874
 21
-173.867
  0
LINE
  8
0
 10
46.5874
 20
-173.867
 11
49.6147
 21
-173.027
  0
LINE
  8
0
 10
49.6147
 20
-173.027
 11
52.6269
 21
-172.135
  0
LINE
  8
0
 10
52.6269
 20
-172.135
 11
55.623
 21
-171.19
  0
LINE
  8
0
 10
55.623
 20
-171.19
 11
58.6023
 21
-170.193
  0
LINE
  8
0
 10
58.6023
 20
-170.193
 11
61.5636
 21
-169.145
  0
LINE
  8
0
 10
61.5636
 20
-169.145
 11
64.5062
 21
-168.044
  0
LINE
  8
0
 10
64.5062
 20
-168.044
 11
67.4292
 21
-166.893
  0
LINE
  8
0
 10
67.4292
 20
-166.893
 11
70.3316
 21
-165.691
  0
LINE
  8
0
 10
70.3316
 20
-165.691
 11
73.2126
 21
-164.438
  0
LINE
  8
0
 10
73.2126
 20
-164.438
 11
76.0713
 21
-163.135
  0
LINE
  8
0
 10
76.0713
 20
-163.135
 11
78.9068
 21
-161.783
  0
LINE
  8
0
 10
78.9068
 20
-161.783
 11
81.7183
 21
-160.381
  0
LINE
  8
0
 10
81.7183
 20
-160.381
 11
84.5049
 21
-158.931
  0
LINE
  8
0
 10
84.5049
 20
-158.931
 11
87.2657
 21
-157.432
  0
LINE
  8
0
 10
87.2657
 20
-157.432
 11
90
 21
-155.885
  0
LINE
  8
0
 10
90
 20
-155.885
 11
92.7068
 21
-154.29
  0
LINE
  8
0
 10
92.7068
 20
-154.29
 11
95.3855
 21
-152.649
  0
LINE
  8
0
 10
95.3855
 20
-152.649
 11
98.035
 21
-150.961
  0
LINE
  8
0
 10
98.035
 20
-150.961
 11
100.655
 21
-149.227
  0
LINE
  8
0
 10
100.655
 20
-149.227
 11
103.244
 21
-147.447
  0
LINE
  8
0
 10
103.244
 20
-147.447
 11
105.801
 21
-145.623
  0
LINE
  8
0
 10
105.801
 20
-145.623
 11
108.327
 21
-143.754
  0
LINE
  8
0
 10
108.327
 20
-143.754
 11
110.819
 21
-141.842
  0
LINE
  8
0
 10
110.819
 20
-141.842
 11
113.278
 21
-139.886
  0
LINE
  8
0
 10
113.278
 20
-139.886
 11
115.702
 21
-137.888
  0
LINE
  8
0
 10
115.702
 20
-137.888
 11
118.091
 21
-135.848
  0
LINE
  8
0
 10
118.091
 20
-135.848
 11
120.443
 21
-133.766
  0
LINE
  8
0
 10
120.443
 20
-133.766
 11
122.76
 21
-131.644
  0
LINE
  8
0
 10
122.76
 20
-131.644
 11
125.038
 21
-129.481
  0
LINE
  8
0
 10
125.038
 20
-129.481
 11
127.279
 21
-127.279
  0
LINE
  8
0
 10
127.279
 20
-127.279
 11
129.481
 21
-125.038
  0
LINE
  8
0
 10
129.481
 20
-125.038
 11
131.644
 21
-122.76
  0
LINE
  8
0
 10
131.644
 20
-122.76
 11
133.766
 21
-120.443
  0
LINE
  8
0
 10
133.766
 20
-120.443
 11
135.848
 21
-118.091
  0
LINE
  8
0
 10
135.848
 20
-118.091
 11
137.888
 21
-115.702
  0
LINE
  8
0
 10
137.888
 20
-115.702
 11
139.886
 21
-113.278
  0
LINE
  8
0
 10
139.886
 20
-113.278
 11
141.842
 21
-110.819
  0
LINE
  8
0
 10
141.842
 20
-110.819
 11
143.754
 21
-108.327
  0
LINE
  8
0
 10
143.754
 20
-108.327
 11
145.623
 21
-105.801
  0
LINE
  8
0
 10
145.623
 20
-105.801
 11
147.447
 21
-103.244
  0
LINE
  8
0
 10
147.447
 20
-103.244
 11
149.227
 21
-100.655
  0
LINE
  8
0
 10
149.227
 20
-100.655
 11
150.961
 21
-98.035
  0
LINE
  8
0
 10
150.961
 20
-98.035
 11
152.649
 21
-95.3855
  0
LINE
  8
0
 10
152.649
 20
-95.3855
 11
154.29
 21
-92.7068
  0
LINE
  8
0
 10
154.29
 20
-92.7068
 11
155.885
 21
-90
  0
LINE
  8
0
 10
155.885
 20
-90
 11
157.432
 21
-87.2657
  0
LINE
  8
0
 10
157.432
 20
-87.2657
 11
158.931
 21
-84.5049
  0
LINE
  8
0
 10
158.931
 20
-84.5049
 11
160.381
 21
-81.7183
  0
LINE
  8
0
 10
160.381
 20
-81.7183
 11
161.783
 21
-78.9068
  0
LINE
  8
0
 10
161.783
 20
-78.9068
 11
163.135
 21
-76.0713
  0
LINE
  8
0
 10
163.135
 20
-76.0713
 11
164.438
 21
-73.2126
  0
LINE
  8
0
 10
164.438
 20
-73.2126
 11
165.691
 21
-70.3316
  0
LINE
  8
0
 10
165.691
 20
-70.3316
 11
166.893
 21
-67.4292
  0
LINE
  8
0
 10
166.893
 20
-67.4292
 11
168.044
 21
-64.5062
  0
LINE
  8
0
 10
168.044
 20
-64.5062
 11
169.145
 21
-61.5636
  0
LINE
  8
0
 10
169.145
 20
-61.5636
 11
170.193
 21
-58.6023
  0
LINE
  8
0
 10
170.193
 20
-58.6023
 11
171.19
 21
-55.623
  0
LINE
  8
0
 10
171.19
 20
-55.623
 11
172.135
 21
-52.6269
  0
LINE
  8
0
 10
172.135
 20
-52.6269
 11
173.027
 21
-49.6147
  0
LINE
  8
0
 10
173.027
 20
-49.6147
 11
173.867
 21
-46.5874
  0
LINE
  8
0
 10
173.867
 20
-46.5874
 11
174.653
 21
-43.5459
  0
LINE
  8
0
 10
174.653
 20
-43.5459
 11
175.387
 21
-40.4912
  0
LINE
  8
0
 10
175.387
 20
-40.4912
 11
176.067
 21
-37.4241
  0
LINE
  8
0
 10
176.067
 20
-37.4241
 11
176.693
 21
-34.3456
  0
LINE
  8
0
 10
176.693
 20
-34.3456
 11
177.265
 21
-31.2567
  0
LINE
  8
0
 10
177.265
 20
-31.2567
 11
177.784
 21
-28.1582
  0
LINE
  8
0
 10
177.784
 20
-28.1582
 11
178.248
 21
-25.0511
  0
LINE
  8
0
 10
178.248
 20
-25.0511
 11
178.658
 21
-21.9365
  0
LINE
  8
0
 10
178.658
 20
-21.9365
 11
179.014
 21
-18.8151
  0
LINE
  8
0
 10
179.014
 20
-18.8151
 11
179.315
 21
-15.688
  0
LINE
  8
0
 10
179.315
 20
-15.688
 11
179.562
 21
-12.5562
  0
LINE
  8
0
 10
179.562
 20
-12.5562
 11
179.72
 21
-9.97238
  0
LINE
  8
0
 10
179.72
 20
-9.97238
 11
180
 21
-10
  0
LINE
  8
0
 10
180
 20
-10
 11
181.951
 21
-9.80785
  0
LINE
  8
0
 10
181.951
 20
-9.80785
 11
183.827
 21
-9.23878
  0
LINE
  8
0
 10
183.827
 20
-9.23878
 11
185.556
 21
-8.31468
  0
LINE
  8
0
 10
185.556
 20
-8.31468
 11
187.071
 21
-7.07106
  0
LINE
  8
0
 10
187.071
 20
-7.07106
 11
188.315
 21
-5.55569
  0
LINE
  8
0
 10
188.315
 20
-5.55569
 11
189.239
 21
-3.82683
  0
LINE
  8
0
 10
189.239
 20
-3.82683
 11
189.808
 21
-1.9509
  0
LINE
  8
0
 10
189.808
 20
-1.9509
 11
190
 21
0
  0
LINE
  8
0
 10
190
 20
0
 11
189.808
 21
1.9509
  0
LINE
  8
0
 10
189.808
 20
1.9509
 11
189.239
 21
3.82683
  0
LINE
  8
0
 10
189.239
 20
3.82683
 11
188.315
 21
5.55569
  0
LINE
  8
0
 10
188.315
 20
5.55569
 11
187.071
 21
7.07106
  0
LINE
  8
0
 10
187.071
 20
7.07106
 11
185.556
 21
8.31468
  0
LINE
  8
0
 10
185.556
 20
8.31468
 11
183.827
 21
9.23878
  0
LINE
  8
0
 10
183.827
 20
9.23878
 11
181.951
 21
9.80785
  0
LINE
  8
0
 10
181.951
 20
9.80785
 11
180
 21
10
  0
LINE
  8
0
 10
180
 20
10
 11
179.72
 21
9.97238
  0
LINE
  8
0
 10
179.72
 20
9.97238
 11
179.562
 21
12.5562
  0
LINE
  8
0
 10
179.562
 20
12.5562
 11
179.315
 21
15.688
  0
LINE
  8
0
 10
179.315
 20
15.688
 11
179.014
 21
18.8151
  0
LINE
  8
0
 10
179.014
 20
18.8151
 11
178.658
 21
21.9365
  0
LINE
  8
0
 10
178.658
 20
21.9365
 11
178.248
 21
25.0511
  0
LINE
  8
0
 10
178.248
 20
25.0511
 11
177.784
 21
28.1582
  0
LINE
  8
0
 10
177.784
 20
28.1582
 11
177.265
 21
31.2567
  0
LINE
  8
0
 10
177.265
 20
31.2567
 11
176.693
 21
34.3456
  0
LINE
  8
0
 10
176.693
 20
34.3456
 11
176.067
 21
37.4241
  0
LINE
  8
0
 10
176.067
 20
37.4241
 11
175.387
 21
40.4912
  0
LINE
  8
0
 10
175.387
 20
40.4912
 11
174.653
 21
43.5459
  0
LINE
  8
0
 10
174.653
 20
43.5459
 11
173.867
 21
46.5874
  0
LINE
  8
0
 10
173.867
 20
46.5874
 11
173.027
 21
49.6147
  0
LINE
  8
0
 10
173.027
 20
49.6147
 11
172.135
 21
52.6269
  0
LINE
  8
0
 10
172.135
 20
52.6269
 11
171.19
 21
55.623
  0
LINE
  8
0
 10
171.19
 20
55.623
 11
170.193
 21
58.6023
  0
LINE
  8
0
 10
170.193
 20
58.6023
 11
169.145
 21
61.5636
  0
LINE
  8
0
 10
169.145
 20
61.5636
 11
168.044
 21
64.5062
  0
LINE
  8
0
 10
168.044
 20
64.5062
 11
166.893
 21
67.4292
  0
LINE
  8
0
 10
166.893
 20
67.4292
 11
165.691
 21
70.3316
  0
LINE
  8
0
 10
165.691
 20
70.3316
 11
164.438
 21
73.2126
  0
LINE
  8
0
 10
164.438
 20
73.2126
 11
163.135
 21
76.0713
  0
LINE
  8
0
 10
163.135
 20
76.0713
 11
161.783
 21
78.9068
  0
LINE
  8
0
 10
161.783
 20
78.9068
 11
160.381
 21
81.7183
  0
LINE
  8
0
 10
160.381
 20
81.7183
 11
158.931
 21
84.5049
  0
LINE
  8
0
 10
158.931
 20
84.5049
 11
157.432
 21
87.2657
  0
LINE
  8
0
 10
157.432
 20
87.2657
 11
155.885
 21
90
  0
LINE
  8
0
 10
155.885
 20
90
 11
154.29
 21
92.7068
  0
LINE
  8
0
 10
154.29
 20
92.7068
 11
152.649
 21
95.3855
  0
LINE
  8
0
 10
152.649
 20
95.3855
 11
150.961
 21
98.035
  0
LINE
  8
0
 10
150.961
 20
98.035
 11
149.227
 21
100.655
  0
LINE
  8
0
 10
149.227
 20
100.655
 11
147.447
 21
103.244
  0
LINE
  8
0
 10
147.447
 20
103.244
 11
145.623
 21
105.801
  0
LINE
  8
0
 10
145.623
 20
105.801
 11
143.754
 21
108.327
  0
LINE
  8
0
 10
143.754
 20
108.327
 11
141.842
 21
110.819
  0
LINE
  8
0
 10
141.842
 20
110.819
 11
139.886
 21
113.278
  0
LINE
  8
0
 10
139.886
 20
113.278
 11
137.888
 21
115.702
  0
LINE
  8
0
 10
137.888
 20
115.702
 11
135.848
 21
118.091
  0
LINE
  8
0
 10
135.848
 20
118.091
 11
133.766
 21
120.443
  0
LINE
  8
0
 10
133.766
 20
120.443
 11
131.644
 21
122.76
  0
LINE
  8
0
 10
131.644
 20
122.76
 11
129.481
 21
125.038
  0
LINE
  8
0
 10
129.481
 20
125.038
 11
127.279
 21
127.279
  0
LINE
  8
0
 10
127.279
 20
127.279
 11
125.038
 21
129.481
  0
LINE
  8
0
 10
125.038
 20
129.481
 11
122.76
 21
131.644
  0
LINE
  8
0
 10
122.76
 20
131.644
 11
120.443
 21
133.766
  0
LINE
  8
0
 10
120.443
 20
133.766
 11
118.091
 21
135.848
  0
LINE
  8
0
 10
118.091
 20
135.848
 11
115.702
 21
137.888
  0
LINE
  8
0
 10
115.702
 20
137.888
 11
113.278
 21
139.886
  0
LINE
  8
0
 10
113.278
 20
139.886
 11
110.819
 21
141.842
  0
LINE
  8
0
 10
110.819
 20
141.842
 11
108.327
 21
143.754
  0
LINE
  8
0
 10
108.327
 20
143.754
 11
105.801
 21
145.623
  0
LINE
  8
0
 10
105.801
 20
145.623
 11
103.244
 21
147.447
  0
LINE
  8
0
 10
103.244
 20
147.447
 11
100.655
 21
149.227
  0
LINE
  8
0
 10
100.655
 20
149.227
 11
98.035
 21
150.961
  0
LINE
  8
0
 10
98.035
 20
150.961
 11
95.3855
 21
152.649
  0
LINE
  8
0
 10
95.3855
 20
152.649
 11
92.7068
 21
154.29
  0
LINE
  8
0
 10
92.7068
 20
154.29
 11
90
 21
155.885
  0
LINE
  8
0
 10
90
 20
155.885
 11
87.2657
 21
157.432
  0
LINE
  8
0
 10
87.2657
 20
157.432
 11
84.5049
 21
158.931
  0
LINE
  8
0
 10
84.5049
 20
158.931
 11
81.7183
 21
160.381
  0
LINE
  8
0
 10
81.7183
 20
160.381
 11
78.9068
 21
161.783
  0
LINE
  8
0
 10
78.9068
 20
161.783
 11
76.0713
 21
163.135
  0
LINE
  8
0
 10
76.0713
 20
163.135
 11
73.2126
 21
164.438
  0
LINE
  8
0
 10
73.2126
 20
164.438
 11
70.3316
 21
165.691
  0
LINE
  8
0
 10
70.3316
 20
165.691
 11
67.4292
 21
166.893
  0
LINE
  8
0
 10
67.4292
 20
166.893
 11
64.5062
 21
168.044
  0
LINE
  8
0
 10
64.5062
 20
168.044
 11
61.5636
 21
169.145
  0
LINE
  8
0
 10
61.5636
 20
169.145
 11
58.6023
 21
170.193
  0
LINE
  8
0
 10
58.6023
 20
170.193
 11
55.623
 21
171.19
  0
LINE
  8
0
 10
55.623
 20
171.19
 11
52.6269
 21
172.135
  0
LINE
  8
0
 10
52.6269
 20
172.135
 11
49.6147
 21
173.027
  0
LINE
  8
0
 10
49.6147
 20
173.027
 11
46.5874
 21
173.867
  0
LINE
  8
0
 10
46.5874
 20
173.867
 11
43.5459
 21
174.653
  0
LINE
  8
0
 10
43.5459
 20
174.653
 11
40.4912
 21
175.387
  0
LINE
  8
0
 10
40.4912
 20
175.387
 11
37.4241
 21
176.067
  0
LINE
  8
0
 10
37.4241
 20
176.067
 11
34.3456
 21
176.693
  0
LINE
  8
0
 10
34.3456
 20
176.693
 11
31.2567
 21
177.265
  0
LINE
  8
0
 10
31.2567
 20
177.265
 11
28.1582
 21
177.784
  0
LINE
  8
0
 10
28.1582
 20
177.784
 11
25.0511
 21
178.248
  0
LINE
  8
0
 10
25.0511
 20
178.248
 11
21.9365
 21
178.658
  0
LINE
  8
0
 10
21.9365
 20
178.658
 11
18.8151
 21
179.014
  0
LINE
  8
0
 10
18.8151
 20
179.014
 11
15.688
 21
179.315
  0
LINE
  8
0
 10
15.688
 20
179.315
 11
12.5562
 21
179.562
  0
LINE
  8
0
 10
12.5562
 20
179.562
 11
9.97238
 21
179.72
  0
LINE
  8
0
 10
9.97238
 20
179.72
 11
10
 21
180
  0
LINE
  8
0
 10
10
 20
180
 11
9.80785
 21
181.951
  0
LINE
  8
0
 10
9.80785
 20
181.951
 11
9.23878
 21
183.827
  0
LINE
  8
0
 10
9.23878
 20
183.827
 11
8.31468
 21
185.556
  0
LINE
  8
0
 10
8.31468
 20
185.556
 11
7.07106
 21
187.071
  0
LINE
  8
0
 10
7.07106
 20
187.071
 11
5.55569
 21
188.315
  0
LINE
  8
0
 10
5.55569
 20
188.315
 11
3.82683
 21
189.239
  0
LINE
  8
0
 10
3.82683
 20
189.239
 11
1.9509
 21
189.808
  0
LINE
  8
0
 10
1.9509
 20
189.808
 11
0
 21
190
  0
LINE
  8
0
 10
0
 20
190
 11
-1.9509
 21
189.808
  0
LINE
  8
0
 10
-1.9509
 20
189.808
 11
-3.82683
 21
189.239
  0
LINE
  8
0
 10
-3.82683
 20
189.239
 11
-5.55569
 21
188.315
  0
LINE
  8
0
 10
-5.55569
 20
188.315
 11
-7.07106
 21
187.071
  0
LINE
  8
0
 10
-7.07106
 20
187.071
 11
-8.31468
 21
185.556
  0
LINE
  8
0
 10
-8.31468
 20
185.556
 11
-9.23878
 21
183.827
  0
LINE
  8
0
 10
-9.23878
 20
183.827
 11
-9.80785
 21
181.951
  0
LINE
  8
0
 10
-9.80785
 20
181.951
 11
-10
 21
180
  0
LINE
  8
0
 10
-10
 20
180
 11
-9.97238
 21
179.72
  0
LINE
  8
0
 10
-9.97238
 20
179.72
 11
-12.5562
 21
179.562
  0
LINE
  8
0
 10
-12.5562
 20
179.562
 11
-15.688
 21
179.315
  0
LINE
  8
0
 10
-15.688
 20
179.315
 11
-18.8151
 21
179.014
  0
LINE
  8
0
 10
-18.8151
 20
179.014
 11
-21.9365
 21
178.658
  0
LINE
  8
0
 10
-21.9365
 20
178.658
 11
-25.0511
 21
178.248
  0
LINE
  8
0
 10
-25.0511
 20
178.248
 11
-28.1582
 21
177.784
  0
LINE
  8
0
 10
-28.1582
 20
177.784
 11
-31.2567
 21
177.265
  0
LINE
  8
0
 10
-31.2567
 20
177.265
 11
-34.3456
 21
176.693
  0
LINE
  8
0
 10
-34.3456
 20
176.693
 11
-37.4241
 21
176.067
  0
LINE
  8
0
 10
-37.4241
 20
176.067
 11
-40.4912
 21
175.387
  0
LINE
  8
0
 10
-40.4912
 20
175.387
 11
-43.5459
 21
174.653
  0
LINE
  8
0
 10
-43.5459
 20
174.653
 11
-46.5874
 21
173.867
  0
LINE
  8
0
 10
-46.5874
 20
173.867
 11
-49.6147
 21
173.027
  0
LINE
  8
0
 10
-49.6147
 20
173.027
 11
-52.6269
 21
172.135
  0
LINE
  8
0
 10
-52.6269
 20
172.135
 11
-55.623
 21
171.19
  0
LINE
  8
0
 10
-55.623
 20
171.19
 11
-58.6023
 21
170.193
  0
LINE
  8
0
 10
-58.6023
 20
170.193
 11
-61.5636
 21
169.145
  0
LINE
  8
0
 10
-61.5636
 20
169.145
 11
-64.5062
 21
168.044
  0
LINE
  8
0
 10
-64.5062
 20
168.044
 11
-67.4292
 21
166.893
  0
LINE
  8
0
 10
-67.4292
 20
166.893
 11
-70.3316
 21
165.691
  0
LINE
  8
0
 10
-70.3316
 20
165.691
 11
-73.2126
 21
164.438
  0
LINE
  8
0
 10
-73.2126
 20
164.438
 11
-76.0713
 21
163.135
  0
LINE
  8
0
 10
-76.0713
 20
163.135
 11
-78.9068
 21
161.783
  0
LINE
  8
0
 10
-78.9068
 20
161.783
 11
-81.7183
 21
160.381
  0
LINE
  8
0
 10
-81.7183
 20
160.381
 11
-84.5049
 21
158.931
  0
LINE
  8
0
 10
-84.5049
 20
158.931
 11
-87.2657
 21
157.432
  0
LINE
  8
0
 10
-87.2657
 20
157.432
 11
-90
 21
155.885
  0
LINE
  8
0
 10
-90
 20
155.885
 11
-92.7068
 21
154.29
  0
LINE
  8
0
 10
-92.7068
 20
154.29
 11
-95.3855
 21
152.649
  0
LINE
  8
0
 10
-95.3855
 20
152.649
 11
-98.035
 21
150.961
  0
LINE
  8
0
 10
-98.035
 20
150.961
 11
-100.655
 21
149.227
  0
LINE
  8
0
 10
-100.655
 20
149.227
 11
-103.244
 21
147.447
  0
LINE
  8
0
 10
-103.244
 20
147.447
 11
-105.801
 21
145.623
  0
LINE
  8
0
 10
-105.801
 20
145.623
 11
-108.327
 21
143.754
  0
LINE
  8
0
 10
-108.327
 20
143.754
 11
-110.819
 21
141.842
  0
LINE
  8
0
 10
-110.819
 20
141.842
 11
-113.278
 21
139.886
  0
LINE
  8
0
 10
-113.278
 20
139.886
 11
-115.702
 21
137.888
  0
LINE
  8
0
 10
-115.702
 20
137.888
 11
-118.091
 21
135.848
  0
LINE
  8
0
 10
-118.091
 20
135.848
 11
-120.443
 21
133.766
  0
LINE
  8
0
 10
-120.443
 20
133.766
 11
-122.76
 21
131.644
  0
LINE
  8
0
 10
-122.76
 20
131.644
 11
-125.038
 21
129.481
  0
LINE
  8
0
 10
-125.038
 20
129.481
 11
-127.279
 21
127.279
  0
LINE
  8
0
 10
-127.279
 20
127.279
 11
-129.481
 21
125.038
  0
LINE
  8
0
 10
-129.481
 20
125.038
 11
-131.644
 21
122.76
  0
LINE
  8
0
 10
-131.644
 20
122.76
 11
-133.766
 21
120.443
  0
LINE
  8
0
 10
-133.766
 20
120.443
 11
-135.848
 21
118.091
  0
LINE
  8
0
 10
-135.848
 20
118.091
 11
-137.888
 21
115.702
  0
LINE
  8
0
 10
-137.888
 20
115.702
 11
-139.886
 21
113.278
  0
LINE
  8
0
 10
-139.886
 20
113.278
 11
-141.842
 21
110.819
  0
LINE
  8
0
 10
-141.842
 20
110.819
 11
-143.754
 21
108.327
  0
LINE
  8
0
 10
-143.754
 20
108.327
 11
-145.623
 21
105.801
  0
LINE
  8
0
 10
-145.623
 20
105.801
 11
-147.447
 21
103.244
  0
LINE
  8
0
 10
-147.447
 20
103.244
 11
-149.227
 21
100.655
  0
LINE
  8
0
 10
-149.227
 20
100.655
 11
-150.961
 21
98.035
  0
LINE
  8
0
 10
-150.961
 20
98.035
 11
-152.649
 21
95.3855
  0
LINE
  8
0
 10
-152.649
 20
95.3855
 11
-154.29
 21
92.7068
  0
LINE
  8
0
 10
-154.29
 20
92.7068
 11
-155.885
 21
90
  0
LINE
  8
0
 10
-155.885
 20
90
 11
-157.432
 21
87.2657
  0
LINE
  8
0
 10
-157.432
 20
87.2657
 11
-158.931
 21
84.5049
  0
LINE
  8
0
 10
-158.931
 20
84.5049
 11
-160.381
 21
81.7183
  0
LINE
  8
0
 10
-160.381
 20
81.7183
 11
-161.783
 21
78.9068
  0
LINE
  8
0
 10
-161.783
 20
78.9068
 11
-163.135
 21
76.0713
  0
LINE
  8
0
 10
-163.135
 20
76.0713
 11
-164.438
 21
73.2126
  0
LINE
  8
0
 10
-164.438
 20
73.2126
 11
-165.691
 21
70.3316
  0
LINE
  8
0
 10
-165.691
 20
70.3316
 11
-166.893
 21
67.4292
  0
LINE
  8
0
 10
-166.893
 20
67.4292
 11
-168.044
 21
64.5062
  0
LINE
  8
0
 10
-168.044
 20
64.5062
 11
-169.145
 21
61.5636
  0
LINE
  8
0
 10
-169.145
 20
61.5636
 11
-170.193
 21
58.6023
  0
LINE
  8
0
 10
-170.193
 20
58.6023
 11
-171.19
 21
55.623
  0
LINE
  8
0
 10
-171.19
 20
55.623
 11
-172.135
 21
52.6269
  0
LINE
  8
0
 10
-172.135
 20
52.6269
 11
-173.027
 21
49.6147
  0
LINE
  8
0
 10
-173.027
 20
49.6147
 11
-173.867
 21
46.5874
  0
LINE
  8
0
 10
-173.867
 20
46.5874
 11
-174.653
 21
43.5459
  0
LINE
  8
0
 10
-174.653
 20
43.5459
 11
-175.387
 21
40.4912
  0
LINE
  8
0
 10
-175.387
 20
40.4912
 11
-176.067
 21
37.4241
  0
LINE
  8
0
 10
-176.067
 20
37.4241
 11
-176.693
 21
34.3456
  0
LINE
  8
0
 10
-176.693
 20
34.3456
 11
-177.265
 21
31.2567
  0
LINE
  8
0
 10
-177.265
 20
31.2567
 11
-177.784
 21
28.1582
  0
LINE
  8
0
 10
-177.784
 20
28.1582
 11
-178.248
 21
25.0511
  0
LINE
  8
0
 10
-178.248
 20
25.0511
 11
-178.658
 21
21.9365
  0
LINE
  8
0
 10
-178.658
 20
21.9365
 11
-179.014
 21
18.8151
  0
LINE
  8
0
 10
-179.014
 20
18.8151
 11
-179.315
 21
15.688
  0
LINE
  8
0
 10
-179.315
 20
15.688
 11
-179.562
 21
12.5562
  0
LINE
  8
0
 10
-179.562
 20
12.5562
 11
-179.72
 21
9.97238
  0
LINE
  8
0
 10
-179.72
 20
9.97238
 11
-180
 21
10
  0
LINE
  8
0
 10
-180
 20
10
 11
-181.951
 21
9.80785
  0
LINE
  8
0
 10
-181.951
 20
9.80785
 11
-183.827
 21
9.23878
  0
LINE
  8
0
 10
-183.827
 20
9.23878
 11
-185.556
 21
8.31468
  0
LINE
  8
0
 10
-185.556
 20
8.31468
 11
-187.071
 21
7.07106
  0
LINE
  8
0
 10
-187.071
 20
7.07106
 11
-188.315
 21
5.55569
  0
LINE
  8
0
 10
-188.315
 20
5.55569
 11
-189.239
 21
3.82683
  0
LINE
  8
0
 10
-189.239
 20
3.82683
 11
-189.808
 21
1.9509
  0
LINE
  8
0
 10
-189.808
 20
1.9509
 11
-190
 21
0
  0
LINE
  8
0
 10
-190
 20
0
 11
-189.808
 21
-1.9509
  0
LINE
  8
0
 10
-189.808
 20
-1.9509
 11
-189.239
 21
-3.82683
  0
LINE
  8
0
 10
-189.239
 20
-3.82683
 11
-188.315
 21
-5.55569
  0
LINE
  8
0
 10
-188.315
 20
-5.55569
 11
-187.071
 21
-7.07106
  0
LINE
  8
0
 10
-187.071
 20
-7.07106
 11
-185.556
 21
-8.31468
  0
LINE
  8
0
 10
-185.556
 20
-8.31468
 11
-183.827
 21
-9.23878
  0
LINE
  8
0
 10
-183.827
 20
-9.23878
 11
-181.951
 21
-9.80785
  0
LINE
  8
0
 10
-181.951
 20
-9.80785
 11
-180
 21
-10
  0
LINE
  8
0
 10
-180
 20
-10
 11
-179.72
 21
-9.97238
  0
LINE
  8
0
 10
-179.72
 20
-9.97238
 11
-179.562
 21
-12.5562
  0
LINE
  8
0
 10
-179.562
 20
-12.5562
 11
-179.315
 21
-15.688
  0
LINE
  8
0
 10
-179.315
 20
-15.688
 11
-179.014
 21
-18.8151
  0
LINE
  8
0
 10
-179.014
 20
-18.8151
 11
-178.658
 21
-21.9365
  0
LINE
  8
0
 10
-178.658
 20
-21.9365
 11
-178.248
 21
-25.0511
  0
LINE
  8
0
 10
-178.248
 20
-25.0511
 11
-177.784
 21
-28.1582
  0
LINE
  8
0
 10
-177.784
 20
-28.1582
 11
-177.265
 21
-31.2567
  0
LINE
  8
0
 10
-177.265
 20
-31.2567
 11
-176.693
 21
-34.3456
  0
LINE
  8
0
 10
-176.693
 20
-34.3456
 11
-176.067
 21
-37.4241
  0
LINE
  8
0
 10
-176.067
 20
-37.4241
 11
-175.387
 21
-40.4912
  0
LINE
  8
0
 10
-175.387
 20
-40.4912
 11
-174.653
 21
-43.5459
  0
LINE
  8
0
 10
-174.653
 20
-43.5459
 11
-173.867
 21
-46.5874
  0
LINE
  8
0
 10
-173.867
 20
-46.5874
 11
-173.027
 21
-49.6147
  0
LINE
  8
0
 10
-173.027
 20
-49.6147
 11
-172.135
 21
-52.6269
  0
LINE
  8
0
 10
-172.135
 20
-52.6269
 11
-171.19
 21
-55.623
  0
LINE
  8
0
 10
-171.19
 20
-55.623
 11
-170.193
 21
-58.6023
  0
LINE
  8
0
 10
-170.193
 20
-58.6023
 11
-169.145
 21
-61.5636
  0
LINE
  8
0
 10
-169.145
 20
-61.5636
 11
-168.044
 21
-64.5062
  0
LINE
  8
0
 10
-168.044
 20
-64.5062
 11
-166.893
 21
-67.4292
  0
LINE
  8
0
 10
-166.893
 20
-67.4292
 11
-165.691
 21
-70.3316
  0
LINE
  8
0
 10
-165.691
 20
-70.3316
 11
-164.438
 21
-73.2126
  0
LINE
  8
0
 10
-164.438
 20
-73.2126
 11
-163.135
 21
-76.0713
  0
LINE
  8
0
 10
-163.135
 20
-76.0713
 11
-161.783
 21
-78.9068
  0
LINE
  8
0
 10
-161.783
 20
-78.9068
 11
-160.381
 21
-81.7183
  0
LINE
  8
0
 10
-160.381
 20
-81.7183
 11
-158.931
 21
-84.5049
  0
LINE
  8
0
 10
-158.931
 20
-84.5049
 11
-157.432
 21
-87.2657
  0
LINE
  8
0
 10
-157.432
 20
-87.2657
 11
-155.885
 21
-90
  0
LINE
  8
0
 10
-155.885
 20
-90
 11
-154.29
 21
-92.7068
  0
LINE
  8
0
 10
-154.29
 20
-92.7068
 11
-152.649
 21
-95.3855
  0
LINE
  8
0
 10
-152.649
 20
-95.3855
 11
-150.961
 21
-98.035
  0
LINE
  8
0
 10
-150.961
 20
-98.035
 11
-149.227
 21
-100.655
  0
LINE
  8
0
 10
-149.227
 20
-100.655
 11
-147.447
 21
-103.244
  0
LINE
  8
0
 10
-147.447
 20
-103.244
 11
-145.623
 21
-105.801
  0
LINE
  8
0
 10
-145.623
 20
-105.801
 11
-143.754
 21
-108.327
  0
LINE
  8
0
 10
-143.754
 20
-108.327
 11
-141.842
 21
-110.819
  0
LINE
  8
0
 10
-141.842
 20
-110.819
 11
-139.886
 21
-113.278
  0
LINE
  8
0
 10
-139.886
 20
-113.278
 11
-137.888
 21
-115.702
  0
LINE
  8
0
 10
-137.888
 20
-115.702
 11
-135.848
 21
-118.091
  0
LINE
  8
0
 10
-135.848
 20
-118.091
 11
-133.766
 21
-120.443
  0
LINE
  8
0
 10
-133.766
 20
-120.443
 11
-131.644
 21
-122.76
  0
LINE
  8
0
 10
-131.644
 20
-122.76
 11
-129.481
 21
-125.038
  0
LINE
  8
0
 10
-129.481
 20
-125.038
 11
-127.279
 21
-127.279
  0
LINE
  8
0
 10
-127.279
 20
-127.279
 11
-125.038
 21
-129.481
  0
LINE
  8
0
 10
-125.038
 20
-129.481
 11
-122.76
 21
-131.644
  0
LINE
  8
0
 10
-122.76
 20
-131.644
 11
-120.443
 21
-133.766
  0
LINE
  8
0
 10
-120.443
 20
-133.766
 11
-118.091
 21
-135.848
  0
LINE
  8
0
 10
-118.091
 20
-135.848
 11
-115.702
 21
-137.888
  0
LINE
  8
0
 10
-115.702
 20
-137.888
 11
-113.278
 21
-139.886
  0
LINE
  8
0
 10
-113.278
 20
-139.886
 11
-110.819
 21
-141.842
  0
LINE
  8
0
 10
-110.819
 20
-141.842
 11
-108.327
 21
-143.754
  0
LINE
  8
0
 10
-108.327
 20
-143.754
 11
-105.801
 21
-145.623
  0
LINE
  8
0
 10
-105.801
 20
-145.623
 11
-103.244
 21
-147.447
  0
LINE
  8
0
 10
-103.244
 20
-147.447
 11
-100.655
 21
-149.227
  0
LINE
  8
0
 10
-100.655
 20
-149.227
 11
-98.035
 21
-150.961
  0
LINE
  8
0
 10
-98.035
 20
-150.961
 11
-95.3855
 21
-152.649
  0
LINE
  8
0
 10
-95.3855
 20
-152.649
 11
-92.7068
 21
-154.29
  0
LINE
  8
0
 10
-92.7068
 20
-154.29
 11
-90
 21
-155.885
  0
LINE
  8
0
 10
-90
 20
-155.885
 11
-87.2657
 21
-157.432
  0
LINE
  8
0
 10
-87.2657
 20
-157.432
 11
-84.5049
 21
-158.931
  0
LINE
  8
0
 10
-84.5049
 20
-158.931
 11
-81.7183
 21
-160.381
  0
LINE
  8
0
 10
-81.7183
 20
-160.381
 11
-78.9068
 21
-161.783
  0
LINE
  8
0
 10
-78.9068
 20
-161.783
 11
-76.0713
 21
-163.135
  0
LINE
  8
0
 10
-76.0713
 20
-163.135
 11
-73.2126
 21
-164.438
  0
LINE
  8
0
 10
-73.2126
 20
-164.438
 11
-70.3316
 21
-165.691
  0
LINE
  8
0
 10
-70.3316
 20
-165.691
 11
-67.4292
 21
-166.893
  0
LINE
  8
0
 10
-67.4292
 20
-166.893
 11
-64.5062
 21
-168.044
  0
LINE
  8
0
 10
-64.5062
 20
-168.044
 11
-61.5636
 21
-169.145
  0
LINE
  8
0
 10
-61.5636
 20
-169.145
 11
-58.6023
 21
-170.193
  0
LINE
  8
0
 10
-58.6023
 20
-170.193
 11
-55.623
 21
-171.19
  0
LINE
  8
0
 10
-55.623
 20
-171.19
 11
-52.6269
 21
-172.135
  0
LINE
  8
0
 10
-52.6269
 20
-172.135
 11
-49.6147
 21
-173.027
  0
LINE
  8
0
 10
-49.6147
 20
-173.027
 11
-46.5874
 21
-173.867
  0
LINE
  8
0
 10
-46.5874
 20
-173.867
 11
-43.5459
 21
-174.653
  0
LINE
  8
0
 10
-43.5459
 20
-174.653
 11
-40.4912
 21
-175.387
  0
LINE
  8
0
 10
-40.4912
 20
-175.387
 11
-37.4241
 21
-176.067
  0
LINE
  8
0
 10
-37.4241
 20
-176.067
 11
-34.3456
 21
-176.693
  0
LINE
  8
0
 10
-34.3456
 20
-176.693
 11
-31.2567
 21
-177.265
  0
LINE
  8
0
 10
-31.2567
 20
-177.265
 11
-28.1582
 21
-177.784
  0
LINE
  8
0
 10
-28.1582
 20
-177.784
 11
-25.0511
 21
-178.248
  0
LINE
  8
0
 10
-25.0511
 20
-178.248
 11
-21.9365
 21
-178.658
  0
LINE
  8
0
 10
-21.9365
 20
-178.658
 11
-18.8151
 21
-179.014
  0
LINE
  8
0
 10
-18.8151
 20
-179.014
 11
-15.688
 21
-179.315
  0
LINE
  8
0
 10
-15.688
 20
-179.315
 11
-12.5562
 21
-179.562
  0
LINE
  8
0
 10
-12.5562
 20
-179.562
 11
-9.97238
 21
-179.72
  0
LINE
  8
0
 10
-9.97238
 20
-179.72
 11
-10
 21
-180
  0
LINE
  8
0
 10
-10
 20
-180
 11
-9.80785
 21
-181.951
  0
LINE
  8
0
 10
-9.80785
 20
-181.951
 11
-9.23878
 21
-183.827
  0
LINE
  8
0
 10
-9.23878
 20
-183.827
 11
-8.31468
 21
-185.556
  0
LINE
  8
0
 10
-8.31468
 20
-185.556
 11
-7.07106
 21
-187.071
  0
LINE
  8
0
 10
-7.07106
 20
-187.071
 11
-5.55569
 21
-188.315
  0
LINE
  8
0
 10
-5.55569
 20
-188.315
 11
-3.82683
 21
-189.239
  0
LINE
  8
0
 10
-3.82683
 20
-189.239
 11
-1.9509
 21
-189.808
  0
LINE
  8
0
 10
-1.9509
 20
-189.808
 11
0
 21
-190
  0
LINE
  8
0
 10
0
 20
-190
 11
1.9509
 21
-189.808
  0
LINE
  8
0
 10
-0.78035
 20
176.077
 11
-1.53073
 21
176.304
  0
LINE
  8
0
 10
-1.53073
 20
176.304
 11
-2.22227
 21
176.674
  0
LINE
  8
0
 10
-2.22227
 20
176.674
 11
-2.82841
 21
177.172
  0
LINE
  8
0
 10
-2.82841
 20
177.172
 11
-3.32587
 21
177.778
  0
LINE
  8
0
 10
-3.32587
 20
177.778
 11
-3.69551
 21
178.469
  0
LINE
  8
0
 10
-3.69551
 20
178.469
 11
-3.92313
 21
179.22
  0
LINE
  8
0
 10
-3.92313
 20
179.22
 11
-4
 21
180
  0
LINE
  8
0
 10
-4
 20
180
 11
-3.92313
 21
180.78
  0
LINE
  8
0
 10
-3.92313
 20
180.78
 11
-3.69551
 21
181.531
  0
LINE
  8
0
 10
-3.69551
 20
181.531
 11
-3.32587
 21
182.222
  0
LINE
  8
0
 10
-3.32587
 20
182.222
 11
-2.82841
 21
182.828
  0
LINE
  8
0
 10
-2.82841
 20
182.828
 11
-2.22227
 21
183.326
  0
LINE
  8
0
 10
-2.22227
 20
183.326
 11
-1.53073
 21
183.696
  0
LINE
  8
0
 10
-1.53073
 20
183.696
 11
-0.78035
 21
183.923
  0
LINE
  8
0
 10
-0.78035
 20
183.923
 11
0
 21
184
  0
LINE
  8
0
 10
0
 20
184
 11
0.78035
 21
183.923
  0
LINE
  8
0
 10
0.78035
 20
183.923
 11
1.53073
 21
183.696
  0
LINE
  8
0
 10
1.53073
 20
183.696
 11
2.22227
 21
183.326
  0
LINE
  8
0
 10
2.22227
 20
183.326
 11
2.82841
 21
182.828
  0
LINE
  8
0
 10
2.82841
 20
182.828
 11
3.32587
 21
182.222
  0
LINE
  8
0
 10
3.32587
 20
182.222
 11
3.69551
 21
181.531
  0
LINE
  8
0
 10
3.69551
 20
181.531
 11
3.92313
 21
180.78
  0
LINE
  8
0
 10
3.92313
 20
180.78
 11
4
 21
180
  0
LINE
  8
0
 10
4
 20
180
 11
3.92313
 21
179.22
  0
LINE
  8
0
 10
3.92313
 20
179.22
 11
3.69551
 21
178.469
  0
LINE
  8
0
 10
3.69551
 20
178.469
 11
3.32587
 21
177.778
  0
LINE
  8
0
 10
3.32587
 20
177.778
 11
2.82841
 21
177.172
  0
LINE
  8
0
 10
2.82841
 20
177.172
 11
2.22227
 21
176.674
  0
LINE
  8
0
 10
2.22227
 20
176.674
 11
1.53073
 21
176.304
  0
LINE
  8
0
 10
1.53073
 20
176.304
 11
0.78035
 21
176.077
  0
LINE
  8
0
 10
0.78035
 20
176.077
 11
0
 21
176
  0
LINE
  8
0
 10
0
 20
176
 11
-0.78035
 21
176.077
  0
LINE
  8
0
 10
-12.7972
 20
169.591
 11
-8.81914
 21
170.009
  0
LINE
  8
0
 10
-8.81914
 20
170.009
 11
-7.77385
 21
160.064
  0
LINE
  8
0
 10
-7.77385
 20
160.064
 11
-11.7519
 21
159.646
  0
LINE
  8
0
 10
-11.7519
 20
159.646
 11
-12.7972
 21
169.591
  0
LINE
  8
0
 10
7.77385
 20
160.064
 11
8.81914
 21
170.009
  0
LINE
  8
0
 10
8.81914
 20
170.009
 11
12.7972
 21
169.591
  0
LINE
  8
0
 10
12.7972
 20
169.591
 11
11.7519
 21
159.646
  0
LINE
  8
0
 10
11.7519
 20
159.646
 11
7.77385
 21
160.064
  0
LINE
  8
0
 10
21.6972
 20
158.601
 11
22.7424
 21
168.546
  0
LINE
  8
0
 10
22.7424
 20
168.546
 11
26.7205
 21
168.128
  0
LINE
  8
0
 10
26.7205
 20
168.128
 11
25.6752
 21
158.183
  0
LINE
  8
0
 10
25.6752
 20
158.183
 11
21.6972
 21
158.601
  0
LINE
  8
0
 10
-26.7205
 20
168.128
 11
-22.7424
 21
168.546
  0
LINE
  8
0
 10
-22.7424
 20
168.546
 11
-21.6972
 21
158.601
  0
LINE
  8
0
 10
-21.6972
 20
158.601
 11
-25.6752
 21
158.183
  0
LINE
  8
0
 10
-25.6752
 20
158.183
 11
-26.7205
 21
168.128
  0
LINE
  8
0
 10
-47.7776
 20
163.225
 11
-43.9734
 21
164.461
  0
LINE
  8
0
 10
-43.9734
 20
164.461
 11
-40.8832
 21
154.95
  0
LINE
  8
0
 10
-40.8832
 20
154.95
 11
-44.6874
 21
153.714
  0
LINE
  8
0
 10
-44.6874
 20
153.714
 11
-47.7776
 21
163.225
  0
LINE
  8
0
 10
40.8832
 20
154.95
 11
43.9734
 21
164.461
  0
LINE
  8
0
 10
43.9734
 20
164.461
 11
47.7776
 21
163.225
  0
LINE
  8
0
 10
47.7776
 20
163.225
 11
44.6874
 21
153.714
  0
LINE
  8
0
 10
44.6874
 20
153.714
 11
40.8832
 21
154.95
  0
LINE
  8
0
 10
-61.0924
 20
158.898
 11
-57.2882
 21
160.135
  0
LINE
  8
0
 10
-57.2882
 20
160.135
 11
-54.198
 21
150.624
  0
LINE
  8
0
 10
-54.198
 20
150.624
 11
-58.0022
 21
149.388
  0
LINE
  8
0
 10
-58.0022
 20
149.388
 11
-61.0924
 21
158.898
  0
LINE
  8
0
 10
54.198
 20
150.624
 11
57.2882
 21
160.135
  0
LINE
  8
0
 10
57.2882
 20
160.135
 11
61.0924
 21
158.898
  0
LINE
  8
0
 10
61.0924
 20
158.898
 11
58.0022
 21
149.388
  0
LINE
  8
0
 10
58.0022
 20
149.388
 11
54.198
 21
150.624
  0
LINE
  8
0
 10
-80.6699
 20
149.724
 11
-77.2058
 21
151.724
  0
LINE
  8
0
 10
-77.2058
 20
151.724
 11
-72.2058
 21
143.064
  0
LINE
  8
0
 10
-72.2058
 20
143.064
 11
-75.6699
 21
141.064
  0
LINE
  8
0
 10
-75.6699
 20
141.064
 11
-80.6699
 21
149.724
  0
LINE
  8
0
 10
72.2058
 20
143.064
 11
77.2058
 21
151.724
  0
LINE
  8
0
 10
77.2058
 20
151.724
 11
80.6699
 21
149.724
  0
LINE
  8
0
 10
80.6699
 20
149.724
 11
75.6699
 21
141.064
  0
LINE
  8
0
 10
75.6699
 20
141.064
 11
72.2058
 21
143.064
  0
LINE
  8
0
 10
-2.61786
 20
-149.977
 11
-5.23492
 21
-149.909
  0
LINE
  8
0
 10
-5.23492
 20
-149.909
 11
-7.85039
 21
-149.794
  0
LINE
  8
0
 10
-7.85039
 20
-149.794
 11
-10.4635
 21
-149.635
  0
LINE
  8
0
 10
-10.4635
 20
-149.635
 11
-13.0733
 21
-149.429
  0
LINE
  8
0
 10
-13.0733
 20
-149.429
 11
-15.6793
 21
-149.178
  0
LINE
  8
0
 10
-15.6793
 20
-149.178
 11
-18.2804
 21
-148.882
  0
LINE
  8
0
 10
-18.2804
 20
-148.882
 11
-20.876
 21
-148.54
  0
LINE
  8
0
 10
-20.876
 20
-148.54
 11
-23.4652
 21
-148.153
  0
LINE
  8
0
 10
-23.4652
 20
-148.153
 11
-26.0472
 21
-147.721
  0
LINE
  8
0
 10
-26.0472
 20
-147.721
 11
-28.6213
 21
-147.244
  0
LINE
  8
0
 10
-28.6213
 20
-147.244
 11
-31.1868
 21
-146.722
  0
LINE
  8
0
 10
-31.1868
 20
-146.722
 11
-33.7426
 21
-146.156
  0
LINE
  8
0
 10
-33.7426
 20
-146.156
 11
-36.2883
 21
-145.544
  0
LINE
  8
0
 10
-36.2883
 20
-145.544
 11
-38.8228
 21
-144.889
  0
LINE
  8
0
 10
-38.8228
 20
-144.889
 11
-41.3456
 21
-144.189
  0
LINE
  8
0
 10
-41.3456
 20
-144.189
 11
-43.8557
 21
-143.446
  0
LINE
  8
0
 10
-43.8557
 20
-143.446
 11
-46.3525
 21
-142.658
  0
LINE
  8
0
 10
-46.3525
 20
-142.658
 11
-48.8352
 21
-141.828
  0
LINE
  8
0
 10
-48.8352
 20
-141.828
 11
-51.303
 21
-140.954
  0
LINE
  8
0
 10
-51.303
 20
-140.954
 11
-53.7552
 21
-140.037
  0
LINE
  8
0
 10
-53.7552
 20
-140.037
 11
-56.191
 21
-139.078
  0
LINE
  8
0
 10
-56.191
 20
-139.078
 11
-58.6097
 21
-138.076
  0
LINE
  8
0
 10
-58.6097
 20
-138.076
 11
-61.0105
 21
-137.032
  0
LINE
  8
0
 10
-61.0105
 20
-137.032
 11
-63.3927
 21
-135.946
  0
LINE
  8
0
 10
-63.3927
 20
-135.946
 11
-65.7557
 21
-134.819
  0
LINE
  8
0
 10
-65.7557
 20
-134.819
 11
-68.0986
 21
-133.651
  0
LINE
  8
0
 10
-68.0986
 20
-133.651
 11
-70.4207
 21
-132.442
  0
LINE
  8
0
 10
-70.4207
 20
-132.442
 11
-72.7214
 21
-131.193
  0
LINE
  8
0
 10
-72.7214
 20
-131.193
 11
-75
 21
-129.904
  0
LINE
  8
0
 10
-75
 20
-129.904
 11
-77.2557
 21
-128.575
  0
LINE
  8
0
 10
-77.2557
 20
-128.575
 11
-79.4879
 21
-127.207
  0
LINE
  8
0
 10
-79.4879
 20
-127.207
 11
-81.6958
 21
-125.801
  0
LINE
  8
0
 10
-81.6958
 20
-125.801
 11
-83.8789
 21
-124.356
  0
LINE
  8
0
 10
-83.8789
 20
-124.356
 11
-86.0365
 21
-122.873
  0
LINE
  8
0
 10
-86.0365
 20
-122.873
 11
-88.1678
 21
-121.353
  0
LINE
  8
0
 10
-88.1678
 20
-121.353
 11
-90.2722
 21
-119.795
  0
LINE
  8
0
 10
-90.2722
 20
-119.795
 11
-92.3492
 21
-118.202
  0
LINE
  8
0
 10
-92.3492
 20
-118.202
 11
-94.3981
 21
-116.572
  0
LINE
  8
0
 10
-94.3981
 20
-116.572
 11
-96.4181
 21
-114.907
  0
LINE
  8
0
 10
-96.4181
 20
-114.907
 11
-98.4088
 21
-113.206
  0
LINE
  8
0
 10
-98.4088
 20
-113.206
 11
-100.37
 21
-111.472
  0
LINE
  8
0
 10
-100.37
 20
-111.472
 11
-102.3
 21
-109.703
  0
LINE
  8
0
 10
-102.3
 20
-109.703
 11
-104.199
 21
-107.901
  0
LINE
  8
0
 10
-104.199
 20
-107.901
 11
-106.066
 21
-106.066
  0
LINE
  8
0
 10
-106.066
 20
-106.066
 11
-107.901
 21
-104.199
  0
LINE
  8
0
 10
-107.901
 20
-104.199
 11
-109.703
 21
-102.3
  0
LINE
  8
0
 10
-109.703
 20
-102.3
 11
-111.472
 21
-100.37
  0
LINE
  8
0
 10
-111.472
 20
-100.37
 11
-113.206
 21
-98.4088
  0
LINE
  8
0
 10
-113.206
 20
-98.4088
 11
-114.907
 21
-96.4181
  0
LINE
  8
0
 10
-114.907
 20
-96.4181
 11
-116.572
 21
-94.3981
  0
LINE
  8
0
 10
-116.572
 20
-94.3981
 11
-118.202
 21
-92.3492
  0
LINE
  8
0
 10
-118.202
 20
-92.3492
 11
-119.795
 21
-90.2722
  0
LINE
  8
0
 10
-119.795
 20
-90.2722
 11
-121.353
 21
-88.1678
  0
LINE
  8
0
 10
-121.353
 20
-88.1678
 11
-122.873
 21
-86.0365
  0
LINE
  8
0
 10
-122.873
 20
-86.0365
 11
-124.356
 21
-83.8789
  0
LINE
  8
0
 10
-124.356
 20
-83.8789
 11
-125.801
 21
-81.6958
  0
LINE
  8
0
 10
-125.801
 20
-81.6958
 11
-127.207
 21
-79.4879
  0
LINE
  8
0
 10
-127.207
 20
-79.4879
 11
-128.575
 21
-77.2557
  0
LINE
  8
0
 10
-128.575
 20
-77.2557
 11
-129.904
 21
-75
  0
LINE
  8
0
 10
-129.904
 20
-75
 11
-131.193
 21
-72.7214
  0
LINE
  8
0
 10
-131.193
 20
-72.7214
 11
-132.442
 21
-70.4207
  0
LINE
  8
0
 10
-132.442
 20
-70.4207
 11
-133.651
 21
-68.0986
  0
LINE
  8
0
 10
-133.651
 20
-68.0986
 11
-134.819
 21
-65.7557
  0
LINE
  8
0
 10
-134.819
 20
-65.7557
 11
-135.946
 21
-63.3927
  0
LINE
  8
0
 10
-135.946
 20
-63.3927
 11
-137.032
 21
-61.0105
  0
LINE
  8
0
 10
-137.032
 20
-61.0105
 11
-138.076
 21
-58.6097
  0
LINE
  8
0
 10
-138.076
 20
-58.6097
 11
-139.078
 21
-56.191
  0
LINE
  8
0
 10
-139.078
 20
-56.191
 11
-140.037
 21
-53.7552
  0
LINE
  8
0
 10
-140.037
 20
-53.7552
 11
-140.954
 21
-51.303
  0
LINE
  8
0
 10
-140.954
 20
-51.303
 11
-141.828
 21
-48.8352
  0
LINE
  8
0
 10
-141.828
 20
-48.8352
 11
-142.658
 21
-46.3525
  0
LINE
  8
0
 10
-142.658
 20
-46.3525
 11
-143.446
 21
-43.8557
  0
LINE
  8
0
 10
-143.446
 20
-43.8557
 11
-144.189
 21
-41.3456
  0
LINE
  8
0
 10
-144.189
 20
-41.3456
 11
-144.889
 21
-38.8228
  0
LINE
  8
0
 10
-144.889
 20
-38.8228
 11
-145.544
 21
-36.2883
  0
LINE
  8
0
 10
-145.544
 20
-36.2883
 11
-146.156
 21
-33.7426
  0
LINE
  8
0
 10
-146.156
 20
-33.7426
 11
-146.722
 21
-31.1868
  0
LINE
  8
0
 10
-146.722
 20
-31.1868
 11
-147.244
 21
-28.6213
  0
LINE
  8
0
 10
-147.244
 20
-28.6213
 11
-147.721
 21
-26.0472
  0
LINE
  8
0
 10
-147.721
 20
-26.0472
 11
-148.153
 21
-23.4652
  0
LINE
  8
0
 10
-148.153
 20
-23.4652
 11
-148.54
 21
-20.876
  0
LINE
  8
0
 10
-148.54
 20
-20.876
 11
-148.882
 21
-18.2804
  0
LINE
  8
0
 10
-148.882
 20
-18.2804
 11
-149.178
 21
-15.6793
  0
LINE
  8
0
 10
-149.178
 20
-15.6793
 11
-149.429
 21
-13.0733
  0
LINE
  8
0
 10
-149.429
 20
-13.0733
 11
-149.635
 21
-10.4635
  0
LINE
  8
0
 10
-149.635
 20
-10.4635
 11
-149.794
 21
-7.85039
  0
LINE
  8
0
 10
-149.794
 20
-7.85039
 11
-149.909
 21
-5.23492
  0
LINE
  8
0
 10
-149.909
 20
-5.23492
 11
-149.977
 21
-2.61786
  0
LINE
  8
0
 10
-149.977
 20
-2.61786
 11
-150
 21
0
  0
LINE
  8
0
 10
-150
 20
0
 11
-149.977
 21
2.61786
  0
LINE
  8
0
 10
-149.977
 20
2.61786
 11
-149.909
 21
5.23492
  0
LINE
  8
0
 10
-149.909
 20
5.23492
 11
-149.794
 21
7.85039
  0
LINE
  8
0
 10
-149.794
 20
7.85039
 11
-149.635
 21
10.4635
  0
LINE
  8
0
 10
-149.635
 20
10.4635
 11
-149.429
 21
13.0733
  0
LINE
  8
0
 10
-149.429
 20
13.0733
 11
-149.178
 21
15.6793
  0
LINE
  8
0
 10
-149.178
 20
15.6793
 11
-148.882
 21
18.2804
  0
LINE
  8
0
 10
-148.882
 20
18.2804
 11
-148.54
 21
20.876
  0
LINE
  8
0
 10
-148.54
 20
20.876
 11
-148.153
 21
23.4652
  0
LINE
  8
0
 10
-148.153
 20
23.4652
 11
-147.721
 21
26.0472
  0
LINE
  8
0
 10
-147.721
 20
26.0472
 11
-147.244
 21
28.6213
  0
LINE
  8
0
 10
-147.244
 20
28.6213
 11
-146.722
 21
31.1868
  0
LINE
  8
0
 10
-146.722
 20
31.1868
 11
-146.156
 21
33.7426
  0
LINE
  8
0
 10
-146.156
 20
33.7426
 11
-145.544
 21
36.2883
  0
LINE
  8
0
 10
-145.544
 20
36.2883
 11
-144.889
 21
38.8228
  0
LINE
  8
0
 10
-144.889
 20
38.8228
 11
-144.189
 21
41.3456
  0
LINE
  8
0
 10
-144.189
 20
41.3456
 11
-143.446
 21
43.8557
  0
LINE
  8
0
 10
-143.446
 20
43.8557
 11
-142.658
 21
46.3525
  0
LINE
  8
0
 10
-142.658
 20
46.3525
 11
-141.828
 21
48.8352
  0
LINE
  8
0
 10
-141.828
 20
48.8352
 11
-140.954
 21
51.303
  0
LINE
  8
0
 10
-140.954
 20
51.303
 11
-140.037
 21
53.7552
  0
LINE
  8
0
 10
-140.037
 20
53.7552
 11
-139.078
 21
56.191
  0
LINE
  8
0
 10
-139.078
 20
56.191
 11
-138.076
 21
58.6097
  0
LINE
  8
0
 10
-138.076
 20
58.6097
 11
-137.032
 21
61.0105
  0
LINE
  8
0
 10
-137.032
 20
61.0105
 11
-135.946
 21
63.3927
  0
LINE
  8
0
 10
-135.946
 20
63.3927
 11
-134.819
 21
65.7557
  0
LINE
  8
0
 10
-134.819
 20
65.7557
 11
-133.651
 21
68.0986
  0
LINE
  8
0
 10
-133.651
 20
68.0986
 11
-132.442
 21
70.4207
  0
LINE
  8
0
 10
-132.442
 20
70.4207
 11
-131.193
 21
72.7214
  0
LINE
  8
0
 10
-131.193
 20
72.7214
 11
-129.904
 21
75
  0
LINE
  8
0
 10
-129.904
 20
75
 11
-128.575
 21
77.2557
  0
LINE
  8
0
 10
-128.575
 20
77.2557
 11
-127.207
 21
79.4879
  0
LINE
  8
0
 10
-127.207
 20
79.4879
 11
-125.801
 21
81.6958
  0
LINE
  8
0
 10
-125.801
 20
81.6958
 11
-124.356
 21
83.8789
  0
LINE
  8
0
 10
-124.356
 20
83.8789
 11
-122.873
 21
86.0365
  0
LINE
  8
0
 10
-122.873
 20
86.0365
 11
-121.353
 21
88.1678
  0
LINE
  8
0
 10
-121.353
 20
88.1678
 11
-119.795
 21
90.2722
  0
LINE
  8
0
 10
-119.795
 20
90.2722
 11
-118.202
 21
92.3492
  0
LINE
  8
0
 10
-118.202
 20
92.3492
 11
-116.572
 21
94.3981
  0
LINE
  8
0
 10
-116.572
 20
94.3981
 11
-114.907
 21
96.4181
  0
LINE
  8
0
 10
-114.907
 20
96.4181
 11
-113.206
 21
98.4088
  0
LINE
  8
0
 10
-113.206
 20
98.4088
 11
-111.472
 21
100.37
  0
LINE
  8
0
 10
-111.472
 20
100.37
 11
-109.703
 21
102.3
  0
LINE
  8
0
 10
-109.703
 20
102.3
 11
-107.901
 21
104.199
  0
LINE
  8
0
 10
-107.901
 20
104.199
 11
-106.066
 21
106.066
  0
LINE
  8
0
 10
-106.066
 20
106.066
 11
-104.199
 21
107.901
  0
LINE
  8
0
 10
-104.199
 20
107.901
 11
-102.3
 21
109.703
  0
LINE
  8
0
 10
-102.3
 20
109.703
 11
-100.37
 21
111.472
  0
LINE
  8
0
 10
-100.37
 20
111.472
 11
-98.4088
 21
113.206
  0
LINE
  8
0
 10
-98.4088
 20
113.206
 11
-96.4181
 21
114.907
  0
LINE
  8
0
 10
-96.4181
 20
114.907
 11
-94.3981
 21
116.572
  0
LINE
  8
0
 10
-94.3981
 20
116.572
 11
-92.3492
 21
118.202
  0
LINE
  8
0
 10
-92.3492
 20
118.202
 11
-90.2722
 21
119.795
  0
LINE
  8
0
 10
-90.2722
 20
119.795
 11
-88.1678
 21
121.353
  0
LINE
  8
0
 10
-88.1678
 20
121.353
 11
-86.0365
 21
122.873
  0
LINE
  8
0
 10
-86.0365
 20
122.873
 11
-83.8789
 21
124.356
  0
LINE
  8
0
 10
-83.8789
 20
124.356
 11
-81.6958
 21
125.801
  0
LINE
  8
0
 10
-81.6958
 20
125.801
 11
-79.4879
 21
127.207
  0
LINE
  8
0
 10
-79.4879
 20
127.207
 11
-77.2557
 21
128.575
  0
LINE
  8
0
 10
-77.2557
 20
128.575
 11
-75
 21
129.904
  0
LINE
  8
0
 10
-75
 20
129.904
 11
-72.7214
 21
131.193
  0
LINE
  8
0
 10
-72.7214
 20
131.193
 11
-70.4207
 21
132.442
  0
LINE
  8
0
 10
-70.4207
 20
132.442
 11
-68.0986
 21
133.651
  0
LINE
  8
0
 10
-68.0986
 20
133.651
 11
-65.7557
 21
134.819
  0
LINE
  8
0
 10
-65.7557
 20
134.819
 11
-63.3927
 21
135.946
  0
LINE
  8
0
 10
-63.3927
 20
135.946
 11
-61.0105
 21
137.032
  0
LINE
  8
0
 10
-61.0105
 20
137.032
 11
-58.6097
 21
138.076
  0
LINE
  8
0
 10
-58.6097
 20
138.076
 11
-56.191
 21
139.078
  0
LINE
  8
0
 10
-56.191
 20
139.078
 11
-53.7552
 21
140.037
  0
LINE
  8
0
 10
-53.7552
 20
140.037
 11
-51.303
 21
140.954
  0
LINE
  8
0
 10
-51.303
 20
140.954
 11
-48.8352
 21
141.828
  0
LINE
  8
0
 10
-48.8352
 20
141.828
 11
-46.3525
 21
142.658
  0
LINE
  8
0
 10
-46.3525
 20
142.658
 11
-43.8557
 21
143.446
  0
LINE
  8
0
 10
-43.8557
 20
143.446
 11
-41.3456
 21
144.189
  0
LINE
  8
0
 10
-41.3456
 20
144.189
 11
-38.8228
 21
144.889
  0
LINE
  8
0
 10
-38.8228
 20
144.889
 11
-36.2883
 21
145.544
  0
LINE
  8
0
 10
-36.2883
 20
145.544
 11
-33.7426
 21
146.156
  0
LINE
  8
0
 10
-33.7426
 20
146.156
 11
-31.1868
 21
146.722
  0
LINE
  8
0
 10
-31.1868
 20
146.722
 11
-28.6213
 21
147.244
  0
LINE
  8
0
 10
-28.6213
 20
147.244
 11
-26.0472
 21
147.721
  0
LINE
  8
0
 10
-26.0472
 20
147.721
 11
-23.4652
 21
148.153
  0
LINE
  8
0
 10
-23.4652
 20
148.153
 11
-20.876
 21
148.54
  0
LINE
  8
0
 10
-20.876
 20
148.54
 11
-18.2804
 21
148.882
  0
LINE
  8
0
 10
-18.2804
 20
148.882
 11
-15.6793
 21
149.178
  0
LINE
  8
0
 10
-15.6793
 20
149.178
 11
-13.0733
 21
149.429
  0
LINE
  8
0
 10
-13.0733
 20
149.429
 11
-10.4635
 21
149.635
  0
LINE
  8
0
 10
-10.4635
 20
149.635
 11
-7.85039
 21
149.794
  0
LINE
  8
0
 10
-7.85039
 20
149.794
 11
-5.23492
 21
149.909
  0
LINE
  8
0
 10
-5.23492
 20
149.909
 11
-2.61786
 21
149.977
  0
LINE
  8
0
 10
-2.61786
 20
149.977
 11
0
 21
150
  0
LINE
  8
0
 10
0
 20
150
 11
2.61786
 21
149.977
  0
LINE
  8
0
 10
2.61786
 20
149.977
 11
5.23492
 21
149.909
  0
LINE
  8
0
 10
5.23492
 20
149.909
 11
7.85039
 21
149.794
  0
LINE
  8
0
 10
7.85039
 20
149.794
 11
10.4635
 21
149.635
  0
LINE
  8
0
 10
10.4635
 20
149.635
 11
13.0733
 21
149.429
  0
LINE
  8
0
 10
13.0733
 20
149.429
 11
15.6793
 21
149.178
  0
LINE
  8
0
 10
15.6793
 20
149.178
 11
18.2804
 21
148.882
  0
LINE
  8
0
 10
18.2804
 20
148.882
 11
20.876
 21
148.54
  0
LINE
  8
0
 10
20.876
 20
148.54
 11
23.4652
 21
148.153
  0
LINE
  8
0
 10
23.4652
 20
148.153
 11
26.0472
 21
147.721
  0
LINE
  8
0
 10
26.0472
 20
147.721
 11
28.6213
 21
147.244
  0
LINE
  8
0
 10
28.6213
 20
147.244
 11
31.1868
 21
146.722
  0
LINE
  8
0
 10
31.1868
 20
146.722
 11
33.7426
 21
146.156
  0
LINE
  8
0
 10
33.7426
 20
146.156
 11
36.2883
 21
145.544
  0
LINE
  8
0
 10
36.2883
 20
145.544
 11
38.8228
 21
144.889
  0
LINE
  8
0
 10
38.8228
 20
144.889
 11
41.3456
 21
144.189
  0
LINE
  8
0
 10
41.3456
 20
144.189
 11
43.8557
 21
143.446
  0
LINE
  8
0
 10
43.8557
 20
143.446
 11
46.3525
 21
142.658
  0
LINE
  8
0
 10
46.3525
 20
142.658
 11
48.8352
 21
141.828
  0
LINE
  8
0
 10
48.8352
 20
141.828
 11
51.303
 21
140.954
  0
LINE
  8
0
 10
51.303
 20
140.954
 11
53.7552
 21
140.037
  0
LINE
  8
0
 10
53.7552
 20
140.037
 11
56.191
 21
139.078
  0
LINE
  8
0
 10
56.191
 20
139.078
 11
58.6097
 21
138.076
  0
LINE
  8
0
 10
58.6097
 20
138.076
 11
61.0105
 21
137.032
  0
LINE
  8
0
 10
61.0105
 20
137.032
 11
63.3927
 21
135.946
  0
LINE
  8
0
 10
63.3927
 20
135.946
 11
65.7557
 21
134.819
  0
LINE
  8
0
 10
65.7557
 20
134.819
 11
68.0986
 21
133.651
  0
LINE
  8
0
 10
68.0986
 20
133.651
 11
70.4207
 21
132.442
  0
LINE
  8
0
 10
70.4207
 20
132.442
 11
72.7214
 21
131.193
  0
LINE
  8
0
 10
72.7214
 20
131.193
 11
75
 21
129.904
  0
LINE
  8
0
 10
75
 20
129.904
 11
77.2557
 21
128.575
  0
LINE
  8
0
 10
77.2557
 20
128.575
 11
79.4879
 21
127.207
  0
LINE
  8
0
 10
79.4879
 20
127.207
 11
81.6958
 21
125.801
  0
LINE
  8
0
 10
81.6958
 20
125.801
 11
83.8789
 21
124.356
  0
LINE
  8
0
 10
83.8789
 20
124.356
 11
86.0365
 21
122.873
  0
LINE
  8
0
 10
86.0365
 20
122.873
 11
88.1678
 21
121.353
  0
LINE
  8
0
 10
88.1678
 20
121.353
 11
90.2722
 21
119.795
  0
LINE
  8
0
 10
90.2722
 20
119.795
 11
92.3492
 21
118.202
  0
LINE
  8
0
 10
92.3492
 20
118.202
 11
94.3981
 21
116.572
  0
LINE
  8
0
 10
94.3981
 20
116.572
 11
96.4181
 21
114.907
  0
LINE
  8
0
 10
96.4181
 20
114.907
 11
98.4088
 21
113.206
  0
LINE
  8
0
 10
98.4088
 20
113.206
 11
100.37
 21
111.472
  0
LINE
  8
0
 10
100.37
 20
111.472
 11
102.3
 21
109.703
  0
LINE
  8
0
 10
102.3
 20
109.703
 11
104.199
 21
107.901
  0
LINE
  8
0
 10
104.199
 20
107.901
 11
106.066
 21
106.066
  0
LINE
  8
0
 10
106.066
 20
106.066
 11
107.901
 21
104.199
  0
LINE
  8
0
 10
107.901
 20
104.199
 11
109.703
 21
102.3
  0
LINE
  8
0
 10
109.703
 20
102.3
 11
111.472
 21
100.37
  0
LINE
  8
0
 10
111.472
 20
100.37
 11
113.206
 21
98.4088
  0
LINE
  8
0
 10
113.206
 20
98.4088
 11
114.907
 21
96.4181
  0
LINE
  8
0
 10
114.907
 20
96.4181
 11
116.572
 21
94.3981
  0
LINE
  8
0
 10
116.572
 20
94.3981
 11
118.202
 21
92.3492
  0
LINE
  8
0
 10
118.202
 20
92.3492
 11
119.795
 21
90.2722
  0
LINE
  8
0
 10
119.795
 20
90.2722
 11
121.353
 21
88.1678
  0
LINE
  8
0
 10
121.353
 20
88.1678
 11
122.873
 21
86.0365
  0
LINE
  8
0
 10
122.873
 20
86.0365
 11
124.356
 21
83.8789
  0
LINE
  8
0
 10
124.356
 20
83.8789
 11
125.801
 21
81.6958
  0
LINE
  8
0
 10
125.801
 20
81.6958
 11
127.207
 21
79.4879
  0
LINE
  8
0
 10
127.207
 20
79.4879
 11
128.575
 21
77.2557
  0
LINE
  8
0
 10
128.575
 20
77.2557
 11
129.904
 21
75
  0
LINE
  8
0
 10
129.904
 20
75
 11
131.193
 21
72.7214
  0
LINE
  8
0
 10
131.193
 20
72.7214
 11
132.442
 21
70.4207
  0
LINE
  8
0
 10
132.442
 20
70.4207
 11
133.651
 21
68.0986
  0
LINE
  8
0
 10
133.651
 20
68.0986
 11
134.819
 21
65.7557
  0
LINE
  8
0
 10
134.819
 20
65.7557
 11
135.946
 21
63.3927
  0
LINE
  8
0
 10
135.946
 20
63.3927
 11
137.032
 21
61.0105
  0
LINE
  8
0
 10
137.032
 20
61.0105
 11
138.076
 21
58.6097
  0
LINE
  8
0
 10
138.076
 20
58.6097
 11
139.078
 21
56.191
  0
LINE
  8
0
 10
139.078
 20
56.191
 11
140.037
 21
53.7552
  0
LINE
  8
0
 10
140.037
 20
53.7552
 11
140.954
 21
51.303
  0
LINE
  8
0
 10
140.954
 20
51.303
 11
141.828
 21
48.8352
  0
LINE
  8
0
 10
141.828
 20
48.8352
 11
142.658
 21
46.3525
  0
LINE
  8
0
 10
142.658
 20
46.3525
 11
143.446
 21
43.8557
  0
LINE
  8
0
 10
143.446
 20
43.8557
 11
144.189
 21
41.3456
  0
LINE
  8
0
 10
144.189
 20
41.3456
 11
144.889
 21
38.8228
  0
LINE
  8
0
 10
144.889
 20
38.8228
 11
145.544
 21
36.2883
  0
LINE
  8
0
 10
145.544
 20
36.2883
 11
146.156
 21
33.7426
  0
LINE
  8
0
 10
146.156
 20
33.7426
 11
146.722
 21
31.1868
  0
LINE
  8
0
 10
146.722
 20
31.1868
 11
147.244
 21
28.6213
  0
LINE
  8
0
 10
147.244
 20
28.6213
 11
147.721
 21
26.0472
  0
LINE
  8
0
 10
147.721
 20
26.0472
 11
148.153
 21
23.4652
  0
LINE
  8
0
 10
148.153
 20
23.4652
 11
148.54
 21
20.876
  0
LINE
  8
0
 10
148.54
 20
20.876
 11
148.882
 21
18.2804
  0
LINE
  8
0
 10
148.882
 20
18.2804
 11
149.178
 21
15.6793
  0
LINE
  8
0
 10
149.178
 20
15.6793
 11
149.429
 21
13.0733
  0
LINE
  8
0
 10
149.429
 20
13.0733
 11
149.635
 21
10.4635
  0
LINE
  8
0
 10
149.635
 20
10.4635
 11
149.794
 21
7.85039
  0
LINE
  8
0
 10
149.794
 20
7.85039
 11
149.909
 21
5.23492
  0
LINE
  8
0
 10
149.909
 20
5.23492
 11
149.977
 21
2.61786
  0
LINE
  8
0
 10
149.977
 20
2.61786
 11
150
 21
0
  0
LINE
  8
0
 10
150
 20
0
 11
149.977
 21
-2.61786
  0
LINE
  8
0
 10
149.977
 20
-2.61786
 11
149.909
 21
-5.23492
  0
LINE
  8
0
 10
149.909
 20
-5.23492
 11
149.794
 21
-7.85039
  0
LINE
  8
0
 10
149.794
 20
-7.85039
 11
149.635
 21
-10.4635
  0
LINE
  8
0
 10
149.635
 20
-10.4635
 11
149.429
 21
-13.0733
  0
LINE
  8
0
 10
149.429
 20
-13.0733
 11
149.178
 21
-15.6793
  0
LINE
  8
0
 10
149.178
 20
-15.6793
 11
148.882
 21
-18.2804
  0
LINE
  8
0
 10
148.882
 20
-18.2804
 11
148.54
 21
-20.876
  0
LINE
  8
0
 10
148.54
 20
-20.876
 11
148.153
 21
-23.4652
  0
LINE
  8
0
 10
148.153
 20
-23.4652
 11
147.721
 21
-26.0472
  0
LINE
  8
0
 10
147.721
 20
-26.0472
 11
147.244
 21
-28.6213
  0
LINE
  8
0
 10
147.244
 20
-28.6213
 11
146.722
 21
-31.1868
  0
LINE
  8
0
 10
146.722
 20
-31.1868
 11
146.156
 21
-33.7426
  0
LINE
  8
0
 10
146.156
 20
-33.7426
 11
145.544
 21
-36.2883
  0
LINE
  8
0
 10
145.544
 20
-36.2883
 11
144.889
 21
-38.8228
  0
LINE
  8
0
 10
144.889
 20
-38.8228
 11
144.189
 21
-41.3456
  0
LINE
  8
0
 10
144.189
 20
-41.3456
 11
143.446
 21
-43.8557
  0
LINE
  8
0
 10
143.446
 20
-43.8557
 11
142.658
 21
-46.3525
  0
LINE
  8
0
 10
142.658
 20
-46.3525
 11
141.828
 21
-48.8352
  0
LINE
  8
0
 10
141.828
 20
-48.8352
 11
140.954
 21
-51.303
  0
LINE
  8
0
 10
140.954
 20
-51.303
 11
140.037
 21
-53.7552
  0
LINE
  8
0
 10
140.037
 20
-53.7552
 11
139.078
 21
-56.191
  0
LINE
  8
0
 10
139.078
 20
-56.191
 11
138.076
 21
-58.6097
  0
LINE
  8
0
 10
138.076
 20
-58.6097
 11
137.032
 21
-61.0105
  0
LINE
  8
0
 10
137.032
 20
-61.0105
 11
135.946
 21
-63.3927
  0
LINE
  8
0
 10
135.946
 20
-63.3927
 11
134.819
 21
-65.7557
  0
LINE
  8
0
 10
134.819
 20
-65.7557
 11
133.651
 21
-68.0986
  0
LINE
  8
0
 10
133.651
 20
-68.0986
 11
132.442
 21
-70.4207
  0
LINE
  8
0
 10
132.442
 20
-70.4207
 11
131.193
 21
-72.7214
  0
LINE
  8
0
 10
131.193
 20
-72.7214
 11
129.904
 21
-75
  0
LINE
  8
0
 10
129.904
 20
-75
 11
128.575
 21
-77.2557
  0
LINE
  8
0
 10
128.575
 20
-77.2557
 11
127.207
 21
-79.4879
  0
LINE
  8
0
 10
127.207
 20
-79.4879
 11
125.801
 21
-81.6958
  0
LINE
  8
0
 10
125.801
 20
-81.6958
 11
124.356
 21
-83.8789
  0
LINE
  8
0
 10
124.356
 20
-83.8789
 11
122.873
 21
-86.0365
  0
LINE
  8
0
 10
122.873
 20
-86.0365
 11
121.353
 21
-88.1678
  0
LINE
  8
0
 10
121.353
 20
-88.1678
 11
119.795
 21
-90.2722
  0
LINE
  8
0
 10
119.795
 20
-90.2722
 11
118.202
 21
-92.3492
  0
LINE
  8
0
 10
118.202
 20
-92.3492
 11
116.572
 21
-94.3981
  0
LINE
  8
0
 10
116.572
 20
-94.3981
 11
114.907
 21
-96.4181
  0
LINE
  8
0
 10
114.907
 20
-96.4181
 11
113.206
 21
-98.4088
  0
LINE
  8
0
 10
113.206
 20
-98.4088
 11
111.472
 21
-100.37
  0
LINE
  8
0
 10
111.472
 20
-100.37
 11
109.703
 21
-102.3
  0
LINE
  8
0
 10
109.703
 20
-102.3
 11
107.901
 21
-104.199
  0
LINE
  8
0
 10
107.901
 20
-104.199
 11
106.066
 21
-106.066
  0
LINE
  8
0
 10
106.066
 20
-106.066
 11
104.199
 21
-107.901
  0
LINE
  8
0
 10
104.199
 20
-107.901
 11
102.3
 21
-109.703
  0
LINE
  8
0
 10
102.3
 20
-109.703
 11
100.37
 21
-111.472
  0
LINE
  8
0
 10
100.37
 20
-111.472
 11
98.4088
 21
-113.206
  0
LINE
  8
0
 10
98.4088
 20
-113.206
 11
96.4181
 21
-114.907
  0
LINE
  8
0
 10
96.4181
 20
-114.907
 11
94.3981
 21
-116.572
  0
LINE
  8
0
 10
94.3981
 20
-116.572
 11
92.3492
 21
-118.202
  0
LINE
  8
0
 10
92.3492
 20
-118.202
 11
90.2722
 21
-119.795
  0
LINE
  8
0
 10
90.2722
 20
-119.795
 11
88.1678
 21
-121.353
  0
LINE
  8
0
 10
88.1678
 20
-121.353
 11
86.0365
 21
-122.873
  0
LINE
  8
0
 10
86.0365
 20
-122.873
 11
83.8789
 21
-124.356
  0
LINE
  8
0
 10
83.8789
 20
-124.356
 11
81.6958
 21
-125.801
  0
LINE
  8
0
 10
81.6958
 20
-125.801
 11
79.4879
 21
-127.207
  0
LINE
  8
0
 10
79.4879
 20
-127.207
 11
77.2557
 21
-128.575
  0
LINE
  8
0
 10
77.2557
 20
-128.575
 11
75
 21
-129.904
  0
LINE
  8
0
 10
75
 20
-129.904
 11
72.7214
 21
-131.193
  0
LINE
  8
0
 10
72.7214
 20
-131.193
 11
70.4207
 21
-132.442
  0
LINE
  8
0
 10
70.4207
 20
-132.442
 11
68.0986
 21
-133.651
  0
LINE
  8
0
 10
68.0986
 20
-133.651
 11
65.7557
 21
-134.819
  0
LINE
  8
0
 10
65.7557
 20
-134.819
 11
63.3927
 21
-135.946
  0
LINE
  8
0
 10
63.3927
 20
-135.946
 11
61.0105
 21
-137.032
  0
LINE
  8
0
 10
61.0105
 20
-137.032
 11
58.6097
 21
-138.076
  0
LINE
  8
0
 10
58.6097
 20
-138.076
 11
56.191
 21
-139.078
  0
LINE
  8
0
 10
56.191
 20
-139.078
 11
53.7552
 21
-140.037
  0
LINE
  8
0
 10
53.7552
 20
-140.037
 11
51.303
 21
-140.954
  0
LINE
  8
0
 10
51.303
 20
-140.954
 11
48.8352
 21
-141.828
  0
LINE
  8
0
 10
48.8352
 20
-141.828
 11
46.3525
 21
-142.658
  0
LINE
  8
0
 10
46.3525
 20
-142.658
 11
43.8557
 21
-143.446
  0
LINE
  8
0
 10
43.8557
 20
-143.446
 11
41.3456
 21
-144.189
  0
LINE
  8
0
 10
41.3456
 20
-144.189
 11
38.8228
 21
-144.889
  0
LINE
  8
0
 10
38.8228
 20
-144.889
 11
36.2883
 21
-145.544
  0
LINE
  8
0
 10
36.2883
 20
-145.544
 11
33.7426
 21
-146.156
  0
LINE
  8
0
 10
33.7426
 20
-146.156
 11
31.1868
 21
-146.722
  0
LINE
  8
0
 10
31.1868
 20
-146.722
 11
28.6213
 21
-147.244
  0
LINE
  8
0
 10
28.6213
 20
-147.244
 11
26.0472
 21
-147.721
  0
LINE
  8
0
 10
26.0472
 20
-147.721
 11
23.4652
 21
-148.153
  0
LINE
  8
0
 10
23.4652
 20
-148.153
 11
20.876
 21
-148.54
  0
LINE
  8
0
 10
20.876
 20
-148.54
 11
18.2804
 21
-148.882
  0
LINE
  8
0
 10
18.2804
 20
-148.882
 11
15.6793
 21
-149.178
  0
LINE
  8
0
 10
15.6793
 20
-149.178
 11
13.0733
 21
-149.429
  0
LINE
  8
0
 10
13.0733
 20
-149.429
 11
10.4635
 21
-149.635
  0
LINE
  8
0
 10
10.4635
 20
-149.635
 11
7.85039
 21
-149.794
  0
LINE
  8
0
 10
7.85039
 20
-149.794
 11
5.23492
 21
-149.909
  0
LINE
  8
0
 10
5.23492
 20
-149.909
 11
2.61786
 21
-149.977
  0
LINE
  8
0
 10
2.61786
 20
-149.977
 11
0
 21
-150
  0
LINE
  8
0
 10
0
 20
-150
 11
-2.61786
 21
-149.977
  0
LINE
  8
0
 10
84.3301
 20
136.064
 11
89.3301
 21
144.724
  0
LINE
  8
0
 10
89.3301
 20
144.724
 11
92.7942
 21
142.724
  0
LINE
  8
0
 10
92.7942
 20
142.724
 11
87.7942
 21
134.064
  0
LINE
  8
0
 10
87.7942
 20
134.064
 11
84.3301
 21
136.064
  0
LINE
  8
0
 10
-92.7942
 20
142.724
 11
-89.3301
 21
144.724
  0
LINE
  8
0
 10
-89.3301
 20
144.724
 11
-84.3301
 21
136.064
  0
LINE
  8
0
 10
-84.3301
 20
136.064
 11
-87.7942
 21
134.064
  0
LINE
  8
0
 10
-87.7942
 20
134.064
 11
-92.7942
 21
142.724
  0
LINE
  8
0
 10
-110.036
 20
129.68
 11
-107.064
 21
132.357
  0
LINE
  8
0
 10
-107.064
 20
132.357
 11
-100.373
 21
124.925
  0
LINE
  8
0
 10
-100.373
 20
124.925
 11
-103.345
 21
122.249
  0
LINE
  8
0
 10
-103.345
 20
122.249
 11
-110.036
 21
129.68
  0
LINE
  8
0
 10
100.373
 20
124.925
 11
107.064
 21
132.357
  0
LINE
  8
0
 10
107.064
 20
132.357
 11
110.036
 21
129.68
  0
LINE
  8
0
 10
110.036
 20
129.68
 11
103.345
 21
122.249
  0
LINE
  8
0
 10
103.345
 20
122.249
 11
100.373
 21
124.925
  0
LINE
  8
0
 10
-120.441
 20
120.312
 11
-117.468
 21
122.989
  0
LINE
  8
0
 10
-117.468
 20
122.989
 11
-110.777
 21
115.558
  0
LINE
  8
0
 10
-110.777
 20
115.558
 11
-113.749
 21
112.881
  0
LINE
  8
0
 10
-113.749
 20
112.881
 11
-120.441
 21
120.312
  0
LINE
  8
0
 10
110.777
 20
115.558
 11
117.468
 21
122.989
  0
LINE
  8
0
 10
117.468
 20
122.989
 11
120.441
 21
120.312
  0
LINE
  8
0
 10
120.441
 20
120.312
 11
113.749
 21
112.881
  0
LINE
  8
0
 10
113.749
 20
112.881
 11
110.777
 21
115.558
  0
LINE
  8
0
 10
124.153
 20
101.327
 11
132.243
 21
107.205
  0
LINE
  8
0
 10
132.243
 20
107.205
 11
134.594
 21
103.969
  0
LINE
  8
0
 10
134.594
 20
103.969
 11
126.504
 21
98.0907
  0
LINE
  8
0
 10
126.504
 20
98.0907
 11
124.153
 21
101.327
  0
LINE
  8
0
 10
-134.594
 20
103.969
 11
-132.243
 21
107.205
  0
LINE
  8
0
 10
-132.243
 20
107.205
 11
-124.153
 21
101.327
  0
LINE
  8
0
 10
-124.153
 20
101.327
 11
-126.504
 21
98.0907
  0
LINE
  8
0
 10
-126.504
 20
98.0907
 11
-134.594
 21
103.969
  0
LINE
  8
0
 10
132.382
 20
90.0005
 11
140.472
 21
95.8784
  0
LINE
  8
0
 10
140.472
 20
95.8784
 11
142.823
 21
92.6423
  0
LINE
  8
0
 10
142.823
 20
92.6423
 11
134.733
 21
86.7645
  0
LINE
  8
0
 10
134.733
 20
86.7645
 11
132.382
 21
90.0005
  0
LINE
  8
0
 10
-142.823
 20
92.6423
 11
-140.472
 21
95.8784
  0
LINE
  8
0
 10
-140.472
 20
95.8784
 11
-132.382
 21
90.0005
  0
LINE
  8
0
 10
-132.382
 20
90.0005
 11
-134.733
 21
86.7645
  0
LINE
  8
0
 10
-134.733
 20
86.7645
 11
-142.823
 21
92.6423
  0
LINE
  8
0
 10
-153.269
 20
73.713
 11
-151.642
 21
77.3671
  0
LINE
  8
0
 10
-151.642
 20
77.3671
 11
-142.507
 21
73.2998
  0
LINE
  8
0
 10
-142.507
 20
73.2998
 11
-144.134
 21
69.6456
  0
LINE
  8
0
 10
-144.134
 20
69.6456
 11
-153.269
 21
73.713
  0
LINE
  8
0
 10
142.507
 20
73.2998
 11
151.642
 21
77.3671
  0
LINE
  8
0
 10
151.642
 20
77.3671
 11
153.269
 21
73.713
  0
LINE
  8
0
 10
153.269
 20
73.713
 11
144.134
 21
69.6456
  0
LINE
  8
0
 10
144.134
 20
69.6456
 11
142.507
 21
73.2998
  0
LINE
  8
0
 10
148.201
 20
60.5101
 11
157.336
 21
64.5775
  0
LINE
  8
0
 10
157.336
 20
64.5775
 11
158.963
 21
60.9233
  0
LINE
  8
0
 10
158.963
 20
60.9233
 11
149.828
 21
56.8559
  0
LINE
  8
0
 10
149.828
 20
56.8559
 11
148.201
 21
60.5101
  0
LINE
  8
0
 10
-158.963
 20
60.9233
 11
-157.336
 21
64.5775
  0
LINE
  8
0
 10
-157.336
 20
64.5775
 11
-148.201
 21
60.5101
  0
LINE
  8
0
 10
-148.201
 20
60.5101
 11
-149.828
 21
56.8559
  0
LINE
  8
0
 10
-149.828
 20
56.8559
 11
-158.963
 21
60.9233
  0
LINE
  8
0
 10
-165.246
 20
40.2357
 11
-164.414
 21
44.1483
  0
LINE
  8
0
 10
-164.414
 20
44.1483
 11
-154.632
 21
42.0692
  0
LINE
  8
0
 10
-154.632
 20
42.0692
 11
-155.464
 21
38.1566
  0
LINE
  8
0
 10
-155.464
 20
38.1566
 11
-165.246
 21
40.2357
  0
LINE
  8
0
 10
154.632
 20
42.0692
 11
164.414
 21
44.1483
  0
LINE
  8
0
 10
164.414
 20
44.1483
 11
165.246
 21
40.2357
  0
LINE
  8
0
 10
165.246
 20
40.2357
 11
155.464
 21
38.1566
  0
LINE
  8
0
 10
155.464
 20
38.1566
 11
154.632
 21
42.0692
  0
LINE
  8
0
 10
157.543
 20
28.3751
 11
167.325
 21
30.4542
  0
LINE
  8
0
 10
167.325
 20
30.4542
 11
168.156
 21
26.5417
  0
LINE
  8
0
 10
168.156
 20
26.5417
 11
158.375
 21
24.4625
  0
LINE
  8
0
 10
158.375
 20
24.4625
 11
157.543
 21
28.3751
  0
LINE
  8
0
 10
-168.156
 20
26.5417
 11
-167.325
 21
30.4542
  0
LINE
  8
0
 10
-167.325
 20
30.4542
 11
-157.543
 21
28.3751
  0
LINE
  8
0
 10
-157.543
 20
28.3751
 11
-158.375
 21
24.4625
  0
LINE
  8
0
 10
-158.375
 20
24.4625
 11
-168.156
 21
26.5417
  0
LINE
  8
0
 10
160
 20
5
 11
160
 21
9
  0
LINE
  8
0
 10
160
 20
9
 11
170
 21
9
  0
LINE
  8
0
 10
170
 20
9
 11
170
 21
5
  0
LINE
  8
0
 10
170
 20
5
 11
160
 21
5
  0
LINE
  8
0
 10
-170
 20
5
 11
-170
 21
9
  0
LINE
  8
0
 10
-170
 20
9
 11
-160
 21
9
  0
LINE
  8
0
 10
-160
 20
9
 11
-160
 21
5
  0
LINE
  8
0
 10
-160
 20
5
 11
-170
 21
5
  0
LINE
  8
0
 10
-180.78
 20
-3.92313
 11
-181.531
 21
-3.69551
  0
LINE
  8
0
 10
-181.531
 20
-3.69551
 11
-182.222
 21
-3.32587
  0
LINE
  8
0
 10
-182.222
 20
-3.32587
 11
-182.828
 21
-2.82841
  0
LINE
  8
0
 10
-182.828
 20
-2.82841
 11
-183.326
 21
-2.22227
  0
LINE
  8
0
 10
-183.326
 20
-2.22227
 11
-183.696
 21
-1.53073
  0
LINE
  8
0
 10
-183.696
 20
-1.53073
 11
-183.923
 21
-0.78035
  0
LINE
  8
0
 10
-183.923
 20
-0.78035
 11
-184
 21
0
  0
LINE
  8
0
 10
-184
 20
0
 11
-183.923
 21
0.78035
  0
LINE
  8
0
 10
-183.923
 20
0.78035
 11
-183.696
 21
1.53073
  0
LINE
  8
0
 10
-183.696
 20
1.53073
 11
-183.326
 21
2.22227
  0
LINE
  8
0
 10
-183.326
 20
2.22227
 11
-182.828
 21
2.82841
  0
LINE
  8
0
 10
-182.828
 20
2.82841
 11
-182.222
 21
3.32587
  0
LINE
  8
0
 10
-182.222
 20
3.32587
 11
-181.531
 21
3.69551
  0
LINE
  8
0
 10
-181.531
 20
3.69551
 11
-180.78
 21
3.92313
  0
LINE
  8
0
 10
-180.78
 20
3.92313
 11
-180
 21
4
  0
LINE
  8
0
 10
-180
 20
4
 11
-179.22
 21
3.92313
  0
LINE
  8
0
 10
-179.22
 20
3.92313
 11
-178.469
 21
3.69551
  0
LINE
  8
0
 10
-178.469
 20
3.69551
 11
-177.778
 21
3.32587
  0
LINE
  8
0
 10
-177.778
 20
3.32587
 11
-177.172
 21
2.82841
  0
LINE
  8
0
 10
-177.172
 20
2.82841
 11
-176.674
 21
2.22227
  0
LINE
  8
0
 10
-176.674
 20
2.22227
 11
-176.304
 21
1.53073
  0
LINE
  8
0
 10
-176.304
 20
1.53073
 11
-176.077
 21
0.78035
  0
LINE
  8
0
 10
-176.077
 20
0.78035
 11
-176
 21
0
  0
LINE
  8
0
 10
-176
 20
0
 11
-176.077
 21
-0.78035
  0
LINE
  8
0
 10
-176.077
 20
-0.78035
 11
-176.304
 21
-1.53073
  0
LINE
  8
0
 10
-176.304
 20
-1.53073
 11
-176.674
 21
-2.22227
  0
LINE
  8
0
 10
-176.674
 20
-2.22227
 11
-177.172
 21
-2.82841
  0
LINE
  8
0
 10
-177.172
 20
-2.82841
 11
-177.778
 21
-3.32587
  0
LINE
  8
0
 10
-177.778
 20
-3.32587
 11
-178.469
 21
-3.69551
  0
LINE
  8
0
 10
-178.469
 20
-3.69551
 11
-179.22
 21
-3.92313
  0
LINE
  8
0
 10
-179.22
 20
-3.92313
 11
-180
 21
-4
  0
LINE
  8
0
 10
-180
 20
-4
 11
-180.78
 21
-3.92313
  0
LINE
  8
0
 10
179.22
 20
-3.92313
 11
178.469
 21
-3.69551
  0
LINE
  8
0
 10
178.469
 20
-3.69551
 11
177.778
 21
-3.32587
  0
LINE
  8
0
 10
177.778
 20
-3.32587
 11
177.172
 21
-2.82841
  0
LINE
  8
0
 10
177.172
 20
-2.82841
 11
176.674
 21
-2.22227
  0
LINE
  8
0
 10
176.674
 20
-2.22227
 11
176.304
 21
-1.53073
  0
LINE
  8
0
 10
176.304
 20
-1.53073
 11
176.077
 21
-0.78035
  0
LINE
  8
0
 10
176.077
 20
-0.78035
 11
176
 21
0
  0
LINE
  8
0
 10
176
 20
0
 11
176.077
 21
0.78035
  0
LINE
  8
0
 10
176.077
 20
0.78035
 11
176.304
 21
1.53073
  0
LINE
  8
0
 10
176.304
 20
1.53073
 11
176.674
 21
2.22227
  0
LINE
  8
0
 10
176.674
 20
2.22227
 11
177.172
 21
2.82841
  0
LINE
  8
0
 10
177.172
 20
2.82841
 11
177.778
 21
3.32587
  0
LINE
  8
0
 10
177.778
 20
3.32587
 11
178.469
 21
3.69551
  0
LINE
  8
0
 10
178.469
 20
3.69551
 11
179.22
 21
3.92313
  0
LINE
  8
0
 10
179.22
 20
3.92313
 11
180
 21
4
  0
LINE
  8
0
 10
180
 20
4
 11
180.78
 21
3.92313
  0
LINE
  8
0
 10
180.78
 20
3.92313
 11
181.531
 21
3.69551
  0
LINE
  8
0
 10
181.531
 20
3.69551
 11
182.222
 21
3.32587
  0
LINE
  8
0
 10
182.222
 20
3.32587
 11
182.828
 21
2.82841
  0
LINE
  8
0
 10
182.828
 20
2.82841
 11
183.326
 21
2.22227
  0
LINE
  8
0
 10
183.326
 20
2.22227
 11
183.696
 21
1.53073
  0
LINE
  8
0
 10
183.696
 20
1.53073
 11
183.923
 21
0.78035
  0
LINE
  8
0
 10
183.923
 20
0.78035
 11
184
 21
0
  0
LINE
  8
0
 10
184
 20
0
 11
183.923
 21
-0.78035
  0
LINE
  8
0
 10
183.923
 20
-0.78035
 11
183.696
 21
-1.53073
  0
LINE
  8
0
 10
183.696
 20
-1.53073
 11
183.326
 21
-2.22227
  0
LINE
  8
0
 10
183.326
 20
-2.22227
 11
182.828
 21
-2.82841
  0
LINE
  8
0
 10
182.828
 20
-2.82841
 11
182.222
 21
-3.32587
  0
LINE
  8
0
 10
182.222
 20
-3.32587
 11
181.531
 21
-3.69551
  0
LINE
  8
0
 10
181.531
 20
-3.69551
 11
180.78
 21
-3.92313
  0
LINE
  8
0
 10
180.78
 20
-3.92313
 11
180
 21
-4
  0
LINE
  8
0
 10
180
 20
-4
 11
179.22
 21
-3.92313
  0
LINE
  8
0
 10
160
 20
-9
 11
160
 21
-5
  0
LINE
  8
0
 10
160
 20
-5
 11
170
 21
-5
  0
LINE
  8
0
 10
170
 20
-5
 11
170
 21
-9
  0
LINE
  8
0
 10
170
 20
-9
 11
160
 21
-9
  0
LINE
  8
0
 10
-170
 20
-9
 11
-170
 21
-5
  0
LINE
  8
0
 10
-170
 20
-5
 11
-160
 21
-5
  0
LINE
  8
0
 10
-160
 20
-5
 11
-160
 21
-9
  0
LINE
  8
0
 10
-160
 20
-9
 11
-170
 21
-9
  0
LINE
  8
0
 10
157.543
 20
-28.3751
 11
158.375
 21
-24.4625
  0
LINE
  8
0
 10
158.375
 20
-24.4625
 11
168.156
 21
-26.5417
  0
LINE
  8
0
 10
168.156
 20
-26.5417
 11
167.325
 21
-30.4542
  0
LINE
  8
0
 10
167.325
 20
-30.4542
 11
157.543
 21
-28.3751
  0
LINE
  8
0
 10
-168.156
 20
-26.5417
 11
-158.375
 21
-24.4625
  0
LINE
  8
0
 10
-158.375
 20
-24.4625
 11
-157.543
 21
-28.3751
  0
LINE
  8
0
 10
-157.543
 20
-28.3751
 11
-167.325
 21
-30.4542
  0
LINE
  8
0
 10
-167.325
 20
-30.4542
 11
-168.156
 21
-26.5417
  0
LINE
  8
0
 10
154.632
 20
-42.0692
 11
155.464
 21
-38.1566
  0
LINE
  8
0
 10
155.464
 20
-38.1566
 11
165.246
 21
-40.2357
  0
LINE
  8
0
 10
165.246
 20
-40.2357
 11
164.414
 21
-44.1483
  0
LINE
  8
0
 10
164.414
 20
-44.1483
 11
154.632
 21
-42.0692
  0
LINE
  8
0
 10
-165.246
 20
-40.2357
 11
-155.464
 21
-38.1566
  0
LINE
  8
0
 10
-155.464
 20
-38.1566
 11
-154.632
 21
-42.0692
  0
LINE
  8
0
 10
-154.632
 20
-42.0692
 11
-164.414
 21
-44.1483
  0
LINE
  8
0
 10
-164.414
 20
-44.1483
 11
-165.246
 21
-40.2357
  0
LINE
  8
0
 10
-158.963
 20
-60.9233
 11
-149.828
 21
-56.8559
  0
LINE
  8
0
 10
-149.828
 20
-56.8559
 11
-148.201
 21
-60.5101
  0
LINE
  8
0
 10
-148.201
 20
-60.5101
 11
-157.336
 21
-64.5775
  0
LINE
  8
0
 10
-157.336
 20
-64.5775
 11
-158.963
 21
-60.9233
  0
LINE
  8
0
 10
148.201
 20
-60.5101
 11
149.828
 21
-56.8559
  0
LINE
  8
0
 10
149.828
 20
-56.8559
 11
158.963
 21
-60.9233
  0
LINE
  8
0
 10
158.963
 20
-60.9233
 11
157.336
 21
-64.5775
  0
LINE
  8
0
 10
157.336
 20
-64.5775
 11
148.201
 21
-60.5101
  0
LINE
  8
0
 10
-153.269
 20
-73.713
 11
-144.134
 21
-69.6456
  0
LINE
  8
0
 10
-144.134
 20
-69.6456
 11
-142.507
 21
-73.2998
  0
LINE
  8
0
 10
-142.507
 20
-73.2998
 11
-151.642
 21
-77.3671
  0
LINE
  8
0
 10
-151.642
 20
-77.3671
 11
-153.269
 21
-73.713
  0
LINE
  8
0
 10
142.507
 20
-73.2998
 11
144.134
 21
-69.6456
  0
LINE
  8
0
 10
144.134
 20
-69.6456
 11
153.269
 21
-73.713
  0
LINE
  8
0
 10
153.269
 20
-73.713
 11
151.642
 21
-77.3671
  0
LINE
  8
0
 10
151.642
 20
-77.3671
 11
142.507
 21
-73.2998
  0
LINE
  8
0
 10
-142.823
 20
-92.6423
 11
-134.733
 21
-86.7645
  0
LINE
  8
0
 10
-134.733
 20
-86.7645
 11
-132.382
 21
-90.0005
  0
LINE
  8
0
 10
-132.382
 20
-90.0005
 11
-140.472
 21
-95.8784
  0
LINE
  8
0
 10
-140.472
 20
-95.8784
 11
-142.823
 21
-92.6423
  0
LINE
  8
0
 10
132.382
 20
-90.0005
 11
134.733
 21
-86.7645
  0
LINE
  8
0
 10
134.733
 20
-86.7645
 11
142.823
 21
-92.6423
  0
LINE
  8
0
 10
142.823
 20
-92.6423
 11
140.472
 21
-95.8784
  0
LINE
  8
0
 10
140.472
 20
-95.8784
 11
132.382
 21
-90.0005
  0
LINE
  8
0
 10
-134.594
 20
-103.969
 11
-126.504
 21
-98.0907
  0
LINE
  8
0
 10
-126.504
 20
-98.0907
 11
-124.153
 21
-101.327
  0
LINE
  8
0
 10
-124.153
 20
-101.327
 11
-132.243
 21
-107.205
  0
LINE
  8
0
 10
-132.243
 20
-107.205
 11
-134.594
 21
-103.969
  0
LINE
  8
0
 10
124.153
 20
-101.327
 11
126.504
 21
-98.0907
  0
LINE
  8
0
 10
126.504
 20
-98.0907
 11
134.594
 21
-103.969
  0
LINE
  8
0
 10
134.594
 20
-103.969
 11
132.243
 21
-107.205
  0
LINE
  8
0
 10
132.243
 20
-107.205
 11
124.153
 21
-101.327
  0
LINE
  8
0
 10
110.777
 20
-115.558
 11
113.749
 21
-112.881
  0
LINE
  8
0
 10
113.749
 20
-112.881
 11
120.441
 21
-120.312
  0
LINE
  8
0
 10
120.441
 20
-120.312
 11
117.468
 21
-122.989
  0
LINE
  8
0
 10
117.468
 20
-122.989
 11
110.777
 21
-115.558
  0
LINE
  8
0
 10
-120.441
 20
-120.312
 11
-113.749
 21
-112.881
  0
LINE
  8
0
 10
-113.749
 20
-112.881
 11
-110.777
 21
-115.558
  0
LINE
  8
0
 10
-110.777
 20
-115.558
 11
-117.468
 21
-122.989
  0
LINE
  8
0
 10
-117.468
 20
-122.989
 11
-120.441
 21
-120.312
  0
LINE
  8
0
 10
100.373
 20
-124.925
 11
103.345
 21
-122.249
  0
LINE
  8
0
 10
103.345
 20
-122.249
 11
110.036
 21
-129.68
  0
LINE
  8
0
 10
110.036
 20
-129.68
 11
107.064
 21
-132.357
  0
LINE
  8
0
 10
107.064
 20
-132.357
 11
100.373
 21
-124.925
  0
LINE
  8
0
 10
-110.036
 20
-129.68
 11
-103.345
 21
-122.249
  0
LINE
  8
0
 10
-103.345
 20
-122.249
 11
-100.373
 21
-124.925
  0
LINE
  8
0
 10
-100.373
 20
-124.925
 11
-107.064
 21
-132.357
  0
LINE
  8
0
 10
-107.064
 20
-132.357
 11
-110.036
 21
-129.68
  0
LINE
  8
0
 10
-92.7942
 20
-142.724
 11
-87.7942
 21
-134.064
  0
LINE
  8
0
 10
-87.7942
 20
-134.064
 11
-84.3301
 21
-136.064
  0
LINE
  8
0
 10
-84.3301
 20
-136.064
 11
-89.3301
 21
-144.724
  0
LINE
  8
0
 10
-89.3301
 20
-144.724
 11
-92.7942
 21
-142.724
  0
LINE
  8
0
 10
84.3301
 20
-136.064
 11
87.7942
 21
-134.064
  0
LINE
  8
0
 10
87.7942
 20
-134.064
 11
92.7942
 21
-142.724
  0
LINE
  8
0
 10
92.7942
 20
-142.724
 11
89.3301
 21
-144.724
  0
LINE
  8
0
 10
89.3301
 20
-144.724
 11
84.3301
 21
-136.064
  0
LINE
  8
0
 10
72.2058
 20
-143.064
 11
75.6699
 21
-141.064
  0
LINE
  8
0
 10
75.6699
 20
-141.064
 11
80.6699
 21
-149.724
  0
LINE
  8
0
 10
80.6699
 20
-149.724
 11
77.2058
 21
-151.724
  0
LINE
  8
0
 10
77.2058
 20
-151.724
 11
72.2058
 21
-143.064
  0
LINE
  8
0
 10
-80.6699
 20
-149.724
 11
-75.6699
 21
-141.064
  0
LINE
  8
0
 10
-75.6699
 20
-141.064
 11
-72.2058
 21
-143.064
  0
LINE
  8
0
 10
-72.2058
 20
-143.064
 11
-77.2058
 21
-151.724
  0
LINE
  8
0
 10
-77.2058
 20
-151.724
 11
-80.6699
 21
-149.724
  0
LINE
  8
0
 10
54.198
 20
-150.624
 11
58.0022
 21
-149.388
  0
LINE
  8
0
 10
58.0022
 20
-149.388
 11
61.0924
 21
-158.898
  0
LINE
  8
0
 10
61.0924
 20
-158.898
 11
57.2882
 21
-160.135
  0
LINE
  8
0
 10
57.2882
 20
-160.135
 11
54.198
 21
-150.624
  0
LINE
  8
0
 10
-61.0924
 20
-158.898
 11
-58.0022
 21
-149.388
  0
LINE
  8
0
 10
-58.0022
 20
-149.388
 11
-54.198
 21
-150.624
  0
LINE
  8
0
 10
-54.198
 20
-150.624
 11
-57.2882
 21
-160.135
  0
LINE
  8
0
 10
-57.2882
 20
-160.135
 11
-61.0924
 21
-158.898
  0
LINE
  8
0
 10
40.8832
 20
-154.95
 11
44.6874
 21
-153.714
  0
LINE
  8
0
 10
44.6874
 20
-153.714
 11
47.7776
 21
-163.225
  0
LINE
  8
0
 10
47.7776
 20
-163.225
 11
43.9734
 21
-164.461
  0
LINE
  8
0
 10
43.9734
 20
-164.461
 11
40.8832
 21
-154.95
  0
LINE
  8
0
 10
-47.7776
 20
-163.225
 11
-44.6874
 21
-153.714
  0
LINE
  8
0
 10
-44.6874
 20
-153.714
 11
-40.8832
 21
-154.95
  0
LINE
  8
0
 10
-40.8832
 20
-154.95
 11
-43.9734
 21
-164.461
  0
LINE
  8
0
 10
-43.9734
 20
-164.461
 11
-47.7776
 21
-163.225
  0
LINE
  8
0
 10
21.6972
 20
-158.601
 11
25.6752
 21
-158.183
  0
LINE
  8
0
 10
25.6752
 20
-158.183
 11
26.7205
 21
-168.128
  0
LINE
  8
0
 10
26.7205
 20
-168.128
 11
22.7424
 21
-168.546
  0
LINE
  8
0
 10
22.7424
 20
-168.546
 11
21.6972
 21
-158.601
  0
LINE
  8
0
 10
-26.7205
 20
-168.128
 11
-25.6752
 21
-158.183
  0
LINE
  8
0
 10
-25.6752
 20
-158.183
 11
-21.6972
 21
-158.601
  0
LINE
  8
0
 10
-21.6972
 20
-158.601
 11
-22.7424
 21
-168.546
  0
LINE
  8
0
 10
-22.7424
 20
-168.546
 11
-26.7205
 21
-168.128
  0
LINE
  8
0
 10
7.77385
 20
-160.064
 11
11.7519
 21
-159.646
  0
LINE
  8
0
 10
11.7519
 20
-159.646
 11
12.7972
 21
-169.591
  0
LINE
  8
0
 10
12.7972
 20
-169.591
 11
8.81914
 21
-170.009
  0
LINE
  8
0
 10
8.81914
 20
-170.009
 11
7.77385
 21
-160.064
  0
LINE
  8
0
 10
-12.7972
 20
-169.591
 11
-11.7519
 21
-159.646
  0
LINE
  8
0
 10
-11.7519
 20
-159.646
 11
-7.77385
 21
-160.064
  0
LINE
  8
0
 10
-7.77385
 20
-160.064
 11
-8.81914
 21
-170.009
  0
LINE
  8
0
 10
-8.81914
 20
-170.009
 11
-12.7972
 21
-169.591
  0
LINE
  8
0
 10
-0.78035
 20
-183.923
 11
-1.53073
 21
-183.696
  0
LINE
  8
0
 10
-1.53073
 20
-183.696
 11
-2.22227
 21
-183.326
  0
LINE
  8
0
 10
-2.22227
 20
-183.326
 11
-2.82841
 21
-182.828
  0
LINE
  8
0
 10
-2.82841
 20
-182.828
 11
-3.32587
 21
-182.222
  0
LINE
  8
0
 10
-3.32587
 20
-182.222
 11
-3.69551
 21
-181.531
  0
LINE
  8
0
 10
-3.69551
 20
-181.531
 11
-3.92313
 21
-180.78
  0
LINE
  8
0
 10
-3.92313
 20
-180.78
 11
-4
 21
-180
  0
LINE
  8
0
 10
-4
 20
-180
 11
-3.92313
 21
-179.22
  0
LINE
  8
0
 10
-3.92313
 20
-179.22
 11
-3.69551
 21
-178.469
  0
LINE
  8
0
 10
-3.69551
 20
-178.469
 11
-3.32587
 21
-177.778
  0
LINE
  8
0
 10
-3.32587
 20
-177.778
 11
-2.82841
 21
-177.172
  0
LINE
  8
0
 10
-2.82841
 20
-177.172
 11
-2.22227
 21
-176.674
  0
LINE
  8
0
 10
-2.22227
 20
-176.674
 11
-1.53073
 21
-176.304
  0
LINE
  8
0
 10
-1.53073
 20
-176.304
 11
-0.78035
 21
-176.077
  0
LINE
  8
0
 10
-0.78035
 20
-176.077
 11
0
 21
-176
  0
LINE
  8
0
 10
0
 20
-176
 11
0.78035
 21
-176.077
  0
LINE
  8
0
 10
0.78035
 20
-176.077
 11
1.53073
 21
-176.304
  0
LINE
  8
0
 10
1.53073
 20
-176.304
 11
2.22227
 21
-176.674
  0
LINE
  8
0
 10
2.22227
 20
-176.674
 11
2.82841
 21
-177.172
  0
LINE
  8
0
 10
2.82841
 20
-177.172
 11
3.32587
 21
-177.778
  0
LINE
  8
0
 10
3.32587
 20
-177.778
 11
3.69551
 21
-178.469
  0
LINE
  8
0
 10
3.69551
 20
-178.469
 11
3.92313
 21
-179.22
  0
LINE
  8
0
 10
3.92313
 20
-179.22
 11
4
 21
-180
  0
LINE
  8
0
 10
4
 20
-180
 11
3.92313
 21
-180.78
  0
LINE
  8
0
 10
3.92313
 20
-180.78
 11
3.69551
 21
-181.531
  0
LINE
  8
0
 10
3.69551
 20
-181.531
 11
3.32587
 21
-182.222
  0
LINE
  8
0
 10
3.32587
 20
-182.222
 11
2.82841
 21
-182.828
  0
LINE
  8
0
 10
2.82841
 20
-182.828
 11
2.22227
 21
-183.326
  0
LINE
  8
0
 10
2.22227
 20
-183.326
 11
1.53073
 21
-183.696
  0
LINE
  8
0
 10
1.53073
 20
-183.696
 11
0.78035
 21
-183.923
  0
LINE
  8
0
 10
0.78035
 20
-183.923
 11
0
 21
-184
  0
LINE
  8
0
 10
0
 20
-184
 11
-0.78035
 21
-183.923
  0
ENDSEC
  0
SECTION
  2
OBJECTS
  0
DICTIONARY
  0
ENDSEC
  0
EOF
