  0
SECTION
  2
BLOCKS
  0
ENDSEC
  0
SECTION
  2
ENTITIES
  0
LINE
  8
0
 10
2.09428
 20
-119.982
 11
4.18793
 21
-119.927
  0
LINE
  8
0
 10
4.18793
 20
-119.927
 11
5.5
 21
-119.87
  0
LINE
  8
0
 10
5.5
 20
-119.87
 11
5.5
 21
-105
  0
LINE
  8
0
 10
5.5
 20
-105
 11
8.5
 21
-105
  0
LINE
  8
0
 10
8.5
 20
-105
 11
8.5
 21
-119.697
  0
LINE
  8
0
 10
8.5
 20
-119.697
 11
10.4587
 21
-119.543
  0
LINE
  8
0
 10
10.4587
 20
-119.543
 11
12.5434
 21
-119.343
  0
LINE
  8
0
 10
12.5434
 20
-119.343
 11
14.6243
 21
-119.106
  0
LINE
  8
0
 10
14.6243
 20
-119.106
 11
16.7008
 21
-118.832
  0
LINE
  8
0
 10
16.7008
 20
-118.832
 11
18.7721
 21
-118.523
  0
LINE
  8
0
 10
18.7721
 20
-118.523
 11
20.8378
 21
-118.177
  0
LINE
  8
0
 10
20.8378
 20
-118.177
 11
22.7696
 21
-117.819
  0
LINE
  8
0
 10
22.7696
 20
-117.819
 11
18.9656
 21
-103.622
  0
LINE
  8
0
 10
18.9656
 20
-103.622
 11
21.8634
 21
-102.846
  0
LINE
  8
0
 10
21.8634
 20
-102.846
 11
25.7119
 21
-117.209
  0
LINE
  8
0
 10
25.7119
 20
-117.209
 11
26.9941
 21
-116.924
  0
LINE
  8
0
 10
26.9941
 20
-116.924
 11
29.0306
 21
-116.435
  0
LINE
  8
0
 10
29.0306
 20
-116.435
 11
31.0583
 21
-115.911
  0
LINE
  8
0
 10
31.0583
 20
-115.911
 11
33.0765
 21
-115.351
  0
LINE
  8
0
 10
33.0765
 20
-115.351
 11
35.0846
 21
-114.757
  0
LINE
  8
0
 10
35.0846
 20
-114.757
 11
36.3371
 21
-114.362
  0
LINE
  8
0
 10
36.3371
 20
-114.362
 11
32.4886
 21
-99.9987
  0
LINE
  8
0
 10
32.4886
 20
-99.9987
 11
35.3864
 21
-99.2222
  0
LINE
  8
0
 10
35.3864
 20
-99.2222
 11
39.1904
 21
-113.419
  0
LINE
  8
0
 10
39.1904
 20
-113.419
 11
41.0424
 21
-112.763
  0
LINE
  8
0
 10
41.0424
 20
-112.763
 11
43.0042
 21
-112.03
  0
LINE
  8
0
 10
43.0042
 20
-112.03
 11
44.9528
 21
-111.262
  0
LINE
  8
0
 10
44.9528
 20
-111.262
 11
46.8877
 21
-110.461
  0
LINE
  8
0
 10
46.8877
 20
-110.461
 11
48.8084
 21
-109.625
  0
LINE
  8
0
 10
48.8084
 20
-109.625
 11
50.7142
 21
-108.757
  0
LINE
  8
0
 10
50.7142
 20
-108.757
 11
52.4875
 21
-107.911
  0
LINE
  8
0
 10
52.4875
 20
-107.911
 11
45.1388
 21
-95.1827
  0
LINE
  8
0
 10
45.1388
 20
-95.1827
 11
47.7368
 21
-93.6827
  0
LINE
  8
0
 10
47.7368
 20
-93.6827
 11
55.1716
 21
-106.56
  0
LINE
  8
0
 10
55.1716
 20
-106.56
 11
56.3366
 21
-105.954
  0
LINE
  8
0
 10
56.3366
 20
-105.954
 11
58.1771
 21
-104.954
  0
LINE
  8
0
 10
58.1771
 20
-104.954
 11
60
 21
-103.923
  0
LINE
  8
0
 10
60
 20
-103.923
 11
61.8046
 21
-102.86
  0
LINE
  8
0
 10
61.8046
 20
-102.86
 11
63.5903
 21
-101.766
  0
LINE
  8
0
 10
63.5903
 20
-101.766
 11
64.6979
 21
-101.06
  0
LINE
  8
0
 10
64.6979
 20
-101.06
 11
57.2631
 21
-88.1827
  0
LINE
  8
0
 10
57.2631
 20
-88.1827
 11
59.8612
 21
-86.6827
  0
LINE
  8
0
 10
59.8612
 20
-86.6827
 11
67.21
 21
-99.4111
  0
LINE
  8
0
 10
67.21
 20
-99.4111
 11
68.8292
 21
-98.2982
  0
LINE
  8
0
 10
68.8292
 20
-98.2982
 11
70.5342
 21
-97.082
  0
LINE
  8
0
 10
70.5342
 20
-97.082
 11
72.2178
 21
-95.8363
  0
LINE
  8
0
 10
72.2178
 20
-95.8363
 11
73.8794
 21
-94.5613
  0
LINE
  8
0
 10
73.8794
 20
-94.5613
 11
75.5184
 21
-93.2575
  0
LINE
  8
0
 10
75.5184
 20
-93.2575
 11
77.1345
 21
-91.9253
  0
LINE
  8
0
 10
77.1345
 20
-91.9253
 11
78.6285
 21
-90.6493
  0
LINE
  8
0
 10
78.6285
 20
-90.6493
 11
68.2358
 21
-80.2566
  0
LINE
  8
0
 10
68.2358
 20
-80.2566
 11
70.3571
 21
-78.1353
  0
LINE
  8
0
 10
70.3571
 20
-78.1353
 11
80.8715
 21
-88.6497
  0
LINE
  8
0
 10
80.8715
 20
-88.6497
 11
81.8398
 21
-87.7624
  0
LINE
  8
0
 10
81.8398
 20
-87.7624
 11
83.359
 21
-86.3208
  0
LINE
  8
0
 10
83.359
 20
-86.3208
 11
84.8528
 21
-84.8528
  0
LINE
  8
0
 10
84.8528
 20
-84.8528
 11
86.3208
 21
-83.359
  0
LINE
  8
0
 10
86.3208
 20
-83.359
 11
87.7624
 21
-81.8398
  0
LINE
  8
0
 10
87.7624
 20
-81.8398
 11
88.6497
 21
-80.8715
  0
LINE
  8
0
 10
88.6497
 20
-80.8715
 11
78.1353
 21
-70.3571
  0
LINE
  8
0
 10
78.1353
 20
-70.3571
 11
80.2566
 21
-68.2358
  0
LINE
  8
0
 10
80.2566
 20
-68.2358
 11
90.6493
 21
-78.6285
  0
LINE
  8
0
 10
90.6493
 20
-78.6285
 11
91.9253
 21
-77.1345
  0
LINE
  8
0
 10
91.9253
 20
-77.1345
 11
93.2575
 21
-75.5184
  0
LINE
  8
0
 10
93.2575
 20
-75.5184
 11
94.5613
 21
-73.8794
  0
LINE
  8
0
 10
94.5613
 20
-73.8794
 11
95.8363
 21
-72.2178
  0
LINE
  8
0
 10
95.8363
 20
-72.2178
 11
97.082
 21
-70.5342
  0
LINE
  8
0
 10
97.082
 20
-70.5342
 11
98.2982
 21
-68.8292
  0
LINE
  8
0
 10
98.2982
 20
-68.8292
 11
99.4111
 21
-67.21
  0
LINE
  8
0
 10
99.4111
 20
-67.21
 11
86.6827
 21
-59.8612
  0
LINE
  8
0
 10
86.6827
 20
-59.8612
 11
88.1827
 21
-57.2631
  0
LINE
  8
0
 10
88.1827
 20
-57.2631
 11
101.06
 21
-64.6979
  0
LINE
  8
0
 10
101.06
 20
-64.6979
 11
101.766
 21
-63.5903
  0
LINE
  8
0
 10
101.766
 20
-63.5903
 11
102.86
 21
-61.8046
  0
LINE
  8
0
 10
102.86
 20
-61.8046
 11
103.923
 21
-60
  0
LINE
  8
0
 10
103.923
 20
-60
 11
104.954
 21
-58.1771
  0
LINE
  8
0
 10
104.954
 20
-58.1771
 11
105.954
 21
-56.3366
  0
LINE
  8
0
 10
105.954
 20
-56.3366
 11
106.56
 21
-55.1716
  0
LINE
  8
0
 10
106.56
 20
-55.1716
 11
93.6827
 21
-47.7368
  0
LINE
  8
0
 10
93.6827
 20
-47.7368
 11
95.1827
 21
-45.1388
  0
LINE
  8
0
 10
95.1827
 20
-45.1388
 11
107.911
 21
-52.4875
  0
LINE
  8
0
 10
107.911
 20
-52.4875
 11
108.757
 21
-50.7142
  0
LINE
  8
0
 10
108.757
 20
-50.7142
 11
109.625
 21
-48.8084
  0
LINE
  8
0
 10
109.625
 20
-48.8084
 11
110.461
 21
-46.8877
  0
LINE
  8
0
 10
110.461
 20
-46.8877
 11
111.262
 21
-44.9528
  0
LINE
  8
0
 10
111.262
 20
-44.9528
 11
112.03
 21
-43.0042
  0
LINE
  8
0
 10
112.03
 20
-43.0042
 11
112.763
 21
-41.0424
  0
LINE
  8
0
 10
112.763
 20
-41.0424
 11
113.419
 21
-39.1904
  0
LINE
  8
0
 10
113.419
 20
-39.1904
 11
99.2222
 21
-35.3864
  0
LINE
  8
0
 10
99.2222
 20
-35.3864
 11
99.9987
 21
-32.4886
  0
LINE
  8
0
 10
99.9987
 20
-32.4886
 11
114.362
 21
-36.3371
  0
LINE
  8
0
 10
114.362
 20
-36.3371
 11
114.757
 21
-35.0846
  0
LINE
  8
0
 10
114.757
 20
-35.0846
 11
115.351
 21
-33.0765
  0
LINE
  8
0
 10
115.351
 20
-33.0765
 11
115.911
 21
-31.0583
  0
LINE
  8
0
 10
115.911
 20
-31.0583
 11
116.435
 21
-29.0306
  0
LINE
  8
0
 10
116.435
 20
-29.0306
 11
116.924
 21
-26.9941
  0
LINE
  8
0
 10
116.924
 20
-26.9941
 11
117.209
 21
-25.7119
  0
LINE
  8
0
 10
117.209
 20
-25.7119
 11
102.846
 21
-21.8634
  0
LINE
  8
0
 10
102.846
 20
-21.8634
 11
103.622
 21
-18.9656
  0
LINE
  8
0
 10
103.622
 20
-18.9656
 11
117.819
 21
-22.7696
  0
LINE
  8
0
 10
117.819
 20
-22.7696
 11
118.177
 21
-20.8378
  0
LINE
  8
0
 10
118.177
 20
-20.8378
 11
118.523
 21
-18.7721
  0
LINE
  8
0
 10
118.523
 20
-18.7721
 11
118.832
 21
-16.7008
  0
LINE
  8
0
 10
118.832
 20
-16.7008
 11
119.106
 21
-14.6243
  0
LINE
  8
0
 10
119.106
 20
-14.6243
 11
119.343
 21
-12.5434
  0
LINE
  8
0
 10
119.343
 20
-12.5434
 11
119.543
 21
-10.4587
  0
LINE
  8
0
 10
119.543
 20
-10.4587
 11
119.697
 21
-8.5
  0
LINE
  8
0
 10
119.697
 20
-8.5
 11
105
 21
-8.5
  0
LINE
  8
0
 10
105
 20
-8.5
 11
105
 21
-5.5
  0
LINE
  8
0
 10
105
 20
-5.5
 11
119.87
 21
-5.5
  0
LINE
  8
0
 10
119.87
 20
-5.5
 11
119.927
 21
-4.18793
  0
LINE
  8
0
 10
119.927
 20
-4.18793
 11
119.982
 21
-2.09428
  0
LINE
  8
0
 10
119.982
 20
-2.09428
 11
120
 21
0
  0
LINE
  8
0
 10
120
 20
0
 11
119.982
 21
2.09428
  0
LINE
  8
0
 10
119.982
 20
2.09428
 11
119.927
 21
4.18793
  0
LINE
  8
0
 10
119.927
 20
4.18793
 11
119.87
 21
5.5
  0
LINE
  8
0
 10
119.87
 20
5.5
 11
105
 21
5.5
  0
LINE
  8
0
 10
105
 20
5.5
 11
105
 21
8.5
  0
LINE
  8
0
 10
105
 20
8.5
 11
119.697
 21
8.5
  0
LINE
  8
0
 10
119.697
 20
8.5
 11
119.543
 21
10.4587
  0
LINE
  8
0
 10
119.543
 20
10.4587
 11
119.343
 21
12.5434
  0
LINE
  8
0
 10
119.343
 20
12.5434
 11
119.106
 21
14.6243
  0
LINE
  8
0
 10
119.106
 20
14.6243
 11
118.832
 21
16.7008
  0
LINE
  8
0
 10
118.832
 20
16.7008
 11
118.523
 21
18.7721
  0
LINE
  8
0
 10
118.523
 20
18.7721
 11
118.177
 21
20.8378
  0
LINE
  8
0
 10
118.177
 20
20.8378
 11
117.819
 21
22.7696
  0
LINE
  8
0
 10
117.819
 20
22.7696
 11
103.622
 21
18.9656
  0
LINE
  8
0
 10
103.622
 20
18.9656
 11
102.846
 21
21.8634
  0
LINE
  8
0
 10
102.846
 20
21.8634
 11
117.209
 21
25.7119
  0
LINE
  8
0
 10
117.209
 20
25.7119
 11
116.924
 21
26.9941
  0
LINE
  8
0
 10
116.924
 20
26.9941
 11
116.435
 21
29.0306
  0
LINE
  8
0
 10
116.435
 20
29.0306
 11
115.911
 21
31.0583
  0
LINE
  8
0
 10
115.911
 20
31.0583
 11
115.351
 21
33.0765
  0
LINE
  8
0
 10
115.351
 20
33.0765
 11
114.757
 21
35.0846
  0
LINE
  8
0
 10
114.757
 20
35.0846
 11
114.362
 21
36.3371
  0
LINE
  8
0
 10
114.362
 20
36.3371
 11
99.9987
 21
32.4886
  0
LINE
  8
0
 10
99.9987
 20
32.4886
 11
99.2222
 21
35.3864
  0
LINE
  8
0
 10
99.2222
 20
35.3864
 11
113.419
 21
39.1904
  0
LINE
  8
0
 10
113.419
 20
39.1904
 11
112.763
 21
41.0424
  0
LINE
  8
0
 10
112.763
 20
41.0424
 11
112.03
 21
43.0042
  0
LINE
  8
0
 10
112.03
 20
43.0042
 11
111.262
 21
44.9528
  0
LINE
  8
0
 10
111.262
 20
44.9528
 11
110.461
 21
46.8877
  0
LINE
  8
0
 10
110.461
 20
46.8877
 11
109.625
 21
48.8084
  0
LINE
  8
0
 10
109.625
 20
48.8084
 11
108.757
 21
50.7142
  0
LINE
  8
0
 10
108.757
 20
50.7142
 11
107.911
 21
52.4875
  0
LINE
  8
0
 10
107.911
 20
52.4875
 11
95.1827
 21
45.1388
  0
LINE
  8
0
 10
95.1827
 20
45.1388
 11
93.6827
 21
47.7368
  0
LINE
  8
0
 10
93.6827
 20
47.7368
 11
106.56
 21
55.1716
  0
LINE
  8
0
 10
106.56
 20
55.1716
 11
105.954
 21
56.3366
  0
LINE
  8
0
 10
105.954
 20
56.3366
 11
104.954
 21
58.1771
  0
LINE
  8
0
 10
104.954
 20
58.1771
 11
103.923
 21
60
  0
LINE
  8
0
 10
103.923
 20
60
 11
102.86
 21
61.8046
  0
LINE
  8
0
 10
102.86
 20
61.8046
 11
101.766
 21
63.5903
  0
LINE
  8
0
 10
101.766
 20
63.5903
 11
101.06
 21
64.6979
  0
LINE
  8
0
 10
101.06
 20
64.6979
 11
88.1827
 21
57.2631
  0
LINE
  8
0
 10
88.1827
 20
57.2631
 11
86.6827
 21
59.8612
  0
LINE
  8
0
 10
86.6827
 20
59.8612
 11
99.4111
 21
67.21
  0
LINE
  8
0
 10
99.4111
 20
67.21
 11
98.2982
 21
68.8292
  0
LINE
  8
0
 10
98.2982
 20
68.8292
 11
97.082
 21
70.5342
  0
LINE
  8
0
 10
97.082
 20
70.5342
 11
95.8363
 21
72.2178
  0
LINE
  8
0
 10
95.8363
 20
72.2178
 11
94.5613
 21
73.8794
  0
LINE
  8
0
 10
94.5613
 20
73.8794
 11
93.2575
 21
75.5184
  0
LINE
  8
0
 10
93.2575
 20
75.5184
 11
91.9253
 21
77.1345
  0
LINE
  8
0
 10
91.9253
 20
77.1345
 11
90.6493
 21
78.6285
  0
LINE
  8
0
 10
90.6493
 20
78.6285
 11
80.2566
 21
68.2358
  0
LINE
  8
0
 10
80.2566
 20
68.2358
 11
78.1353
 21
70.3571
  0
LINE
  8
0
 10
78.1353
 20
70.3571
 11
88.6497
 21
80.8715
  0
LINE
  8
0
 10
88.6497
 20
80.8715
 11
87.7624
 21
81.8398
  0
LINE
  8
0
 10
87.7624
 20
81.8398
 11
86.3208
 21
83.359
  0
LINE
  8
0
 10
86.3208
 20
83.359
 11
84.8528
 21
84.8528
  0
LINE
  8
0
 10
84.8528
 20
84.8528
 11
83.359
 21
86.3208
  0
LINE
  8
0
 10
83.359
 20
86.3208
 11
81.8398
 21
87.7624
  0
LINE
  8
0
 10
81.8398
 20
87.7624
 11
80.8715
 21
88.6497
  0
LINE
  8
0
 10
80.8715
 20
88.6497
 11
70.3571
 21
78.1353
  0
LINE
  8
0
 10
70.3571
 20
78.1353
 11
68.2358
 21
80.2566
  0
LINE
  8
0
 10
68.2358
 20
80.2566
 11
78.6285
 21
90.6493
  0
LINE
  8
0
 10
78.6285
 20
90.6493
 11
77.1345
 21
91.9253
  0
LINE
  8
0
 10
77.1345
 20
91.9253
 11
75.5184
 21
93.2575
  0
LINE
  8
0
 10
75.5184
 20
93.2575
 11
73.8794
 21
94.5613
  0
LINE
  8
0
 10
73.8794
 20
94.5613
 11
72.2178
 21
95.8363
  0
LINE
  8
0
 10
72.2178
 20
95.8363
 11
70.5342
 21
97.082
  0
LINE
  8
0
 10
70.5342
 20
97.082
 11
68.8292
 21
98.2982
  0
LINE
  8
0
 10
68.8292
 20
98.2982
 11
67.21
 21
99.4111
  0
LINE
  8
0
 10
67.21
 20
99.4111
 11
59.8612
 21
86.6827
  0
LINE
  8
0
 10
59.8612
 20
86.6827
 11
57.2631
 21
88.1827
  0
LINE
  8
0
 10
57.2631
 20
88.1827
 11
64.6979
 21
101.06
  0
LINE
  8
0
 10
64.6979
 20
101.06
 11
63.5903
 21
101.766
  0
LINE
  8
0
 10
63.5903
 20
101.766
 11
61.8046
 21
102.86
  0
LINE
  8
0
 10
61.8046
 20
102.86
 11
60
 21
103.923
  0
LINE
  8
0
 10
60
 20
103.923
 11
58.1771
 21
104.954
  0
LINE
  8
0
 10
58.1771
 20
104.954
 11
56.3366
 21
105.954
  0
LINE
  8
0
 10
56.3366
 20
105.954
 11
55.1716
 21
106.56
  0
LINE
  8
0
 10
55.1716
 20
106.56
 11
47.7368
 21
93.6827
  0
LINE
  8
0
 10
47.7368
 20
93.6827
 11
45.1388
 21
95.1827
  0
LINE
  8
0
 10
45.1388
 20
95.1827
 11
52.4875
 21
107.911
  0
LINE
  8
0
 10
52.4875
 20
107.911
 11
50.7142
 21
108.757
  0
LINE
  8
0
 10
50.7142
 20
108.757
 11
48.8084
 21
109.625
  0
LINE
  8
0
 10
48.8084
 20
109.625
 11
46.8877
 21
110.461
  0
LINE
  8
0
 10
46.8877
 20
110.461
 11
44.9528
 21
111.262
  0
LINE
  8
0
 10
44.9528
 20
111.262
 11
43.0042
 21
112.03
  0
LINE
  8
0
 10
43.0042
 20
112.03
 11
41.0424
 21
112.763
  0
LINE
  8
0
 10
41.0424
 20
112.763
 11
39.1904
 21
113.419
  0
LINE
  8
0
 10
39.1904
 20
113.419
 11
35.3864
 21
99.2222
  0
LINE
  8
0
 10
35.3864
 20
99.2222
 11
32.4886
 21
99.9987
  0
LINE
  8
0
 10
32.4886
 20
99.9987
 11
36.3371
 21
114.362
  0
LINE
  8
0
 10
36.3371
 20
114.362
 11
35.0846
 21
114.757
  0
LINE
  8
0
 10
35.0846
 20
114.757
 11
33.0765
 21
115.351
  0
LINE
  8
0
 10
33.0765
 20
115.351
 11
31.0583
 21
115.911
  0
LINE
  8
0
 10
31.0583
 20
115.911
 11
29.0306
 21
116.435
  0
LINE
  8
0
 10
29.0306
 20
116.435
 11
26.9941
 21
116.924
  0
LINE
  8
0
 10
26.9941
 20
116.924
 11
25.7119
 21
117.209
  0
LINE
  8
0
 10
25.7119
 20
117.209
 11
21.8634
 21
102.846
  0
LINE
  8
0
 10
21.8634
 20
102.846
 11
18.9656
 21
103.622
  0
LINE
  8
0
 10
18.9656
 20
103.622
 11
22.7696
 21
117.819
  0
LINE
  8
0
 10
22.7696
 20
117.819
 11
20.8378
 21
118.177
  0
LINE
  8
0
 10
20.8378
 20
118.177
 11
18.7721
 21
118.523
  0
LINE
  8
0
 10
18.7721
 20
118.523
 11
16.7008
 21
118.832
  0
LINE
  8
0
 10
16.7008
 20
118.832
 11
14.6243
 21
119.106
  0
LINE
  8
0
 10
14.6243
 20
119.106
 11
12.5434
 21
119.343
  0
LINE
  8
0
 10
12.5434
 20
119.343
 11
10.4587
 21
119.543
  0
LINE
  8
0
 10
10.4587
 20
119.543
 11
8.5
 21
119.697
  0
LINE
  8
0
 10
8.5
 20
119.697
 11
8.5
 21
105
  0
LINE
  8
0
 10
8.5
 20
105
 11
5.5
 21
105
  0
LINE
  8
0
 10
5.5
 20
105
 11
5.5
 21
119.87
  0
LINE
  8
0
 10
5.5
 20
119.87
 11
4.18793
 21
119.927
  0
LINE
  8
0
 10
4.18793
 20
119.927
 11
2.09428
 21
119.982
  0
LINE
  8
0
 10
2.09428
 20
119.982
 11
0
 21
120
  0
LINE
  8
0
 10
0
 20
120
 11
-2.09428
 21
119.982
  0
LINE
  8
0
 10
-2.09428
 20
119.982
 11
-4.18793
 21
119.927
  0
LINE
  8
0
 10
-4.18793
 20
119.927
 11
-5.5
 21
119.87
  0
LINE
  8
0
 10
-5.5
 20
119.87
 11
-5.5
 21
105
  0
LINE
  8
0
 10
-5.5
 20
105
 11
-8.5
 21
105
  0
LINE
  8
0
 10
-8.5
 20
105
 11
-8.5
 21
119.697
  0
LINE
  8
0
 10
-8.5
 20
119.697
 11
-10.4587
 21
119.543
  0
LINE
  8
0
 10
-10.4587
 20
119.543
 11
-12.5434
 21
119.343
  0
LINE
  8
0
 10
-12.5434
 20
119.343
 11
-14.6243
 21
119.106
  0
LINE
  8
0
 10
-14.6243
 20
119.106
 11
-16.7008
 21
118.832
  0
LINE
  8
0
 10
-16.7008
 20
118.832
 11
-18.7721
 21
118.523
  0
LINE
  8
0
 10
-18.7721
 20
118.523
 11
-20.8378
 21
118.177
  0
LINE
  8
0
 10
-20.8378
 20
118.177
 11
-22.7696
 21
117.819
  0
LINE
  8
0
 10
-22.7696
 20
117.819
 11
-18.9656
 21
103.622
  0
LINE
  8
0
 10
-18.9656
 20
103.622
 11
-21.8634
 21
102.846
  0
LINE
  8
0
 10
-21.8634
 20
102.846
 11
-25.7119
 21
117.209
  0
LINE
  8
0
 10
-25.7119
 20
117.209
 11
-26.9941
 21
116.924
  0
LINE
  8
0
 10
-26.9941
 20
116.924
 11
-29.0306
 21
116.435
  0
LINE
  8
0
 10
-29.0306
 20
116.435
 11
-31.0583
 21
115.911
  0
LINE
  8
0
 10
-31.0583
 20
115.911
 11
-33.0765
 21
115.351
  0
LINE
  8
0
 10
-33.0765
 20
115.351
 11
-35.0846
 21
114.757
  0
LINE
  8
0
 10
-35.0846
 20
114.757
 11
-36.3371
 21
114.362
  0
LINE
  8
0
 10
-36.3371
 20
114.362
 11
-32.4886
 21
99.9987
  0
LINE
  8
0
 10
-32.4886
 20
99.9987
 11
-35.3864
 21
99.2222
  0
LINE
  8
0
 10
-35.3864
 20
99.2222
 11
-39.1904
 21
113.419
  0
LINE
  8
0
 10
-39.1904
 20
113.419
 11
-41.0424
 21
112.763
  0
LINE
  8
0
 10
-41.0424
 20
112.763
 11
-43.0042
 21
112.03
  0
LINE
  8
0
 10
-43.0042
 20
112.03
 11
-44.9528
 21
111.262
  0
LINE
  8
0
 10
-44.9528
 20
111.262
 11
-46.8877
 21
110.461
  0
LINE
  8
0
 10
-46.8877
 20
110.461
 11
-48.8084
 21
109.625
  0
LINE
  8
0
 10
-48.8084
 20
109.625
 11
-50.7142
 21
108.757
  0
LINE
  8
0
 10
-50.7142
 20
108.757
 11
-52.4875
 21
107.911
  0
LINE
  8
0
 10
-52.4875
 20
107.911
 11
-45.1388
 21
95.1827
  0
LINE
  8
0
 10
-45.1388
 20
95.1827
 11
-47.7368
 21
93.6827
  0
LINE
  8
0
 10
-47.7368
 20
93.6827
 11
-55.1716
 21
106.56
  0
LINE
  8
0
 10
-55.1716
 20
106.56
 11
-56.3366
 21
105.954
  0
LINE
  8
0
 10
-56.3366
 20
105.954
 11
-58.1771
 21
104.954
  0
LINE
  8
0
 10
-58.1771
 20
104.954
 11
-60
 21
103.923
  0
LINE
  8
0
 10
-60
 20
103.923
 11
-61.8046
 21
102.86
  0
LINE
  8
0
 10
-61.8046
 20
102.86
 11
-63.5903
 21
101.766
  0
LINE
  8
0
 10
-63.5903
 20
101.766
 11
-64.6979
 21
101.06
  0
LINE
  8
0
 10
-64.6979
 20
101.06
 11
-57.2631
 21
88.1827
  0
LINE
  8
0
 10
-57.2631
 20
88.1827
 11
-59.8612
 21
86.6827
  0
LINE
  8
0
 10
-59.8612
 20
86.6827
 11
-67.21
 21
99.4111
  0
LINE
  8
0
 10
-67.21
 20
99.4111
 11
-68.8292
 21
98.2982
  0
LINE
  8
0
 10
-68.8292
 20
98.2982
 11
-70.5342
 21
97.082
  0
LINE
  8
0
 10
-70.5342
 20
97.082
 11
-72.2178
 21
95.8363
  0
LINE
  8
0
 10
-72.2178
 20
95.8363
 11
-73.8794
 21
94.5613
  0
LINE
  8
0
 10
-73.8794
 20
94.5613
 11
-75.5184
 21
93.2575
  0
LINE
  8
0
 10
-75.5184
 20
93.2575
 11
-77.1345
 21
91.9253
  0
LINE
  8
0
 10
-77.1345
 20
91.9253
 11
-78.6285
 21
90.6493
  0
LINE
  8
0
 10
-78.6285
 20
90.6493
 11
-68.2358
 21
80.2566
  0
LINE
  8
0
 10
-68.2358
 20
80.2566
 11
-70.3571
 21
78.1353
  0
LINE
  8
0
 10
-70.3571
 20
78.1353
 11
-80.8715
 21
88.6497
  0
LINE
  8
0
 10
-80.8715
 20
88.6497
 11
-81.8398
 21
87.7624
  0
LINE
  8
0
 10
-81.8398
 20
87.7624
 11
-83.359
 21
86.3208
  0
LINE
  8
0
 10
-83.359
 20
86.3208
 11
-84.8528
 21
84.8528
  0
LINE
  8
0
 10
-84.8528
 20
84.8528
 11
-86.3208
 21
83.359
  0
LINE
  8
0
 10
-86.3208
 20
83.359
 11
-87.7624
 21
81.8398
  0
LINE
  8
0
 10
-87.7624
 20
81.8398
 11
-88.6497
 21
80.8715
  0
LINE
  8
0
 10
-88.6497
 20
80.8715
 11
-78.1353
 21
70.3571
  0
LINE
  8
0
 10
-78.1353
 20
70.3571
 11
-80.2566
 21
68.2358
  0
LINE
  8
0
 10
-80.2566
 20
68.2358
 11
-90.6493
 21
78.6285
  0
LINE
  8
0
 10
-90.6493
 20
78.6285
 11
-91.9253
 21
77.1345
  0
LINE
  8
0
 10
-91.9253
 20
77.1345
 11
-93.2575
 21
75.5184
  0
LINE
  8
0
 10
-93.2575
 20
75.5184
 11
-94.5613
 21
73.8794
  0
LINE
  8
0
 10
-94.5613
 20
73.8794
 11
-95.8363
 21
72.2178
  0
LINE
  8
0
 10
-95.8363
 20
72.2178
 11
-97.082
 21
70.5342
  0
LINE
  8
0
 10
-97.082
 20
70.5342
 11
-98.2982
 21
68.8292
  0
LINE
  8
0
 10
-98.2982
 20
68.8292
 11
-99.4111
 21
67.21
  0
LINE
  8
0
 10
-99.4111
 20
67.21
 11
-86.6827
 21
59.8612
  0
LINE
  8
0
 10
-86.6827
 20
59.8612
 11
-88.1827
 21
57.2631
  0
LINE
  8
0
 10
-88.1827
 20
57.2631
 11
-101.06
 21
64.6979
  0
LINE
  8
0
 10
-101.06
 20
64.6979
 11
-101.766
 21
63.5903
  0
LINE
  8
0
 10
-101.766
 20
63.5903
 11
-102.86
 21
61.8046
  0
LINE
  8
0
 10
-102.86
 20
61.8046
 11
-103.923
 21
60
  0
LINE
  8
0
 10
-103.923
 20
60
 11
-104.954
 21
58.1771
  0
LINE
  8
0
 10
-104.954
 20
58.1771
 11
-105.954
 21
56.3366
  0
LINE
  8
0
 10
-105.954
 20
56.3366
 11
-106.56
 21
55.1716
  0
LINE
  8
0
 10
-106.56
 20
55.1716
 11
-93.6827
 21
47.7368
  0
LINE
  8
0
 10
-93.6827
 20
47.7368
 11
-95.1827
 21
45.1388
  0
LINE
  8
0
 10
-95.1827
 20
45.1388
 11
-107.911
 21
52.4875
  0
LINE
  8
0
 10
-107.911
 20
52.4875
 11
-108.757
 21
50.7142
  0
LINE
  8
0
 10
-108.757
 20
50.7142
 11
-109.625
 21
48.8084
  0
LINE
  8
0
 10
-109.625
 20
48.8084
 11
-110.461
 21
46.8877
  0
LINE
  8
0
 10
-110.461
 20
46.8877
 11
-111.262
 21
44.9528
  0
LINE
  8
0
 10
-111.262
 20
44.9528
 11
-112.03
 21
43.0042
  0
LINE
  8
0
 10
-112.03
 20
43.0042
 11
-112.763
 21
41.0424
  0
LINE
  8
0
 10
-112.763
 20
41.0424
 11
-113.419
 21
39.1904
  0
LINE
  8
0
 10
-113.419
 20
39.1904
 11
-99.2222
 21
35.3864
  0
LINE
  8
0
 10
-99.2222
 20
35.3864
 11
-99.9987
 21
32.4886
  0
LINE
  8
0
 10
-99.9987
 20
32.4886
 11
-114.362
 21
36.3371
  0
LINE
  8
0
 10
-114.362
 20
36.3371
 11
-114.757
 21
35.0846
  0
LINE
  8
0
 10
-114.757
 20
35.0846
 11
-115.351
 21
33.0765
  0
LINE
  8
0
 10
-115.351
 20
33.0765
 11
-115.911
 21
31.0583
  0
LINE
  8
0
 10
-115.911
 20
31.0583
 11
-116.435
 21
29.0306
  0
LINE
  8
0
 10
-116.435
 20
29.0306
 11
-116.924
 21
26.9941
  0
LINE
  8
0
 10
-116.924
 20
26.9941
 11
-117.209
 21
25.7119
  0
LINE
  8
0
 10
-117.209
 20
25.7119
 11
-102.846
 21
21.8634
  0
LINE
  8
0
 10
-102.846
 20
21.8634
 11
-103.622
 21
18.9656
  0
LINE
  8
0
 10
-103.622
 20
18.9656
 11
-117.819
 21
22.7696
  0
LINE
  8
0
 10
-117.819
 20
22.7696
 11
-118.177
 21
20.8378
  0
LINE
  8
0
 10
-118.177
 20
20.8378
 11
-118.523
 21
18.7721
  0
LINE
  8
0
 10
-118.523
 20
18.7721
 11
-118.832
 21
16.7008
  0
LINE
  8
0
 10
-118.832
 20
16.7008
 11
-119.106
 21
14.6243
  0
LINE
  8
0
 10
-119.106
 20
14.6243
 11
-119.343
 21
12.5434
  0
LINE
  8
0
 10
-119.343
 20
12.5434
 11
-119.543
 21
10.4587
  0
LINE
  8
0
 10
-119.543
 20
10.4587
 11
-119.697
 21
8.5
  0
LINE
  8
0
 10
-119.697
 20
8.5
 11
-105
 21
8.5
  0
LINE
  8
0
 10
-105
 20
8.5
 11
-105
 21
5.5
  0
LINE
  8
0
 10
-105
 20
5.5
 11
-119.87
 21
5.5
  0
LINE
  8
0
 10
-119.87
 20
5.5
 11
-119.927
 21
4.18793
  0
LINE
  8
0
 10
-119.927
 20
4.18793
 11
-119.982
 21
2.09428
  0
LINE
  8
0
 10
-119.982
 20
2.09428
 11
-120
 21
0
  0
LINE
  8
0
 10
-120
 20
0
 11
-119.982
 21
-2.09428
  0
LINE
  8
0
 10
-119.982
 20
-2.09428
 11
-119.927
 21
-4.18793
  0
LINE
  8
0
 10
-119.927
 20
-4.18793
 11
-119.87
 21
-5.5
  0
LINE
  8
0
 10
-119.87
 20
-5.5
 11
-105
 21
-5.5
  0
LINE
  8
0
 10
-105
 20
-5.5
 11
-105
 21
-8.5
  0
LINE
  8
0
 10
-105
 20
-8.5
 11
-119.697
 21
-8.5
  0
LINE
  8
0
 10
-119.697
 20
-8.5
 11
-119.543
 21
-10.4587
  0
LINE
  8
0
 10
-119.543
 20
-10.4587
 11
-119.343
 21
-12.5434
  0
LINE
  8
0
 10
-119.343
 20
-12.5434
 11
-119.106
 21
-14.6243
  0
LINE
  8
0
 10
-119.106
 20
-14.6243
 11
-118.832
 21
-16.7008
  0
LINE
  8
0
 10
-118.832
 20
-16.7008
 11
-118.523
 21
-18.7721
  0
LINE
  8
0
 10
-118.523
 20
-18.7721
 11
-118.177
 21
-20.8378
  0
LINE
  8
0
 10
-118.177
 20
-20.8378
 11
-117.819
 21
-22.7696
  0
LINE
  8
0
 10
-117.819
 20
-22.7696
 11
-103.622
 21
-18.9656
  0
LINE
  8
0
 10
-103.622
 20
-18.9656
 11
-102.846
 21
-21.8634
  0
LINE
  8
0
 10
-102.846
 20
-21.8634
 11
-117.209
 21
-25.7119
  0
LINE
  8
0
 10
-117.209
 20
-25.7119
 11
-116.924
 21
-26.9941
  0
LINE
  8
0
 10
-116.924
 20
-26.9941
 11
-116.435
 21
-29.0306
  0
LINE
  8
0
 10
-116.435
 20
-29.0306
 11
-115.911
 21
-31.0583
  0
LINE
  8
0
 10
-115.911
 20
-31.0583
 11
-115.351
 21
-33.0765
  0
LINE
  8
0
 10
-115.351
 20
-33.0765
 11
-114.757
 21
-35.0846
  0
LINE
  8
0
 10
-114.757
 20
-35.0846
 11
-114.362
 21
-36.3371
  0
LINE
  8
0
 10
-114.362
 20
-36.3371
 11
-99.9987
 21
-32.4886
  0
LINE
  8
0
 10
-99.9987
 20
-32.4886
 11
-99.2222
 21
-35.3864
  0
LINE
  8
0
 10
-99.2222
 20
-35.3864
 11
-113.419
 21
-39.1904
  0
LINE
  8
0
 10
-113.419
 20
-39.1904
 11
-112.763
 21
-41.0424
  0
LINE
  8
0
 10
-112.763
 20
-41.0424
 11
-112.03
 21
-43.0042
  0
LINE
  8
0
 10
-112.03
 20
-43.0042
 11
-111.262
 21
-44.9528
  0
LINE
  8
0
 10
-111.262
 20
-44.9528
 11
-110.461
 21
-46.8877
  0
LINE
  8
0
 10
-110.461
 20
-46.8877
 11
-109.625
 21
-48.8084
  0
LINE
  8
0
 10
-109.625
 20
-48.8084
 11
-108.757
 21
-50.7142
  0
LINE
  8
0
 10
-108.757
 20
-50.7142
 11
-107.911
 21
-52.4875
  0
LINE
  8
0
 10
-107.911
 20
-52.4875
 11
-95.1827
 21
-45.1388
  0
LINE
  8
0
 10
-95.1827
 20
-45.1388
 11
-93.6827
 21
-47.7368
  0
LINE
  8
0
 10
-93.6827
 20
-47.7368
 11
-106.56
 21
-55.1716
  0
LINE
  8
0
 10
-106.56
 20
-55.1716
 11
-105.954
 21
-56.3366
  0
LINE
  8
0
 10
-105.954
 20
-56.3366
 11
-104.954
 21
-58.1771
  0
LINE
  8
0
 10
-104.954
 20
-58.1771
 11
-103.923
 21
-60
  0
LINE
  8
0
 10
-103.923
 20
-60
 11
-102.86
 21
-61.8046
  0
LINE
  8
0
 10
-102.86
 20
-61.8046
 11
-101.766
 21
-63.5903
  0
LINE
  8
0
 10
-101.766
 20
-63.5903
 11
-101.06
 21
-64.6979
  0
LINE
  8
0
 10
-101.06
 20
-64.6979
 11
-88.1827
 21
-57.2631
  0
LINE
  8
0
 10
-88.1827
 20
-57.2631
 11
-86.6827
 21
-59.8612
  0
LINE
  8
0
 10
-86.6827
 20
-59.8612
 11
-99.4111
 21
-67.21
  0
LINE
  8
0
 10
-99.4111
 20
-67.21
 11
-98.2982
 21
-68.8292
  0
LINE
  8
0
 10
-98.2982
 20
-68.8292
 11
-97.082
 21
-70.5342
  0
LINE
  8
0
 10
-97.082
 20
-70.5342
 11
-95.8363
 21
-72.2178
  0
LINE
  8
0
 10
-95.8363
 20
-72.2178
 11
-94.5613
 21
-73.8794
  0
LINE
  8
0
 10
-94.5613
 20
-73.8794
 11
-93.2575
 21
-75.5184
  0
LINE
  8
0
 10
-93.2575
 20
-75.5184
 11
-91.9253
 21
-77.1345
  0
LINE
  8
0
 10
-91.9253
 20
-77.1345
 11
-90.6493
 21
-78.6285
  0
LINE
  8
0
 10
-90.6493
 20
-78.6285
 11
-80.2566
 21
-68.2358
  0
LINE
  8
0
 10
-80.2566
 20
-68.2358
 11
-78.1353
 21
-70.3571
  0
LINE
  8
0
 10
-78.1353
 20
-70.3571
 11
-88.6497
 21
-80.8715
  0
LINE
  8
0
 10
-88.6497
 20
-80.8715
 11
-87.7624
 21
-81.8398
  0
LINE
  8
0
 10
-87.7624
 20
-81.8398
 11
-86.3208
 21
-83.359
  0
LINE
  8
0
 10
-86.3208
 20
-83.359
 11
-84.8528
 21
-84.8528
  0
LINE
  8
0
 10
-84.8528
 20
-84.8528
 11
-83.359
 21
-86.3208
  0
LINE
  8
0
 10
-83.359
 20
-86.3208
 11
-81.8398
 21
-87.7624
  0
LINE
  8
0
 10
-81.8398
 20
-87.7624
 11
-80.8715
 21
-88.6497
  0
LINE
  8
0
 10
-80.8715
 20
-88.6497
 11
-70.3571
 21
-78.1353
  0
LINE
  8
0
 10
-70.3571
 20
-78.1353
 11
-68.2358
 21
-80.2566
  0
LINE
  8
0
 10
-68.2358
 20
-80.2566
 11
-78.6285
 21
-90.6493
  0
LINE
  8
0
 10
-78.6285
 20
-90.6493
 11
-77.1345
 21
-91.9253
  0
LINE
  8
0
 10
-77.1345
 20
-91.9253
 11
-75.5184
 21
-93.2575
  0
LINE
  8
0
 10
-75.5184
 20
-93.2575
 11
-73.8794
 21
-94.5613
  0
LINE
  8
0
 10
-73.8794
 20
-94.5613
 11
-72.2178
 21
-95.8363
  0
LINE
  8
0
 10
-72.2178
 20
-95.8363
 11
-70.5342
 21
-97.082
  0
LINE
  8
0
 10
-70.5342
 20
-97.082
 11
-68.8292
 21
-98.2982
  0
LINE
  8
0
 10
-68.8292
 20
-98.2982
 11
-67.21
 21
-99.4111
  0
LINE
  8
0
 10
-67.21
 20
-99.4111
 11
-59.8612
 21
-86.6827
  0
LINE
  8
0
 10
-59.8612
 20
-86.6827
 11
-57.2631
 21
-88.1827
  0
LINE
  8
0
 10
-57.2631
 20
-88.1827
 11
-64.6979
 21
-101.06
  0
LINE
  8
0
 10
-64.6979
 20
-101.06
 11
-63.5903
 21
-101.766
  0
LINE
  8
0
 10
-63.5903
 20
-101.766
 11
-61.8046
 21
-102.86
  0
LINE
  8
0
 10
-61.8046
 20
-102.86
 11
-60
 21
-103.923
  0
LINE
  8
0
 10
-60
 20
-103.923
 11
-58.1771
 21
-104.954
  0
LINE
  8
0
 10
-58.1771
 20
-104.954
 11
-56.3366
 21
-105.954
  0
LINE
  8
0
 10
-56.3366
 20
-105.954
 11
-55.1716
 21
-106.56
  0
LINE
  8
0
 10
-55.1716
 20
-106.56
 11
-47.7368
 21
-93.6827
  0
LINE
  8
0
 10
-47.7368
 20
-93.6827
 11
-45.1388
 21
-95.1827
  0
LINE
  8
0
 10
-45.1388
 20
-95.1827
 11
-52.4875
 21
-107.911
  0
LINE
  8
0
 10
-52.4875
 20
-107.911
 11
-50.7142
 21
-108.757
  0
LINE
  8
0
 10
-50.7142
 20
-108.757
 11
-48.8084
 21
-109.625
  0
LINE
  8
0
 10
-48.8084
 20
-109.625
 11
-46.8877
 21
-110.461
  0
LINE
  8
0
 10
-46.8877
 20
-110.461
 11
-44.9528
 21
-111.262
  0
LINE
  8
0
 10
-44.9528
 20
-111.262
 11
-43.0042
 21
-112.03
  0
LINE
  8
0
 10
-43.0042
 20
-112.03
 11
-41.0424
 21
-112.763
  0
LINE
  8
0
 10
-41.0424
 20
-112.763
 11
-39.1904
 21
-113.419
  0
LINE
  8
0
 10
-39.1904
 20
-113.419
 11
-35.3864
 21
-99.2222
  0
LINE
  8
0
 10
-35.3864
 20
-99.2222
 11
-32.4886
 21
-99.9987
  0
LINE
  8
0
 10
-32.4886
 20
-99.9987
 11
-36.3371
 21
-114.362
  0
LINE
  8
0
 10
-36.3371
 20
-114.362
 11
-35.0846
 21
-114.757
  0
LINE
  8
0
 10
-35.0846
 20
-114.757
 11
-33.0765
 21
-115.351
  0
LINE
  8
0
 10
-33.0765
 20
-115.351
 11
-31.0583
 21
-115.911
  0
LINE
  8
0
 10
-31.0583
 20
-115.911
 11
-29.0306
 21
-116.435
  0
LINE
  8
0
 10
-29.0306
 20
-116.435
 11
-26.9941
 21
-116.924
  0
LINE
  8
0
 10
-26.9941
 20
-116.924
 11
-25.7119
 21
-117.209
  0
LINE
  8
0
 10
-25.7119
 20
-117.209
 11
-21.8634
 21
-102.846
  0
LINE
  8
0
 10
-21.8634
 20
-102.846
 11
-18.9656
 21
-103.622
  0
LINE
  8
0
 10
-18.9656
 20
-103.622
 11
-22.7696
 21
-117.819
  0
LINE
  8
0
 10
-22.7696
 20
-117.819
 11
-20.8378
 21
-118.177
  0
LINE
  8
0
 10
-20.8378
 20
-118.177
 11
-18.7721
 21
-118.523
  0
LINE
  8
0
 10
-18.7721
 20
-118.523
 11
-16.7008
 21
-118.832
  0
LINE
  8
0
 10
-16.7008
 20
-118.832
 11
-14.6243
 21
-119.106
  0
LINE
  8
0
 10
-14.6243
 20
-119.106
 11
-12.5434
 21
-119.343
  0
LINE
  8
0
 10
-12.5434
 20
-119.343
 11
-10.4587
 21
-119.543
  0
LINE
  8
0
 10
-10.4587
 20
-119.543
 11
-8.5
 21
-119.697
  0
LINE
  8
0
 10
-8.5
 20
-119.697
 11
-8.5
 21
-105
  0
LINE
  8
0
 10
-8.5
 20
-105
 11
-5.5
 21
-105
  0
LINE
  8
0
 10
-5.5
 20
-105
 11
-5.5
 21
-119.87
  0
LINE
  8
0
 10
-5.5
 20
-119.87
 11
-4.18793
 21
-119.927
  0
LINE
  8
0
 10
-4.18793
 20
-119.927
 11
-2.09428
 21
-119.982
  0
LINE
  8
0
 10
-2.09428
 20
-119.982
 11
0
 21
-120
  0
LINE
  8
0
 10
0
 20
-120
 11
2.09428
 21
-119.982
  0
LINE
  8
0
 10
-0.382675
 20
99.0761
 11
-0.707092
 21
99.2929
  0
LINE
  8
0
 10
-0.707092
 20
99.2929
 11
-0.923874
 21
99.6173
  0
LINE
  8
0
 10
-0.923874
 20
99.6173
 11
-1
 21
100
  0
LINE
  8
0
 10
-1
 20
100
 11
-0.923874
 21
100.383
  0
LINE
  8
0
 10
-0.923874
 20
100.383
 11
-0.707092
 21
100.707
  0
LINE
  8
0
 10
-0.707092
 20
100.707
 11
-0.382675
 21
100.924
  0
LINE
  8
0
 10
-0.382675
 20
100.924
 11
0
 21
101
  0
LINE
  8
0
 10
0
 20
101
 11
0.382675
 21
100.924
  0
LINE
  8
0
 10
0.382675
 20
100.924
 11
0.707092
 21
100.707
  0
LINE
  8
0
 10
0.707092
 20
100.707
 11
0.923874
 21
100.383
  0
LINE
  8
0
 10
0.923874
 20
100.383
 11
1
 21
100
  0
LINE
  8
0
 10
1
 20
100
 11
0.923874
 21
99.6173
  0
LINE
  8
0
 10
0.923874
 20
99.6173
 11
0.707092
 21
99.2929
  0
LINE
  8
0
 10
0.707092
 20
99.2929
 11
0.382675
 21
99.0761
  0
LINE
  8
0
 10
0.382675
 20
99.0761
 11
0
 21
99
  0
LINE
  8
0
 10
0
 20
99
 11
-0.382675
 21
99.0761
  0
LINE
  8
0
 10
-15
 20
78.375
 11
-15
 21
81.375
  0
LINE
  8
0
 10
-15
 20
81.375
 11
15
 21
81.375
  0
LINE
  8
0
 10
15
 20
81.375
 11
15
 21
78.375
  0
LINE
  8
0
 10
15
 20
78.375
 11
-15
 21
78.375
  0
LINE
  8
0
 10
-40.9728
 20
65.3101
 11
-41.7066
 21
65.5863
  0
LINE
  8
0
 10
-41.7066
 20
65.5863
 11
-42.3725
 21
66.0004
  0
LINE
  8
0
 10
-42.3725
 20
66.0004
 11
-42.9449
 21
66.5364
  0
LINE
  8
0
 10
-42.9449
 20
66.5364
 11
-43.4016
 21
67.1738
  0
LINE
  8
0
 10
-43.4016
 20
67.1738
 11
-43.7252
 21
67.888
  0
LINE
  8
0
 10
-43.7252
 20
67.888
 11
-43.9033
 21
68.6517
  0
LINE
  8
0
 10
-43.9033
 20
68.6517
 11
-43.9289
 21
69.4354
  0
LINE
  8
0
 10
-43.9289
 20
69.4354
 11
-43.8012
 21
70.209
  0
LINE
  8
0
 10
-43.8012
 20
70.209
 11
-43.525
 21
70.9429
  0
LINE
  8
0
 10
-43.525
 20
70.9429
 11
-43.1109
 21
71.6088
  0
LINE
  8
0
 10
-43.1109
 20
71.6088
 11
-42.5749
 21
72.1811
  0
LINE
  8
0
 10
-42.5749
 20
72.1811
 11
-41.9375
 21
72.6379
  0
LINE
  8
0
 10
-41.9375
 20
72.6379
 11
-41.2233
 21
72.9615
  0
LINE
  8
0
 10
-41.2233
 20
72.9615
 11
-40.4596
 21
73.1396
  0
LINE
  8
0
 10
-40.4596
 20
73.1396
 11
-39.6759
 21
73.1652
  0
LINE
  8
0
 10
-39.6759
 20
73.1652
 11
-38.9022
 21
73.0375
  0
LINE
  8
0
 10
-38.9022
 20
73.0375
 11
-38.1683
 21
72.7613
  0
LINE
  8
0
 10
-38.1683
 20
72.7613
 11
-37.5024
 21
72.3472
  0
LINE
  8
0
 10
-37.5024
 20
72.3472
 11
-36.9301
 21
71.8112
  0
LINE
  8
0
 10
-36.9301
 20
71.8112
 11
-36.4734
 21
71.1738
  0
LINE
  8
0
 10
-36.4734
 20
71.1738
 11
-36.1498
 21
70.4595
  0
LINE
  8
0
 10
-36.1498
 20
70.4595
 11
-35.9717
 21
69.6959
  0
LINE
  8
0
 10
-35.9717
 20
69.6959
 11
-35.9461
 21
68.9122
  0
LINE
  8
0
 10
-35.9461
 20
68.9122
 11
-36.0738
 21
68.1385
  0
LINE
  8
0
 10
-36.0738
 20
68.1385
 11
-36.35
 21
67.4046
  0
LINE
  8
0
 10
-36.35
 20
67.4046
 11
-36.7641
 21
66.7387
  0
LINE
  8
0
 10
-36.7641
 20
66.7387
 11
-37.3001
 21
66.1664
  0
LINE
  8
0
 10
-37.3001
 20
66.1664
 11
-37.9375
 21
65.7097
  0
LINE
  8
0
 10
-37.9375
 20
65.7097
 11
-38.6517
 21
65.386
  0
LINE
  8
0
 10
-38.6517
 20
65.386
 11
-39.4154
 21
65.208
  0
LINE
  8
0
 10
-39.4154
 20
65.208
 11
-40.1991
 21
65.1823
  0
LINE
  8
0
 10
-40.1991
 20
65.1823
 11
-40.9728
 21
65.3101
  0
LINE
  8
0
 10
39.4154
 20
65.208
 11
38.6517
 21
65.386
  0
LINE
  8
0
 10
38.6517
 20
65.386
 11
37.9375
 21
65.7097
  0
LINE
  8
0
 10
37.9375
 20
65.7097
 11
37.3001
 21
66.1664
  0
LINE
  8
0
 10
37.3001
 20
66.1664
 11
36.7641
 21
66.7387
  0
LINE
  8
0
 10
36.7641
 20
66.7387
 11
36.35
 21
67.4046
  0
LINE
  8
0
 10
36.35
 20
67.4046
 11
36.0738
 21
68.1385
  0
LINE
  8
0
 10
36.0738
 20
68.1385
 11
35.9461
 21
68.9122
  0
LINE
  8
0
 10
35.9461
 20
68.9122
 11
35.9717
 21
69.6959
  0
LINE
  8
0
 10
35.9717
 20
69.6959
 11
36.1498
 21
70.4595
  0
LINE
  8
0
 10
36.1498
 20
70.4595
 11
36.4734
 21
71.1738
  0
LINE
  8
0
 10
36.4734
 20
71.1738
 11
36.9301
 21
71.8112
  0
LINE
  8
0
 10
36.9301
 20
71.8112
 11
37.5024
 21
72.3472
  0
LINE
  8
0
 10
37.5024
 20
72.3472
 11
38.1683
 21
72.7613
  0
LINE
  8
0
 10
38.1683
 20
72.7613
 11
38.9022
 21
73.0375
  0
LINE
  8
0
 10
38.9022
 20
73.0375
 11
39.6759
 21
73.1652
  0
LINE
  8
0
 10
39.6759
 20
73.1652
 11
40.4596
 21
73.1396
  0
LINE
  8
0
 10
40.4596
 20
73.1396
 11
41.2233
 21
72.9615
  0
LINE
  8
0
 10
41.2233
 20
72.9615
 11
41.9375
 21
72.6379
  0
LINE
  8
0
 10
41.9375
 20
72.6379
 11
42.5749
 21
72.1811
  0
LINE
  8
0
 10
42.5749
 20
72.1811
 11
43.1109
 21
71.6088
  0
LINE
  8
0
 10
43.1109
 20
71.6088
 11
43.525
 21
70.9429
  0
LINE
  8
0
 10
43.525
 20
70.9429
 11
43.8012
 21
70.209
  0
LINE
  8
0
 10
43.8012
 20
70.209
 11
43.9289
 21
69.4354
  0
LINE
  8
0
 10
43.9289
 20
69.4354
 11
43.9033
 21
68.6517
  0
LINE
  8
0
 10
43.9033
 20
68.6517
 11
43.7252
 21
67.888
  0
LINE
  8
0
 10
43.7252
 20
67.888
 11
43.4016
 21
67.1738
  0
LINE
  8
0
 10
43.4016
 20
67.1738
 11
42.9449
 21
66.5364
  0
LINE
  8
0
 10
42.9449
 20
66.5364
 11
42.3725
 21
66.0004
  0
LINE
  8
0
 10
42.3725
 20
66.0004
 11
41.7066
 21
65.5863
  0
LINE
  8
0
 10
41.7066
 20
65.5863
 11
40.9728
 21
65.3101
  0
LINE
  8
0
 10
40.9728
 20
65.3101
 11
40.1991
 21
65.1823
  0
LINE
  8
0
 10
40.1991
 20
65.1823
 11
39.4154
 21
65.208
  0
LINE
  8
0
 10
70.328
 20
69.7868
 11
70.0036
 21
70.0036
  0
LINE
  8
0
 10
70.0036
 20
70.0036
 11
69.7868
 21
70.328
  0
LINE
  8
0
 10
69.7868
 20
70.328
 11
69.7107
 21
70.7107
  0
LINE
  8
0
 10
69.7107
 20
70.7107
 11
69.7868
 21
71.0934
  0
LINE
  8
0
 10
69.7868
 20
71.0934
 11
70.0036
 21
71.4178
  0
LINE
  8
0
 10
70.0036
 20
71.4178
 11
70.328
 21
71.6346
  0
LINE
  8
0
 10
70.328
 20
71.6346
 11
70.7107
 21
71.7107
  0
LINE
  8
0
 10
70.7107
 20
71.7107
 11
71.0934
 21
71.6346
  0
LINE
  8
0
 10
71.0934
 20
71.6346
 11
71.4178
 21
71.4178
  0
LINE
  8
0
 10
71.4178
 20
71.4178
 11
71.6346
 21
71.0934
  0
LINE
  8
0
 10
71.6346
 20
71.0934
 11
71.7107
 21
70.7107
  0
LINE
  8
0
 10
71.7107
 20
70.7107
 11
71.6346
 21
70.328
  0
LINE
  8
0
 10
71.6346
 20
70.328
 11
71.4178
 21
70.0036
  0
LINE
  8
0
 10
71.4178
 20
70.0036
 11
71.0934
 21
69.7868
  0
LINE
  8
0
 10
71.0934
 20
69.7868
 11
70.7107
 21
69.7107
  0
LINE
  8
0
 10
70.7107
 20
69.7107
 11
70.328
 21
69.7868
  0
LINE
  8
0
 10
-71.0934
 20
69.7868
 11
-71.4178
 21
70.0036
  0
LINE
  8
0
 10
-71.4178
 20
70.0036
 11
-71.6346
 21
70.328
  0
LINE
  8
0
 10
-71.6346
 20
70.328
 11
-71.7107
 21
70.7107
  0
LINE
  8
0
 10
-71.7107
 20
70.7107
 11
-71.6346
 21
71.0934
  0
LINE
  8
0
 10
-71.6346
 20
71.0934
 11
-71.4178
 21
71.4178
  0
LINE
  8
0
 10
-71.4178
 20
71.4178
 11
-71.0934
 21
71.6346
  0
LINE
  8
0
 10
-71.0934
 20
71.6346
 11
-70.7107
 21
71.7107
  0
LINE
  8
0
 10
-70.7107
 20
71.7107
 11
-70.328
 21
71.6346
  0
LINE
  8
0
 10
-70.328
 20
71.6346
 11
-70.0036
 21
71.4178
  0
LINE
  8
0
 10
-70.0036
 20
71.4178
 11
-69.7868
 21
71.0934
  0
LINE
  8
0
 10
-69.7868
 20
71.0934
 11
-69.7107
 21
70.7107
  0
LINE
  8
0
 10
-69.7107
 20
70.7107
 11
-69.7868
 21
70.328
  0
LINE
  8
0
 10
-69.7868
 20
70.328
 11
-70.0036
 21
70.0036
  0
LINE
  8
0
 10
-70.0036
 20
70.0036
 11
-70.328
 21
69.7868
  0
LINE
  8
0
 10
-70.328
 20
69.7868
 11
-70.7107
 21
69.7107
  0
LINE
  8
0
 10
-70.7107
 20
69.7107
 11
-71.0934
 21
69.7868
  0
LINE
  8
0
 10
60.3747
 20
52.1779
 11
62.9728
 21
53.6779
  0
LINE
  8
0
 10
62.9728
 20
53.6779
 11
77.9728
 21
27.6971
  0
LINE
  8
0
 10
77.9728
 20
27.6971
 11
75.3747
 21
26.1971
  0
LINE
  8
0
 10
75.3747
 20
26.1971
 11
60.3747
 21
52.1779
  0
LINE
  8
0
 10
-77.9728
 20
27.6971
 11
-62.9728
 21
53.6779
  0
LINE
  8
0
 10
-62.9728
 20
53.6779
 11
-60.3747
 21
52.1779
  0
LINE
  8
0
 10
-60.3747
 20
52.1779
 11
-75.3747
 21
26.1971
  0
LINE
  8
0
 10
-75.3747
 20
26.1971
 11
-77.9728
 21
27.6971
  0
LINE
  8
0
 10
-0.3414
 20
34.9836
 11
-0.669693
 21
35.0832
  0
LINE
  8
0
 10
-0.669693
 20
35.0832
 11
-0.972244
 21
35.2449
  0
LINE
  8
0
 10
-0.972244
 20
35.2449
 11
-1.23743
 21
35.4626
  0
LINE
  8
0
 10
-1.23743
 20
35.4626
 11
-1.45506
 21
35.7277
  0
LINE
  8
0
 10
-1.45506
 20
35.7277
 11
-1.61678
 21
36.0303
  0
LINE
  8
0
 10
-1.61678
 20
36.0303
 11
-1.71637
 21
36.3586
  0
LINE
  8
0
 10
-1.71637
 20
36.3586
 11
-1.75
 21
36.7
  0
LINE
  8
0
 10
-1.75
 20
36.7
 11
-1.71637
 21
37.0414
  0
LINE
  8
0
 10
-1.71637
 20
37.0414
 11
-1.61678
 21
37.3697
  0
LINE
  8
0
 10
-1.61678
 20
37.3697
 11
-1.45506
 21
37.6722
  0
LINE
  8
0
 10
-1.45506
 20
37.6722
 11
-1.23743
 21
37.9374
  0
LINE
  8
0
 10
-1.23743
 20
37.9374
 11
-0.972244
 21
38.1551
  0
LINE
  8
0
 10
-0.972244
 20
38.1551
 11
-0.669693
 21
38.3168
  0
LINE
  8
0
 10
-0.669693
 20
38.3168
 11
-0.3414
 21
38.4164
  0
LINE
  8
0
 10
-0.3414
 20
38.4164
 11
0
 21
38.45
  0
LINE
  8
0
 10
0
 20
38.45
 11
0.3414
 21
38.4164
  0
LINE
  8
0
 10
0.3414
 20
38.4164
 11
0.669693
 21
38.3168
  0
LINE
  8
0
 10
0.669693
 20
38.3168
 11
0.972244
 21
38.1551
  0
LINE
  8
0
 10
0.972244
 20
38.1551
 11
1.23743
 21
37.9374
  0
LINE
  8
0
 10
1.23743
 20
37.9374
 11
1.45506
 21
37.6722
  0
LINE
  8
0
 10
1.45506
 20
37.6722
 11
1.61678
 21
37.3697
  0
LINE
  8
0
 10
1.61678
 20
37.3697
 11
1.71637
 21
37.0414
  0
LINE
  8
0
 10
1.71637
 20
37.0414
 11
1.75
 21
36.7
  0
LINE
  8
0
 10
1.75
 20
36.7
 11
1.71637
 21
36.3586
  0
LINE
  8
0
 10
1.71637
 20
36.3586
 11
1.61678
 21
36.0303
  0
LINE
  8
0
 10
1.61678
 20
36.0303
 11
1.45506
 21
35.7277
  0
LINE
  8
0
 10
1.45506
 20
35.7277
 11
1.23743
 21
35.4626
  0
LINE
  8
0
 10
1.23743
 20
35.4626
 11
0.972244
 21
35.2449
  0
LINE
  8
0
 10
0.972244
 20
35.2449
 11
0.669693
 21
35.0832
  0
LINE
  8
0
 10
0.669693
 20
35.0832
 11
0.3414
 21
34.9836
  0
LINE
  8
0
 10
0.3414
 20
34.9836
 11
0
 21
34.95
  0
LINE
  8
0
 10
0
 20
34.95
 11
-0.3414
 21
34.9836
  0
LINE
  8
0
 10
25.6094
 20
24.2344
 11
25.2811
 21
24.334
  0
LINE
  8
0
 10
25.2811
 20
24.334
 11
24.9786
 21
24.4957
  0
LINE
  8
0
 10
24.9786
 20
24.4957
 11
24.7134
 21
24.7134
  0
LINE
  8
0
 10
24.7134
 20
24.7134
 11
24.4957
 21
24.9786
  0
LINE
  8
0
 10
24.4957
 20
24.9786
 11
24.334
 21
25.2811
  0
LINE
  8
0
 10
24.334
 20
25.2811
 11
24.2344
 21
25.6094
  0
LINE
  8
0
 10
24.2344
 20
25.6094
 11
24.2008
 21
25.9508
  0
LINE
  8
0
 10
24.2008
 20
25.9508
 11
24.2344
 21
26.2922
  0
LINE
  8
0
 10
24.2344
 20
26.2922
 11
24.334
 21
26.6205
  0
LINE
  8
0
 10
24.334
 20
26.6205
 11
24.4957
 21
26.9231
  0
LINE
  8
0
 10
24.4957
 20
26.9231
 11
24.7134
 21
27.1882
  0
LINE
  8
0
 10
24.7134
 20
27.1882
 11
24.9786
 21
27.4059
  0
LINE
  8
0
 10
24.9786
 20
27.4059
 11
25.2811
 21
27.5676
  0
LINE
  8
0
 10
25.2811
 20
27.5676
 11
25.6094
 21
27.6672
  0
LINE
  8
0
 10
25.6094
 20
27.6672
 11
25.9508
 21
27.7008
  0
LINE
  8
0
 10
25.9508
 20
27.7008
 11
26.2922
 21
27.6672
  0
LINE
  8
0
 10
26.2922
 20
27.6672
 11
26.6205
 21
27.5676
  0
LINE
  8
0
 10
26.6205
 20
27.5676
 11
26.9231
 21
27.4059
  0
LINE
  8
0
 10
26.9231
 20
27.4059
 11
27.1882
 21
27.1882
  0
LINE
  8
0
 10
27.1882
 20
27.1882
 11
27.4059
 21
26.9231
  0
LINE
  8
0
 10
27.4059
 20
26.9231
 11
27.5676
 21
26.6205
  0
LINE
  8
0
 10
27.5676
 20
26.6205
 11
27.6672
 21
26.2922
  0
LINE
  8
0
 10
27.6672
 20
26.2922
 11
27.7008
 21
25.9508
  0
LINE
  8
0
 10
27.7008
 20
25.9508
 11
27.6672
 21
25.6094
  0
LINE
  8
0
 10
27.6672
 20
25.6094
 11
27.5676
 21
25.2811
  0
LINE
  8
0
 10
27.5676
 20
25.2811
 11
27.4059
 21
24.9786
  0
LINE
  8
0
 10
27.4059
 20
24.9786
 11
27.1882
 21
24.7134
  0
LINE
  8
0
 10
27.1882
 20
24.7134
 11
26.9231
 21
24.4957
  0
LINE
  8
0
 10
26.9231
 20
24.4957
 11
26.6205
 21
24.334
  0
LINE
  8
0
 10
26.6205
 20
24.334
 11
26.2922
 21
24.2344
  0
LINE
  8
0
 10
26.2922
 20
24.2344
 11
25.9508
 21
24.2008
  0
LINE
  8
0
 10
25.9508
 20
24.2008
 11
25.6094
 21
24.2344
  0
LINE
  8
0
 10
-26.2922
 20
24.2344
 11
-26.6205
 21
24.334
  0
LINE
  8
0
 10
-26.6205
 20
24.334
 11
-26.9231
 21
24.4957
  0
LINE
  8
0
 10
-26.9231
 20
24.4957
 11
-27.1882
 21
24.7134
  0
LINE
  8
0
 10
-27.1882
 20
24.7134
 11
-27.4059
 21
24.9786
  0
LINE
  8
0
 10
-27.4059
 20
24.9786
 11
-27.5676
 21
25.2811
  0
LINE
  8
0
 10
-27.5676
 20
25.2811
 11
-27.6672
 21
25.6094
  0
LINE
  8
0
 10
-27.6672
 20
25.6094
 11
-27.7008
 21
25.9508
  0
LINE
  8
0
 10
-27.7008
 20
25.9508
 11
-27.6672
 21
26.2922
  0
LINE
  8
0
 10
-27.6672
 20
26.2922
 11
-27.5676
 21
26.6205
  0
LINE
  8
0
 10
-27.5676
 20
26.6205
 11
-27.4059
 21
26.9231
  0
LINE
  8
0
 10
-27.4059
 20
26.9231
 11
-27.1882
 21
27.1882
  0
LINE
  8
0
 10
-27.1882
 20
27.1882
 11
-26.9231
 21
27.4059
  0
LINE
  8
0
 10
-26.9231
 20
27.4059
 11
-26.6205
 21
27.5676
  0
LINE
  8
0
 10
-26.6205
 20
27.5676
 11
-26.2922
 21
27.6672
  0
LINE
  8
0
 10
-26.2922
 20
27.6672
 11
-25.9508
 21
27.7008
  0
LINE
  8
0
 10
-25.9508
 20
27.7008
 11
-25.6094
 21
27.6672
  0
LINE
  8
0
 10
-25.6094
 20
27.6672
 11
-25.2811
 21
27.5676
  0
LINE
  8
0
 10
-25.2811
 20
27.5676
 11
-24.9786
 21
27.4059
  0
LINE
  8
0
 10
-24.9786
 20
27.4059
 11
-24.7134
 21
27.1882
  0
LINE
  8
0
 10
-24.7134
 20
27.1882
 11
-24.4957
 21
26.9231
  0
LINE
  8
0
 10
-24.4957
 20
26.9231
 11
-24.334
 21
26.6205
  0
LINE
  8
0
 10
-24.334
 20
26.6205
 11
-24.2344
 21
26.2922
  0
LINE
  8
0
 10
-24.2344
 20
26.2922
 11
-24.2008
 21
25.9508
  0
LINE
  8
0
 10
-24.2008
 20
25.9508
 11
-24.2344
 21
25.6094
  0
LINE
  8
0
 10
-24.2344
 20
25.6094
 11
-24.334
 21
25.2811
  0
LINE
  8
0
 10
-24.334
 20
25.2811
 11
-24.4957
 21
24.9786
  0
LINE
  8
0
 10
-24.4957
 20
24.9786
 11
-24.7134
 21
24.7134
  0
LINE
  8
0
 10
-24.7134
 20
24.7134
 11
-24.9786
 21
24.4957
  0
LINE
  8
0
 10
-24.9786
 20
24.4957
 11
-25.2811
 21
24.334
  0
LINE
  8
0
 10
-25.2811
 20
24.334
 11
-25.6094
 21
24.2344
  0
LINE
  8
0
 10
-25.6094
 20
24.2344
 11
-25.9508
 21
24.2008
  0
LINE
  8
0
 10
-25.9508
 20
24.2008
 11
-26.2922
 21
24.2344
  0
LINE
  8
0
 10
-0.462479
 20
-26.496
 11
-0.924835
 21
-26.4839
  0
LINE
  8
0
 10
-0.924835
 20
-26.4839
 11
-1.3869
 21
-26.4637
  0
LINE
  8
0
 10
-1.3869
 20
-26.4637
 11
-1.84854
 21
-26.4354
  0
LINE
  8
0
 10
-1.84854
 20
-26.4354
 11
-2.30962
 21
-26.3992
  0
LINE
  8
0
 10
-2.30962
 20
-26.3992
 11
-2.77
 21
-26.3548
  0
LINE
  8
0
 10
-2.77
 20
-26.3548
 11
-3.22952
 21
-26.3025
  0
LINE
  8
0
 10
-3.22952
 20
-26.3025
 11
-3.68808
 21
-26.2421
  0
LINE
  8
0
 10
-3.68808
 20
-26.2421
 11
-4.14551
 21
-26.1737
  0
LINE
  8
0
 10
-4.14551
 20
-26.1737
 11
-4.60167
 21
-26.0974
  0
LINE
  8
0
 10
-4.60167
 20
-26.0974
 11
-5.05643
 21
-26.0131
  0
LINE
  8
0
 10
-5.05643
 20
-26.0131
 11
-5.50966
 21
-25.9209
  0
LINE
  8
0
 10
-5.50966
 20
-25.9209
 11
-5.9612
 21
-25.8208
  0
LINE
  8
0
 10
-5.9612
 20
-25.8208
 11
-6.41092
 21
-25.7128
  0
LINE
  8
0
 10
-6.41092
 20
-25.7128
 11
-6.8587
 21
-25.597
  0
LINE
  8
0
 10
-6.8587
 20
-25.597
 11
-7.30438
 21
-25.4734
  0
LINE
  8
0
 10
-7.30438
 20
-25.4734
 11
-7.74785
 21
-25.3421
  0
LINE
  8
0
 10
-7.74785
 20
-25.3421
 11
-8.18895
 21
-25.203
  0
LINE
  8
0
 10
-8.18895
 20
-25.203
 11
-8.62755
 21
-25.0562
  0
LINE
  8
0
 10
-8.62755
 20
-25.0562
 11
-9.06352
 21
-24.9018
  0
LINE
  8
0
 10
-9.06352
 20
-24.9018
 11
-9.49675
 21
-24.7399
  0
LINE
  8
0
 10
-9.49675
 20
-24.7399
 11
-9.92706
 21
-24.5704
  0
LINE
  8
0
 10
-9.92706
 20
-24.5704
 11
-10.3544
 21
-24.3934
  0
LINE
  8
0
 10
-10.3544
 20
-24.3934
 11
-10.7785
 21
-24.209
  0
LINE
  8
0
 10
-10.7785
 20
-24.209
 11
-11.1994
 21
-24.0172
  0
LINE
  8
0
 10
-11.1994
 20
-24.0172
 11
-11.6168
 21
-23.818
  0
LINE
  8
0
 10
-11.6168
 20
-23.818
 11
-12.0307
 21
-23.6117
  0
LINE
  8
0
 10
-12.0307
 20
-23.6117
 11
-12.441
 21
-23.3981
  0
LINE
  8
0
 10
-12.441
 20
-23.3981
 11
-12.8474
 21
-23.1774
  0
LINE
  8
0
 10
-12.8474
 20
-23.1774
 11
-13.25
 21
-22.9497
  0
LINE
  8
0
 10
-13.25
 20
-22.9497
 11
-13.6485
 21
-22.7149
  0
LINE
  8
0
 10
-13.6485
 20
-22.7149
 11
-14.0428
 21
-22.4733
  0
LINE
  8
0
 10
-14.0428
 20
-22.4733
 11
-14.4329
 21
-22.2248
  0
LINE
  8
0
 10
-14.4329
 20
-22.2248
 11
-14.8186
 21
-21.9695
  0
LINE
  8
0
 10
-14.8186
 20
-21.9695
 11
-15.1998
 21
-21.7075
  0
LINE
  8
0
 10
-15.1998
 20
-21.7075
 11
-15.5763
 21
-21.4389
  0
LINE
  8
0
 10
-15.5763
 20
-21.4389
 11
-15.9481
 21
-21.1638
  0
LINE
  8
0
 10
-15.9481
 20
-21.1638
 11
-16.315
 21
-20.8823
  0
LINE
  8
0
 10
-16.315
 20
-20.8823
 11
-16.677
 21
-20.5944
  0
LINE
  8
0
 10
-16.677
 20
-20.5944
 11
-17.0339
 21
-20.3002
  0
LINE
  8
0
 10
-17.0339
 20
-20.3002
 11
-17.3856
 21
-19.9998
  0
LINE
  8
0
 10
-17.3856
 20
-19.9998
 11
-17.7319
 21
-19.6933
  0
LINE
  8
0
 10
-17.7319
 20
-19.6933
 11
-18.073
 21
-19.3809
  0
LINE
  8
0
 10
-18.073
 20
-19.3809
 11
-18.4084
 21
-19.0625
  0
LINE
  8
0
 10
-18.4084
 20
-19.0625
 11
-18.7383
 21
-18.7383
  0
LINE
  8
0
 10
-18.7383
 20
-18.7383
 11
-19.0625
 21
-18.4084
  0
LINE
  8
0
 10
-19.0625
 20
-18.4084
 11
-19.3809
 21
-18.073
  0
LINE
  8
0
 10
-19.3809
 20
-18.073
 11
-19.6933
 21
-17.7319
  0
LINE
  8
0
 10
-19.6933
 20
-17.7319
 11
-19.9998
 21
-17.3856
  0
LINE
  8
0
 10
-19.9998
 20
-17.3856
 11
-20.3002
 21
-17.0339
  0
LINE
  8
0
 10
-20.3002
 20
-17.0339
 11
-20.5944
 21
-16.677
  0
LINE
  8
0
 10
-20.5944
 20
-16.677
 11
-20.8823
 21
-16.315
  0
LINE
  8
0
 10
-20.8823
 20
-16.315
 11
-21.1638
 21
-15.9481
  0
LINE
  8
0
 10
-21.1638
 20
-15.9481
 11
-21.4389
 21
-15.5763
  0
LINE
  8
0
 10
-21.4389
 20
-15.5763
 11
-21.7075
 21
-15.1998
  0
LINE
  8
0
 10
-21.7075
 20
-15.1998
 11
-21.9695
 21
-14.8186
  0
LINE
  8
0
 10
-21.9695
 20
-14.8186
 11
-22.2248
 21
-14.4329
  0
LINE
  8
0
 10
-22.2248
 20
-14.4329
 11
-22.4733
 21
-14.0428
  0
LINE
  8
0
 10
-22.4733
 20
-14.0428
 11
-22.7149
 21
-13.6485
  0
LINE
  8
0
 10
-22.7149
 20
-13.6485
 11
-22.9497
 21
-13.25
  0
LINE
  8
0
 10
-22.9497
 20
-13.25
 11
-23.1774
 21
-12.8474
  0
LINE
  8
0
 10
-23.1774
 20
-12.8474
 11
-23.3981
 21
-12.441
  0
LINE
  8
0
 10
-23.3981
 20
-12.441
 11
-23.6117
 21
-12.0307
  0
LINE
  8
0
 10
-23.6117
 20
-12.0307
 11
-23.818
 21
-11.6168
  0
LINE
  8
0
 10
-23.818
 20
-11.6168
 11
-24.0172
 21
-11.1994
  0
LINE
  8
0
 10
-24.0172
 20
-11.1994
 11
-24.209
 21
-10.7785
  0
LINE
  8
0
 10
-24.209
 20
-10.7785
 11
-24.3934
 21
-10.3544
  0
LINE
  8
0
 10
-24.3934
 20
-10.3544
 11
-24.5704
 21
-9.92706
  0
LINE
  8
0
 10
-24.5704
 20
-9.92706
 11
-24.7399
 21
-9.49675
  0
LINE
  8
0
 10
-24.7399
 20
-9.49675
 11
-24.9018
 21
-9.06352
  0
LINE
  8
0
 10
-24.9018
 20
-9.06352
 11
-25.0562
 21
-8.62755
  0
LINE
  8
0
 10
-25.0562
 20
-8.62755
 11
-25.203
 21
-8.18895
  0
LINE
  8
0
 10
-25.203
 20
-8.18895
 11
-25.3421
 21
-7.74785
  0
LINE
  8
0
 10
-25.3421
 20
-7.74785
 11
-25.4734
 21
-7.30438
  0
LINE
  8
0
 10
-25.4734
 20
-7.30438
 11
-25.597
 21
-6.8587
  0
LINE
  8
0
 10
-25.597
 20
-6.8587
 11
-25.7128
 21
-6.41092
  0
LINE
  8
0
 10
-25.7128
 20
-6.41092
 11
-25.8208
 21
-5.9612
  0
LINE
  8
0
 10
-25.8208
 20
-5.9612
 11
-25.9209
 21
-5.50966
  0
LINE
  8
0
 10
-25.9209
 20
-5.50966
 11
-26.0131
 21
-5.05643
  0
LINE
  8
0
 10
-26.0131
 20
-5.05643
 11
-26.0974
 21
-4.60167
  0
LINE
  8
0
 10
-26.0974
 20
-4.60167
 11
-26.1737
 21
-4.14551
  0
LINE
  8
0
 10
-26.1737
 20
-4.14551
 11
-26.2421
 21
-3.68808
  0
LINE
  8
0
 10
-26.2421
 20
-3.68808
 11
-26.3025
 21
-3.22952
  0
LINE
  8
0
 10
-26.3025
 20
-3.22952
 11
-26.3548
 21
-2.77
  0
LINE
  8
0
 10
-26.3548
 20
-2.77
 11
-26.3992
 21
-2.30962
  0
LINE
  8
0
 10
-26.3992
 20
-2.30962
 11
-26.4354
 21
-1.84854
  0
LINE
  8
0
 10
-26.4354
 20
-1.84854
 11
-26.4637
 21
-1.3869
  0
LINE
  8
0
 10
-26.4637
 20
-1.3869
 11
-26.4839
 21
-0.924835
  0
LINE
  8
0
 10
-26.4839
 20
-0.924835
 11
-26.496
 21
-0.462479
  0
LINE
  8
0
 10
-26.496
 20
-0.462479
 11
-26.5
 21
0
  0
LINE
  8
0
 10
-26.5
 20
0
 11
-26.496
 21
0.462479
  0
LINE
  8
0
 10
-26.496
 20
0.462479
 11
-26.4839
 21
0.924835
  0
LINE
  8
0
 10
-26.4839
 20
0.924835
 11
-26.4637
 21
1.3869
  0
LINE
  8
0
 10
-26.4637
 20
1.3869
 11
-26.4354
 21
1.84854
  0
LINE
  8
0
 10
-26.4354
 20
1.84854
 11
-26.3992
 21
2.30962
  0
LINE
  8
0
 10
-26.3992
 20
2.30962
 11
-26.3548
 21
2.77
  0
LINE
  8
0
 10
-26.3548
 20
2.77
 11
-26.3025
 21
3.22952
  0
LINE
  8
0
 10
-26.3025
 20
3.22952
 11
-26.2421
 21
3.68808
  0
LINE
  8
0
 10
-26.2421
 20
3.68808
 11
-26.1737
 21
4.14551
  0
LINE
  8
0
 10
-26.1737
 20
4.14551
 11
-26.0974
 21
4.60167
  0
LINE
  8
0
 10
-26.0974
 20
4.60167
 11
-26.0131
 21
5.05643
  0
LINE
  8
0
 10
-26.0131
 20
5.05643
 11
-25.9209
 21
5.50966
  0
LINE
  8
0
 10
-25.9209
 20
5.50966
 11
-25.8208
 21
5.9612
  0
LINE
  8
0
 10
-25.8208
 20
5.9612
 11
-25.7128
 21
6.41092
  0
LINE
  8
0
 10
-25.7128
 20
6.41092
 11
-25.597
 21
6.8587
  0
LINE
  8
0
 10
-25.597
 20
6.8587
 11
-25.4734
 21
7.30438
  0
LINE
  8
0
 10
-25.4734
 20
7.30438
 11
-25.3421
 21
7.74785
  0
LINE
  8
0
 10
-25.3421
 20
7.74785
 11
-25.203
 21
8.18895
  0
LINE
  8
0
 10
-25.203
 20
8.18895
 11
-25.0562
 21
8.62755
  0
LINE
  8
0
 10
-25.0562
 20
8.62755
 11
-24.9018
 21
9.06352
  0
LINE
  8
0
 10
-24.9018
 20
9.06352
 11
-24.7399
 21
9.49675
  0
LINE
  8
0
 10
-24.7399
 20
9.49675
 11
-24.5704
 21
9.92706
  0
LINE
  8
0
 10
-24.5704
 20
9.92706
 11
-24.3934
 21
10.3544
  0
LINE
  8
0
 10
-24.3934
 20
10.3544
 11
-24.209
 21
10.7785
  0
LINE
  8
0
 10
-24.209
 20
10.7785
 11
-24.0172
 21
11.1994
  0
LINE
  8
0
 10
-24.0172
 20
11.1994
 11
-23.818
 21
11.6168
  0
LINE
  8
0
 10
-23.818
 20
11.6168
 11
-23.6117
 21
12.0307
  0
LINE
  8
0
 10
-23.6117
 20
12.0307
 11
-23.3981
 21
12.441
  0
LINE
  8
0
 10
-23.3981
 20
12.441
 11
-23.1774
 21
12.8474
  0
LINE
  8
0
 10
-23.1774
 20
12.8474
 11
-22.9497
 21
13.25
  0
LINE
  8
0
 10
-22.9497
 20
13.25
 11
-22.7149
 21
13.6485
  0
LINE
  8
0
 10
-22.7149
 20
13.6485
 11
-22.4733
 21
14.0428
  0
LINE
  8
0
 10
-22.4733
 20
14.0428
 11
-22.2248
 21
14.4329
  0
LINE
  8
0
 10
-22.2248
 20
14.4329
 11
-21.9695
 21
14.8186
  0
LINE
  8
0
 10
-21.9695
 20
14.8186
 11
-21.7075
 21
15.1998
  0
LINE
  8
0
 10
-21.7075
 20
15.1998
 11
-21.4389
 21
15.5763
  0
LINE
  8
0
 10
-21.4389
 20
15.5763
 11
-21.1638
 21
15.9481
  0
LINE
  8
0
 10
-21.1638
 20
15.9481
 11
-20.8823
 21
16.315
  0
LINE
  8
0
 10
-20.8823
 20
16.315
 11
-20.5944
 21
16.677
  0
LINE
  8
0
 10
-20.5944
 20
16.677
 11
-20.3002
 21
17.0339
  0
LINE
  8
0
 10
-20.3002
 20
17.0339
 11
-19.9998
 21
17.3856
  0
LINE
  8
0
 10
-19.9998
 20
17.3856
 11
-19.6933
 21
17.7319
  0
LINE
  8
0
 10
-19.6933
 20
17.7319
 11
-19.3809
 21
18.073
  0
LINE
  8
0
 10
-19.3809
 20
18.073
 11
-19.0625
 21
18.4084
  0
LINE
  8
0
 10
-19.0625
 20
18.4084
 11
-18.7383
 21
18.7383
  0
LINE
  8
0
 10
-18.7383
 20
18.7383
 11
-18.4084
 21
19.0625
  0
LINE
  8
0
 10
-18.4084
 20
19.0625
 11
-18.073
 21
19.3809
  0
LINE
  8
0
 10
-18.073
 20
19.3809
 11
-17.7319
 21
19.6933
  0
LINE
  8
0
 10
-17.7319
 20
19.6933
 11
-17.3856
 21
19.9998
  0
LINE
  8
0
 10
-17.3856
 20
19.9998
 11
-17.0339
 21
20.3002
  0
LINE
  8
0
 10
-17.0339
 20
20.3002
 11
-16.677
 21
20.5944
  0
LINE
  8
0
 10
-16.677
 20
20.5944
 11
-16.315
 21
20.8823
  0
LINE
  8
0
 10
-16.315
 20
20.8823
 11
-15.9481
 21
21.1638
  0
LINE
  8
0
 10
-15.9481
 20
21.1638
 11
-15.5763
 21
21.4389
  0
LINE
  8
0
 10
-15.5763
 20
21.4389
 11
-15.1998
 21
21.7075
  0
LINE
  8
0
 10
-15.1998
 20
21.7075
 11
-14.8186
 21
21.9695
  0
LINE
  8
0
 10
-14.8186
 20
21.9695
 11
-14.4329
 21
22.2248
  0
LINE
  8
0
 10
-14.4329
 20
22.2248
 11
-14.0428
 21
22.4733
  0
LINE
  8
0
 10
-14.0428
 20
22.4733
 11
-13.6485
 21
22.7149
  0
LINE
  8
0
 10
-13.6485
 20
22.7149
 11
-13.25
 21
22.9497
  0
LINE
  8
0
 10
-13.25
 20
22.9497
 11
-12.8474
 21
23.1774
  0
LINE
  8
0
 10
-12.8474
 20
23.1774
 11
-12.441
 21
23.3981
  0
LINE
  8
0
 10
-12.441
 20
23.3981
 11
-12.0307
 21
23.6117
  0
LINE
  8
0
 10
-12.0307
 20
23.6117
 11
-11.6168
 21
23.818
  0
LINE
  8
0
 10
-11.6168
 20
23.818
 11
-11.1994
 21
24.0172
  0
LINE
  8
0
 10
-11.1994
 20
24.0172
 11
-10.7785
 21
24.209
  0
LINE
  8
0
 10
-10.7785
 20
24.209
 11
-10.3544
 21
24.3934
  0
LINE
  8
0
 10
-10.3544
 20
24.3934
 11
-9.92706
 21
24.5704
  0
LINE
  8
0
 10
-9.92706
 20
24.5704
 11
-9.49675
 21
24.7399
  0
LINE
  8
0
 10
-9.49675
 20
24.7399
 11
-9.06352
 21
24.9018
  0
LINE
  8
0
 10
-9.06352
 20
24.9018
 11
-8.62755
 21
25.0562
  0
LINE
  8
0
 10
-8.62755
 20
25.0562
 11
-8.18895
 21
25.203
  0
LINE
  8
0
 10
-8.18895
 20
25.203
 11
-7.74785
 21
25.3421
  0
LINE
  8
0
 10
-7.74785
 20
25.3421
 11
-7.30438
 21
25.4734
  0
LINE
  8
0
 10
-7.30438
 20
25.4734
 11
-6.8587
 21
25.597
  0
LINE
  8
0
 10
-6.8587
 20
25.597
 11
-6.41092
 21
25.7128
  0
LINE
  8
0
 10
-6.41092
 20
25.7128
 11
-5.9612
 21
25.8208
  0
LINE
  8
0
 10
-5.9612
 20
25.8208
 11
-5.50966
 21
25.9209
  0
LINE
  8
0
 10
-5.50966
 20
25.9209
 11
-5.05643
 21
26.0131
  0
LINE
  8
0
 10
-5.05643
 20
26.0131
 11
-4.60167
 21
26.0974
  0
LINE
  8
0
 10
-4.60167
 20
26.0974
 11
-4.14551
 21
26.1737
  0
LINE
  8
0
 10
-4.14551
 20
26.1737
 11
-3.68808
 21
26.2421
  0
LINE
  8
0
 10
-3.68808
 20
26.2421
 11
-3.22952
 21
26.3025
  0
LINE
  8
0
 10
-3.22952
 20
26.3025
 11
-2.77
 21
26.3548
  0
LINE
  8
0
 10
-2.77
 20
26.3548
 11
-2.30962
 21
26.3992
  0
LINE
  8
0
 10
-2.30962
 20
26.3992
 11
-1.84854
 21
26.4354
  0
LINE
  8
0
 10
-1.84854
 20
26.4354
 11
-1.3869
 21
26.4637
  0
LINE
  8
0
 10
-1.3869
 20
26.4637
 11
-0.924835
 21
26.4839
  0
LINE
  8
0
 10
-0.924835
 20
26.4839
 11
-0.462479
 21
26.496
  0
LINE
  8
0
 10
-0.462479
 20
26.496
 11
0
 21
26.5
  0
LINE
  8
0
 10
0
 20
26.5
 11
0.462479
 21
26.496
  0
LINE
  8
0
 10
0.462479
 20
26.496
 11
0.924835
 21
26.4839
  0
LINE
  8
0
 10
0.924835
 20
26.4839
 11
1.3869
 21
26.4637
  0
LINE
  8
0
 10
1.3869
 20
26.4637
 11
1.84854
 21
26.4354
  0
LINE
  8
0
 10
1.84854
 20
26.4354
 11
2.30962
 21
26.3992
  0
LINE
  8
0
 10
2.30962
 20
26.3992
 11
2.77
 21
26.3548
  0
LINE
  8
0
 10
2.77
 20
26.3548
 11
3.22952
 21
26.3025
  0
LINE
  8
0
 10
3.22952
 20
26.3025
 11
3.68808
 21
26.2421
  0
LINE
  8
0
 10
3.68808
 20
26.2421
 11
4.14551
 21
26.1737
  0
LINE
  8
0
 10
4.14551
 20
26.1737
 11
4.60167
 21
26.0974
  0
LINE
  8
0
 10
4.60167
 20
26.0974
 11
5.05643
 21
26.0131
  0
LINE
  8
0
 10
5.05643
 20
26.0131
 11
5.50966
 21
25.9209
  0
LINE
  8
0
 10
5.50966
 20
25.9209
 11
5.9612
 21
25.8208
  0
LINE
  8
0
 10
5.9612
 20
25.8208
 11
6.41092
 21
25.7128
  0
LINE
  8
0
 10
6.41092
 20
25.7128
 11
6.8587
 21
25.597
  0
LINE
  8
0
 10
6.8587
 20
25.597
 11
7.30438
 21
25.4734
  0
LINE
  8
0
 10
7.30438
 20
25.4734
 11
7.74785
 21
25.3421
  0
LINE
  8
0
 10
7.74785
 20
25.3421
 11
8.18895
 21
25.203
  0
LINE
  8
0
 10
8.18895
 20
25.203
 11
8.62755
 21
25.0562
  0
LINE
  8
0
 10
8.62755
 20
25.0562
 11
9.06352
 21
24.9018
  0
LINE
  8
0
 10
9.06352
 20
24.9018
 11
9.49675
 21
24.7399
  0
LINE
  8
0
 10
9.49675
 20
24.7399
 11
9.92706
 21
24.5704
  0
LINE
  8
0
 10
9.92706
 20
24.5704
 11
10.3544
 21
24.3934
  0
LINE
  8
0
 10
10.3544
 20
24.3934
 11
10.7785
 21
24.209
  0
LINE
  8
0
 10
10.7785
 20
24.209
 11
11.1994
 21
24.0172
  0
LINE
  8
0
 10
11.1994
 20
24.0172
 11
11.6168
 21
23.818
  0
LINE
  8
0
 10
11.6168
 20
23.818
 11
12.0307
 21
23.6117
  0
LINE
  8
0
 10
12.0307
 20
23.6117
 11
12.441
 21
23.3981
  0
LINE
  8
0
 10
12.441
 20
23.3981
 11
12.8474
 21
23.1774
  0
LINE
  8
0
 10
12.8474
 20
23.1774
 11
13.25
 21
22.9497
  0
LINE
  8
0
 10
13.25
 20
22.9497
 11
13.6485
 21
22.7149
  0
LINE
  8
0
 10
13.6485
 20
22.7149
 11
14.0428
 21
22.4733
  0
LINE
  8
0
 10
14.0428
 20
22.4733
 11
14.4329
 21
22.2248
  0
LINE
  8
0
 10
14.4329
 20
22.2248
 11
14.8186
 21
21.9695
  0
LINE
  8
0
 10
14.8186
 20
21.9695
 11
15.1998
 21
21.7075
  0
LINE
  8
0
 10
15.1998
 20
21.7075
 11
15.5763
 21
21.4389
  0
LINE
  8
0
 10
15.5763
 20
21.4389
 11
15.9481
 21
21.1638
  0
LINE
  8
0
 10
15.9481
 20
21.1638
 11
16.315
 21
20.8823
  0
LINE
  8
0
 10
16.315
 20
20.8823
 11
16.677
 21
20.5944
  0
LINE
  8
0
 10
16.677
 20
20.5944
 11
17.0339
 21
20.3002
  0
LINE
  8
0
 10
17.0339
 20
20.3002
 11
17.3856
 21
19.9998
  0
LINE
  8
0
 10
17.3856
 20
19.9998
 11
17.7319
 21
19.6933
  0
LINE
  8
0
 10
17.7319
 20
19.6933
 11
18.073
 21
19.3809
  0
LINE
  8
0
 10
18.073
 20
19.3809
 11
18.4084
 21
19.0625
  0
LINE
  8
0
 10
18.4084
 20
19.0625
 11
18.7383
 21
18.7383
  0
LINE
  8
0
 10
18.7383
 20
18.7383
 11
19.0625
 21
18.4084
  0
LINE
  8
0
 10
19.0625
 20
18.4084
 11
19.3809
 21
18.073
  0
LINE
  8
0
 10
19.3809
 20
18.073
 11
19.6933
 21
17.7319
  0
LINE
  8
0
 10
19.6933
 20
17.7319
 11
19.9998
 21
17.3856
  0
LINE
  8
0
 10
19.9998
 20
17.3856
 11
20.3002
 21
17.0339
  0
LINE
  8
0
 10
20.3002
 20
17.0339
 11
20.5944
 21
16.677
  0
LINE
  8
0
 10
20.5944
 20
16.677
 11
20.8823
 21
16.315
  0
LINE
  8
0
 10
20.8823
 20
16.315
 11
21.1638
 21
15.9481
  0
LINE
  8
0
 10
21.1638
 20
15.9481
 11
21.4389
 21
15.5763
  0
LINE
  8
0
 10
21.4389
 20
15.5763
 11
21.7075
 21
15.1998
  0
LINE
  8
0
 10
21.7075
 20
15.1998
 11
21.9695
 21
14.8186
  0
LINE
  8
0
 10
21.9695
 20
14.8186
 11
22.2248
 21
14.4329
  0
LINE
  8
0
 10
22.2248
 20
14.4329
 11
22.4733
 21
14.0428
  0
LINE
  8
0
 10
22.4733
 20
14.0428
 11
22.7149
 21
13.6485
  0
LINE
  8
0
 10
22.7149
 20
13.6485
 11
22.9497
 21
13.25
  0
LINE
  8
0
 10
22.9497
 20
13.25
 11
23.1774
 21
12.8474
  0
LINE
  8
0
 10
23.1774
 20
12.8474
 11
23.3981
 21
12.441
  0
LINE
  8
0
 10
23.3981
 20
12.441
 11
23.6117
 21
12.0307
  0
LINE
  8
0
 10
23.6117
 20
12.0307
 11
23.818
 21
11.6168
  0
LINE
  8
0
 10
23.818
 20
11.6168
 11
24.0172
 21
11.1994
  0
LINE
  8
0
 10
24.0172
 20
11.1994
 11
24.209
 21
10.7785
  0
LINE
  8
0
 10
24.209
 20
10.7785
 11
24.3934
 21
10.3544
  0
LINE
  8
0
 10
24.3934
 20
10.3544
 11
24.5704
 21
9.92706
  0
LINE
  8
0
 10
24.5704
 20
9.92706
 11
24.7399
 21
9.49675
  0
LINE
  8
0
 10
24.7399
 20
9.49675
 11
24.9018
 21
9.06352
  0
LINE
  8
0
 10
24.9018
 20
9.06352
 11
25.0562
 21
8.62755
  0
LINE
  8
0
 10
25.0562
 20
8.62755
 11
25.203
 21
8.18895
  0
LINE
  8
0
 10
25.203
 20
8.18895
 11
25.3421
 21
7.74785
  0
LINE
  8
0
 10
25.3421
 20
7.74785
 11
25.4734
 21
7.30438
  0
LINE
  8
0
 10
25.4734
 20
7.30438
 11
25.597
 21
6.8587
  0
LINE
  8
0
 10
25.597
 20
6.8587
 11
25.7128
 21
6.41092
  0
LINE
  8
0
 10
25.7128
 20
6.41092
 11
25.8208
 21
5.9612
  0
LINE
  8
0
 10
25.8208
 20
5.9612
 11
25.9209
 21
5.50966
  0
LINE
  8
0
 10
25.9209
 20
5.50966
 11
26.0131
 21
5.05643
  0
LINE
  8
0
 10
26.0131
 20
5.05643
 11
26.0974
 21
4.60167
  0
LINE
  8
0
 10
26.0974
 20
4.60167
 11
26.1737
 21
4.14551
  0
LINE
  8
0
 10
26.1737
 20
4.14551
 11
26.2421
 21
3.68808
  0
LINE
  8
0
 10
26.2421
 20
3.68808
 11
26.3025
 21
3.22952
  0
LINE
  8
0
 10
26.3025
 20
3.22952
 11
26.3548
 21
2.77
  0
LINE
  8
0
 10
26.3548
 20
2.77
 11
26.3992
 21
2.30962
  0
LINE
  8
0
 10
26.3992
 20
2.30962
 11
26.4354
 21
1.84854
  0
LINE
  8
0
 10
26.4354
 20
1.84854
 11
26.4637
 21
1.3869
  0
LINE
  8
0
 10
26.4637
 20
1.3869
 11
26.4839
 21
0.924835
  0
LINE
  8
0
 10
26.4839
 20
0.924835
 11
26.496
 21
0.462479
  0
LINE
  8
0
 10
26.496
 20
0.462479
 11
26.5
 21
0
  0
LINE
  8
0
 10
26.5
 20
0
 11
26.496
 21
-0.462479
  0
LINE
  8
0
 10
26.496
 20
-0.462479
 11
26.4839
 21
-0.924835
  0
LINE
  8
0
 10
26.4839
 20
-0.924835
 11
26.4637
 21
-1.3869
  0
LINE
  8
0
 10
26.4637
 20
-1.3869
 11
26.4354
 21
-1.84854
  0
LINE
  8
0
 10
26.4354
 20
-1.84854
 11
26.3992
 21
-2.30962
  0
LINE
  8
0
 10
26.3992
 20
-2.30962
 11
26.3548
 21
-2.77
  0
LINE
  8
0
 10
26.3548
 20
-2.77
 11
26.3025
 21
-3.22952
  0
LINE
  8
0
 10
26.3025
 20
-3.22952
 11
26.2421
 21
-3.68808
  0
LINE
  8
0
 10
26.2421
 20
-3.68808
 11
26.1737
 21
-4.14551
  0
LINE
  8
0
 10
26.1737
 20
-4.14551
 11
26.0974
 21
-4.60167
  0
LINE
  8
0
 10
26.0974
 20
-4.60167
 11
26.0131
 21
-5.05643
  0
LINE
  8
0
 10
26.0131
 20
-5.05643
 11
25.9209
 21
-5.50966
  0
LINE
  8
0
 10
25.9209
 20
-5.50966
 11
25.8208
 21
-5.9612
  0
LINE
  8
0
 10
25.8208
 20
-5.9612
 11
25.7128
 21
-6.41092
  0
LINE
  8
0
 10
25.7128
 20
-6.41092
 11
25.597
 21
-6.8587
  0
LINE
  8
0
 10
25.597
 20
-6.8587
 11
25.4734
 21
-7.30438
  0
LINE
  8
0
 10
25.4734
 20
-7.30438
 11
25.3421
 21
-7.74785
  0
LINE
  8
0
 10
25.3421
 20
-7.74785
 11
25.203
 21
-8.18895
  0
LINE
  8
0
 10
25.203
 20
-8.18895
 11
25.0562
 21
-8.62755
  0
LINE
  8
0
 10
25.0562
 20
-8.62755
 11
24.9018
 21
-9.06352
  0
LINE
  8
0
 10
24.9018
 20
-9.06352
 11
24.7399
 21
-9.49675
  0
LINE
  8
0
 10
24.7399
 20
-9.49675
 11
24.5704
 21
-9.92706
  0
LINE
  8
0
 10
24.5704
 20
-9.92706
 11
24.3934
 21
-10.3544
  0
LINE
  8
0
 10
24.3934
 20
-10.3544
 11
24.209
 21
-10.7785
  0
LINE
  8
0
 10
24.209
 20
-10.7785
 11
24.0172
 21
-11.1994
  0
LINE
  8
0
 10
24.0172
 20
-11.1994
 11
23.818
 21
-11.6168
  0
LINE
  8
0
 10
23.818
 20
-11.6168
 11
23.6117
 21
-12.0307
  0
LINE
  8
0
 10
23.6117
 20
-12.0307
 11
23.3981
 21
-12.441
  0
LINE
  8
0
 10
23.3981
 20
-12.441
 11
23.1774
 21
-12.8474
  0
LINE
  8
0
 10
23.1774
 20
-12.8474
 11
22.9497
 21
-13.25
  0
LINE
  8
0
 10
22.9497
 20
-13.25
 11
22.7149
 21
-13.6485
  0
LINE
  8
0
 10
22.7149
 20
-13.6485
 11
22.4733
 21
-14.0428
  0
LINE
  8
0
 10
22.4733
 20
-14.0428
 11
22.2248
 21
-14.4329
  0
LINE
  8
0
 10
22.2248
 20
-14.4329
 11
21.9695
 21
-14.8186
  0
LINE
  8
0
 10
21.9695
 20
-14.8186
 11
21.7075
 21
-15.1998
  0
LINE
  8
0
 10
21.7075
 20
-15.1998
 11
21.4389
 21
-15.5763
  0
LINE
  8
0
 10
21.4389
 20
-15.5763
 11
21.1638
 21
-15.9481
  0
LINE
  8
0
 10
21.1638
 20
-15.9481
 11
20.8823
 21
-16.315
  0
LINE
  8
0
 10
20.8823
 20
-16.315
 11
20.5944
 21
-16.677
  0
LINE
  8
0
 10
20.5944
 20
-16.677
 11
20.3002
 21
-17.0339
  0
LINE
  8
0
 10
20.3002
 20
-17.0339
 11
19.9998
 21
-17.3856
  0
LINE
  8
0
 10
19.9998
 20
-17.3856
 11
19.6933
 21
-17.7319
  0
LINE
  8
0
 10
19.6933
 20
-17.7319
 11
19.3809
 21
-18.073
  0
LINE
  8
0
 10
19.3809
 20
-18.073
 11
19.0625
 21
-18.4084
  0
LINE
  8
0
 10
19.0625
 20
-18.4084
 11
18.7383
 21
-18.7383
  0
LINE
  8
0
 10
18.7383
 20
-18.7383
 11
18.4084
 21
-19.0625
  0
LINE
  8
0
 10
18.4084
 20
-19.0625
 11
18.073
 21
-19.3809
  0
LINE
  8
0
 10
18.073
 20
-19.3809
 11
17.7319
 21
-19.6933
  0
LINE
  8
0
 10
17.7319
 20
-19.6933
 11
17.3856
 21
-19.9998
  0
LINE
  8
0
 10
17.3856
 20
-19.9998
 11
17.0339
 21
-20.3002
  0
LINE
  8
0
 10
17.0339
 20
-20.3002
 11
16.677
 21
-20.5944
  0
LINE
  8
0
 10
16.677
 20
-20.5944
 11
16.315
 21
-20.8823
  0
LINE
  8
0
 10
16.315
 20
-20.8823
 11
15.9481
 21
-21.1638
  0
LINE
  8
0
 10
15.9481
 20
-21.1638
 11
15.5763
 21
-21.4389
  0
LINE
  8
0
 10
15.5763
 20
-21.4389
 11
15.1998
 21
-21.7075
  0
LINE
  8
0
 10
15.1998
 20
-21.7075
 11
14.8186
 21
-21.9695
  0
LINE
  8
0
 10
14.8186
 20
-21.9695
 11
14.4329
 21
-22.2248
  0
LINE
  8
0
 10
14.4329
 20
-22.2248
 11
14.0428
 21
-22.4733
  0
LINE
  8
0
 10
14.0428
 20
-22.4733
 11
13.6485
 21
-22.7149
  0
LINE
  8
0
 10
13.6485
 20
-22.7149
 11
13.25
 21
-22.9497
  0
LINE
  8
0
 10
13.25
 20
-22.9497
 11
12.8474
 21
-23.1774
  0
LINE
  8
0
 10
12.8474
 20
-23.1774
 11
12.441
 21
-23.3981
  0
LINE
  8
0
 10
12.441
 20
-23.3981
 11
12.0307
 21
-23.6117
  0
LINE
  8
0
 10
12.0307
 20
-23.6117
 11
11.6168
 21
-23.818
  0
LINE
  8
0
 10
11.6168
 20
-23.818
 11
11.1994
 21
-24.0172
  0
LINE
  8
0
 10
11.1994
 20
-24.0172
 11
10.7785
 21
-24.209
  0
LINE
  8
0
 10
10.7785
 20
-24.209
 11
10.3544
 21
-24.3934
  0
LINE
  8
0
 10
10.3544
 20
-24.3934
 11
9.92706
 21
-24.5704
  0
LINE
  8
0
 10
9.92706
 20
-24.5704
 11
9.49675
 21
-24.7399
  0
LINE
  8
0
 10
9.49675
 20
-24.7399
 11
9.06352
 21
-24.9018
  0
LINE
  8
0
 10
9.06352
 20
-24.9018
 11
8.62755
 21
-25.0562
  0
LINE
  8
0
 10
8.62755
 20
-25.0562
 11
8.18895
 21
-25.203
  0
LINE
  8
0
 10
8.18895
 20
-25.203
 11
7.74785
 21
-25.3421
  0
LINE
  8
0
 10
7.74785
 20
-25.3421
 11
7.30438
 21
-25.4734
  0
LINE
  8
0
 10
7.30438
 20
-25.4734
 11
6.8587
 21
-25.597
  0
LINE
  8
0
 10
6.8587
 20
-25.597
 11
6.41092
 21
-25.7128
  0
LINE
  8
0
 10
6.41092
 20
-25.7128
 11
5.9612
 21
-25.8208
  0
LINE
  8
0
 10
5.9612
 20
-25.8208
 11
5.50966
 21
-25.9209
  0
LINE
  8
0
 10
5.50966
 20
-25.9209
 11
5.05643
 21
-26.0131
  0
LINE
  8
0
 10
5.05643
 20
-26.0131
 11
4.60167
 21
-26.0974
  0
LINE
  8
0
 10
4.60167
 20
-26.0974
 11
4.14551
 21
-26.1737
  0
LINE
  8
0
 10
4.14551
 20
-26.1737
 11
3.68808
 21
-26.2421
  0
LINE
  8
0
 10
3.68808
 20
-26.2421
 11
3.22952
 21
-26.3025
  0
LINE
  8
0
 10
3.22952
 20
-26.3025
 11
2.77
 21
-26.3548
  0
LINE
  8
0
 10
2.77
 20
-26.3548
 11
2.30962
 21
-26.3992
  0
LINE
  8
0
 10
2.30962
 20
-26.3992
 11
1.84854
 21
-26.4354
  0
LINE
  8
0
 10
1.84854
 20
-26.4354
 11
1.3869
 21
-26.4637
  0
LINE
  8
0
 10
1.3869
 20
-26.4637
 11
0.924835
 21
-26.4839
  0
LINE
  8
0
 10
0.924835
 20
-26.4839
 11
0.462479
 21
-26.496
  0
LINE
  8
0
 10
0.462479
 20
-26.496
 11
0
 21
-26.5
  0
LINE
  8
0
 10
0
 20
-26.5
 11
-0.462479
 21
-26.496
  0
LINE
  8
0
 10
79.0946
 20
-3.92313
 11
78.3443
 21
-3.69551
  0
LINE
  8
0
 10
78.3443
 20
-3.69551
 11
77.6527
 21
-3.32587
  0
LINE
  8
0
 10
77.6527
 20
-3.32587
 11
77.0466
 21
-2.82841
  0
LINE
  8
0
 10
77.0466
 20
-2.82841
 11
76.5491
 21
-2.22227
  0
LINE
  8
0
 10
76.5491
 20
-2.22227
 11
76.1795
 21
-1.53073
  0
LINE
  8
0
 10
76.1795
 20
-1.53073
 11
75.9519
 21
-0.78035
  0
LINE
  8
0
 10
75.9519
 20
-0.78035
 11
75.875
 21
0
  0
LINE
  8
0
 10
75.875
 20
0
 11
75.9519
 21
0.78035
  0
LINE
  8
0
 10
75.9519
 20
0.78035
 11
76.1795
 21
1.53073
  0
LINE
  8
0
 10
76.1795
 20
1.53073
 11
76.5491
 21
2.22227
  0
LINE
  8
0
 10
76.5491
 20
2.22227
 11
77.0466
 21
2.82841
  0
LINE
  8
0
 10
77.0466
 20
2.82841
 11
77.6527
 21
3.32587
  0
LINE
  8
0
 10
77.6527
 20
3.32587
 11
78.3443
 21
3.69551
  0
LINE
  8
0
 10
78.3443
 20
3.69551
 11
79.0946
 21
3.92313
  0
LINE
  8
0
 10
79.0946
 20
3.92313
 11
79.875
 21
4
  0
LINE
  8
0
 10
79.875
 20
4
 11
80.6553
 21
3.92313
  0
LINE
  8
0
 10
80.6553
 20
3.92313
 11
81.4057
 21
3.69551
  0
LINE
  8
0
 10
81.4057
 20
3.69551
 11
82.0973
 21
3.32587
  0
LINE
  8
0
 10
82.0973
 20
3.32587
 11
82.7034
 21
2.82841
  0
LINE
  8
0
 10
82.7034
 20
2.82841
 11
83.2009
 21
2.22227
  0
LINE
  8
0
 10
83.2009
 20
2.22227
 11
83.5705
 21
1.53073
  0
LINE
  8
0
 10
83.5705
 20
1.53073
 11
83.7981
 21
0.78035
  0
LINE
  8
0
 10
83.7981
 20
0.78035
 11
83.875
 21
0
  0
LINE
  8
0
 10
83.875
 20
0
 11
83.7981
 21
-0.78035
  0
LINE
  8
0
 10
83.7981
 20
-0.78035
 11
83.5705
 21
-1.53073
  0
LINE
  8
0
 10
83.5705
 20
-1.53073
 11
83.2009
 21
-2.22227
  0
LINE
  8
0
 10
83.2009
 20
-2.22227
 11
82.7034
 21
-2.82841
  0
LINE
  8
0
 10
82.7034
 20
-2.82841
 11
82.0973
 21
-3.32587
  0
LINE
  8
0
 10
82.0973
 20
-3.32587
 11
81.4057
 21
-3.69551
  0
LINE
  8
0
 10
81.4057
 20
-3.69551
 11
80.6553
 21
-3.92313
  0
LINE
  8
0
 10
80.6553
 20
-3.92313
 11
79.875
 21
-4
  0
LINE
  8
0
 10
79.875
 20
-4
 11
79.0946
 21
-3.92313
  0
LINE
  8
0
 10
-80.6553
 20
-3.92313
 11
-81.4057
 21
-3.69551
  0
LINE
  8
0
 10
-81.4057
 20
-3.69551
 11
-82.0973
 21
-3.32587
  0
LINE
  8
0
 10
-82.0973
 20
-3.32587
 11
-82.7034
 21
-2.82841
  0
LINE
  8
0
 10
-82.7034
 20
-2.82841
 11
-83.2009
 21
-2.22227
  0
LINE
  8
0
 10
-83.2009
 20
-2.22227
 11
-83.5705
 21
-1.53073
  0
LINE
  8
0
 10
-83.5705
 20
-1.53073
 11
-83.7981
 21
-0.78035
  0
LINE
  8
0
 10
-83.7981
 20
-0.78035
 11
-83.875
 21
0
  0
LINE
  8
0
 10
-83.875
 20
0
 11
-83.7981
 21
0.78035
  0
LINE
  8
0
 10
-83.7981
 20
0.78035
 11
-83.5705
 21
1.53073
  0
LINE
  8
0
 10
-83.5705
 20
1.53073
 11
-83.2009
 21
2.22227
  0
LINE
  8
0
 10
-83.2009
 20
2.22227
 11
-82.7034
 21
2.82841
  0
LINE
  8
0
 10
-82.7034
 20
2.82841
 11
-82.0973
 21
3.32587
  0
LINE
  8
0
 10
-82.0973
 20
3.32587
 11
-81.4057
 21
3.69551
  0
LINE
  8
0
 10
-81.4057
 20
3.69551
 11
-80.6553
 21
3.92313
  0
LINE
  8
0
 10
-80.6553
 20
3.92313
 11
-79.875
 21
4
  0
LINE
  8
0
 10
-79.875
 20
4
 11
-79.0946
 21
3.92313
  0
LINE
  8
0
 10
-79.0946
 20
3.92313
 11
-78.3443
 21
3.69551
  0
LINE
  8
0
 10
-78.3443
 20
3.69551
 11
-77.6527
 21
3.32587
  0
LINE
  8
0
 10
-77.6527
 20
3.32587
 11
-77.0466
 21
2.82841
  0
LINE
  8
0
 10
-77.0466
 20
2.82841
 11
-76.5491
 21
2.22227
  0
LINE
  8
0
 10
-76.5491
 20
2.22227
 11
-76.1795
 21
1.53073
  0
LINE
  8
0
 10
-76.1795
 20
1.53073
 11
-75.9519
 21
0.78035
  0
LINE
  8
0
 10
-75.9519
 20
0.78035
 11
-75.875
 21
0
  0
LINE
  8
0
 10
-75.875
 20
0
 11
-75.9519
 21
-0.78035
  0
LINE
  8
0
 10
-75.9519
 20
-0.78035
 11
-76.1795
 21
-1.53073
  0
LINE
  8
0
 10
-76.1795
 20
-1.53073
 11
-76.5491
 21
-2.22227
  0
LINE
  8
0
 10
-76.5491
 20
-2.22227
 11
-77.0466
 21
-2.82841
  0
LINE
  8
0
 10
-77.0466
 20
-2.82841
 11
-77.6527
 21
-3.32587
  0
LINE
  8
0
 10
-77.6527
 20
-3.32587
 11
-78.3443
 21
-3.69551
  0
LINE
  8
0
 10
-78.3443
 20
-3.69551
 11
-79.0946
 21
-3.92313
  0
LINE
  8
0
 10
-79.0946
 20
-3.92313
 11
-79.875
 21
-4
  0
LINE
  8
0
 10
-79.875
 20
-4
 11
-80.6553
 21
-3.92313
  0
LINE
  8
0
 10
-37.0414
 20
-1.71637
 11
-37.3697
 21
-1.61678
  0
LINE
  8
0
 10
-37.3697
 20
-1.61678
 11
-37.6722
 21
-1.45506
  0
LINE
  8
0
 10
-37.6722
 20
-1.45506
 11
-37.9374
 21
-1.23743
  0
LINE
  8
0
 10
-37.9374
 20
-1.23743
 11
-38.1551
 21
-0.972244
  0
LINE
  8
0
 10
-38.1551
 20
-0.972244
 11
-38.3168
 21
-0.669693
  0
LINE
  8
0
 10
-38.3168
 20
-0.669693
 11
-38.4164
 21
-0.3414
  0
LINE
  8
0
 10
-38.4164
 20
-0.3414
 11
-38.45
 21
0
  0
LINE
  8
0
 10
-38.45
 20
0
 11
-38.4164
 21
0.3414
  0
LINE
  8
0
 10
-38.4164
 20
0.3414
 11
-38.3168
 21
0.669693
  0
LINE
  8
0
 10
-38.3168
 20
0.669693
 11
-38.1551
 21
0.972244
  0
LINE
  8
0
 10
-38.1551
 20
0.972244
 11
-37.9374
 21
1.23743
  0
LINE
  8
0
 10
-37.9374
 20
1.23743
 11
-37.6722
 21
1.45506
  0
LINE
  8
0
 10
-37.6722
 20
1.45506
 11
-37.3697
 21
1.61678
  0
LINE
  8
0
 10
-37.3697
 20
1.61678
 11
-37.0414
 21
1.71637
  0
LINE
  8
0
 10
-37.0414
 20
1.71637
 11
-36.7
 21
1.75
  0
LINE
  8
0
 10
-36.7
 20
1.75
 11
-36.3586
 21
1.71637
  0
LINE
  8
0
 10
-36.3586
 20
1.71637
 11
-36.0303
 21
1.61678
  0
LINE
  8
0
 10
-36.0303
 20
1.61678
 11
-35.7277
 21
1.45506
  0
LINE
  8
0
 10
-35.7277
 20
1.45506
 11
-35.4626
 21
1.23743
  0
LINE
  8
0
 10
-35.4626
 20
1.23743
 11
-35.2449
 21
0.972244
  0
LINE
  8
0
 10
-35.2449
 20
0.972244
 11
-35.0832
 21
0.669693
  0
LINE
  8
0
 10
-35.0832
 20
0.669693
 11
-34.9836
 21
0.3414
  0
LINE
  8
0
 10
-34.9836
 20
0.3414
 11
-34.95
 21
0
  0
LINE
  8
0
 10
-34.95
 20
0
 11
-34.9836
 21
-0.3414
  0
LINE
  8
0
 10
-34.9836
 20
-0.3414
 11
-35.0832
 21
-0.669693
  0
LINE
  8
0
 10
-35.0832
 20
-0.669693
 11
-35.2449
 21
-0.972244
  0
LINE
  8
0
 10
-35.2449
 20
-0.972244
 11
-35.4626
 21
-1.23743
  0
LINE
  8
0
 10
-35.4626
 20
-1.23743
 11
-35.7277
 21
-1.45506
  0
LINE
  8
0
 10
-35.7277
 20
-1.45506
 11
-36.0303
 21
-1.61678
  0
LINE
  8
0
 10
-36.0303
 20
-1.61678
 11
-36.3586
 21
-1.71637
  0
LINE
  8
0
 10
-36.3586
 20
-1.71637
 11
-36.7
 21
-1.75
  0
LINE
  8
0
 10
-36.7
 20
-1.75
 11
-37.0414
 21
-1.71637
  0
LINE
  8
0
 10
36.3586
 20
-1.71637
 11
36.0303
 21
-1.61678
  0
LINE
  8
0
 10
36.0303
 20
-1.61678
 11
35.7277
 21
-1.45506
  0
LINE
  8
0
 10
35.7277
 20
-1.45506
 11
35.4626
 21
-1.23743
  0
LINE
  8
0
 10
35.4626
 20
-1.23743
 11
35.2449
 21
-0.972244
  0
LINE
  8
0
 10
35.2449
 20
-0.972244
 11
35.0832
 21
-0.669693
  0
LINE
  8
0
 10
35.0832
 20
-0.669693
 11
34.9836
 21
-0.3414
  0
LINE
  8
0
 10
34.9836
 20
-0.3414
 11
34.95
 21
0
  0
LINE
  8
0
 10
34.95
 20
0
 11
34.9836
 21
0.3414
  0
LINE
  8
0
 10
34.9836
 20
0.3414
 11
35.0832
 21
0.669693
  0
LINE
  8
0
 10
35.0832
 20
0.669693
 11
35.2449
 21
0.972244
  0
LINE
  8
0
 10
35.2449
 20
0.972244
 11
35.4626
 21
1.23743
  0
LINE
  8
0
 10
35.4626
 20
1.23743
 11
35.7277
 21
1.45506
  0
LINE
  8
0
 10
35.7277
 20
1.45506
 11
36.0303
 21
1.61678
  0
LINE
  8
0
 10
36.0303
 20
1.61678
 11
36.3586
 21
1.71637
  0
LINE
  8
0
 10
36.3586
 20
1.71637
 11
36.7
 21
1.75
  0
LINE
  8
0
 10
36.7
 20
1.75
 11
37.0414
 21
1.71637
  0
LINE
  8
0
 10
37.0414
 20
1.71637
 11
37.3697
 21
1.61678
  0
LINE
  8
0
 10
37.3697
 20
1.61678
 11
37.6722
 21
1.45506
  0
LINE
  8
0
 10
37.6722
 20
1.45506
 11
37.9374
 21
1.23743
  0
LINE
  8
0
 10
37.9374
 20
1.23743
 11
38.1551
 21
0.972244
  0
LINE
  8
0
 10
38.1551
 20
0.972244
 11
38.3168
 21
0.669693
  0
LINE
  8
0
 10
38.3168
 20
0.669693
 11
38.4164
 21
0.3414
  0
LINE
  8
0
 10
38.4164
 20
0.3414
 11
38.45
 21
0
  0
LINE
  8
0
 10
38.45
 20
0
 11
38.4164
 21
-0.3414
  0
LINE
  8
0
 10
38.4164
 20
-0.3414
 11
38.3168
 21
-0.669693
  0
LINE
  8
0
 10
38.3168
 20
-0.669693
 11
38.1551
 21
-0.972244
  0
LINE
  8
0
 10
38.1551
 20
-0.972244
 11
37.9374
 21
-1.23743
  0
LINE
  8
0
 10
37.9374
 20
-1.23743
 11
37.6722
 21
-1.45506
  0
LINE
  8
0
 10
37.6722
 20
-1.45506
 11
37.3697
 21
-1.61678
  0
LINE
  8
0
 10
37.3697
 20
-1.61678
 11
37.0414
 21
-1.71637
  0
LINE
  8
0
 10
37.0414
 20
-1.71637
 11
36.7
 21
-1.75
  0
LINE
  8
0
 10
36.7
 20
-1.75
 11
36.3586
 21
-1.71637
  0
LINE
  8
0
 10
-100.383
 20
-0.923874
 11
-100.707
 21
-0.707092
  0
LINE
  8
0
 10
-100.707
 20
-0.707092
 11
-100.924
 21
-0.382675
  0
LINE
  8
0
 10
-100.924
 20
-0.382675
 11
-101
 21
0
  0
LINE
  8
0
 10
-101
 20
0
 11
-100.924
 21
0.382675
  0
LINE
  8
0
 10
-100.924
 20
0.382675
 11
-100.707
 21
0.707092
  0
LINE
  8
0
 10
-100.707
 20
0.707092
 11
-100.383
 21
0.923874
  0
LINE
  8
0
 10
-100.383
 20
0.923874
 11
-100
 21
1
  0
LINE
  8
0
 10
-100
 20
1
 11
-99.6173
 21
0.923874
  0
LINE
  8
0
 10
-99.6173
 20
0.923874
 11
-99.2929
 21
0.707092
  0
LINE
  8
0
 10
-99.2929
 20
0.707092
 11
-99.0761
 21
0.382675
  0
LINE
  8
0
 10
-99.0761
 20
0.382675
 11
-99
 21
0
  0
LINE
  8
0
 10
-99
 20
0
 11
-99.0761
 21
-0.382675
  0
LINE
  8
0
 10
-99.0761
 20
-0.382675
 11
-99.2929
 21
-0.707092
  0
LINE
  8
0
 10
-99.2929
 20
-0.707092
 11
-99.6173
 21
-0.923874
  0
LINE
  8
0
 10
-99.6173
 20
-0.923874
 11
-100
 21
-1
  0
LINE
  8
0
 10
-100
 20
-1
 11
-100.383
 21
-0.923874
  0
LINE
  8
0
 10
99.6173
 20
-0.923874
 11
99.2929
 21
-0.707092
  0
LINE
  8
0
 10
99.2929
 20
-0.707092
 11
99.0761
 21
-0.382675
  0
LINE
  8
0
 10
99.0761
 20
-0.382675
 11
99
 21
0
  0
LINE
  8
0
 10
99
 20
0
 11
99.0761
 21
0.382675
  0
LINE
  8
0
 10
99.0761
 20
0.382675
 11
99.2929
 21
0.707092
  0
LINE
  8
0
 10
99.2929
 20
0.707092
 11
99.6173
 21
0.923874
  0
LINE
  8
0
 10
99.6173
 20
0.923874
 11
100
 21
1
  0
LINE
  8
0
 10
100
 20
1
 11
100.383
 21
0.923874
  0
LINE
  8
0
 10
100.383
 20
0.923874
 11
100.707
 21
0.707092
  0
LINE
  8
0
 10
100.707
 20
0.707092
 11
100.924
 21
0.382675
  0
LINE
  8
0
 10
100.924
 20
0.382675
 11
101
 21
0
  0
LINE
  8
0
 10
101
 20
0
 11
100.924
 21
-0.382675
  0
LINE
  8
0
 10
100.924
 20
-0.382675
 11
100.707
 21
-0.707092
  0
LINE
  8
0
 10
100.707
 20
-0.707092
 11
100.383
 21
-0.923874
  0
LINE
  8
0
 10
100.383
 20
-0.923874
 11
100
 21
-1
  0
LINE
  8
0
 10
100
 20
-1
 11
99.6173
 21
-0.923874
  0
LINE
  8
0
 10
-26.2922
 20
-27.6672
 11
-26.6205
 21
-27.5676
  0
LINE
  8
0
 10
-26.6205
 20
-27.5676
 11
-26.9231
 21
-27.4059
  0
LINE
  8
0
 10
-26.9231
 20
-27.4059
 11
-27.1882
 21
-27.1882
  0
LINE
  8
0
 10
-27.1882
 20
-27.1882
 11
-27.4059
 21
-26.9231
  0
LINE
  8
0
 10
-27.4059
 20
-26.9231
 11
-27.5676
 21
-26.6205
  0
LINE
  8
0
 10
-27.5676
 20
-26.6205
 11
-27.6672
 21
-26.2922
  0
LINE
  8
0
 10
-27.6672
 20
-26.2922
 11
-27.7008
 21
-25.9508
  0
LINE
  8
0
 10
-27.7008
 20
-25.9508
 11
-27.6672
 21
-25.6094
  0
LINE
  8
0
 10
-27.6672
 20
-25.6094
 11
-27.5676
 21
-25.2811
  0
LINE
  8
0
 10
-27.5676
 20
-25.2811
 11
-27.4059
 21
-24.9786
  0
LINE
  8
0
 10
-27.4059
 20
-24.9786
 11
-27.1882
 21
-24.7134
  0
LINE
  8
0
 10
-27.1882
 20
-24.7134
 11
-26.9231
 21
-24.4957
  0
LINE
  8
0
 10
-26.9231
 20
-24.4957
 11
-26.6205
 21
-24.334
  0
LINE
  8
0
 10
-26.6205
 20
-24.334
 11
-26.2922
 21
-24.2344
  0
LINE
  8
0
 10
-26.2922
 20
-24.2344
 11
-25.9508
 21
-24.2008
  0
LINE
  8
0
 10
-25.9508
 20
-24.2008
 11
-25.6094
 21
-24.2344
  0
LINE
  8
0
 10
-25.6094
 20
-24.2344
 11
-25.2811
 21
-24.334
  0
LINE
  8
0
 10
-25.2811
 20
-24.334
 11
-24.9786
 21
-24.4957
  0
LINE
  8
0
 10
-24.9786
 20
-24.4957
 11
-24.7134
 21
-24.7134
  0
LINE
  8
0
 10
-24.7134
 20
-24.7134
 11
-24.4957
 21
-24.9786
  0
LINE
  8
0
 10
-24.4957
 20
-24.9786
 11
-24.334
 21
-25.2811
  0
LINE
  8
0
 10
-24.334
 20
-25.2811
 11
-24.2344
 21
-25.6094
  0
LINE
  8
0
 10
-24.2344
 20
-25.6094
 11
-24.2008
 21
-25.9508
  0
LINE
  8
0
 10
-24.2008
 20
-25.9508
 11
-24.2344
 21
-26.2922
  0
LINE
  8
0
 10
-24.2344
 20
-26.2922
 11
-24.334
 21
-26.6205
  0
LINE
  8
0
 10
-24.334
 20
-26.6205
 11
-24.4957
 21
-26.9231
  0
LINE
  8
0
 10
-24.4957
 20
-26.9231
 11
-24.7134
 21
-27.1882
  0
LINE
  8
0
 10
-24.7134
 20
-27.1882
 11
-24.9786
 21
-27.4059
  0
LINE
  8
0
 10
-24.9786
 20
-27.4059
 11
-25.2811
 21
-27.5676
  0
LINE
  8
0
 10
-25.2811
 20
-27.5676
 11
-25.6094
 21
-27.6672
  0
LINE
  8
0
 10
-25.6094
 20
-27.6672
 11
-25.9508
 21
-27.7008
  0
LINE
  8
0
 10
-25.9508
 20
-27.7008
 11
-26.2922
 21
-27.6672
  0
LINE
  8
0
 10
25.6094
 20
-27.6672
 11
25.2811
 21
-27.5676
  0
LINE
  8
0
 10
25.2811
 20
-27.5676
 11
24.9786
 21
-27.4059
  0
LINE
  8
0
 10
24.9786
 20
-27.4059
 11
24.7134
 21
-27.1882
  0
LINE
  8
0
 10
24.7134
 20
-27.1882
 11
24.4957
 21
-26.9231
  0
LINE
  8
0
 10
24.4957
 20
-26.9231
 11
24.334
 21
-26.6205
  0
LINE
  8
0
 10
24.334
 20
-26.6205
 11
24.2344
 21
-26.2922
  0
LINE
  8
0
 10
24.2344
 20
-26.2922
 11
24.2008
 21
-25.9508
  0
LINE
  8
0
 10
24.2008
 20
-25.9508
 11
24.2344
 21
-25.6094
  0
LINE
  8
0
 10
24.2344
 20
-25.6094
 11
24.334
 21
-25.2811
  0
LINE
  8
0
 10
24.334
 20
-25.2811
 11
24.4957
 21
-24.9786
  0
LINE
  8
0
 10
24.4957
 20
-24.9786
 11
24.7134
 21
-24.7134
  0
LINE
  8
0
 10
24.7134
 20
-24.7134
 11
24.9786
 21
-24.4957
  0
LINE
  8
0
 10
24.9786
 20
-24.4957
 11
25.2811
 21
-24.334
  0
LINE
  8
0
 10
25.2811
 20
-24.334
 11
25.6094
 21
-24.2344
  0
LINE
  8
0
 10
25.6094
 20
-24.2344
 11
25.9508
 21
-24.2008
  0
LINE
  8
0
 10
25.9508
 20
-24.2008
 11
26.2922
 21
-24.2344
  0
LINE
  8
0
 10
26.2922
 20
-24.2344
 11
26.6205
 21
-24.334
  0
LINE
  8
0
 10
26.6205
 20
-24.334
 11
26.9231
 21
-24.4957
  0
LINE
  8
0
 10
26.9231
 20
-24.4957
 11
27.1882
 21
-24.7134
  0
LINE
  8
0
 10
27.1882
 20
-24.7134
 11
27.4059
 21
-24.9786
  0
LINE
  8
0
 10
27.4059
 20
-24.9786
 11
27.5676
 21
-25.2811
  0
LINE
  8
0
 10
27.5676
 20
-25.2811
 11
27.6672
 21
-25.6094
  0
LINE
  8
0
 10
27.6672
 20
-25.6094
 11
27.7008
 21
-25.9508
  0
LINE
  8
0
 10
27.7008
 20
-25.9508
 11
27.6672
 21
-26.2922
  0
LINE
  8
0
 10
27.6672
 20
-26.2922
 11
27.5676
 21
-26.6205
  0
LINE
  8
0
 10
27.5676
 20
-26.6205
 11
27.4059
 21
-26.9231
  0
LINE
  8
0
 10
27.4059
 20
-26.9231
 11
27.1882
 21
-27.1882
  0
LINE
  8
0
 10
27.1882
 20
-27.1882
 11
26.9231
 21
-27.4059
  0
LINE
  8
0
 10
26.9231
 20
-27.4059
 11
26.6205
 21
-27.5676
  0
LINE
  8
0
 10
26.6205
 20
-27.5676
 11
26.2922
 21
-27.6672
  0
LINE
  8
0
 10
26.2922
 20
-27.6672
 11
25.9508
 21
-27.7008
  0
LINE
  8
0
 10
25.9508
 20
-27.7008
 11
25.6094
 21
-27.6672
  0
LINE
  8
0
 10
60.3747
 20
-52.1779
 11
75.3747
 21
-26.1971
  0
LINE
  8
0
 10
75.3747
 20
-26.1971
 11
77.9728
 21
-27.6971
  0
LINE
  8
0
 10
77.9728
 20
-27.6971
 11
62.9728
 21
-53.6779
  0
LINE
  8
0
 10
62.9728
 20
-53.6779
 11
60.3747
 21
-52.1779
  0
LINE
  8
0
 10
-77.9728
 20
-27.6971
 11
-75.3747
 21
-26.1971
  0
LINE
  8
0
 10
-75.3747
 20
-26.1971
 11
-60.3747
 21
-52.1779
  0
LINE
  8
0
 10
-60.3747
 20
-52.1779
 11
-62.9728
 21
-53.6779
  0
LINE
  8
0
 10
-62.9728
 20
-53.6779
 11
-77.9728
 21
-27.6971
  0
LINE
  8
0
 10
-0.3414
 20
-38.4164
 11
-0.669693
 21
-38.3168
  0
LINE
  8
0
 10
-0.669693
 20
-38.3168
 11
-0.972244
 21
-38.1551
  0
LINE
  8
0
 10
-0.972244
 20
-38.1551
 11
-1.23743
 21
-37.9374
  0
LINE
  8
0
 10
-1.23743
 20
-37.9374
 11
-1.45506
 21
-37.6722
  0
LINE
  8
0
 10
-1.45506
 20
-37.6722
 11
-1.61678
 21
-37.3697
  0
LINE
  8
0
 10
-1.61678
 20
-37.3697
 11
-1.71637
 21
-37.0414
  0
LINE
  8
0
 10
-1.71637
 20
-37.0414
 11
-1.75
 21
-36.7
  0
LINE
  8
0
 10
-1.75
 20
-36.7
 11
-1.71637
 21
-36.3586
  0
LINE
  8
0
 10
-1.71637
 20
-36.3586
 11
-1.61678
 21
-36.0303
  0
LINE
  8
0
 10
-1.61678
 20
-36.0303
 11
-1.45506
 21
-35.7277
  0
LINE
  8
0
 10
-1.45506
 20
-35.7277
 11
-1.23743
 21
-35.4626
  0
LINE
  8
0
 10
-1.23743
 20
-35.4626
 11
-0.972244
 21
-35.2449
  0
LINE
  8
0
 10
-0.972244
 20
-35.2449
 11
-0.669693
 21
-35.0832
  0
LINE
  8
0
 10
-0.669693
 20
-35.0832
 11
-0.3414
 21
-34.9836
  0
LINE
  8
0
 10
-0.3414
 20
-34.9836
 11
0
 21
-34.95
  0
LINE
  8
0
 10
0
 20
-34.95
 11
0.3414
 21
-34.9836
  0
LINE
  8
0
 10
0.3414
 20
-34.9836
 11
0.669693
 21
-35.0832
  0
LINE
  8
0
 10
0.669693
 20
-35.0832
 11
0.972244
 21
-35.2449
  0
LINE
  8
0
 10
0.972244
 20
-35.2449
 11
1.23743
 21
-35.4626
  0
LINE
  8
0
 10
1.23743
 20
-35.4626
 11
1.45506
 21
-35.7277
  0
LINE
  8
0
 10
1.45506
 20
-35.7277
 11
1.61678
 21
-36.0303
  0
LINE
  8
0
 10
1.61678
 20
-36.0303
 11
1.71637
 21
-36.3586
  0
LINE
  8
0
 10
1.71637
 20
-36.3586
 11
1.75
 21
-36.7
  0
LINE
  8
0
 10
1.75
 20
-36.7
 11
1.71637
 21
-37.0414
  0
LINE
  8
0
 10
1.71637
 20
-37.0414
 11
1.61678
 21
-37.3697
  0
LINE
  8
0
 10
1.61678
 20
-37.3697
 11
1.45506
 21
-37.6722
  0
LINE
  8
0
 10
1.45506
 20
-37.6722
 11
1.23743
 21
-37.9374
  0
LINE
  8
0
 10
1.23743
 20
-37.9374
 11
0.972244
 21
-38.1551
  0
LINE
  8
0
 10
0.972244
 20
-38.1551
 11
0.669693
 21
-38.3168
  0
LINE
  8
0
 10
0.669693
 20
-38.3168
 11
0.3414
 21
-38.4164
  0
LINE
  8
0
 10
0.3414
 20
-38.4164
 11
0
 21
-38.45
  0
LINE
  8
0
 10
0
 20
-38.45
 11
-0.3414
 21
-38.4164
  0
LINE
  8
0
 10
-40.4596
 20
-73.1396
 11
-41.2233
 21
-72.9615
  0
LINE
  8
0
 10
-41.2233
 20
-72.9615
 11
-41.9375
 21
-72.6379
  0
LINE
  8
0
 10
-41.9375
 20
-72.6379
 11
-42.5749
 21
-72.1811
  0
LINE
  8
0
 10
-42.5749
 20
-72.1811
 11
-43.1109
 21
-71.6088
  0
LINE
  8
0
 10
-43.1109
 20
-71.6088
 11
-43.525
 21
-70.9429
  0
LINE
  8
0
 10
-43.525
 20
-70.9429
 11
-43.8012
 21
-70.209
  0
LINE
  8
0
 10
-43.8012
 20
-70.209
 11
-43.9289
 21
-69.4354
  0
LINE
  8
0
 10
-43.9289
 20
-69.4354
 11
-43.9033
 21
-68.6517
  0
LINE
  8
0
 10
-43.9033
 20
-68.6517
 11
-43.7252
 21
-67.888
  0
LINE
  8
0
 10
-43.7252
 20
-67.888
 11
-43.4016
 21
-67.1738
  0
LINE
  8
0
 10
-43.4016
 20
-67.1738
 11
-42.9449
 21
-66.5364
  0
LINE
  8
0
 10
-42.9449
 20
-66.5364
 11
-42.3725
 21
-66.0004
  0
LINE
  8
0
 10
-42.3725
 20
-66.0004
 11
-41.7066
 21
-65.5863
  0
LINE
  8
0
 10
-41.7066
 20
-65.5863
 11
-40.9728
 21
-65.3101
  0
LINE
  8
0
 10
-40.9728
 20
-65.3101
 11
-40.1991
 21
-65.1823
  0
LINE
  8
0
 10
-40.1991
 20
-65.1823
 11
-39.4154
 21
-65.208
  0
LINE
  8
0
 10
-39.4154
 20
-65.208
 11
-38.6517
 21
-65.386
  0
LINE
  8
0
 10
-38.6517
 20
-65.386
 11
-37.9375
 21
-65.7097
  0
LINE
  8
0
 10
-37.9375
 20
-65.7097
 11
-37.3001
 21
-66.1664
  0
LINE
  8
0
 10
-37.3001
 20
-66.1664
 11
-36.7641
 21
-66.7387
  0
LINE
  8
0
 10
-36.7641
 20
-66.7387
 11
-36.35
 21
-67.4046
  0
LINE
  8
0
 10
-36.35
 20
-67.4046
 11
-36.0738
 21
-68.1385
  0
LINE
  8
0
 10
-36.0738
 20
-68.1385
 11
-35.9461
 21
-68.9122
  0
LINE
  8
0
 10
-35.9461
 20
-68.9122
 11
-35.9717
 21
-69.6959
  0
LINE
  8
0
 10
-35.9717
 20
-69.6959
 11
-36.1498
 21
-70.4595
  0
LINE
  8
0
 10
-36.1498
 20
-70.4595
 11
-36.4734
 21
-71.1738
  0
LINE
  8
0
 10
-36.4734
 20
-71.1738
 11
-36.9301
 21
-71.8112
  0
LINE
  8
0
 10
-36.9301
 20
-71.8112
 11
-37.5024
 21
-72.3472
  0
LINE
  8
0
 10
-37.5024
 20
-72.3472
 11
-38.1683
 21
-72.7613
  0
LINE
  8
0
 10
-38.1683
 20
-72.7613
 11
-38.9022
 21
-73.0375
  0
LINE
  8
0
 10
-38.9022
 20
-73.0375
 11
-39.6759
 21
-73.1652
  0
LINE
  8
0
 10
-39.6759
 20
-73.1652
 11
-40.4596
 21
-73.1396
  0
LINE
  8
0
 10
38.9022
 20
-73.0375
 11
38.1683
 21
-72.7613
  0
LINE
  8
0
 10
38.1683
 20
-72.7613
 11
37.5024
 21
-72.3472
  0
LINE
  8
0
 10
37.5024
 20
-72.3472
 11
36.9301
 21
-71.8112
  0
LINE
  8
0
 10
36.9301
 20
-71.8112
 11
36.4734
 21
-71.1738
  0
LINE
  8
0
 10
36.4734
 20
-71.1738
 11
36.1498
 21
-70.4595
  0
LINE
  8
0
 10
36.1498
 20
-70.4595
 11
35.9717
 21
-69.6959
  0
LINE
  8
0
 10
35.9717
 20
-69.6959
 11
35.9461
 21
-68.9122
  0
LINE
  8
0
 10
35.9461
 20
-68.9122
 11
36.0738
 21
-68.1385
  0
LINE
  8
0
 10
36.0738
 20
-68.1385
 11
36.35
 21
-67.4046
  0
LINE
  8
0
 10
36.35
 20
-67.4046
 11
36.7641
 21
-66.7387
  0
LINE
  8
0
 10
36.7641
 20
-66.7387
 11
37.3001
 21
-66.1664
  0
LINE
  8
0
 10
37.3001
 20
-66.1664
 11
37.9375
 21
-65.7097
  0
LINE
  8
0
 10
37.9375
 20
-65.7097
 11
38.6517
 21
-65.386
  0
LINE
  8
0
 10
38.6517
 20
-65.386
 11
39.4154
 21
-65.208
  0
LINE
  8
0
 10
39.4154
 20
-65.208
 11
40.1991
 21
-65.1823
  0
LINE
  8
0
 10
40.1991
 20
-65.1823
 11
40.9728
 21
-65.3101
  0
LINE
  8
0
 10
40.9728
 20
-65.3101
 11
41.7066
 21
-65.5863
  0
LINE
  8
0
 10
41.7066
 20
-65.5863
 11
42.3725
 21
-66.0004
  0
LINE
  8
0
 10
42.3725
 20
-66.0004
 11
42.9449
 21
-66.5364
  0
LINE
  8
0
 10
42.9449
 20
-66.5364
 11
43.4016
 21
-67.1738
  0
LINE
  8
0
 10
43.4016
 20
-67.1738
 11
43.7252
 21
-67.888
  0
LINE
  8
0
 10
43.7252
 20
-67.888
 11
43.9033
 21
-68.6517
  0
LINE
  8
0
 10
43.9033
 20
-68.6517
 11
43.9289
 21
-69.4354
  0
LINE
  8
0
 10
43.9289
 20
-69.4354
 11
43.8012
 21
-70.209
  0
LINE
  8
0
 10
43.8012
 20
-70.209
 11
43.525
 21
-70.9429
  0
LINE
  8
0
 10
43.525
 20
-70.9429
 11
43.1109
 21
-71.6088
  0
LINE
  8
0
 10
43.1109
 20
-71.6088
 11
42.5749
 21
-72.1811
  0
LINE
  8
0
 10
42.5749
 20
-72.1811
 11
41.9375
 21
-72.6379
  0
LINE
  8
0
 10
41.9375
 20
-72.6379
 11
41.2233
 21
-72.9615
  0
LINE
  8
0
 10
41.2233
 20
-72.9615
 11
40.4596
 21
-73.1396
  0
LINE
  8
0
 10
40.4596
 20
-73.1396
 11
39.6759
 21
-73.1652
  0
LINE
  8
0
 10
39.6759
 20
-73.1652
 11
38.9022
 21
-73.0375
  0
LINE
  8
0
 10
-71.0934
 20
-71.6346
 11
-71.4178
 21
-71.4178
  0
LINE
  8
0
 10
-71.4178
 20
-71.4178
 11
-71.6346
 21
-71.0934
  0
LINE
  8
0
 10
-71.6346
 20
-71.0934
 11
-71.7107
 21
-70.7107
  0
LINE
  8
0
 10
-71.7107
 20
-70.7107
 11
-71.6346
 21
-70.328
  0
LINE
  8
0
 10
-71.6346
 20
-70.328
 11
-71.4178
 21
-70.0036
  0
LINE
  8
0
 10
-71.4178
 20
-70.0036
 11
-71.0934
 21
-69.7868
  0
LINE
  8
0
 10
-71.0934
 20
-69.7868
 11
-70.7107
 21
-69.7107
  0
LINE
  8
0
 10
-70.7107
 20
-69.7107
 11
-70.328
 21
-69.7868
  0
LINE
  8
0
 10
-70.328
 20
-69.7868
 11
-70.0036
 21
-70.0036
  0
LINE
  8
0
 10
-70.0036
 20
-70.0036
 11
-69.7868
 21
-70.328
  0
LINE
  8
0
 10
-69.7868
 20
-70.328
 11
-69.7107
 21
-70.7107
  0
LINE
  8
0
 10
-69.7107
 20
-70.7107
 11
-69.7868
 21
-71.0934
  0
LINE
  8
0
 10
-69.7868
 20
-71.0934
 11
-70.0036
 21
-71.4178
  0
LINE
  8
0
 10
-70.0036
 20
-71.4178
 11
-70.328
 21
-71.6346
  0
LINE
  8
0
 10
-70.328
 20
-71.6346
 11
-70.7107
 21
-71.7107
  0
LINE
  8
0
 10
-70.7107
 20
-71.7107
 11
-71.0934
 21
-71.6346
  0
LINE
  8
0
 10
70.328
 20
-71.6346
 11
70.0036
 21
-71.4178
  0
LINE
  8
0
 10
70.0036
 20
-71.4178
 11
69.7868
 21
-71.0934
  0
LINE
  8
0
 10
69.7868
 20
-71.0934
 11
69.7107
 21
-70.7107
  0
LINE
  8
0
 10
69.7107
 20
-70.7107
 11
69.7868
 21
-70.328
  0
LINE
  8
0
 10
69.7868
 20
-70.328
 11
70.0036
 21
-70.0036
  0
LINE
  8
0
 10
70.0036
 20
-70.0036
 11
70.328
 21
-69.7868
  0
LINE
  8
0
 10
70.328
 20
-69.7868
 11
70.7107
 21
-69.7107
  0
LINE
  8
0
 10
70.7107
 20
-69.7107
 11
71.0934
 21
-69.7868
  0
LINE
  8
0
 10
71.0934
 20
-69.7868
 11
71.4178
 21
-70.0036
  0
LINE
  8
0
 10
71.4178
 20
-70.0036
 11
71.6346
 21
-70.328
  0
LINE
  8
0
 10
71.6346
 20
-70.328
 11
71.7107
 21
-70.7107
  0
LINE
  8
0
 10
71.7107
 20
-70.7107
 11
71.6346
 21
-71.0934
  0
LINE
  8
0
 10
71.6346
 20
-71.0934
 11
71.4178
 21
-71.4178
  0
LINE
  8
0
 10
71.4178
 20
-71.4178
 11
71.0934
 21
-71.6346
  0
LINE
  8
0
 10
71.0934
 20
-71.6346
 11
70.7107
 21
-71.7107
  0
LINE
  8
0
 10
70.7107
 20
-71.7107
 11
70.328
 21
-71.6346
  0
LINE
  8
0
 10
-15
 20
-81.375
 11
-15
 21
-78.375
  0
LINE
  8
0
 10
-15
 20
-78.375
 11
15
 21
-78.375
  0
LINE
  8
0
 10
15
 20
-78.375
 11
15
 21
-81.375
  0
LINE
  8
0
 10
15
 20
-81.375
 11
-15
 21
-81.375
  0
LINE
  8
0
 10
-0.382675
 20
-100.924
 11
-0.707092
 21
-100.707
  0
LINE
  8
0
 10
-0.707092
 20
-100.707
 11
-0.923874
 21
-100.383
  0
LINE
  8
0
 10
-0.923874
 20
-100.383
 11
-1
 21
-100
  0
LINE
  8
0
 10
-1
 20
-100
 11
-0.923874
 21
-99.6173
  0
LINE
  8
0
 10
-0.923874
 20
-99.6173
 11
-0.707092
 21
-99.2929
  0
LINE
  8
0
 10
-0.707092
 20
-99.2929
 11
-0.382675
 21
-99.0761
  0
LINE
  8
0
 10
-0.382675
 20
-99.0761
 11
0
 21
-99
  0
LINE
  8
0
 10
0
 20
-99
 11
0.382675
 21
-99.0761
  0
LINE
  8
0
 10
0.382675
 20
-99.0761
 11
0.707092
 21
-99.2929
  0
LINE
  8
0
 10
0.707092
 20
-99.2929
 11
0.923874
 21
-99.6173
  0
LINE
  8
0
 10
0.923874
 20
-99.6173
 11
1
 21
-100
  0
LINE
  8
0
 10
1
 20
-100
 11
0.923874
 21
-100.383
  0
LINE
  8
0
 10
0.923874
 20
-100.383
 11
0.707092
 21
-100.707
  0
LINE
  8
0
 10
0.707092
 20
-100.707
 11
0.382675
 21
-100.924
  0
LINE
  8
0
 10
0.382675
 20
-100.924
 11
0
 21
-101
  0
LINE
  8
0
 10
0
 20
-101
 11
-0.382675
 21
-100.924
  0
ENDSEC
  0
SECTION
  2
OBJECTS
  0
DICTIONARY
  0
ENDSEC
  0
EOF
