  0
SECTION
  2
BLOCKS
  0
ENDSEC
  0
SECTION
  2
ENTITIES
  0
LINE
  8
0
 10
2.09428
 20
-119.982
 11
4.18793
 21
-119.927
  0
LINE
  8
0
 10
4.18793
 20
-119.927
 11
6.2803
 21
-119.836
  0
LINE
  8
0
 10
6.2803
 20
-119.836
 11
8.37077
 21
-119.708
  0
LINE
  8
0
 10
8.37077
 20
-119.708
 11
10.4587
 21
-119.543
  0
LINE
  8
0
 10
10.4587
 20
-119.543
 11
12.5434
 21
-119.343
  0
LINE
  8
0
 10
12.5434
 20
-119.343
 11
14.6243
 21
-119.106
  0
LINE
  8
0
 10
14.6243
 20
-119.106
 11
16.7008
 21
-118.832
  0
LINE
  8
0
 10
16.7008
 20
-118.832
 11
18.7721
 21
-118.523
  0
LINE
  8
0
 10
18.7721
 20
-118.523
 11
20.8378
 21
-118.177
  0
LINE
  8
0
 10
20.8378
 20
-118.177
 11
22.8971
 21
-117.795
  0
LINE
  8
0
 10
22.8971
 20
-117.795
 11
24.9494
 21
-117.378
  0
LINE
  8
0
 10
24.9494
 20
-117.378
 11
26.9941
 21
-116.924
  0
LINE
  8
0
 10
26.9941
 20
-116.924
 11
29.0306
 21
-116.435
  0
LINE
  8
0
 10
29.0306
 20
-116.435
 11
31.0583
 21
-115.911
  0
LINE
  8
0
 10
31.0583
 20
-115.911
 11
33.0765
 21
-115.351
  0
LINE
  8
0
 10
33.0765
 20
-115.351
 11
35.0846
 21
-114.757
  0
LINE
  8
0
 10
35.0846
 20
-114.757
 11
37.082
 21
-114.127
  0
LINE
  8
0
 10
37.082
 20
-114.127
 11
39.0682
 21
-113.462
  0
LINE
  8
0
 10
39.0682
 20
-113.462
 11
41.0424
 21
-112.763
  0
LINE
  8
0
 10
41.0424
 20
-112.763
 11
43.0042
 21
-112.03
  0
LINE
  8
0
 10
43.0042
 20
-112.03
 11
44.9528
 21
-111.262
  0
LINE
  8
0
 10
44.9528
 20
-111.262
 11
46.8877
 21
-110.461
  0
LINE
  8
0
 10
46.8877
 20
-110.461
 11
48.8084
 21
-109.625
  0
LINE
  8
0
 10
48.8084
 20
-109.625
 11
50.7142
 21
-108.757
  0
LINE
  8
0
 10
50.7142
 20
-108.757
 11
52.6045
 21
-107.855
  0
LINE
  8
0
 10
52.6045
 20
-107.855
 11
54.4789
 21
-106.921
  0
LINE
  8
0
 10
54.4789
 20
-106.921
 11
56.3366
 21
-105.954
  0
LINE
  8
0
 10
56.3366
 20
-105.954
 11
58.1771
 21
-104.954
  0
LINE
  8
0
 10
58.1771
 20
-104.954
 11
60
 21
-103.923
  0
LINE
  8
0
 10
60
 20
-103.923
 11
61.8046
 21
-102.86
  0
LINE
  8
0
 10
61.8046
 20
-102.86
 11
63.5903
 21
-101.766
  0
LINE
  8
0
 10
63.5903
 20
-101.766
 11
65.3567
 21
-100.64
  0
LINE
  8
0
 10
65.3567
 20
-100.64
 11
67.1031
 21
-99.4845
  0
LINE
  8
0
 10
67.1031
 20
-99.4845
 11
68.8292
 21
-98.2982
  0
LINE
  8
0
 10
68.8292
 20
-98.2982
 11
70.5342
 21
-97.082
  0
LINE
  8
0
 10
70.5342
 20
-97.082
 11
72.2178
 21
-95.8363
  0
LINE
  8
0
 10
72.2178
 20
-95.8363
 11
73.8794
 21
-94.5613
  0
LINE
  8
0
 10
73.8794
 20
-94.5613
 11
75.5184
 21
-93.2575
  0
LINE
  8
0
 10
75.5184
 20
-93.2575
 11
77.1345
 21
-91.9253
  0
LINE
  8
0
 10
77.1345
 20
-91.9253
 11
78.7271
 21
-90.5651
  0
LINE
  8
0
 10
78.7271
 20
-90.5651
 11
80.2957
 21
-89.1774
  0
LINE
  8
0
 10
80.2957
 20
-89.1774
 11
81.8398
 21
-87.7624
  0
LINE
  8
0
 10
81.8398
 20
-87.7624
 11
83.359
 21
-86.3208
  0
LINE
  8
0
 10
83.359
 20
-86.3208
 11
84.8528
 21
-84.8528
  0
LINE
  8
0
 10
84.8528
 20
-84.8528
 11
86.3208
 21
-83.359
  0
LINE
  8
0
 10
86.3208
 20
-83.359
 11
87.7624
 21
-81.8398
  0
LINE
  8
0
 10
87.7624
 20
-81.8398
 11
89.1774
 21
-80.2957
  0
LINE
  8
0
 10
89.1774
 20
-80.2957
 11
90.5651
 21
-78.7271
  0
LINE
  8
0
 10
90.5651
 20
-78.7271
 11
91.9253
 21
-77.1345
  0
LINE
  8
0
 10
91.9253
 20
-77.1345
 11
93.2575
 21
-75.5184
  0
LINE
  8
0
 10
93.2575
 20
-75.5184
 11
94.5613
 21
-73.8794
  0
LINE
  8
0
 10
94.5613
 20
-73.8794
 11
95.8363
 21
-72.2178
  0
LINE
  8
0
 10
95.8363
 20
-72.2178
 11
97.082
 21
-70.5342
  0
LINE
  8
0
 10
97.082
 20
-70.5342
 11
98.2982
 21
-68.8292
  0
LINE
  8
0
 10
98.2982
 20
-68.8292
 11
99.4845
 21
-67.1031
  0
LINE
  8
0
 10
99.4845
 20
-67.1031
 11
100.64
 21
-65.3567
  0
LINE
  8
0
 10
100.64
 20
-65.3567
 11
101.766
 21
-63.5903
  0
LINE
  8
0
 10
101.766
 20
-63.5903
 11
102.86
 21
-61.8046
  0
LINE
  8
0
 10
102.86
 20
-61.8046
 11
103.923
 21
-60
  0
LINE
  8
0
 10
103.923
 20
-60
 11
104.954
 21
-58.1771
  0
LINE
  8
0
 10
104.954
 20
-58.1771
 11
105.954
 21
-56.3366
  0
LINE
  8
0
 10
105.954
 20
-56.3366
 11
106.921
 21
-54.4789
  0
LINE
  8
0
 10
106.921
 20
-54.4789
 11
107.855
 21
-52.6045
  0
LINE
  8
0
 10
107.855
 20
-52.6045
 11
108.757
 21
-50.7142
  0
LINE
  8
0
 10
108.757
 20
-50.7142
 11
109.625
 21
-48.8084
  0
LINE
  8
0
 10
109.625
 20
-48.8084
 11
110.461
 21
-46.8877
  0
LINE
  8
0
 10
110.461
 20
-46.8877
 11
111.262
 21
-44.9528
  0
LINE
  8
0
 10
111.262
 20
-44.9528
 11
112.03
 21
-43.0042
  0
LINE
  8
0
 10
112.03
 20
-43.0042
 11
112.763
 21
-41.0424
  0
LINE
  8
0
 10
112.763
 20
-41.0424
 11
113.462
 21
-39.0682
  0
LINE
  8
0
 10
113.462
 20
-39.0682
 11
114.127
 21
-37.082
  0
LINE
  8
0
 10
114.127
 20
-37.082
 11
114.757
 21
-35.0846
  0
LINE
  8
0
 10
114.757
 20
-35.0846
 11
115.351
 21
-33.0765
  0
LINE
  8
0
 10
115.351
 20
-33.0765
 11
115.911
 21
-31.0583
  0
LINE
  8
0
 10
115.911
 20
-31.0583
 11
116.435
 21
-29.0306
  0
LINE
  8
0
 10
116.435
 20
-29.0306
 11
116.924
 21
-26.9941
  0
LINE
  8
0
 10
116.924
 20
-26.9941
 11
117.378
 21
-24.9494
  0
LINE
  8
0
 10
117.378
 20
-24.9494
 11
117.795
 21
-22.8971
  0
LINE
  8
0
 10
117.795
 20
-22.8971
 11
118.177
 21
-20.8378
  0
LINE
  8
0
 10
118.177
 20
-20.8378
 11
118.523
 21
-18.7721
  0
LINE
  8
0
 10
118.523
 20
-18.7721
 11
118.832
 21
-16.7008
  0
LINE
  8
0
 10
118.832
 20
-16.7008
 11
119.106
 21
-14.6243
  0
LINE
  8
0
 10
119.106
 20
-14.6243
 11
119.343
 21
-12.5434
  0
LINE
  8
0
 10
119.343
 20
-12.5434
 11
119.543
 21
-10.4587
  0
LINE
  8
0
 10
119.543
 20
-10.4587
 11
119.708
 21
-8.37077
  0
LINE
  8
0
 10
119.708
 20
-8.37077
 11
119.836
 21
-6.2803
  0
LINE
  8
0
 10
119.836
 20
-6.2803
 11
119.927
 21
-4.18793
  0
LINE
  8
0
 10
119.927
 20
-4.18793
 11
119.982
 21
-2.09428
  0
LINE
  8
0
 10
119.982
 20
-2.09428
 11
120
 21
0
  0
LINE
  8
0
 10
120
 20
0
 11
119.982
 21
2.09428
  0
LINE
  8
0
 10
119.982
 20
2.09428
 11
119.927
 21
4.18793
  0
LINE
  8
0
 10
119.927
 20
4.18793
 11
119.836
 21
6.2803
  0
LINE
  8
0
 10
119.836
 20
6.2803
 11
119.708
 21
8.37077
  0
LINE
  8
0
 10
119.708
 20
8.37077
 11
119.543
 21
10.4587
  0
LINE
  8
0
 10
119.543
 20
10.4587
 11
119.343
 21
12.5434
  0
LINE
  8
0
 10
119.343
 20
12.5434
 11
119.106
 21
14.6243
  0
LINE
  8
0
 10
119.106
 20
14.6243
 11
118.832
 21
16.7008
  0
LINE
  8
0
 10
118.832
 20
16.7008
 11
118.523
 21
18.7721
  0
LINE
  8
0
 10
118.523
 20
18.7721
 11
118.177
 21
20.8378
  0
LINE
  8
0
 10
118.177
 20
20.8378
 11
117.795
 21
22.8971
  0
LINE
  8
0
 10
117.795
 20
22.8971
 11
117.378
 21
24.9494
  0
LINE
  8
0
 10
117.378
 20
24.9494
 11
116.924
 21
26.9941
  0
LINE
  8
0
 10
116.924
 20
26.9941
 11
116.435
 21
29.0306
  0
LINE
  8
0
 10
116.435
 20
29.0306
 11
115.911
 21
31.0583
  0
LINE
  8
0
 10
115.911
 20
31.0583
 11
115.351
 21
33.0765
  0
LINE
  8
0
 10
115.351
 20
33.0765
 11
114.757
 21
35.0846
  0
LINE
  8
0
 10
114.757
 20
35.0846
 11
114.127
 21
37.082
  0
LINE
  8
0
 10
114.127
 20
37.082
 11
113.462
 21
39.0682
  0
LINE
  8
0
 10
113.462
 20
39.0682
 11
112.763
 21
41.0424
  0
LINE
  8
0
 10
112.763
 20
41.0424
 11
112.03
 21
43.0042
  0
LINE
  8
0
 10
112.03
 20
43.0042
 11
111.262
 21
44.9528
  0
LINE
  8
0
 10
111.262
 20
44.9528
 11
110.461
 21
46.8877
  0
LINE
  8
0
 10
110.461
 20
46.8877
 11
109.625
 21
48.8084
  0
LINE
  8
0
 10
109.625
 20
48.8084
 11
108.757
 21
50.7142
  0
LINE
  8
0
 10
108.757
 20
50.7142
 11
107.855
 21
52.6045
  0
LINE
  8
0
 10
107.855
 20
52.6045
 11
106.921
 21
54.4789
  0
LINE
  8
0
 10
106.921
 20
54.4789
 11
105.954
 21
56.3366
  0
LINE
  8
0
 10
105.954
 20
56.3366
 11
104.954
 21
58.1771
  0
LINE
  8
0
 10
104.954
 20
58.1771
 11
103.923
 21
60
  0
LINE
  8
0
 10
103.923
 20
60
 11
102.86
 21
61.8046
  0
LINE
  8
0
 10
102.86
 20
61.8046
 11
101.766
 21
63.5903
  0
LINE
  8
0
 10
101.766
 20
63.5903
 11
100.64
 21
65.3567
  0
LINE
  8
0
 10
100.64
 20
65.3567
 11
99.4845
 21
67.1031
  0
LINE
  8
0
 10
99.4845
 20
67.1031
 11
98.2982
 21
68.8292
  0
LINE
  8
0
 10
98.2982
 20
68.8292
 11
97.082
 21
70.5342
  0
LINE
  8
0
 10
97.082
 20
70.5342
 11
95.8363
 21
72.2178
  0
LINE
  8
0
 10
95.8363
 20
72.2178
 11
94.5613
 21
73.8794
  0
LINE
  8
0
 10
94.5613
 20
73.8794
 11
93.2575
 21
75.5184
  0
LINE
  8
0
 10
93.2575
 20
75.5184
 11
91.9253
 21
77.1345
  0
LINE
  8
0
 10
91.9253
 20
77.1345
 11
90.5651
 21
78.7271
  0
LINE
  8
0
 10
90.5651
 20
78.7271
 11
89.1774
 21
80.2957
  0
LINE
  8
0
 10
89.1774
 20
80.2957
 11
87.7624
 21
81.8398
  0
LINE
  8
0
 10
87.7624
 20
81.8398
 11
86.3208
 21
83.359
  0
LINE
  8
0
 10
86.3208
 20
83.359
 11
84.8528
 21
84.8528
  0
LINE
  8
0
 10
84.8528
 20
84.8528
 11
83.359
 21
86.3208
  0
LINE
  8
0
 10
83.359
 20
86.3208
 11
81.8398
 21
87.7624
  0
LINE
  8
0
 10
81.8398
 20
87.7624
 11
80.2957
 21
89.1774
  0
LINE
  8
0
 10
80.2957
 20
89.1774
 11
78.7271
 21
90.5651
  0
LINE
  8
0
 10
78.7271
 20
90.5651
 11
77.1345
 21
91.9253
  0
LINE
  8
0
 10
77.1345
 20
91.9253
 11
75.5184
 21
93.2575
  0
LINE
  8
0
 10
75.5184
 20
93.2575
 11
73.8794
 21
94.5613
  0
LINE
  8
0
 10
73.8794
 20
94.5613
 11
72.2178
 21
95.8363
  0
LINE
  8
0
 10
72.2178
 20
95.8363
 11
70.5342
 21
97.082
  0
LINE
  8
0
 10
70.5342
 20
97.082
 11
68.8292
 21
98.2982
  0
LINE
  8
0
 10
68.8292
 20
98.2982
 11
67.1031
 21
99.4845
  0
LINE
  8
0
 10
67.1031
 20
99.4845
 11
65.3567
 21
100.64
  0
LINE
  8
0
 10
65.3567
 20
100.64
 11
63.5903
 21
101.766
  0
LINE
  8
0
 10
63.5903
 20
101.766
 11
61.8046
 21
102.86
  0
LINE
  8
0
 10
61.8046
 20
102.86
 11
60
 21
103.923
  0
LINE
  8
0
 10
60
 20
103.923
 11
58.1771
 21
104.954
  0
LINE
  8
0
 10
58.1771
 20
104.954
 11
56.3366
 21
105.954
  0
LINE
  8
0
 10
56.3366
 20
105.954
 11
54.4789
 21
106.921
  0
LINE
  8
0
 10
54.4789
 20
106.921
 11
52.6045
 21
107.855
  0
LINE
  8
0
 10
52.6045
 20
107.855
 11
50.7142
 21
108.757
  0
LINE
  8
0
 10
50.7142
 20
108.757
 11
48.8084
 21
109.625
  0
LINE
  8
0
 10
48.8084
 20
109.625
 11
46.8877
 21
110.461
  0
LINE
  8
0
 10
46.8877
 20
110.461
 11
44.9528
 21
111.262
  0
LINE
  8
0
 10
44.9528
 20
111.262
 11
43.0042
 21
112.03
  0
LINE
  8
0
 10
43.0042
 20
112.03
 11
41.0424
 21
112.763
  0
LINE
  8
0
 10
41.0424
 20
112.763
 11
39.0682
 21
113.462
  0
LINE
  8
0
 10
39.0682
 20
113.462
 11
37.082
 21
114.127
  0
LINE
  8
0
 10
37.082
 20
114.127
 11
35.0846
 21
114.757
  0
LINE
  8
0
 10
35.0846
 20
114.757
 11
33.0765
 21
115.351
  0
LINE
  8
0
 10
33.0765
 20
115.351
 11
31.0583
 21
115.911
  0
LINE
  8
0
 10
31.0583
 20
115.911
 11
29.0306
 21
116.435
  0
LINE
  8
0
 10
29.0306
 20
116.435
 11
26.9941
 21
116.924
  0
LINE
  8
0
 10
26.9941
 20
116.924
 11
24.9494
 21
117.378
  0
LINE
  8
0
 10
24.9494
 20
117.378
 11
22.8971
 21
117.795
  0
LINE
  8
0
 10
22.8971
 20
117.795
 11
20.8378
 21
118.177
  0
LINE
  8
0
 10
20.8378
 20
118.177
 11
18.7721
 21
118.523
  0
LINE
  8
0
 10
18.7721
 20
118.523
 11
16.7008
 21
118.832
  0
LINE
  8
0
 10
16.7008
 20
118.832
 11
14.6243
 21
119.106
  0
LINE
  8
0
 10
14.6243
 20
119.106
 11
12.5434
 21
119.343
  0
LINE
  8
0
 10
12.5434
 20
119.343
 11
10.4587
 21
119.543
  0
LINE
  8
0
 10
10.4587
 20
119.543
 11
8.37077
 21
119.708
  0
LINE
  8
0
 10
8.37077
 20
119.708
 11
6.2803
 21
119.836
  0
LINE
  8
0
 10
6.2803
 20
119.836
 11
4.18793
 21
119.927
  0
LINE
  8
0
 10
4.18793
 20
119.927
 11
2.09428
 21
119.982
  0
LINE
  8
0
 10
2.09428
 20
119.982
 11
0
 21
120
  0
LINE
  8
0
 10
0
 20
120
 11
-2.09428
 21
119.982
  0
LINE
  8
0
 10
-2.09428
 20
119.982
 11
-4.18793
 21
119.927
  0
LINE
  8
0
 10
-4.18793
 20
119.927
 11
-6.2803
 21
119.836
  0
LINE
  8
0
 10
-6.2803
 20
119.836
 11
-8.37077
 21
119.708
  0
LINE
  8
0
 10
-8.37077
 20
119.708
 11
-10.4587
 21
119.543
  0
LINE
  8
0
 10
-10.4587
 20
119.543
 11
-12.5434
 21
119.343
  0
LINE
  8
0
 10
-12.5434
 20
119.343
 11
-14.6243
 21
119.106
  0
LINE
  8
0
 10
-14.6243
 20
119.106
 11
-16.7008
 21
118.832
  0
LINE
  8
0
 10
-16.7008
 20
118.832
 11
-18.7721
 21
118.523
  0
LINE
  8
0
 10
-18.7721
 20
118.523
 11
-20.8378
 21
118.177
  0
LINE
  8
0
 10
-20.8378
 20
118.177
 11
-22.8971
 21
117.795
  0
LINE
  8
0
 10
-22.8971
 20
117.795
 11
-24.9494
 21
117.378
  0
LINE
  8
0
 10
-24.9494
 20
117.378
 11
-26.9941
 21
116.924
  0
LINE
  8
0
 10
-26.9941
 20
116.924
 11
-29.0306
 21
116.435
  0
LINE
  8
0
 10
-29.0306
 20
116.435
 11
-31.0583
 21
115.911
  0
LINE
  8
0
 10
-31.0583
 20
115.911
 11
-33.0765
 21
115.351
  0
LINE
  8
0
 10
-33.0765
 20
115.351
 11
-35.0846
 21
114.757
  0
LINE
  8
0
 10
-35.0846
 20
114.757
 11
-37.082
 21
114.127
  0
LINE
  8
0
 10
-37.082
 20
114.127
 11
-39.0682
 21
113.462
  0
LINE
  8
0
 10
-39.0682
 20
113.462
 11
-41.0424
 21
112.763
  0
LINE
  8
0
 10
-41.0424
 20
112.763
 11
-43.0042
 21
112.03
  0
LINE
  8
0
 10
-43.0042
 20
112.03
 11
-44.9528
 21
111.262
  0
LINE
  8
0
 10
-44.9528
 20
111.262
 11
-46.8877
 21
110.461
  0
LINE
  8
0
 10
-46.8877
 20
110.461
 11
-48.8084
 21
109.625
  0
LINE
  8
0
 10
-48.8084
 20
109.625
 11
-50.7142
 21
108.757
  0
LINE
  8
0
 10
-50.7142
 20
108.757
 11
-52.6045
 21
107.855
  0
LINE
  8
0
 10
-52.6045
 20
107.855
 11
-54.4789
 21
106.921
  0
LINE
  8
0
 10
-54.4789
 20
106.921
 11
-56.3366
 21
105.954
  0
LINE
  8
0
 10
-56.3366
 20
105.954
 11
-58.1771
 21
104.954
  0
LINE
  8
0
 10
-58.1771
 20
104.954
 11
-60
 21
103.923
  0
LINE
  8
0
 10
-60
 20
103.923
 11
-61.8046
 21
102.86
  0
LINE
  8
0
 10
-61.8046
 20
102.86
 11
-63.5903
 21
101.766
  0
LINE
  8
0
 10
-63.5903
 20
101.766
 11
-65.3567
 21
100.64
  0
LINE
  8
0
 10
-65.3567
 20
100.64
 11
-67.1031
 21
99.4845
  0
LINE
  8
0
 10
-67.1031
 20
99.4845
 11
-68.8292
 21
98.2982
  0
LINE
  8
0
 10
-68.8292
 20
98.2982
 11
-70.5342
 21
97.082
  0
LINE
  8
0
 10
-70.5342
 20
97.082
 11
-72.2178
 21
95.8363
  0
LINE
  8
0
 10
-72.2178
 20
95.8363
 11
-73.8794
 21
94.5613
  0
LINE
  8
0
 10
-73.8794
 20
94.5613
 11
-75.5184
 21
93.2575
  0
LINE
  8
0
 10
-75.5184
 20
93.2575
 11
-77.1345
 21
91.9253
  0
LINE
  8
0
 10
-77.1345
 20
91.9253
 11
-78.7271
 21
90.5651
  0
LINE
  8
0
 10
-78.7271
 20
90.5651
 11
-80.2957
 21
89.1774
  0
LINE
  8
0
 10
-80.2957
 20
89.1774
 11
-81.8398
 21
87.7624
  0
LINE
  8
0
 10
-81.8398
 20
87.7624
 11
-83.359
 21
86.3208
  0
LINE
  8
0
 10
-83.359
 20
86.3208
 11
-84.8528
 21
84.8528
  0
LINE
  8
0
 10
-84.8528
 20
84.8528
 11
-86.3208
 21
83.359
  0
LINE
  8
0
 10
-86.3208
 20
83.359
 11
-87.7624
 21
81.8398
  0
LINE
  8
0
 10
-87.7624
 20
81.8398
 11
-89.1774
 21
80.2957
  0
LINE
  8
0
 10
-89.1774
 20
80.2957
 11
-90.5651
 21
78.7271
  0
LINE
  8
0
 10
-90.5651
 20
78.7271
 11
-91.9253
 21
77.1345
  0
LINE
  8
0
 10
-91.9253
 20
77.1345
 11
-93.2575
 21
75.5184
  0
LINE
  8
0
 10
-93.2575
 20
75.5184
 11
-94.5613
 21
73.8794
  0
LINE
  8
0
 10
-94.5613
 20
73.8794
 11
-95.8363
 21
72.2178
  0
LINE
  8
0
 10
-95.8363
 20
72.2178
 11
-97.082
 21
70.5342
  0
LINE
  8
0
 10
-97.082
 20
70.5342
 11
-98.2982
 21
68.8292
  0
LINE
  8
0
 10
-98.2982
 20
68.8292
 11
-99.4845
 21
67.1031
  0
LINE
  8
0
 10
-99.4845
 20
67.1031
 11
-100.64
 21
65.3567
  0
LINE
  8
0
 10
-100.64
 20
65.3567
 11
-101.766
 21
63.5903
  0
LINE
  8
0
 10
-101.766
 20
63.5903
 11
-102.86
 21
61.8046
  0
LINE
  8
0
 10
-102.86
 20
61.8046
 11
-103.923
 21
60
  0
LINE
  8
0
 10
-103.923
 20
60
 11
-104.954
 21
58.1771
  0
LINE
  8
0
 10
-104.954
 20
58.1771
 11
-105.954
 21
56.3366
  0
LINE
  8
0
 10
-105.954
 20
56.3366
 11
-106.921
 21
54.4789
  0
LINE
  8
0
 10
-106.921
 20
54.4789
 11
-107.855
 21
52.6045
  0
LINE
  8
0
 10
-107.855
 20
52.6045
 11
-108.757
 21
50.7142
  0
LINE
  8
0
 10
-108.757
 20
50.7142
 11
-109.625
 21
48.8084
  0
LINE
  8
0
 10
-109.625
 20
48.8084
 11
-110.461
 21
46.8877
  0
LINE
  8
0
 10
-110.461
 20
46.8877
 11
-111.262
 21
44.9528
  0
LINE
  8
0
 10
-111.262
 20
44.9528
 11
-112.03
 21
43.0042
  0
LINE
  8
0
 10
-112.03
 20
43.0042
 11
-112.763
 21
41.0424
  0
LINE
  8
0
 10
-112.763
 20
41.0424
 11
-113.462
 21
39.0682
  0
LINE
  8
0
 10
-113.462
 20
39.0682
 11
-114.127
 21
37.082
  0
LINE
  8
0
 10
-114.127
 20
37.082
 11
-114.757
 21
35.0846
  0
LINE
  8
0
 10
-114.757
 20
35.0846
 11
-115.351
 21
33.0765
  0
LINE
  8
0
 10
-115.351
 20
33.0765
 11
-115.911
 21
31.0583
  0
LINE
  8
0
 10
-115.911
 20
31.0583
 11
-116.435
 21
29.0306
  0
LINE
  8
0
 10
-116.435
 20
29.0306
 11
-116.924
 21
26.9941
  0
LINE
  8
0
 10
-116.924
 20
26.9941
 11
-117.378
 21
24.9494
  0
LINE
  8
0
 10
-117.378
 20
24.9494
 11
-117.795
 21
22.8971
  0
LINE
  8
0
 10
-117.795
 20
22.8971
 11
-118.177
 21
20.8378
  0
LINE
  8
0
 10
-118.177
 20
20.8378
 11
-118.523
 21
18.7721
  0
LINE
  8
0
 10
-118.523
 20
18.7721
 11
-118.832
 21
16.7008
  0
LINE
  8
0
 10
-118.832
 20
16.7008
 11
-119.106
 21
14.6243
  0
LINE
  8
0
 10
-119.106
 20
14.6243
 11
-119.343
 21
12.5434
  0
LINE
  8
0
 10
-119.343
 20
12.5434
 11
-119.543
 21
10.4587
  0
LINE
  8
0
 10
-119.543
 20
10.4587
 11
-119.708
 21
8.37077
  0
LINE
  8
0
 10
-119.708
 20
8.37077
 11
-119.836
 21
6.2803
  0
LINE
  8
0
 10
-119.836
 20
6.2803
 11
-119.927
 21
4.18793
  0
LINE
  8
0
 10
-119.927
 20
4.18793
 11
-119.982
 21
2.09428
  0
LINE
  8
0
 10
-119.982
 20
2.09428
 11
-120
 21
0
  0
LINE
  8
0
 10
-120
 20
0
 11
-119.982
 21
-2.09428
  0
LINE
  8
0
 10
-119.982
 20
-2.09428
 11
-119.927
 21
-4.18793
  0
LINE
  8
0
 10
-119.927
 20
-4.18793
 11
-119.836
 21
-6.2803
  0
LINE
  8
0
 10
-119.836
 20
-6.2803
 11
-119.708
 21
-8.37077
  0
LINE
  8
0
 10
-119.708
 20
-8.37077
 11
-119.543
 21
-10.4587
  0
LINE
  8
0
 10
-119.543
 20
-10.4587
 11
-119.343
 21
-12.5434
  0
LINE
  8
0
 10
-119.343
 20
-12.5434
 11
-119.106
 21
-14.6243
  0
LINE
  8
0
 10
-119.106
 20
-14.6243
 11
-118.832
 21
-16.7008
  0
LINE
  8
0
 10
-118.832
 20
-16.7008
 11
-118.523
 21
-18.7721
  0
LINE
  8
0
 10
-118.523
 20
-18.7721
 11
-118.177
 21
-20.8378
  0
LINE
  8
0
 10
-118.177
 20
-20.8378
 11
-117.795
 21
-22.8971
  0
LINE
  8
0
 10
-117.795
 20
-22.8971
 11
-117.378
 21
-24.9494
  0
LINE
  8
0
 10
-117.378
 20
-24.9494
 11
-116.924
 21
-26.9941
  0
LINE
  8
0
 10
-116.924
 20
-26.9941
 11
-116.435
 21
-29.0306
  0
LINE
  8
0
 10
-116.435
 20
-29.0306
 11
-115.911
 21
-31.0583
  0
LINE
  8
0
 10
-115.911
 20
-31.0583
 11
-115.351
 21
-33.0765
  0
LINE
  8
0
 10
-115.351
 20
-33.0765
 11
-114.757
 21
-35.0846
  0
LINE
  8
0
 10
-114.757
 20
-35.0846
 11
-114.127
 21
-37.082
  0
LINE
  8
0
 10
-114.127
 20
-37.082
 11
-113.462
 21
-39.0682
  0
LINE
  8
0
 10
-113.462
 20
-39.0682
 11
-112.763
 21
-41.0424
  0
LINE
  8
0
 10
-112.763
 20
-41.0424
 11
-112.03
 21
-43.0042
  0
LINE
  8
0
 10
-112.03
 20
-43.0042
 11
-111.262
 21
-44.9528
  0
LINE
  8
0
 10
-111.262
 20
-44.9528
 11
-110.461
 21
-46.8877
  0
LINE
  8
0
 10
-110.461
 20
-46.8877
 11
-109.625
 21
-48.8084
  0
LINE
  8
0
 10
-109.625
 20
-48.8084
 11
-108.757
 21
-50.7142
  0
LINE
  8
0
 10
-108.757
 20
-50.7142
 11
-107.855
 21
-52.6045
  0
LINE
  8
0
 10
-107.855
 20
-52.6045
 11
-106.921
 21
-54.4789
  0
LINE
  8
0
 10
-106.921
 20
-54.4789
 11
-105.954
 21
-56.3366
  0
LINE
  8
0
 10
-105.954
 20
-56.3366
 11
-104.954
 21
-58.1771
  0
LINE
  8
0
 10
-104.954
 20
-58.1771
 11
-103.923
 21
-60
  0
LINE
  8
0
 10
-103.923
 20
-60
 11
-102.86
 21
-61.8046
  0
LINE
  8
0
 10
-102.86
 20
-61.8046
 11
-101.766
 21
-63.5903
  0
LINE
  8
0
 10
-101.766
 20
-63.5903
 11
-100.64
 21
-65.3567
  0
LINE
  8
0
 10
-100.64
 20
-65.3567
 11
-99.4845
 21
-67.1031
  0
LINE
  8
0
 10
-99.4845
 20
-67.1031
 11
-98.2982
 21
-68.8292
  0
LINE
  8
0
 10
-98.2982
 20
-68.8292
 11
-97.082
 21
-70.5342
  0
LINE
  8
0
 10
-97.082
 20
-70.5342
 11
-95.8363
 21
-72.2178
  0
LINE
  8
0
 10
-95.8363
 20
-72.2178
 11
-94.5613
 21
-73.8794
  0
LINE
  8
0
 10
-94.5613
 20
-73.8794
 11
-93.2575
 21
-75.5184
  0
LINE
  8
0
 10
-93.2575
 20
-75.5184
 11
-91.9253
 21
-77.1345
  0
LINE
  8
0
 10
-91.9253
 20
-77.1345
 11
-90.5651
 21
-78.7271
  0
LINE
  8
0
 10
-90.5651
 20
-78.7271
 11
-89.1774
 21
-80.2957
  0
LINE
  8
0
 10
-89.1774
 20
-80.2957
 11
-87.7624
 21
-81.8398
  0
LINE
  8
0
 10
-87.7624
 20
-81.8398
 11
-86.3208
 21
-83.359
  0
LINE
  8
0
 10
-86.3208
 20
-83.359
 11
-84.8528
 21
-84.8528
  0
LINE
  8
0
 10
-84.8528
 20
-84.8528
 11
-83.359
 21
-86.3208
  0
LINE
  8
0
 10
-83.359
 20
-86.3208
 11
-81.8398
 21
-87.7624
  0
LINE
  8
0
 10
-81.8398
 20
-87.7624
 11
-80.2957
 21
-89.1774
  0
LINE
  8
0
 10
-80.2957
 20
-89.1774
 11
-78.7271
 21
-90.5651
  0
LINE
  8
0
 10
-78.7271
 20
-90.5651
 11
-77.1345
 21
-91.9253
  0
LINE
  8
0
 10
-77.1345
 20
-91.9253
 11
-75.5184
 21
-93.2575
  0
LINE
  8
0
 10
-75.5184
 20
-93.2575
 11
-73.8794
 21
-94.5613
  0
LINE
  8
0
 10
-73.8794
 20
-94.5613
 11
-72.2178
 21
-95.8363
  0
LINE
  8
0
 10
-72.2178
 20
-95.8363
 11
-70.5342
 21
-97.082
  0
LINE
  8
0
 10
-70.5342
 20
-97.082
 11
-68.8292
 21
-98.2982
  0
LINE
  8
0
 10
-68.8292
 20
-98.2982
 11
-67.1031
 21
-99.4845
  0
LINE
  8
0
 10
-67.1031
 20
-99.4845
 11
-65.3567
 21
-100.64
  0
LINE
  8
0
 10
-65.3567
 20
-100.64
 11
-63.5903
 21
-101.766
  0
LINE
  8
0
 10
-63.5903
 20
-101.766
 11
-61.8046
 21
-102.86
  0
LINE
  8
0
 10
-61.8046
 20
-102.86
 11
-60
 21
-103.923
  0
LINE
  8
0
 10
-60
 20
-103.923
 11
-58.1771
 21
-104.954
  0
LINE
  8
0
 10
-58.1771
 20
-104.954
 11
-56.3366
 21
-105.954
  0
LINE
  8
0
 10
-56.3366
 20
-105.954
 11
-54.4789
 21
-106.921
  0
LINE
  8
0
 10
-54.4789
 20
-106.921
 11
-52.6045
 21
-107.855
  0
LINE
  8
0
 10
-52.6045
 20
-107.855
 11
-50.7142
 21
-108.757
  0
LINE
  8
0
 10
-50.7142
 20
-108.757
 11
-48.8084
 21
-109.625
  0
LINE
  8
0
 10
-48.8084
 20
-109.625
 11
-46.8877
 21
-110.461
  0
LINE
  8
0
 10
-46.8877
 20
-110.461
 11
-44.9528
 21
-111.262
  0
LINE
  8
0
 10
-44.9528
 20
-111.262
 11
-43.0042
 21
-112.03
  0
LINE
  8
0
 10
-43.0042
 20
-112.03
 11
-41.0424
 21
-112.763
  0
LINE
  8
0
 10
-41.0424
 20
-112.763
 11
-39.0682
 21
-113.462
  0
LINE
  8
0
 10
-39.0682
 20
-113.462
 11
-37.082
 21
-114.127
  0
LINE
  8
0
 10
-37.082
 20
-114.127
 11
-35.0846
 21
-114.757
  0
LINE
  8
0
 10
-35.0846
 20
-114.757
 11
-33.0765
 21
-115.351
  0
LINE
  8
0
 10
-33.0765
 20
-115.351
 11
-31.0583
 21
-115.911
  0
LINE
  8
0
 10
-31.0583
 20
-115.911
 11
-29.0306
 21
-116.435
  0
LINE
  8
0
 10
-29.0306
 20
-116.435
 11
-26.9941
 21
-116.924
  0
LINE
  8
0
 10
-26.9941
 20
-116.924
 11
-24.9494
 21
-117.378
  0
LINE
  8
0
 10
-24.9494
 20
-117.378
 11
-22.8971
 21
-117.795
  0
LINE
  8
0
 10
-22.8971
 20
-117.795
 11
-20.8378
 21
-118.177
  0
LINE
  8
0
 10
-20.8378
 20
-118.177
 11
-18.7721
 21
-118.523
  0
LINE
  8
0
 10
-18.7721
 20
-118.523
 11
-16.7008
 21
-118.832
  0
LINE
  8
0
 10
-16.7008
 20
-118.832
 11
-14.6243
 21
-119.106
  0
LINE
  8
0
 10
-14.6243
 20
-119.106
 11
-12.5434
 21
-119.343
  0
LINE
  8
0
 10
-12.5434
 20
-119.343
 11
-10.4587
 21
-119.543
  0
LINE
  8
0
 10
-10.4587
 20
-119.543
 11
-8.37077
 21
-119.708
  0
LINE
  8
0
 10
-8.37077
 20
-119.708
 11
-6.2803
 21
-119.836
  0
LINE
  8
0
 10
-6.2803
 20
-119.836
 11
-4.18793
 21
-119.927
  0
LINE
  8
0
 10
-4.18793
 20
-119.927
 11
-2.09428
 21
-119.982
  0
LINE
  8
0
 10
-2.09428
 20
-119.982
 11
0
 21
-120
  0
LINE
  8
0
 10
0
 20
-120
 11
2.09428
 21
-119.982
  0
LINE
  8
0
 10
-8.5
 20
105
 11
-8.5
 21
115
  0
LINE
  8
0
 10
-8.5
 20
115
 11
-5.5
 21
115
  0
LINE
  8
0
 10
-5.5
 20
115
 11
-5.5
 21
105
  0
LINE
  8
0
 10
-5.5
 20
105
 11
-8.5
 21
105
  0
LINE
  8
0
 10
5.5
 20
105
 11
5.5
 21
115
  0
LINE
  8
0
 10
5.5
 20
115
 11
8.5
 21
115
  0
LINE
  8
0
 10
8.5
 20
115
 11
8.5
 21
105
  0
LINE
  8
0
 10
8.5
 20
105
 11
5.5
 21
105
  0
LINE
  8
0
 10
18.9656
 20
103.622
 11
21.5538
 21
113.281
  0
LINE
  8
0
 10
21.5538
 20
113.281
 11
24.4516
 21
112.505
  0
LINE
  8
0
 10
24.4516
 20
112.505
 11
21.8634
 21
102.846
  0
LINE
  8
0
 10
21.8634
 20
102.846
 11
18.9656
 21
103.622
  0
LINE
  8
0
 10
-24.4516
 20
112.505
 11
-21.5538
 21
113.281
  0
LINE
  8
0
 10
-21.5538
 20
113.281
 11
-18.9656
 21
103.622
  0
LINE
  8
0
 10
-18.9656
 20
103.622
 11
-21.8634
 21
102.846
  0
LINE
  8
0
 10
-21.8634
 20
102.846
 11
-24.4516
 21
112.505
  0
LINE
  8
0
 10
32.4886
 20
99.9987
 11
35.0768
 21
109.658
  0
LINE
  8
0
 10
35.0768
 20
109.658
 11
37.9745
 21
108.882
  0
LINE
  8
0
 10
37.9745
 20
108.882
 11
35.3864
 21
99.2222
  0
LINE
  8
0
 10
35.3864
 20
99.2222
 11
32.4886
 21
99.9987
  0
LINE
  8
0
 10
-37.9745
 20
108.882
 11
-35.0768
 21
109.658
  0
LINE
  8
0
 10
-35.0768
 20
109.658
 11
-32.4886
 21
99.9987
  0
LINE
  8
0
 10
-32.4886
 20
99.9987
 11
-35.3864
 21
99.2222
  0
LINE
  8
0
 10
-35.3864
 20
99.2222
 11
-37.9745
 21
108.882
  0
LINE
  8
0
 10
-52.7368
 20
102.343
 11
-50.1388
 21
103.843
  0
LINE
  8
0
 10
-50.1388
 20
103.843
 11
-45.1388
 21
95.1827
  0
LINE
  8
0
 10
-45.1388
 20
95.1827
 11
-47.7368
 21
93.6827
  0
LINE
  8
0
 10
-47.7368
 20
93.6827
 11
-52.7368
 21
102.343
  0
LINE
  8
0
 10
45.1388
 20
95.1827
 11
50.1388
 21
103.843
  0
LINE
  8
0
 10
50.1388
 20
103.843
 11
52.7368
 21
102.343
  0
LINE
  8
0
 10
52.7368
 20
102.343
 11
47.7368
 21
93.6827
  0
LINE
  8
0
 10
47.7368
 20
93.6827
 11
45.1388
 21
95.1827
  0
LINE
  8
0
 10
-0.382675
 20
99.0761
 11
-0.707092
 21
99.2929
  0
LINE
  8
0
 10
-0.707092
 20
99.2929
 11
-0.923874
 21
99.6173
  0
LINE
  8
0
 10
-0.923874
 20
99.6173
 11
-1
 21
100
  0
LINE
  8
0
 10
-1
 20
100
 11
-0.923874
 21
100.383
  0
LINE
  8
0
 10
-0.923874
 20
100.383
 11
-0.707092
 21
100.707
  0
LINE
  8
0
 10
-0.707092
 20
100.707
 11
-0.382675
 21
100.924
  0
LINE
  8
0
 10
-0.382675
 20
100.924
 11
0
 21
101
  0
LINE
  8
0
 10
0
 20
101
 11
0.382675
 21
100.924
  0
LINE
  8
0
 10
0.382675
 20
100.924
 11
0.707092
 21
100.707
  0
LINE
  8
0
 10
0.707092
 20
100.707
 11
0.923874
 21
100.383
  0
LINE
  8
0
 10
0.923874
 20
100.383
 11
1
 21
100
  0
LINE
  8
0
 10
1
 20
100
 11
0.923874
 21
99.6173
  0
LINE
  8
0
 10
0.923874
 20
99.6173
 11
0.707092
 21
99.2929
  0
LINE
  8
0
 10
0.707092
 20
99.2929
 11
0.382675
 21
99.0761
  0
LINE
  8
0
 10
0.382675
 20
99.0761
 11
0
 21
99
  0
LINE
  8
0
 10
0
 20
99
 11
-0.382675
 21
99.0761
  0
LINE
  8
0
 10
57.2631
 20
88.1827
 11
62.2631
 21
96.8429
  0
LINE
  8
0
 10
62.2631
 20
96.8429
 11
64.8612
 21
95.3429
  0
LINE
  8
0
 10
64.8612
 20
95.3429
 11
59.8612
 21
86.6827
  0
LINE
  8
0
 10
59.8612
 20
86.6827
 11
57.2631
 21
88.1827
  0
LINE
  8
0
 10
-64.8612
 20
95.3429
 11
-62.2631
 21
96.8429
  0
LINE
  8
0
 10
-62.2631
 20
96.8429
 11
-57.2631
 21
88.1827
  0
LINE
  8
0
 10
-57.2631
 20
88.1827
 11
-59.8612
 21
86.6827
  0
LINE
  8
0
 10
-59.8612
 20
86.6827
 11
-64.8612
 21
95.3429
  0
LINE
  8
0
 10
-1.65797
 20
-94.9855
 11
-3.31544
 21
-94.9421
  0
LINE
  8
0
 10
-3.31544
 20
-94.9421
 11
-4.97191
 21
-94.8698
  0
LINE
  8
0
 10
-4.97191
 20
-94.8698
 11
-6.62686
 21
-94.7686
  0
LINE
  8
0
 10
-6.62686
 20
-94.7686
 11
-8.27979
 21
-94.6385
  0
LINE
  8
0
 10
-8.27979
 20
-94.6385
 11
-9.93019
 21
-94.4796
  0
LINE
  8
0
 10
-9.93019
 20
-94.4796
 11
-11.5776
 21
-94.2919
  0
LINE
  8
0
 10
-11.5776
 20
-94.2919
 11
-13.2214
 21
-94.0755
  0
LINE
  8
0
 10
-13.2214
 20
-94.0755
 11
-14.8613
 21
-93.8304
  0
LINE
  8
0
 10
-14.8613
 20
-93.8304
 11
-16.4966
 21
-93.5567
  0
LINE
  8
0
 10
-16.4966
 20
-93.5567
 11
-18.1268
 21
-93.2546
  0
LINE
  8
0
 10
-18.1268
 20
-93.2546
 11
-19.7516
 21
-92.924
  0
LINE
  8
0
 10
-19.7516
 20
-92.924
 11
-21.3703
 21
-92.5652
  0
LINE
  8
0
 10
-21.3703
 20
-92.5652
 11
-22.9826
 21
-92.1781
  0
LINE
  8
0
 10
-22.9826
 20
-92.1781
 11
-24.5878
 21
-91.7629
  0
LINE
  8
0
 10
-24.5878
 20
-91.7629
 11
-26.1855
 21
-91.3199
  0
LINE
  8
0
 10
-26.1855
 20
-91.3199
 11
-27.7753
 21
-90.8489
  0
LINE
  8
0
 10
-27.7753
 20
-90.8489
 11
-29.3566
 21
-90.3504
  0
LINE
  8
0
 10
-29.3566
 20
-90.3504
 11
-30.929
 21
-89.8243
  0
LINE
  8
0
 10
-30.929
 20
-89.8243
 11
-32.4919
 21
-89.2708
  0
LINE
  8
0
 10
-32.4919
 20
-89.2708
 11
-34.045
 21
-88.6901
  0
LINE
  8
0
 10
-34.045
 20
-88.6901
 11
-35.5876
 21
-88.0825
  0
LINE
  8
0
 10
-35.5876
 20
-88.0825
 11
-37.1194
 21
-87.448
  0
LINE
  8
0
 10
-37.1194
 20
-87.448
 11
-38.64
 21
-86.7868
  0
LINE
  8
0
 10
-38.64
 20
-86.7868
 11
-40.1487
 21
-86.0992
  0
LINE
  8
0
 10
-40.1487
 20
-86.0992
 11
-41.6452
 21
-85.3854
  0
LINE
  8
0
 10
-41.6452
 20
-85.3854
 11
-43.1291
 21
-84.6456
  0
LINE
  8
0
 10
-43.1291
 20
-84.6456
 11
-44.5998
 21
-83.88
  0
LINE
  8
0
 10
-44.5998
 20
-83.88
 11
-46.0569
 21
-83.0889
  0
LINE
  8
0
 10
-46.0569
 20
-83.0889
 11
-47.5
 21
-82.2724
  0
LINE
  8
0
 10
-47.5
 20
-82.2724
 11
-48.9286
 21
-81.4309
  0
LINE
  8
0
 10
-48.9286
 20
-81.4309
 11
-50.3423
 21
-80.5646
  0
LINE
  8
0
 10
-50.3423
 20
-80.5646
 11
-51.7407
 21
-79.6737
  0
LINE
  8
0
 10
-51.7407
 20
-79.6737
 11
-53.1233
 21
-78.7586
  0
LINE
  8
0
 10
-53.1233
 20
-78.7586
 11
-54.4898
 21
-77.8194
  0
LINE
  8
0
 10
-54.4898
 20
-77.8194
 11
-55.8396
 21
-76.8566
  0
LINE
  8
0
 10
-55.8396
 20
-76.8566
 11
-57.1724
 21
-75.8704
  0
LINE
  8
0
 10
-57.1724
 20
-75.8704
 11
-58.4878
 21
-74.861
  0
LINE
  8
0
 10
-58.4878
 20
-74.861
 11
-59.7854
 21
-73.8289
  0
LINE
  8
0
 10
-59.7854
 20
-73.8289
 11
-61.0648
 21
-72.7742
  0
LINE
  8
0
 10
-61.0648
 20
-72.7742
 11
-62.3256
 21
-71.6974
  0
LINE
  8
0
 10
-62.3256
 20
-71.6974
 11
-63.5674
 21
-70.5988
  0
LINE
  8
0
 10
-63.5674
 20
-70.5988
 11
-64.7898
 21
-69.4786
  0
LINE
  8
0
 10
-64.7898
 20
-69.4786
 11
-65.9925
 21
-68.3373
  0
LINE
  8
0
 10
-65.9925
 20
-68.3373
 11
-67.1751
 21
-67.1751
  0
LINE
  8
0
 10
-67.1751
 20
-67.1751
 11
-68.3373
 21
-65.9925
  0
LINE
  8
0
 10
-68.3373
 20
-65.9925
 11
-69.4786
 21
-64.7898
  0
LINE
  8
0
 10
-69.4786
 20
-64.7898
 11
-70.5988
 21
-63.5674
  0
LINE
  8
0
 10
-70.5988
 20
-63.5674
 11
-71.6974
 21
-62.3256
  0
LINE
  8
0
 10
-71.6974
 20
-62.3256
 11
-72.7742
 21
-61.0648
  0
LINE
  8
0
 10
-72.7742
 20
-61.0648
 11
-73.8289
 21
-59.7854
  0
LINE
  8
0
 10
-73.8289
 20
-59.7854
 11
-74.861
 21
-58.4878
  0
LINE
  8
0
 10
-74.861
 20
-58.4878
 11
-75.8704
 21
-57.1724
  0
LINE
  8
0
 10
-75.8704
 20
-57.1724
 11
-76.8566
 21
-55.8396
  0
LINE
  8
0
 10
-76.8566
 20
-55.8396
 11
-77.8194
 21
-54.4898
  0
LINE
  8
0
 10
-77.8194
 20
-54.4898
 11
-78.7586
 21
-53.1233
  0
LINE
  8
0
 10
-78.7586
 20
-53.1233
 11
-79.6737
 21
-51.7407
  0
LINE
  8
0
 10
-79.6737
 20
-51.7407
 11
-80.5646
 21
-50.3423
  0
LINE
  8
0
 10
-80.5646
 20
-50.3423
 11
-81.4309
 21
-48.9286
  0
LINE
  8
0
 10
-81.4309
 20
-48.9286
 11
-82.2724
 21
-47.5
  0
LINE
  8
0
 10
-82.2724
 20
-47.5
 11
-83.0889
 21
-46.0569
  0
LINE
  8
0
 10
-83.0889
 20
-46.0569
 11
-83.88
 21
-44.5998
  0
LINE
  8
0
 10
-83.88
 20
-44.5998
 11
-84.6456
 21
-43.1291
  0
LINE
  8
0
 10
-84.6456
 20
-43.1291
 11
-85.3854
 21
-41.6452
  0
LINE
  8
0
 10
-85.3854
 20
-41.6452
 11
-86.0992
 21
-40.1487
  0
LINE
  8
0
 10
-86.0992
 20
-40.1487
 11
-86.7868
 21
-38.64
  0
LINE
  8
0
 10
-86.7868
 20
-38.64
 11
-87.448
 21
-37.1194
  0
LINE
  8
0
 10
-87.448
 20
-37.1194
 11
-88.0825
 21
-35.5876
  0
LINE
  8
0
 10
-88.0825
 20
-35.5876
 11
-88.6901
 21
-34.045
  0
LINE
  8
0
 10
-88.6901
 20
-34.045
 11
-89.2708
 21
-32.4919
  0
LINE
  8
0
 10
-89.2708
 20
-32.4919
 11
-89.8243
 21
-30.929
  0
LINE
  8
0
 10
-89.8243
 20
-30.929
 11
-90.3504
 21
-29.3566
  0
LINE
  8
0
 10
-90.3504
 20
-29.3566
 11
-90.8489
 21
-27.7753
  0
LINE
  8
0
 10
-90.8489
 20
-27.7753
 11
-91.3199
 21
-26.1855
  0
LINE
  8
0
 10
-91.3199
 20
-26.1855
 11
-91.7629
 21
-24.5878
  0
LINE
  8
0
 10
-91.7629
 20
-24.5878
 11
-92.1781
 21
-22.9826
  0
LINE
  8
0
 10
-92.1781
 20
-22.9826
 11
-92.5652
 21
-21.3703
  0
LINE
  8
0
 10
-92.5652
 20
-21.3703
 11
-92.924
 21
-19.7516
  0
LINE
  8
0
 10
-92.924
 20
-19.7516
 11
-93.2546
 21
-18.1268
  0
LINE
  8
0
 10
-93.2546
 20
-18.1268
 11
-93.5567
 21
-16.4966
  0
LINE
  8
0
 10
-93.5567
 20
-16.4966
 11
-93.8304
 21
-14.8613
  0
LINE
  8
0
 10
-93.8304
 20
-14.8613
 11
-94.0755
 21
-13.2214
  0
LINE
  8
0
 10
-94.0755
 20
-13.2214
 11
-94.2919
 21
-11.5776
  0
LINE
  8
0
 10
-94.2919
 20
-11.5776
 11
-94.4796
 21
-9.93019
  0
LINE
  8
0
 10
-94.4796
 20
-9.93019
 11
-94.6385
 21
-8.27979
  0
LINE
  8
0
 10
-94.6385
 20
-8.27979
 11
-94.7686
 21
-6.62686
  0
LINE
  8
0
 10
-94.7686
 20
-6.62686
 11
-94.8698
 21
-4.97191
  0
LINE
  8
0
 10
-94.8698
 20
-4.97191
 11
-94.9421
 21
-3.31544
  0
LINE
  8
0
 10
-94.9421
 20
-3.31544
 11
-94.9855
 21
-1.65797
  0
LINE
  8
0
 10
-94.9855
 20
-1.65797
 11
-95
 21
0
  0
LINE
  8
0
 10
-95
 20
0
 11
-94.9855
 21
1.65797
  0
LINE
  8
0
 10
-94.9855
 20
1.65797
 11
-94.9421
 21
3.31544
  0
LINE
  8
0
 10
-94.9421
 20
3.31544
 11
-94.8698
 21
4.97191
  0
LINE
  8
0
 10
-94.8698
 20
4.97191
 11
-94.7686
 21
6.62686
  0
LINE
  8
0
 10
-94.7686
 20
6.62686
 11
-94.6385
 21
8.27979
  0
LINE
  8
0
 10
-94.6385
 20
8.27979
 11
-94.4796
 21
9.93019
  0
LINE
  8
0
 10
-94.4796
 20
9.93019
 11
-94.2919
 21
11.5776
  0
LINE
  8
0
 10
-94.2919
 20
11.5776
 11
-94.0755
 21
13.2214
  0
LINE
  8
0
 10
-94.0755
 20
13.2214
 11
-93.8304
 21
14.8613
  0
LINE
  8
0
 10
-93.8304
 20
14.8613
 11
-93.5567
 21
16.4966
  0
LINE
  8
0
 10
-93.5567
 20
16.4966
 11
-93.2546
 21
18.1268
  0
LINE
  8
0
 10
-93.2546
 20
18.1268
 11
-92.924
 21
19.7516
  0
LINE
  8
0
 10
-92.924
 20
19.7516
 11
-92.5652
 21
21.3703
  0
LINE
  8
0
 10
-92.5652
 20
21.3703
 11
-92.1781
 21
22.9826
  0
LINE
  8
0
 10
-92.1781
 20
22.9826
 11
-91.7629
 21
24.5878
  0
LINE
  8
0
 10
-91.7629
 20
24.5878
 11
-91.3199
 21
26.1855
  0
LINE
  8
0
 10
-91.3199
 20
26.1855
 11
-90.8489
 21
27.7753
  0
LINE
  8
0
 10
-90.8489
 20
27.7753
 11
-90.3504
 21
29.3566
  0
LINE
  8
0
 10
-90.3504
 20
29.3566
 11
-89.8243
 21
30.929
  0
LINE
  8
0
 10
-89.8243
 20
30.929
 11
-89.2708
 21
32.4919
  0
LINE
  8
0
 10
-89.2708
 20
32.4919
 11
-88.6901
 21
34.045
  0
LINE
  8
0
 10
-88.6901
 20
34.045
 11
-88.0825
 21
35.5876
  0
LINE
  8
0
 10
-88.0825
 20
35.5876
 11
-87.448
 21
37.1194
  0
LINE
  8
0
 10
-87.448
 20
37.1194
 11
-86.7868
 21
38.64
  0
LINE
  8
0
 10
-86.7868
 20
38.64
 11
-86.0992
 21
40.1487
  0
LINE
  8
0
 10
-86.0992
 20
40.1487
 11
-85.3854
 21
41.6452
  0
LINE
  8
0
 10
-85.3854
 20
41.6452
 11
-84.6456
 21
43.1291
  0
LINE
  8
0
 10
-84.6456
 20
43.1291
 11
-83.88
 21
44.5998
  0
LINE
  8
0
 10
-83.88
 20
44.5998
 11
-83.0889
 21
46.0569
  0
LINE
  8
0
 10
-83.0889
 20
46.0569
 11
-82.2724
 21
47.5
  0
LINE
  8
0
 10
-82.2724
 20
47.5
 11
-81.4309
 21
48.9286
  0
LINE
  8
0
 10
-81.4309
 20
48.9286
 11
-80.5646
 21
50.3423
  0
LINE
  8
0
 10
-80.5646
 20
50.3423
 11
-79.6737
 21
51.7407
  0
LINE
  8
0
 10
-79.6737
 20
51.7407
 11
-78.7586
 21
53.1233
  0
LINE
  8
0
 10
-78.7586
 20
53.1233
 11
-77.8194
 21
54.4898
  0
LINE
  8
0
 10
-77.8194
 20
54.4898
 11
-76.8566
 21
55.8396
  0
LINE
  8
0
 10
-76.8566
 20
55.8396
 11
-75.8704
 21
57.1724
  0
LINE
  8
0
 10
-75.8704
 20
57.1724
 11
-74.861
 21
58.4878
  0
LINE
  8
0
 10
-74.861
 20
58.4878
 11
-73.8289
 21
59.7854
  0
LINE
  8
0
 10
-73.8289
 20
59.7854
 11
-72.7742
 21
61.0648
  0
LINE
  8
0
 10
-72.7742
 20
61.0648
 11
-71.6974
 21
62.3256
  0
LINE
  8
0
 10
-71.6974
 20
62.3256
 11
-70.5988
 21
63.5674
  0
LINE
  8
0
 10
-70.5988
 20
63.5674
 11
-69.4786
 21
64.7898
  0
LINE
  8
0
 10
-69.4786
 20
64.7898
 11
-68.3373
 21
65.9925
  0
LINE
  8
0
 10
-68.3373
 20
65.9925
 11
-67.1751
 21
67.1751
  0
LINE
  8
0
 10
-67.1751
 20
67.1751
 11
-65.9925
 21
68.3373
  0
LINE
  8
0
 10
-65.9925
 20
68.3373
 11
-64.7898
 21
69.4786
  0
LINE
  8
0
 10
-64.7898
 20
69.4786
 11
-63.5674
 21
70.5988
  0
LINE
  8
0
 10
-63.5674
 20
70.5988
 11
-62.3256
 21
71.6974
  0
LINE
  8
0
 10
-62.3256
 20
71.6974
 11
-61.0648
 21
72.7742
  0
LINE
  8
0
 10
-61.0648
 20
72.7742
 11
-59.7854
 21
73.8289
  0
LINE
  8
0
 10
-59.7854
 20
73.8289
 11
-58.4878
 21
74.861
  0
LINE
  8
0
 10
-58.4878
 20
74.861
 11
-57.1724
 21
75.8704
  0
LINE
  8
0
 10
-57.1724
 20
75.8704
 11
-55.8396
 21
76.8566
  0
LINE
  8
0
 10
-55.8396
 20
76.8566
 11
-54.4898
 21
77.8194
  0
LINE
  8
0
 10
-54.4898
 20
77.8194
 11
-53.1233
 21
78.7586
  0
LINE
  8
0
 10
-53.1233
 20
78.7586
 11
-51.7407
 21
79.6737
  0
LINE
  8
0
 10
-51.7407
 20
79.6737
 11
-50.3423
 21
80.5646
  0
LINE
  8
0
 10
-50.3423
 20
80.5646
 11
-48.9286
 21
81.4309
  0
LINE
  8
0
 10
-48.9286
 20
81.4309
 11
-47.5
 21
82.2724
  0
LINE
  8
0
 10
-47.5
 20
82.2724
 11
-46.0569
 21
83.0889
  0
LINE
  8
0
 10
-46.0569
 20
83.0889
 11
-44.5998
 21
83.88
  0
LINE
  8
0
 10
-44.5998
 20
83.88
 11
-43.1291
 21
84.6456
  0
LINE
  8
0
 10
-43.1291
 20
84.6456
 11
-41.6452
 21
85.3854
  0
LINE
  8
0
 10
-41.6452
 20
85.3854
 11
-40.1487
 21
86.0992
  0
LINE
  8
0
 10
-40.1487
 20
86.0992
 11
-38.64
 21
86.7868
  0
LINE
  8
0
 10
-38.64
 20
86.7868
 11
-37.1194
 21
87.448
  0
LINE
  8
0
 10
-37.1194
 20
87.448
 11
-35.5876
 21
88.0825
  0
LINE
  8
0
 10
-35.5876
 20
88.0825
 11
-34.045
 21
88.6901
  0
LINE
  8
0
 10
-34.045
 20
88.6901
 11
-32.4919
 21
89.2708
  0
LINE
  8
0
 10
-32.4919
 20
89.2708
 11
-30.929
 21
89.8243
  0
LINE
  8
0
 10
-30.929
 20
89.8243
 11
-29.3566
 21
90.3504
  0
LINE
  8
0
 10
-29.3566
 20
90.3504
 11
-27.7753
 21
90.8489
  0
LINE
  8
0
 10
-27.7753
 20
90.8489
 11
-26.1855
 21
91.3199
  0
LINE
  8
0
 10
-26.1855
 20
91.3199
 11
-24.5878
 21
91.7629
  0
LINE
  8
0
 10
-24.5878
 20
91.7629
 11
-22.9826
 21
92.1781
  0
LINE
  8
0
 10
-22.9826
 20
92.1781
 11
-21.3703
 21
92.5652
  0
LINE
  8
0
 10
-21.3703
 20
92.5652
 11
-19.7516
 21
92.924
  0
LINE
  8
0
 10
-19.7516
 20
92.924
 11
-18.1268
 21
93.2546
  0
LINE
  8
0
 10
-18.1268
 20
93.2546
 11
-16.4966
 21
93.5567
  0
LINE
  8
0
 10
-16.4966
 20
93.5567
 11
-14.8613
 21
93.8304
  0
LINE
  8
0
 10
-14.8613
 20
93.8304
 11
-13.2214
 21
94.0755
  0
LINE
  8
0
 10
-13.2214
 20
94.0755
 11
-11.5776
 21
94.2919
  0
LINE
  8
0
 10
-11.5776
 20
94.2919
 11
-9.93019
 21
94.4796
  0
LINE
  8
0
 10
-9.93019
 20
94.4796
 11
-8.27979
 21
94.6385
  0
LINE
  8
0
 10
-8.27979
 20
94.6385
 11
-6.62686
 21
94.7686
  0
LINE
  8
0
 10
-6.62686
 20
94.7686
 11
-4.97191
 21
94.8698
  0
LINE
  8
0
 10
-4.97191
 20
94.8698
 11
-3.31544
 21
94.9421
  0
LINE
  8
0
 10
-3.31544
 20
94.9421
 11
-1.65797
 21
94.9855
  0
LINE
  8
0
 10
-1.65797
 20
94.9855
 11
0
 21
95
  0
LINE
  8
0
 10
0
 20
95
 11
1.65797
 21
94.9855
  0
LINE
  8
0
 10
1.65797
 20
94.9855
 11
3.31544
 21
94.9421
  0
LINE
  8
0
 10
3.31544
 20
94.9421
 11
4.97191
 21
94.8698
  0
LINE
  8
0
 10
4.97191
 20
94.8698
 11
6.62686
 21
94.7686
  0
LINE
  8
0
 10
6.62686
 20
94.7686
 11
8.27979
 21
94.6385
  0
LINE
  8
0
 10
8.27979
 20
94.6385
 11
9.93019
 21
94.4796
  0
LINE
  8
0
 10
9.93019
 20
94.4796
 11
11.5776
 21
94.2919
  0
LINE
  8
0
 10
11.5776
 20
94.2919
 11
13.2214
 21
94.0755
  0
LINE
  8
0
 10
13.2214
 20
94.0755
 11
14.8613
 21
93.8304
  0
LINE
  8
0
 10
14.8613
 20
93.8304
 11
16.4966
 21
93.5567
  0
LINE
  8
0
 10
16.4966
 20
93.5567
 11
18.1268
 21
93.2546
  0
LINE
  8
0
 10
18.1268
 20
93.2546
 11
19.7516
 21
92.924
  0
LINE
  8
0
 10
19.7516
 20
92.924
 11
21.3703
 21
92.5652
  0
LINE
  8
0
 10
21.3703
 20
92.5652
 11
22.9826
 21
92.1781
  0
LINE
  8
0
 10
22.9826
 20
92.1781
 11
24.5878
 21
91.7629
  0
LINE
  8
0
 10
24.5878
 20
91.7629
 11
26.1855
 21
91.3199
  0
LINE
  8
0
 10
26.1855
 20
91.3199
 11
27.7753
 21
90.8489
  0
LINE
  8
0
 10
27.7753
 20
90.8489
 11
29.3566
 21
90.3504
  0
LINE
  8
0
 10
29.3566
 20
90.3504
 11
30.929
 21
89.8243
  0
LINE
  8
0
 10
30.929
 20
89.8243
 11
32.4919
 21
89.2708
  0
LINE
  8
0
 10
32.4919
 20
89.2708
 11
34.045
 21
88.6901
  0
LINE
  8
0
 10
34.045
 20
88.6901
 11
35.5876
 21
88.0825
  0
LINE
  8
0
 10
35.5876
 20
88.0825
 11
37.1194
 21
87.448
  0
LINE
  8
0
 10
37.1194
 20
87.448
 11
38.64
 21
86.7868
  0
LINE
  8
0
 10
38.64
 20
86.7868
 11
40.1487
 21
86.0992
  0
LINE
  8
0
 10
40.1487
 20
86.0992
 11
41.6452
 21
85.3854
  0
LINE
  8
0
 10
41.6452
 20
85.3854
 11
43.1291
 21
84.6456
  0
LINE
  8
0
 10
43.1291
 20
84.6456
 11
44.5998
 21
83.88
  0
LINE
  8
0
 10
44.5998
 20
83.88
 11
46.0569
 21
83.0889
  0
LINE
  8
0
 10
46.0569
 20
83.0889
 11
47.5
 21
82.2724
  0
LINE
  8
0
 10
47.5
 20
82.2724
 11
48.9286
 21
81.4309
  0
LINE
  8
0
 10
48.9286
 20
81.4309
 11
50.3423
 21
80.5646
  0
LINE
  8
0
 10
50.3423
 20
80.5646
 11
51.7407
 21
79.6737
  0
LINE
  8
0
 10
51.7407
 20
79.6737
 11
53.1233
 21
78.7586
  0
LINE
  8
0
 10
53.1233
 20
78.7586
 11
54.4898
 21
77.8194
  0
LINE
  8
0
 10
54.4898
 20
77.8194
 11
55.8396
 21
76.8566
  0
LINE
  8
0
 10
55.8396
 20
76.8566
 11
57.1724
 21
75.8704
  0
LINE
  8
0
 10
57.1724
 20
75.8704
 11
58.4878
 21
74.861
  0
LINE
  8
0
 10
58.4878
 20
74.861
 11
59.7854
 21
73.8289
  0
LINE
  8
0
 10
59.7854
 20
73.8289
 11
61.0648
 21
72.7742
  0
LINE
  8
0
 10
61.0648
 20
72.7742
 11
62.3256
 21
71.6974
  0
LINE
  8
0
 10
62.3256
 20
71.6974
 11
63.5674
 21
70.5988
  0
LINE
  8
0
 10
63.5674
 20
70.5988
 11
64.7898
 21
69.4786
  0
LINE
  8
0
 10
64.7898
 20
69.4786
 11
65.9925
 21
68.3373
  0
LINE
  8
0
 10
65.9925
 20
68.3373
 11
67.1751
 21
67.1751
  0
LINE
  8
0
 10
67.1751
 20
67.1751
 11
68.3373
 21
65.9925
  0
LINE
  8
0
 10
68.3373
 20
65.9925
 11
69.4786
 21
64.7898
  0
LINE
  8
0
 10
69.4786
 20
64.7898
 11
70.5988
 21
63.5674
  0
LINE
  8
0
 10
70.5988
 20
63.5674
 11
71.6974
 21
62.3256
  0
LINE
  8
0
 10
71.6974
 20
62.3256
 11
72.7742
 21
61.0648
  0
LINE
  8
0
 10
72.7742
 20
61.0648
 11
73.8289
 21
59.7854
  0
LINE
  8
0
 10
73.8289
 20
59.7854
 11
74.861
 21
58.4878
  0
LINE
  8
0
 10
74.861
 20
58.4878
 11
75.8704
 21
57.1724
  0
LINE
  8
0
 10
75.8704
 20
57.1724
 11
76.8566
 21
55.8396
  0
LINE
  8
0
 10
76.8566
 20
55.8396
 11
77.8194
 21
54.4898
  0
LINE
  8
0
 10
77.8194
 20
54.4898
 11
78.7586
 21
53.1233
  0
LINE
  8
0
 10
78.7586
 20
53.1233
 11
79.6737
 21
51.7407
  0
LINE
  8
0
 10
79.6737
 20
51.7407
 11
80.5646
 21
50.3423
  0
LINE
  8
0
 10
80.5646
 20
50.3423
 11
81.4309
 21
48.9286
  0
LINE
  8
0
 10
81.4309
 20
48.9286
 11
82.2724
 21
47.5
  0
LINE
  8
0
 10
82.2724
 20
47.5
 11
83.0889
 21
46.0569
  0
LINE
  8
0
 10
83.0889
 20
46.0569
 11
83.88
 21
44.5998
  0
LINE
  8
0
 10
83.88
 20
44.5998
 11
84.6456
 21
43.1291
  0
LINE
  8
0
 10
84.6456
 20
43.1291
 11
85.3854
 21
41.6452
  0
LINE
  8
0
 10
85.3854
 20
41.6452
 11
86.0992
 21
40.1487
  0
LINE
  8
0
 10
86.0992
 20
40.1487
 11
86.7868
 21
38.64
  0
LINE
  8
0
 10
86.7868
 20
38.64
 11
87.448
 21
37.1194
  0
LINE
  8
0
 10
87.448
 20
37.1194
 11
88.0825
 21
35.5876
  0
LINE
  8
0
 10
88.0825
 20
35.5876
 11
88.6901
 21
34.045
  0
LINE
  8
0
 10
88.6901
 20
34.045
 11
89.2708
 21
32.4919
  0
LINE
  8
0
 10
89.2708
 20
32.4919
 11
89.8243
 21
30.929
  0
LINE
  8
0
 10
89.8243
 20
30.929
 11
90.3504
 21
29.3566
  0
LINE
  8
0
 10
90.3504
 20
29.3566
 11
90.8489
 21
27.7753
  0
LINE
  8
0
 10
90.8489
 20
27.7753
 11
91.3199
 21
26.1855
  0
LINE
  8
0
 10
91.3199
 20
26.1855
 11
91.7629
 21
24.5878
  0
LINE
  8
0
 10
91.7629
 20
24.5878
 11
92.1781
 21
22.9826
  0
LINE
  8
0
 10
92.1781
 20
22.9826
 11
92.5652
 21
21.3703
  0
LINE
  8
0
 10
92.5652
 20
21.3703
 11
92.924
 21
19.7516
  0
LINE
  8
0
 10
92.924
 20
19.7516
 11
93.2546
 21
18.1268
  0
LINE
  8
0
 10
93.2546
 20
18.1268
 11
93.5567
 21
16.4966
  0
LINE
  8
0
 10
93.5567
 20
16.4966
 11
93.8304
 21
14.8613
  0
LINE
  8
0
 10
93.8304
 20
14.8613
 11
94.0755
 21
13.2214
  0
LINE
  8
0
 10
94.0755
 20
13.2214
 11
94.2919
 21
11.5776
  0
LINE
  8
0
 10
94.2919
 20
11.5776
 11
94.4796
 21
9.93019
  0
LINE
  8
0
 10
94.4796
 20
9.93019
 11
94.6385
 21
8.27979
  0
LINE
  8
0
 10
94.6385
 20
8.27979
 11
94.7686
 21
6.62686
  0
LINE
  8
0
 10
94.7686
 20
6.62686
 11
94.8698
 21
4.97191
  0
LINE
  8
0
 10
94.8698
 20
4.97191
 11
94.9421
 21
3.31544
  0
LINE
  8
0
 10
94.9421
 20
3.31544
 11
94.9855
 21
1.65797
  0
LINE
  8
0
 10
94.9855
 20
1.65797
 11
95
 21
0
  0
LINE
  8
0
 10
95
 20
0
 11
94.9855
 21
-1.65797
  0
LINE
  8
0
 10
94.9855
 20
-1.65797
 11
94.9421
 21
-3.31544
  0
LINE
  8
0
 10
94.9421
 20
-3.31544
 11
94.8698
 21
-4.97191
  0
LINE
  8
0
 10
94.8698
 20
-4.97191
 11
94.7686
 21
-6.62686
  0
LINE
  8
0
 10
94.7686
 20
-6.62686
 11
94.6385
 21
-8.27979
  0
LINE
  8
0
 10
94.6385
 20
-8.27979
 11
94.4796
 21
-9.93019
  0
LINE
  8
0
 10
94.4796
 20
-9.93019
 11
94.2919
 21
-11.5776
  0
LINE
  8
0
 10
94.2919
 20
-11.5776
 11
94.0755
 21
-13.2214
  0
LINE
  8
0
 10
94.0755
 20
-13.2214
 11
93.8304
 21
-14.8613
  0
LINE
  8
0
 10
93.8304
 20
-14.8613
 11
93.5567
 21
-16.4966
  0
LINE
  8
0
 10
93.5567
 20
-16.4966
 11
93.2546
 21
-18.1268
  0
LINE
  8
0
 10
93.2546
 20
-18.1268
 11
92.924
 21
-19.7516
  0
LINE
  8
0
 10
92.924
 20
-19.7516
 11
92.5652
 21
-21.3703
  0
LINE
  8
0
 10
92.5652
 20
-21.3703
 11
92.1781
 21
-22.9826
  0
LINE
  8
0
 10
92.1781
 20
-22.9826
 11
91.7629
 21
-24.5878
  0
LINE
  8
0
 10
91.7629
 20
-24.5878
 11
91.3199
 21
-26.1855
  0
LINE
  8
0
 10
91.3199
 20
-26.1855
 11
90.8489
 21
-27.7753
  0
LINE
  8
0
 10
90.8489
 20
-27.7753
 11
90.3504
 21
-29.3566
  0
LINE
  8
0
 10
90.3504
 20
-29.3566
 11
89.8243
 21
-30.929
  0
LINE
  8
0
 10
89.8243
 20
-30.929
 11
89.2708
 21
-32.4919
  0
LINE
  8
0
 10
89.2708
 20
-32.4919
 11
88.6901
 21
-34.045
  0
LINE
  8
0
 10
88.6901
 20
-34.045
 11
88.0825
 21
-35.5876
  0
LINE
  8
0
 10
88.0825
 20
-35.5876
 11
87.448
 21
-37.1194
  0
LINE
  8
0
 10
87.448
 20
-37.1194
 11
86.7868
 21
-38.64
  0
LINE
  8
0
 10
86.7868
 20
-38.64
 11
86.0992
 21
-40.1487
  0
LINE
  8
0
 10
86.0992
 20
-40.1487
 11
85.3854
 21
-41.6452
  0
LINE
  8
0
 10
85.3854
 20
-41.6452
 11
84.6456
 21
-43.1291
  0
LINE
  8
0
 10
84.6456
 20
-43.1291
 11
83.88
 21
-44.5998
  0
LINE
  8
0
 10
83.88
 20
-44.5998
 11
83.0889
 21
-46.0569
  0
LINE
  8
0
 10
83.0889
 20
-46.0569
 11
82.2724
 21
-47.5
  0
LINE
  8
0
 10
82.2724
 20
-47.5
 11
81.4309
 21
-48.9286
  0
LINE
  8
0
 10
81.4309
 20
-48.9286
 11
80.5646
 21
-50.3423
  0
LINE
  8
0
 10
80.5646
 20
-50.3423
 11
79.6737
 21
-51.7407
  0
LINE
  8
0
 10
79.6737
 20
-51.7407
 11
78.7586
 21
-53.1233
  0
LINE
  8
0
 10
78.7586
 20
-53.1233
 11
77.8194
 21
-54.4898
  0
LINE
  8
0
 10
77.8194
 20
-54.4898
 11
76.8566
 21
-55.8396
  0
LINE
  8
0
 10
76.8566
 20
-55.8396
 11
75.8704
 21
-57.1724
  0
LINE
  8
0
 10
75.8704
 20
-57.1724
 11
74.861
 21
-58.4878
  0
LINE
  8
0
 10
74.861
 20
-58.4878
 11
73.8289
 21
-59.7854
  0
LINE
  8
0
 10
73.8289
 20
-59.7854
 11
72.7742
 21
-61.0648
  0
LINE
  8
0
 10
72.7742
 20
-61.0648
 11
71.6974
 21
-62.3256
  0
LINE
  8
0
 10
71.6974
 20
-62.3256
 11
70.5988
 21
-63.5674
  0
LINE
  8
0
 10
70.5988
 20
-63.5674
 11
69.4786
 21
-64.7898
  0
LINE
  8
0
 10
69.4786
 20
-64.7898
 11
68.3373
 21
-65.9925
  0
LINE
  8
0
 10
68.3373
 20
-65.9925
 11
67.1751
 21
-67.1751
  0
LINE
  8
0
 10
67.1751
 20
-67.1751
 11
65.9925
 21
-68.3373
  0
LINE
  8
0
 10
65.9925
 20
-68.3373
 11
64.7898
 21
-69.4786
  0
LINE
  8
0
 10
64.7898
 20
-69.4786
 11
63.5674
 21
-70.5988
  0
LINE
  8
0
 10
63.5674
 20
-70.5988
 11
62.3256
 21
-71.6974
  0
LINE
  8
0
 10
62.3256
 20
-71.6974
 11
61.0648
 21
-72.7742
  0
LINE
  8
0
 10
61.0648
 20
-72.7742
 11
59.7854
 21
-73.8289
  0
LINE
  8
0
 10
59.7854
 20
-73.8289
 11
58.4878
 21
-74.861
  0
LINE
  8
0
 10
58.4878
 20
-74.861
 11
57.1724
 21
-75.8704
  0
LINE
  8
0
 10
57.1724
 20
-75.8704
 11
55.8396
 21
-76.8566
  0
LINE
  8
0
 10
55.8396
 20
-76.8566
 11
54.4898
 21
-77.8194
  0
LINE
  8
0
 10
54.4898
 20
-77.8194
 11
53.1233
 21
-78.7586
  0
LINE
  8
0
 10
53.1233
 20
-78.7586
 11
51.7407
 21
-79.6737
  0
LINE
  8
0
 10
51.7407
 20
-79.6737
 11
50.3423
 21
-80.5646
  0
LINE
  8
0
 10
50.3423
 20
-80.5646
 11
48.9286
 21
-81.4309
  0
LINE
  8
0
 10
48.9286
 20
-81.4309
 11
47.5
 21
-82.2724
  0
LINE
  8
0
 10
47.5
 20
-82.2724
 11
46.0569
 21
-83.0889
  0
LINE
  8
0
 10
46.0569
 20
-83.0889
 11
44.5998
 21
-83.88
  0
LINE
  8
0
 10
44.5998
 20
-83.88
 11
43.1291
 21
-84.6456
  0
LINE
  8
0
 10
43.1291
 20
-84.6456
 11
41.6452
 21
-85.3854
  0
LINE
  8
0
 10
41.6452
 20
-85.3854
 11
40.1487
 21
-86.0992
  0
LINE
  8
0
 10
40.1487
 20
-86.0992
 11
38.64
 21
-86.7868
  0
LINE
  8
0
 10
38.64
 20
-86.7868
 11
37.1194
 21
-87.448
  0
LINE
  8
0
 10
37.1194
 20
-87.448
 11
35.5876
 21
-88.0825
  0
LINE
  8
0
 10
35.5876
 20
-88.0825
 11
34.045
 21
-88.6901
  0
LINE
  8
0
 10
34.045
 20
-88.6901
 11
32.4919
 21
-89.2708
  0
LINE
  8
0
 10
32.4919
 20
-89.2708
 11
30.929
 21
-89.8243
  0
LINE
  8
0
 10
30.929
 20
-89.8243
 11
29.3566
 21
-90.3504
  0
LINE
  8
0
 10
29.3566
 20
-90.3504
 11
27.7753
 21
-90.8489
  0
LINE
  8
0
 10
27.7753
 20
-90.8489
 11
26.1855
 21
-91.3199
  0
LINE
  8
0
 10
26.1855
 20
-91.3199
 11
24.5878
 21
-91.7629
  0
LINE
  8
0
 10
24.5878
 20
-91.7629
 11
22.9826
 21
-92.1781
  0
LINE
  8
0
 10
22.9826
 20
-92.1781
 11
21.3703
 21
-92.5652
  0
LINE
  8
0
 10
21.3703
 20
-92.5652
 11
19.7516
 21
-92.924
  0
LINE
  8
0
 10
19.7516
 20
-92.924
 11
18.1268
 21
-93.2546
  0
LINE
  8
0
 10
18.1268
 20
-93.2546
 11
16.4966
 21
-93.5567
  0
LINE
  8
0
 10
16.4966
 20
-93.5567
 11
14.8613
 21
-93.8304
  0
LINE
  8
0
 10
14.8613
 20
-93.8304
 11
13.2214
 21
-94.0755
  0
LINE
  8
0
 10
13.2214
 20
-94.0755
 11
11.5776
 21
-94.2919
  0
LINE
  8
0
 10
11.5776
 20
-94.2919
 11
9.93019
 21
-94.4796
  0
LINE
  8
0
 10
9.93019
 20
-94.4796
 11
8.27979
 21
-94.6385
  0
LINE
  8
0
 10
8.27979
 20
-94.6385
 11
6.62686
 21
-94.7686
  0
LINE
  8
0
 10
6.62686
 20
-94.7686
 11
4.97191
 21
-94.8698
  0
LINE
  8
0
 10
4.97191
 20
-94.8698
 11
3.31544
 21
-94.9421
  0
LINE
  8
0
 10
3.31544
 20
-94.9421
 11
1.65797
 21
-94.9855
  0
LINE
  8
0
 10
1.65797
 20
-94.9855
 11
0
 21
-95
  0
LINE
  8
0
 10
0
 20
-95
 11
-1.65797
 21
-94.9855
  0
LINE
  8
0
 10
68.2358
 20
80.2566
 11
75.3069
 21
87.3277
  0
LINE
  8
0
 10
75.3069
 20
87.3277
 11
77.4282
 21
85.2064
  0
LINE
  8
0
 10
77.4282
 20
85.2064
 11
70.3571
 21
78.1353
  0
LINE
  8
0
 10
70.3571
 20
78.1353
 11
68.2358
 21
80.2566
  0
LINE
  8
0
 10
-77.4282
 20
85.2064
 11
-75.3069
 21
87.3277
  0
LINE
  8
0
 10
-75.3069
 20
87.3277
 11
-68.2358
 21
80.2566
  0
LINE
  8
0
 10
-68.2358
 20
80.2566
 11
-70.3571
 21
78.1353
  0
LINE
  8
0
 10
-70.3571
 20
78.1353
 11
-77.4282
 21
85.2064
  0
LINE
  8
0
 10
78.1353
 20
70.3571
 11
85.2064
 21
77.4282
  0
LINE
  8
0
 10
85.2064
 20
77.4282
 11
87.3277
 21
75.3069
  0
LINE
  8
0
 10
87.3277
 20
75.3069
 11
80.2566
 21
68.2358
  0
LINE
  8
0
 10
80.2566
 20
68.2358
 11
78.1353
 21
70.3571
  0
LINE
  8
0
 10
-87.3277
 20
75.3069
 11
-85.2064
 21
77.4282
  0
LINE
  8
0
 10
-85.2064
 20
77.4282
 11
-78.1353
 21
70.3571
  0
LINE
  8
0
 10
-78.1353
 20
70.3571
 11
-80.2566
 21
68.2358
  0
LINE
  8
0
 10
-80.2566
 20
68.2358
 11
-87.3277
 21
75.3069
  0
LINE
  8
0
 10
-71.0934
 20
69.7868
 11
-71.4178
 21
70.0036
  0
LINE
  8
0
 10
-71.4178
 20
70.0036
 11
-71.6346
 21
70.328
  0
LINE
  8
0
 10
-71.6346
 20
70.328
 11
-71.7107
 21
70.7107
  0
LINE
  8
0
 10
-71.7107
 20
70.7107
 11
-71.6346
 21
71.0934
  0
LINE
  8
0
 10
-71.6346
 20
71.0934
 11
-71.4178
 21
71.4178
  0
LINE
  8
0
 10
-71.4178
 20
71.4178
 11
-71.0934
 21
71.6346
  0
LINE
  8
0
 10
-71.0934
 20
71.6346
 11
-70.7107
 21
71.7107
  0
LINE
  8
0
 10
-70.7107
 20
71.7107
 11
-70.328
 21
71.6346
  0
LINE
  8
0
 10
-70.328
 20
71.6346
 11
-70.0036
 21
71.4178
  0
LINE
  8
0
 10
-70.0036
 20
71.4178
 11
-69.7868
 21
71.0934
  0
LINE
  8
0
 10
-69.7868
 20
71.0934
 11
-69.7107
 21
70.7107
  0
LINE
  8
0
 10
-69.7107
 20
70.7107
 11
-69.7868
 21
70.328
  0
LINE
  8
0
 10
-69.7868
 20
70.328
 11
-70.0036
 21
70.0036
  0
LINE
  8
0
 10
-70.0036
 20
70.0036
 11
-70.328
 21
69.7868
  0
LINE
  8
0
 10
-70.328
 20
69.7868
 11
-70.7107
 21
69.7107
  0
LINE
  8
0
 10
-70.7107
 20
69.7107
 11
-71.0934
 21
69.7868
  0
LINE
  8
0
 10
70.328
 20
69.7868
 11
70.0036
 21
70.0036
  0
LINE
  8
0
 10
70.0036
 20
70.0036
 11
69.7868
 21
70.328
  0
LINE
  8
0
 10
69.7868
 20
70.328
 11
69.7107
 21
70.7107
  0
LINE
  8
0
 10
69.7107
 20
70.7107
 11
69.7868
 21
71.0934
  0
LINE
  8
0
 10
69.7868
 20
71.0934
 11
70.0036
 21
71.4178
  0
LINE
  8
0
 10
70.0036
 20
71.4178
 11
70.328
 21
71.6346
  0
LINE
  8
0
 10
70.328
 20
71.6346
 11
70.7107
 21
71.7107
  0
LINE
  8
0
 10
70.7107
 20
71.7107
 11
71.0934
 21
71.6346
  0
LINE
  8
0
 10
71.0934
 20
71.6346
 11
71.4178
 21
71.4178
  0
LINE
  8
0
 10
71.4178
 20
71.4178
 11
71.6346
 21
71.0934
  0
LINE
  8
0
 10
71.6346
 20
71.0934
 11
71.7107
 21
70.7107
  0
LINE
  8
0
 10
71.7107
 20
70.7107
 11
71.6346
 21
70.328
  0
LINE
  8
0
 10
71.6346
 20
70.328
 11
71.4178
 21
70.0036
  0
LINE
  8
0
 10
71.4178
 20
70.0036
 11
71.0934
 21
69.7868
  0
LINE
  8
0
 10
71.0934
 20
69.7868
 11
70.7107
 21
69.7107
  0
LINE
  8
0
 10
70.7107
 20
69.7107
 11
70.328
 21
69.7868
  0
LINE
  8
0
 10
-96.8429
 20
62.2631
 11
-95.3429
 21
64.8612
  0
LINE
  8
0
 10
-95.3429
 20
64.8612
 11
-86.6827
 21
59.8612
  0
LINE
  8
0
 10
-86.6827
 20
59.8612
 11
-88.1827
 21
57.2631
  0
LINE
  8
0
 10
-88.1827
 20
57.2631
 11
-96.8429
 21
62.2631
  0
LINE
  8
0
 10
86.6827
 20
59.8612
 11
95.3429
 21
64.8612
  0
LINE
  8
0
 10
95.3429
 20
64.8612
 11
96.8429
 21
62.2631
  0
LINE
  8
0
 10
96.8429
 20
62.2631
 11
88.1827
 21
57.2631
  0
LINE
  8
0
 10
88.1827
 20
57.2631
 11
86.6827
 21
59.8612
  0
LINE
  8
0
 10
93.6827
 20
47.7368
 11
102.343
 21
52.7368
  0
LINE
  8
0
 10
102.343
 20
52.7368
 11
103.843
 21
50.1388
  0
LINE
  8
0
 10
103.843
 20
50.1388
 11
95.1827
 21
45.1388
  0
LINE
  8
0
 10
95.1827
 20
45.1388
 11
93.6827
 21
47.7368
  0
LINE
  8
0
 10
-103.843
 20
50.1388
 11
-102.343
 21
52.7368
  0
LINE
  8
0
 10
-102.343
 20
52.7368
 11
-93.6827
 21
47.7368
  0
LINE
  8
0
 10
-93.6827
 20
47.7368
 11
-95.1827
 21
45.1388
  0
LINE
  8
0
 10
-95.1827
 20
45.1388
 11
-103.843
 21
50.1388
  0
LINE
  8
0
 10
99.2222
 20
35.3864
 11
108.882
 21
37.9745
  0
LINE
  8
0
 10
108.882
 20
37.9745
 11
109.658
 21
35.0768
  0
LINE
  8
0
 10
109.658
 20
35.0768
 11
99.9987
 21
32.4886
  0
LINE
  8
0
 10
99.9987
 20
32.4886
 11
99.2222
 21
35.3864
  0
LINE
  8
0
 10
-109.658
 20
35.0768
 11
-108.882
 21
37.9745
  0
LINE
  8
0
 10
-108.882
 20
37.9745
 11
-99.2222
 21
35.3864
  0
LINE
  8
0
 10
-99.2222
 20
35.3864
 11
-99.9987
 21
32.4886
  0
LINE
  8
0
 10
-99.9987
 20
32.4886
 11
-109.658
 21
35.0768
  0
LINE
  8
0
 10
102.846
 20
21.8634
 11
112.505
 21
24.4516
  0
LINE
  8
0
 10
112.505
 20
24.4516
 11
113.281
 21
21.5538
  0
LINE
  8
0
 10
113.281
 20
21.5538
 11
103.622
 21
18.9656
  0
LINE
  8
0
 10
103.622
 20
18.9656
 11
102.846
 21
21.8634
  0
LINE
  8
0
 10
-113.281
 20
21.5538
 11
-112.505
 21
24.4516
  0
LINE
  8
0
 10
-112.505
 20
24.4516
 11
-102.846
 21
21.8634
  0
LINE
  8
0
 10
-102.846
 20
21.8634
 11
-103.622
 21
18.9656
  0
LINE
  8
0
 10
-103.622
 20
18.9656
 11
-113.281
 21
21.5538
  0
LINE
  8
0
 10
105
 20
5.5
 11
105
 21
8.5
  0
LINE
  8
0
 10
105
 20
8.5
 11
115
 21
8.5
  0
LINE
  8
0
 10
115
 20
8.5
 11
115
 21
5.5
  0
LINE
  8
0
 10
115
 20
5.5
 11
105
 21
5.5
  0
LINE
  8
0
 10
-115
 20
5.5
 11
-115
 21
8.5
  0
LINE
  8
0
 10
-115
 20
8.5
 11
-105
 21
8.5
  0
LINE
  8
0
 10
-105
 20
8.5
 11
-105
 21
5.5
  0
LINE
  8
0
 10
-105
 20
5.5
 11
-115
 21
5.5
  0
LINE
  8
0
 10
-100.383
 20
-0.923874
 11
-100.707
 21
-0.707092
  0
LINE
  8
0
 10
-100.707
 20
-0.707092
 11
-100.924
 21
-0.382675
  0
LINE
  8
0
 10
-100.924
 20
-0.382675
 11
-101
 21
0
  0
LINE
  8
0
 10
-101
 20
0
 11
-100.924
 21
0.382675
  0
LINE
  8
0
 10
-100.924
 20
0.382675
 11
-100.707
 21
0.707092
  0
LINE
  8
0
 10
-100.707
 20
0.707092
 11
-100.383
 21
0.923874
  0
LINE
  8
0
 10
-100.383
 20
0.923874
 11
-100
 21
1
  0
LINE
  8
0
 10
-100
 20
1
 11
-99.6173
 21
0.923874
  0
LINE
  8
0
 10
-99.6173
 20
0.923874
 11
-99.2929
 21
0.707092
  0
LINE
  8
0
 10
-99.2929
 20
0.707092
 11
-99.0761
 21
0.382675
  0
LINE
  8
0
 10
-99.0761
 20
0.382675
 11
-99
 21
0
  0
LINE
  8
0
 10
-99
 20
0
 11
-99.0761
 21
-0.382675
  0
LINE
  8
0
 10
-99.0761
 20
-0.382675
 11
-99.2929
 21
-0.707092
  0
LINE
  8
0
 10
-99.2929
 20
-0.707092
 11
-99.6173
 21
-0.923874
  0
LINE
  8
0
 10
-99.6173
 20
-0.923874
 11
-100
 21
-1
  0
LINE
  8
0
 10
-100
 20
-1
 11
-100.383
 21
-0.923874
  0
LINE
  8
0
 10
99.6173
 20
-0.923874
 11
99.2929
 21
-0.707092
  0
LINE
  8
0
 10
99.2929
 20
-0.707092
 11
99.0761
 21
-0.382675
  0
LINE
  8
0
 10
99.0761
 20
-0.382675
 11
99
 21
0
  0
LINE
  8
0
 10
99
 20
0
 11
99.0761
 21
0.382675
  0
LINE
  8
0
 10
99.0761
 20
0.382675
 11
99.2929
 21
0.707092
  0
LINE
  8
0
 10
99.2929
 20
0.707092
 11
99.6173
 21
0.923874
  0
LINE
  8
0
 10
99.6173
 20
0.923874
 11
100
 21
1
  0
LINE
  8
0
 10
100
 20
1
 11
100.383
 21
0.923874
  0
LINE
  8
0
 10
100.383
 20
0.923874
 11
100.707
 21
0.707092
  0
LINE
  8
0
 10
100.707
 20
0.707092
 11
100.924
 21
0.382675
  0
LINE
  8
0
 10
100.924
 20
0.382675
 11
101
 21
0
  0
LINE
  8
0
 10
101
 20
0
 11
100.924
 21
-0.382675
  0
LINE
  8
0
 10
100.924
 20
-0.382675
 11
100.707
 21
-0.707092
  0
LINE
  8
0
 10
100.707
 20
-0.707092
 11
100.383
 21
-0.923874
  0
LINE
  8
0
 10
100.383
 20
-0.923874
 11
100
 21
-1
  0
LINE
  8
0
 10
100
 20
-1
 11
99.6173
 21
-0.923874
  0
LINE
  8
0
 10
105
 20
-8.5
 11
105
 21
-5.5
  0
LINE
  8
0
 10
105
 20
-5.5
 11
115
 21
-5.5
  0
LINE
  8
0
 10
115
 20
-5.5
 11
115
 21
-8.5
  0
LINE
  8
0
 10
115
 20
-8.5
 11
105
 21
-8.5
  0
LINE
  8
0
 10
-115
 20
-8.5
 11
-115
 21
-5.5
  0
LINE
  8
0
 10
-115
 20
-5.5
 11
-105
 21
-5.5
  0
LINE
  8
0
 10
-105
 20
-5.5
 11
-105
 21
-8.5
  0
LINE
  8
0
 10
-105
 20
-8.5
 11
-115
 21
-8.5
  0
LINE
  8
0
 10
102.846
 20
-21.8634
 11
103.622
 21
-18.9656
  0
LINE
  8
0
 10
103.622
 20
-18.9656
 11
113.281
 21
-21.5538
  0
LINE
  8
0
 10
113.281
 20
-21.5538
 11
112.505
 21
-24.4516
  0
LINE
  8
0
 10
112.505
 20
-24.4516
 11
102.846
 21
-21.8634
  0
LINE
  8
0
 10
-113.281
 20
-21.5538
 11
-103.622
 21
-18.9656
  0
LINE
  8
0
 10
-103.622
 20
-18.9656
 11
-102.846
 21
-21.8634
  0
LINE
  8
0
 10
-102.846
 20
-21.8634
 11
-112.505
 21
-24.4516
  0
LINE
  8
0
 10
-112.505
 20
-24.4516
 11
-113.281
 21
-21.5538
  0
LINE
  8
0
 10
-109.658
 20
-35.0768
 11
-99.9987
 21
-32.4886
  0
LINE
  8
0
 10
-99.9987
 20
-32.4886
 11
-99.2222
 21
-35.3864
  0
LINE
  8
0
 10
-99.2222
 20
-35.3864
 11
-108.882
 21
-37.9745
  0
LINE
  8
0
 10
-108.882
 20
-37.9745
 11
-109.658
 21
-35.0768
  0
LINE
  8
0
 10
99.2222
 20
-35.3864
 11
99.9987
 21
-32.4886
  0
LINE
  8
0
 10
99.9987
 20
-32.4886
 11
109.658
 21
-35.0768
  0
LINE
  8
0
 10
109.658
 20
-35.0768
 11
108.882
 21
-37.9745
  0
LINE
  8
0
 10
108.882
 20
-37.9745
 11
99.2222
 21
-35.3864
  0
LINE
  8
0
 10
-103.843
 20
-50.1388
 11
-95.1827
 21
-45.1388
  0
LINE
  8
0
 10
-95.1827
 20
-45.1388
 11
-93.6827
 21
-47.7368
  0
LINE
  8
0
 10
-93.6827
 20
-47.7368
 11
-102.343
 21
-52.7368
  0
LINE
  8
0
 10
-102.343
 20
-52.7368
 11
-103.843
 21
-50.1388
  0
LINE
  8
0
 10
93.6827
 20
-47.7368
 11
95.1827
 21
-45.1388
  0
LINE
  8
0
 10
95.1827
 20
-45.1388
 11
103.843
 21
-50.1388
  0
LINE
  8
0
 10
103.843
 20
-50.1388
 11
102.343
 21
-52.7368
  0
LINE
  8
0
 10
102.343
 20
-52.7368
 11
93.6827
 21
-47.7368
  0
LINE
  8
0
 10
-96.8429
 20
-62.2631
 11
-88.1827
 21
-57.2631
  0
LINE
  8
0
 10
-88.1827
 20
-57.2631
 11
-86.6827
 21
-59.8612
  0
LINE
  8
0
 10
-86.6827
 20
-59.8612
 11
-95.3429
 21
-64.8612
  0
LINE
  8
0
 10
-95.3429
 20
-64.8612
 11
-96.8429
 21
-62.2631
  0
LINE
  8
0
 10
86.6827
 20
-59.8612
 11
88.1827
 21
-57.2631
  0
LINE
  8
0
 10
88.1827
 20
-57.2631
 11
96.8429
 21
-62.2631
  0
LINE
  8
0
 10
96.8429
 20
-62.2631
 11
95.3429
 21
-64.8612
  0
LINE
  8
0
 10
95.3429
 20
-64.8612
 11
86.6827
 21
-59.8612
  0
LINE
  8
0
 10
-87.3277
 20
-75.3069
 11
-80.2566
 21
-68.2358
  0
LINE
  8
0
 10
-80.2566
 20
-68.2358
 11
-78.1353
 21
-70.3571
  0
LINE
  8
0
 10
-78.1353
 20
-70.3571
 11
-85.2064
 21
-77.4282
  0
LINE
  8
0
 10
-85.2064
 20
-77.4282
 11
-87.3277
 21
-75.3069
  0
LINE
  8
0
 10
78.1353
 20
-70.3571
 11
80.2566
 21
-68.2358
  0
LINE
  8
0
 10
80.2566
 20
-68.2358
 11
87.3277
 21
-75.3069
  0
LINE
  8
0
 10
87.3277
 20
-75.3069
 11
85.2064
 21
-77.4282
  0
LINE
  8
0
 10
85.2064
 20
-77.4282
 11
78.1353
 21
-70.3571
  0
LINE
  8
0
 10
-71.0934
 20
-71.6346
 11
-71.4178
 21
-71.4178
  0
LINE
  8
0
 10
-71.4178
 20
-71.4178
 11
-71.6346
 21
-71.0934
  0
LINE
  8
0
 10
-71.6346
 20
-71.0934
 11
-71.7107
 21
-70.7107
  0
LINE
  8
0
 10
-71.7107
 20
-70.7107
 11
-71.6346
 21
-70.328
  0
LINE
  8
0
 10
-71.6346
 20
-70.328
 11
-71.4178
 21
-70.0036
  0
LINE
  8
0
 10
-71.4178
 20
-70.0036
 11
-71.0934
 21
-69.7868
  0
LINE
  8
0
 10
-71.0934
 20
-69.7868
 11
-70.7107
 21
-69.7107
  0
LINE
  8
0
 10
-70.7107
 20
-69.7107
 11
-70.328
 21
-69.7868
  0
LINE
  8
0
 10
-70.328
 20
-69.7868
 11
-70.0036
 21
-70.0036
  0
LINE
  8
0
 10
-70.0036
 20
-70.0036
 11
-69.7868
 21
-70.328
  0
LINE
  8
0
 10
-69.7868
 20
-70.328
 11
-69.7107
 21
-70.7107
  0
LINE
  8
0
 10
-69.7107
 20
-70.7107
 11
-69.7868
 21
-71.0934
  0
LINE
  8
0
 10
-69.7868
 20
-71.0934
 11
-70.0036
 21
-71.4178
  0
LINE
  8
0
 10
-70.0036
 20
-71.4178
 11
-70.328
 21
-71.6346
  0
LINE
  8
0
 10
-70.328
 20
-71.6346
 11
-70.7107
 21
-71.7107
  0
LINE
  8
0
 10
-70.7107
 20
-71.7107
 11
-71.0934
 21
-71.6346
  0
LINE
  8
0
 10
70.328
 20
-71.6346
 11
70.0036
 21
-71.4178
  0
LINE
  8
0
 10
70.0036
 20
-71.4178
 11
69.7868
 21
-71.0934
  0
LINE
  8
0
 10
69.7868
 20
-71.0934
 11
69.7107
 21
-70.7107
  0
LINE
  8
0
 10
69.7107
 20
-70.7107
 11
69.7868
 21
-70.328
  0
LINE
  8
0
 10
69.7868
 20
-70.328
 11
70.0036
 21
-70.0036
  0
LINE
  8
0
 10
70.0036
 20
-70.0036
 11
70.328
 21
-69.7868
  0
LINE
  8
0
 10
70.328
 20
-69.7868
 11
70.7107
 21
-69.7107
  0
LINE
  8
0
 10
70.7107
 20
-69.7107
 11
71.0934
 21
-69.7868
  0
LINE
  8
0
 10
71.0934
 20
-69.7868
 11
71.4178
 21
-70.0036
  0
LINE
  8
0
 10
71.4178
 20
-70.0036
 11
71.6346
 21
-70.328
  0
LINE
  8
0
 10
71.6346
 20
-70.328
 11
71.7107
 21
-70.7107
  0
LINE
  8
0
 10
71.7107
 20
-70.7107
 11
71.6346
 21
-71.0934
  0
LINE
  8
0
 10
71.6346
 20
-71.0934
 11
71.4178
 21
-71.4178
  0
LINE
  8
0
 10
71.4178
 20
-71.4178
 11
71.0934
 21
-71.6346
  0
LINE
  8
0
 10
71.0934
 20
-71.6346
 11
70.7107
 21
-71.7107
  0
LINE
  8
0
 10
70.7107
 20
-71.7107
 11
70.328
 21
-71.6346
  0
LINE
  8
0
 10
-77.4282
 20
-85.2064
 11
-70.3571
 21
-78.1353
  0
LINE
  8
0
 10
-70.3571
 20
-78.1353
 11
-68.2358
 21
-80.2566
  0
LINE
  8
0
 10
-68.2358
 20
-80.2566
 11
-75.3069
 21
-87.3277
  0
LINE
  8
0
 10
-75.3069
 20
-87.3277
 11
-77.4282
 21
-85.2064
  0
LINE
  8
0
 10
68.2358
 20
-80.2566
 11
70.3571
 21
-78.1353
  0
LINE
  8
0
 10
70.3571
 20
-78.1353
 11
77.4282
 21
-85.2064
  0
LINE
  8
0
 10
77.4282
 20
-85.2064
 11
75.3069
 21
-87.3277
  0
LINE
  8
0
 10
75.3069
 20
-87.3277
 11
68.2358
 21
-80.2566
  0
LINE
  8
0
 10
-64.8612
 20
-95.3429
 11
-59.8612
 21
-86.6827
  0
LINE
  8
0
 10
-59.8612
 20
-86.6827
 11
-57.2631
 21
-88.1827
  0
LINE
  8
0
 10
-57.2631
 20
-88.1827
 11
-62.2631
 21
-96.8429
  0
LINE
  8
0
 10
-62.2631
 20
-96.8429
 11
-64.8612
 21
-95.3429
  0
LINE
  8
0
 10
57.2631
 20
-88.1827
 11
59.8612
 21
-86.6827
  0
LINE
  8
0
 10
59.8612
 20
-86.6827
 11
64.8612
 21
-95.3429
  0
LINE
  8
0
 10
64.8612
 20
-95.3429
 11
62.2631
 21
-96.8429
  0
LINE
  8
0
 10
62.2631
 20
-96.8429
 11
57.2631
 21
-88.1827
  0
LINE
  8
0
 10
-52.7368
 20
-102.343
 11
-47.7368
 21
-93.6827
  0
LINE
  8
0
 10
-47.7368
 20
-93.6827
 11
-45.1388
 21
-95.1827
  0
LINE
  8
0
 10
-45.1388
 20
-95.1827
 11
-50.1388
 21
-103.843
  0
LINE
  8
0
 10
-50.1388
 20
-103.843
 11
-52.7368
 21
-102.343
  0
LINE
  8
0
 10
45.1388
 20
-95.1827
 11
47.7368
 21
-93.6827
  0
LINE
  8
0
 10
47.7368
 20
-93.6827
 11
52.7368
 21
-102.343
  0
LINE
  8
0
 10
52.7368
 20
-102.343
 11
50.1388
 21
-103.843
  0
LINE
  8
0
 10
50.1388
 20
-103.843
 11
45.1388
 21
-95.1827
  0
LINE
  8
0
 10
-0.382675
 20
-100.924
 11
-0.707092
 21
-100.707
  0
LINE
  8
0
 10
-0.707092
 20
-100.707
 11
-0.923874
 21
-100.383
  0
LINE
  8
0
 10
-0.923874
 20
-100.383
 11
-1
 21
-100
  0
LINE
  8
0
 10
-1
 20
-100
 11
-0.923874
 21
-99.6173
  0
LINE
  8
0
 10
-0.923874
 20
-99.6173
 11
-0.707092
 21
-99.2929
  0
LINE
  8
0
 10
-0.707092
 20
-99.2929
 11
-0.382675
 21
-99.0761
  0
LINE
  8
0
 10
-0.382675
 20
-99.0761
 11
0
 21
-99
  0
LINE
  8
0
 10
0
 20
-99
 11
0.382675
 21
-99.0761
  0
LINE
  8
0
 10
0.382675
 20
-99.0761
 11
0.707092
 21
-99.2929
  0
LINE
  8
0
 10
0.707092
 20
-99.2929
 11
0.923874
 21
-99.6173
  0
LINE
  8
0
 10
0.923874
 20
-99.6173
 11
1
 21
-100
  0
LINE
  8
0
 10
1
 20
-100
 11
0.923874
 21
-100.383
  0
LINE
  8
0
 10
0.923874
 20
-100.383
 11
0.707092
 21
-100.707
  0
LINE
  8
0
 10
0.707092
 20
-100.707
 11
0.382675
 21
-100.924
  0
LINE
  8
0
 10
0.382675
 20
-100.924
 11
0
 21
-101
  0
LINE
  8
0
 10
0
 20
-101
 11
-0.382675
 21
-100.924
  0
LINE
  8
0
 10
-37.9745
 20
-108.882
 11
-35.3864
 21
-99.2222
  0
LINE
  8
0
 10
-35.3864
 20
-99.2222
 11
-32.4886
 21
-99.9987
  0
LINE
  8
0
 10
-32.4886
 20
-99.9987
 11
-35.0768
 21
-109.658
  0
LINE
  8
0
 10
-35.0768
 20
-109.658
 11
-37.9745
 21
-108.882
  0
LINE
  8
0
 10
32.4886
 20
-99.9987
 11
35.3864
 21
-99.2222
  0
LINE
  8
0
 10
35.3864
 20
-99.2222
 11
37.9745
 21
-108.882
  0
LINE
  8
0
 10
37.9745
 20
-108.882
 11
35.0768
 21
-109.658
  0
LINE
  8
0
 10
35.0768
 20
-109.658
 11
32.4886
 21
-99.9987
  0
LINE
  8
0
 10
-24.4516
 20
-112.505
 11
-21.8634
 21
-102.846
  0
LINE
  8
0
 10
-21.8634
 20
-102.846
 11
-18.9656
 21
-103.622
  0
LINE
  8
0
 10
-18.9656
 20
-103.622
 11
-21.5538
 21
-113.281
  0
LINE
  8
0
 10
-21.5538
 20
-113.281
 11
-24.4516
 21
-112.505
  0
LINE
  8
0
 10
18.9656
 20
-103.622
 11
21.8634
 21
-102.846
  0
LINE
  8
0
 10
21.8634
 20
-102.846
 11
24.4516
 21
-112.505
  0
LINE
  8
0
 10
24.4516
 20
-112.505
 11
21.5538
 21
-113.281
  0
LINE
  8
0
 10
21.5538
 20
-113.281
 11
18.9656
 21
-103.622
  0
LINE
  8
0
 10
5.5
 20
-115
 11
5.5
 21
-105
  0
LINE
  8
0
 10
5.5
 20
-105
 11
8.5
 21
-105
  0
LINE
  8
0
 10
8.5
 20
-105
 11
8.5
 21
-115
  0
LINE
  8
0
 10
8.5
 20
-115
 11
5.5
 21
-115
  0
LINE
  8
0
 10
-8.5
 20
-115
 11
-8.5
 21
-105
  0
LINE
  8
0
 10
-8.5
 20
-105
 11
-5.5
 21
-105
  0
LINE
  8
0
 10
-5.5
 20
-105
 11
-5.5
 21
-115
  0
LINE
  8
0
 10
-5.5
 20
-115
 11
-8.5
 21
-115
  0
ENDSEC
  0
SECTION
  2
OBJECTS
  0
DICTIONARY
  0
ENDSEC
  0
EOF
