  0
SECTION
  2
BLOCKS
  0
ENDSEC
  0
SECTION
  2
ENTITIES
  0
LINE
  8
0
 10
186.47
 20
-199.928
 11
187.926
 21
-199.712
  0
LINE
  8
0
 10
187.926
 20
-199.712
 11
189.354
 21
-199.354
  0
LINE
  8
0
 10
189.354
 20
-199.354
 11
190.74
 21
-198.858
  0
LINE
  8
0
 10
190.74
 20
-198.858
 11
192.071
 21
-198.229
  0
LINE
  8
0
 10
192.071
 20
-198.229
 11
193.334
 21
-197.472
  0
LINE
  8
0
 10
193.334
 20
-197.472
 11
194.516
 21
-196.595
  0
LINE
  8
0
 10
194.516
 20
-196.595
 11
195.607
 21
-195.607
  0
LINE
  8
0
 10
195.607
 20
-195.607
 11
196.595
 21
-194.516
  0
LINE
  8
0
 10
196.595
 20
-194.516
 11
197.472
 21
-193.334
  0
LINE
  8
0
 10
197.472
 20
-193.334
 11
198.229
 21
-192.071
  0
LINE
  8
0
 10
198.229
 20
-192.071
 11
198.858
 21
-190.74
  0
LINE
  8
0
 10
198.858
 20
-190.74
 11
199.354
 21
-189.354
  0
LINE
  8
0
 10
199.354
 20
-189.354
 11
199.712
 21
-187.926
  0
LINE
  8
0
 10
199.712
 20
-187.926
 11
199.928
 21
-186.47
  0
LINE
  8
0
 10
199.928
 20
-186.47
 11
200
 21
-185
  0
LINE
  8
0
 10
200
 20
-185
 11
200
 21
-15
  0
LINE
  8
0
 10
200
 20
-15
 11
199.928
 21
-13.5297
  0
LINE
  8
0
 10
199.928
 20
-13.5297
 11
199.712
 21
-12.0736
  0
LINE
  8
0
 10
199.712
 20
-12.0736
 11
199.354
 21
-10.6457
  0
LINE
  8
0
 10
199.354
 20
-10.6457
 11
198.858
 21
-9.25974
  0
LINE
  8
0
 10
198.858
 20
-9.25974
 11
198.229
 21
-7.92905
  0
LINE
  8
0
 10
198.229
 20
-7.92905
 11
197.472
 21
-6.66644
  0
LINE
  8
0
 10
197.472
 20
-6.66644
 11
196.595
 21
-5.4841
  0
LINE
  8
0
 10
196.595
 20
-5.4841
 11
195.607
 21
-4.39339
  0
LINE
  8
0
 10
195.607
 20
-4.39339
 11
194.516
 21
-3.40483
  0
LINE
  8
0
 10
194.516
 20
-3.40483
 11
193.334
 21
-2.52795
  0
LINE
  8
0
 10
193.334
 20
-2.52795
 11
192.071
 21
-1.77118
  0
LINE
  8
0
 10
192.071
 20
-1.77118
 11
190.74
 21
-1.1418
  0
LINE
  8
0
 10
190.74
 20
-1.1418
 11
189.354
 21
-0.645889
  0
LINE
  8
0
 10
189.354
 20
-0.645889
 11
187.926
 21
-0.288208
  0
LINE
  8
0
 10
187.926
 20
-0.288208
 11
186.47
 21
-0.0722198
  0
LINE
  8
0
 10
186.47
 20
-0.0722198
 11
185
 21
0
  0
LINE
  8
0
 10
185
 20
0
 11
15
 21
0
  0
LINE
  8
0
 10
15
 20
0
 11
13.5297
 21
-0.0722198
  0
LINE
  8
0
 10
13.5297
 20
-0.0722198
 11
12.0736
 21
-0.288208
  0
LINE
  8
0
 10
12.0736
 20
-0.288208
 11
10.6457
 21
-0.645889
  0
LINE
  8
0
 10
10.6457
 20
-0.645889
 11
9.25974
 21
-1.1418
  0
LINE
  8
0
 10
9.25974
 20
-1.1418
 11
7.92905
 21
-1.77118
  0
LINE
  8
0
 10
7.92905
 20
-1.77118
 11
6.66644
 21
-2.52795
  0
LINE
  8
0
 10
6.66644
 20
-2.52795
 11
5.4841
 21
-3.40483
  0
LINE
  8
0
 10
5.4841
 20
-3.40483
 11
4.39339
 21
-4.39339
  0
LINE
  8
0
 10
4.39339
 20
-4.39339
 11
3.40483
 21
-5.4841
  0
LINE
  8
0
 10
3.40483
 20
-5.4841
 11
2.52795
 21
-6.66644
  0
LINE
  8
0
 10
2.52795
 20
-6.66644
 11
1.77118
 21
-7.92905
  0
LINE
  8
0
 10
1.77118
 20
-7.92905
 11
1.1418
 21
-9.25974
  0
LINE
  8
0
 10
1.1418
 20
-9.25974
 11
0.645889
 21
-10.6457
  0
LINE
  8
0
 10
0.645889
 20
-10.6457
 11
0.288208
 21
-12.0736
  0
LINE
  8
0
 10
0.288208
 20
-12.0736
 11
0.0722198
 21
-13.5297
  0
LINE
  8
0
 10
0.0722198
 20
-13.5297
 11
0
 21
-15
  0
LINE
  8
0
 10
0
 20
-15
 11
0
 21
-185
  0
LINE
  8
0
 10
0
 20
-185
 11
0.0722198
 21
-186.47
  0
LINE
  8
0
 10
0.0722198
 20
-186.47
 11
0.288208
 21
-187.926
  0
LINE
  8
0
 10
0.288208
 20
-187.926
 11
0.645889
 21
-189.354
  0
LINE
  8
0
 10
0.645889
 20
-189.354
 11
1.1418
 21
-190.74
  0
LINE
  8
0
 10
1.1418
 20
-190.74
 11
1.77118
 21
-192.071
  0
LINE
  8
0
 10
1.77118
 20
-192.071
 11
2.52795
 21
-193.334
  0
LINE
  8
0
 10
2.52795
 20
-193.334
 11
3.40483
 21
-194.516
  0
LINE
  8
0
 10
3.40483
 20
-194.516
 11
4.39339
 21
-195.607
  0
LINE
  8
0
 10
4.39339
 20
-195.607
 11
5.4841
 21
-196.595
  0
LINE
  8
0
 10
5.4841
 20
-196.595
 11
6.66644
 21
-197.472
  0
LINE
  8
0
 10
6.66644
 20
-197.472
 11
7.92905
 21
-198.229
  0
LINE
  8
0
 10
7.92905
 20
-198.229
 11
9.25974
 21
-198.858
  0
LINE
  8
0
 10
9.25974
 20
-198.858
 11
10.6457
 21
-199.354
  0
LINE
  8
0
 10
10.6457
 20
-199.354
 11
12.0736
 21
-199.712
  0
LINE
  8
0
 10
12.0736
 20
-199.712
 11
13.5297
 21
-199.928
  0
LINE
  8
0
 10
13.5297
 20
-199.928
 11
15
 21
-200
  0
LINE
  8
0
 10
15
 20
-200
 11
185
 21
-200
  0
LINE
  8
0
 10
185
 20
-200
 11
186.47
 21
-199.928
  0
LINE
  8
0
 10
34.5071
 20
-48.3812
 11
33.7524
 21
-48.3511
  0
LINE
  8
0
 10
33.7524
 20
-48.3511
 11
33.0227
 21
-48.2607
  0
LINE
  8
0
 10
33.0227
 20
-48.2607
 11
32.3179
 21
-48.1101
  0
LINE
  8
0
 10
32.3179
 20
-48.1101
 11
31.6382
 21
-47.8992
  0
LINE
  8
0
 10
31.6382
 20
-47.8992
 11
30.9834
 21
-47.628
  0
LINE
  8
0
 10
30.9834
 20
-47.628
 11
30.3536
 21
-47.2966
  0
LINE
  8
0
 10
30.3536
 20
-47.2966
 11
29.7488
 21
-46.9049
  0
LINE
  8
0
 10
29.7488
 20
-46.9049
 11
29.169
 21
-46.4529
  0
LINE
  8
0
 10
29.169
 20
-46.4529
 11
28.6142
 21
-45.9407
  0
LINE
  8
0
 10
28.6142
 20
-45.9407
 11
28.102
 21
-45.3859
  0
LINE
  8
0
 10
28.102
 20
-45.3859
 11
27.6501
 21
-44.8061
  0
LINE
  8
0
 10
27.6501
 20
-44.8061
 11
27.2584
 21
-44.2013
  0
LINE
  8
0
 10
27.2584
 20
-44.2013
 11
26.9269
 21
-43.5715
  0
LINE
  8
0
 10
26.9269
 20
-43.5715
 11
26.6558
 21
-42.9168
  0
LINE
  8
0
 10
26.6558
 20
-42.9168
 11
26.4449
 21
-42.237
  0
LINE
  8
0
 10
26.4449
 20
-42.237
 11
26.2942
 21
-41.5323
  0
LINE
  8
0
 10
26.2942
 20
-41.5323
 11
26.2038
 21
-40.8026
  0
LINE
  8
0
 10
26.2038
 20
-40.8026
 11
26.1737
 21
-40.0478
  0
LINE
  8
0
 10
26.1737
 20
-40.0478
 11
26.1737
 21
-28.1132
  0
LINE
  8
0
 10
26.1737
 20
-28.1132
 11
26.2038
 21
-27.3585
  0
LINE
  8
0
 10
26.2038
 20
-27.3585
 11
26.2942
 21
-26.6288
  0
LINE
  8
0
 10
26.2942
 20
-26.6288
 11
26.4449
 21
-25.9241
  0
LINE
  8
0
 10
26.4449
 20
-25.9241
 11
26.6558
 21
-25.2444
  0
LINE
  8
0
 10
26.6558
 20
-25.2444
 11
26.9269
 21
-24.5896
  0
LINE
  8
0
 10
26.9269
 20
-24.5896
 11
27.2584
 21
-23.9599
  0
LINE
  8
0
 10
27.2584
 20
-23.9599
 11
27.6501
 21
-23.3552
  0
LINE
  8
0
 10
27.6501
 20
-23.3552
 11
28.102
 21
-22.7754
  0
LINE
  8
0
 10
28.102
 20
-22.7754
 11
28.6142
 21
-22.2206
  0
LINE
  8
0
 10
28.6142
 20
-22.2206
 11
29.1073
 21
-21.7558
  0
LINE
  8
0
 10
29.1073
 20
-21.7558
 11
29.621
 21
-21.3402
  0
LINE
  8
0
 10
29.621
 20
-21.3402
 11
30.1552
 21
-20.9738
  0
LINE
  8
0
 10
30.1552
 20
-20.9738
 11
30.71
 21
-20.6567
  0
LINE
  8
0
 10
30.71
 20
-20.6567
 11
31.2854
 21
-20.3889
  0
LINE
  8
0
 10
31.2854
 20
-20.3889
 11
31.8814
 21
-20.1702
  0
LINE
  8
0
 10
31.8814
 20
-20.1702
 11
32.498
 21
-20.0009
  0
LINE
  8
0
 10
32.498
 20
-20.0009
 11
33.1351
 21
-19.8807
  0
LINE
  8
0
 10
33.1351
 20
-19.8807
 11
33.7928
 21
-19.8098
  0
LINE
  8
0
 10
33.7928
 20
-19.8098
 11
33.9804
 21
-19.8163
  0
LINE
  8
0
 10
33.9804
 20
-19.8163
 11
34.1595
 21
-19.8356
  0
LINE
  8
0
 10
34.1595
 20
-19.8356
 11
34.3302
 21
-19.8677
  0
LINE
  8
0
 10
34.3302
 20
-19.8677
 11
34.4924
 21
-19.9127
  0
LINE
  8
0
 10
34.4924
 20
-19.9127
 11
34.6461
 21
-19.9706
  0
LINE
  8
0
 10
34.6461
 20
-19.9706
 11
34.7915
 21
-20.0413
  0
LINE
  8
0
 10
34.7915
 20
-20.0413
 11
34.9283
 21
-20.1249
  0
LINE
  8
0
 10
34.9283
 20
-20.1249
 11
35.0567
 21
-20.2213
  0
LINE
  8
0
 10
35.0567
 20
-20.2213
 11
35.1767
 21
-20.3306
  0
LINE
  8
0
 10
35.1767
 20
-20.3306
 11
35.286
 21
-20.4491
  0
LINE
  8
0
 10
35.286
 20
-20.4491
 11
35.3824
 21
-20.5731
  0
LINE
  8
0
 10
35.3824
 20
-20.5731
 11
35.466
 21
-20.7026
  0
LINE
  8
0
 10
35.466
 20
-20.7026
 11
35.5368
 21
-20.8377
  0
LINE
  8
0
 10
35.5368
 20
-20.8377
 11
35.5946
 21
-20.9782
  0
LINE
  8
0
 10
35.5946
 20
-20.9782
 11
35.6396
 21
-21.1242
  0
LINE
  8
0
 10
35.6396
 20
-21.1242
 11
35.6718
 21
-21.2758
  0
LINE
  8
0
 10
35.6718
 20
-21.2758
 11
35.6911
 21
-21.4329
  0
LINE
  8
0
 10
35.6911
 20
-21.4329
 11
35.6975
 21
-21.5954
  0
LINE
  8
0
 10
35.6975
 20
-21.5954
 11
35.6909
 21
-21.7578
  0
LINE
  8
0
 10
35.6909
 20
-21.7578
 11
35.6711
 21
-21.9144
  0
LINE
  8
0
 10
35.6711
 20
-21.9144
 11
35.638
 21
-22.065
  0
LINE
  8
0
 10
35.638
 20
-22.065
 11
35.5917
 21
-22.2098
  0
LINE
  8
0
 10
35.5917
 20
-22.2098
 11
35.5322
 21
-22.3487
  0
LINE
  8
0
 10
35.5322
 20
-22.3487
 11
35.4595
 21
-22.4817
  0
LINE
  8
0
 10
35.4595
 20
-22.4817
 11
35.3736
 21
-22.6089
  0
LINE
  8
0
 10
35.3736
 20
-22.6089
 11
35.2744
 21
-22.7301
  0
LINE
  8
0
 10
35.2744
 20
-22.7301
 11
35.162
 21
-22.8455
  0
LINE
  8
0
 10
35.162
 20
-22.8455
 11
35.0602
 21
-22.9462
  0
LINE
  8
0
 10
35.0602
 20
-22.9462
 11
34.9533
 21
-23.0366
  0
LINE
  8
0
 10
34.9533
 20
-23.0366
 11
34.8412
 21
-23.1167
  0
LINE
  8
0
 10
34.8412
 20
-23.1167
 11
34.724
 21
-23.1865
  0
LINE
  8
0
 10
34.724
 20
-23.1865
 11
34.6016
 21
-23.246
  0
LINE
  8
0
 10
34.6016
 20
-23.246
 11
34.4741
 21
-23.2953
  0
LINE
  8
0
 10
34.4741
 20
-23.2953
 11
34.3415
 21
-23.3342
  0
LINE
  8
0
 10
34.3415
 20
-23.3342
 11
34.2037
 21
-23.3629
  0
LINE
  8
0
 10
34.2037
 20
-23.3629
 11
34.0607
 21
-23.3813
  0
LINE
  8
0
 10
34.0607
 20
-23.3813
 11
33.6896
 21
-23.4276
  0
LINE
  8
0
 10
33.6896
 20
-23.4276
 11
33.3302
 21
-23.5004
  0
LINE
  8
0
 10
33.3302
 20
-23.5004
 11
32.9826
 21
-23.5996
  0
LINE
  8
0
 10
32.9826
 20
-23.5996
 11
32.6468
 21
-23.7252
  0
LINE
  8
0
 10
32.6468
 20
-23.7252
 11
32.3227
 21
-23.8773
  0
LINE
  8
0
 10
32.3227
 20
-23.8773
 11
32.0104
 21
-24.0559
  0
LINE
  8
0
 10
32.0104
 20
-24.0559
 11
31.7099
 21
-24.2609
  0
LINE
  8
0
 10
31.7099
 20
-24.2609
 11
31.4211
 21
-24.4923
  0
LINE
  8
0
 10
31.4211
 20
-24.4923
 11
31.1441
 21
-24.7502
  0
LINE
  8
0
 10
31.1441
 20
-24.7502
 11
30.8505
 21
-25.0681
  0
LINE
  8
0
 10
30.8505
 20
-25.0681
 11
30.5914
 21
-25.3999
  0
LINE
  8
0
 10
30.5914
 20
-25.3999
 11
30.3669
 21
-25.7456
  0
LINE
  8
0
 10
30.3669
 20
-25.7456
 11
30.177
 21
-26.1053
  0
LINE
  8
0
 10
30.177
 20
-26.1053
 11
30.0215
 21
-26.479
  0
LINE
  8
0
 10
30.0215
 20
-26.479
 11
29.9006
 21
-26.8666
  0
LINE
  8
0
 10
29.9006
 20
-26.8666
 11
29.8143
 21
-27.2682
  0
LINE
  8
0
 10
29.8143
 20
-27.2682
 11
29.7625
 21
-27.6837
  0
LINE
  8
0
 10
29.7625
 20
-27.6837
 11
29.7452
 21
-28.1132
  0
LINE
  8
0
 10
29.7452
 20
-28.1132
 11
29.7452
 21
-40.0478
  0
LINE
  8
0
 10
29.7452
 20
-40.0478
 11
29.7625
 21
-40.4774
  0
LINE
  8
0
 10
29.7625
 20
-40.4774
 11
29.8143
 21
-40.893
  0
LINE
  8
0
 10
29.8143
 20
-40.893
 11
29.9006
 21
-41.2946
  0
LINE
  8
0
 10
29.9006
 20
-41.2946
 11
30.0215
 21
-41.6823
  0
LINE
  8
0
 10
30.0215
 20
-41.6823
 11
30.177
 21
-42.056
  0
LINE
  8
0
 10
30.177
 20
-42.056
 11
30.3669
 21
-42.4157
  0
LINE
  8
0
 10
30.3669
 20
-42.4157
 11
30.5914
 21
-42.7615
  0
LINE
  8
0
 10
30.5914
 20
-42.7615
 11
30.8505
 21
-43.0933
  0
LINE
  8
0
 10
30.8505
 20
-43.0933
 11
31.1441
 21
-43.4111
  0
LINE
  8
0
 10
31.1441
 20
-43.4111
 11
31.4619
 21
-43.7047
  0
LINE
  8
0
 10
31.4619
 20
-43.7047
 11
31.7937
 21
-43.9637
  0
LINE
  8
0
 10
31.7937
 20
-43.9637
 11
32.1395
 21
-44.1881
  0
LINE
  8
0
 10
32.1395
 20
-44.1881
 11
32.4992
 21
-44.3781
  0
LINE
  8
0
 10
32.4992
 20
-44.3781
 11
32.8729
 21
-44.5335
  0
LINE
  8
0
 10
32.8729
 20
-44.5335
 11
33.2605
 21
-44.6543
  0
LINE
  8
0
 10
33.2605
 20
-44.6543
 11
33.6621
 21
-44.7407
  0
LINE
  8
0
 10
33.6621
 20
-44.7407
 11
34.0776
 21
-44.7925
  0
LINE
  8
0
 10
34.0776
 20
-44.7925
 11
34.5071
 21
-44.8097
  0
LINE
  8
0
 10
34.5071
 20
-44.8097
 11
39.269
 21
-44.8097
  0
LINE
  8
0
 10
39.269
 20
-44.8097
 11
39.269
 21
-10.8812
  0
LINE
  8
0
 10
39.269
 20
-10.8812
 11
39.2754
 21
-10.7187
  0
LINE
  8
0
 10
39.2754
 20
-10.7187
 11
39.2947
 21
-10.5616
  0
LINE
  8
0
 10
39.2947
 20
-10.5616
 11
39.3269
 21
-10.41
  0
LINE
  8
0
 10
39.3269
 20
-10.41
 11
39.3719
 21
-10.264
  0
LINE
  8
0
 10
39.3719
 20
-10.264
 11
39.4297
 21
-10.1235
  0
LINE
  8
0
 10
39.4297
 20
-10.1235
 11
39.5005
 21
-9.98846
  0
LINE
  8
0
 10
39.5005
 20
-9.98846
 11
39.584
 21
-9.85895
  0
LINE
  8
0
 10
39.584
 20
-9.85895
 11
39.6805
 21
-9.73494
  0
LINE
  8
0
 10
39.6805
 20
-9.73494
 11
39.7898
 21
-9.61646
  0
LINE
  8
0
 10
39.7898
 20
-9.61646
 11
39.9083
 21
-9.50716
  0
LINE
  8
0
 10
39.9083
 20
-9.50716
 11
40.0323
 21
-9.41071
  0
LINE
  8
0
 10
40.0323
 20
-9.41071
 11
40.1618
 21
-9.32712
  0
LINE
  8
0
 10
40.1618
 20
-9.32712
 11
40.2969
 21
-9.25639
  0
LINE
  8
0
 10
40.2969
 20
-9.25639
 11
40.4374
 21
-9.19853
  0
LINE
  8
0
 10
40.4374
 20
-9.19853
 11
40.5835
 21
-9.15352
  0
LINE
  8
0
 10
40.5835
 20
-9.15352
 11
40.7351
 21
-9.12138
  0
LINE
  8
0
 10
40.7351
 20
-9.12138
 11
40.8923
 21
-9.10208
  0
LINE
  8
0
 10
40.8923
 20
-9.10208
 11
41.0549
 21
-9.09566
  0
LINE
  8
0
 10
41.0549
 20
-9.09566
 11
41.2175
 21
-9.10208
  0
LINE
  8
0
 10
41.2175
 20
-9.10208
 11
41.3745
 21
-9.12138
  0
LINE
  8
0
 10
41.3745
 20
-9.12138
 11
41.5261
 21
-9.15352
  0
LINE
  8
0
 10
41.5261
 20
-9.15352
 11
41.6721
 21
-9.19853
  0
LINE
  8
0
 10
41.6721
 20
-9.19853
 11
41.8127
 21
-9.25639
  0
LINE
  8
0
 10
41.8127
 20
-9.25639
 11
41.9477
 21
-9.32712
  0
LINE
  8
0
 10
41.9477
 20
-9.32712
 11
42.0772
 21
-9.41071
  0
LINE
  8
0
 10
42.0772
 20
-9.41071
 11
42.2012
 21
-9.50716
  0
LINE
  8
0
 10
42.2012
 20
-9.50716
 11
42.3197
 21
-9.61646
  0
LINE
  8
0
 10
42.3197
 20
-9.61646
 11
42.429
 21
-9.73494
  0
LINE
  8
0
 10
42.429
 20
-9.73494
 11
42.5255
 21
-9.85895
  0
LINE
  8
0
 10
42.5255
 20
-9.85895
 11
42.609
 21
-9.98846
  0
LINE
  8
0
 10
42.609
 20
-9.98846
 11
42.6798
 21
-10.1235
  0
LINE
  8
0
 10
42.6798
 20
-10.1235
 11
42.7376
 21
-10.264
  0
LINE
  8
0
 10
42.7376
 20
-10.264
 11
42.7826
 21
-10.41
  0
LINE
  8
0
 10
42.7826
 20
-10.41
 11
42.8148
 21
-10.5616
  0
LINE
  8
0
 10
42.8148
 20
-10.5616
 11
42.8341
 21
-10.7187
  0
LINE
  8
0
 10
42.8341
 20
-10.7187
 11
42.8405
 21
-10.8812
  0
LINE
  8
0
 10
42.8405
 20
-10.8812
 11
42.8405
 21
-46.5956
  0
LINE
  8
0
 10
42.8405
 20
-46.5956
 11
42.8341
 21
-46.7582
  0
LINE
  8
0
 10
42.8341
 20
-46.7582
 11
42.8148
 21
-46.9153
  0
LINE
  8
0
 10
42.8148
 20
-46.9153
 11
42.7826
 21
-47.0668
  0
LINE
  8
0
 10
42.7826
 20
-47.0668
 11
42.7376
 21
-47.2129
  0
LINE
  8
0
 10
42.7376
 20
-47.2129
 11
42.6798
 21
-47.3534
  0
LINE
  8
0
 10
42.6798
 20
-47.3534
 11
42.609
 21
-47.4884
  0
LINE
  8
0
 10
42.609
 20
-47.4884
 11
42.5255
 21
-47.618
  0
LINE
  8
0
 10
42.5255
 20
-47.618
 11
42.429
 21
-47.742
  0
LINE
  8
0
 10
42.429
 20
-47.742
 11
42.3197
 21
-47.8604
  0
LINE
  8
0
 10
42.3197
 20
-47.8604
 11
42.2012
 21
-47.9697
  0
LINE
  8
0
 10
42.2012
 20
-47.9697
 11
42.0772
 21
-48.0662
  0
LINE
  8
0
 10
42.0772
 20
-48.0662
 11
41.9477
 21
-48.1498
  0
LINE
  8
0
 10
41.9477
 20
-48.1498
 11
41.8127
 21
-48.2205
  0
LINE
  8
0
 10
41.8127
 20
-48.2205
 11
41.6721
 21
-48.2784
  0
LINE
  8
0
 10
41.6721
 20
-48.2784
 11
41.5261
 21
-48.3234
  0
LINE
  8
0
 10
41.5261
 20
-48.3234
 11
41.3745
 21
-48.3555
  0
LINE
  8
0
 10
41.3745
 20
-48.3555
 11
41.2175
 21
-48.3748
  0
LINE
  8
0
 10
41.2175
 20
-48.3748
 11
41.0549
 21
-48.3812
  0
LINE
  8
0
 10
41.0549
 20
-48.3812
 11
34.5071
 21
-48.3812
  0
LINE
  8
0
 10
114.145
 20
-48.3748
 11
113.966
 21
-48.3555
  0
LINE
  8
0
 10
113.966
 20
-48.3555
 11
113.795
 21
-48.3234
  0
LINE
  8
0
 10
113.795
 20
-48.3234
 11
113.633
 21
-48.2784
  0
LINE
  8
0
 10
113.633
 20
-48.2784
 11
113.479
 21
-48.2205
  0
LINE
  8
0
 10
113.479
 20
-48.2205
 11
113.334
 21
-48.1498
  0
LINE
  8
0
 10
113.334
 20
-48.1498
 11
113.197
 21
-48.0662
  0
LINE
  8
0
 10
113.197
 20
-48.0662
 11
113.069
 21
-47.9697
  0
LINE
  8
0
 10
113.069
 20
-47.9697
 11
112.949
 21
-47.8604
  0
LINE
  8
0
 10
112.949
 20
-47.8604
 11
112.84
 21
-47.742
  0
LINE
  8
0
 10
112.84
 20
-47.742
 11
112.743
 21
-47.618
  0
LINE
  8
0
 10
112.743
 20
-47.618
 11
112.659
 21
-47.4884
  0
LINE
  8
0
 10
112.659
 20
-47.4884
 11
112.589
 21
-47.3534
  0
LINE
  8
0
 10
112.589
 20
-47.3534
 11
112.531
 21
-47.2129
  0
LINE
  8
0
 10
112.531
 20
-47.2129
 11
112.486
 21
-47.0668
  0
LINE
  8
0
 10
112.486
 20
-47.0668
 11
112.454
 21
-46.9153
  0
LINE
  8
0
 10
112.454
 20
-46.9153
 11
112.434
 21
-46.7582
  0
LINE
  8
0
 10
112.434
 20
-46.7582
 11
112.428
 21
-46.5956
  0
LINE
  8
0
 10
112.428
 20
-46.5956
 11
112.435
 21
-46.4332
  0
LINE
  8
0
 10
112.435
 20
-46.4332
 11
112.454
 21
-46.2766
  0
LINE
  8
0
 10
112.454
 20
-46.2766
 11
112.488
 21
-46.1259
  0
LINE
  8
0
 10
112.488
 20
-46.1259
 11
112.534
 21
-45.9812
  0
LINE
  8
0
 10
112.534
 20
-45.9812
 11
112.593
 21
-45.8423
  0
LINE
  8
0
 10
112.593
 20
-45.8423
 11
112.666
 21
-45.7092
  0
LINE
  8
0
 10
112.666
 20
-45.7092
 11
112.752
 21
-45.5821
  0
LINE
  8
0
 10
112.752
 20
-45.5821
 11
112.851
 21
-45.4609
  0
LINE
  8
0
 10
112.851
 20
-45.4609
 11
112.964
 21
-45.3455
  0
LINE
  8
0
 10
112.964
 20
-45.3455
 11
113.065
 21
-45.2449
  0
LINE
  8
0
 10
113.065
 20
-45.2449
 11
113.172
 21
-45.1545
  0
LINE
  8
0
 10
113.172
 20
-45.1545
 11
113.284
 21
-45.0744
  0
LINE
  8
0
 10
113.284
 20
-45.0744
 11
113.402
 21
-45.0046
  0
LINE
  8
0
 10
113.402
 20
-45.0046
 11
113.524
 21
-44.9451
  0
LINE
  8
0
 10
113.524
 20
-44.9451
 11
113.651
 21
-44.8958
  0
LINE
  8
0
 10
113.651
 20
-44.8958
 11
113.784
 21
-44.8568
  0
LINE
  8
0
 10
113.784
 20
-44.8568
 11
113.922
 21
-44.8282
  0
LINE
  8
0
 10
113.922
 20
-44.8282
 11
114.065
 21
-44.8097
  0
LINE
  8
0
 10
114.065
 20
-44.8097
 11
114.436
 21
-44.7634
  0
LINE
  8
0
 10
114.436
 20
-44.7634
 11
114.795
 21
-44.6907
  0
LINE
  8
0
 10
114.795
 20
-44.6907
 11
115.143
 21
-44.5915
  0
LINE
  8
0
 10
115.143
 20
-44.5915
 11
115.479
 21
-44.4659
  0
LINE
  8
0
 10
115.479
 20
-44.4659
 11
115.803
 21
-44.3138
  0
LINE
  8
0
 10
115.803
 20
-44.3138
 11
116.115
 21
-44.1352
  0
LINE
  8
0
 10
116.115
 20
-44.1352
 11
116.416
 21
-43.9302
  0
LINE
  8
0
 10
116.416
 20
-43.9302
 11
116.704
 21
-43.6987
  0
LINE
  8
0
 10
116.704
 20
-43.6987
 11
116.981
 21
-43.4408
  0
LINE
  8
0
 10
116.981
 20
-43.4408
 11
117.275
 21
-43.1292
  0
LINE
  8
0
 10
117.275
 20
-43.1292
 11
117.534
 21
-42.8029
  0
LINE
  8
0
 10
117.534
 20
-42.8029
 11
117.759
 21
-42.4619
  0
LINE
  8
0
 10
117.759
 20
-42.4619
 11
117.949
 21
-42.1063
  0
LINE
  8
0
 10
117.949
 20
-42.1063
 11
118.104
 21
-41.7359
  0
LINE
  8
0
 10
118.104
 20
-41.7359
 11
118.225
 21
-41.3508
  0
LINE
  8
0
 10
118.225
 20
-41.3508
 11
118.311
 21
-40.9511
  0
LINE
  8
0
 10
118.311
 20
-40.9511
 11
118.363
 21
-40.5367
  0
LINE
  8
0
 10
118.363
 20
-40.5367
 11
118.38
 21
-40.1075
  0
LINE
  8
0
 10
118.38
 20
-40.1075
 11
118.38
 21
-17.4287
  0
LINE
  8
0
 10
118.38
 20
-17.4287
 11
118.363
 21
-16.9993
  0
LINE
  8
0
 10
118.363
 20
-16.9993
 11
118.311
 21
-16.5837
  0
LINE
  8
0
 10
118.311
 20
-16.5837
 11
118.225
 21
-16.1821
  0
LINE
  8
0
 10
118.225
 20
-16.1821
 11
118.104
 21
-15.7945
  0
LINE
  8
0
 10
118.104
 20
-15.7945
 11
117.949
 21
-15.4209
  0
LINE
  8
0
 10
117.949
 20
-15.4209
 11
117.759
 21
-15.0611
  0
LINE
  8
0
 10
117.759
 20
-15.0611
 11
117.534
 21
-14.7154
  0
LINE
  8
0
 10
117.534
 20
-14.7154
 11
117.275
 21
-14.3836
  0
LINE
  8
0
 10
117.275
 20
-14.3836
 11
116.981
 21
-14.0657
  0
LINE
  8
0
 10
116.981
 20
-14.0657
 11
116.664
 21
-13.7721
  0
LINE
  8
0
 10
116.664
 20
-13.7721
 11
116.332
 21
-13.5131
  0
LINE
  8
0
 10
116.332
 20
-13.5131
 11
115.986
 21
-13.2886
  0
LINE
  8
0
 10
115.986
 20
-13.2886
 11
115.626
 21
-13.0986
  0
LINE
  8
0
 10
115.626
 20
-13.0986
 11
115.253
 21
-12.9432
  0
LINE
  8
0
 10
115.253
 20
-12.9432
 11
114.865
 21
-12.8223
  0
LINE
  8
0
 10
114.865
 20
-12.8223
 11
114.463
 21
-12.7359
  0
LINE
  8
0
 10
114.463
 20
-12.7359
 11
114.048
 21
-12.6841
  0
LINE
  8
0
 10
114.048
 20
-12.6841
 11
113.618
 21
-12.6668
  0
LINE
  8
0
 10
113.618
 20
-12.6668
 11
108.857
 21
-12.6668
  0
LINE
  8
0
 10
108.857
 20
-12.6668
 11
108.857
 21
-46.5956
  0
LINE
  8
0
 10
108.857
 20
-46.5956
 11
108.85
 21
-46.7582
  0
LINE
  8
0
 10
108.85
 20
-46.7582
 11
108.831
 21
-46.9153
  0
LINE
  8
0
 10
108.831
 20
-46.9153
 11
108.799
 21
-47.0668
  0
LINE
  8
0
 10
108.799
 20
-47.0668
 11
108.754
 21
-47.2129
  0
LINE
  8
0
 10
108.754
 20
-47.2129
 11
108.696
 21
-47.3534
  0
LINE
  8
0
 10
108.696
 20
-47.3534
 11
108.625
 21
-47.4884
  0
LINE
  8
0
 10
108.625
 20
-47.4884
 11
108.541
 21
-47.618
  0
LINE
  8
0
 10
108.541
 20
-47.618
 11
108.445
 21
-47.742
  0
LINE
  8
0
 10
108.445
 20
-47.742
 11
108.336
 21
-47.8604
  0
LINE
  8
0
 10
108.336
 20
-47.8604
 11
108.217
 21
-47.9697
  0
LINE
  8
0
 10
108.217
 20
-47.9697
 11
108.093
 21
-48.0662
  0
LINE
  8
0
 10
108.093
 20
-48.0662
 11
107.964
 21
-48.1498
  0
LINE
  8
0
 10
107.964
 20
-48.1498
 11
107.829
 21
-48.2205
  0
LINE
  8
0
 10
107.829
 20
-48.2205
 11
107.688
 21
-48.2784
  0
LINE
  8
0
 10
107.688
 20
-48.2784
 11
107.542
 21
-48.3234
  0
LINE
  8
0
 10
107.542
 20
-48.3234
 11
107.39
 21
-48.3555
  0
LINE
  8
0
 10
107.39
 20
-48.3555
 11
107.233
 21
-48.3748
  0
LINE
  8
0
 10
107.233
 20
-48.3748
 11
107.071
 21
-48.3812
  0
LINE
  8
0
 10
107.071
 20
-48.3812
 11
106.908
 21
-48.3748
  0
LINE
  8
0
 10
106.908
 20
-48.3748
 11
106.751
 21
-48.3555
  0
LINE
  8
0
 10
106.751
 20
-48.3555
 11
106.599
 21
-48.3234
  0
LINE
  8
0
 10
106.599
 20
-48.3234
 11
106.453
 21
-48.2784
  0
LINE
  8
0
 10
106.453
 20
-48.2784
 11
106.313
 21
-48.2205
  0
LINE
  8
0
 10
106.313
 20
-48.2205
 11
106.178
 21
-48.1498
  0
LINE
  8
0
 10
106.178
 20
-48.1498
 11
106.048
 21
-48.0662
  0
LINE
  8
0
 10
106.048
 20
-48.0662
 11
105.924
 21
-47.9697
  0
LINE
  8
0
 10
105.924
 20
-47.9697
 11
105.806
 21
-47.8604
  0
LINE
  8
0
 10
105.806
 20
-47.8604
 11
105.697
 21
-47.742
  0
LINE
  8
0
 10
105.697
 20
-47.742
 11
105.6
 21
-47.618
  0
LINE
  8
0
 10
105.6
 20
-47.618
 11
105.516
 21
-47.4884
  0
LINE
  8
0
 10
105.516
 20
-47.4884
 11
105.446
 21
-47.3534
  0
LINE
  8
0
 10
105.446
 20
-47.3534
 11
105.388
 21
-47.2129
  0
LINE
  8
0
 10
105.388
 20
-47.2129
 11
105.343
 21
-47.0668
  0
LINE
  8
0
 10
105.343
 20
-47.0668
 11
105.311
 21
-46.9153
  0
LINE
  8
0
 10
105.311
 20
-46.9153
 11
105.291
 21
-46.7582
  0
LINE
  8
0
 10
105.291
 20
-46.7582
 11
105.285
 21
-46.5956
  0
LINE
  8
0
 10
105.285
 20
-46.5956
 11
105.285
 21
-10.8812
  0
LINE
  8
0
 10
105.285
 20
-10.8812
 11
105.291
 21
-10.7187
  0
LINE
  8
0
 10
105.291
 20
-10.7187
 11
105.311
 21
-10.5616
  0
LINE
  8
0
 10
105.311
 20
-10.5616
 11
105.343
 21
-10.41
  0
LINE
  8
0
 10
105.343
 20
-10.41
 11
105.388
 21
-10.264
  0
LINE
  8
0
 10
105.388
 20
-10.264
 11
105.446
 21
-10.1235
  0
LINE
  8
0
 10
105.446
 20
-10.1235
 11
105.516
 21
-9.98846
  0
LINE
  8
0
 10
105.516
 20
-9.98846
 11
105.6
 21
-9.85895
  0
LINE
  8
0
 10
105.6
 20
-9.85895
 11
105.697
 21
-9.73494
  0
LINE
  8
0
 10
105.697
 20
-9.73494
 11
105.806
 21
-9.61646
  0
LINE
  8
0
 10
105.806
 20
-9.61646
 11
105.924
 21
-9.50716
  0
LINE
  8
0
 10
105.924
 20
-9.50716
 11
106.048
 21
-9.41071
  0
LINE
  8
0
 10
106.048
 20
-9.41071
 11
106.178
 21
-9.32712
  0
LINE
  8
0
 10
106.178
 20
-9.32712
 11
106.313
 21
-9.25639
  0
LINE
  8
0
 10
106.313
 20
-9.25639
 11
106.453
 21
-9.19853
  0
LINE
  8
0
 10
106.453
 20
-9.19853
 11
106.599
 21
-9.15352
  0
LINE
  8
0
 10
106.599
 20
-9.15352
 11
106.751
 21
-9.12138
  0
LINE
  8
0
 10
106.751
 20
-9.12138
 11
106.908
 21
-9.10208
  0
LINE
  8
0
 10
106.908
 20
-9.10208
 11
107.071
 21
-9.09566
  0
LINE
  8
0
 10
107.071
 20
-9.09566
 11
113.618
 21
-9.09566
  0
LINE
  8
0
 10
113.618
 20
-9.09566
 11
114.373
 21
-9.12579
  0
LINE
  8
0
 10
114.373
 20
-9.12579
 11
115.103
 21
-9.21617
  0
LINE
  8
0
 10
115.103
 20
-9.21617
 11
115.808
 21
-9.36682
  0
LINE
  8
0
 10
115.808
 20
-9.36682
 11
116.487
 21
-9.57773
  0
LINE
  8
0
 10
116.487
 20
-9.57773
 11
117.142
 21
-9.84889
  0
LINE
  8
0
 10
117.142
 20
-9.84889
 11
117.772
 21
-10.1803
  0
LINE
  8
0
 10
117.772
 20
-10.1803
 11
118.377
 21
-10.572
  0
LINE
  8
0
 10
118.377
 20
-10.572
 11
118.956
 21
-11.0239
  0
LINE
  8
0
 10
118.956
 20
-11.0239
 11
119.511
 21
-11.5361
  0
LINE
  8
0
 10
119.511
 20
-11.5361
 11
120.024
 21
-12.0909
  0
LINE
  8
0
 10
120.024
 20
-12.0909
 11
120.475
 21
-12.6707
  0
LINE
  8
0
 10
120.475
 20
-12.6707
 11
120.867
 21
-13.2754
  0
LINE
  8
0
 10
120.867
 20
-13.2754
 11
121.199
 21
-13.9052
  0
LINE
  8
0
 10
121.199
 20
-13.9052
 11
121.47
 21
-14.5599
  0
LINE
  8
0
 10
121.47
 20
-14.5599
 11
121.681
 21
-15.2396
  0
LINE
  8
0
 10
121.681
 20
-15.2396
 11
121.831
 21
-15.9443
  0
LINE
  8
0
 10
121.831
 20
-15.9443
 11
121.922
 21
-16.674
  0
LINE
  8
0
 10
121.922
 20
-16.674
 11
121.952
 21
-17.4287
  0
LINE
  8
0
 10
121.952
 20
-17.4287
 11
121.952
 21
-40.1075
  0
LINE
  8
0
 10
121.952
 20
-40.1075
 11
121.922
 21
-40.8619
  0
LINE
  8
0
 10
121.922
 20
-40.8619
 11
121.831
 21
-41.5905
  0
LINE
  8
0
 10
121.831
 20
-41.5905
 11
121.681
 21
-42.2934
  0
LINE
  8
0
 10
121.681
 20
-42.2934
 11
121.47
 21
-42.9705
  0
LINE
  8
0
 10
121.47
 20
-42.9705
 11
121.199
 21
-43.622
  0
LINE
  8
0
 10
121.199
 20
-43.622
 11
120.867
 21
-44.2477
  0
LINE
  8
0
 10
120.867
 20
-44.2477
 11
120.475
 21
-44.8477
  0
LINE
  8
0
 10
120.475
 20
-44.8477
 11
120.024
 21
-45.4219
  0
LINE
  8
0
 10
120.024
 20
-45.4219
 11
119.511
 21
-45.9704
  0
LINE
  8
0
 10
119.511
 20
-45.9704
 11
119.018
 21
-46.4353
  0
LINE
  8
0
 10
119.018
 20
-46.4353
 11
118.505
 21
-46.8509
  0
LINE
  8
0
 10
118.505
 20
-46.8509
 11
117.97
 21
-47.2172
  0
LINE
  8
0
 10
117.97
 20
-47.2172
 11
117.415
 21
-47.5343
  0
LINE
  8
0
 10
117.415
 20
-47.5343
 11
116.84
 21
-47.8022
  0
LINE
  8
0
 10
116.84
 20
-47.8022
 11
116.244
 21
-48.0208
  0
LINE
  8
0
 10
116.244
 20
-48.0208
 11
115.628
 21
-48.1902
  0
LINE
  8
0
 10
115.628
 20
-48.1902
 11
114.99
 21
-48.3103
  0
LINE
  8
0
 10
114.99
 20
-48.3103
 11
114.333
 21
-48.3812
  0
LINE
  8
0
 10
114.333
 20
-48.3812
 11
114.145
 21
-48.3748
  0
LINE
  8
0
 10
127.693
 20
-15.0393
 11
127.485
 21
-15.0134
  0
LINE
  8
0
 10
127.485
 20
-15.0134
 11
127.284
 21
-14.9702
  0
LINE
  8
0
 10
127.284
 20
-14.9702
 11
127.091
 21
-14.9098
  0
LINE
  8
0
 10
127.091
 20
-14.9098
 11
126.904
 21
-14.8321
  0
LINE
  8
0
 10
126.904
 20
-14.8321
 11
126.724
 21
-14.7371
  0
LINE
  8
0
 10
126.724
 20
-14.7371
 11
126.551
 21
-14.6249
  0
LINE
  8
0
 10
126.551
 20
-14.6249
 11
126.385
 21
-14.4954
  0
LINE
  8
0
 10
126.385
 20
-14.4954
 11
126.226
 21
-14.3486
  0
LINE
  8
0
 10
126.226
 20
-14.3486
 11
126.08
 21
-14.1897
  0
LINE
  8
0
 10
126.08
 20
-14.1897
 11
125.95
 21
-14.0238
  0
LINE
  8
0
 10
125.95
 20
-14.0238
 11
125.838
 21
-13.8508
  0
LINE
  8
0
 10
125.838
 20
-13.8508
 11
125.743
 21
-13.671
  0
LINE
  8
0
 10
125.743
 20
-13.671
 11
125.665
 21
-13.4841
  0
LINE
  8
0
 10
125.665
 20
-13.4841
 11
125.605
 21
-13.2902
  0
LINE
  8
0
 10
125.605
 20
-13.2902
 11
125.562
 21
-13.0894
  0
LINE
  8
0
 10
125.562
 20
-13.0894
 11
125.536
 21
-12.8816
  0
LINE
  8
0
 10
125.536
 20
-12.8816
 11
125.527
 21
-12.6668
  0
LINE
  8
0
 10
125.527
 20
-12.6668
 11
125.536
 21
-12.4521
  0
LINE
  8
0
 10
125.536
 20
-12.4521
 11
125.562
 21
-12.2444
  0
LINE
  8
0
 10
125.562
 20
-12.2444
 11
125.605
 21
-12.0436
  0
LINE
  8
0
 10
125.605
 20
-12.0436
 11
125.665
 21
-11.8499
  0
LINE
  8
0
 10
125.665
 20
-11.8499
 11
125.743
 21
-11.6631
  0
LINE
  8
0
 10
125.743
 20
-11.6631
 11
125.838
 21
-11.4832
  0
LINE
  8
0
 10
125.838
 20
-11.4832
 11
125.95
 21
-11.3104
  0
LINE
  8
0
 10
125.95
 20
-11.3104
 11
126.08
 21
-11.1445
  0
LINE
  8
0
 10
126.08
 20
-11.1445
 11
126.226
 21
-10.9856
  0
LINE
  8
0
 10
126.226
 20
-10.9856
 11
126.385
 21
-10.8388
  0
LINE
  8
0
 10
126.385
 20
-10.8388
 11
126.551
 21
-10.7093
  0
LINE
  8
0
 10
126.551
 20
-10.7093
 11
126.724
 21
-10.597
  0
LINE
  8
0
 10
126.724
 20
-10.597
 11
126.904
 21
-10.502
  0
LINE
  8
0
 10
126.904
 20
-10.502
 11
127.091
 21
-10.4242
  0
LINE
  8
0
 10
127.091
 20
-10.4242
 11
127.284
 21
-10.3638
  0
LINE
  8
0
 10
127.284
 20
-10.3638
 11
127.485
 21
-10.3206
  0
LINE
  8
0
 10
127.485
 20
-10.3206
 11
127.693
 21
-10.2947
  0
LINE
  8
0
 10
127.693
 20
-10.2947
 11
127.908
 21
-10.286
  0
LINE
  8
0
 10
127.908
 20
-10.286
 11
128.123
 21
-10.2947
  0
LINE
  8
0
 10
128.123
 20
-10.2947
 11
128.33
 21
-10.3206
  0
LINE
  8
0
 10
128.33
 20
-10.3206
 11
128.531
 21
-10.3638
  0
LINE
  8
0
 10
128.531
 20
-10.3638
 11
128.725
 21
-10.4242
  0
LINE
  8
0
 10
128.725
 20
-10.4242
 11
128.912
 21
-10.502
  0
LINE
  8
0
 10
128.912
 20
-10.502
 11
129.092
 21
-10.597
  0
LINE
  8
0
 10
129.092
 20
-10.597
 11
129.265
 21
-10.7093
  0
LINE
  8
0
 10
129.265
 20
-10.7093
 11
129.43
 21
-10.8388
  0
LINE
  8
0
 10
129.43
 20
-10.8388
 11
129.589
 21
-10.9856
  0
LINE
  8
0
 10
129.589
 20
-10.9856
 11
129.736
 21
-11.1445
  0
LINE
  8
0
 10
129.736
 20
-11.1445
 11
129.866
 21
-11.3104
  0
LINE
  8
0
 10
129.866
 20
-11.3104
 11
129.978
 21
-11.4832
  0
LINE
  8
0
 10
129.978
 20
-11.4832
 11
130.073
 21
-11.6631
  0
LINE
  8
0
 10
130.073
 20
-11.6631
 11
130.151
 21
-11.8499
  0
LINE
  8
0
 10
130.151
 20
-11.8499
 11
130.211
 21
-12.0436
  0
LINE
  8
0
 10
130.211
 20
-12.0436
 11
130.254
 21
-12.2444
  0
LINE
  8
0
 10
130.254
 20
-12.2444
 11
130.28
 21
-12.4521
  0
LINE
  8
0
 10
130.28
 20
-12.4521
 11
130.289
 21
-12.6668
  0
LINE
  8
0
 10
130.289
 20
-12.6668
 11
130.28
 21
-12.8816
  0
LINE
  8
0
 10
130.28
 20
-12.8816
 11
130.254
 21
-13.0894
  0
LINE
  8
0
 10
130.254
 20
-13.0894
 11
130.211
 21
-13.2902
  0
LINE
  8
0
 10
130.211
 20
-13.2902
 11
130.151
 21
-13.4841
  0
LINE
  8
0
 10
130.151
 20
-13.4841
 11
130.073
 21
-13.671
  0
LINE
  8
0
 10
130.073
 20
-13.671
 11
129.978
 21
-13.8508
  0
LINE
  8
0
 10
129.978
 20
-13.8508
 11
129.866
 21
-14.0238
  0
LINE
  8
0
 10
129.866
 20
-14.0238
 11
129.736
 21
-14.1897
  0
LINE
  8
0
 10
129.736
 20
-14.1897
 11
129.589
 21
-14.3486
  0
LINE
  8
0
 10
129.589
 20
-14.3486
 11
129.43
 21
-14.4954
  0
LINE
  8
0
 10
129.43
 20
-14.4954
 11
129.265
 21
-14.6249
  0
LINE
  8
0
 10
129.265
 20
-14.6249
 11
129.092
 21
-14.7371
  0
LINE
  8
0
 10
129.092
 20
-14.7371
 11
128.912
 21
-14.8321
  0
LINE
  8
0
 10
128.912
 20
-14.8321
 11
128.725
 21
-14.9098
  0
LINE
  8
0
 10
128.725
 20
-14.9098
 11
128.531
 21
-14.9702
  0
LINE
  8
0
 10
128.531
 20
-14.9702
 11
128.33
 21
-15.0134
  0
LINE
  8
0
 10
128.33
 20
-15.0134
 11
128.123
 21
-15.0393
  0
LINE
  8
0
 10
128.123
 20
-15.0393
 11
127.908
 21
-15.0479
  0
LINE
  8
0
 10
127.908
 20
-15.0479
 11
127.693
 21
-15.0393
  0
LINE
  8
0
 10
50.7887
 20
-15.0393
 11
50.5809
 21
-15.0134
  0
LINE
  8
0
 10
50.5809
 20
-15.0134
 11
50.3801
 21
-14.9702
  0
LINE
  8
0
 10
50.3801
 20
-14.9702
 11
50.1863
 21
-14.9098
  0
LINE
  8
0
 10
50.1863
 20
-14.9098
 11
49.9995
 21
-14.8321
  0
LINE
  8
0
 10
49.9995
 20
-14.8321
 11
49.8196
 21
-14.7371
  0
LINE
  8
0
 10
49.8196
 20
-14.7371
 11
49.6467
 21
-14.6249
  0
LINE
  8
0
 10
49.6467
 20
-14.6249
 11
49.4809
 21
-14.4954
  0
LINE
  8
0
 10
49.4809
 20
-14.4954
 11
49.322
 21
-14.3486
  0
LINE
  8
0
 10
49.322
 20
-14.3486
 11
49.1752
 21
-14.1897
  0
LINE
  8
0
 10
49.1752
 20
-14.1897
 11
49.0457
 21
-14.0238
  0
LINE
  8
0
 10
49.0457
 20
-14.0238
 11
48.9335
 21
-13.8508
  0
LINE
  8
0
 10
48.9335
 20
-13.8508
 11
48.8385
 21
-13.671
  0
LINE
  8
0
 10
48.8385
 20
-13.671
 11
48.7608
 21
-13.4841
  0
LINE
  8
0
 10
48.7608
 20
-13.4841
 11
48.7004
 21
-13.2902
  0
LINE
  8
0
 10
48.7004
 20
-13.2902
 11
48.6572
 21
-13.0894
  0
LINE
  8
0
 10
48.6572
 20
-13.0894
 11
48.6313
 21
-12.8816
  0
LINE
  8
0
 10
48.6313
 20
-12.8816
 11
48.6227
 21
-12.6668
  0
LINE
  8
0
 10
48.6227
 20
-12.6668
 11
48.6313
 21
-12.4521
  0
LINE
  8
0
 10
48.6313
 20
-12.4521
 11
48.6572
 21
-12.2444
  0
LINE
  8
0
 10
48.6572
 20
-12.2444
 11
48.7004
 21
-12.0436
  0
LINE
  8
0
 10
48.7004
 20
-12.0436
 11
48.7608
 21
-11.8499
  0
LINE
  8
0
 10
48.7608
 20
-11.8499
 11
48.8385
 21
-11.6631
  0
LINE
  8
0
 10
48.8385
 20
-11.6631
 11
48.9335
 21
-11.4832
  0
LINE
  8
0
 10
48.9335
 20
-11.4832
 11
49.0457
 21
-11.3104
  0
LINE
  8
0
 10
49.0457
 20
-11.3104
 11
49.1752
 21
-11.1445
  0
LINE
  8
0
 10
49.1752
 20
-11.1445
 11
49.322
 21
-10.9856
  0
LINE
  8
0
 10
49.322
 20
-10.9856
 11
49.4809
 21
-10.8388
  0
LINE
  8
0
 10
49.4809
 20
-10.8388
 11
49.6467
 21
-10.7093
  0
LINE
  8
0
 10
49.6467
 20
-10.7093
 11
49.8196
 21
-10.597
  0
LINE
  8
0
 10
49.8196
 20
-10.597
 11
49.9995
 21
-10.502
  0
LINE
  8
0
 10
49.9995
 20
-10.502
 11
50.1863
 21
-10.4242
  0
LINE
  8
0
 10
50.1863
 20
-10.4242
 11
50.3801
 21
-10.3638
  0
LINE
  8
0
 10
50.3801
 20
-10.3638
 11
50.5809
 21
-10.3206
  0
LINE
  8
0
 10
50.5809
 20
-10.3206
 11
50.7887
 21
-10.2947
  0
LINE
  8
0
 10
50.7887
 20
-10.2947
 11
51.0035
 21
-10.286
  0
LINE
  8
0
 10
51.0035
 20
-10.286
 11
51.2182
 21
-10.2947
  0
LINE
  8
0
 10
51.2182
 20
-10.2947
 11
51.426
 21
-10.3206
  0
LINE
  8
0
 10
51.426
 20
-10.3206
 11
51.6268
 21
-10.3638
  0
LINE
  8
0
 10
51.6268
 20
-10.3638
 11
51.8206
 21
-10.4242
  0
LINE
  8
0
 10
51.8206
 20
-10.4242
 11
52.0075
 21
-10.502
  0
LINE
  8
0
 10
52.0075
 20
-10.502
 11
52.1873
 21
-10.597
  0
LINE
  8
0
 10
52.1873
 20
-10.597
 11
52.3602
 21
-10.7093
  0
LINE
  8
0
 10
52.3602
 20
-10.7093
 11
52.5261
 21
-10.8388
  0
LINE
  8
0
 10
52.5261
 20
-10.8388
 11
52.685
 21
-10.9856
  0
LINE
  8
0
 10
52.685
 20
-10.9856
 11
52.8318
 21
-11.1445
  0
LINE
  8
0
 10
52.8318
 20
-11.1445
 11
52.9613
 21
-11.3104
  0
LINE
  8
0
 10
52.9613
 20
-11.3104
 11
53.0736
 21
-11.4832
  0
LINE
  8
0
 10
53.0736
 20
-11.4832
 11
53.1686
 21
-11.6631
  0
LINE
  8
0
 10
53.1686
 20
-11.6631
 11
53.2464
 21
-11.8499
  0
LINE
  8
0
 10
53.2464
 20
-11.8499
 11
53.3068
 21
-12.0436
  0
LINE
  8
0
 10
53.3068
 20
-12.0436
 11
53.35
 21
-12.2444
  0
LINE
  8
0
 10
53.35
 20
-12.2444
 11
53.3759
 21
-12.4521
  0
LINE
  8
0
 10
53.3759
 20
-12.4521
 11
53.3846
 21
-12.6668
  0
LINE
  8
0
 10
53.3846
 20
-12.6668
 11
53.3759
 21
-12.8816
  0
LINE
  8
0
 10
53.3759
 20
-12.8816
 11
53.35
 21
-13.0894
  0
LINE
  8
0
 10
53.35
 20
-13.0894
 11
53.3068
 21
-13.2902
  0
LINE
  8
0
 10
53.3068
 20
-13.2902
 11
53.2464
 21
-13.4841
  0
LINE
  8
0
 10
53.2464
 20
-13.4841
 11
53.1686
 21
-13.671
  0
LINE
  8
0
 10
53.1686
 20
-13.671
 11
53.0736
 21
-13.8508
  0
LINE
  8
0
 10
53.0736
 20
-13.8508
 11
52.9613
 21
-14.0238
  0
LINE
  8
0
 10
52.9613
 20
-14.0238
 11
52.8318
 21
-14.1897
  0
LINE
  8
0
 10
52.8318
 20
-14.1897
 11
52.685
 21
-14.3486
  0
LINE
  8
0
 10
52.685
 20
-14.3486
 11
52.5261
 21
-14.4954
  0
LINE
  8
0
 10
52.5261
 20
-14.4954
 11
52.3602
 21
-14.6249
  0
LINE
  8
0
 10
52.3602
 20
-14.6249
 11
52.1873
 21
-14.7371
  0
LINE
  8
0
 10
52.1873
 20
-14.7371
 11
52.0075
 21
-14.8321
  0
LINE
  8
0
 10
52.0075
 20
-14.8321
 11
51.8206
 21
-14.9098
  0
LINE
  8
0
 10
51.8206
 20
-14.9098
 11
51.6268
 21
-14.9702
  0
LINE
  8
0
 10
51.6268
 20
-14.9702
 11
51.426
 21
-15.0134
  0
LINE
  8
0
 10
51.426
 20
-15.0134
 11
51.2182
 21
-15.0393
  0
LINE
  8
0
 10
51.2182
 20
-15.0393
 11
51.0035
 21
-15.0479
  0
LINE
  8
0
 10
51.0035
 20
-15.0479
 11
50.7887
 21
-15.0393
  0
LINE
  8
0
 10
89.6708
 20
-57.9046
 11
88.941
 21
-57.8142
  0
LINE
  8
0
 10
88.941
 20
-57.8142
 11
88.2363
 21
-57.6636
  0
LINE
  8
0
 10
88.2363
 20
-57.6636
 11
87.5565
 21
-57.4527
  0
LINE
  8
0
 10
87.5565
 20
-57.4527
 11
86.9018
 21
-57.1815
  0
LINE
  8
0
 10
86.9018
 20
-57.1815
 11
86.272
 21
-56.8501
  0
LINE
  8
0
 10
86.272
 20
-56.8501
 11
85.6672
 21
-56.4584
  0
LINE
  8
0
 10
85.6672
 20
-56.4584
 11
85.0874
 21
-56.0064
  0
LINE
  8
0
 10
85.0874
 20
-56.0064
 11
84.5326
 21
-55.4942
  0
LINE
  8
0
 10
84.5326
 20
-55.4942
 11
84.4139
 21
-55.3543
  0
LINE
  8
0
 10
84.4139
 20
-55.3543
 11
84.3093
 21
-55.2121
  0
LINE
  8
0
 10
84.3093
 20
-55.2121
 11
84.2186
 21
-55.0677
  0
LINE
  8
0
 10
84.2186
 20
-55.0677
 11
84.1418
 21
-54.9211
  0
LINE
  8
0
 10
84.1418
 20
-54.9211
 11
84.079
 21
-54.7723
  0
LINE
  8
0
 10
84.079
 20
-54.7723
 11
84.0302
 21
-54.6213
  0
LINE
  8
0
 10
84.0302
 20
-54.6213
 11
83.9953
 21
-54.4681
  0
LINE
  8
0
 10
83.9953
 20
-54.4681
 11
83.9743
 21
-54.3127
  0
LINE
  8
0
 10
83.9743
 20
-54.3127
 11
83.9674
 21
-54.155
  0
LINE
  8
0
 10
83.9674
 20
-54.155
 11
83.9738
 21
-53.9925
  0
LINE
  8
0
 10
83.9738
 20
-53.9925
 11
83.9931
 21
-53.8354
  0
LINE
  8
0
 10
83.9931
 20
-53.8354
 11
84.0252
 21
-53.6838
  0
LINE
  8
0
 10
84.0252
 20
-53.6838
 11
84.0702
 21
-53.5378
  0
LINE
  8
0
 10
84.0702
 20
-53.5378
 11
84.1281
 21
-53.3973
  0
LINE
  8
0
 10
84.1281
 20
-53.3973
 11
84.1988
 21
-53.2622
  0
LINE
  8
0
 10
84.1988
 20
-53.2622
 11
84.2824
 21
-53.1327
  0
LINE
  8
0
 10
84.2824
 20
-53.1327
 11
84.3789
 21
-53.0087
  0
LINE
  8
0
 10
84.3789
 20
-53.0087
 11
84.4882
 21
-52.8902
  0
LINE
  8
0
 10
84.4882
 20
-52.8902
 11
84.6067
 21
-52.7809
  0
LINE
  8
0
 10
84.6067
 20
-52.7809
 11
84.7307
 21
-52.6845
  0
LINE
  8
0
 10
84.7307
 20
-52.6845
 11
84.8602
 21
-52.6009
  0
LINE
  8
0
 10
84.8602
 20
-52.6009
 11
84.9952
 21
-52.5302
  0
LINE
  8
0
 10
84.9952
 20
-52.5302
 11
85.1357
 21
-52.4723
  0
LINE
  8
0
 10
85.1357
 20
-52.4723
 11
85.2818
 21
-52.4273
  0
LINE
  8
0
 10
85.2818
 20
-52.4273
 11
85.4333
 21
-52.3952
  0
LINE
  8
0
 10
85.4333
 20
-52.3952
 11
85.5904
 21
-52.3759
  0
LINE
  8
0
 10
85.5904
 20
-52.3759
 11
85.753
 21
-52.3694
  0
LINE
  8
0
 10
85.753
 20
-52.3694
 11
85.9161
 21
-52.3764
  0
LINE
  8
0
 10
85.9161
 20
-52.3764
 11
86.0748
 21
-52.3974
  0
LINE
  8
0
 10
86.0748
 20
-52.3974
 11
86.2291
 21
-52.4323
  0
LINE
  8
0
 10
86.2291
 20
-52.4323
 11
86.379
 21
-52.4811
  0
LINE
  8
0
 10
86.379
 20
-52.4811
 11
86.5245
 21
-52.544
  0
LINE
  8
0
 10
86.5245
 20
-52.544
 11
86.6656
 21
-52.6208
  0
LINE
  8
0
 10
86.6656
 20
-52.6208
 11
86.8023
 21
-52.7115
  0
LINE
  8
0
 10
86.8023
 20
-52.7115
 11
86.9346
 21
-52.8163
  0
LINE
  8
0
 10
86.9346
 20
-52.8163
 11
87.0625
 21
-52.9349
  0
LINE
  8
0
 10
87.0625
 20
-52.9349
 11
87.3803
 21
-53.2285
  0
LINE
  8
0
 10
87.3803
 20
-53.2285
 11
87.7121
 21
-53.4875
  0
LINE
  8
0
 10
87.7121
 20
-53.4875
 11
88.0579
 21
-53.7119
  0
LINE
  8
0
 10
88.0579
 20
-53.7119
 11
88.4176
 21
-53.9019
  0
LINE
  8
0
 10
88.4176
 20
-53.9019
 11
88.7912
 21
-54.0573
  0
LINE
  8
0
 10
88.7912
 20
-54.0573
 11
89.1789
 21
-54.1781
  0
LINE
  8
0
 10
89.1789
 20
-54.1781
 11
89.5804
 21
-54.2645
  0
LINE
  8
0
 10
89.5804
 20
-54.2645
 11
89.996
 21
-54.3163
  0
LINE
  8
0
 10
89.996
 20
-54.3163
 11
90.4255
 21
-54.3335
  0
LINE
  8
0
 10
90.4255
 20
-54.3335
 11
90.8611
 21
-54.3163
  0
LINE
  8
0
 10
90.8611
 20
-54.3163
 11
91.2816
 21
-54.2645
  0
LINE
  8
0
 10
91.2816
 20
-54.2645
 11
91.6871
 21
-54.1781
  0
LINE
  8
0
 10
91.6871
 20
-54.1781
 11
92.0775
 21
-54.0572
  0
LINE
  8
0
 10
92.0775
 20
-54.0572
 11
92.4528
 21
-53.9018
  0
LINE
  8
0
 10
92.4528
 20
-53.9018
 11
92.8131
 21
-53.7118
  0
LINE
  8
0
 10
92.8131
 20
-53.7118
 11
93.1583
 21
-53.4873
  0
LINE
  8
0
 10
93.1583
 20
-53.4873
 11
93.4884
 21
-53.2282
  0
LINE
  8
0
 10
93.4884
 20
-53.2282
 11
93.8035
 21
-52.9346
  0
LINE
  8
0
 10
93.8035
 20
-52.9346
 11
94.0939
 21
-52.6169
  0
LINE
  8
0
 10
94.0939
 20
-52.6169
 11
94.3502
 21
-52.2851
  0
LINE
  8
0
 10
94.3502
 20
-52.2851
 11
94.5723
 21
-51.9394
  0
LINE
  8
0
 10
94.5723
 20
-51.9394
 11
94.7602
 21
-51.5797
  0
LINE
  8
0
 10
94.7602
 20
-51.5797
 11
94.914
 21
-51.206
  0
LINE
  8
0
 10
94.914
 20
-51.206
 11
95.0336
 21
-50.8184
  0
LINE
  8
0
 10
95.0336
 20
-50.8184
 11
95.119
 21
-50.4168
  0
LINE
  8
0
 10
95.119
 20
-50.4168
 11
95.1703
 21
-50.0012
  0
LINE
  8
0
 10
95.1703
 20
-50.0012
 11
95.1874
 21
-49.5716
  0
LINE
  8
0
 10
95.1874
 20
-49.5716
 11
95.2174
 21
-49.5716
  0
LINE
  8
0
 10
95.2174
 20
-49.5716
 11
95.2174
 21
-23.3813
  0
LINE
  8
0
 10
95.2174
 20
-23.3813
 11
90.4555
 21
-23.3813
  0
LINE
  8
0
 10
90.4555
 20
-23.3813
 11
90.0259
 21
-23.3986
  0
LINE
  8
0
 10
90.0259
 20
-23.3986
 11
89.6103
 21
-23.4504
  0
LINE
  8
0
 10
89.6103
 20
-23.4504
 11
89.2087
 21
-23.5368
  0
LINE
  8
0
 10
89.2087
 20
-23.5368
 11
88.821
 21
-23.6577
  0
LINE
  8
0
 10
88.821
 20
-23.6577
 11
88.4473
 21
-23.8131
  0
LINE
  8
0
 10
88.4473
 20
-23.8131
 11
88.0876
 21
-24.0031
  0
LINE
  8
0
 10
88.0876
 20
-24.0031
 11
87.7418
 21
-24.2276
  0
LINE
  8
0
 10
87.7418
 20
-24.2276
 11
87.41
 21
-24.4866
  0
LINE
  8
0
 10
87.41
 20
-24.4866
 11
87.0922
 21
-24.7802
  0
LINE
  8
0
 10
87.0922
 20
-24.7802
 11
86.7986
 21
-25.098
  0
LINE
  8
0
 10
86.7986
 20
-25.098
 11
86.5396
 21
-25.4298
  0
LINE
  8
0
 10
86.5396
 20
-25.4298
 11
86.3152
 21
-25.7755
  0
LINE
  8
0
 10
86.3152
 20
-25.7755
 11
86.1252
 21
-26.1352
  0
LINE
  8
0
 10
86.1252
 20
-26.1352
 11
85.9698
 21
-26.5089
  0
LINE
  8
0
 10
85.9698
 20
-26.5089
 11
85.849
 21
-26.8965
  0
LINE
  8
0
 10
85.849
 20
-26.8965
 11
85.7626
 21
-27.2981
  0
LINE
  8
0
 10
85.7626
 20
-27.2981
 11
85.7108
 21
-27.7137
  0
LINE
  8
0
 10
85.7108
 20
-27.7137
 11
85.6936
 21
-28.1432
  0
LINE
  8
0
 10
85.6936
 20
-28.1432
 11
85.6936
 21
-40.0478
  0
LINE
  8
0
 10
85.6936
 20
-40.0478
 11
85.7108
 21
-40.4774
  0
LINE
  8
0
 10
85.7108
 20
-40.4774
 11
85.7626
 21
-40.893
  0
LINE
  8
0
 10
85.7626
 20
-40.893
 11
85.849
 21
-41.2946
  0
LINE
  8
0
 10
85.849
 20
-41.2946
 11
85.9698
 21
-41.6823
  0
LINE
  8
0
 10
85.9698
 20
-41.6823
 11
86.1252
 21
-42.056
  0
LINE
  8
0
 10
86.1252
 20
-42.056
 11
86.3152
 21
-42.4157
  0
LINE
  8
0
 10
86.3152
 20
-42.4157
 11
86.5396
 21
-42.7615
  0
LINE
  8
0
 10
86.5396
 20
-42.7615
 11
86.7986
 21
-43.0933
  0
LINE
  8
0
 10
86.7986
 20
-43.0933
 11
87.0922
 21
-43.4111
  0
LINE
  8
0
 10
87.0922
 20
-43.4111
 11
87.3549
 21
-43.6573
  0
LINE
  8
0
 10
87.3549
 20
-43.6573
 11
87.6271
 21
-43.88
  0
LINE
  8
0
 10
87.6271
 20
-43.88
 11
87.909
 21
-44.0791
  0
LINE
  8
0
 10
87.909
 20
-44.0791
 11
88.2003
 21
-44.2547
  0
LINE
  8
0
 10
88.2003
 20
-44.2547
 11
88.5013
 21
-44.4068
  0
LINE
  8
0
 10
88.5013
 20
-44.4068
 11
88.8118
 21
-44.5354
  0
LINE
  8
0
 10
88.8118
 20
-44.5354
 11
89.1318
 21
-44.6405
  0
LINE
  8
0
 10
89.1318
 20
-44.6405
 11
89.4614
 21
-44.722
  0
LINE
  8
0
 10
89.4614
 20
-44.722
 11
89.8006
 21
-44.78
  0
LINE
  8
0
 10
89.8006
 20
-44.78
 11
89.9817
 21
-44.8049
  0
LINE
  8
0
 10
89.9817
 20
-44.8049
 11
90.1548
 21
-44.8396
  0
LINE
  8
0
 10
90.1548
 20
-44.8396
 11
90.3198
 21
-44.8843
  0
LINE
  8
0
 10
90.3198
 20
-44.8843
 11
90.4767
 21
-44.9389
  0
LINE
  8
0
 10
90.4767
 20
-44.9389
 11
90.6255
 21
-45.0034
  0
LINE
  8
0
 10
90.6255
 20
-45.0034
 11
90.7662
 21
-45.0778
  0
LINE
  8
0
 10
90.7662
 20
-45.0778
 11
90.8988
 21
-45.1621
  0
LINE
  8
0
 10
90.8988
 20
-45.1621
 11
91.0233
 21
-45.2564
  0
LINE
  8
0
 10
91.0233
 20
-45.2564
 11
91.1398
 21
-45.3605
  0
LINE
  8
0
 10
91.1398
 20
-45.3605
 11
91.246
 21
-45.4724
  0
LINE
  8
0
 10
91.246
 20
-45.4724
 11
91.3397
 21
-45.5897
  0
LINE
  8
0
 10
91.3397
 20
-45.5897
 11
91.4209
 21
-45.7126
  0
LINE
  8
0
 10
91.4209
 20
-45.7126
 11
91.4897
 21
-45.841
  0
LINE
  8
0
 10
91.4897
 20
-45.841
 11
91.5459
 21
-45.9749
  0
LINE
  8
0
 10
91.5459
 20
-45.9749
 11
91.5896
 21
-46.1143
  0
LINE
  8
0
 10
91.5896
 20
-46.1143
 11
91.6209
 21
-46.2592
  0
LINE
  8
0
 10
91.6209
 20
-46.2592
 11
91.6396
 21
-46.4097
  0
LINE
  8
0
 10
91.6396
 20
-46.4097
 11
91.6459
 21
-46.5656
  0
LINE
  8
0
 10
91.6459
 20
-46.5656
 11
91.6394
 21
-46.7283
  0
LINE
  8
0
 10
91.6394
 20
-46.7283
 11
91.6201
 21
-46.8854
  0
LINE
  8
0
 10
91.6201
 20
-46.8854
 11
91.588
 21
-47.037
  0
LINE
  8
0
 10
91.588
 20
-47.037
 11
91.543
 21
-47.1831
  0
LINE
  8
0
 10
91.543
 20
-47.1831
 11
91.4851
 21
-47.3237
  0
LINE
  8
0
 10
91.4851
 20
-47.3237
 11
91.4144
 21
-47.4587
  0
LINE
  8
0
 10
91.4144
 20
-47.4587
 11
91.3308
 21
-47.5882
  0
LINE
  8
0
 10
91.3308
 20
-47.5882
 11
91.2344
 21
-47.7122
  0
LINE
  8
0
 10
91.2344
 20
-47.7122
 11
91.1251
 21
-47.8307
  0
LINE
  8
0
 10
91.1251
 20
-47.8307
 11
91.0066
 21
-47.94
  0
LINE
  8
0
 10
91.0066
 20
-47.94
 11
90.8826
 21
-48.0365
  0
LINE
  8
0
 10
90.8826
 20
-48.0365
 11
90.753
 21
-48.1201
  0
LINE
  8
0
 10
90.753
 20
-48.1201
 11
90.618
 21
-48.1908
  0
LINE
  8
0
 10
90.618
 20
-48.1908
 11
90.4774
 21
-48.2487
  0
LINE
  8
0
 10
90.4774
 20
-48.2487
 11
90.3313
 21
-48.2937
  0
LINE
  8
0
 10
90.3313
 20
-48.2937
 11
90.1797
 21
-48.3258
  0
LINE
  8
0
 10
90.1797
 20
-48.3258
 11
90.0226
 21
-48.3451
  0
LINE
  8
0
 10
90.0226
 20
-48.3451
 11
89.86
 21
-48.3515
  0
LINE
  8
0
 10
89.86
 20
-48.3515
 11
89.7112
 21
-48.3515
  0
LINE
  8
0
 10
89.7112
 20
-48.3515
 11
89.0598
 21
-48.2747
  0
LINE
  8
0
 10
89.0598
 20
-48.2747
 11
88.4282
 21
-48.1501
  0
LINE
  8
0
 10
88.4282
 20
-48.1501
 11
87.8164
 21
-47.9778
  0
LINE
  8
0
 10
87.8164
 20
-47.9778
 11
87.2245
 21
-47.7577
  0
LINE
  8
0
 10
87.2245
 20
-47.7577
 11
86.6525
 21
-47.4898
  0
LINE
  8
0
 10
86.6525
 20
-47.4898
 11
86.1002
 21
-47.1742
  0
LINE
  8
0
 10
86.1002
 20
-47.1742
 11
85.5678
 21
-46.8108
  0
LINE
  8
0
 10
85.5678
 20
-46.8108
 11
85.0553
 21
-46.3997
  0
LINE
  8
0
 10
85.0553
 20
-46.3997
 11
84.5626
 21
-45.9407
  0
LINE
  8
0
 10
84.5626
 20
-45.9407
 11
84.0504
 21
-45.3859
  0
LINE
  8
0
 10
84.0504
 20
-45.3859
 11
83.5984
 21
-44.8061
  0
LINE
  8
0
 10
83.5984
 20
-44.8061
 11
83.2067
 21
-44.2013
  0
LINE
  8
0
 10
83.2067
 20
-44.2013
 11
82.8753
 21
-43.5715
  0
LINE
  8
0
 10
82.8753
 20
-43.5715
 11
82.6041
 21
-42.9168
  0
LINE
  8
0
 10
82.6041
 20
-42.9168
 11
82.3932
 21
-42.237
  0
LINE
  8
0
 10
82.3932
 20
-42.237
 11
82.2426
 21
-41.5323
  0
LINE
  8
0
 10
82.2426
 20
-41.5323
 11
82.1522
 21
-40.8026
  0
LINE
  8
0
 10
82.1522
 20
-40.8026
 11
82.1221
 21
-40.0478
  0
LINE
  8
0
 10
82.1221
 20
-40.0478
 11
82.1221
 21
-28.1432
  0
LINE
  8
0
 10
82.1221
 20
-28.1432
 11
82.1522
 21
-27.3885
  0
LINE
  8
0
 10
82.1522
 20
-27.3885
 11
82.2426
 21
-26.6588
  0
LINE
  8
0
 10
82.2426
 20
-26.6588
 11
82.3932
 21
-25.9541
  0
LINE
  8
0
 10
82.3932
 20
-25.9541
 11
82.6041
 21
-25.2743
  0
LINE
  8
0
 10
82.6041
 20
-25.2743
 11
82.8753
 21
-24.6196
  0
LINE
  8
0
 10
82.8753
 20
-24.6196
 11
83.2067
 21
-23.9898
  0
LINE
  8
0
 10
83.2067
 20
-23.9898
 11
83.5984
 21
-23.385
  0
LINE
  8
0
 10
83.5984
 20
-23.385
 11
84.0504
 21
-22.8052
  0
LINE
  8
0
 10
84.0504
 20
-22.8052
 11
84.5626
 21
-22.2503
  0
LINE
  8
0
 10
84.5626
 20
-22.2503
 11
85.1174
 21
-21.7381
  0
LINE
  8
0
 10
85.1174
 20
-21.7381
 11
85.6972
 21
-21.2862
  0
LINE
  8
0
 10
85.6972
 20
-21.2862
 11
86.302
 21
-20.8945
  0
LINE
  8
0
 10
86.302
 20
-20.8945
 11
86.9318
 21
-20.5631
  0
LINE
  8
0
 10
86.9318
 20
-20.5631
 11
87.5865
 21
-20.2919
  0
LINE
  8
0
 10
87.5865
 20
-20.2919
 11
88.2663
 21
-20.081
  0
LINE
  8
0
 10
88.2663
 20
-20.081
 11
88.971
 21
-19.9304
  0
LINE
  8
0
 10
88.971
 20
-19.9304
 11
89.7008
 21
-19.84
  0
LINE
  8
0
 10
89.7008
 20
-19.84
 11
90.4555
 21
-19.8098
  0
LINE
  8
0
 10
90.4555
 20
-19.8098
 11
97.003
 21
-19.8098
  0
LINE
  8
0
 10
97.003
 20
-19.8098
 11
97.1655
 21
-19.8163
  0
LINE
  8
0
 10
97.1655
 20
-19.8163
 11
97.3226
 21
-19.8356
  0
LINE
  8
0
 10
97.3226
 20
-19.8356
 11
97.4742
 21
-19.8677
  0
LINE
  8
0
 10
97.4742
 20
-19.8677
 11
97.6202
 21
-19.9127
  0
LINE
  8
0
 10
97.6202
 20
-19.9127
 11
97.7607
 21
-19.9706
  0
LINE
  8
0
 10
97.7607
 20
-19.9706
 11
97.8958
 21
-20.0413
  0
LINE
  8
0
 10
97.8958
 20
-20.0413
 11
98.0253
 21
-20.1249
  0
LINE
  8
0
 10
98.0253
 20
-20.1249
 11
98.1493
 21
-20.2213
  0
LINE
  8
0
 10
98.1493
 20
-20.2213
 11
98.2678
 21
-20.3306
  0
LINE
  8
0
 10
98.2678
 20
-20.3306
 11
98.3771
 21
-20.4491
  0
LINE
  8
0
 10
98.3771
 20
-20.4491
 11
98.4735
 21
-20.5731
  0
LINE
  8
0
 10
98.4735
 20
-20.5731
 11
98.5571
 21
-20.7026
  0
LINE
  8
0
 10
98.5571
 20
-20.7026
 11
98.6278
 21
-20.8377
  0
LINE
  8
0
 10
98.6278
 20
-20.8377
 11
98.6857
 21
-20.9782
  0
LINE
  8
0
 10
98.6857
 20
-20.9782
 11
98.7307
 21
-21.1242
  0
LINE
  8
0
 10
98.7307
 20
-21.1242
 11
98.7628
 21
-21.2758
  0
LINE
  8
0
 10
98.7628
 20
-21.2758
 11
98.7821
 21
-21.4329
  0
LINE
  8
0
 10
98.7821
 20
-21.4329
 11
98.7886
 21
-21.5954
  0
LINE
  8
0
 10
98.7886
 20
-21.5954
 11
98.7886
 21
-49.5716
  0
LINE
  8
0
 10
98.7886
 20
-49.5716
 11
98.7589
 21
-49.5716
  0
LINE
  8
0
 10
98.7589
 20
-49.5716
 11
98.7589
 21
-49.6013
  0
LINE
  8
0
 10
98.7589
 20
-49.6013
 11
98.7287
 21
-50.356
  0
LINE
  8
0
 10
98.7287
 20
-50.356
 11
98.6384
 21
-51.0858
  0
LINE
  8
0
 10
98.6384
 20
-51.0858
 11
98.4877
 21
-51.7905
  0
LINE
  8
0
 10
98.4877
 20
-51.7905
 11
98.2768
 21
-52.4703
  0
LINE
  8
0
 10
98.2768
 20
-52.4703
 11
98.0056
 21
-53.125
  0
LINE
  8
0
 10
98.0056
 20
-53.125
 11
97.6742
 21
-53.7548
  0
LINE
  8
0
 10
97.6742
 20
-53.7548
 11
97.2825
 21
-54.3596
  0
LINE
  8
0
 10
97.2825
 20
-54.3596
 11
96.8306
 21
-54.9394
  0
LINE
  8
0
 10
96.8306
 20
-54.9394
 11
96.3184
 21
-55.4942
  0
LINE
  8
0
 10
96.3184
 20
-55.4942
 11
95.7635
 21
-56.0064
  0
LINE
  8
0
 10
95.7635
 20
-56.0064
 11
95.1837
 21
-56.4584
  0
LINE
  8
0
 10
95.1837
 20
-56.4584
 11
94.5789
 21
-56.8501
  0
LINE
  8
0
 10
94.5789
 20
-56.8501
 11
93.9491
 21
-57.1815
  0
LINE
  8
0
 10
93.9491
 20
-57.1815
 11
93.2944
 21
-57.4527
  0
LINE
  8
0
 10
93.2944
 20
-57.4527
 11
92.6146
 21
-57.6636
  0
LINE
  8
0
 10
92.6146
 20
-57.6636
 11
91.9099
 21
-57.8142
  0
LINE
  8
0
 10
91.9099
 20
-57.8142
 11
91.1802
 21
-57.9046
  0
LINE
  8
0
 10
91.1802
 20
-57.9046
 11
90.4255
 21
-57.9347
  0
LINE
  8
0
 10
90.4255
 20
-57.9347
 11
89.6708
 21
-57.9046
  0
LINE
  8
0
 10
166.575
 20
-57.9046
 11
165.845
 21
-57.8142
  0
LINE
  8
0
 10
165.845
 20
-57.8142
 11
165.141
 21
-57.6636
  0
LINE
  8
0
 10
165.141
 20
-57.6636
 11
164.461
 21
-57.4527
  0
LINE
  8
0
 10
164.461
 20
-57.4527
 11
163.806
 21
-57.1815
  0
LINE
  8
0
 10
163.806
 20
-57.1815
 11
163.176
 21
-56.8501
  0
LINE
  8
0
 10
163.176
 20
-56.8501
 11
162.572
 21
-56.4584
  0
LINE
  8
0
 10
162.572
 20
-56.4584
 11
161.992
 21
-56.0064
  0
LINE
  8
0
 10
161.992
 20
-56.0064
 11
161.437
 21
-55.4942
  0
LINE
  8
0
 10
161.437
 20
-55.4942
 11
161.318
 21
-55.3543
  0
LINE
  8
0
 10
161.318
 20
-55.3543
 11
161.214
 21
-55.2121
  0
LINE
  8
0
 10
161.214
 20
-55.2121
 11
161.123
 21
-55.0677
  0
LINE
  8
0
 10
161.123
 20
-55.0677
 11
161.046
 21
-54.9211
  0
LINE
  8
0
 10
161.046
 20
-54.9211
 11
160.983
 21
-54.7723
  0
LINE
  8
0
 10
160.983
 20
-54.7723
 11
160.935
 21
-54.6213
  0
LINE
  8
0
 10
160.935
 20
-54.6213
 11
160.9
 21
-54.4681
  0
LINE
  8
0
 10
160.9
 20
-54.4681
 11
160.879
 21
-54.3127
  0
LINE
  8
0
 10
160.879
 20
-54.3127
 11
160.872
 21
-54.155
  0
LINE
  8
0
 10
160.872
 20
-54.155
 11
160.878
 21
-53.9925
  0
LINE
  8
0
 10
160.878
 20
-53.9925
 11
160.897
 21
-53.8354
  0
LINE
  8
0
 10
160.897
 20
-53.8354
 11
160.93
 21
-53.6838
  0
LINE
  8
0
 10
160.93
 20
-53.6838
 11
160.975
 21
-53.5378
  0
LINE
  8
0
 10
160.975
 20
-53.5378
 11
161.032
 21
-53.3973
  0
LINE
  8
0
 10
161.032
 20
-53.3973
 11
161.103
 21
-53.2622
  0
LINE
  8
0
 10
161.103
 20
-53.2622
 11
161.187
 21
-53.1327
  0
LINE
  8
0
 10
161.187
 20
-53.1327
 11
161.283
 21
-53.0087
  0
LINE
  8
0
 10
161.283
 20
-53.0087
 11
161.393
 21
-52.8902
  0
LINE
  8
0
 10
161.393
 20
-52.8902
 11
161.511
 21
-52.7809
  0
LINE
  8
0
 10
161.511
 20
-52.7809
 11
161.635
 21
-52.6845
  0
LINE
  8
0
 10
161.635
 20
-52.6845
 11
161.765
 21
-52.6009
  0
LINE
  8
0
 10
161.765
 20
-52.6009
 11
161.9
 21
-52.5302
  0
LINE
  8
0
 10
161.9
 20
-52.5302
 11
162.04
 21
-52.4723
  0
LINE
  8
0
 10
162.04
 20
-52.4723
 11
162.186
 21
-52.4273
  0
LINE
  8
0
 10
162.186
 20
-52.4273
 11
162.338
 21
-52.3952
  0
LINE
  8
0
 10
162.338
 20
-52.3952
 11
162.495
 21
-52.3759
  0
LINE
  8
0
 10
162.495
 20
-52.3759
 11
162.657
 21
-52.3694
  0
LINE
  8
0
 10
162.657
 20
-52.3694
 11
162.82
 21
-52.3764
  0
LINE
  8
0
 10
162.82
 20
-52.3764
 11
162.979
 21
-52.3974
  0
LINE
  8
0
 10
162.979
 20
-52.3974
 11
163.133
 21
-52.4323
  0
LINE
  8
0
 10
163.133
 20
-52.4323
 11
163.283
 21
-52.4811
  0
LINE
  8
0
 10
163.283
 20
-52.4811
 11
163.429
 21
-52.544
  0
LINE
  8
0
 10
163.429
 20
-52.544
 11
163.57
 21
-52.6208
  0
LINE
  8
0
 10
163.57
 20
-52.6208
 11
163.707
 21
-52.7115
  0
LINE
  8
0
 10
163.707
 20
-52.7115
 11
163.839
 21
-52.8163
  0
LINE
  8
0
 10
163.839
 20
-52.8163
 11
163.967
 21
-52.9349
  0
LINE
  8
0
 10
163.967
 20
-52.9349
 11
164.285
 21
-53.2285
  0
LINE
  8
0
 10
164.285
 20
-53.2285
 11
164.616
 21
-53.4875
  0
LINE
  8
0
 10
164.616
 20
-53.4875
 11
164.962
 21
-53.7119
  0
LINE
  8
0
 10
164.962
 20
-53.7119
 11
165.322
 21
-53.9019
  0
LINE
  8
0
 10
165.322
 20
-53.9019
 11
165.696
 21
-54.0573
  0
LINE
  8
0
 10
165.696
 20
-54.0573
 11
166.083
 21
-54.1781
  0
LINE
  8
0
 10
166.083
 20
-54.1781
 11
166.485
 21
-54.2645
  0
LINE
  8
0
 10
166.485
 20
-54.2645
 11
166.9
 21
-54.3163
  0
LINE
  8
0
 10
166.9
 20
-54.3163
 11
167.33
 21
-54.3335
  0
LINE
  8
0
 10
167.33
 20
-54.3335
 11
167.765
 21
-54.3163
  0
LINE
  8
0
 10
167.765
 20
-54.3163
 11
168.186
 21
-54.2645
  0
LINE
  8
0
 10
168.186
 20
-54.2645
 11
168.591
 21
-54.1781
  0
LINE
  8
0
 10
168.591
 20
-54.1781
 11
168.982
 21
-54.0572
  0
LINE
  8
0
 10
168.982
 20
-54.0572
 11
169.357
 21
-53.9018
  0
LINE
  8
0
 10
169.357
 20
-53.9018
 11
169.717
 21
-53.7118
  0
LINE
  8
0
 10
169.717
 20
-53.7118
 11
170.063
 21
-53.4873
  0
LINE
  8
0
 10
170.063
 20
-53.4873
 11
170.393
 21
-53.2282
  0
LINE
  8
0
 10
170.393
 20
-53.2282
 11
170.708
 21
-52.9346
  0
LINE
  8
0
 10
170.708
 20
-52.9346
 11
170.998
 21
-52.6169
  0
LINE
  8
0
 10
170.998
 20
-52.6169
 11
171.255
 21
-52.2851
  0
LINE
  8
0
 10
171.255
 20
-52.2851
 11
171.477
 21
-51.9394
  0
LINE
  8
0
 10
171.477
 20
-51.9394
 11
171.665
 21
-51.5797
  0
LINE
  8
0
 10
171.665
 20
-51.5797
 11
171.818
 21
-51.206
  0
LINE
  8
0
 10
171.818
 20
-51.206
 11
171.938
 21
-50.8184
  0
LINE
  8
0
 10
171.938
 20
-50.8184
 11
172.023
 21
-50.4168
  0
LINE
  8
0
 10
172.023
 20
-50.4168
 11
172.075
 21
-50.0012
  0
LINE
  8
0
 10
172.075
 20
-50.0012
 11
172.092
 21
-49.5716
  0
LINE
  8
0
 10
172.092
 20
-49.5716
 11
172.122
 21
-49.5716
  0
LINE
  8
0
 10
172.122
 20
-49.5716
 11
172.122
 21
-23.3813
  0
LINE
  8
0
 10
172.122
 20
-23.3813
 11
167.36
 21
-23.3813
  0
LINE
  8
0
 10
167.36
 20
-23.3813
 11
166.93
 21
-23.3986
  0
LINE
  8
0
 10
166.93
 20
-23.3986
 11
166.515
 21
-23.4504
  0
LINE
  8
0
 10
166.515
 20
-23.4504
 11
166.113
 21
-23.5368
  0
LINE
  8
0
 10
166.113
 20
-23.5368
 11
165.725
 21
-23.6577
  0
LINE
  8
0
 10
165.725
 20
-23.6577
 11
165.352
 21
-23.8131
  0
LINE
  8
0
 10
165.352
 20
-23.8131
 11
164.992
 21
-24.0031
  0
LINE
  8
0
 10
164.992
 20
-24.0031
 11
164.646
 21
-24.2276
  0
LINE
  8
0
 10
164.646
 20
-24.2276
 11
164.314
 21
-24.4866
  0
LINE
  8
0
 10
164.314
 20
-24.4866
 11
163.997
 21
-24.7802
  0
LINE
  8
0
 10
163.997
 20
-24.7802
 11
163.703
 21
-25.098
  0
LINE
  8
0
 10
163.703
 20
-25.098
 11
163.444
 21
-25.4298
  0
LINE
  8
0
 10
163.444
 20
-25.4298
 11
163.22
 21
-25.7755
  0
LINE
  8
0
 10
163.22
 20
-25.7755
 11
163.03
 21
-26.1352
  0
LINE
  8
0
 10
163.03
 20
-26.1352
 11
162.874
 21
-26.5089
  0
LINE
  8
0
 10
162.874
 20
-26.5089
 11
162.753
 21
-26.8965
  0
LINE
  8
0
 10
162.753
 20
-26.8965
 11
162.667
 21
-27.2981
  0
LINE
  8
0
 10
162.667
 20
-27.2981
 11
162.615
 21
-27.7137
  0
LINE
  8
0
 10
162.615
 20
-27.7137
 11
162.598
 21
-28.1432
  0
LINE
  8
0
 10
162.598
 20
-28.1432
 11
162.598
 21
-40.0478
  0
LINE
  8
0
 10
162.598
 20
-40.0478
 11
162.615
 21
-40.4774
  0
LINE
  8
0
 10
162.615
 20
-40.4774
 11
162.667
 21
-40.893
  0
LINE
  8
0
 10
162.667
 20
-40.893
 11
162.753
 21
-41.2946
  0
LINE
  8
0
 10
162.753
 20
-41.2946
 11
162.874
 21
-41.6823
  0
LINE
  8
0
 10
162.874
 20
-41.6823
 11
163.03
 21
-42.056
  0
LINE
  8
0
 10
163.03
 20
-42.056
 11
163.22
 21
-42.4157
  0
LINE
  8
0
 10
163.22
 20
-42.4157
 11
163.444
 21
-42.7615
  0
LINE
  8
0
 10
163.444
 20
-42.7615
 11
163.703
 21
-43.0933
  0
LINE
  8
0
 10
163.703
 20
-43.0933
 11
163.997
 21
-43.4111
  0
LINE
  8
0
 10
163.997
 20
-43.4111
 11
164.259
 21
-43.6573
  0
LINE
  8
0
 10
164.259
 20
-43.6573
 11
164.532
 21
-43.88
  0
LINE
  8
0
 10
164.532
 20
-43.88
 11
164.813
 21
-44.0791
  0
LINE
  8
0
 10
164.813
 20
-44.0791
 11
165.105
 21
-44.2547
  0
LINE
  8
0
 10
165.105
 20
-44.2547
 11
165.406
 21
-44.4068
  0
LINE
  8
0
 10
165.406
 20
-44.4068
 11
165.716
 21
-44.5354
  0
LINE
  8
0
 10
165.716
 20
-44.5354
 11
166.036
 21
-44.6405
  0
LINE
  8
0
 10
166.036
 20
-44.6405
 11
166.366
 21
-44.722
  0
LINE
  8
0
 10
166.366
 20
-44.722
 11
166.705
 21
-44.78
  0
LINE
  8
0
 10
166.705
 20
-44.78
 11
166.886
 21
-44.8049
  0
LINE
  8
0
 10
166.886
 20
-44.8049
 11
167.059
 21
-44.8396
  0
LINE
  8
0
 10
167.059
 20
-44.8396
 11
167.224
 21
-44.8843
  0
LINE
  8
0
 10
167.224
 20
-44.8843
 11
167.381
 21
-44.9389
  0
LINE
  8
0
 10
167.381
 20
-44.9389
 11
167.53
 21
-45.0034
  0
LINE
  8
0
 10
167.53
 20
-45.0034
 11
167.671
 21
-45.0778
  0
LINE
  8
0
 10
167.671
 20
-45.0778
 11
167.803
 21
-45.1621
  0
LINE
  8
0
 10
167.803
 20
-45.1621
 11
167.928
 21
-45.2564
  0
LINE
  8
0
 10
167.928
 20
-45.2564
 11
168.044
 21
-45.3605
  0
LINE
  8
0
 10
168.044
 20
-45.3605
 11
168.15
 21
-45.4724
  0
LINE
  8
0
 10
168.15
 20
-45.4724
 11
168.244
 21
-45.5897
  0
LINE
  8
0
 10
168.244
 20
-45.5897
 11
168.325
 21
-45.7126
  0
LINE
  8
0
 10
168.325
 20
-45.7126
 11
168.394
 21
-45.841
  0
LINE
  8
0
 10
168.394
 20
-45.841
 11
168.45
 21
-45.9749
  0
LINE
  8
0
 10
168.45
 20
-45.9749
 11
168.494
 21
-46.1143
  0
LINE
  8
0
 10
168.494
 20
-46.1143
 11
168.525
 21
-46.2592
  0
LINE
  8
0
 10
168.525
 20
-46.2592
 11
168.544
 21
-46.4097
  0
LINE
  8
0
 10
168.544
 20
-46.4097
 11
168.55
 21
-46.5656
  0
LINE
  8
0
 10
168.55
 20
-46.5656
 11
168.544
 21
-46.7283
  0
LINE
  8
0
 10
168.544
 20
-46.7283
 11
168.525
 21
-46.8854
  0
LINE
  8
0
 10
168.525
 20
-46.8854
 11
168.492
 21
-47.037
  0
LINE
  8
0
 10
168.492
 20
-47.037
 11
168.447
 21
-47.1831
  0
LINE
  8
0
 10
168.447
 20
-47.1831
 11
168.389
 21
-47.3237
  0
LINE
  8
0
 10
168.389
 20
-47.3237
 11
168.319
 21
-47.4587
  0
LINE
  8
0
 10
168.319
 20
-47.4587
 11
168.235
 21
-47.5882
  0
LINE
  8
0
 10
168.235
 20
-47.5882
 11
168.139
 21
-47.7122
  0
LINE
  8
0
 10
168.139
 20
-47.7122
 11
168.029
 21
-47.8307
  0
LINE
  8
0
 10
168.029
 20
-47.8307
 11
167.911
 21
-47.94
  0
LINE
  8
0
 10
167.911
 20
-47.94
 11
167.787
 21
-48.0365
  0
LINE
  8
0
 10
167.787
 20
-48.0365
 11
167.657
 21
-48.1201
  0
LINE
  8
0
 10
167.657
 20
-48.1201
 11
167.522
 21
-48.1908
  0
LINE
  8
0
 10
167.522
 20
-48.1908
 11
167.382
 21
-48.2487
  0
LINE
  8
0
 10
167.382
 20
-48.2487
 11
167.236
 21
-48.2937
  0
LINE
  8
0
 10
167.236
 20
-48.2937
 11
167.084
 21
-48.3258
  0
LINE
  8
0
 10
167.084
 20
-48.3258
 11
166.927
 21
-48.3451
  0
LINE
  8
0
 10
166.927
 20
-48.3451
 11
166.764
 21
-48.3515
  0
LINE
  8
0
 10
166.764
 20
-48.3515
 11
166.616
 21
-48.3515
  0
LINE
  8
0
 10
166.616
 20
-48.3515
 11
165.964
 21
-48.2747
  0
LINE
  8
0
 10
165.964
 20
-48.2747
 11
165.333
 21
-48.1501
  0
LINE
  8
0
 10
165.333
 20
-48.1501
 11
164.721
 21
-47.9778
  0
LINE
  8
0
 10
164.721
 20
-47.9778
 11
164.129
 21
-47.7577
  0
LINE
  8
0
 10
164.129
 20
-47.7577
 11
163.557
 21
-47.4898
  0
LINE
  8
0
 10
163.557
 20
-47.4898
 11
163.005
 21
-47.1742
  0
LINE
  8
0
 10
163.005
 20
-47.1742
 11
162.472
 21
-46.8108
  0
LINE
  8
0
 10
162.472
 20
-46.8108
 11
161.96
 21
-46.3997
  0
LINE
  8
0
 10
161.96
 20
-46.3997
 11
161.467
 21
-45.9407
  0
LINE
  8
0
 10
161.467
 20
-45.9407
 11
160.955
 21
-45.3859
  0
LINE
  8
0
 10
160.955
 20
-45.3859
 11
160.503
 21
-44.8061
  0
LINE
  8
0
 10
160.503
 20
-44.8061
 11
160.111
 21
-44.2013
  0
LINE
  8
0
 10
160.111
 20
-44.2013
 11
159.78
 21
-43.5715
  0
LINE
  8
0
 10
159.78
 20
-43.5715
 11
159.509
 21
-42.9168
  0
LINE
  8
0
 10
159.509
 20
-42.9168
 11
159.298
 21
-42.237
  0
LINE
  8
0
 10
159.298
 20
-42.237
 11
159.147
 21
-41.5323
  0
LINE
  8
0
 10
159.147
 20
-41.5323
 11
159.057
 21
-40.8026
  0
LINE
  8
0
 10
159.057
 20
-40.8026
 11
159.026
 21
-40.0478
  0
LINE
  8
0
 10
159.026
 20
-40.0478
 11
159.026
 21
-28.1432
  0
LINE
  8
0
 10
159.026
 20
-28.1432
 11
159.057
 21
-27.3885
  0
LINE
  8
0
 10
159.057
 20
-27.3885
 11
159.147
 21
-26.6588
  0
LINE
  8
0
 10
159.147
 20
-26.6588
 11
159.298
 21
-25.9541
  0
LINE
  8
0
 10
159.298
 20
-25.9541
 11
159.509
 21
-25.2743
  0
LINE
  8
0
 10
159.509
 20
-25.2743
 11
159.78
 21
-24.6196
  0
LINE
  8
0
 10
159.78
 20
-24.6196
 11
160.111
 21
-23.9898
  0
LINE
  8
0
 10
160.111
 20
-23.9898
 11
160.503
 21
-23.385
  0
LINE
  8
0
 10
160.503
 20
-23.385
 11
160.955
 21
-22.8052
  0
LINE
  8
0
 10
160.955
 20
-22.8052
 11
161.467
 21
-22.2503
  0
LINE
  8
0
 10
161.467
 20
-22.2503
 11
162.022
 21
-21.7381
  0
LINE
  8
0
 10
162.022
 20
-21.7381
 11
162.602
 21
-21.2862
  0
LINE
  8
0
 10
162.602
 20
-21.2862
 11
163.206
 21
-20.8945
  0
LINE
  8
0
 10
163.206
 20
-20.8945
 11
163.836
 21
-20.5631
  0
LINE
  8
0
 10
163.836
 20
-20.5631
 11
164.491
 21
-20.2919
  0
LINE
  8
0
 10
164.491
 20
-20.2919
 11
165.171
 21
-20.081
  0
LINE
  8
0
 10
165.171
 20
-20.081
 11
165.875
 21
-19.9304
  0
LINE
  8
0
 10
165.875
 20
-19.9304
 11
166.605
 21
-19.84
  0
LINE
  8
0
 10
166.605
 20
-19.84
 11
167.36
 21
-19.8098
  0
LINE
  8
0
 10
167.36
 20
-19.8098
 11
173.907
 21
-19.8098
  0
LINE
  8
0
 10
173.907
 20
-19.8098
 11
174.07
 21
-19.8163
  0
LINE
  8
0
 10
174.07
 20
-19.8163
 11
174.227
 21
-19.8356
  0
LINE
  8
0
 10
174.227
 20
-19.8356
 11
174.379
 21
-19.8677
  0
LINE
  8
0
 10
174.379
 20
-19.8677
 11
174.525
 21
-19.9127
  0
LINE
  8
0
 10
174.525
 20
-19.9127
 11
174.665
 21
-19.9706
  0
LINE
  8
0
 10
174.665
 20
-19.9706
 11
174.8
 21
-20.0413
  0
LINE
  8
0
 10
174.8
 20
-20.0413
 11
174.93
 21
-20.1249
  0
LINE
  8
0
 10
174.93
 20
-20.1249
 11
175.054
 21
-20.2213
  0
LINE
  8
0
 10
175.054
 20
-20.2213
 11
175.172
 21
-20.3306
  0
LINE
  8
0
 10
175.172
 20
-20.3306
 11
175.281
 21
-20.4491
  0
LINE
  8
0
 10
175.281
 20
-20.4491
 11
175.378
 21
-20.5731
  0
LINE
  8
0
 10
175.378
 20
-20.5731
 11
175.461
 21
-20.7026
  0
LINE
  8
0
 10
175.461
 20
-20.7026
 11
175.532
 21
-20.8377
  0
LINE
  8
0
 10
175.532
 20
-20.8377
 11
175.59
 21
-20.9782
  0
LINE
  8
0
 10
175.59
 20
-20.9782
 11
175.635
 21
-21.1242
  0
LINE
  8
0
 10
175.635
 20
-21.1242
 11
175.667
 21
-21.2758
  0
LINE
  8
0
 10
175.667
 20
-21.2758
 11
175.687
 21
-21.4329
  0
LINE
  8
0
 10
175.687
 20
-21.4329
 11
175.693
 21
-21.5954
  0
LINE
  8
0
 10
175.693
 20
-21.5954
 11
175.693
 21
-49.5716
  0
LINE
  8
0
 10
175.693
 20
-49.5716
 11
175.663
 21
-49.5716
  0
LINE
  8
0
 10
175.663
 20
-49.5716
 11
175.663
 21
-49.6013
  0
LINE
  8
0
 10
175.663
 20
-49.6013
 11
175.633
 21
-50.356
  0
LINE
  8
0
 10
175.633
 20
-50.356
 11
175.543
 21
-51.0858
  0
LINE
  8
0
 10
175.543
 20
-51.0858
 11
175.392
 21
-51.7905
  0
LINE
  8
0
 10
175.392
 20
-51.7905
 11
175.181
 21
-52.4703
  0
LINE
  8
0
 10
175.181
 20
-52.4703
 11
174.91
 21
-53.125
  0
LINE
  8
0
 10
174.91
 20
-53.125
 11
174.579
 21
-53.7548
  0
LINE
  8
0
 10
174.579
 20
-53.7548
 11
174.187
 21
-54.3596
  0
LINE
  8
0
 10
174.187
 20
-54.3596
 11
173.735
 21
-54.9394
  0
LINE
  8
0
 10
173.735
 20
-54.9394
 11
173.223
 21
-55.4942
  0
LINE
  8
0
 10
173.223
 20
-55.4942
 11
172.668
 21
-56.0064
  0
LINE
  8
0
 10
172.668
 20
-56.0064
 11
172.088
 21
-56.4584
  0
LINE
  8
0
 10
172.088
 20
-56.4584
 11
171.483
 21
-56.8501
  0
LINE
  8
0
 10
171.483
 20
-56.8501
 11
170.854
 21
-57.1815
  0
LINE
  8
0
 10
170.854
 20
-57.1815
 11
170.199
 21
-57.4527
  0
LINE
  8
0
 10
170.199
 20
-57.4527
 11
169.519
 21
-57.6636
  0
LINE
  8
0
 10
169.519
 20
-57.6636
 11
168.814
 21
-57.8142
  0
LINE
  8
0
 10
168.814
 20
-57.8142
 11
168.085
 21
-57.9046
  0
LINE
  8
0
 10
168.085
 20
-57.9046
 11
167.33
 21
-57.9347
  0
LINE
  8
0
 10
167.33
 20
-57.9347
 11
166.575
 21
-57.9046
  0
LINE
  8
0
 10
75.5348
 20
-48.3748
 11
75.3778
 21
-48.3555
  0
LINE
  8
0
 10
75.3778
 20
-48.3555
 11
75.2262
 21
-48.3234
  0
LINE
  8
0
 10
75.2262
 20
-48.3234
 11
75.0802
 21
-48.2784
  0
LINE
  8
0
 10
75.0802
 20
-48.2784
 11
74.9396
 21
-48.2205
  0
LINE
  8
0
 10
74.9396
 20
-48.2205
 11
74.8046
 21
-48.1498
  0
LINE
  8
0
 10
74.8046
 20
-48.1498
 11
74.6751
 21
-48.0662
  0
LINE
  8
0
 10
74.6751
 20
-48.0662
 11
74.5511
 21
-47.9697
  0
LINE
  8
0
 10
74.5511
 20
-47.9697
 11
74.4326
 21
-47.8604
  0
LINE
  8
0
 10
74.4326
 20
-47.8604
 11
74.3233
 21
-47.742
  0
LINE
  8
0
 10
74.3233
 20
-47.742
 11
74.2269
 21
-47.618
  0
LINE
  8
0
 10
74.2269
 20
-47.618
 11
74.1433
 21
-47.4884
  0
LINE
  8
0
 10
74.1433
 20
-47.4884
 11
74.0726
 21
-47.3534
  0
LINE
  8
0
 10
74.0726
 20
-47.3534
 11
74.0147
 21
-47.2129
  0
LINE
  8
0
 10
74.0147
 20
-47.2129
 11
73.9697
 21
-47.0668
  0
LINE
  8
0
 10
73.9697
 20
-47.0668
 11
73.9375
 21
-46.9153
  0
LINE
  8
0
 10
73.9375
 20
-46.9153
 11
73.9182
 21
-46.7582
  0
LINE
  8
0
 10
73.9182
 20
-46.7582
 11
73.9118
 21
-46.5956
  0
LINE
  8
0
 10
73.9118
 20
-46.5956
 11
73.9118
 21
-28.1432
  0
LINE
  8
0
 10
73.9118
 20
-28.1432
 11
73.8945
 21
-27.7137
  0
LINE
  8
0
 10
73.8945
 20
-27.7137
 11
73.8427
 21
-27.2981
  0
LINE
  8
0
 10
73.8427
 20
-27.2981
 11
73.7564
 21
-26.8965
  0
LINE
  8
0
 10
73.7564
 20
-26.8965
 11
73.6355
 21
-26.5089
  0
LINE
  8
0
 10
73.6355
 20
-26.5089
 11
73.48
 21
-26.1352
  0
LINE
  8
0
 10
73.48
 20
-26.1352
 11
73.2901
 21
-25.7755
  0
LINE
  8
0
 10
73.2901
 20
-25.7755
 11
73.0656
 21
-25.4298
  0
LINE
  8
0
 10
73.0656
 20
-25.4298
 11
72.8065
 21
-25.098
  0
LINE
  8
0
 10
72.8065
 20
-25.098
 11
72.5129
 21
-24.7802
  0
LINE
  8
0
 10
72.5129
 20
-24.7802
 11
72.1951
 21
-24.4866
  0
LINE
  8
0
 10
72.1951
 20
-24.4866
 11
71.8633
 21
-24.2276
  0
LINE
  8
0
 10
71.8633
 20
-24.2276
 11
71.5175
 21
-24.0031
  0
LINE
  8
0
 10
71.5175
 20
-24.0031
 11
71.1578
 21
-23.8131
  0
LINE
  8
0
 10
71.1578
 20
-23.8131
 11
70.7841
 21
-23.6577
  0
LINE
  8
0
 10
70.7841
 20
-23.6577
 11
70.3965
 21
-23.5368
  0
LINE
  8
0
 10
70.3965
 20
-23.5368
 11
69.9949
 21
-23.4504
  0
LINE
  8
0
 10
69.9949
 20
-23.4504
 11
69.5794
 21
-23.3986
  0
LINE
  8
0
 10
69.5794
 20
-23.3986
 11
69.1499
 21
-23.3813
  0
LINE
  8
0
 10
69.1499
 20
-23.3813
 11
64.388
 21
-23.3813
  0
LINE
  8
0
 10
64.388
 20
-23.3813
 11
64.388
 21
-46.5956
  0
LINE
  8
0
 10
64.388
 20
-46.5956
 11
64.3816
 21
-46.7582
  0
LINE
  8
0
 10
64.3816
 20
-46.7582
 11
64.3623
 21
-46.9153
  0
LINE
  8
0
 10
64.3623
 20
-46.9153
 11
64.3301
 21
-47.0668
  0
LINE
  8
0
 10
64.3301
 20
-47.0668
 11
64.2851
 21
-47.2129
  0
LINE
  8
0
 10
64.2851
 20
-47.2129
 11
64.2273
 21
-47.3534
  0
LINE
  8
0
 10
64.2273
 20
-47.3534
 11
64.1565
 21
-47.4884
  0
LINE
  8
0
 10
64.1565
 20
-47.4884
 11
64.073
 21
-47.618
  0
LINE
  8
0
 10
64.073
 20
-47.618
 11
63.9765
 21
-47.742
  0
LINE
  8
0
 10
63.9765
 20
-47.742
 11
63.8672
 21
-47.8604
  0
LINE
  8
0
 10
63.8672
 20
-47.8604
 11
63.7487
 21
-47.9697
  0
LINE
  8
0
 10
63.7487
 20
-47.9697
 11
63.6247
 21
-48.0662
  0
LINE
  8
0
 10
63.6247
 20
-48.0662
 11
63.4952
 21
-48.1498
  0
LINE
  8
0
 10
63.4952
 20
-48.1498
 11
63.3601
 21
-48.2205
  0
LINE
  8
0
 10
63.3601
 20
-48.2205
 11
63.2196
 21
-48.2784
  0
LINE
  8
0
 10
63.2196
 20
-48.2784
 11
63.0735
 21
-48.3234
  0
LINE
  8
0
 10
63.0735
 20
-48.3234
 11
62.9219
 21
-48.3555
  0
LINE
  8
0
 10
62.9219
 20
-48.3555
 11
62.7648
 21
-48.3748
  0
LINE
  8
0
 10
62.7648
 20
-48.3748
 11
62.6021
 21
-48.3812
  0
LINE
  8
0
 10
62.6021
 20
-48.3812
 11
62.4395
 21
-48.3748
  0
LINE
  8
0
 10
62.4395
 20
-48.3748
 11
62.2825
 21
-48.3555
  0
LINE
  8
0
 10
62.2825
 20
-48.3555
 11
62.1309
 21
-48.3234
  0
LINE
  8
0
 10
62.1309
 20
-48.3234
 11
61.9849
 21
-48.2784
  0
LINE
  8
0
 10
61.9849
 20
-48.2784
 11
61.8443
 21
-48.2205
  0
LINE
  8
0
 10
61.8443
 20
-48.2205
 11
61.7093
 21
-48.1498
  0
LINE
  8
0
 10
61.7093
 20
-48.1498
 11
61.5798
 21
-48.0662
  0
LINE
  8
0
 10
61.5798
 20
-48.0662
 11
61.4558
 21
-47.9697
  0
LINE
  8
0
 10
61.4558
 20
-47.9697
 11
61.3373
 21
-47.8604
  0
LINE
  8
0
 10
61.3373
 20
-47.8604
 11
61.228
 21
-47.742
  0
LINE
  8
0
 10
61.228
 20
-47.742
 11
61.1316
 21
-47.618
  0
LINE
  8
0
 10
61.1316
 20
-47.618
 11
61.048
 21
-47.4884
  0
LINE
  8
0
 10
61.048
 20
-47.4884
 11
60.9772
 21
-47.3534
  0
LINE
  8
0
 10
60.9772
 20
-47.3534
 11
60.9194
 21
-47.2129
  0
LINE
  8
0
 10
60.9194
 20
-47.2129
 11
60.8744
 21
-47.0668
  0
LINE
  8
0
 10
60.8744
 20
-47.0668
 11
60.8422
 21
-46.9153
  0
LINE
  8
0
 10
60.8422
 20
-46.9153
 11
60.8229
 21
-46.7582
  0
LINE
  8
0
 10
60.8229
 20
-46.7582
 11
60.8165
 21
-46.5956
  0
LINE
  8
0
 10
60.8165
 20
-46.5956
 11
60.8165
 21
-21.5954
  0
LINE
  8
0
 10
60.8165
 20
-21.5954
 11
60.8229
 21
-21.4329
  0
LINE
  8
0
 10
60.8229
 20
-21.4329
 11
60.8422
 21
-21.2758
  0
LINE
  8
0
 10
60.8422
 20
-21.2758
 11
60.8744
 21
-21.1242
  0
LINE
  8
0
 10
60.8744
 20
-21.1242
 11
60.9194
 21
-20.9782
  0
LINE
  8
0
 10
60.9194
 20
-20.9782
 11
60.9772
 21
-20.8377
  0
LINE
  8
0
 10
60.9772
 20
-20.8377
 11
61.048
 21
-20.7026
  0
LINE
  8
0
 10
61.048
 20
-20.7026
 11
61.1316
 21
-20.5731
  0
LINE
  8
0
 10
61.1316
 20
-20.5731
 11
61.228
 21
-20.4491
  0
LINE
  8
0
 10
61.228
 20
-20.4491
 11
61.3373
 21
-20.3306
  0
LINE
  8
0
 10
61.3373
 20
-20.3306
 11
61.4558
 21
-20.2213
  0
LINE
  8
0
 10
61.4558
 20
-20.2213
 11
61.5798
 21
-20.1249
  0
LINE
  8
0
 10
61.5798
 20
-20.1249
 11
61.7093
 21
-20.0413
  0
LINE
  8
0
 10
61.7093
 20
-20.0413
 11
61.8443
 21
-19.9706
  0
LINE
  8
0
 10
61.8443
 20
-19.9706
 11
61.9849
 21
-19.9127
  0
LINE
  8
0
 10
61.9849
 20
-19.9127
 11
62.1309
 21
-19.8677
  0
LINE
  8
0
 10
62.1309
 20
-19.8677
 11
62.2825
 21
-19.8356
  0
LINE
  8
0
 10
62.2825
 20
-19.8356
 11
62.4395
 21
-19.8163
  0
LINE
  8
0
 10
62.4395
 20
-19.8163
 11
62.6021
 21
-19.8098
  0
LINE
  8
0
 10
62.6021
 20
-19.8098
 11
69.1499
 21
-19.8098
  0
LINE
  8
0
 10
69.1499
 20
-19.8098
 11
69.9046
 21
-19.84
  0
LINE
  8
0
 10
69.9046
 20
-19.84
 11
70.6343
 21
-19.9304
  0
LINE
  8
0
 10
70.6343
 20
-19.9304
 11
71.3391
 21
-20.081
  0
LINE
  8
0
 10
71.3391
 20
-20.081
 11
72.0188
 21
-20.2919
  0
LINE
  8
0
 10
72.0188
 20
-20.2919
 11
72.6736
 21
-20.5631
  0
LINE
  8
0
 10
72.6736
 20
-20.5631
 11
73.3034
 21
-20.8945
  0
LINE
  8
0
 10
73.3034
 20
-20.8945
 11
73.9082
 21
-21.2862
  0
LINE
  8
0
 10
73.9082
 20
-21.2862
 11
74.488
 21
-21.7381
  0
LINE
  8
0
 10
74.488
 20
-21.7381
 11
75.0428
 21
-22.2503
  0
LINE
  8
0
 10
75.0428
 20
-22.2503
 11
75.555
 21
-22.8052
  0
LINE
  8
0
 10
75.555
 20
-22.8052
 11
76.007
 21
-23.385
  0
LINE
  8
0
 10
76.007
 20
-23.385
 11
76.3986
 21
-23.9898
  0
LINE
  8
0
 10
76.3986
 20
-23.9898
 11
76.7301
 21
-24.6196
  0
LINE
  8
0
 10
76.7301
 20
-24.6196
 11
77.0012
 21
-25.2743
  0
LINE
  8
0
 10
77.0012
 20
-25.2743
 11
77.2121
 21
-25.9541
  0
LINE
  8
0
 10
77.2121
 20
-25.9541
 11
77.3628
 21
-26.6588
  0
LINE
  8
0
 10
77.3628
 20
-26.6588
 11
77.4532
 21
-27.3885
  0
LINE
  8
0
 10
77.4532
 20
-27.3885
 11
77.4833
 21
-28.1432
  0
LINE
  8
0
 10
77.4833
 20
-28.1432
 11
77.4833
 21
-46.5956
  0
LINE
  8
0
 10
77.4833
 20
-46.5956
 11
77.4769
 21
-46.7582
  0
LINE
  8
0
 10
77.4769
 20
-46.7582
 11
77.4576
 21
-46.9153
  0
LINE
  8
0
 10
77.4576
 20
-46.9153
 11
77.4254
 21
-47.0668
  0
LINE
  8
0
 10
77.4254
 20
-47.0668
 11
77.3804
 21
-47.2129
  0
LINE
  8
0
 10
77.3804
 20
-47.2129
 11
77.3225
 21
-47.3534
  0
LINE
  8
0
 10
77.3225
 20
-47.3534
 11
77.2517
 21
-47.4884
  0
LINE
  8
0
 10
77.2517
 20
-47.4884
 11
77.1681
 21
-47.618
  0
LINE
  8
0
 10
77.1681
 20
-47.618
 11
77.0716
 21
-47.742
  0
LINE
  8
0
 10
77.0716
 20
-47.742
 11
76.9622
 21
-47.8604
  0
LINE
  8
0
 10
76.9622
 20
-47.8604
 11
76.8437
 21
-47.9697
  0
LINE
  8
0
 10
76.8437
 20
-47.9697
 11
76.7197
 21
-48.0662
  0
LINE
  8
0
 10
76.7197
 20
-48.0662
 11
76.5902
 21
-48.1498
  0
LINE
  8
0
 10
76.5902
 20
-48.1498
 11
76.4552
 21
-48.2205
  0
LINE
  8
0
 10
76.4552
 20
-48.2205
 11
76.3147
 21
-48.2784
  0
LINE
  8
0
 10
76.3147
 20
-48.2784
 11
76.1686
 21
-48.3234
  0
LINE
  8
0
 10
76.1686
 20
-48.3234
 11
76.017
 21
-48.3555
  0
LINE
  8
0
 10
76.017
 20
-48.3555
 11
75.86
 21
-48.3748
  0
LINE
  8
0
 10
75.86
 20
-48.3748
 11
75.6974
 21
-48.3812
  0
LINE
  8
0
 10
75.6974
 20
-48.3812
 11
75.5348
 21
-48.3748
  0
LINE
  8
0
 10
127.745
 20
-48.3748
 11
127.588
 21
-48.3555
  0
LINE
  8
0
 10
127.588
 20
-48.3555
 11
127.436
 21
-48.3234
  0
LINE
  8
0
 10
127.436
 20
-48.3234
 11
127.29
 21
-48.2784
  0
LINE
  8
0
 10
127.29
 20
-48.2784
 11
127.15
 21
-48.2205
  0
LINE
  8
0
 10
127.15
 20
-48.2205
 11
127.015
 21
-48.1498
  0
LINE
  8
0
 10
127.015
 20
-48.1498
 11
126.885
 21
-48.0662
  0
LINE
  8
0
 10
126.885
 20
-48.0662
 11
126.761
 21
-47.9697
  0
LINE
  8
0
 10
126.761
 20
-47.9697
 11
126.643
 21
-47.8604
  0
LINE
  8
0
 10
126.643
 20
-47.8604
 11
126.533
 21
-47.742
  0
LINE
  8
0
 10
126.533
 20
-47.742
 11
126.437
 21
-47.618
  0
LINE
  8
0
 10
126.437
 20
-47.618
 11
126.353
 21
-47.4884
  0
LINE
  8
0
 10
126.353
 20
-47.4884
 11
126.283
 21
-47.3534
  0
LINE
  8
0
 10
126.283
 20
-47.3534
 11
126.225
 21
-47.2129
  0
LINE
  8
0
 10
126.225
 20
-47.2129
 11
126.18
 21
-47.0668
  0
LINE
  8
0
 10
126.18
 20
-47.0668
 11
126.148
 21
-46.9153
  0
LINE
  8
0
 10
126.148
 20
-46.9153
 11
126.128
 21
-46.7582
  0
LINE
  8
0
 10
126.128
 20
-46.7582
 11
126.122
 21
-46.5956
  0
LINE
  8
0
 10
126.122
 20
-46.5956
 11
126.122
 21
-21.5954
  0
LINE
  8
0
 10
126.122
 20
-21.5954
 11
126.128
 21
-21.4329
  0
LINE
  8
0
 10
126.128
 20
-21.4329
 11
126.148
 21
-21.2758
  0
LINE
  8
0
 10
126.148
 20
-21.2758
 11
126.18
 21
-21.1242
  0
LINE
  8
0
 10
126.18
 20
-21.1242
 11
126.225
 21
-20.9782
  0
LINE
  8
0
 10
126.225
 20
-20.9782
 11
126.283
 21
-20.8377
  0
LINE
  8
0
 10
126.283
 20
-20.8377
 11
126.353
 21
-20.7026
  0
LINE
  8
0
 10
126.353
 20
-20.7026
 11
126.437
 21
-20.5731
  0
LINE
  8
0
 10
126.437
 20
-20.5731
 11
126.533
 21
-20.4491
  0
LINE
  8
0
 10
126.533
 20
-20.4491
 11
126.643
 21
-20.3306
  0
LINE
  8
0
 10
126.643
 20
-20.3306
 11
126.761
 21
-20.2213
  0
LINE
  8
0
 10
126.761
 20
-20.2213
 11
126.885
 21
-20.1249
  0
LINE
  8
0
 10
126.885
 20
-20.1249
 11
127.015
 21
-20.0413
  0
LINE
  8
0
 10
127.015
 20
-20.0413
 11
127.15
 21
-19.9706
  0
LINE
  8
0
 10
127.15
 20
-19.9706
 11
127.29
 21
-19.9127
  0
LINE
  8
0
 10
127.29
 20
-19.9127
 11
127.436
 21
-19.8677
  0
LINE
  8
0
 10
127.436
 20
-19.8677
 11
127.588
 21
-19.8356
  0
LINE
  8
0
 10
127.588
 20
-19.8356
 11
127.745
 21
-19.8163
  0
LINE
  8
0
 10
127.745
 20
-19.8163
 11
127.908
 21
-19.8098
  0
LINE
  8
0
 10
127.908
 20
-19.8098
 11
128.07
 21
-19.8163
  0
LINE
  8
0
 10
128.07
 20
-19.8163
 11
128.227
 21
-19.8356
  0
LINE
  8
0
 10
128.227
 20
-19.8356
 11
128.379
 21
-19.8677
  0
LINE
  8
0
 10
128.379
 20
-19.8677
 11
128.525
 21
-19.9127
  0
LINE
  8
0
 10
128.525
 20
-19.9127
 11
128.666
 21
-19.9706
  0
LINE
  8
0
 10
128.666
 20
-19.9706
 11
128.801
 21
-20.0413
  0
LINE
  8
0
 10
128.801
 20
-20.0413
 11
128.93
 21
-20.1249
  0
LINE
  8
0
 10
128.93
 20
-20.1249
 11
129.054
 21
-20.2213
  0
LINE
  8
0
 10
129.054
 20
-20.2213
 11
129.173
 21
-20.3306
  0
LINE
  8
0
 10
129.173
 20
-20.3306
 11
129.282
 21
-20.4491
  0
LINE
  8
0
 10
129.282
 20
-20.4491
 11
129.378
 21
-20.5731
  0
LINE
  8
0
 10
129.378
 20
-20.5731
 11
129.462
 21
-20.7026
  0
LINE
  8
0
 10
129.462
 20
-20.7026
 11
129.533
 21
-20.8377
  0
LINE
  8
0
 10
129.533
 20
-20.8377
 11
129.591
 21
-20.9782
  0
LINE
  8
0
 10
129.591
 20
-20.9782
 11
129.636
 21
-21.1242
  0
LINE
  8
0
 10
129.636
 20
-21.1242
 11
129.668
 21
-21.2758
  0
LINE
  8
0
 10
129.668
 20
-21.2758
 11
129.687
 21
-21.4329
  0
LINE
  8
0
 10
129.687
 20
-21.4329
 11
129.693
 21
-21.5954
  0
LINE
  8
0
 10
129.693
 20
-21.5954
 11
129.693
 21
-46.5956
  0
LINE
  8
0
 10
129.693
 20
-46.5956
 11
129.687
 21
-46.7582
  0
LINE
  8
0
 10
129.687
 20
-46.7582
 11
129.668
 21
-46.9153
  0
LINE
  8
0
 10
129.668
 20
-46.9153
 11
129.636
 21
-47.0668
  0
LINE
  8
0
 10
129.636
 20
-47.0668
 11
129.591
 21
-47.2129
  0
LINE
  8
0
 10
129.591
 20
-47.2129
 11
129.533
 21
-47.3534
  0
LINE
  8
0
 10
129.533
 20
-47.3534
 11
129.462
 21
-47.4884
  0
LINE
  8
0
 10
129.462
 20
-47.4884
 11
129.378
 21
-47.618
  0
LINE
  8
0
 10
129.378
 20
-47.618
 11
129.282
 21
-47.742
  0
LINE
  8
0
 10
129.282
 20
-47.742
 11
129.173
 21
-47.8604
  0
LINE
  8
0
 10
129.173
 20
-47.8604
 11
129.054
 21
-47.9697
  0
LINE
  8
0
 10
129.054
 20
-47.9697
 11
128.93
 21
-48.0662
  0
LINE
  8
0
 10
128.93
 20
-48.0662
 11
128.801
 21
-48.1498
  0
LINE
  8
0
 10
128.801
 20
-48.1498
 11
128.666
 21
-48.2205
  0
LINE
  8
0
 10
128.666
 20
-48.2205
 11
128.525
 21
-48.2784
  0
LINE
  8
0
 10
128.525
 20
-48.2784
 11
128.379
 21
-48.3234
  0
LINE
  8
0
 10
128.379
 20
-48.3234
 11
128.227
 21
-48.3555
  0
LINE
  8
0
 10
128.227
 20
-48.3555
 11
128.07
 21
-48.3748
  0
LINE
  8
0
 10
128.07
 20
-48.3748
 11
127.908
 21
-48.3812
  0
LINE
  8
0
 10
127.908
 20
-48.3812
 11
127.745
 21
-48.3748
  0
LINE
  8
0
 10
50.8406
 20
-48.3748
 11
50.6835
 21
-48.3555
  0
LINE
  8
0
 10
50.6835
 20
-48.3555
 11
50.532
 21
-48.3234
  0
LINE
  8
0
 10
50.532
 20
-48.3234
 11
50.3859
 21
-48.2784
  0
LINE
  8
0
 10
50.3859
 20
-48.2784
 11
50.2454
 21
-48.2205
  0
LINE
  8
0
 10
50.2454
 20
-48.2205
 11
50.1104
 21
-48.1498
  0
LINE
  8
0
 10
50.1104
 20
-48.1498
 11
49.9809
 21
-48.0662
  0
LINE
  8
0
 10
49.9809
 20
-48.0662
 11
49.8569
 21
-47.9697
  0
LINE
  8
0
 10
49.8569
 20
-47.9697
 11
49.7384
 21
-47.8604
  0
LINE
  8
0
 10
49.7384
 20
-47.8604
 11
49.6291
 21
-47.742
  0
LINE
  8
0
 10
49.6291
 20
-47.742
 11
49.5326
 21
-47.618
  0
LINE
  8
0
 10
49.5326
 20
-47.618
 11
49.449
 21
-47.4884
  0
LINE
  8
0
 10
49.449
 20
-47.4884
 11
49.3783
 21
-47.3534
  0
LINE
  8
0
 10
49.3783
 20
-47.3534
 11
49.3204
 21
-47.2129
  0
LINE
  8
0
 10
49.3204
 20
-47.2129
 11
49.2754
 21
-47.0668
  0
LINE
  8
0
 10
49.2754
 20
-47.0668
 11
49.2433
 21
-46.9153
  0
LINE
  8
0
 10
49.2433
 20
-46.9153
 11
49.224
 21
-46.7582
  0
LINE
  8
0
 10
49.224
 20
-46.7582
 11
49.2176
 21
-46.5956
  0
LINE
  8
0
 10
49.2176
 20
-46.5956
 11
49.2176
 21
-21.5954
  0
LINE
  8
0
 10
49.2176
 20
-21.5954
 11
49.224
 21
-21.4329
  0
LINE
  8
0
 10
49.224
 20
-21.4329
 11
49.2433
 21
-21.2758
  0
LINE
  8
0
 10
49.2433
 20
-21.2758
 11
49.2754
 21
-21.1242
  0
LINE
  8
0
 10
49.2754
 20
-21.1242
 11
49.3204
 21
-20.9782
  0
LINE
  8
0
 10
49.3204
 20
-20.9782
 11
49.3783
 21
-20.8377
  0
LINE
  8
0
 10
49.3783
 20
-20.8377
 11
49.449
 21
-20.7026
  0
LINE
  8
0
 10
49.449
 20
-20.7026
 11
49.5326
 21
-20.5731
  0
LINE
  8
0
 10
49.5326
 20
-20.5731
 11
49.6291
 21
-20.4491
  0
LINE
  8
0
 10
49.6291
 20
-20.4491
 11
49.7384
 21
-20.3306
  0
LINE
  8
0
 10
49.7384
 20
-20.3306
 11
49.8569
 21
-20.2213
  0
LINE
  8
0
 10
49.8569
 20
-20.2213
 11
49.9809
 21
-20.1249
  0
LINE
  8
0
 10
49.9809
 20
-20.1249
 11
50.1104
 21
-20.0413
  0
LINE
  8
0
 10
50.1104
 20
-20.0413
 11
50.2454
 21
-19.9706
  0
LINE
  8
0
 10
50.2454
 20
-19.9706
 11
50.3859
 21
-19.9127
  0
LINE
  8
0
 10
50.3859
 20
-19.9127
 11
50.532
 21
-19.8677
  0
LINE
  8
0
 10
50.532
 20
-19.8677
 11
50.6835
 21
-19.8356
  0
LINE
  8
0
 10
50.6835
 20
-19.8356
 11
50.8406
 21
-19.8163
  0
LINE
  8
0
 10
50.8406
 20
-19.8163
 11
51.0032
 21
-19.8098
  0
LINE
  8
0
 10
51.0032
 20
-19.8098
 11
51.1658
 21
-19.8163
  0
LINE
  8
0
 10
51.1658
 20
-19.8163
 11
51.3229
 21
-19.8356
  0
LINE
  8
0
 10
51.3229
 20
-19.8356
 11
51.4745
 21
-19.8677
  0
LINE
  8
0
 10
51.4745
 20
-19.8677
 11
51.6206
 21
-19.9127
  0
LINE
  8
0
 10
51.6206
 20
-19.9127
 11
51.7612
 21
-19.9706
  0
LINE
  8
0
 10
51.7612
 20
-19.9706
 11
51.8962
 21
-20.0413
  0
LINE
  8
0
 10
51.8962
 20
-20.0413
 11
52.0258
 21
-20.1249
  0
LINE
  8
0
 10
52.0258
 20
-20.1249
 11
52.1498
 21
-20.2213
  0
LINE
  8
0
 10
52.1498
 20
-20.2213
 11
52.2683
 21
-20.3306
  0
LINE
  8
0
 10
52.2683
 20
-20.3306
 11
52.3776
 21
-20.4491
  0
LINE
  8
0
 10
52.3776
 20
-20.4491
 11
52.474
 21
-20.5731
  0
LINE
  8
0
 10
52.474
 20
-20.5731
 11
52.5576
 21
-20.7026
  0
LINE
  8
0
 10
52.5576
 20
-20.7026
 11
52.6283
 21
-20.8377
  0
LINE
  8
0
 10
52.6283
 20
-20.8377
 11
52.6862
 21
-20.9782
  0
LINE
  8
0
 10
52.6862
 20
-20.9782
 11
52.7312
 21
-21.1242
  0
LINE
  8
0
 10
52.7312
 20
-21.1242
 11
52.7634
 21
-21.2758
  0
LINE
  8
0
 10
52.7634
 20
-21.2758
 11
52.7826
 21
-21.4329
  0
LINE
  8
0
 10
52.7826
 20
-21.4329
 11
52.7891
 21
-21.5954
  0
LINE
  8
0
 10
52.7891
 20
-21.5954
 11
52.7891
 21
-46.5956
  0
LINE
  8
0
 10
52.7891
 20
-46.5956
 11
52.7826
 21
-46.7582
  0
LINE
  8
0
 10
52.7826
 20
-46.7582
 11
52.7634
 21
-46.9153
  0
LINE
  8
0
 10
52.7634
 20
-46.9153
 11
52.7312
 21
-47.0668
  0
LINE
  8
0
 10
52.7312
 20
-47.0668
 11
52.6862
 21
-47.2129
  0
LINE
  8
0
 10
52.6862
 20
-47.2129
 11
52.6283
 21
-47.3534
  0
LINE
  8
0
 10
52.6283
 20
-47.3534
 11
52.5576
 21
-47.4884
  0
LINE
  8
0
 10
52.5576
 20
-47.4884
 11
52.474
 21
-47.618
  0
LINE
  8
0
 10
52.474
 20
-47.618
 11
52.3776
 21
-47.742
  0
LINE
  8
0
 10
52.3776
 20
-47.742
 11
52.2683
 21
-47.8604
  0
LINE
  8
0
 10
52.2683
 20
-47.8604
 11
52.1498
 21
-47.9697
  0
LINE
  8
0
 10
52.1498
 20
-47.9697
 11
52.0258
 21
-48.0662
  0
LINE
  8
0
 10
52.0258
 20
-48.0662
 11
51.8962
 21
-48.1498
  0
LINE
  8
0
 10
51.8962
 20
-48.1498
 11
51.7612
 21
-48.2205
  0
LINE
  8
0
 10
51.7612
 20
-48.2205
 11
51.6206
 21
-48.2784
  0
LINE
  8
0
 10
51.6206
 20
-48.2784
 11
51.4745
 21
-48.3234
  0
LINE
  8
0
 10
51.4745
 20
-48.3234
 11
51.3229
 21
-48.3555
  0
LINE
  8
0
 10
51.3229
 20
-48.3555
 11
51.1658
 21
-48.3748
  0
LINE
  8
0
 10
51.1658
 20
-48.3748
 11
51.0032
 21
-48.3812
  0
LINE
  8
0
 10
51.0032
 20
-48.3812
 11
50.8406
 21
-48.3748
  0
LINE
  8
0
 10
152.439
 20
-48.3748
 11
152.282
 21
-48.3555
  0
LINE
  8
0
 10
152.282
 20
-48.3555
 11
152.131
 21
-48.3234
  0
LINE
  8
0
 10
152.131
 20
-48.3234
 11
151.985
 21
-48.2784
  0
LINE
  8
0
 10
151.985
 20
-48.2784
 11
151.844
 21
-48.2205
  0
LINE
  8
0
 10
151.844
 20
-48.2205
 11
151.709
 21
-48.1498
  0
LINE
  8
0
 10
151.709
 20
-48.1498
 11
151.579
 21
-48.0662
  0
LINE
  8
0
 10
151.579
 20
-48.0662
 11
151.455
 21
-47.9697
  0
LINE
  8
0
 10
151.455
 20
-47.9697
 11
151.337
 21
-47.8604
  0
LINE
  8
0
 10
151.337
 20
-47.8604
 11
151.228
 21
-47.742
  0
LINE
  8
0
 10
151.228
 20
-47.742
 11
151.131
 21
-47.618
  0
LINE
  8
0
 10
151.131
 20
-47.618
 11
151.048
 21
-47.4884
  0
LINE
  8
0
 10
151.048
 20
-47.4884
 11
150.977
 21
-47.3534
  0
LINE
  8
0
 10
150.977
 20
-47.3534
 11
150.919
 21
-47.2129
  0
LINE
  8
0
 10
150.919
 20
-47.2129
 11
150.874
 21
-47.0668
  0
LINE
  8
0
 10
150.874
 20
-47.0668
 11
150.842
 21
-46.9153
  0
LINE
  8
0
 10
150.842
 20
-46.9153
 11
150.823
 21
-46.7582
  0
LINE
  8
0
 10
150.823
 20
-46.7582
 11
150.816
 21
-46.5956
  0
LINE
  8
0
 10
150.816
 20
-46.5956
 11
150.816
 21
-28.1432
  0
LINE
  8
0
 10
150.816
 20
-28.1432
 11
150.799
 21
-27.7137
  0
LINE
  8
0
 10
150.799
 20
-27.7137
 11
150.747
 21
-27.2981
  0
LINE
  8
0
 10
150.747
 20
-27.2981
 11
150.661
 21
-26.8965
  0
LINE
  8
0
 10
150.661
 20
-26.8965
 11
150.54
 21
-26.5089
  0
LINE
  8
0
 10
150.54
 20
-26.5089
 11
150.384
 21
-26.1352
  0
LINE
  8
0
 10
150.384
 20
-26.1352
 11
150.194
 21
-25.7755
  0
LINE
  8
0
 10
150.194
 20
-25.7755
 11
149.97
 21
-25.4298
  0
LINE
  8
0
 10
149.97
 20
-25.4298
 11
149.711
 21
-25.098
  0
LINE
  8
0
 10
149.711
 20
-25.098
 11
149.417
 21
-24.7802
  0
LINE
  8
0
 10
149.417
 20
-24.7802
 11
149.099
 21
-24.4866
  0
LINE
  8
0
 10
149.099
 20
-24.4866
 11
148.768
 21
-24.2276
  0
LINE
  8
0
 10
148.768
 20
-24.2276
 11
148.422
 21
-24.0031
  0
LINE
  8
0
 10
148.422
 20
-24.0031
 11
148.062
 21
-23.8131
  0
LINE
  8
0
 10
148.062
 20
-23.8131
 11
147.688
 21
-23.6577
  0
LINE
  8
0
 10
147.688
 20
-23.6577
 11
147.301
 21
-23.5368
  0
LINE
  8
0
 10
147.301
 20
-23.5368
 11
146.899
 21
-23.4504
  0
LINE
  8
0
 10
146.899
 20
-23.4504
 11
146.484
 21
-23.3986
  0
LINE
  8
0
 10
146.484
 20
-23.3986
 11
146.054
 21
-23.3813
  0
LINE
  8
0
 10
146.054
 20
-23.3813
 11
141.292
 21
-23.3813
  0
LINE
  8
0
 10
141.292
 20
-23.3813
 11
141.292
 21
-46.5956
  0
LINE
  8
0
 10
141.292
 20
-46.5956
 11
141.286
 21
-46.7582
  0
LINE
  8
0
 10
141.286
 20
-46.7582
 11
141.267
 21
-46.9153
  0
LINE
  8
0
 10
141.267
 20
-46.9153
 11
141.235
 21
-47.0668
  0
LINE
  8
0
 10
141.235
 20
-47.0668
 11
141.189
 21
-47.2129
  0
LINE
  8
0
 10
141.189
 20
-47.2129
 11
141.132
 21
-47.3534
  0
LINE
  8
0
 10
141.132
 20
-47.3534
 11
141.061
 21
-47.4884
  0
LINE
  8
0
 10
141.061
 20
-47.4884
 11
140.977
 21
-47.618
  0
LINE
  8
0
 10
140.977
 20
-47.618
 11
140.881
 21
-47.742
  0
LINE
  8
0
 10
140.881
 20
-47.742
 11
140.772
 21
-47.8604
  0
LINE
  8
0
 10
140.772
 20
-47.8604
 11
140.653
 21
-47.9697
  0
LINE
  8
0
 10
140.653
 20
-47.9697
 11
140.529
 21
-48.0662
  0
LINE
  8
0
 10
140.529
 20
-48.0662
 11
140.4
 21
-48.1498
  0
LINE
  8
0
 10
140.4
 20
-48.1498
 11
140.264
 21
-48.2205
  0
LINE
  8
0
 10
140.264
 20
-48.2205
 11
140.124
 21
-48.2784
  0
LINE
  8
0
 10
140.124
 20
-48.2784
 11
139.978
 21
-48.3234
  0
LINE
  8
0
 10
139.978
 20
-48.3234
 11
139.826
 21
-48.3555
  0
LINE
  8
0
 10
139.826
 20
-48.3555
 11
139.669
 21
-48.3748
  0
LINE
  8
0
 10
139.669
 20
-48.3748
 11
139.506
 21
-48.3812
  0
LINE
  8
0
 10
139.506
 20
-48.3812
 11
139.344
 21
-48.3748
  0
LINE
  8
0
 10
139.344
 20
-48.3748
 11
139.187
 21
-48.3555
  0
LINE
  8
0
 10
139.187
 20
-48.3555
 11
139.035
 21
-48.3234
  0
LINE
  8
0
 10
139.035
 20
-48.3234
 11
138.889
 21
-48.2784
  0
LINE
  8
0
 10
138.889
 20
-48.2784
 11
138.749
 21
-48.2205
  0
LINE
  8
0
 10
138.749
 20
-48.2205
 11
138.614
 21
-48.1498
  0
LINE
  8
0
 10
138.614
 20
-48.1498
 11
138.484
 21
-48.0662
  0
LINE
  8
0
 10
138.484
 20
-48.0662
 11
138.36
 21
-47.9697
  0
LINE
  8
0
 10
138.36
 20
-47.9697
 11
138.242
 21
-47.8604
  0
LINE
  8
0
 10
138.242
 20
-47.8604
 11
138.132
 21
-47.742
  0
LINE
  8
0
 10
138.132
 20
-47.742
 11
138.036
 21
-47.618
  0
LINE
  8
0
 10
138.036
 20
-47.618
 11
137.952
 21
-47.4884
  0
LINE
  8
0
 10
137.952
 20
-47.4884
 11
137.882
 21
-47.3534
  0
LINE
  8
0
 10
137.882
 20
-47.3534
 11
137.824
 21
-47.2129
  0
LINE
  8
0
 10
137.824
 20
-47.2129
 11
137.779
 21
-47.0668
  0
LINE
  8
0
 10
137.779
 20
-47.0668
 11
137.747
 21
-46.9153
  0
LINE
  8
0
 10
137.747
 20
-46.9153
 11
137.727
 21
-46.7582
  0
LINE
  8
0
 10
137.727
 20
-46.7582
 11
137.721
 21
-46.5956
  0
LINE
  8
0
 10
137.721
 20
-46.5956
 11
137.721
 21
-21.5954
  0
LINE
  8
0
 10
137.721
 20
-21.5954
 11
137.727
 21
-21.4329
  0
LINE
  8
0
 10
137.727
 20
-21.4329
 11
137.747
 21
-21.2758
  0
LINE
  8
0
 10
137.747
 20
-21.2758
 11
137.779
 21
-21.1242
  0
LINE
  8
0
 10
137.779
 20
-21.1242
 11
137.824
 21
-20.9782
  0
LINE
  8
0
 10
137.824
 20
-20.9782
 11
137.882
 21
-20.8377
  0
LINE
  8
0
 10
137.882
 20
-20.8377
 11
137.952
 21
-20.7026
  0
LINE
  8
0
 10
137.952
 20
-20.7026
 11
138.036
 21
-20.5731
  0
LINE
  8
0
 10
138.036
 20
-20.5731
 11
138.132
 21
-20.4491
  0
LINE
  8
0
 10
138.132
 20
-20.4491
 11
138.242
 21
-20.3306
  0
LINE
  8
0
 10
138.242
 20
-20.3306
 11
138.36
 21
-20.2213
  0
LINE
  8
0
 10
138.36
 20
-20.2213
 11
138.484
 21
-20.1249
  0
LINE
  8
0
 10
138.484
 20
-20.1249
 11
138.614
 21
-20.0413
  0
LINE
  8
0
 10
138.614
 20
-20.0413
 11
138.749
 21
-19.9706
  0
LINE
  8
0
 10
138.749
 20
-19.9706
 11
138.889
 21
-19.9127
  0
LINE
  8
0
 10
138.889
 20
-19.9127
 11
139.035
 21
-19.8677
  0
LINE
  8
0
 10
139.035
 20
-19.8677
 11
139.187
 21
-19.8356
  0
LINE
  8
0
 10
139.187
 20
-19.8356
 11
139.344
 21
-19.8163
  0
LINE
  8
0
 10
139.344
 20
-19.8163
 11
139.506
 21
-19.8098
  0
LINE
  8
0
 10
139.506
 20
-19.8098
 11
146.054
 21
-19.8098
  0
LINE
  8
0
 10
146.054
 20
-19.8098
 11
146.809
 21
-19.84
  0
LINE
  8
0
 10
146.809
 20
-19.84
 11
147.539
 21
-19.9304
  0
LINE
  8
0
 10
147.539
 20
-19.9304
 11
148.243
 21
-20.081
  0
LINE
  8
0
 10
148.243
 20
-20.081
 11
148.923
 21
-20.2919
  0
LINE
  8
0
 10
148.923
 20
-20.2919
 11
149.578
 21
-20.5631
  0
LINE
  8
0
 10
149.578
 20
-20.5631
 11
150.208
 21
-20.8945
  0
LINE
  8
0
 10
150.208
 20
-20.8945
 11
150.813
 21
-21.2862
  0
LINE
  8
0
 10
150.813
 20
-21.2862
 11
151.392
 21
-21.7381
  0
LINE
  8
0
 10
151.392
 20
-21.7381
 11
151.947
 21
-22.2503
  0
LINE
  8
0
 10
151.947
 20
-22.2503
 11
152.459
 21
-22.8052
  0
LINE
  8
0
 10
152.459
 20
-22.8052
 11
152.911
 21
-23.385
  0
LINE
  8
0
 10
152.911
 20
-23.385
 11
153.303
 21
-23.9898
  0
LINE
  8
0
 10
153.303
 20
-23.9898
 11
153.634
 21
-24.6196
  0
LINE
  8
0
 10
153.634
 20
-24.6196
 11
153.906
 21
-25.2743
  0
LINE
  8
0
 10
153.906
 20
-25.2743
 11
154.117
 21
-25.9541
  0
LINE
  8
0
 10
154.117
 20
-25.9541
 11
154.267
 21
-26.6588
  0
LINE
  8
0
 10
154.267
 20
-26.6588
 11
154.358
 21
-27.3885
  0
LINE
  8
0
 10
154.358
 20
-27.3885
 11
154.388
 21
-28.1432
  0
LINE
  8
0
 10
154.388
 20
-28.1432
 11
154.388
 21
-46.5956
  0
LINE
  8
0
 10
154.388
 20
-46.5956
 11
154.381
 21
-46.7582
  0
LINE
  8
0
 10
154.381
 20
-46.7582
 11
154.362
 21
-46.9153
  0
LINE
  8
0
 10
154.362
 20
-46.9153
 11
154.33
 21
-47.0668
  0
LINE
  8
0
 10
154.33
 20
-47.0668
 11
154.285
 21
-47.2129
  0
LINE
  8
0
 10
154.285
 20
-47.2129
 11
154.227
 21
-47.3534
  0
LINE
  8
0
 10
154.227
 20
-47.3534
 11
154.156
 21
-47.4884
  0
LINE
  8
0
 10
154.156
 20
-47.4884
 11
154.072
 21
-47.618
  0
LINE
  8
0
 10
154.072
 20
-47.618
 11
153.976
 21
-47.742
  0
LINE
  8
0
 10
153.976
 20
-47.742
 11
153.867
 21
-47.8604
  0
LINE
  8
0
 10
153.867
 20
-47.8604
 11
153.748
 21
-47.9697
  0
LINE
  8
0
 10
153.748
 20
-47.9697
 11
153.624
 21
-48.0662
  0
LINE
  8
0
 10
153.624
 20
-48.0662
 11
153.495
 21
-48.1498
  0
LINE
  8
0
 10
153.495
 20
-48.1498
 11
153.36
 21
-48.2205
  0
LINE
  8
0
 10
153.36
 20
-48.2205
 11
153.219
 21
-48.2784
  0
LINE
  8
0
 10
153.219
 20
-48.2784
 11
153.073
 21
-48.3234
  0
LINE
  8
0
 10
153.073
 20
-48.3234
 11
152.921
 21
-48.3555
  0
LINE
  8
0
 10
152.921
 20
-48.3555
 11
152.764
 21
-48.3748
  0
LINE
  8
0
 10
152.764
 20
-48.3748
 11
152.602
 21
-48.3812
  0
LINE
  8
0
 10
152.602
 20
-48.3812
 11
152.439
 21
-48.3748
  0
LINE
  8
0
 10
61.5879
 20
-68.1921
 11
61.5163
 21
-68.1893
  0
LINE
  8
0
 10
61.5163
 20
-68.1893
 11
61.447
 21
-68.1806
  0
LINE
  8
0
 10
61.447
 20
-68.1806
 11
61.3801
 21
-68.1662
  0
LINE
  8
0
 10
61.3801
 20
-68.1662
 11
61.3155
 21
-68.1461
  0
LINE
  8
0
 10
61.3155
 20
-68.1461
 11
61.2532
 21
-68.1202
  0
LINE
  8
0
 10
61.2532
 20
-68.1202
 11
61.1932
 21
-68.0885
  0
LINE
  8
0
 10
61.1932
 20
-68.0885
 11
61.1356
 21
-68.0511
  0
LINE
  8
0
 10
61.1356
 20
-68.0511
 11
61.0803
 21
-68.008
  0
LINE
  8
0
 10
61.0803
 20
-68.008
 11
61.0274
 21
-67.959
  0
LINE
  8
0
 10
61.0274
 20
-67.959
 11
60.9784
 21
-67.9061
  0
LINE
  8
0
 10
60.9784
 20
-67.9061
 11
60.9353
 21
-67.8508
  0
LINE
  8
0
 10
60.9353
 20
-67.8508
 11
60.8979
 21
-67.7931
  0
LINE
  8
0
 10
60.8979
 20
-67.7931
 11
60.8662
 21
-67.7332
  0
LINE
  8
0
 10
60.8662
 20
-67.7332
 11
60.8403
 21
-67.6709
  0
LINE
  8
0
 10
60.8403
 20
-67.6709
 11
60.8202
 21
-67.6063
  0
LINE
  8
0
 10
60.8202
 20
-67.6063
 11
60.8058
 21
-67.5394
  0
LINE
  8
0
 10
60.8058
 20
-67.5394
 11
60.7971
 21
-67.4701
  0
LINE
  8
0
 10
60.7971
 20
-67.4701
 11
60.7943
 21
-67.3985
  0
LINE
  8
0
 10
60.7943
 20
-67.3985
 11
60.7971
 21
-67.327
  0
LINE
  8
0
 10
60.7971
 20
-67.327
 11
60.8058
 21
-67.2577
  0
LINE
  8
0
 10
60.8058
 20
-67.2577
 11
60.8202
 21
-67.1908
  0
LINE
  8
0
 10
60.8202
 20
-67.1908
 11
60.8403
 21
-67.1261
  0
LINE
  8
0
 10
60.8403
 20
-67.1261
 11
60.8662
 21
-67.0639
  0
LINE
  8
0
 10
60.8662
 20
-67.0639
 11
60.8979
 21
-67.0039
  0
LINE
  8
0
 10
60.8979
 20
-67.0039
 11
60.9353
 21
-66.9463
  0
LINE
  8
0
 10
60.9353
 20
-66.9463
 11
60.9784
 21
-66.891
  0
LINE
  8
0
 10
60.9784
 20
-66.891
 11
61.0274
 21
-66.838
  0
LINE
  8
0
 10
61.0274
 20
-66.838
 11
61.0803
 21
-66.7891
  0
LINE
  8
0
 10
61.0803
 20
-66.7891
 11
61.1356
 21
-66.7459
  0
LINE
  8
0
 10
61.1356
 20
-66.7459
 11
61.1932
 21
-66.7085
  0
LINE
  8
0
 10
61.1932
 20
-66.7085
 11
61.2532
 21
-66.6768
  0
LINE
  8
0
 10
61.2532
 20
-66.6768
 11
61.3155
 21
-66.6509
  0
LINE
  8
0
 10
61.3155
 20
-66.6509
 11
61.3801
 21
-66.6308
  0
LINE
  8
0
 10
61.3801
 20
-66.6308
 11
61.447
 21
-66.6164
  0
LINE
  8
0
 10
61.447
 20
-66.6164
 11
61.5163
 21
-66.6077
  0
LINE
  8
0
 10
61.5163
 20
-66.6077
 11
61.5879
 21
-66.6048
  0
LINE
  8
0
 10
61.5879
 20
-66.6048
 11
62.7784
 21
-66.6048
  0
LINE
  8
0
 10
62.7784
 20
-66.6048
 11
62.7784
 21
-56.2774
  0
LINE
  8
0
 10
62.7784
 20
-56.2774
 11
61.5977
 21
-56.2774
  0
LINE
  8
0
 10
61.5977
 20
-56.2774
 11
61.5262
 21
-56.2746
  0
LINE
  8
0
 10
61.5262
 20
-56.2746
 11
61.4569
 21
-56.2659
  0
LINE
  8
0
 10
61.4569
 20
-56.2659
 11
61.39
 21
-56.2515
  0
LINE
  8
0
 10
61.39
 20
-56.2515
 11
61.3254
 21
-56.2314
  0
LINE
  8
0
 10
61.3254
 20
-56.2314
 11
61.2631
 21
-56.2055
  0
LINE
  8
0
 10
61.2631
 20
-56.2055
 11
61.2032
 21
-56.1738
  0
LINE
  8
0
 10
61.2032
 20
-56.1738
 11
61.1456
 21
-56.1364
  0
LINE
  8
0
 10
61.1456
 20
-56.1364
 11
61.0902
 21
-56.0933
  0
LINE
  8
0
 10
61.0902
 20
-56.0933
 11
61.0373
 21
-56.0443
  0
LINE
  8
0
 10
61.0373
 20
-56.0443
 11
60.9883
 21
-55.9914
  0
LINE
  8
0
 10
60.9883
 20
-55.9914
 11
60.9452
 21
-55.9361
  0
LINE
  8
0
 10
60.9452
 20
-55.9361
 11
60.9078
 21
-55.8784
  0
LINE
  8
0
 10
60.9078
 20
-55.8784
 11
60.8761
 21
-55.8185
  0
LINE
  8
0
 10
60.8761
 20
-55.8185
 11
60.8502
 21
-55.7562
  0
LINE
  8
0
 10
60.8502
 20
-55.7562
 11
60.83
 21
-55.6916
  0
LINE
  8
0
 10
60.83
 20
-55.6916
 11
60.8157
 21
-55.6247
  0
LINE
  8
0
 10
60.8157
 20
-55.6247
 11
60.807
 21
-55.5554
  0
LINE
  8
0
 10
60.807
 20
-55.5554
 11
60.8042
 21
-55.4838
  0
LINE
  8
0
 10
60.8042
 20
-55.4838
 11
60.807
 21
-55.4122
  0
LINE
  8
0
 10
60.807
 20
-55.4122
 11
60.8157
 21
-55.343
  0
LINE
  8
0
 10
60.8157
 20
-55.343
 11
60.83
 21
-55.276
  0
LINE
  8
0
 10
60.83
 20
-55.276
 11
60.8502
 21
-55.2114
  0
LINE
  8
0
 10
60.8502
 20
-55.2114
 11
60.8761
 21
-55.1492
  0
LINE
  8
0
 10
60.8761
 20
-55.1492
 11
60.9078
 21
-55.0892
  0
LINE
  8
0
 10
60.9078
 20
-55.0892
 11
60.9452
 21
-55.0316
  0
LINE
  8
0
 10
60.9452
 20
-55.0316
 11
60.9883
 21
-54.9763
  0
LINE
  8
0
 10
60.9883
 20
-54.9763
 11
61.0373
 21
-54.9234
  0
LINE
  8
0
 10
61.0373
 20
-54.9234
 11
61.0902
 21
-54.8744
  0
LINE
  8
0
 10
61.0902
 20
-54.8744
 11
61.1456
 21
-54.8312
  0
LINE
  8
0
 10
61.1456
 20
-54.8312
 11
61.2032
 21
-54.7938
  0
LINE
  8
0
 10
61.2032
 20
-54.7938
 11
61.2631
 21
-54.7621
  0
LINE
  8
0
 10
61.2631
 20
-54.7621
 11
61.3254
 21
-54.7362
  0
LINE
  8
0
 10
61.3254
 20
-54.7362
 11
61.39
 21
-54.7161
  0
LINE
  8
0
 10
61.39
 20
-54.7161
 11
61.4569
 21
-54.7017
  0
LINE
  8
0
 10
61.4569
 20
-54.7017
 11
61.5262
 21
-54.693
  0
LINE
  8
0
 10
61.5262
 20
-54.693
 11
61.5977
 21
-54.6902
  0
LINE
  8
0
 10
61.5977
 20
-54.6902
 11
63.582
 21
-54.6902
  0
LINE
  8
0
 10
63.582
 20
-54.6902
 11
63.6515
 21
-54.693
  0
LINE
  8
0
 10
63.6515
 20
-54.693
 11
63.7191
 21
-54.7014
  0
LINE
  8
0
 10
63.7191
 20
-54.7014
 11
63.7847
 21
-54.7155
  0
LINE
  8
0
 10
63.7847
 20
-54.7155
 11
63.8484
 21
-54.7352
  0
LINE
  8
0
 10
63.8484
 20
-54.7352
 11
63.9101
 21
-54.7606
  0
LINE
  8
0
 10
63.9101
 20
-54.7606
 11
63.9699
 21
-54.7916
  0
LINE
  8
0
 10
63.9699
 20
-54.7916
 11
64.0277
 21
-54.8282
  0
LINE
  8
0
 10
64.0277
 20
-54.8282
 11
64.0836
 21
-54.8705
  0
LINE
  8
0
 10
64.0836
 20
-54.8705
 11
64.1375
 21
-54.9184
  0
LINE
  8
0
 10
64.1375
 20
-54.9184
 11
64.1853
 21
-54.9724
  0
LINE
  8
0
 10
64.1853
 20
-54.9724
 11
64.2276
 21
-55.0286
  0
LINE
  8
0
 10
64.2276
 20
-55.0286
 11
64.2642
 21
-55.087
  0
LINE
  8
0
 10
64.2642
 20
-55.087
 11
64.2952
 21
-55.1476
  0
LINE
  8
0
 10
64.2952
 20
-55.1476
 11
64.3206
 21
-55.2105
  0
LINE
  8
0
 10
64.3206
 20
-55.2105
 11
64.3403
 21
-55.2755
  0
LINE
  8
0
 10
64.3403
 20
-55.2755
 11
64.3544
 21
-55.3427
  0
LINE
  8
0
 10
64.3544
 20
-55.3427
 11
64.3628
 21
-55.4122
  0
LINE
  8
0
 10
64.3628
 20
-55.4122
 11
64.3657
 21
-55.4838
  0
LINE
  8
0
 10
64.3657
 20
-55.4838
 11
64.3657
 21
-66.6048
  0
LINE
  8
0
 10
64.3657
 20
-66.6048
 11
65.1693
 21
-66.6048
  0
LINE
  8
0
 10
65.1693
 20
-66.6048
 11
65.2408
 21
-66.6077
  0
LINE
  8
0
 10
65.2408
 20
-66.6077
 11
65.3101
 21
-66.6164
  0
LINE
  8
0
 10
65.3101
 20
-66.6164
 11
65.377
 21
-66.6308
  0
LINE
  8
0
 10
65.377
 20
-66.6308
 11
65.4416
 21
-66.6509
  0
LINE
  8
0
 10
65.4416
 20
-66.6509
 11
65.5038
 21
-66.6768
  0
LINE
  8
0
 10
65.5038
 20
-66.6768
 11
65.5638
 21
-66.7085
  0
LINE
  8
0
 10
65.5638
 20
-66.7085
 11
65.6214
 21
-66.7459
  0
LINE
  8
0
 10
65.6214
 20
-66.7459
 11
65.6767
 21
-66.7891
  0
LINE
  8
0
 10
65.6767
 20
-66.7891
 11
65.7297
 21
-66.838
  0
LINE
  8
0
 10
65.7297
 20
-66.838
 11
65.7786
 21
-66.891
  0
LINE
  8
0
 10
65.7786
 20
-66.891
 11
65.8218
 21
-66.9463
  0
LINE
  8
0
 10
65.8218
 20
-66.9463
 11
65.8592
 21
-67.0039
  0
LINE
  8
0
 10
65.8592
 20
-67.0039
 11
65.8909
 21
-67.0639
  0
LINE
  8
0
 10
65.8909
 20
-67.0639
 11
65.9168
 21
-67.1261
  0
LINE
  8
0
 10
65.9168
 20
-67.1261
 11
65.937
 21
-67.1908
  0
LINE
  8
0
 10
65.937
 20
-67.1908
 11
65.9513
 21
-67.2577
  0
LINE
  8
0
 10
65.9513
 20
-67.2577
 11
65.96
 21
-67.327
  0
LINE
  8
0
 10
65.96
 20
-67.327
 11
65.9629
 21
-67.3985
  0
LINE
  8
0
 10
65.9629
 20
-67.3985
 11
65.96
 21
-67.4701
  0
LINE
  8
0
 10
65.96
 20
-67.4701
 11
65.9513
 21
-67.5394
  0
LINE
  8
0
 10
65.9513
 20
-67.5394
 11
65.937
 21
-67.6063
  0
LINE
  8
0
 10
65.937
 20
-67.6063
 11
65.9168
 21
-67.6709
  0
LINE
  8
0
 10
65.9168
 20
-67.6709
 11
65.8909
 21
-67.7332
  0
LINE
  8
0
 10
65.8909
 20
-67.7332
 11
65.8592
 21
-67.7931
  0
LINE
  8
0
 10
65.8592
 20
-67.7931
 11
65.8218
 21
-67.8508
  0
LINE
  8
0
 10
65.8218
 20
-67.8508
 11
65.7786
 21
-67.9061
  0
LINE
  8
0
 10
65.7786
 20
-67.9061
 11
65.7297
 21
-67.959
  0
LINE
  8
0
 10
65.7297
 20
-67.959
 11
65.6767
 21
-68.008
  0
LINE
  8
0
 10
65.6767
 20
-68.008
 11
65.6214
 21
-68.0511
  0
LINE
  8
0
 10
65.6214
 20
-68.0511
 11
65.5638
 21
-68.0885
  0
LINE
  8
0
 10
65.5638
 20
-68.0885
 11
65.5038
 21
-68.1202
  0
LINE
  8
0
 10
65.5038
 20
-68.1202
 11
65.4416
 21
-68.1461
  0
LINE
  8
0
 10
65.4416
 20
-68.1461
 11
65.377
 21
-68.1662
  0
LINE
  8
0
 10
65.377
 20
-68.1662
 11
65.3101
 21
-68.1806
  0
LINE
  8
0
 10
65.3101
 20
-68.1806
 11
65.2408
 21
-68.1893
  0
LINE
  8
0
 10
65.2408
 20
-68.1893
 11
65.1693
 21
-68.1921
  0
LINE
  8
0
 10
65.1693
 20
-68.1921
 11
61.5879
 21
-68.1921
  0
LINE
  8
0
 10
45.2479
 20
-68.1892
 11
45.1803
 21
-68.1804
  0
LINE
  8
0
 10
45.1803
 20
-68.1804
 11
45.1147
 21
-68.1657
  0
LINE
  8
0
 10
45.1147
 20
-68.1657
 11
45.0509
 21
-68.1451
  0
LINE
  8
0
 10
45.0509
 20
-68.1451
 11
44.9892
 21
-68.1187
  0
LINE
  8
0
 10
44.9892
 20
-68.1187
 11
44.9294
 21
-68.0863
  0
LINE
  8
0
 10
44.9294
 20
-68.0863
 11
44.8716
 21
-68.0481
  0
LINE
  8
0
 10
44.8716
 20
-68.0481
 11
44.8158
 21
-68.004
  0
LINE
  8
0
 10
44.8158
 20
-68.004
 11
44.7619
 21
-67.954
  0
LINE
  8
0
 10
44.7619
 20
-67.954
 11
44.7119
 21
-67.9042
  0
LINE
  8
0
 10
44.7119
 20
-67.9042
 11
44.6678
 21
-67.8517
  0
LINE
  8
0
 10
44.6678
 20
-67.8517
 11
44.6296
 21
-67.7964
  0
LINE
  8
0
 10
44.6296
 20
-67.7964
 11
44.5973
 21
-67.7385
  0
LINE
  8
0
 10
44.5973
 20
-67.7385
 11
44.5708
 21
-67.6779
  0
LINE
  8
0
 10
44.5708
 20
-67.6779
 11
44.5502
 21
-67.6146
  0
LINE
  8
0
 10
44.5502
 20
-67.6146
 11
44.5356
 21
-67.5486
  0
LINE
  8
0
 10
44.5356
 20
-67.5486
 11
44.5267
 21
-67.4798
  0
LINE
  8
0
 10
44.5267
 20
-67.4798
 11
44.5238
 21
-67.4084
  0
LINE
  8
0
 10
44.5238
 20
-67.4084
 11
44.5238
 21
-59.1544
  0
LINE
  8
0
 10
44.5238
 20
-59.1544
 11
42.1032
 21
-64.452
  0
LINE
  8
0
 10
42.1032
 20
-64.452
 11
42.0727
 21
-64.5162
  0
LINE
  8
0
 10
42.0727
 20
-64.5162
 11
42.0385
 21
-64.5765
  0
LINE
  8
0
 10
42.0385
 20
-64.5765
 11
42.0007
 21
-64.6328
  0
LINE
  8
0
 10
42.0007
 20
-64.6328
 11
41.9591
 21
-64.6852
  0
LINE
  8
0
 10
41.9591
 20
-64.6852
 11
41.9139
 21
-64.7337
  0
LINE
  8
0
 10
41.9139
 20
-64.7337
 11
41.8651
 21
-64.7783
  0
LINE
  8
0
 10
41.8651
 20
-64.7783
 11
41.8125
 21
-64.819
  0
LINE
  8
0
 10
41.8125
 20
-64.819
 11
41.7563
 21
-64.8557
  0
LINE
  8
0
 10
41.7563
 20
-64.8557
 11
41.6964
 21
-64.8885
  0
LINE
  8
0
 10
41.6964
 20
-64.8885
 11
41.6609
 21
-64.9052
  0
LINE
  8
0
 10
41.6609
 20
-64.9052
 11
41.6249
 21
-64.9199
  0
LINE
  8
0
 10
41.6249
 20
-64.9199
 11
41.5884
 21
-64.9326
  0
LINE
  8
0
 10
41.5884
 20
-64.9326
 11
41.5514
 21
-64.9434
  0
LINE
  8
0
 10
41.5514
 20
-64.9434
 11
41.5139
 21
-64.9523
  0
LINE
  8
0
 10
41.5139
 20
-64.9523
 11
41.476
 21
-64.9591
  0
LINE
  8
0
 10
41.476
 20
-64.9591
 11
41.4375
 21
-64.964
  0
LINE
  8
0
 10
41.4375
 20
-64.964
 11
41.3985
 21
-64.967
  0
LINE
  8
0
 10
41.3985
 20
-64.967
 11
41.3591
 21
-64.9679
  0
LINE
  8
0
 10
41.3591
 20
-64.9679
 11
41.3284
 21
-64.9673
  0
LINE
  8
0
 10
41.3284
 20
-64.9673
 11
41.2979
 21
-64.9655
  0
LINE
  8
0
 10
41.2979
 20
-64.9655
 11
41.2676
 21
-64.9624
  0
LINE
  8
0
 10
41.2676
 20
-64.9624
 11
41.2376
 21
-64.9581
  0
LINE
  8
0
 10
41.2376
 20
-64.9581
 11
41.2078
 21
-64.9526
  0
LINE
  8
0
 10
41.2078
 20
-64.9526
 11
41.1783
 21
-64.9459
  0
LINE
  8
0
 10
41.1783
 20
-64.9459
 11
41.1491
 21
-64.9379
  0
LINE
  8
0
 10
41.1491
 20
-64.9379
 11
41.1201
 21
-64.9288
  0
LINE
  8
0
 10
41.1201
 20
-64.9288
 11
41.0913
 21
-64.9183
  0
LINE
  8
0
 10
41.0913
 20
-64.9183
 11
41.0231
 21
-64.8918
  0
LINE
  8
0
 10
41.0231
 20
-64.8918
 11
40.9595
 21
-64.8605
  0
LINE
  8
0
 10
40.9595
 20
-64.8605
 11
40.9006
 21
-64.8247
  0
LINE
  8
0
 10
40.9006
 20
-64.8247
 11
40.8463
 21
-64.7841
  0
LINE
  8
0
 10
40.8463
 20
-64.7841
 11
40.7967
 21
-64.7389
  0
LINE
  8
0
 10
40.7967
 20
-64.7389
 11
40.7517
 21
-64.6891
  0
LINE
  8
0
 10
40.7517
 20
-64.6891
 11
40.7114
 21
-64.6346
  0
LINE
  8
0
 10
40.7114
 20
-64.6346
 11
40.6758
 21
-64.5755
  0
LINE
  8
0
 10
40.6758
 20
-64.5755
 11
40.6448
 21
-64.5116
  0
LINE
  8
0
 10
40.6448
 20
-64.5116
 11
38.1746
 21
-59.1346
  0
LINE
  8
0
 10
38.1746
 20
-59.1346
 11
38.1746
 21
-67.3985
  0
LINE
  8
0
 10
38.1746
 20
-67.3985
 11
38.1717
 21
-67.4701
  0
LINE
  8
0
 10
38.1717
 20
-67.4701
 11
38.1631
 21
-67.5394
  0
LINE
  8
0
 10
38.1631
 20
-67.5394
 11
38.1487
 21
-67.6063
  0
LINE
  8
0
 10
38.1487
 20
-67.6063
 11
38.1285
 21
-67.6709
  0
LINE
  8
0
 10
38.1285
 20
-67.6709
 11
38.1026
 21
-67.7332
  0
LINE
  8
0
 10
38.1026
 20
-67.7332
 11
38.071
 21
-67.7931
  0
LINE
  8
0
 10
38.071
 20
-67.7931
 11
38.0335
 21
-67.8508
  0
LINE
  8
0
 10
38.0335
 20
-67.8508
 11
37.9903
 21
-67.9061
  0
LINE
  8
0
 10
37.9903
 20
-67.9061
 11
37.9414
 21
-67.959
  0
LINE
  8
0
 10
37.9414
 20
-67.959
 11
37.8884
 21
-68.008
  0
LINE
  8
0
 10
37.8884
 20
-68.008
 11
37.8331
 21
-68.0511
  0
LINE
  8
0
 10
37.8331
 20
-68.0511
 11
37.7755
 21
-68.0885
  0
LINE
  8
0
 10
37.7755
 20
-68.0885
 11
37.7156
 21
-68.1202
  0
LINE
  8
0
 10
37.7156
 20
-68.1202
 11
37.6533
 21
-68.1461
  0
LINE
  8
0
 10
37.6533
 20
-68.1461
 11
37.5887
 21
-68.1662
  0
LINE
  8
0
 10
37.5887
 20
-68.1662
 11
37.5218
 21
-68.1806
  0
LINE
  8
0
 10
37.5218
 20
-68.1806
 11
37.4526
 21
-68.1893
  0
LINE
  8
0
 10
37.4526
 20
-68.1893
 11
37.381
 21
-68.1921
  0
LINE
  8
0
 10
37.381
 20
-68.1921
 11
37.3094
 21
-68.1893
  0
LINE
  8
0
 10
37.3094
 20
-68.1893
 11
37.2401
 21
-68.1806
  0
LINE
  8
0
 10
37.2401
 20
-68.1806
 11
37.1732
 21
-68.1662
  0
LINE
  8
0
 10
37.1732
 20
-68.1662
 11
37.1086
 21
-68.1461
  0
LINE
  8
0
 10
37.1086
 20
-68.1461
 11
37.0463
 21
-68.1202
  0
LINE
  8
0
 10
37.0463
 20
-68.1202
 11
36.9863
 21
-68.0885
  0
LINE
  8
0
 10
36.9863
 20
-68.0885
 11
36.9287
 21
-68.0511
  0
LINE
  8
0
 10
36.9287
 20
-68.0511
 11
36.8734
 21
-68.008
  0
LINE
  8
0
 10
36.8734
 20
-68.008
 11
36.8204
 21
-67.959
  0
LINE
  8
0
 10
36.8204
 20
-67.959
 11
36.7715
 21
-67.9061
  0
LINE
  8
0
 10
36.7715
 20
-67.9061
 11
36.7283
 21
-67.8508
  0
LINE
  8
0
 10
36.7283
 20
-67.8508
 11
36.6909
 21
-67.7931
  0
LINE
  8
0
 10
36.6909
 20
-67.7931
 11
36.6592
 21
-67.7332
  0
LINE
  8
0
 10
36.6592
 20
-67.7332
 11
36.6333
 21
-67.6709
  0
LINE
  8
0
 10
36.6333
 20
-67.6709
 11
36.6132
 21
-67.6063
  0
LINE
  8
0
 10
36.6132
 20
-67.6063
 11
36.5988
 21
-67.5394
  0
LINE
  8
0
 10
36.5988
 20
-67.5394
 11
36.5902
 21
-67.4701
  0
LINE
  8
0
 10
36.5902
 20
-67.4701
 11
36.5873
 21
-67.3985
  0
LINE
  8
0
 10
36.5873
 20
-67.3985
 11
36.5873
 21
-55.4937
  0
LINE
  8
0
 10
36.5873
 20
-55.4937
 11
36.5902
 21
-55.4242
  0
LINE
  8
0
 10
36.5902
 20
-55.4242
 11
36.5988
 21
-55.3566
  0
LINE
  8
0
 10
36.5988
 20
-55.3566
 11
36.6132
 21
-55.2909
  0
LINE
  8
0
 10
36.6132
 20
-55.2909
 11
36.6333
 21
-55.2272
  0
LINE
  8
0
 10
36.6333
 20
-55.2272
 11
36.6592
 21
-55.1655
  0
LINE
  8
0
 10
36.6592
 20
-55.1655
 11
36.6909
 21
-55.1057
  0
LINE
  8
0
 10
36.6909
 20
-55.1057
 11
36.7283
 21
-55.0479
  0
LINE
  8
0
 10
36.7283
 20
-55.0479
 11
36.7715
 21
-54.9921
  0
LINE
  8
0
 10
36.7715
 20
-54.9921
 11
36.8204
 21
-54.9382
  0
LINE
  8
0
 10
36.8204
 20
-54.9382
 11
36.8734
 21
-54.8882
  0
LINE
  8
0
 10
36.8734
 20
-54.8882
 11
36.9287
 21
-54.8441
  0
LINE
  8
0
 10
36.9287
 20
-54.8441
 11
36.9863
 21
-54.8059
  0
LINE
  8
0
 10
36.9863
 20
-54.8059
 11
37.0463
 21
-54.7735
  0
LINE
  8
0
 10
37.0463
 20
-54.7735
 11
37.1086
 21
-54.7471
  0
LINE
  8
0
 10
37.1086
 20
-54.7471
 11
37.1732
 21
-54.7265
  0
LINE
  8
0
 10
37.1732
 20
-54.7265
 11
37.2401
 21
-54.7118
  0
LINE
  8
0
 10
37.2401
 20
-54.7118
 11
37.3094
 21
-54.703
  0
LINE
  8
0
 10
37.3094
 20
-54.703
 11
37.381
 21
-54.7001
  0
LINE
  8
0
 10
37.381
 20
-54.7001
 11
37.4526
 21
-54.703
  0
LINE
  8
0
 10
37.4526
 20
-54.703
 11
37.522
 21
-54.7118
  0
LINE
  8
0
 10
37.522
 20
-54.7118
 11
37.5893
 21
-54.7265
  0
LINE
  8
0
 10
37.5893
 20
-54.7265
 11
37.6543
 21
-54.7471
  0
LINE
  8
0
 10
37.6543
 20
-54.7471
 11
37.7171
 21
-54.7735
  0
LINE
  8
0
 10
37.7171
 20
-54.7735
 11
37.7777
 21
-54.8059
  0
LINE
  8
0
 10
37.7777
 20
-54.8059
 11
37.8362
 21
-54.8441
  0
LINE
  8
0
 10
37.8362
 20
-54.8441
 11
37.8924
 21
-54.8882
  0
LINE
  8
0
 10
37.8924
 20
-54.8882
 11
37.9464
 21
-54.9382
  0
LINE
  8
0
 10
37.9464
 20
-54.9382
 11
37.9638
 21
-54.956
  0
LINE
  8
0
 10
37.9638
 20
-54.956
 11
37.9807
 21
-54.9744
  0
LINE
  8
0
 10
37.9807
 20
-54.9744
 11
37.9971
 21
-54.9933
  0
LINE
  8
0
 10
37.9971
 20
-54.9933
 11
38.013
 21
-55.0126
  0
LINE
  8
0
 10
38.013
 20
-55.0126
 11
38.0285
 21
-55.0325
  0
LINE
  8
0
 10
38.0285
 20
-55.0325
 11
38.0434
 21
-55.0528
  0
LINE
  8
0
 10
38.0434
 20
-55.0528
 11
38.0579
 21
-55.0736
  0
LINE
  8
0
 10
38.0579
 20
-55.0736
 11
38.0718
 21
-55.0949
  0
LINE
  8
0
 10
38.0718
 20
-55.0949
 11
38.0853
 21
-55.1167
  0
LINE
  8
0
 10
38.0853
 20
-55.1167
 11
41.3591
 21
-62.2496
  0
LINE
  8
0
 10
41.3591
 20
-62.2496
 11
44.6032
 21
-55.1365
  0
LINE
  8
0
 10
44.6032
 20
-55.1365
 11
44.6189
 21
-55.1124
  0
LINE
  8
0
 10
44.6189
 20
-55.1124
 11
44.635
 21
-55.0885
  0
LINE
  8
0
 10
44.635
 20
-55.0885
 11
44.6517
 21
-55.0649
  0
LINE
  8
0
 10
44.6517
 20
-55.0649
 11
44.6688
 21
-55.0415
  0
LINE
  8
0
 10
44.6688
 20
-55.0415
 11
44.6864
 21
-55.0184
  0
LINE
  8
0
 10
44.6864
 20
-55.0184
 11
44.7046
 21
-54.9955
  0
LINE
  8
0
 10
44.7046
 20
-54.9955
 11
44.7232
 21
-54.9728
  0
LINE
  8
0
 10
44.7232
 20
-54.9728
 11
44.7423
 21
-54.9504
  0
LINE
  8
0
 10
44.7423
 20
-54.9504
 11
44.7619
 21
-54.9283
  0
LINE
  8
0
 10
44.7619
 20
-54.9283
 11
44.8158
 21
-54.8804
  0
LINE
  8
0
 10
44.8158
 20
-54.8804
 11
44.8716
 21
-54.8381
  0
LINE
  8
0
 10
44.8716
 20
-54.8381
 11
44.9294
 21
-54.8015
  0
LINE
  8
0
 10
44.9294
 20
-54.8015
 11
44.9892
 21
-54.7705
  0
LINE
  8
0
 10
44.9892
 20
-54.7705
 11
45.0509
 21
-54.7451
  0
LINE
  8
0
 10
45.0509
 20
-54.7451
 11
45.1147
 21
-54.7254
  0
LINE
  8
0
 10
45.1147
 20
-54.7254
 11
45.1803
 21
-54.7113
  0
LINE
  8
0
 10
45.1803
 20
-54.7113
 11
45.2479
 21
-54.7029
  0
LINE
  8
0
 10
45.2479
 20
-54.7029
 11
45.3175
 21
-54.7001
  0
LINE
  8
0
 10
45.3175
 20
-54.7001
 11
45.3891
 21
-54.7029
  0
LINE
  8
0
 10
45.3891
 20
-54.7029
 11
45.4583
 21
-54.7116
  0
LINE
  8
0
 10
45.4583
 20
-54.7116
 11
45.5253
 21
-54.726
  0
LINE
  8
0
 10
45.5253
 20
-54.726
 11
45.5899
 21
-54.7461
  0
LINE
  8
0
 10
45.5899
 20
-54.7461
 11
45.6522
 21
-54.772
  0
LINE
  8
0
 10
45.6522
 20
-54.772
 11
45.7121
 21
-54.8037
  0
LINE
  8
0
 10
45.7121
 20
-54.8037
 11
45.7697
 21
-54.8411
  0
LINE
  8
0
 10
45.7697
 20
-54.8411
 11
45.825
 21
-54.8843
  0
LINE
  8
0
 10
45.825
 20
-54.8843
 11
45.878
 21
-54.9333
  0
LINE
  8
0
 10
45.878
 20
-54.9333
 11
45.9269
 21
-54.9862
  0
LINE
  8
0
 10
45.9269
 20
-54.9862
 11
45.9701
 21
-55.0415
  0
LINE
  8
0
 10
45.9701
 20
-55.0415
 11
46.0075
 21
-55.0991
  0
LINE
  8
0
 10
46.0075
 20
-55.0991
 11
46.0392
 21
-55.1591
  0
LINE
  8
0
 10
46.0392
 20
-55.1591
 11
46.065
 21
-55.2213
  0
LINE
  8
0
 10
46.065
 20
-55.2213
 11
46.0852
 21
-55.2859
  0
LINE
  8
0
 10
46.0852
 20
-55.2859
 11
46.0996
 21
-55.3529
  0
LINE
  8
0
 10
46.0996
 20
-55.3529
 11
46.1082
 21
-55.4221
  0
LINE
  8
0
 10
46.1082
 20
-55.4221
 11
46.1111
 21
-55.4937
  0
LINE
  8
0
 10
46.1111
 20
-55.4937
 11
46.1111
 21
-67.4084
  0
LINE
  8
0
 10
46.1111
 20
-67.4084
 11
46.1083
 21
-67.4779
  0
LINE
  8
0
 10
46.1083
 20
-67.4779
 11
46.0998
 21
-67.5451
  0
LINE
  8
0
 10
46.0998
 20
-67.5451
 11
46.0857
 21
-67.6101
  0
LINE
  8
0
 10
46.0857
 20
-67.6101
 11
46.066
 21
-67.673
  0
LINE
  8
0
 10
46.066
 20
-67.673
 11
46.0407
 21
-67.7336
  0
LINE
  8
0
 10
46.0407
 20
-67.7336
 11
46.0097
 21
-67.792
  0
LINE
  8
0
 10
46.0097
 20
-67.792
 11
45.9731
 21
-67.8482
  0
LINE
  8
0
 10
45.9731
 20
-67.8482
 11
45.9308
 21
-67.9022
  0
LINE
  8
0
 10
45.9308
 20
-67.9022
 11
45.8829
 21
-67.954
  0
LINE
  8
0
 10
45.8829
 20
-67.954
 11
45.8289
 21
-68.004
  0
LINE
  8
0
 10
45.8289
 20
-68.004
 11
45.7727
 21
-68.0481
  0
LINE
  8
0
 10
45.7727
 20
-68.0481
 11
45.7143
 21
-68.0863
  0
LINE
  8
0
 10
45.7143
 20
-68.0863
 11
45.6537
 21
-68.1187
  0
LINE
  8
0
 10
45.6537
 20
-68.1187
 11
45.5909
 21
-68.1451
  0
LINE
  8
0
 10
45.5909
 20
-68.1451
 11
45.5258
 21
-68.1657
  0
LINE
  8
0
 10
45.5258
 20
-68.1657
 11
45.4586
 21
-68.1804
  0
LINE
  8
0
 10
45.4586
 20
-68.1804
 11
45.3891
 21
-68.1892
  0
LINE
  8
0
 10
45.3891
 20
-68.1892
 11
45.3175
 21
-68.1921
  0
LINE
  8
0
 10
45.3175
 20
-68.1921
 11
45.2479
 21
-68.1892
  0
LINE
  8
0
 10
49.3227
 20
-68.1893
 11
49.2534
 21
-68.1806
  0
LINE
  8
0
 10
49.2534
 20
-68.1806
 11
49.1865
 21
-68.1662
  0
LINE
  8
0
 10
49.1865
 20
-68.1662
 11
49.1219
 21
-68.1461
  0
LINE
  8
0
 10
49.1219
 20
-68.1461
 11
49.0596
 21
-68.1202
  0
LINE
  8
0
 10
49.0596
 20
-68.1202
 11
48.9996
 21
-68.0885
  0
LINE
  8
0
 10
48.9996
 20
-68.0885
 11
48.942
 21
-68.0511
  0
LINE
  8
0
 10
48.942
 20
-68.0511
 11
48.8867
 21
-68.008
  0
LINE
  8
0
 10
48.8867
 20
-68.008
 11
48.8337
 21
-67.959
  0
LINE
  8
0
 10
48.8337
 20
-67.959
 11
48.7847
 21
-67.9061
  0
LINE
  8
0
 10
48.7847
 20
-67.9061
 11
48.7416
 21
-67.8508
  0
LINE
  8
0
 10
48.7416
 20
-67.8508
 11
48.7042
 21
-67.7931
  0
LINE
  8
0
 10
48.7042
 20
-67.7931
 11
48.6725
 21
-67.7332
  0
LINE
  8
0
 10
48.6725
 20
-67.7332
 11
48.6466
 21
-67.6709
  0
LINE
  8
0
 10
48.6466
 20
-67.6709
 11
48.6265
 21
-67.6063
  0
LINE
  8
0
 10
48.6265
 20
-67.6063
 11
48.6121
 21
-67.5394
  0
LINE
  8
0
 10
48.6121
 20
-67.5394
 11
48.6035
 21
-67.4701
  0
LINE
  8
0
 10
48.6035
 20
-67.4701
 11
48.6006
 21
-67.3985
  0
LINE
  8
0
 10
48.6006
 20
-67.3985
 11
48.6006
 21
-55.4937
  0
LINE
  8
0
 10
48.6006
 20
-55.4937
 11
48.6035
 21
-55.4221
  0
LINE
  8
0
 10
48.6035
 20
-55.4221
 11
48.6121
 21
-55.3529
  0
LINE
  8
0
 10
48.6121
 20
-55.3529
 11
48.6265
 21
-55.2859
  0
LINE
  8
0
 10
48.6265
 20
-55.2859
 11
48.6466
 21
-55.2213
  0
LINE
  8
0
 10
48.6466
 20
-55.2213
 11
48.6725
 21
-55.1591
  0
LINE
  8
0
 10
48.6725
 20
-55.1591
 11
48.7042
 21
-55.0991
  0
LINE
  8
0
 10
48.7042
 20
-55.0991
 11
48.7416
 21
-55.0415
  0
LINE
  8
0
 10
48.7416
 20
-55.0415
 11
48.7847
 21
-54.9862
  0
LINE
  8
0
 10
48.7847
 20
-54.9862
 11
48.8337
 21
-54.9333
  0
LINE
  8
0
 10
48.8337
 20
-54.9333
 11
48.8867
 21
-54.8843
  0
LINE
  8
0
 10
48.8867
 20
-54.8843
 11
48.942
 21
-54.8411
  0
LINE
  8
0
 10
48.942
 20
-54.8411
 11
48.9996
 21
-54.8037
  0
LINE
  8
0
 10
48.9996
 20
-54.8037
 11
49.0596
 21
-54.772
  0
LINE
  8
0
 10
49.0596
 20
-54.772
 11
49.1219
 21
-54.7461
  0
LINE
  8
0
 10
49.1219
 20
-54.7461
 11
49.1865
 21
-54.726
  0
LINE
  8
0
 10
49.1865
 20
-54.726
 11
49.2534
 21
-54.7116
  0
LINE
  8
0
 10
49.2534
 20
-54.7116
 11
49.3227
 21
-54.7029
  0
LINE
  8
0
 10
49.3227
 20
-54.7029
 11
49.3943
 21
-54.7001
  0
LINE
  8
0
 10
49.3943
 20
-54.7001
 11
49.4659
 21
-54.7029
  0
LINE
  8
0
 10
49.4659
 20
-54.7029
 11
49.5351
 21
-54.7116
  0
LINE
  8
0
 10
49.5351
 20
-54.7116
 11
49.602
 21
-54.726
  0
LINE
  8
0
 10
49.602
 20
-54.726
 11
49.6666
 21
-54.7461
  0
LINE
  8
0
 10
49.6666
 20
-54.7461
 11
49.7289
 21
-54.772
  0
LINE
  8
0
 10
49.7289
 20
-54.772
 11
49.7888
 21
-54.8037
  0
LINE
  8
0
 10
49.7888
 20
-54.8037
 11
49.8464
 21
-54.8411
  0
LINE
  8
0
 10
49.8464
 20
-54.8411
 11
49.9017
 21
-54.8843
  0
LINE
  8
0
 10
49.9017
 20
-54.8843
 11
49.9547
 21
-54.9333
  0
LINE
  8
0
 10
49.9547
 20
-54.9333
 11
50.0036
 21
-54.9862
  0
LINE
  8
0
 10
50.0036
 20
-54.9862
 11
50.0468
 21
-55.0415
  0
LINE
  8
0
 10
50.0468
 20
-55.0415
 11
50.0842
 21
-55.0991
  0
LINE
  8
0
 10
50.0842
 20
-55.0991
 11
50.1159
 21
-55.1591
  0
LINE
  8
0
 10
50.1159
 20
-55.1591
 11
50.1418
 21
-55.2213
  0
LINE
  8
0
 10
50.1418
 20
-55.2213
 11
50.162
 21
-55.2859
  0
LINE
  8
0
 10
50.162
 20
-55.2859
 11
50.1764
 21
-55.3529
  0
LINE
  8
0
 10
50.1764
 20
-55.3529
 11
50.185
 21
-55.4221
  0
LINE
  8
0
 10
50.185
 20
-55.4221
 11
50.1879
 21
-55.4937
  0
LINE
  8
0
 10
50.1879
 20
-55.4937
 11
50.1879
 21
-67.3985
  0
LINE
  8
0
 10
50.1879
 20
-67.3985
 11
50.185
 21
-67.4701
  0
LINE
  8
0
 10
50.185
 20
-67.4701
 11
50.1764
 21
-67.5394
  0
LINE
  8
0
 10
50.1764
 20
-67.5394
 11
50.162
 21
-67.6063
  0
LINE
  8
0
 10
50.162
 20
-67.6063
 11
50.1418
 21
-67.6709
  0
LINE
  8
0
 10
50.1418
 20
-67.6709
 11
50.1159
 21
-67.7332
  0
LINE
  8
0
 10
50.1159
 20
-67.7332
 11
50.0842
 21
-67.7931
  0
LINE
  8
0
 10
50.0842
 20
-67.7931
 11
50.0468
 21
-67.8508
  0
LINE
  8
0
 10
50.0468
 20
-67.8508
 11
50.0036
 21
-67.9061
  0
LINE
  8
0
 10
50.0036
 20
-67.9061
 11
49.9547
 21
-67.959
  0
LINE
  8
0
 10
49.9547
 20
-67.959
 11
49.9017
 21
-68.008
  0
LINE
  8
0
 10
49.9017
 20
-68.008
 11
49.8464
 21
-68.0511
  0
LINE
  8
0
 10
49.8464
 20
-68.0511
 11
49.7888
 21
-68.0885
  0
LINE
  8
0
 10
49.7888
 20
-68.0885
 11
49.7289
 21
-68.1202
  0
LINE
  8
0
 10
49.7289
 20
-68.1202
 11
49.6666
 21
-68.1461
  0
LINE
  8
0
 10
49.6666
 20
-68.1461
 11
49.602
 21
-68.1662
  0
LINE
  8
0
 10
49.602
 20
-68.1662
 11
49.5351
 21
-68.1806
  0
LINE
  8
0
 10
49.5351
 20
-68.1806
 11
49.4659
 21
-68.1893
  0
LINE
  8
0
 10
49.4659
 20
-68.1893
 11
49.3943
 21
-68.1921
  0
LINE
  8
0
 10
49.3943
 20
-68.1921
 11
49.3227
 21
-68.1893
  0
LINE
  8
0
 10
54.0151
 20
-68.1893
 11
53.9461
 21
-68.1809
  0
LINE
  8
0
 10
53.9461
 20
-68.1809
 11
53.8794
 21
-68.1668
  0
LINE
  8
0
 10
53.8794
 20
-68.1668
 11
53.8153
 21
-68.1471
  0
LINE
  8
0
 10
53.8153
 20
-68.1471
 11
53.7535
 21
-68.1217
  0
LINE
  8
0
 10
53.7535
 20
-68.1217
 11
53.6943
 21
-68.0907
  0
LINE
  8
0
 10
53.6943
 20
-68.0907
 11
53.6375
 21
-68.0541
  0
LINE
  8
0
 10
53.6375
 20
-68.0541
 11
53.5831
 21
-68.0118
  0
LINE
  8
0
 10
53.5831
 20
-68.0118
 11
53.5312
 21
-67.9639
  0
LINE
  8
0
 10
53.5312
 20
-67.9639
 11
53.5096
 21
-67.9418
  0
LINE
  8
0
 10
53.5096
 20
-67.9418
 11
53.489
 21
-67.9194
  0
LINE
  8
0
 10
53.489
 20
-67.9194
 11
53.4694
 21
-67.8967
  0
LINE
  8
0
 10
53.4694
 20
-67.8967
 11
53.4508
 21
-67.8738
  0
LINE
  8
0
 10
53.4508
 20
-67.8738
 11
53.4332
 21
-67.8507
  0
LINE
  8
0
 10
53.4332
 20
-67.8507
 11
53.4165
 21
-67.8273
  0
LINE
  8
0
 10
53.4165
 20
-67.8273
 11
53.4008
 21
-67.8036
  0
LINE
  8
0
 10
53.4008
 20
-67.8036
 11
53.3861
 21
-67.7798
  0
LINE
  8
0
 10
53.3861
 20
-67.7798
 11
53.3724
 21
-67.7556
  0
LINE
  8
0
 10
53.3724
 20
-67.7556
 11
50.6839
 21
-61.9421
  0
LINE
  8
0
 10
50.6839
 20
-61.9421
 11
50.6631
 21
-61.902
  0
LINE
  8
0
 10
50.6631
 20
-61.902
 11
50.6447
 21
-61.8608
  0
LINE
  8
0
 10
50.6447
 20
-61.8608
 11
50.6288
 21
-61.8187
  0
LINE
  8
0
 10
50.6288
 20
-61.8187
 11
50.6153
 21
-61.7756
  0
LINE
  8
0
 10
50.6153
 20
-61.7756
 11
50.6043
 21
-61.7315
  0
LINE
  8
0
 10
50.6043
 20
-61.7315
 11
50.5957
 21
-61.6864
  0
LINE
  8
0
 10
50.5957
 20
-61.6864
 11
50.5896
 21
-61.6404
  0
LINE
  8
0
 10
50.5896
 20
-61.6404
 11
50.5859
 21
-61.5933
  0
LINE
  8
0
 10
50.5859
 20
-61.5933
 11
50.5847
 21
-61.5453
  0
LINE
  8
0
 10
50.5847
 20
-61.5453
 11
50.5859
 21
-61.4973
  0
LINE
  8
0
 10
50.5859
 20
-61.4973
 11
50.5896
 21
-61.4503
  0
LINE
  8
0
 10
50.5896
 20
-61.4503
 11
50.5957
 21
-61.4042
  0
LINE
  8
0
 10
50.5957
 20
-61.4042
 11
50.6043
 21
-61.3592
  0
LINE
  8
0
 10
50.6043
 20
-61.3592
 11
50.6153
 21
-61.3151
  0
LINE
  8
0
 10
50.6153
 20
-61.3151
 11
50.6288
 21
-61.272
  0
LINE
  8
0
 10
50.6288
 20
-61.272
 11
50.6447
 21
-61.2298
  0
LINE
  8
0
 10
50.6447
 20
-61.2298
 11
50.6631
 21
-61.1887
  0
LINE
  8
0
 10
50.6631
 20
-61.1887
 11
50.6839
 21
-61.1485
  0
LINE
  8
0
 10
50.6839
 20
-61.1485
 11
53.3724
 21
-55.1365
  0
LINE
  8
0
 10
53.3724
 20
-55.1365
 11
53.3861
 21
-55.1124
  0
LINE
  8
0
 10
53.3861
 20
-55.1124
 11
53.4008
 21
-55.0885
  0
LINE
  8
0
 10
53.4008
 20
-55.0885
 11
53.4165
 21
-55.0649
  0
LINE
  8
0
 10
53.4165
 20
-55.0649
 11
53.4332
 21
-55.0415
  0
LINE
  8
0
 10
53.4332
 20
-55.0415
 11
53.4508
 21
-55.0184
  0
LINE
  8
0
 10
53.4508
 20
-55.0184
 11
53.4694
 21
-54.9955
  0
LINE
  8
0
 10
53.4694
 20
-54.9955
 11
53.489
 21
-54.9728
  0
LINE
  8
0
 10
53.489
 20
-54.9728
 11
53.5096
 21
-54.9504
  0
LINE
  8
0
 10
53.5096
 20
-54.9504
 11
53.5312
 21
-54.9283
  0
LINE
  8
0
 10
53.5312
 20
-54.9283
 11
53.5831
 21
-54.8804
  0
LINE
  8
0
 10
53.5831
 20
-54.8804
 11
53.6375
 21
-54.8381
  0
LINE
  8
0
 10
53.6375
 20
-54.8381
 11
53.6943
 21
-54.8015
  0
LINE
  8
0
 10
53.6943
 20
-54.8015
 11
53.7535
 21
-54.7705
  0
LINE
  8
0
 10
53.7535
 20
-54.7705
 11
53.8153
 21
-54.7451
  0
LINE
  8
0
 10
53.8153
 20
-54.7451
 11
53.8794
 21
-54.7254
  0
LINE
  8
0
 10
53.8794
 20
-54.7254
 11
53.9461
 21
-54.7113
  0
LINE
  8
0
 10
53.9461
 20
-54.7113
 11
54.0151
 21
-54.7029
  0
LINE
  8
0
 10
54.0151
 20
-54.7029
 11
54.0867
 21
-54.7001
  0
LINE
  8
0
 10
54.0867
 20
-54.7001
 11
54.1581
 21
-54.7029
  0
LINE
  8
0
 10
54.1581
 20
-54.7029
 11
54.227
 21
-54.7113
  0
LINE
  8
0
 10
54.227
 20
-54.7113
 11
54.2934
 21
-54.7254
  0
LINE
  8
0
 10
54.2934
 20
-54.7254
 11
54.3571
 21
-54.7451
  0
LINE
  8
0
 10
54.3571
 20
-54.7451
 11
54.4183
 21
-54.7705
  0
LINE
  8
0
 10
54.4183
 20
-54.7705
 11
54.4769
 21
-54.8015
  0
LINE
  8
0
 10
54.4769
 20
-54.8015
 11
54.5329
 21
-54.8381
  0
LINE
  8
0
 10
54.5329
 20
-54.8381
 11
54.5864
 21
-54.8804
  0
LINE
  8
0
 10
54.5864
 20
-54.8804
 11
54.6373
 21
-54.9283
  0
LINE
  8
0
 10
54.6373
 20
-54.9283
 11
54.6841
 21
-54.9802
  0
LINE
  8
0
 10
54.6841
 20
-54.9802
 11
54.7254
 21
-55.0346
  0
LINE
  8
0
 10
54.7254
 20
-55.0346
 11
54.7613
 21
-55.0914
  0
LINE
  8
0
 10
54.7613
 20
-55.0914
 11
54.7916
 21
-55.1507
  0
LINE
  8
0
 10
54.7916
 20
-55.1507
 11
54.8164
 21
-55.2124
  0
LINE
  8
0
 10
54.8164
 20
-55.2124
 11
54.8357
 21
-55.2766
  0
LINE
  8
0
 10
54.8357
 20
-55.2766
 11
54.8495
 21
-55.3432
  0
LINE
  8
0
 10
54.8495
 20
-55.3432
 11
54.8577
 21
-55.4123
  0
LINE
  8
0
 10
54.8577
 20
-55.4123
 11
54.8605
 21
-55.4838
  0
LINE
  8
0
 10
54.8605
 20
-55.4838
 11
54.8593
 21
-55.5361
  0
LINE
  8
0
 10
54.8593
 20
-55.5361
 11
54.8556
 21
-55.5872
  0
LINE
  8
0
 10
54.8556
 20
-55.5872
 11
54.8495
 21
-55.6371
  0
LINE
  8
0
 10
54.8495
 20
-55.6371
 11
54.8409
 21
-55.6857
  0
LINE
  8
0
 10
54.8409
 20
-55.6857
 11
54.8298
 21
-55.7331
  0
LINE
  8
0
 10
54.8298
 20
-55.7331
 11
54.8164
 21
-55.7793
  0
LINE
  8
0
 10
54.8164
 20
-55.7793
 11
54.8005
 21
-55.8242
  0
LINE
  8
0
 10
54.8005
 20
-55.8242
 11
54.7821
 21
-55.8679
  0
LINE
  8
0
 10
54.7821
 20
-55.8679
 11
54.7613
 21
-55.9104
  0
LINE
  8
0
 10
54.7613
 20
-55.9104
 11
52.2514
 21
-61.5453
  0
LINE
  8
0
 10
52.2514
 20
-61.5453
 11
54.7613
 21
-66.9719
  0
LINE
  8
0
 10
54.7613
 20
-66.9719
 11
54.7821
 21
-67.0165
  0
LINE
  8
0
 10
54.7821
 20
-67.0165
 11
54.8005
 21
-67.0621
  0
LINE
  8
0
 10
54.8005
 20
-67.0621
 11
54.8164
 21
-67.1086
  0
LINE
  8
0
 10
54.8164
 20
-67.1086
 11
54.8298
 21
-67.1561
  0
LINE
  8
0
 10
54.8298
 20
-67.1561
 11
54.8409
 21
-67.2046
  0
LINE
  8
0
 10
54.8409
 20
-67.2046
 11
54.8495
 21
-67.2541
  0
LINE
  8
0
 10
54.8495
 20
-67.2541
 11
54.8556
 21
-67.3046
  0
LINE
  8
0
 10
54.8556
 20
-67.3046
 11
54.8593
 21
-67.356
  0
LINE
  8
0
 10
54.8593
 20
-67.356
 11
54.8605
 21
-67.4084
  0
LINE
  8
0
 10
54.8605
 20
-67.4084
 11
54.8577
 21
-67.48
  0
LINE
  8
0
 10
54.8577
 20
-67.48
 11
54.8495
 21
-67.5491
  0
LINE
  8
0
 10
54.8495
 20
-67.5491
 11
54.8357
 21
-67.6157
  0
LINE
  8
0
 10
54.8357
 20
-67.6157
 11
54.8164
 21
-67.6799
  0
LINE
  8
0
 10
54.8164
 20
-67.6799
 11
54.7916
 21
-67.7416
  0
LINE
  8
0
 10
54.7916
 20
-67.7416
 11
54.7613
 21
-67.8009
  0
LINE
  8
0
 10
54.7613
 20
-67.8009
 11
54.7254
 21
-67.8577
  0
LINE
  8
0
 10
54.7254
 20
-67.8577
 11
54.6841
 21
-67.9121
  0
LINE
  8
0
 10
54.6841
 20
-67.9121
 11
54.6373
 21
-67.964
  0
LINE
  8
0
 10
54.6373
 20
-67.964
 11
54.5864
 21
-68.0119
  0
LINE
  8
0
 10
54.5864
 20
-68.0119
 11
54.5329
 21
-68.0542
  0
LINE
  8
0
 10
54.5329
 20
-68.0542
 11
54.4769
 21
-68.0908
  0
LINE
  8
0
 10
54.4769
 20
-68.0908
 11
54.4183
 21
-68.1217
  0
LINE
  8
0
 10
54.4183
 20
-68.1217
 11
54.3571
 21
-68.1471
  0
LINE
  8
0
 10
54.3571
 20
-68.1471
 11
54.2934
 21
-68.1668
  0
LINE
  8
0
 10
54.2934
 20
-68.1668
 11
54.227
 21
-68.1809
  0
LINE
  8
0
 10
54.227
 20
-68.1809
 11
54.1581
 21
-68.1893
  0
LINE
  8
0
 10
54.1581
 20
-68.1893
 11
54.0867
 21
-68.1921
  0
LINE
  8
0
 10
54.0867
 20
-68.1921
 11
54.0151
 21
-68.1893
  0
LINE
  8
0
 10
56.7287
 20
-62.2397
 11
56.6571
 21
-62.2369
  0
LINE
  8
0
 10
56.6571
 20
-62.2369
 11
56.5878
 21
-62.2282
  0
LINE
  8
0
 10
56.5878
 20
-62.2282
 11
56.5209
 21
-62.2138
  0
LINE
  8
0
 10
56.5209
 20
-62.2138
 11
56.4563
 21
-62.1937
  0
LINE
  8
0
 10
56.4563
 20
-62.1937
 11
56.394
 21
-62.1678
  0
LINE
  8
0
 10
56.394
 20
-62.1678
 11
56.334
 21
-62.1361
  0
LINE
  8
0
 10
56.334
 20
-62.1361
 11
56.2764
 21
-62.0987
  0
LINE
  8
0
 10
56.2764
 20
-62.0987
 11
56.2211
 21
-62.0556
  0
LINE
  8
0
 10
56.2211
 20
-62.0556
 11
56.1681
 21
-62.0066
  0
LINE
  8
0
 10
56.1681
 20
-62.0066
 11
56.1191
 21
-61.9537
  0
LINE
  8
0
 10
56.1191
 20
-61.9537
 11
56.076
 21
-61.8984
  0
LINE
  8
0
 10
56.076
 20
-61.8984
 11
56.0386
 21
-61.8408
  0
LINE
  8
0
 10
56.0386
 20
-61.8408
 11
56.0069
 21
-61.7808
  0
LINE
  8
0
 10
56.0069
 20
-61.7808
 11
55.981
 21
-61.7185
  0
LINE
  8
0
 10
55.981
 20
-61.7185
 11
55.9609
 21
-61.6539
  0
LINE
  8
0
 10
55.9609
 20
-61.6539
 11
55.9465
 21
-61.587
  0
LINE
  8
0
 10
55.9465
 20
-61.587
 11
55.9378
 21
-61.5177
  0
LINE
  8
0
 10
55.9378
 20
-61.5177
 11
55.935
 21
-61.4461
  0
LINE
  8
0
 10
55.935
 20
-61.4461
 11
55.9378
 21
-61.3746
  0
LINE
  8
0
 10
55.9378
 20
-61.3746
 11
55.9465
 21
-61.3053
  0
LINE
  8
0
 10
55.9465
 20
-61.3053
 11
55.9609
 21
-61.2384
  0
LINE
  8
0
 10
55.9609
 20
-61.2384
 11
55.981
 21
-61.1738
  0
LINE
  8
0
 10
55.981
 20
-61.1738
 11
56.0069
 21
-61.1115
  0
LINE
  8
0
 10
56.0069
 20
-61.1115
 11
56.0386
 21
-61.0515
  0
LINE
  8
0
 10
56.0386
 20
-61.0515
 11
56.076
 21
-60.9939
  0
LINE
  8
0
 10
56.076
 20
-60.9939
 11
56.1191
 21
-60.9386
  0
LINE
  8
0
 10
56.1191
 20
-60.9386
 11
56.1681
 21
-60.8856
  0
LINE
  8
0
 10
56.1681
 20
-60.8856
 11
56.2211
 21
-60.8367
  0
LINE
  8
0
 10
56.2211
 20
-60.8367
 11
56.2764
 21
-60.7935
  0
LINE
  8
0
 10
56.2764
 20
-60.7935
 11
56.334
 21
-60.7561
  0
LINE
  8
0
 10
56.334
 20
-60.7561
 11
56.394
 21
-60.7244
  0
LINE
  8
0
 10
56.394
 20
-60.7244
 11
56.4563
 21
-60.6985
  0
LINE
  8
0
 10
56.4563
 20
-60.6985
 11
56.5209
 21
-60.6784
  0
LINE
  8
0
 10
56.5209
 20
-60.6784
 11
56.5878
 21
-60.664
  0
LINE
  8
0
 10
56.5878
 20
-60.664
 11
56.6571
 21
-60.6553
  0
LINE
  8
0
 10
56.6571
 20
-60.6553
 11
56.7287
 21
-60.6524
  0
LINE
  8
0
 10
56.7287
 20
-60.6524
 11
59.1196
 21
-60.6524
  0
LINE
  8
0
 10
59.1196
 20
-60.6524
 11
59.1911
 21
-60.6553
  0
LINE
  8
0
 10
59.1911
 20
-60.6553
 11
59.2604
 21
-60.664
  0
LINE
  8
0
 10
59.2604
 20
-60.664
 11
59.3273
 21
-60.6784
  0
LINE
  8
0
 10
59.3273
 20
-60.6784
 11
59.3919
 21
-60.6985
  0
LINE
  8
0
 10
59.3919
 20
-60.6985
 11
59.4541
 21
-60.7244
  0
LINE
  8
0
 10
59.4541
 20
-60.7244
 11
59.5141
 21
-60.7561
  0
LINE
  8
0
 10
59.5141
 20
-60.7561
 11
59.5717
 21
-60.7935
  0
LINE
  8
0
 10
59.5717
 20
-60.7935
 11
59.627
 21
-60.8367
  0
LINE
  8
0
 10
59.627
 20
-60.8367
 11
59.68
 21
-60.8856
  0
LINE
  8
0
 10
59.68
 20
-60.8856
 11
59.7289
 21
-60.9386
  0
LINE
  8
0
 10
59.7289
 20
-60.9386
 11
59.7721
 21
-60.9939
  0
LINE
  8
0
 10
59.7721
 20
-60.9939
 11
59.8095
 21
-61.0515
  0
LINE
  8
0
 10
59.8095
 20
-61.0515
 11
59.8412
 21
-61.1115
  0
LINE
  8
0
 10
59.8412
 20
-61.1115
 11
59.8671
 21
-61.1738
  0
LINE
  8
0
 10
59.8671
 20
-61.1738
 11
59.8873
 21
-61.2384
  0
LINE
  8
0
 10
59.8873
 20
-61.2384
 11
59.9016
 21
-61.3053
  0
LINE
  8
0
 10
59.9016
 20
-61.3053
 11
59.9103
 21
-61.3746
  0
LINE
  8
0
 10
59.9103
 20
-61.3746
 11
59.9132
 21
-61.4461
  0
LINE
  8
0
 10
59.9132
 20
-61.4461
 11
59.9103
 21
-61.5177
  0
LINE
  8
0
 10
59.9103
 20
-61.5177
 11
59.9016
 21
-61.587
  0
LINE
  8
0
 10
59.9016
 20
-61.587
 11
59.8873
 21
-61.6539
  0
LINE
  8
0
 10
59.8873
 20
-61.6539
 11
59.8671
 21
-61.7185
  0
LINE
  8
0
 10
59.8671
 20
-61.7185
 11
59.8412
 21
-61.7808
  0
LINE
  8
0
 10
59.8412
 20
-61.7808
 11
59.8095
 21
-61.8408
  0
LINE
  8
0
 10
59.8095
 20
-61.8408
 11
59.7721
 21
-61.8984
  0
LINE
  8
0
 10
59.7721
 20
-61.8984
 11
59.7289
 21
-61.9537
  0
LINE
  8
0
 10
59.7289
 20
-61.9537
 11
59.68
 21
-62.0066
  0
LINE
  8
0
 10
59.68
 20
-62.0066
 11
59.627
 21
-62.0556
  0
LINE
  8
0
 10
59.627
 20
-62.0556
 11
59.5717
 21
-62.0987
  0
LINE
  8
0
 10
59.5717
 20
-62.0987
 11
59.5141
 21
-62.1361
  0
LINE
  8
0
 10
59.5141
 20
-62.1361
 11
59.4541
 21
-62.1678
  0
LINE
  8
0
 10
59.4541
 20
-62.1678
 11
59.3919
 21
-62.1937
  0
LINE
  8
0
 10
59.3919
 20
-62.1937
 11
59.3273
 21
-62.2138
  0
LINE
  8
0
 10
59.3273
 20
-62.2138
 11
59.2604
 21
-62.2282
  0
LINE
  8
0
 10
59.2604
 20
-62.2282
 11
59.1911
 21
-62.2369
  0
LINE
  8
0
 10
59.1911
 20
-62.2369
 11
59.1196
 21
-62.2397
  0
LINE
  8
0
 10
59.1196
 20
-62.2397
 11
56.7287
 21
-62.2397
  0
LINE
  8
0
 10
149.293
 20
-85.7071
 11
149
 21
-85
  0
LINE
  8
0
 10
149
 20
-85
 11
149.293
 21
-84.2929
  0
LINE
  8
0
 10
149.293
 20
-84.2929
 11
150
 21
-84
  0
LINE
  8
0
 10
150
 20
-84
 11
150.707
 21
-84.2929
  0
LINE
  8
0
 10
150.707
 20
-84.2929
 11
151
 21
-85
  0
LINE
  8
0
 10
151
 20
-85
 11
150.707
 21
-85.7071
  0
LINE
  8
0
 10
150.707
 20
-85.7071
 11
150
 21
-86
  0
LINE
  8
0
 10
150
 20
-86
 11
149.293
 21
-85.7071
  0
LINE
  8
0
 10
165.293
 20
-85.7071
 11
165
 21
-85
  0
LINE
  8
0
 10
165
 20
-85
 11
165.293
 21
-84.2929
  0
LINE
  8
0
 10
165.293
 20
-84.2929
 11
166
 21
-84
  0
LINE
  8
0
 10
166
 20
-84
 11
166.707
 21
-84.2929
  0
LINE
  8
0
 10
166.707
 20
-84.2929
 11
167
 21
-85
  0
LINE
  8
0
 10
167
 20
-85
 11
166.707
 21
-85.7071
  0
LINE
  8
0
 10
166.707
 20
-85.7071
 11
166
 21
-86
  0
LINE
  8
0
 10
166
 20
-86
 11
165.293
 21
-85.7071
  0
LINE
  8
0
 10
29.2929
 20
-90.7071
 11
29
 21
-90
  0
LINE
  8
0
 10
29
 20
-90
 11
29.2929
 21
-89.2929
  0
LINE
  8
0
 10
29.2929
 20
-89.2929
 11
30
 21
-89
  0
LINE
  8
0
 10
30
 20
-89
 11
30.7071
 21
-89.2929
  0
LINE
  8
0
 10
30.7071
 20
-89.2929
 11
31
 21
-90
  0
LINE
  8
0
 10
31
 20
-90
 11
30.7071
 21
-90.7071
  0
LINE
  8
0
 10
30.7071
 20
-90.7071
 11
30
 21
-91
  0
LINE
  8
0
 10
30
 20
-91
 11
29.2929
 21
-90.7071
  0
LINE
  8
0
 10
114.293
 20
-90.7071
 11
114
 21
-90
  0
LINE
  8
0
 10
114
 20
-90
 11
114.293
 21
-89.2929
  0
LINE
  8
0
 10
114.293
 20
-89.2929
 11
115
 21
-89
  0
LINE
  8
0
 10
115
 20
-89
 11
115.707
 21
-89.2929
  0
LINE
  8
0
 10
115.707
 20
-89.2929
 11
116
 21
-90
  0
LINE
  8
0
 10
116
 20
-90
 11
115.707
 21
-90.7071
  0
LINE
  8
0
 10
115.707
 20
-90.7071
 11
115
 21
-91
  0
LINE
  8
0
 10
115
 20
-91
 11
114.293
 21
-90.7071
  0
LINE
  8
0
 10
189.784
 20
-102.189
 11
189.571
 21
-102.158
  0
LINE
  8
0
 10
189.571
 20
-102.158
 11
189.361
 21
-102.105
  0
LINE
  8
0
 10
189.361
 20
-102.105
 11
189.158
 21
-102.033
  0
LINE
  8
0
 10
189.158
 20
-102.033
 11
188.963
 21
-101.94
  0
LINE
  8
0
 10
188.963
 20
-101.94
 11
188.778
 21
-101.829
  0
LINE
  8
0
 10
188.778
 20
-101.829
 11
188.604
 21
-101.701
  0
LINE
  8
0
 10
188.604
 20
-101.701
 11
188.444
 21
-101.556
  0
LINE
  8
0
 10
188.444
 20
-101.556
 11
188.299
 21
-101.396
  0
LINE
  8
0
 10
188.299
 20
-101.396
 11
188.171
 21
-101.222
  0
LINE
  8
0
 10
188.171
 20
-101.222
 11
188.06
 21
-101.037
  0
LINE
  8
0
 10
188.06
 20
-101.037
 11
187.967
 21
-100.842
  0
LINE
  8
0
 10
187.967
 20
-100.842
 11
187.895
 21
-100.639
  0
LINE
  8
0
 10
187.895
 20
-100.639
 11
187.842
 21
-100.429
  0
LINE
  8
0
 10
187.842
 20
-100.429
 11
187.811
 21
-100.216
  0
LINE
  8
0
 10
187.811
 20
-100.216
 11
187.8
 21
-100
  0
LINE
  8
0
 10
187.8
 20
-100
 11
187.811
 21
-99.7843
  0
LINE
  8
0
 10
187.811
 20
-99.7843
 11
187.842
 21
-99.5708
  0
LINE
  8
0
 10
187.842
 20
-99.5708
 11
187.895
 21
-99.3614
  0
LINE
  8
0
 10
187.895
 20
-99.3614
 11
187.967
 21
-99.1581
  0
LINE
  8
0
 10
187.967
 20
-99.1581
 11
188.06
 21
-98.9629
  0
LINE
  8
0
 10
188.06
 20
-98.9629
 11
188.171
 21
-98.7777
  0
LINE
  8
0
 10
188.171
 20
-98.7777
 11
188.299
 21
-98.6043
  0
LINE
  8
0
 10
188.299
 20
-98.6043
 11
188.444
 21
-98.4444
  0
LINE
  8
0
 10
188.444
 20
-98.4444
 11
188.604
 21
-98.2994
  0
LINE
  8
0
 10
188.604
 20
-98.2994
 11
188.778
 21
-98.1708
  0
LINE
  8
0
 10
188.778
 20
-98.1708
 11
188.963
 21
-98.0598
  0
LINE
  8
0
 10
188.963
 20
-98.0598
 11
189.158
 21
-97.9675
  0
LINE
  8
0
 10
189.158
 20
-97.9675
 11
189.361
 21
-97.8947
  0
LINE
  8
0
 10
189.361
 20
-97.8947
 11
189.571
 21
-97.8423
  0
LINE
  8
0
 10
189.571
 20
-97.8423
 11
189.784
 21
-97.8106
  0
LINE
  8
0
 10
189.784
 20
-97.8106
 11
190
 21
-97.8
  0
LINE
  8
0
 10
190
 20
-97.8
 11
190.216
 21
-97.8106
  0
LINE
  8
0
 10
190.216
 20
-97.8106
 11
190.429
 21
-97.8423
  0
LINE
  8
0
 10
190.429
 20
-97.8423
 11
190.639
 21
-97.8947
  0
LINE
  8
0
 10
190.639
 20
-97.8947
 11
190.842
 21
-97.9675
  0
LINE
  8
0
 10
190.842
 20
-97.9675
 11
191.037
 21
-98.0598
  0
LINE
  8
0
 10
191.037
 20
-98.0598
 11
191.222
 21
-98.1708
  0
LINE
  8
0
 10
191.222
 20
-98.1708
 11
191.396
 21
-98.2994
  0
LINE
  8
0
 10
191.396
 20
-98.2994
 11
191.556
 21
-98.4444
  0
LINE
  8
0
 10
191.556
 20
-98.4444
 11
191.701
 21
-98.6043
  0
LINE
  8
0
 10
191.701
 20
-98.6043
 11
191.829
 21
-98.7777
  0
LINE
  8
0
 10
191.829
 20
-98.7777
 11
191.94
 21
-98.9629
  0
LINE
  8
0
 10
191.94
 20
-98.9629
 11
192.033
 21
-99.1581
  0
LINE
  8
0
 10
192.033
 20
-99.1581
 11
192.105
 21
-99.3614
  0
LINE
  8
0
 10
192.105
 20
-99.3614
 11
192.158
 21
-99.5708
  0
LINE
  8
0
 10
192.158
 20
-99.5708
 11
192.189
 21
-99.7843
  0
LINE
  8
0
 10
192.189
 20
-99.7843
 11
192.2
 21
-100
  0
LINE
  8
0
 10
192.2
 20
-100
 11
192.189
 21
-100.216
  0
LINE
  8
0
 10
192.189
 20
-100.216
 11
192.158
 21
-100.429
  0
LINE
  8
0
 10
192.158
 20
-100.429
 11
192.105
 21
-100.639
  0
LINE
  8
0
 10
192.105
 20
-100.639
 11
192.033
 21
-100.842
  0
LINE
  8
0
 10
192.033
 20
-100.842
 11
191.94
 21
-101.037
  0
LINE
  8
0
 10
191.94
 20
-101.037
 11
191.829
 21
-101.222
  0
LINE
  8
0
 10
191.829
 20
-101.222
 11
191.701
 21
-101.396
  0
LINE
  8
0
 10
191.701
 20
-101.396
 11
191.556
 21
-101.556
  0
LINE
  8
0
 10
191.556
 20
-101.556
 11
191.396
 21
-101.701
  0
LINE
  8
0
 10
191.396
 20
-101.701
 11
191.222
 21
-101.829
  0
LINE
  8
0
 10
191.222
 20
-101.829
 11
191.037
 21
-101.94
  0
LINE
  8
0
 10
191.037
 20
-101.94
 11
190.842
 21
-102.033
  0
LINE
  8
0
 10
190.842
 20
-102.033
 11
190.639
 21
-102.105
  0
LINE
  8
0
 10
190.639
 20
-102.105
 11
190.429
 21
-102.158
  0
LINE
  8
0
 10
190.429
 20
-102.158
 11
190.216
 21
-102.189
  0
LINE
  8
0
 10
190.216
 20
-102.189
 11
190
 21
-102.2
  0
LINE
  8
0
 10
190
 20
-102.2
 11
189.784
 21
-102.189
  0
LINE
  8
0
 10
9.78435
 20
-102.189
 11
9.5708
 21
-102.158
  0
LINE
  8
0
 10
9.5708
 20
-102.158
 11
9.36136
 21
-102.105
  0
LINE
  8
0
 10
9.36136
 20
-102.105
 11
9.1581
 21
-102.033
  0
LINE
  8
0
 10
9.1581
 20
-102.033
 11
8.96292
 21
-101.94
  0
LINE
  8
0
 10
8.96292
 20
-101.94
 11
8.77774
 21
-101.829
  0
LINE
  8
0
 10
8.77774
 20
-101.829
 11
8.60432
 21
-101.701
  0
LINE
  8
0
 10
8.60432
 20
-101.701
 11
8.44435
 21
-101.556
  0
LINE
  8
0
 10
8.44435
 20
-101.556
 11
8.29936
 21
-101.396
  0
LINE
  8
0
 10
8.29936
 20
-101.396
 11
8.17076
 21
-101.222
  0
LINE
  8
0
 10
8.17076
 20
-101.222
 11
8.05977
 21
-101.037
  0
LINE
  8
0
 10
8.05977
 20
-101.037
 11
7.96745
 21
-100.842
  0
LINE
  8
0
 10
7.96745
 20
-100.842
 11
7.89473
 21
-100.639
  0
LINE
  8
0
 10
7.89473
 20
-100.639
 11
7.84227
 21
-100.429
  0
LINE
  8
0
 10
7.84227
 20
-100.429
 11
7.81059
 21
-100.216
  0
LINE
  8
0
 10
7.81059
 20
-100.216
 11
7.79999
 21
-100
  0
LINE
  8
0
 10
7.79999
 20
-100
 11
7.81059
 21
-99.7843
  0
LINE
  8
0
 10
7.81059
 20
-99.7843
 11
7.84227
 21
-99.5708
  0
LINE
  8
0
 10
7.84227
 20
-99.5708
 11
7.89473
 21
-99.3614
  0
LINE
  8
0
 10
7.89473
 20
-99.3614
 11
7.96745
 21
-99.1581
  0
LINE
  8
0
 10
7.96745
 20
-99.1581
 11
8.05977
 21
-98.9629
  0
LINE
  8
0
 10
8.05977
 20
-98.9629
 11
8.17076
 21
-98.7777
  0
LINE
  8
0
 10
8.17076
 20
-98.7777
 11
8.29936
 21
-98.6043
  0
LINE
  8
0
 10
8.29936
 20
-98.6043
 11
8.44435
 21
-98.4444
  0
LINE
  8
0
 10
8.44435
 20
-98.4444
 11
8.60432
 21
-98.2994
  0
LINE
  8
0
 10
8.60432
 20
-98.2994
 11
8.77774
 21
-98.1708
  0
LINE
  8
0
 10
8.77774
 20
-98.1708
 11
8.96292
 21
-98.0598
  0
LINE
  8
0
 10
8.96292
 20
-98.0598
 11
9.1581
 21
-97.9675
  0
LINE
  8
0
 10
9.1581
 20
-97.9675
 11
9.36136
 21
-97.8947
  0
LINE
  8
0
 10
9.36136
 20
-97.8947
 11
9.5708
 21
-97.8423
  0
LINE
  8
0
 10
9.5708
 20
-97.8423
 11
9.78435
 21
-97.8106
  0
LINE
  8
0
 10
9.78435
 20
-97.8106
 11
10
 21
-97.8
  0
LINE
  8
0
 10
10
 20
-97.8
 11
10.2156
 21
-97.8106
  0
LINE
  8
0
 10
10.2156
 20
-97.8106
 11
10.4292
 21
-97.8423
  0
LINE
  8
0
 10
10.4292
 20
-97.8423
 11
10.6386
 21
-97.8947
  0
LINE
  8
0
 10
10.6386
 20
-97.8947
 11
10.8419
 21
-97.9675
  0
LINE
  8
0
 10
10.8419
 20
-97.9675
 11
11.0371
 21
-98.0598
  0
LINE
  8
0
 10
11.0371
 20
-98.0598
 11
11.2222
 21
-98.1708
  0
LINE
  8
0
 10
11.2222
 20
-98.1708
 11
11.3957
 21
-98.2994
  0
LINE
  8
0
 10
11.3957
 20
-98.2994
 11
11.5556
 21
-98.4444
  0
LINE
  8
0
 10
11.5556
 20
-98.4444
 11
11.7006
 21
-98.6043
  0
LINE
  8
0
 10
11.7006
 20
-98.6043
 11
11.8292
 21
-98.7777
  0
LINE
  8
0
 10
11.8292
 20
-98.7777
 11
11.9402
 21
-98.9629
  0
LINE
  8
0
 10
11.9402
 20
-98.9629
 11
12.0325
 21
-99.1581
  0
LINE
  8
0
 10
12.0325
 20
-99.1581
 11
12.1053
 21
-99.3614
  0
LINE
  8
0
 10
12.1053
 20
-99.3614
 11
12.1577
 21
-99.5708
  0
LINE
  8
0
 10
12.1577
 20
-99.5708
 11
12.1894
 21
-99.7843
  0
LINE
  8
0
 10
12.1894
 20
-99.7843
 11
12.2
 21
-100
  0
LINE
  8
0
 10
12.2
 20
-100
 11
12.1894
 21
-100.216
  0
LINE
  8
0
 10
12.1894
 20
-100.216
 11
12.1577
 21
-100.429
  0
LINE
  8
0
 10
12.1577
 20
-100.429
 11
12.1053
 21
-100.639
  0
LINE
  8
0
 10
12.1053
 20
-100.639
 11
12.0325
 21
-100.842
  0
LINE
  8
0
 10
12.0325
 20
-100.842
 11
11.9402
 21
-101.037
  0
LINE
  8
0
 10
11.9402
 20
-101.037
 11
11.8292
 21
-101.222
  0
LINE
  8
0
 10
11.8292
 20
-101.222
 11
11.7006
 21
-101.396
  0
LINE
  8
0
 10
11.7006
 20
-101.396
 11
11.5556
 21
-101.556
  0
LINE
  8
0
 10
11.5556
 20
-101.556
 11
11.3957
 21
-101.701
  0
LINE
  8
0
 10
11.3957
 20
-101.701
 11
11.2222
 21
-101.829
  0
LINE
  8
0
 10
11.2222
 20
-101.829
 11
11.0371
 21
-101.94
  0
LINE
  8
0
 10
11.0371
 20
-101.94
 11
10.8419
 21
-102.033
  0
LINE
  8
0
 10
10.8419
 20
-102.033
 11
10.6386
 21
-102.105
  0
LINE
  8
0
 10
10.6386
 20
-102.105
 11
10.4292
 21
-102.158
  0
LINE
  8
0
 10
10.4292
 20
-102.158
 11
10.2156
 21
-102.189
  0
LINE
  8
0
 10
10.2156
 20
-102.189
 11
10
 21
-102.2
  0
LINE
  8
0
 10
10
 20
-102.2
 11
9.78435
 21
-102.189
  0
LINE
  8
0
 10
114.293
 20
-155.707
 11
114
 21
-155
  0
LINE
  8
0
 10
114
 20
-155
 11
114.293
 21
-154.293
  0
LINE
  8
0
 10
114.293
 20
-154.293
 11
115
 21
-154
  0
LINE
  8
0
 10
115
 20
-154
 11
115.707
 21
-154.293
  0
LINE
  8
0
 10
115.707
 20
-154.293
 11
116
 21
-155
  0
LINE
  8
0
 10
116
 20
-155
 11
115.707
 21
-155.707
  0
LINE
  8
0
 10
115.707
 20
-155.707
 11
115
 21
-156
  0
LINE
  8
0
 10
115
 20
-156
 11
114.293
 21
-155.707
  0
LINE
  8
0
 10
29.2929
 20
-155.707
 11
29
 21
-155
  0
LINE
  8
0
 10
29
 20
-155
 11
29.2929
 21
-154.293
  0
LINE
  8
0
 10
29.2929
 20
-154.293
 11
30
 21
-154
  0
LINE
  8
0
 10
30
 20
-154
 11
30.7071
 21
-154.293
  0
LINE
  8
0
 10
30.7071
 20
-154.293
 11
31
 21
-155
  0
LINE
  8
0
 10
31
 20
-155
 11
30.7071
 21
-155.707
  0
LINE
  8
0
 10
30.7071
 20
-155.707
 11
30
 21
-156
  0
LINE
  8
0
 10
30
 20
-156
 11
29.2929
 21
-155.707
  0
LINE
  8
0
 10
165.293
 20
-161.207
 11
165
 21
-160.5
  0
LINE
  8
0
 10
165
 20
-160.5
 11
165.293
 21
-159.793
  0
LINE
  8
0
 10
165.293
 20
-159.793
 11
166
 21
-159.5
  0
LINE
  8
0
 10
166
 20
-159.5
 11
166.707
 21
-159.793
  0
LINE
  8
0
 10
166.707
 20
-159.793
 11
167
 21
-160.5
  0
LINE
  8
0
 10
167
 20
-160.5
 11
166.707
 21
-161.207
  0
LINE
  8
0
 10
166.707
 20
-161.207
 11
166
 21
-161.5
  0
LINE
  8
0
 10
166
 20
-161.5
 11
165.293
 21
-161.207
  0
LINE
  8
0
 10
149.293
 20
-161.207
 11
149
 21
-160.5
  0
LINE
  8
0
 10
149
 20
-160.5
 11
149.293
 21
-159.793
  0
LINE
  8
0
 10
149.293
 20
-159.793
 11
150
 21
-159.5
  0
LINE
  8
0
 10
150
 20
-159.5
 11
150.707
 21
-159.793
  0
LINE
  8
0
 10
150.707
 20
-159.793
 11
151
 21
-160.5
  0
LINE
  8
0
 10
151
 20
-160.5
 11
150.707
 21
-161.207
  0
LINE
  8
0
 10
150.707
 20
-161.207
 11
150
 21
-161.5
  0
LINE
  8
0
 10
150
 20
-161.5
 11
149.293
 21
-161.207
  0
LINE
  8
0
 10
30
 20
-186
 11
29.4119
 21
-185.971
  0
LINE
  8
0
 10
29.4119
 20
-185.971
 11
28.8295
 21
-185.885
  0
LINE
  8
0
 10
28.8295
 20
-185.885
 11
28.2583
 21
-185.742
  0
LINE
  8
0
 10
28.2583
 20
-185.742
 11
27.7039
 21
-185.543
  0
LINE
  8
0
 10
27.7039
 20
-185.543
 11
27.1716
 21
-185.292
  0
LINE
  8
0
 10
27.1716
 20
-185.292
 11
26.6666
 21
-184.989
  0
LINE
  8
0
 10
26.6666
 20
-184.989
 11
26.1936
 21
-184.638
  0
LINE
  8
0
 10
26.1936
 20
-184.638
 11
25.7574
 21
-184.243
  0
LINE
  8
0
 10
25.7574
 20
-184.243
 11
25.3619
 21
-183.806
  0
LINE
  8
0
 10
25.3619
 20
-183.806
 11
25.0112
 21
-183.333
  0
LINE
  8
0
 10
25.0112
 20
-183.333
 11
24.7085
 21
-182.828
  0
LINE
  8
0
 10
24.7085
 20
-182.828
 11
24.4567
 21
-182.296
  0
LINE
  8
0
 10
24.4567
 20
-182.296
 11
24.2583
 21
-181.742
  0
LINE
  8
0
 10
24.2583
 20
-181.742
 11
24.1153
 21
-181.171
  0
LINE
  8
0
 10
24.1153
 20
-181.171
 11
24.0289
 21
-180.588
  0
LINE
  8
0
 10
24.0289
 20
-180.588
 11
24
 21
-180
  0
LINE
  8
0
 10
24
 20
-180
 11
24.0289
 21
-179.412
  0
LINE
  8
0
 10
24.0289
 20
-179.412
 11
24.1153
 21
-178.829
  0
LINE
  8
0
 10
24.1153
 20
-178.829
 11
24.2583
 21
-178.258
  0
LINE
  8
0
 10
24.2583
 20
-178.258
 11
24.4567
 21
-177.704
  0
LINE
  8
0
 10
24.4567
 20
-177.704
 11
24.7085
 21
-177.172
  0
LINE
  8
0
 10
24.7085
 20
-177.172
 11
25.0112
 21
-176.667
  0
LINE
  8
0
 10
25.0112
 20
-176.667
 11
25.3619
 21
-176.194
  0
LINE
  8
0
 10
25.3619
 20
-176.194
 11
25.7574
 21
-175.757
  0
LINE
  8
0
 10
25.7574
 20
-175.757
 11
26.1936
 21
-175.362
  0
LINE
  8
0
 10
26.1936
 20
-175.362
 11
26.6666
 21
-175.011
  0
LINE
  8
0
 10
26.6666
 20
-175.011
 11
27.1716
 21
-174.708
  0
LINE
  8
0
 10
27.1716
 20
-174.708
 11
27.7039
 21
-174.457
  0
LINE
  8
0
 10
27.7039
 20
-174.457
 11
28.2583
 21
-174.258
  0
LINE
  8
0
 10
28.2583
 20
-174.258
 11
28.8295
 21
-174.115
  0
LINE
  8
0
 10
28.8295
 20
-174.115
 11
29.4119
 21
-174.029
  0
LINE
  8
0
 10
29.4119
 20
-174.029
 11
30
 21
-174
  0
LINE
  8
0
 10
30
 20
-174
 11
170
 21
-174
  0
LINE
  8
0
 10
170
 20
-174
 11
170.588
 21
-174.029
  0
LINE
  8
0
 10
170.588
 20
-174.029
 11
171.171
 21
-174.115
  0
LINE
  8
0
 10
171.171
 20
-174.115
 11
171.742
 21
-174.258
  0
LINE
  8
0
 10
171.742
 20
-174.258
 11
172.296
 21
-174.457
  0
LINE
  8
0
 10
172.296
 20
-174.457
 11
172.828
 21
-174.708
  0
LINE
  8
0
 10
172.828
 20
-174.708
 11
173.333
 21
-175.011
  0
LINE
  8
0
 10
173.333
 20
-175.011
 11
173.806
 21
-175.362
  0
LINE
  8
0
 10
173.806
 20
-175.362
 11
174.243
 21
-175.757
  0
LINE
  8
0
 10
174.243
 20
-175.757
 11
174.638
 21
-176.194
  0
LINE
  8
0
 10
174.638
 20
-176.194
 11
174.989
 21
-176.667
  0
LINE
  8
0
 10
174.989
 20
-176.667
 11
175.292
 21
-177.172
  0
LINE
  8
0
 10
175.292
 20
-177.172
 11
175.543
 21
-177.704
  0
LINE
  8
0
 10
175.543
 20
-177.704
 11
175.742
 21
-178.258
  0
LINE
  8
0
 10
175.742
 20
-178.258
 11
175.885
 21
-178.829
  0
LINE
  8
0
 10
175.885
 20
-178.829
 11
175.971
 21
-179.412
  0
LINE
  8
0
 10
175.971
 20
-179.412
 11
176
 21
-180
  0
LINE
  8
0
 10
176
 20
-180
 11
175.971
 21
-180.588
  0
LINE
  8
0
 10
175.971
 20
-180.588
 11
175.885
 21
-181.171
  0
LINE
  8
0
 10
175.885
 20
-181.171
 11
175.742
 21
-181.742
  0
LINE
  8
0
 10
175.742
 20
-181.742
 11
175.543
 21
-182.296
  0
LINE
  8
0
 10
175.543
 20
-182.296
 11
175.292
 21
-182.828
  0
LINE
  8
0
 10
175.292
 20
-182.828
 11
174.989
 21
-183.333
  0
LINE
  8
0
 10
174.989
 20
-183.333
 11
174.638
 21
-183.806
  0
LINE
  8
0
 10
174.638
 20
-183.806
 11
174.243
 21
-184.243
  0
LINE
  8
0
 10
174.243
 20
-184.243
 11
173.806
 21
-184.638
  0
LINE
  8
0
 10
173.806
 20
-184.638
 11
173.333
 21
-184.989
  0
LINE
  8
0
 10
173.333
 20
-184.989
 11
172.828
 21
-185.292
  0
LINE
  8
0
 10
172.828
 20
-185.292
 11
172.296
 21
-185.543
  0
LINE
  8
0
 10
172.296
 20
-185.543
 11
171.742
 21
-185.742
  0
LINE
  8
0
 10
171.742
 20
-185.742
 11
171.171
 21
-185.885
  0
LINE
  8
0
 10
171.171
 20
-185.885
 11
170.588
 21
-185.971
  0
LINE
  8
0
 10
170.588
 20
-185.971
 11
170
 21
-186
  0
LINE
  8
0
 10
170
 20
-186
 11
30
 21
-186
  0
ENDSEC
  0
SECTION
  2
OBJECTS
  0
DICTIONARY
  0
ENDSEC
  0
EOF
