  0
SECTION
  2
BLOCKS
  0
ENDSEC
  0
SECTION
  2
ENTITIES
  0
LINE
  8
0
 10
5
 20
435
 11
15
 21
435
  0
LINE
  8
0
 10
15
 20
435
 11
15
 21
585
  0
LINE
  8
0
 10
15
 20
585
 11
5
 21
585
  0
LINE
  8
0
 10
5
 20
585
 11
5
 21
593
  0
LINE
  8
0
 10
5
 20
593
 11
-5
 21
593
  0
LINE
  8
0
 10
-5
 20
593
 11
-5
 21
585
  0
LINE
  8
0
 10
-5
 20
585
 11
-15
 21
585
  0
LINE
  8
0
 10
-15
 20
585
 11
-15
 21
435
  0
LINE
  8
0
 10
-15
 20
435
 11
-5
 21
435
  0
LINE
  8
0
 10
-5
 20
435
 11
-5
 21
427
  0
LINE
  8
0
 10
-5
 20
427
 11
5
 21
427
  0
LINE
  8
0
 10
5
 20
427
 11
5
 21
435
  0
LINE
  8
0
 10
-0.799988
 20
528.614
 11
-1.59999
 21
530
  0
LINE
  8
0
 10
-1.59999
 20
530
 11
-1.59999
 21
570
  0
LINE
  8
0
 10
-1.59999
 20
570
 11
-0.799988
 21
571.386
  0
LINE
  8
0
 10
-0.799988
 20
571.386
 11
0.799988
 21
571.386
  0
LINE
  8
0
 10
0.799988
 20
571.386
 11
1.59999
 21
570
  0
LINE
  8
0
 10
1.59999
 20
570
 11
1.59999
 21
530
  0
LINE
  8
0
 10
1.59999
 20
530
 11
0.799988
 21
528.614
  0
LINE
  8
0
 10
0.799988
 20
528.614
 11
-0.799988
 21
528.614
  0
LINE
  8
0
 10
-0.799988
 20
448.614
 11
-1.59999
 21
450
  0
LINE
  8
0
 10
-1.59999
 20
450
 11
-1.59999
 21
490
  0
LINE
  8
0
 10
-1.59999
 20
490
 11
-0.799988
 21
491.386
  0
LINE
  8
0
 10
-0.799988
 20
491.386
 11
0.799988
 21
491.386
  0
LINE
  8
0
 10
0.799988
 20
491.386
 11
1.59999
 21
490
  0
LINE
  8
0
 10
1.59999
 20
490
 11
1.59999
 21
450
  0
LINE
  8
0
 10
1.59999
 20
450
 11
0.799988
 21
448.614
  0
LINE
  8
0
 10
0.799988
 20
448.614
 11
-0.799988
 21
448.614
  0
LINE
  8
0
 10
137
 20
435
 11
147
 21
435
  0
LINE
  8
0
 10
147
 20
435
 11
147
 21
585
  0
LINE
  8
0
 10
147
 20
585
 11
137
 21
585
  0
LINE
  8
0
 10
137
 20
585
 11
137
 21
593
  0
LINE
  8
0
 10
137
 20
593
 11
127
 21
593
  0
LINE
  8
0
 10
127
 20
593
 11
127
 21
585
  0
LINE
  8
0
 10
127
 20
585
 11
117
 21
585
  0
LINE
  8
0
 10
117
 20
585
 11
117
 21
435
  0
LINE
  8
0
 10
117
 20
435
 11
127
 21
435
  0
LINE
  8
0
 10
127
 20
435
 11
127
 21
427
  0
LINE
  8
0
 10
127
 20
427
 11
137
 21
427
  0
LINE
  8
0
 10
137
 20
427
 11
137
 21
435
  0
LINE
  8
0
 10
131.2
 20
528.614
 11
130.4
 21
530
  0
LINE
  8
0
 10
130.4
 20
530
 11
130.4
 21
570
  0
LINE
  8
0
 10
130.4
 20
570
 11
131.2
 21
571.386
  0
LINE
  8
0
 10
131.2
 20
571.386
 11
132.8
 21
571.386
  0
LINE
  8
0
 10
132.8
 20
571.386
 11
133.6
 21
570
  0
LINE
  8
0
 10
133.6
 20
570
 11
133.6
 21
530
  0
LINE
  8
0
 10
133.6
 20
530
 11
132.8
 21
528.614
  0
LINE
  8
0
 10
132.8
 20
528.614
 11
131.2
 21
528.614
  0
LINE
  8
0
 10
131.2
 20
448.614
 11
130.4
 21
450
  0
LINE
  8
0
 10
130.4
 20
450
 11
130.4
 21
490
  0
LINE
  8
0
 10
130.4
 20
490
 11
131.2
 21
491.386
  0
LINE
  8
0
 10
131.2
 20
491.386
 11
132.8
 21
491.386
  0
LINE
  8
0
 10
132.8
 20
491.386
 11
133.6
 21
490
  0
LINE
  8
0
 10
133.6
 20
490
 11
133.6
 21
450
  0
LINE
  8
0
 10
133.6
 20
450
 11
132.8
 21
448.614
  0
LINE
  8
0
 10
132.8
 20
448.614
 11
131.2
 21
448.614
  0
LINE
  8
0
 10
170
 20
435
 11
180
 21
435
  0
LINE
  8
0
 10
180
 20
435
 11
180
 21
585
  0
LINE
  8
0
 10
180
 20
585
 11
170
 21
585
  0
LINE
  8
0
 10
170
 20
585
 11
170
 21
593
  0
LINE
  8
0
 10
170
 20
593
 11
160
 21
593
  0
LINE
  8
0
 10
160
 20
593
 11
160
 21
585
  0
LINE
  8
0
 10
160
 20
585
 11
150
 21
585
  0
LINE
  8
0
 10
150
 20
585
 11
150
 21
435
  0
LINE
  8
0
 10
150
 20
435
 11
160
 21
435
  0
LINE
  8
0
 10
160
 20
435
 11
160
 21
427
  0
LINE
  8
0
 10
160
 20
427
 11
170
 21
427
  0
LINE
  8
0
 10
170
 20
427
 11
170
 21
435
  0
LINE
  8
0
 10
164.2
 20
528.614
 11
163.4
 21
530
  0
LINE
  8
0
 10
163.4
 20
530
 11
163.4
 21
570
  0
LINE
  8
0
 10
163.4
 20
570
 11
164.2
 21
571.386
  0
LINE
  8
0
 10
164.2
 20
571.386
 11
165.8
 21
571.386
  0
LINE
  8
0
 10
165.8
 20
571.386
 11
166.6
 21
570
  0
LINE
  8
0
 10
166.6
 20
570
 11
166.6
 21
530
  0
LINE
  8
0
 10
166.6
 20
530
 11
165.8
 21
528.614
  0
LINE
  8
0
 10
165.8
 20
528.614
 11
164.2
 21
528.614
  0
LINE
  8
0
 10
164.2
 20
448.614
 11
163.4
 21
450
  0
LINE
  8
0
 10
163.4
 20
450
 11
163.4
 21
490
  0
LINE
  8
0
 10
163.4
 20
490
 11
164.2
 21
491.386
  0
LINE
  8
0
 10
164.2
 20
491.386
 11
165.8
 21
491.386
  0
LINE
  8
0
 10
165.8
 20
491.386
 11
166.6
 21
490
  0
LINE
  8
0
 10
166.6
 20
490
 11
166.6
 21
450
  0
LINE
  8
0
 10
166.6
 20
450
 11
165.8
 21
448.614
  0
LINE
  8
0
 10
165.8
 20
448.614
 11
164.2
 21
448.614
  0
LINE
  8
0
 10
368
 20
435
 11
378
 21
435
  0
LINE
  8
0
 10
378
 20
435
 11
378
 21
585
  0
LINE
  8
0
 10
378
 20
585
 11
368
 21
585
  0
LINE
  8
0
 10
368
 20
585
 11
368
 21
593
  0
LINE
  8
0
 10
368
 20
593
 11
358
 21
593
  0
LINE
  8
0
 10
358
 20
593
 11
358
 21
585
  0
LINE
  8
0
 10
358
 20
585
 11
348
 21
585
  0
LINE
  8
0
 10
348
 20
585
 11
348
 21
435
  0
LINE
  8
0
 10
348
 20
435
 11
358
 21
435
  0
LINE
  8
0
 10
358
 20
435
 11
358
 21
427
  0
LINE
  8
0
 10
358
 20
427
 11
368
 21
427
  0
LINE
  8
0
 10
368
 20
427
 11
368
 21
435
  0
LINE
  8
0
 10
362.2
 20
528.614
 11
361.4
 21
530
  0
LINE
  8
0
 10
361.4
 20
530
 11
361.4
 21
570
  0
LINE
  8
0
 10
361.4
 20
570
 11
362.2
 21
571.386
  0
LINE
  8
0
 10
362.2
 20
571.386
 11
363.8
 21
571.386
  0
LINE
  8
0
 10
363.8
 20
571.386
 11
364.6
 21
570
  0
LINE
  8
0
 10
364.6
 20
570
 11
364.6
 21
530
  0
LINE
  8
0
 10
364.6
 20
530
 11
363.8
 21
528.614
  0
LINE
  8
0
 10
363.8
 20
528.614
 11
362.2
 21
528.614
  0
LINE
  8
0
 10
362.2
 20
448.614
 11
361.4
 21
450
  0
LINE
  8
0
 10
361.4
 20
450
 11
361.4
 21
490
  0
LINE
  8
0
 10
361.4
 20
490
 11
362.2
 21
491.386
  0
LINE
  8
0
 10
362.2
 20
491.386
 11
363.8
 21
491.386
  0
LINE
  8
0
 10
363.8
 20
491.386
 11
364.6
 21
490
  0
LINE
  8
0
 10
364.6
 20
490
 11
364.6
 21
450
  0
LINE
  8
0
 10
364.6
 20
450
 11
363.8
 21
448.614
  0
LINE
  8
0
 10
363.8
 20
448.614
 11
362.2
 21
448.614
  0
LINE
  8
0
 10
104
 20
435
 11
114
 21
435
  0
LINE
  8
0
 10
114
 20
435
 11
114
 21
585
  0
LINE
  8
0
 10
114
 20
585
 11
104
 21
585
  0
LINE
  8
0
 10
104
 20
585
 11
104
 21
593
  0
LINE
  8
0
 10
104
 20
593
 11
94
 21
593
  0
LINE
  8
0
 10
94
 20
593
 11
94
 21
585
  0
LINE
  8
0
 10
94
 20
585
 11
84
 21
585
  0
LINE
  8
0
 10
84
 20
585
 11
84
 21
435
  0
LINE
  8
0
 10
84
 20
435
 11
94
 21
435
  0
LINE
  8
0
 10
94
 20
435
 11
94
 21
427
  0
LINE
  8
0
 10
94
 20
427
 11
104
 21
427
  0
LINE
  8
0
 10
104
 20
427
 11
104
 21
435
  0
LINE
  8
0
 10
98.2
 20
528.614
 11
97.4
 21
530
  0
LINE
  8
0
 10
97.4
 20
530
 11
97.4
 21
570
  0
LINE
  8
0
 10
97.4
 20
570
 11
98.2
 21
571.386
  0
LINE
  8
0
 10
98.2
 20
571.386
 11
99.8
 21
571.386
  0
LINE
  8
0
 10
99.8
 20
571.386
 11
100.6
 21
570
  0
LINE
  8
0
 10
100.6
 20
570
 11
100.6
 21
530
  0
LINE
  8
0
 10
100.6
 20
530
 11
99.8
 21
528.614
  0
LINE
  8
0
 10
99.8
 20
528.614
 11
98.2
 21
528.614
  0
LINE
  8
0
 10
98.2
 20
448.614
 11
97.4
 21
450
  0
LINE
  8
0
 10
97.4
 20
450
 11
97.4
 21
490
  0
LINE
  8
0
 10
97.4
 20
490
 11
98.2
 21
491.386
  0
LINE
  8
0
 10
98.2
 20
491.386
 11
99.8
 21
491.386
  0
LINE
  8
0
 10
99.8
 20
491.386
 11
100.6
 21
490
  0
LINE
  8
0
 10
100.6
 20
490
 11
100.6
 21
450
  0
LINE
  8
0
 10
100.6
 20
450
 11
99.8
 21
448.614
  0
LINE
  8
0
 10
99.8
 20
448.614
 11
98.2
 21
448.614
  0
LINE
  8
0
 10
203
 20
435
 11
213
 21
435
  0
LINE
  8
0
 10
213
 20
435
 11
213
 21
585
  0
LINE
  8
0
 10
213
 20
585
 11
203
 21
585
  0
LINE
  8
0
 10
203
 20
585
 11
203
 21
593
  0
LINE
  8
0
 10
203
 20
593
 11
193
 21
593
  0
LINE
  8
0
 10
193
 20
593
 11
193
 21
585
  0
LINE
  8
0
 10
193
 20
585
 11
183
 21
585
  0
LINE
  8
0
 10
183
 20
585
 11
183
 21
435
  0
LINE
  8
0
 10
183
 20
435
 11
193
 21
435
  0
LINE
  8
0
 10
193
 20
435
 11
193
 21
427
  0
LINE
  8
0
 10
193
 20
427
 11
203
 21
427
  0
LINE
  8
0
 10
203
 20
427
 11
203
 21
435
  0
LINE
  8
0
 10
197.2
 20
528.614
 11
196.4
 21
530
  0
LINE
  8
0
 10
196.4
 20
530
 11
196.4
 21
570
  0
LINE
  8
0
 10
196.4
 20
570
 11
197.2
 21
571.386
  0
LINE
  8
0
 10
197.2
 20
571.386
 11
198.8
 21
571.386
  0
LINE
  8
0
 10
198.8
 20
571.386
 11
199.6
 21
570
  0
LINE
  8
0
 10
199.6
 20
570
 11
199.6
 21
530
  0
LINE
  8
0
 10
199.6
 20
530
 11
198.8
 21
528.614
  0
LINE
  8
0
 10
198.8
 20
528.614
 11
197.2
 21
528.614
  0
LINE
  8
0
 10
197.2
 20
448.614
 11
196.4
 21
450
  0
LINE
  8
0
 10
196.4
 20
450
 11
196.4
 21
490
  0
LINE
  8
0
 10
196.4
 20
490
 11
197.2
 21
491.386
  0
LINE
  8
0
 10
197.2
 20
491.386
 11
198.8
 21
491.386
  0
LINE
  8
0
 10
198.8
 20
491.386
 11
199.6
 21
490
  0
LINE
  8
0
 10
199.6
 20
490
 11
199.6
 21
450
  0
LINE
  8
0
 10
199.6
 20
450
 11
198.8
 21
448.614
  0
LINE
  8
0
 10
198.8
 20
448.614
 11
197.2
 21
448.614
  0
LINE
  8
0
 10
335
 20
435
 11
345
 21
435
  0
LINE
  8
0
 10
345
 20
435
 11
345
 21
585
  0
LINE
  8
0
 10
345
 20
585
 11
335
 21
585
  0
LINE
  8
0
 10
335
 20
585
 11
335
 21
593
  0
LINE
  8
0
 10
335
 20
593
 11
325
 21
593
  0
LINE
  8
0
 10
325
 20
593
 11
325
 21
585
  0
LINE
  8
0
 10
325
 20
585
 11
315
 21
585
  0
LINE
  8
0
 10
315
 20
585
 11
315
 21
435
  0
LINE
  8
0
 10
315
 20
435
 11
325
 21
435
  0
LINE
  8
0
 10
325
 20
435
 11
325
 21
427
  0
LINE
  8
0
 10
325
 20
427
 11
335
 21
427
  0
LINE
  8
0
 10
335
 20
427
 11
335
 21
435
  0
LINE
  8
0
 10
329.2
 20
528.614
 11
328.4
 21
530
  0
LINE
  8
0
 10
328.4
 20
530
 11
328.4
 21
570
  0
LINE
  8
0
 10
328.4
 20
570
 11
329.2
 21
571.386
  0
LINE
  8
0
 10
329.2
 20
571.386
 11
330.8
 21
571.386
  0
LINE
  8
0
 10
330.8
 20
571.386
 11
331.6
 21
570
  0
LINE
  8
0
 10
331.6
 20
570
 11
331.6
 21
530
  0
LINE
  8
0
 10
331.6
 20
530
 11
330.8
 21
528.614
  0
LINE
  8
0
 10
330.8
 20
528.614
 11
329.2
 21
528.614
  0
LINE
  8
0
 10
329.2
 20
448.614
 11
328.4
 21
450
  0
LINE
  8
0
 10
328.4
 20
450
 11
328.4
 21
490
  0
LINE
  8
0
 10
328.4
 20
490
 11
329.2
 21
491.386
  0
LINE
  8
0
 10
329.2
 20
491.386
 11
330.8
 21
491.386
  0
LINE
  8
0
 10
330.8
 20
491.386
 11
331.6
 21
490
  0
LINE
  8
0
 10
331.6
 20
490
 11
331.6
 21
450
  0
LINE
  8
0
 10
331.6
 20
450
 11
330.8
 21
448.614
  0
LINE
  8
0
 10
330.8
 20
448.614
 11
329.2
 21
448.614
  0
LINE
  8
0
 10
236
 20
435
 11
246
 21
435
  0
LINE
  8
0
 10
246
 20
435
 11
246
 21
585
  0
LINE
  8
0
 10
246
 20
585
 11
236
 21
585
  0
LINE
  8
0
 10
236
 20
585
 11
236
 21
593
  0
LINE
  8
0
 10
236
 20
593
 11
226
 21
593
  0
LINE
  8
0
 10
226
 20
593
 11
226
 21
585
  0
LINE
  8
0
 10
226
 20
585
 11
216
 21
585
  0
LINE
  8
0
 10
216
 20
585
 11
216
 21
435
  0
LINE
  8
0
 10
216
 20
435
 11
226
 21
435
  0
LINE
  8
0
 10
226
 20
435
 11
226
 21
427
  0
LINE
  8
0
 10
226
 20
427
 11
236
 21
427
  0
LINE
  8
0
 10
236
 20
427
 11
236
 21
435
  0
LINE
  8
0
 10
230.2
 20
528.614
 11
229.4
 21
530
  0
LINE
  8
0
 10
229.4
 20
530
 11
229.4
 21
570
  0
LINE
  8
0
 10
229.4
 20
570
 11
230.2
 21
571.386
  0
LINE
  8
0
 10
230.2
 20
571.386
 11
231.8
 21
571.386
  0
LINE
  8
0
 10
231.8
 20
571.386
 11
232.6
 21
570
  0
LINE
  8
0
 10
232.6
 20
570
 11
232.6
 21
530
  0
LINE
  8
0
 10
232.6
 20
530
 11
231.8
 21
528.614
  0
LINE
  8
0
 10
231.8
 20
528.614
 11
230.2
 21
528.614
  0
LINE
  8
0
 10
230.2
 20
448.614
 11
229.4
 21
450
  0
LINE
  8
0
 10
229.4
 20
450
 11
229.4
 21
490
  0
LINE
  8
0
 10
229.4
 20
490
 11
230.2
 21
491.386
  0
LINE
  8
0
 10
230.2
 20
491.386
 11
231.8
 21
491.386
  0
LINE
  8
0
 10
231.8
 20
491.386
 11
232.6
 21
490
  0
LINE
  8
0
 10
232.6
 20
490
 11
232.6
 21
450
  0
LINE
  8
0
 10
232.6
 20
450
 11
231.8
 21
448.614
  0
LINE
  8
0
 10
231.8
 20
448.614
 11
230.2
 21
448.614
  0
LINE
  8
0
 10
71
 20
435
 11
81
 21
435
  0
LINE
  8
0
 10
81
 20
435
 11
81
 21
585
  0
LINE
  8
0
 10
81
 20
585
 11
71
 21
585
  0
LINE
  8
0
 10
71
 20
585
 11
71
 21
593
  0
LINE
  8
0
 10
71
 20
593
 11
61
 21
593
  0
LINE
  8
0
 10
61
 20
593
 11
61
 21
585
  0
LINE
  8
0
 10
61
 20
585
 11
51
 21
585
  0
LINE
  8
0
 10
51
 20
585
 11
51
 21
435
  0
LINE
  8
0
 10
51
 20
435
 11
61
 21
435
  0
LINE
  8
0
 10
61
 20
435
 11
61
 21
427
  0
LINE
  8
0
 10
61
 20
427
 11
71
 21
427
  0
LINE
  8
0
 10
71
 20
427
 11
71
 21
435
  0
LINE
  8
0
 10
65.2
 20
528.614
 11
64.4
 21
530
  0
LINE
  8
0
 10
64.4
 20
530
 11
64.4
 21
570
  0
LINE
  8
0
 10
64.4
 20
570
 11
65.2
 21
571.386
  0
LINE
  8
0
 10
65.2
 20
571.386
 11
66.8
 21
571.386
  0
LINE
  8
0
 10
66.8
 20
571.386
 11
67.6
 21
570
  0
LINE
  8
0
 10
67.6
 20
570
 11
67.6
 21
530
  0
LINE
  8
0
 10
67.6
 20
530
 11
66.8
 21
528.614
  0
LINE
  8
0
 10
66.8
 20
528.614
 11
65.2
 21
528.614
  0
LINE
  8
0
 10
65.2
 20
448.614
 11
64.4
 21
450
  0
LINE
  8
0
 10
64.4
 20
450
 11
64.4
 21
490
  0
LINE
  8
0
 10
64.4
 20
490
 11
65.2
 21
491.386
  0
LINE
  8
0
 10
65.2
 20
491.386
 11
66.8
 21
491.386
  0
LINE
  8
0
 10
66.8
 20
491.386
 11
67.6
 21
490
  0
LINE
  8
0
 10
67.6
 20
490
 11
67.6
 21
450
  0
LINE
  8
0
 10
67.6
 20
450
 11
66.8
 21
448.614
  0
LINE
  8
0
 10
66.8
 20
448.614
 11
65.2
 21
448.614
  0
LINE
  8
0
 10
38
 20
435
 11
48
 21
435
  0
LINE
  8
0
 10
48
 20
435
 11
48
 21
585
  0
LINE
  8
0
 10
48
 20
585
 11
38
 21
585
  0
LINE
  8
0
 10
38
 20
585
 11
38
 21
593
  0
LINE
  8
0
 10
38
 20
593
 11
28
 21
593
  0
LINE
  8
0
 10
28
 20
593
 11
28
 21
585
  0
LINE
  8
0
 10
28
 20
585
 11
18
 21
585
  0
LINE
  8
0
 10
18
 20
585
 11
18
 21
435
  0
LINE
  8
0
 10
18
 20
435
 11
28
 21
435
  0
LINE
  8
0
 10
28
 20
435
 11
28
 21
427
  0
LINE
  8
0
 10
28
 20
427
 11
38
 21
427
  0
LINE
  8
0
 10
38
 20
427
 11
38
 21
435
  0
LINE
  8
0
 10
32.2
 20
528.614
 11
31.4
 21
530
  0
LINE
  8
0
 10
31.4
 20
530
 11
31.4
 21
570
  0
LINE
  8
0
 10
31.4
 20
570
 11
32.2
 21
571.386
  0
LINE
  8
0
 10
32.2
 20
571.386
 11
33.8
 21
571.386
  0
LINE
  8
0
 10
33.8
 20
571.386
 11
34.6
 21
570
  0
LINE
  8
0
 10
34.6
 20
570
 11
34.6
 21
530
  0
LINE
  8
0
 10
34.6
 20
530
 11
33.8
 21
528.614
  0
LINE
  8
0
 10
33.8
 20
528.614
 11
32.2
 21
528.614
  0
LINE
  8
0
 10
32.2
 20
448.614
 11
31.4
 21
450
  0
LINE
  8
0
 10
31.4
 20
450
 11
31.4
 21
490
  0
LINE
  8
0
 10
31.4
 20
490
 11
32.2
 21
491.386
  0
LINE
  8
0
 10
32.2
 20
491.386
 11
33.8
 21
491.386
  0
LINE
  8
0
 10
33.8
 20
491.386
 11
34.6
 21
490
  0
LINE
  8
0
 10
34.6
 20
490
 11
34.6
 21
450
  0
LINE
  8
0
 10
34.6
 20
450
 11
33.8
 21
448.614
  0
LINE
  8
0
 10
33.8
 20
448.614
 11
32.2
 21
448.614
  0
LINE
  8
0
 10
269
 20
435
 11
279
 21
435
  0
LINE
  8
0
 10
279
 20
435
 11
279
 21
585
  0
LINE
  8
0
 10
279
 20
585
 11
269
 21
585
  0
LINE
  8
0
 10
269
 20
585
 11
269
 21
593
  0
LINE
  8
0
 10
269
 20
593
 11
259
 21
593
  0
LINE
  8
0
 10
259
 20
593
 11
259
 21
585
  0
LINE
  8
0
 10
259
 20
585
 11
249
 21
585
  0
LINE
  8
0
 10
249
 20
585
 11
249
 21
435
  0
LINE
  8
0
 10
249
 20
435
 11
259
 21
435
  0
LINE
  8
0
 10
259
 20
435
 11
259
 21
427
  0
LINE
  8
0
 10
259
 20
427
 11
269
 21
427
  0
LINE
  8
0
 10
269
 20
427
 11
269
 21
435
  0
LINE
  8
0
 10
263.2
 20
528.614
 11
262.4
 21
530
  0
LINE
  8
0
 10
262.4
 20
530
 11
262.4
 21
570
  0
LINE
  8
0
 10
262.4
 20
570
 11
263.2
 21
571.386
  0
LINE
  8
0
 10
263.2
 20
571.386
 11
264.8
 21
571.386
  0
LINE
  8
0
 10
264.8
 20
571.386
 11
265.6
 21
570
  0
LINE
  8
0
 10
265.6
 20
570
 11
265.6
 21
530
  0
LINE
  8
0
 10
265.6
 20
530
 11
264.8
 21
528.614
  0
LINE
  8
0
 10
264.8
 20
528.614
 11
263.2
 21
528.614
  0
LINE
  8
0
 10
263.2
 20
448.614
 11
262.4
 21
450
  0
LINE
  8
0
 10
262.4
 20
450
 11
262.4
 21
490
  0
LINE
  8
0
 10
262.4
 20
490
 11
263.2
 21
491.386
  0
LINE
  8
0
 10
263.2
 20
491.386
 11
264.8
 21
491.386
  0
LINE
  8
0
 10
264.8
 20
491.386
 11
265.6
 21
490
  0
LINE
  8
0
 10
265.6
 20
490
 11
265.6
 21
450
  0
LINE
  8
0
 10
265.6
 20
450
 11
264.8
 21
448.614
  0
LINE
  8
0
 10
264.8
 20
448.614
 11
263.2
 21
448.614
  0
LINE
  8
0
 10
302
 20
435
 11
312
 21
435
  0
LINE
  8
0
 10
312
 20
435
 11
312
 21
585
  0
LINE
  8
0
 10
312
 20
585
 11
302
 21
585
  0
LINE
  8
0
 10
302
 20
585
 11
302
 21
593
  0
LINE
  8
0
 10
302
 20
593
 11
292
 21
593
  0
LINE
  8
0
 10
292
 20
593
 11
292
 21
585
  0
LINE
  8
0
 10
292
 20
585
 11
282
 21
585
  0
LINE
  8
0
 10
282
 20
585
 11
282
 21
435
  0
LINE
  8
0
 10
282
 20
435
 11
292
 21
435
  0
LINE
  8
0
 10
292
 20
435
 11
292
 21
427
  0
LINE
  8
0
 10
292
 20
427
 11
302
 21
427
  0
LINE
  8
0
 10
302
 20
427
 11
302
 21
435
  0
LINE
  8
0
 10
296.2
 20
528.614
 11
295.4
 21
530
  0
LINE
  8
0
 10
295.4
 20
530
 11
295.4
 21
570
  0
LINE
  8
0
 10
295.4
 20
570
 11
296.2
 21
571.386
  0
LINE
  8
0
 10
296.2
 20
571.386
 11
297.8
 21
571.386
  0
LINE
  8
0
 10
297.8
 20
571.386
 11
298.6
 21
570
  0
LINE
  8
0
 10
298.6
 20
570
 11
298.6
 21
530
  0
LINE
  8
0
 10
298.6
 20
530
 11
297.8
 21
528.614
  0
LINE
  8
0
 10
297.8
 20
528.614
 11
296.2
 21
528.614
  0
LINE
  8
0
 10
296.2
 20
448.614
 11
295.4
 21
450
  0
LINE
  8
0
 10
295.4
 20
450
 11
295.4
 21
490
  0
LINE
  8
0
 10
295.4
 20
490
 11
296.2
 21
491.386
  0
LINE
  8
0
 10
296.2
 20
491.386
 11
297.8
 21
491.386
  0
LINE
  8
0
 10
297.8
 20
491.386
 11
298.6
 21
490
  0
LINE
  8
0
 10
298.6
 20
490
 11
298.6
 21
450
  0
LINE
  8
0
 10
298.6
 20
450
 11
297.8
 21
448.614
  0
LINE
  8
0
 10
297.8
 20
448.614
 11
296.2
 21
448.614
  0
LINE
  8
0
 10
5
 20
265
 11
15
 21
265
  0
LINE
  8
0
 10
15
 20
265
 11
15
 21
415
  0
LINE
  8
0
 10
15
 20
415
 11
5
 21
415
  0
LINE
  8
0
 10
5
 20
415
 11
5
 21
423
  0
LINE
  8
0
 10
5
 20
423
 11
-5
 21
423
  0
LINE
  8
0
 10
-5
 20
423
 11
-5
 21
415
  0
LINE
  8
0
 10
-5
 20
415
 11
-15
 21
415
  0
LINE
  8
0
 10
-15
 20
415
 11
-15
 21
265
  0
LINE
  8
0
 10
-15
 20
265
 11
-5
 21
265
  0
LINE
  8
0
 10
-5
 20
265
 11
-5
 21
257
  0
LINE
  8
0
 10
-5
 20
257
 11
5
 21
257
  0
LINE
  8
0
 10
5
 20
257
 11
5
 21
265
  0
LINE
  8
0
 10
-0.799988
 20
358.614
 11
-1.59999
 21
360
  0
LINE
  8
0
 10
-1.59999
 20
360
 11
-1.59999
 21
400
  0
LINE
  8
0
 10
-1.59999
 20
400
 11
-0.799988
 21
401.386
  0
LINE
  8
0
 10
-0.799988
 20
401.386
 11
0.799988
 21
401.386
  0
LINE
  8
0
 10
0.799988
 20
401.386
 11
1.59999
 21
400
  0
LINE
  8
0
 10
1.59999
 20
400
 11
1.59999
 21
360
  0
LINE
  8
0
 10
1.59999
 20
360
 11
0.799988
 21
358.614
  0
LINE
  8
0
 10
0.799988
 20
358.614
 11
-0.799988
 21
358.614
  0
LINE
  8
0
 10
-0.799988
 20
278.614
 11
-1.59999
 21
280
  0
LINE
  8
0
 10
-1.59999
 20
280
 11
-1.59999
 21
320
  0
LINE
  8
0
 10
-1.59999
 20
320
 11
-0.799988
 21
321.386
  0
LINE
  8
0
 10
-0.799988
 20
321.386
 11
0.799988
 21
321.386
  0
LINE
  8
0
 10
0.799988
 20
321.386
 11
1.59999
 21
320
  0
LINE
  8
0
 10
1.59999
 20
320
 11
1.59999
 21
280
  0
LINE
  8
0
 10
1.59999
 20
280
 11
0.799988
 21
278.614
  0
LINE
  8
0
 10
0.799988
 20
278.614
 11
-0.799988
 21
278.614
  0
LINE
  8
0
 10
71
 20
265
 11
81
 21
265
  0
LINE
  8
0
 10
81
 20
265
 11
81
 21
415
  0
LINE
  8
0
 10
81
 20
415
 11
71
 21
415
  0
LINE
  8
0
 10
71
 20
415
 11
71
 21
423
  0
LINE
  8
0
 10
71
 20
423
 11
61
 21
423
  0
LINE
  8
0
 10
61
 20
423
 11
61
 21
415
  0
LINE
  8
0
 10
61
 20
415
 11
51
 21
415
  0
LINE
  8
0
 10
51
 20
415
 11
51
 21
265
  0
LINE
  8
0
 10
51
 20
265
 11
61
 21
265
  0
LINE
  8
0
 10
61
 20
265
 11
61
 21
257
  0
LINE
  8
0
 10
61
 20
257
 11
71
 21
257
  0
LINE
  8
0
 10
71
 20
257
 11
71
 21
265
  0
LINE
  8
0
 10
65.2
 20
358.614
 11
64.4
 21
360
  0
LINE
  8
0
 10
64.4
 20
360
 11
64.4
 21
400
  0
LINE
  8
0
 10
64.4
 20
400
 11
65.2
 21
401.386
  0
LINE
  8
0
 10
65.2
 20
401.386
 11
66.8
 21
401.386
  0
LINE
  8
0
 10
66.8
 20
401.386
 11
67.6
 21
400
  0
LINE
  8
0
 10
67.6
 20
400
 11
67.6
 21
360
  0
LINE
  8
0
 10
67.6
 20
360
 11
66.8
 21
358.614
  0
LINE
  8
0
 10
66.8
 20
358.614
 11
65.2
 21
358.614
  0
LINE
  8
0
 10
65.2
 20
278.614
 11
64.4
 21
280
  0
LINE
  8
0
 10
64.4
 20
280
 11
64.4
 21
320
  0
LINE
  8
0
 10
64.4
 20
320
 11
65.2
 21
321.386
  0
LINE
  8
0
 10
65.2
 20
321.386
 11
66.8
 21
321.386
  0
LINE
  8
0
 10
66.8
 20
321.386
 11
67.6
 21
320
  0
LINE
  8
0
 10
67.6
 20
320
 11
67.6
 21
280
  0
LINE
  8
0
 10
67.6
 20
280
 11
66.8
 21
278.614
  0
LINE
  8
0
 10
66.8
 20
278.614
 11
65.2
 21
278.614
  0
LINE
  8
0
 10
38
 20
265
 11
48
 21
265
  0
LINE
  8
0
 10
48
 20
265
 11
48
 21
415
  0
LINE
  8
0
 10
48
 20
415
 11
38
 21
415
  0
LINE
  8
0
 10
38
 20
415
 11
38
 21
423
  0
LINE
  8
0
 10
38
 20
423
 11
28
 21
423
  0
LINE
  8
0
 10
28
 20
423
 11
28
 21
415
  0
LINE
  8
0
 10
28
 20
415
 11
18
 21
415
  0
LINE
  8
0
 10
18
 20
415
 11
18
 21
265
  0
LINE
  8
0
 10
18
 20
265
 11
28
 21
265
  0
LINE
  8
0
 10
28
 20
265
 11
28
 21
257
  0
LINE
  8
0
 10
28
 20
257
 11
38
 21
257
  0
LINE
  8
0
 10
38
 20
257
 11
38
 21
265
  0
LINE
  8
0
 10
32.2
 20
358.614
 11
31.4
 21
360
  0
LINE
  8
0
 10
31.4
 20
360
 11
31.4
 21
400
  0
LINE
  8
0
 10
31.4
 20
400
 11
32.2
 21
401.386
  0
LINE
  8
0
 10
32.2
 20
401.386
 11
33.8
 21
401.386
  0
LINE
  8
0
 10
33.8
 20
401.386
 11
34.6
 21
400
  0
LINE
  8
0
 10
34.6
 20
400
 11
34.6
 21
360
  0
LINE
  8
0
 10
34.6
 20
360
 11
33.8
 21
358.614
  0
LINE
  8
0
 10
33.8
 20
358.614
 11
32.2
 21
358.614
  0
LINE
  8
0
 10
32.2
 20
278.614
 11
31.4
 21
280
  0
LINE
  8
0
 10
31.4
 20
280
 11
31.4
 21
320
  0
LINE
  8
0
 10
31.4
 20
320
 11
32.2
 21
321.386
  0
LINE
  8
0
 10
32.2
 20
321.386
 11
33.8
 21
321.386
  0
LINE
  8
0
 10
33.8
 20
321.386
 11
34.6
 21
320
  0
LINE
  8
0
 10
34.6
 20
320
 11
34.6
 21
280
  0
LINE
  8
0
 10
34.6
 20
280
 11
33.8
 21
278.614
  0
LINE
  8
0
 10
33.8
 20
278.614
 11
32.2
 21
278.614
  0
LINE
  8
0
 10
137
 20
265
 11
147
 21
265
  0
LINE
  8
0
 10
147
 20
265
 11
147
 21
415
  0
LINE
  8
0
 10
147
 20
415
 11
137
 21
415
  0
LINE
  8
0
 10
137
 20
415
 11
137
 21
423
  0
LINE
  8
0
 10
137
 20
423
 11
127
 21
423
  0
LINE
  8
0
 10
127
 20
423
 11
127
 21
415
  0
LINE
  8
0
 10
127
 20
415
 11
117
 21
415
  0
LINE
  8
0
 10
117
 20
415
 11
117
 21
265
  0
LINE
  8
0
 10
117
 20
265
 11
127
 21
265
  0
LINE
  8
0
 10
127
 20
265
 11
127
 21
257
  0
LINE
  8
0
 10
127
 20
257
 11
137
 21
257
  0
LINE
  8
0
 10
137
 20
257
 11
137
 21
265
  0
LINE
  8
0
 10
131.2
 20
358.614
 11
130.4
 21
360
  0
LINE
  8
0
 10
130.4
 20
360
 11
130.4
 21
400
  0
LINE
  8
0
 10
130.4
 20
400
 11
131.2
 21
401.386
  0
LINE
  8
0
 10
131.2
 20
401.386
 11
132.8
 21
401.386
  0
LINE
  8
0
 10
132.8
 20
401.386
 11
133.6
 21
400
  0
LINE
  8
0
 10
133.6
 20
400
 11
133.6
 21
360
  0
LINE
  8
0
 10
133.6
 20
360
 11
132.8
 21
358.614
  0
LINE
  8
0
 10
132.8
 20
358.614
 11
131.2
 21
358.614
  0
LINE
  8
0
 10
131.2
 20
278.614
 11
130.4
 21
280
  0
LINE
  8
0
 10
130.4
 20
280
 11
130.4
 21
320
  0
LINE
  8
0
 10
130.4
 20
320
 11
131.2
 21
321.386
  0
LINE
  8
0
 10
131.2
 20
321.386
 11
132.8
 21
321.386
  0
LINE
  8
0
 10
132.8
 20
321.386
 11
133.6
 21
320
  0
LINE
  8
0
 10
133.6
 20
320
 11
133.6
 21
280
  0
LINE
  8
0
 10
133.6
 20
280
 11
132.8
 21
278.614
  0
LINE
  8
0
 10
132.8
 20
278.614
 11
131.2
 21
278.614
  0
LINE
  8
0
 10
335
 20
265
 11
345
 21
265
  0
LINE
  8
0
 10
345
 20
265
 11
345
 21
415
  0
LINE
  8
0
 10
345
 20
415
 11
335
 21
415
  0
LINE
  8
0
 10
335
 20
415
 11
335
 21
423
  0
LINE
  8
0
 10
335
 20
423
 11
325
 21
423
  0
LINE
  8
0
 10
325
 20
423
 11
325
 21
415
  0
LINE
  8
0
 10
325
 20
415
 11
315
 21
415
  0
LINE
  8
0
 10
315
 20
415
 11
315
 21
265
  0
LINE
  8
0
 10
315
 20
265
 11
325
 21
265
  0
LINE
  8
0
 10
325
 20
265
 11
325
 21
257
  0
LINE
  8
0
 10
325
 20
257
 11
335
 21
257
  0
LINE
  8
0
 10
335
 20
257
 11
335
 21
265
  0
LINE
  8
0
 10
329.2
 20
358.614
 11
328.4
 21
360
  0
LINE
  8
0
 10
328.4
 20
360
 11
328.4
 21
400
  0
LINE
  8
0
 10
328.4
 20
400
 11
329.2
 21
401.386
  0
LINE
  8
0
 10
329.2
 20
401.386
 11
330.8
 21
401.386
  0
LINE
  8
0
 10
330.8
 20
401.386
 11
331.6
 21
400
  0
LINE
  8
0
 10
331.6
 20
400
 11
331.6
 21
360
  0
LINE
  8
0
 10
331.6
 20
360
 11
330.8
 21
358.614
  0
LINE
  8
0
 10
330.8
 20
358.614
 11
329.2
 21
358.614
  0
LINE
  8
0
 10
329.2
 20
278.614
 11
328.4
 21
280
  0
LINE
  8
0
 10
328.4
 20
280
 11
328.4
 21
320
  0
LINE
  8
0
 10
328.4
 20
320
 11
329.2
 21
321.386
  0
LINE
  8
0
 10
329.2
 20
321.386
 11
330.8
 21
321.386
  0
LINE
  8
0
 10
330.8
 20
321.386
 11
331.6
 21
320
  0
LINE
  8
0
 10
331.6
 20
320
 11
331.6
 21
280
  0
LINE
  8
0
 10
331.6
 20
280
 11
330.8
 21
278.614
  0
LINE
  8
0
 10
330.8
 20
278.614
 11
329.2
 21
278.614
  0
LINE
  8
0
 10
170
 20
265
 11
180
 21
265
  0
LINE
  8
0
 10
180
 20
265
 11
180
 21
415
  0
LINE
  8
0
 10
180
 20
415
 11
170
 21
415
  0
LINE
  8
0
 10
170
 20
415
 11
170
 21
423
  0
LINE
  8
0
 10
170
 20
423
 11
160
 21
423
  0
LINE
  8
0
 10
160
 20
423
 11
160
 21
415
  0
LINE
  8
0
 10
160
 20
415
 11
150
 21
415
  0
LINE
  8
0
 10
150
 20
415
 11
150
 21
265
  0
LINE
  8
0
 10
150
 20
265
 11
160
 21
265
  0
LINE
  8
0
 10
160
 20
265
 11
160
 21
257
  0
LINE
  8
0
 10
160
 20
257
 11
170
 21
257
  0
LINE
  8
0
 10
170
 20
257
 11
170
 21
265
  0
LINE
  8
0
 10
164.2
 20
358.614
 11
163.4
 21
360
  0
LINE
  8
0
 10
163.4
 20
360
 11
163.4
 21
400
  0
LINE
  8
0
 10
163.4
 20
400
 11
164.2
 21
401.386
  0
LINE
  8
0
 10
164.2
 20
401.386
 11
165.8
 21
401.386
  0
LINE
  8
0
 10
165.8
 20
401.386
 11
166.6
 21
400
  0
LINE
  8
0
 10
166.6
 20
400
 11
166.6
 21
360
  0
LINE
  8
0
 10
166.6
 20
360
 11
165.8
 21
358.614
  0
LINE
  8
0
 10
165.8
 20
358.614
 11
164.2
 21
358.614
  0
LINE
  8
0
 10
164.2
 20
278.614
 11
163.4
 21
280
  0
LINE
  8
0
 10
163.4
 20
280
 11
163.4
 21
320
  0
LINE
  8
0
 10
163.4
 20
320
 11
164.2
 21
321.386
  0
LINE
  8
0
 10
164.2
 20
321.386
 11
165.8
 21
321.386
  0
LINE
  8
0
 10
165.8
 20
321.386
 11
166.6
 21
320
  0
LINE
  8
0
 10
166.6
 20
320
 11
166.6
 21
280
  0
LINE
  8
0
 10
166.6
 20
280
 11
165.8
 21
278.614
  0
LINE
  8
0
 10
165.8
 20
278.614
 11
164.2
 21
278.614
  0
LINE
  8
0
 10
368
 20
265
 11
378
 21
265
  0
LINE
  8
0
 10
378
 20
265
 11
378
 21
415
  0
LINE
  8
0
 10
378
 20
415
 11
368
 21
415
  0
LINE
  8
0
 10
368
 20
415
 11
368
 21
423
  0
LINE
  8
0
 10
368
 20
423
 11
358
 21
423
  0
LINE
  8
0
 10
358
 20
423
 11
358
 21
415
  0
LINE
  8
0
 10
358
 20
415
 11
348
 21
415
  0
LINE
  8
0
 10
348
 20
415
 11
348
 21
265
  0
LINE
  8
0
 10
348
 20
265
 11
358
 21
265
  0
LINE
  8
0
 10
358
 20
265
 11
358
 21
257
  0
LINE
  8
0
 10
358
 20
257
 11
368
 21
257
  0
LINE
  8
0
 10
368
 20
257
 11
368
 21
265
  0
LINE
  8
0
 10
362.2
 20
358.614
 11
361.4
 21
360
  0
LINE
  8
0
 10
361.4
 20
360
 11
361.4
 21
400
  0
LINE
  8
0
 10
361.4
 20
400
 11
362.2
 21
401.386
  0
LINE
  8
0
 10
362.2
 20
401.386
 11
363.8
 21
401.386
  0
LINE
  8
0
 10
363.8
 20
401.386
 11
364.6
 21
400
  0
LINE
  8
0
 10
364.6
 20
400
 11
364.6
 21
360
  0
LINE
  8
0
 10
364.6
 20
360
 11
363.8
 21
358.614
  0
LINE
  8
0
 10
363.8
 20
358.614
 11
362.2
 21
358.614
  0
LINE
  8
0
 10
362.2
 20
278.614
 11
361.4
 21
280
  0
LINE
  8
0
 10
361.4
 20
280
 11
361.4
 21
320
  0
LINE
  8
0
 10
361.4
 20
320
 11
362.2
 21
321.386
  0
LINE
  8
0
 10
362.2
 20
321.386
 11
363.8
 21
321.386
  0
LINE
  8
0
 10
363.8
 20
321.386
 11
364.6
 21
320
  0
LINE
  8
0
 10
364.6
 20
320
 11
364.6
 21
280
  0
LINE
  8
0
 10
364.6
 20
280
 11
363.8
 21
278.614
  0
LINE
  8
0
 10
363.8
 20
278.614
 11
362.2
 21
278.614
  0
LINE
  8
0
 10
104
 20
265
 11
114
 21
265
  0
LINE
  8
0
 10
114
 20
265
 11
114
 21
415
  0
LINE
  8
0
 10
114
 20
415
 11
104
 21
415
  0
LINE
  8
0
 10
104
 20
415
 11
104
 21
423
  0
LINE
  8
0
 10
104
 20
423
 11
94
 21
423
  0
LINE
  8
0
 10
94
 20
423
 11
94
 21
415
  0
LINE
  8
0
 10
94
 20
415
 11
84
 21
415
  0
LINE
  8
0
 10
84
 20
415
 11
84
 21
265
  0
LINE
  8
0
 10
84
 20
265
 11
94
 21
265
  0
LINE
  8
0
 10
94
 20
265
 11
94
 21
257
  0
LINE
  8
0
 10
94
 20
257
 11
104
 21
257
  0
LINE
  8
0
 10
104
 20
257
 11
104
 21
265
  0
LINE
  8
0
 10
98.2
 20
358.614
 11
97.4
 21
360
  0
LINE
  8
0
 10
97.4
 20
360
 11
97.4
 21
400
  0
LINE
  8
0
 10
97.4
 20
400
 11
98.2
 21
401.386
  0
LINE
  8
0
 10
98.2
 20
401.386
 11
99.8
 21
401.386
  0
LINE
  8
0
 10
99.8
 20
401.386
 11
100.6
 21
400
  0
LINE
  8
0
 10
100.6
 20
400
 11
100.6
 21
360
  0
LINE
  8
0
 10
100.6
 20
360
 11
99.8
 21
358.614
  0
LINE
  8
0
 10
99.8
 20
358.614
 11
98.2
 21
358.614
  0
LINE
  8
0
 10
98.2
 20
278.614
 11
97.4
 21
280
  0
LINE
  8
0
 10
97.4
 20
280
 11
97.4
 21
320
  0
LINE
  8
0
 10
97.4
 20
320
 11
98.2
 21
321.386
  0
LINE
  8
0
 10
98.2
 20
321.386
 11
99.8
 21
321.386
  0
LINE
  8
0
 10
99.8
 20
321.386
 11
100.6
 21
320
  0
LINE
  8
0
 10
100.6
 20
320
 11
100.6
 21
280
  0
LINE
  8
0
 10
100.6
 20
280
 11
99.8
 21
278.614
  0
LINE
  8
0
 10
99.8
 20
278.614
 11
98.2
 21
278.614
  0
LINE
  8
0
 10
302
 20
265
 11
312
 21
265
  0
LINE
  8
0
 10
312
 20
265
 11
312
 21
415
  0
LINE
  8
0
 10
312
 20
415
 11
302
 21
415
  0
LINE
  8
0
 10
302
 20
415
 11
302
 21
423
  0
LINE
  8
0
 10
302
 20
423
 11
292
 21
423
  0
LINE
  8
0
 10
292
 20
423
 11
292
 21
415
  0
LINE
  8
0
 10
292
 20
415
 11
282
 21
415
  0
LINE
  8
0
 10
282
 20
415
 11
282
 21
265
  0
LINE
  8
0
 10
282
 20
265
 11
292
 21
265
  0
LINE
  8
0
 10
292
 20
265
 11
292
 21
257
  0
LINE
  8
0
 10
292
 20
257
 11
302
 21
257
  0
LINE
  8
0
 10
302
 20
257
 11
302
 21
265
  0
LINE
  8
0
 10
296.2
 20
358.614
 11
295.4
 21
360
  0
LINE
  8
0
 10
295.4
 20
360
 11
295.4
 21
400
  0
LINE
  8
0
 10
295.4
 20
400
 11
296.2
 21
401.386
  0
LINE
  8
0
 10
296.2
 20
401.386
 11
297.8
 21
401.386
  0
LINE
  8
0
 10
297.8
 20
401.386
 11
298.6
 21
400
  0
LINE
  8
0
 10
298.6
 20
400
 11
298.6
 21
360
  0
LINE
  8
0
 10
298.6
 20
360
 11
297.8
 21
358.614
  0
LINE
  8
0
 10
297.8
 20
358.614
 11
296.2
 21
358.614
  0
LINE
  8
0
 10
296.2
 20
278.614
 11
295.4
 21
280
  0
LINE
  8
0
 10
295.4
 20
280
 11
295.4
 21
320
  0
LINE
  8
0
 10
295.4
 20
320
 11
296.2
 21
321.386
  0
LINE
  8
0
 10
296.2
 20
321.386
 11
297.8
 21
321.386
  0
LINE
  8
0
 10
297.8
 20
321.386
 11
298.6
 21
320
  0
LINE
  8
0
 10
298.6
 20
320
 11
298.6
 21
280
  0
LINE
  8
0
 10
298.6
 20
280
 11
297.8
 21
278.614
  0
LINE
  8
0
 10
297.8
 20
278.614
 11
296.2
 21
278.614
  0
LINE
  8
0
 10
269
 20
265
 11
279
 21
265
  0
LINE
  8
0
 10
279
 20
265
 11
279
 21
415
  0
LINE
  8
0
 10
279
 20
415
 11
269
 21
415
  0
LINE
  8
0
 10
269
 20
415
 11
269
 21
423
  0
LINE
  8
0
 10
269
 20
423
 11
259
 21
423
  0
LINE
  8
0
 10
259
 20
423
 11
259
 21
415
  0
LINE
  8
0
 10
259
 20
415
 11
249
 21
415
  0
LINE
  8
0
 10
249
 20
415
 11
249
 21
265
  0
LINE
  8
0
 10
249
 20
265
 11
259
 21
265
  0
LINE
  8
0
 10
259
 20
265
 11
259
 21
257
  0
LINE
  8
0
 10
259
 20
257
 11
269
 21
257
  0
LINE
  8
0
 10
269
 20
257
 11
269
 21
265
  0
LINE
  8
0
 10
263.2
 20
358.614
 11
262.4
 21
360
  0
LINE
  8
0
 10
262.4
 20
360
 11
262.4
 21
400
  0
LINE
  8
0
 10
262.4
 20
400
 11
263.2
 21
401.386
  0
LINE
  8
0
 10
263.2
 20
401.386
 11
264.8
 21
401.386
  0
LINE
  8
0
 10
264.8
 20
401.386
 11
265.6
 21
400
  0
LINE
  8
0
 10
265.6
 20
400
 11
265.6
 21
360
  0
LINE
  8
0
 10
265.6
 20
360
 11
264.8
 21
358.614
  0
LINE
  8
0
 10
264.8
 20
358.614
 11
263.2
 21
358.614
  0
LINE
  8
0
 10
263.2
 20
278.614
 11
262.4
 21
280
  0
LINE
  8
0
 10
262.4
 20
280
 11
262.4
 21
320
  0
LINE
  8
0
 10
262.4
 20
320
 11
263.2
 21
321.386
  0
LINE
  8
0
 10
263.2
 20
321.386
 11
264.8
 21
321.386
  0
LINE
  8
0
 10
264.8
 20
321.386
 11
265.6
 21
320
  0
LINE
  8
0
 10
265.6
 20
320
 11
265.6
 21
280
  0
LINE
  8
0
 10
265.6
 20
280
 11
264.8
 21
278.614
  0
LINE
  8
0
 10
264.8
 20
278.614
 11
263.2
 21
278.614
  0
LINE
  8
0
 10
203
 20
265
 11
213
 21
265
  0
LINE
  8
0
 10
213
 20
265
 11
213
 21
415
  0
LINE
  8
0
 10
213
 20
415
 11
203
 21
415
  0
LINE
  8
0
 10
203
 20
415
 11
203
 21
423
  0
LINE
  8
0
 10
203
 20
423
 11
193
 21
423
  0
LINE
  8
0
 10
193
 20
423
 11
193
 21
415
  0
LINE
  8
0
 10
193
 20
415
 11
183
 21
415
  0
LINE
  8
0
 10
183
 20
415
 11
183
 21
265
  0
LINE
  8
0
 10
183
 20
265
 11
193
 21
265
  0
LINE
  8
0
 10
193
 20
265
 11
193
 21
257
  0
LINE
  8
0
 10
193
 20
257
 11
203
 21
257
  0
LINE
  8
0
 10
203
 20
257
 11
203
 21
265
  0
LINE
  8
0
 10
197.2
 20
358.614
 11
196.4
 21
360
  0
LINE
  8
0
 10
196.4
 20
360
 11
196.4
 21
400
  0
LINE
  8
0
 10
196.4
 20
400
 11
197.2
 21
401.386
  0
LINE
  8
0
 10
197.2
 20
401.386
 11
198.8
 21
401.386
  0
LINE
  8
0
 10
198.8
 20
401.386
 11
199.6
 21
400
  0
LINE
  8
0
 10
199.6
 20
400
 11
199.6
 21
360
  0
LINE
  8
0
 10
199.6
 20
360
 11
198.8
 21
358.614
  0
LINE
  8
0
 10
198.8
 20
358.614
 11
197.2
 21
358.614
  0
LINE
  8
0
 10
197.2
 20
278.614
 11
196.4
 21
280
  0
LINE
  8
0
 10
196.4
 20
280
 11
196.4
 21
320
  0
LINE
  8
0
 10
196.4
 20
320
 11
197.2
 21
321.386
  0
LINE
  8
0
 10
197.2
 20
321.386
 11
198.8
 21
321.386
  0
LINE
  8
0
 10
198.8
 20
321.386
 11
199.6
 21
320
  0
LINE
  8
0
 10
199.6
 20
320
 11
199.6
 21
280
  0
LINE
  8
0
 10
199.6
 20
280
 11
198.8
 21
278.614
  0
LINE
  8
0
 10
198.8
 20
278.614
 11
197.2
 21
278.614
  0
LINE
  8
0
 10
236
 20
265
 11
246
 21
265
  0
LINE
  8
0
 10
246
 20
265
 11
246
 21
415
  0
LINE
  8
0
 10
246
 20
415
 11
236
 21
415
  0
LINE
  8
0
 10
236
 20
415
 11
236
 21
423
  0
LINE
  8
0
 10
236
 20
423
 11
226
 21
423
  0
LINE
  8
0
 10
226
 20
423
 11
226
 21
415
  0
LINE
  8
0
 10
226
 20
415
 11
216
 21
415
  0
LINE
  8
0
 10
216
 20
415
 11
216
 21
265
  0
LINE
  8
0
 10
216
 20
265
 11
226
 21
265
  0
LINE
  8
0
 10
226
 20
265
 11
226
 21
257
  0
LINE
  8
0
 10
226
 20
257
 11
236
 21
257
  0
LINE
  8
0
 10
236
 20
257
 11
236
 21
265
  0
LINE
  8
0
 10
230.2
 20
358.614
 11
229.4
 21
360
  0
LINE
  8
0
 10
229.4
 20
360
 11
229.4
 21
400
  0
LINE
  8
0
 10
229.4
 20
400
 11
230.2
 21
401.386
  0
LINE
  8
0
 10
230.2
 20
401.386
 11
231.8
 21
401.386
  0
LINE
  8
0
 10
231.8
 20
401.386
 11
232.6
 21
400
  0
LINE
  8
0
 10
232.6
 20
400
 11
232.6
 21
360
  0
LINE
  8
0
 10
232.6
 20
360
 11
231.8
 21
358.614
  0
LINE
  8
0
 10
231.8
 20
358.614
 11
230.2
 21
358.614
  0
LINE
  8
0
 10
230.2
 20
278.614
 11
229.4
 21
280
  0
LINE
  8
0
 10
229.4
 20
280
 11
229.4
 21
320
  0
LINE
  8
0
 10
229.4
 20
320
 11
230.2
 21
321.386
  0
LINE
  8
0
 10
230.2
 20
321.386
 11
231.8
 21
321.386
  0
LINE
  8
0
 10
231.8
 20
321.386
 11
232.6
 21
320
  0
LINE
  8
0
 10
232.6
 20
320
 11
232.6
 21
280
  0
LINE
  8
0
 10
232.6
 20
280
 11
231.8
 21
278.614
  0
LINE
  8
0
 10
231.8
 20
278.614
 11
230.2
 21
278.614
  0
LINE
  8
0
 10
236
 20
95
 11
246
 21
95
  0
LINE
  8
0
 10
246
 20
95
 11
246
 21
245
  0
LINE
  8
0
 10
246
 20
245
 11
236
 21
245
  0
LINE
  8
0
 10
236
 20
245
 11
236
 21
253
  0
LINE
  8
0
 10
236
 20
253
 11
226
 21
253
  0
LINE
  8
0
 10
226
 20
253
 11
226
 21
245
  0
LINE
  8
0
 10
226
 20
245
 11
216
 21
245
  0
LINE
  8
0
 10
216
 20
245
 11
216
 21
95
  0
LINE
  8
0
 10
216
 20
95
 11
226
 21
95
  0
LINE
  8
0
 10
226
 20
95
 11
226
 21
87
  0
LINE
  8
0
 10
226
 20
87
 11
236
 21
87
  0
LINE
  8
0
 10
236
 20
87
 11
236
 21
95
  0
LINE
  8
0
 10
230.2
 20
188.614
 11
229.4
 21
190
  0
LINE
  8
0
 10
229.4
 20
190
 11
229.4
 21
230
  0
LINE
  8
0
 10
229.4
 20
230
 11
230.2
 21
231.386
  0
LINE
  8
0
 10
230.2
 20
231.386
 11
231.8
 21
231.386
  0
LINE
  8
0
 10
231.8
 20
231.386
 11
232.6
 21
230
  0
LINE
  8
0
 10
232.6
 20
230
 11
232.6
 21
190
  0
LINE
  8
0
 10
232.6
 20
190
 11
231.8
 21
188.614
  0
LINE
  8
0
 10
231.8
 20
188.614
 11
230.2
 21
188.614
  0
LINE
  8
0
 10
230.2
 20
108.614
 11
229.4
 21
110
  0
LINE
  8
0
 10
229.4
 20
110
 11
229.4
 21
150
  0
LINE
  8
0
 10
229.4
 20
150
 11
230.2
 21
151.386
  0
LINE
  8
0
 10
230.2
 20
151.386
 11
231.8
 21
151.386
  0
LINE
  8
0
 10
231.8
 20
151.386
 11
232.6
 21
150
  0
LINE
  8
0
 10
232.6
 20
150
 11
232.6
 21
110
  0
LINE
  8
0
 10
232.6
 20
110
 11
231.8
 21
108.614
  0
LINE
  8
0
 10
231.8
 20
108.614
 11
230.2
 21
108.614
  0
LINE
  8
0
 10
104
 20
95
 11
114
 21
95
  0
LINE
  8
0
 10
114
 20
95
 11
114
 21
245
  0
LINE
  8
0
 10
114
 20
245
 11
104
 21
245
  0
LINE
  8
0
 10
104
 20
245
 11
104
 21
253
  0
LINE
  8
0
 10
104
 20
253
 11
94
 21
253
  0
LINE
  8
0
 10
94
 20
253
 11
94
 21
245
  0
LINE
  8
0
 10
94
 20
245
 11
84
 21
245
  0
LINE
  8
0
 10
84
 20
245
 11
84
 21
95
  0
LINE
  8
0
 10
84
 20
95
 11
94
 21
95
  0
LINE
  8
0
 10
94
 20
95
 11
94
 21
87
  0
LINE
  8
0
 10
94
 20
87
 11
104
 21
87
  0
LINE
  8
0
 10
104
 20
87
 11
104
 21
95
  0
LINE
  8
0
 10
98.2
 20
188.614
 11
97.4
 21
190
  0
LINE
  8
0
 10
97.4
 20
190
 11
97.4
 21
230
  0
LINE
  8
0
 10
97.4
 20
230
 11
98.2
 21
231.386
  0
LINE
  8
0
 10
98.2
 20
231.386
 11
99.8
 21
231.386
  0
LINE
  8
0
 10
99.8
 20
231.386
 11
100.6
 21
230
  0
LINE
  8
0
 10
100.6
 20
230
 11
100.6
 21
190
  0
LINE
  8
0
 10
100.6
 20
190
 11
99.8
 21
188.614
  0
LINE
  8
0
 10
99.8
 20
188.614
 11
98.2
 21
188.614
  0
LINE
  8
0
 10
98.2
 20
108.614
 11
97.4
 21
110
  0
LINE
  8
0
 10
97.4
 20
110
 11
97.4
 21
150
  0
LINE
  8
0
 10
97.4
 20
150
 11
98.2
 21
151.386
  0
LINE
  8
0
 10
98.2
 20
151.386
 11
99.8
 21
151.386
  0
LINE
  8
0
 10
99.8
 20
151.386
 11
100.6
 21
150
  0
LINE
  8
0
 10
100.6
 20
150
 11
100.6
 21
110
  0
LINE
  8
0
 10
100.6
 20
110
 11
99.8
 21
108.614
  0
LINE
  8
0
 10
99.8
 20
108.614
 11
98.2
 21
108.614
  0
LINE
  8
0
 10
170
 20
95
 11
180
 21
95
  0
LINE
  8
0
 10
180
 20
95
 11
180
 21
245
  0
LINE
  8
0
 10
180
 20
245
 11
170
 21
245
  0
LINE
  8
0
 10
170
 20
245
 11
170
 21
253
  0
LINE
  8
0
 10
170
 20
253
 11
160
 21
253
  0
LINE
  8
0
 10
160
 20
253
 11
160
 21
245
  0
LINE
  8
0
 10
160
 20
245
 11
150
 21
245
  0
LINE
  8
0
 10
150
 20
245
 11
150
 21
95
  0
LINE
  8
0
 10
150
 20
95
 11
160
 21
95
  0
LINE
  8
0
 10
160
 20
95
 11
160
 21
87
  0
LINE
  8
0
 10
160
 20
87
 11
170
 21
87
  0
LINE
  8
0
 10
170
 20
87
 11
170
 21
95
  0
LINE
  8
0
 10
164.2
 20
188.614
 11
163.4
 21
190
  0
LINE
  8
0
 10
163.4
 20
190
 11
163.4
 21
230
  0
LINE
  8
0
 10
163.4
 20
230
 11
164.2
 21
231.386
  0
LINE
  8
0
 10
164.2
 20
231.386
 11
165.8
 21
231.386
  0
LINE
  8
0
 10
165.8
 20
231.386
 11
166.6
 21
230
  0
LINE
  8
0
 10
166.6
 20
230
 11
166.6
 21
190
  0
LINE
  8
0
 10
166.6
 20
190
 11
165.8
 21
188.614
  0
LINE
  8
0
 10
165.8
 20
188.614
 11
164.2
 21
188.614
  0
LINE
  8
0
 10
164.2
 20
108.614
 11
163.4
 21
110
  0
LINE
  8
0
 10
163.4
 20
110
 11
163.4
 21
150
  0
LINE
  8
0
 10
163.4
 20
150
 11
164.2
 21
151.386
  0
LINE
  8
0
 10
164.2
 20
151.386
 11
165.8
 21
151.386
  0
LINE
  8
0
 10
165.8
 20
151.386
 11
166.6
 21
150
  0
LINE
  8
0
 10
166.6
 20
150
 11
166.6
 21
110
  0
LINE
  8
0
 10
166.6
 20
110
 11
165.8
 21
108.614
  0
LINE
  8
0
 10
165.8
 20
108.614
 11
164.2
 21
108.614
  0
LINE
  8
0
 10
71
 20
95
 11
81
 21
95
  0
LINE
  8
0
 10
81
 20
95
 11
81
 21
245
  0
LINE
  8
0
 10
81
 20
245
 11
71
 21
245
  0
LINE
  8
0
 10
71
 20
245
 11
71
 21
253
  0
LINE
  8
0
 10
71
 20
253
 11
61
 21
253
  0
LINE
  8
0
 10
61
 20
253
 11
61
 21
245
  0
LINE
  8
0
 10
61
 20
245
 11
51
 21
245
  0
LINE
  8
0
 10
51
 20
245
 11
51
 21
95
  0
LINE
  8
0
 10
51
 20
95
 11
61
 21
95
  0
LINE
  8
0
 10
61
 20
95
 11
61
 21
87
  0
LINE
  8
0
 10
61
 20
87
 11
71
 21
87
  0
LINE
  8
0
 10
71
 20
87
 11
71
 21
95
  0
LINE
  8
0
 10
65.2
 20
188.614
 11
64.4
 21
190
  0
LINE
  8
0
 10
64.4
 20
190
 11
64.4
 21
230
  0
LINE
  8
0
 10
64.4
 20
230
 11
65.2
 21
231.386
  0
LINE
  8
0
 10
65.2
 20
231.386
 11
66.8
 21
231.386
  0
LINE
  8
0
 10
66.8
 20
231.386
 11
67.6
 21
230
  0
LINE
  8
0
 10
67.6
 20
230
 11
67.6
 21
190
  0
LINE
  8
0
 10
67.6
 20
190
 11
66.8
 21
188.614
  0
LINE
  8
0
 10
66.8
 20
188.614
 11
65.2
 21
188.614
  0
LINE
  8
0
 10
65.2
 20
108.614
 11
64.4
 21
110
  0
LINE
  8
0
 10
64.4
 20
110
 11
64.4
 21
150
  0
LINE
  8
0
 10
64.4
 20
150
 11
65.2
 21
151.386
  0
LINE
  8
0
 10
65.2
 20
151.386
 11
66.8
 21
151.386
  0
LINE
  8
0
 10
66.8
 20
151.386
 11
67.6
 21
150
  0
LINE
  8
0
 10
67.6
 20
150
 11
67.6
 21
110
  0
LINE
  8
0
 10
67.6
 20
110
 11
66.8
 21
108.614
  0
LINE
  8
0
 10
66.8
 20
108.614
 11
65.2
 21
108.614
  0
LINE
  8
0
 10
137
 20
95
 11
147
 21
95
  0
LINE
  8
0
 10
147
 20
95
 11
147
 21
245
  0
LINE
  8
0
 10
147
 20
245
 11
137
 21
245
  0
LINE
  8
0
 10
137
 20
245
 11
137
 21
253
  0
LINE
  8
0
 10
137
 20
253
 11
127
 21
253
  0
LINE
  8
0
 10
127
 20
253
 11
127
 21
245
  0
LINE
  8
0
 10
127
 20
245
 11
117
 21
245
  0
LINE
  8
0
 10
117
 20
245
 11
117
 21
95
  0
LINE
  8
0
 10
117
 20
95
 11
127
 21
95
  0
LINE
  8
0
 10
127
 20
95
 11
127
 21
87
  0
LINE
  8
0
 10
127
 20
87
 11
137
 21
87
  0
LINE
  8
0
 10
137
 20
87
 11
137
 21
95
  0
LINE
  8
0
 10
131.2
 20
188.614
 11
130.4
 21
190
  0
LINE
  8
0
 10
130.4
 20
190
 11
130.4
 21
230
  0
LINE
  8
0
 10
130.4
 20
230
 11
131.2
 21
231.386
  0
LINE
  8
0
 10
131.2
 20
231.386
 11
132.8
 21
231.386
  0
LINE
  8
0
 10
132.8
 20
231.386
 11
133.6
 21
230
  0
LINE
  8
0
 10
133.6
 20
230
 11
133.6
 21
190
  0
LINE
  8
0
 10
133.6
 20
190
 11
132.8
 21
188.614
  0
LINE
  8
0
 10
132.8
 20
188.614
 11
131.2
 21
188.614
  0
LINE
  8
0
 10
131.2
 20
108.614
 11
130.4
 21
110
  0
LINE
  8
0
 10
130.4
 20
110
 11
130.4
 21
150
  0
LINE
  8
0
 10
130.4
 20
150
 11
131.2
 21
151.386
  0
LINE
  8
0
 10
131.2
 20
151.386
 11
132.8
 21
151.386
  0
LINE
  8
0
 10
132.8
 20
151.386
 11
133.6
 21
150
  0
LINE
  8
0
 10
133.6
 20
150
 11
133.6
 21
110
  0
LINE
  8
0
 10
133.6
 20
110
 11
132.8
 21
108.614
  0
LINE
  8
0
 10
132.8
 20
108.614
 11
131.2
 21
108.614
  0
LINE
  8
0
 10
269
 20
95
 11
279
 21
95
  0
LINE
  8
0
 10
279
 20
95
 11
279
 21
245
  0
LINE
  8
0
 10
279
 20
245
 11
269
 21
245
  0
LINE
  8
0
 10
269
 20
245
 11
269
 21
253
  0
LINE
  8
0
 10
269
 20
253
 11
259
 21
253
  0
LINE
  8
0
 10
259
 20
253
 11
259
 21
245
  0
LINE
  8
0
 10
259
 20
245
 11
249
 21
245
  0
LINE
  8
0
 10
249
 20
245
 11
249
 21
95
  0
LINE
  8
0
 10
249
 20
95
 11
259
 21
95
  0
LINE
  8
0
 10
259
 20
95
 11
259
 21
87
  0
LINE
  8
0
 10
259
 20
87
 11
269
 21
87
  0
LINE
  8
0
 10
269
 20
87
 11
269
 21
95
  0
LINE
  8
0
 10
263.2
 20
188.614
 11
262.4
 21
190
  0
LINE
  8
0
 10
262.4
 20
190
 11
262.4
 21
230
  0
LINE
  8
0
 10
262.4
 20
230
 11
263.2
 21
231.386
  0
LINE
  8
0
 10
263.2
 20
231.386
 11
264.8
 21
231.386
  0
LINE
  8
0
 10
264.8
 20
231.386
 11
265.6
 21
230
  0
LINE
  8
0
 10
265.6
 20
230
 11
265.6
 21
190
  0
LINE
  8
0
 10
265.6
 20
190
 11
264.8
 21
188.614
  0
LINE
  8
0
 10
264.8
 20
188.614
 11
263.2
 21
188.614
  0
LINE
  8
0
 10
263.2
 20
108.614
 11
262.4
 21
110
  0
LINE
  8
0
 10
262.4
 20
110
 11
262.4
 21
150
  0
LINE
  8
0
 10
262.4
 20
150
 11
263.2
 21
151.386
  0
LINE
  8
0
 10
263.2
 20
151.386
 11
264.8
 21
151.386
  0
LINE
  8
0
 10
264.8
 20
151.386
 11
265.6
 21
150
  0
LINE
  8
0
 10
265.6
 20
150
 11
265.6
 21
110
  0
LINE
  8
0
 10
265.6
 20
110
 11
264.8
 21
108.614
  0
LINE
  8
0
 10
264.8
 20
108.614
 11
263.2
 21
108.614
  0
LINE
  8
0
 10
5
 20
95
 11
15
 21
95
  0
LINE
  8
0
 10
15
 20
95
 11
15
 21
245
  0
LINE
  8
0
 10
15
 20
245
 11
5
 21
245
  0
LINE
  8
0
 10
5
 20
245
 11
5
 21
253
  0
LINE
  8
0
 10
5
 20
253
 11
-5
 21
253
  0
LINE
  8
0
 10
-5
 20
253
 11
-5
 21
245
  0
LINE
  8
0
 10
-5
 20
245
 11
-15
 21
245
  0
LINE
  8
0
 10
-15
 20
245
 11
-15
 21
95
  0
LINE
  8
0
 10
-15
 20
95
 11
-5
 21
95
  0
LINE
  8
0
 10
-5
 20
95
 11
-5
 21
87
  0
LINE
  8
0
 10
-5
 20
87
 11
5
 21
87
  0
LINE
  8
0
 10
5
 20
87
 11
5
 21
95
  0
LINE
  8
0
 10
-0.799988
 20
188.614
 11
-1.59999
 21
190
  0
LINE
  8
0
 10
-1.59999
 20
190
 11
-1.59999
 21
230
  0
LINE
  8
0
 10
-1.59999
 20
230
 11
-0.799988
 21
231.386
  0
LINE
  8
0
 10
-0.799988
 20
231.386
 11
0.799988
 21
231.386
  0
LINE
  8
0
 10
0.799988
 20
231.386
 11
1.59999
 21
230
  0
LINE
  8
0
 10
1.59999
 20
230
 11
1.59999
 21
190
  0
LINE
  8
0
 10
1.59999
 20
190
 11
0.799988
 21
188.614
  0
LINE
  8
0
 10
0.799988
 20
188.614
 11
-0.799988
 21
188.614
  0
LINE
  8
0
 10
-0.799988
 20
108.614
 11
-1.59999
 21
110
  0
LINE
  8
0
 10
-1.59999
 20
110
 11
-1.59999
 21
150
  0
LINE
  8
0
 10
-1.59999
 20
150
 11
-0.799988
 21
151.386
  0
LINE
  8
0
 10
-0.799988
 20
151.386
 11
0.799988
 21
151.386
  0
LINE
  8
0
 10
0.799988
 20
151.386
 11
1.59999
 21
150
  0
LINE
  8
0
 10
1.59999
 20
150
 11
1.59999
 21
110
  0
LINE
  8
0
 10
1.59999
 20
110
 11
0.799988
 21
108.614
  0
LINE
  8
0
 10
0.799988
 20
108.614
 11
-0.799988
 21
108.614
  0
LINE
  8
0
 10
302
 20
95
 11
312
 21
95
  0
LINE
  8
0
 10
312
 20
95
 11
312
 21
245
  0
LINE
  8
0
 10
312
 20
245
 11
302
 21
245
  0
LINE
  8
0
 10
302
 20
245
 11
302
 21
253
  0
LINE
  8
0
 10
302
 20
253
 11
292
 21
253
  0
LINE
  8
0
 10
292
 20
253
 11
292
 21
245
  0
LINE
  8
0
 10
292
 20
245
 11
282
 21
245
  0
LINE
  8
0
 10
282
 20
245
 11
282
 21
95
  0
LINE
  8
0
 10
282
 20
95
 11
292
 21
95
  0
LINE
  8
0
 10
292
 20
95
 11
292
 21
87
  0
LINE
  8
0
 10
292
 20
87
 11
302
 21
87
  0
LINE
  8
0
 10
302
 20
87
 11
302
 21
95
  0
LINE
  8
0
 10
296.2
 20
188.614
 11
295.4
 21
190
  0
LINE
  8
0
 10
295.4
 20
190
 11
295.4
 21
230
  0
LINE
  8
0
 10
295.4
 20
230
 11
296.2
 21
231.386
  0
LINE
  8
0
 10
296.2
 20
231.386
 11
297.8
 21
231.386
  0
LINE
  8
0
 10
297.8
 20
231.386
 11
298.6
 21
230
  0
LINE
  8
0
 10
298.6
 20
230
 11
298.6
 21
190
  0
LINE
  8
0
 10
298.6
 20
190
 11
297.8
 21
188.614
  0
LINE
  8
0
 10
297.8
 20
188.614
 11
296.2
 21
188.614
  0
LINE
  8
0
 10
296.2
 20
108.614
 11
295.4
 21
110
  0
LINE
  8
0
 10
295.4
 20
110
 11
295.4
 21
150
  0
LINE
  8
0
 10
295.4
 20
150
 11
296.2
 21
151.386
  0
LINE
  8
0
 10
296.2
 20
151.386
 11
297.8
 21
151.386
  0
LINE
  8
0
 10
297.8
 20
151.386
 11
298.6
 21
150
  0
LINE
  8
0
 10
298.6
 20
150
 11
298.6
 21
110
  0
LINE
  8
0
 10
298.6
 20
110
 11
297.8
 21
108.614
  0
LINE
  8
0
 10
297.8
 20
108.614
 11
296.2
 21
108.614
  0
LINE
  8
0
 10
38
 20
95
 11
48
 21
95
  0
LINE
  8
0
 10
48
 20
95
 11
48
 21
245
  0
LINE
  8
0
 10
48
 20
245
 11
38
 21
245
  0
LINE
  8
0
 10
38
 20
245
 11
38
 21
253
  0
LINE
  8
0
 10
38
 20
253
 11
28
 21
253
  0
LINE
  8
0
 10
28
 20
253
 11
28
 21
245
  0
LINE
  8
0
 10
28
 20
245
 11
18
 21
245
  0
LINE
  8
0
 10
18
 20
245
 11
18
 21
95
  0
LINE
  8
0
 10
18
 20
95
 11
28
 21
95
  0
LINE
  8
0
 10
28
 20
95
 11
28
 21
87
  0
LINE
  8
0
 10
28
 20
87
 11
38
 21
87
  0
LINE
  8
0
 10
38
 20
87
 11
38
 21
95
  0
LINE
  8
0
 10
32.2
 20
188.614
 11
31.4
 21
190
  0
LINE
  8
0
 10
31.4
 20
190
 11
31.4
 21
230
  0
LINE
  8
0
 10
31.4
 20
230
 11
32.2
 21
231.386
  0
LINE
  8
0
 10
32.2
 20
231.386
 11
33.8
 21
231.386
  0
LINE
  8
0
 10
33.8
 20
231.386
 11
34.6
 21
230
  0
LINE
  8
0
 10
34.6
 20
230
 11
34.6
 21
190
  0
LINE
  8
0
 10
34.6
 20
190
 11
33.8
 21
188.614
  0
LINE
  8
0
 10
33.8
 20
188.614
 11
32.2
 21
188.614
  0
LINE
  8
0
 10
32.2
 20
108.614
 11
31.4
 21
110
  0
LINE
  8
0
 10
31.4
 20
110
 11
31.4
 21
150
  0
LINE
  8
0
 10
31.4
 20
150
 11
32.2
 21
151.386
  0
LINE
  8
0
 10
32.2
 20
151.386
 11
33.8
 21
151.386
  0
LINE
  8
0
 10
33.8
 20
151.386
 11
34.6
 21
150
  0
LINE
  8
0
 10
34.6
 20
150
 11
34.6
 21
110
  0
LINE
  8
0
 10
34.6
 20
110
 11
33.8
 21
108.614
  0
LINE
  8
0
 10
33.8
 20
108.614
 11
32.2
 21
108.614
  0
LINE
  8
0
 10
335
 20
95
 11
345
 21
95
  0
LINE
  8
0
 10
345
 20
95
 11
345
 21
245
  0
LINE
  8
0
 10
345
 20
245
 11
335
 21
245
  0
LINE
  8
0
 10
335
 20
245
 11
335
 21
253
  0
LINE
  8
0
 10
335
 20
253
 11
325
 21
253
  0
LINE
  8
0
 10
325
 20
253
 11
325
 21
245
  0
LINE
  8
0
 10
325
 20
245
 11
315
 21
245
  0
LINE
  8
0
 10
315
 20
245
 11
315
 21
95
  0
LINE
  8
0
 10
315
 20
95
 11
325
 21
95
  0
LINE
  8
0
 10
325
 20
95
 11
325
 21
87
  0
LINE
  8
0
 10
325
 20
87
 11
335
 21
87
  0
LINE
  8
0
 10
335
 20
87
 11
335
 21
95
  0
LINE
  8
0
 10
329.2
 20
188.614
 11
328.4
 21
190
  0
LINE
  8
0
 10
328.4
 20
190
 11
328.4
 21
230
  0
LINE
  8
0
 10
328.4
 20
230
 11
329.2
 21
231.386
  0
LINE
  8
0
 10
329.2
 20
231.386
 11
330.8
 21
231.386
  0
LINE
  8
0
 10
330.8
 20
231.386
 11
331.6
 21
230
  0
LINE
  8
0
 10
331.6
 20
230
 11
331.6
 21
190
  0
LINE
  8
0
 10
331.6
 20
190
 11
330.8
 21
188.614
  0
LINE
  8
0
 10
330.8
 20
188.614
 11
329.2
 21
188.614
  0
LINE
  8
0
 10
329.2
 20
108.614
 11
328.4
 21
110
  0
LINE
  8
0
 10
328.4
 20
110
 11
328.4
 21
150
  0
LINE
  8
0
 10
328.4
 20
150
 11
329.2
 21
151.386
  0
LINE
  8
0
 10
329.2
 20
151.386
 11
330.8
 21
151.386
  0
LINE
  8
0
 10
330.8
 20
151.386
 11
331.6
 21
150
  0
LINE
  8
0
 10
331.6
 20
150
 11
331.6
 21
110
  0
LINE
  8
0
 10
331.6
 20
110
 11
330.8
 21
108.614
  0
LINE
  8
0
 10
330.8
 20
108.614
 11
329.2
 21
108.614
  0
LINE
  8
0
 10
368
 20
95
 11
378
 21
95
  0
LINE
  8
0
 10
378
 20
95
 11
378
 21
245
  0
LINE
  8
0
 10
378
 20
245
 11
368
 21
245
  0
LINE
  8
0
 10
368
 20
245
 11
368
 21
253
  0
LINE
  8
0
 10
368
 20
253
 11
358
 21
253
  0
LINE
  8
0
 10
358
 20
253
 11
358
 21
245
  0
LINE
  8
0
 10
358
 20
245
 11
348
 21
245
  0
LINE
  8
0
 10
348
 20
245
 11
348
 21
95
  0
LINE
  8
0
 10
348
 20
95
 11
358
 21
95
  0
LINE
  8
0
 10
358
 20
95
 11
358
 21
87
  0
LINE
  8
0
 10
358
 20
87
 11
368
 21
87
  0
LINE
  8
0
 10
368
 20
87
 11
368
 21
95
  0
LINE
  8
0
 10
362.2
 20
188.614
 11
361.4
 21
190
  0
LINE
  8
0
 10
361.4
 20
190
 11
361.4
 21
230
  0
LINE
  8
0
 10
361.4
 20
230
 11
362.2
 21
231.386
  0
LINE
  8
0
 10
362.2
 20
231.386
 11
363.8
 21
231.386
  0
LINE
  8
0
 10
363.8
 20
231.386
 11
364.6
 21
230
  0
LINE
  8
0
 10
364.6
 20
230
 11
364.6
 21
190
  0
LINE
  8
0
 10
364.6
 20
190
 11
363.8
 21
188.614
  0
LINE
  8
0
 10
363.8
 20
188.614
 11
362.2
 21
188.614
  0
LINE
  8
0
 10
362.2
 20
108.614
 11
361.4
 21
110
  0
LINE
  8
0
 10
361.4
 20
110
 11
361.4
 21
150
  0
LINE
  8
0
 10
361.4
 20
150
 11
362.2
 21
151.386
  0
LINE
  8
0
 10
362.2
 20
151.386
 11
363.8
 21
151.386
  0
LINE
  8
0
 10
363.8
 20
151.386
 11
364.6
 21
150
  0
LINE
  8
0
 10
364.6
 20
150
 11
364.6
 21
110
  0
LINE
  8
0
 10
364.6
 20
110
 11
363.8
 21
108.614
  0
LINE
  8
0
 10
363.8
 20
108.614
 11
362.2
 21
108.614
  0
LINE
  8
0
 10
203
 20
95
 11
213
 21
95
  0
LINE
  8
0
 10
213
 20
95
 11
213
 21
245
  0
LINE
  8
0
 10
213
 20
245
 11
203
 21
245
  0
LINE
  8
0
 10
203
 20
245
 11
203
 21
253
  0
LINE
  8
0
 10
203
 20
253
 11
193
 21
253
  0
LINE
  8
0
 10
193
 20
253
 11
193
 21
245
  0
LINE
  8
0
 10
193
 20
245
 11
183
 21
245
  0
LINE
  8
0
 10
183
 20
245
 11
183
 21
95
  0
LINE
  8
0
 10
183
 20
95
 11
193
 21
95
  0
LINE
  8
0
 10
193
 20
95
 11
193
 21
87
  0
LINE
  8
0
 10
193
 20
87
 11
203
 21
87
  0
LINE
  8
0
 10
203
 20
87
 11
203
 21
95
  0
LINE
  8
0
 10
197.2
 20
188.614
 11
196.4
 21
190
  0
LINE
  8
0
 10
196.4
 20
190
 11
196.4
 21
230
  0
LINE
  8
0
 10
196.4
 20
230
 11
197.2
 21
231.386
  0
LINE
  8
0
 10
197.2
 20
231.386
 11
198.8
 21
231.386
  0
LINE
  8
0
 10
198.8
 20
231.386
 11
199.6
 21
230
  0
LINE
  8
0
 10
199.6
 20
230
 11
199.6
 21
190
  0
LINE
  8
0
 10
199.6
 20
190
 11
198.8
 21
188.614
  0
LINE
  8
0
 10
198.8
 20
188.614
 11
197.2
 21
188.614
  0
LINE
  8
0
 10
197.2
 20
108.614
 11
196.4
 21
110
  0
LINE
  8
0
 10
196.4
 20
110
 11
196.4
 21
150
  0
LINE
  8
0
 10
196.4
 20
150
 11
197.2
 21
151.386
  0
LINE
  8
0
 10
197.2
 20
151.386
 11
198.8
 21
151.386
  0
LINE
  8
0
 10
198.8
 20
151.386
 11
199.6
 21
150
  0
LINE
  8
0
 10
199.6
 20
150
 11
199.6
 21
110
  0
LINE
  8
0
 10
199.6
 20
110
 11
198.8
 21
108.614
  0
LINE
  8
0
 10
198.8
 20
108.614
 11
197.2
 21
108.614
  0
LINE
  8
0
 10
5
 20
-75
 11
15
 21
-75
  0
LINE
  8
0
 10
15
 20
-75
 11
15
 21
75
  0
LINE
  8
0
 10
15
 20
75
 11
5
 21
75
  0
LINE
  8
0
 10
5
 20
75
 11
5
 21
83
  0
LINE
  8
0
 10
5
 20
83
 11
-5
 21
83
  0
LINE
  8
0
 10
-5
 20
83
 11
-5
 21
75
  0
LINE
  8
0
 10
-5
 20
75
 11
-15
 21
75
  0
LINE
  8
0
 10
-15
 20
75
 11
-15
 21
-75
  0
LINE
  8
0
 10
-15
 20
-75
 11
-5
 21
-75
  0
LINE
  8
0
 10
-5
 20
-75
 11
-5
 21
-83
  0
LINE
  8
0
 10
-5
 20
-83
 11
5
 21
-83
  0
LINE
  8
0
 10
5
 20
-83
 11
5
 21
-75
  0
LINE
  8
0
 10
-0.799988
 20
18.6143
 11
-1.59999
 21
20
  0
LINE
  8
0
 10
-1.59999
 20
20
 11
-1.59999
 21
60
  0
LINE
  8
0
 10
-1.59999
 20
60
 11
-0.799988
 21
61.3856
  0
LINE
  8
0
 10
-0.799988
 20
61.3856
 11
0.799988
 21
61.3856
  0
LINE
  8
0
 10
0.799988
 20
61.3856
 11
1.59999
 21
60
  0
LINE
  8
0
 10
1.59999
 20
60
 11
1.59999
 21
20
  0
LINE
  8
0
 10
1.59999
 20
20
 11
0.799988
 21
18.6143
  0
LINE
  8
0
 10
0.799988
 20
18.6143
 11
-0.799988
 21
18.6143
  0
LINE
  8
0
 10
-0.799988
 20
-61.3856
 11
-1.59999
 21
-60
  0
LINE
  8
0
 10
-1.59999
 20
-60
 11
-1.59999
 21
-20
  0
LINE
  8
0
 10
-1.59999
 20
-20
 11
-0.799988
 21
-18.6143
  0
LINE
  8
0
 10
-0.799988
 20
-18.6143
 11
0.799988
 21
-18.6143
  0
LINE
  8
0
 10
0.799988
 20
-18.6143
 11
1.59999
 21
-20
  0
LINE
  8
0
 10
1.59999
 20
-20
 11
1.59999
 21
-60
  0
LINE
  8
0
 10
1.59999
 20
-60
 11
0.799988
 21
-61.3856
  0
LINE
  8
0
 10
0.799988
 20
-61.3856
 11
-0.799988
 21
-61.3856
  0
LINE
  8
0
 10
137
 20
-75
 11
147
 21
-75
  0
LINE
  8
0
 10
147
 20
-75
 11
147
 21
75
  0
LINE
  8
0
 10
147
 20
75
 11
137
 21
75
  0
LINE
  8
0
 10
137
 20
75
 11
137
 21
83
  0
LINE
  8
0
 10
137
 20
83
 11
127
 21
83
  0
LINE
  8
0
 10
127
 20
83
 11
127
 21
75
  0
LINE
  8
0
 10
127
 20
75
 11
117
 21
75
  0
LINE
  8
0
 10
117
 20
75
 11
117
 21
-75
  0
LINE
  8
0
 10
117
 20
-75
 11
127
 21
-75
  0
LINE
  8
0
 10
127
 20
-75
 11
127
 21
-83
  0
LINE
  8
0
 10
127
 20
-83
 11
137
 21
-83
  0
LINE
  8
0
 10
137
 20
-83
 11
137
 21
-75
  0
LINE
  8
0
 10
131.2
 20
18.6143
 11
130.4
 21
20
  0
LINE
  8
0
 10
130.4
 20
20
 11
130.4
 21
60
  0
LINE
  8
0
 10
130.4
 20
60
 11
131.2
 21
61.3856
  0
LINE
  8
0
 10
131.2
 20
61.3856
 11
132.8
 21
61.3856
  0
LINE
  8
0
 10
132.8
 20
61.3856
 11
133.6
 21
60
  0
LINE
  8
0
 10
133.6
 20
60
 11
133.6
 21
20
  0
LINE
  8
0
 10
133.6
 20
20
 11
132.8
 21
18.6143
  0
LINE
  8
0
 10
132.8
 20
18.6143
 11
131.2
 21
18.6143
  0
LINE
  8
0
 10
131.2
 20
-61.3856
 11
130.4
 21
-60
  0
LINE
  8
0
 10
130.4
 20
-60
 11
130.4
 21
-20
  0
LINE
  8
0
 10
130.4
 20
-20
 11
131.2
 21
-18.6143
  0
LINE
  8
0
 10
131.2
 20
-18.6143
 11
132.8
 21
-18.6143
  0
LINE
  8
0
 10
132.8
 20
-18.6143
 11
133.6
 21
-20
  0
LINE
  8
0
 10
133.6
 20
-20
 11
133.6
 21
-60
  0
LINE
  8
0
 10
133.6
 20
-60
 11
132.8
 21
-61.3856
  0
LINE
  8
0
 10
132.8
 20
-61.3856
 11
131.2
 21
-61.3856
  0
LINE
  8
0
 10
170
 20
-75
 11
180
 21
-75
  0
LINE
  8
0
 10
180
 20
-75
 11
180
 21
75
  0
LINE
  8
0
 10
180
 20
75
 11
170
 21
75
  0
LINE
  8
0
 10
170
 20
75
 11
170
 21
83
  0
LINE
  8
0
 10
170
 20
83
 11
160
 21
83
  0
LINE
  8
0
 10
160
 20
83
 11
160
 21
75
  0
LINE
  8
0
 10
160
 20
75
 11
150
 21
75
  0
LINE
  8
0
 10
150
 20
75
 11
150
 21
-75
  0
LINE
  8
0
 10
150
 20
-75
 11
160
 21
-75
  0
LINE
  8
0
 10
160
 20
-75
 11
160
 21
-83
  0
LINE
  8
0
 10
160
 20
-83
 11
170
 21
-83
  0
LINE
  8
0
 10
170
 20
-83
 11
170
 21
-75
  0
LINE
  8
0
 10
164.2
 20
18.6143
 11
163.4
 21
20
  0
LINE
  8
0
 10
163.4
 20
20
 11
163.4
 21
60
  0
LINE
  8
0
 10
163.4
 20
60
 11
164.2
 21
61.3856
  0
LINE
  8
0
 10
164.2
 20
61.3856
 11
165.8
 21
61.3856
  0
LINE
  8
0
 10
165.8
 20
61.3856
 11
166.6
 21
60
  0
LINE
  8
0
 10
166.6
 20
60
 11
166.6
 21
20
  0
LINE
  8
0
 10
166.6
 20
20
 11
165.8
 21
18.6143
  0
LINE
  8
0
 10
165.8
 20
18.6143
 11
164.2
 21
18.6143
  0
LINE
  8
0
 10
164.2
 20
-61.3856
 11
163.4
 21
-60
  0
LINE
  8
0
 10
163.4
 20
-60
 11
163.4
 21
-20
  0
LINE
  8
0
 10
163.4
 20
-20
 11
164.2
 21
-18.6143
  0
LINE
  8
0
 10
164.2
 20
-18.6143
 11
165.8
 21
-18.6143
  0
LINE
  8
0
 10
165.8
 20
-18.6143
 11
166.6
 21
-20
  0
LINE
  8
0
 10
166.6
 20
-20
 11
166.6
 21
-60
  0
LINE
  8
0
 10
166.6
 20
-60
 11
165.8
 21
-61.3856
  0
LINE
  8
0
 10
165.8
 20
-61.3856
 11
164.2
 21
-61.3856
  0
LINE
  8
0
 10
368
 20
-75
 11
378
 21
-75
  0
LINE
  8
0
 10
378
 20
-75
 11
378
 21
75
  0
LINE
  8
0
 10
378
 20
75
 11
368
 21
75
  0
LINE
  8
0
 10
368
 20
75
 11
368
 21
83
  0
LINE
  8
0
 10
368
 20
83
 11
358
 21
83
  0
LINE
  8
0
 10
358
 20
83
 11
358
 21
75
  0
LINE
  8
0
 10
358
 20
75
 11
348
 21
75
  0
LINE
  8
0
 10
348
 20
75
 11
348
 21
-75
  0
LINE
  8
0
 10
348
 20
-75
 11
358
 21
-75
  0
LINE
  8
0
 10
358
 20
-75
 11
358
 21
-83
  0
LINE
  8
0
 10
358
 20
-83
 11
368
 21
-83
  0
LINE
  8
0
 10
368
 20
-83
 11
368
 21
-75
  0
LINE
  8
0
 10
362.2
 20
18.6143
 11
361.4
 21
20
  0
LINE
  8
0
 10
361.4
 20
20
 11
361.4
 21
60
  0
LINE
  8
0
 10
361.4
 20
60
 11
362.2
 21
61.3856
  0
LINE
  8
0
 10
362.2
 20
61.3856
 11
363.8
 21
61.3856
  0
LINE
  8
0
 10
363.8
 20
61.3856
 11
364.6
 21
60
  0
LINE
  8
0
 10
364.6
 20
60
 11
364.6
 21
20
  0
LINE
  8
0
 10
364.6
 20
20
 11
363.8
 21
18.6143
  0
LINE
  8
0
 10
363.8
 20
18.6143
 11
362.2
 21
18.6143
  0
LINE
  8
0
 10
362.2
 20
-61.3856
 11
361.4
 21
-60
  0
LINE
  8
0
 10
361.4
 20
-60
 11
361.4
 21
-20
  0
LINE
  8
0
 10
361.4
 20
-20
 11
362.2
 21
-18.6143
  0
LINE
  8
0
 10
362.2
 20
-18.6143
 11
363.8
 21
-18.6143
  0
LINE
  8
0
 10
363.8
 20
-18.6143
 11
364.6
 21
-20
  0
LINE
  8
0
 10
364.6
 20
-20
 11
364.6
 21
-60
  0
LINE
  8
0
 10
364.6
 20
-60
 11
363.8
 21
-61.3856
  0
LINE
  8
0
 10
363.8
 20
-61.3856
 11
362.2
 21
-61.3856
  0
LINE
  8
0
 10
104
 20
-75
 11
114
 21
-75
  0
LINE
  8
0
 10
114
 20
-75
 11
114
 21
75
  0
LINE
  8
0
 10
114
 20
75
 11
104
 21
75
  0
LINE
  8
0
 10
104
 20
75
 11
104
 21
83
  0
LINE
  8
0
 10
104
 20
83
 11
94
 21
83
  0
LINE
  8
0
 10
94
 20
83
 11
94
 21
75
  0
LINE
  8
0
 10
94
 20
75
 11
84
 21
75
  0
LINE
  8
0
 10
84
 20
75
 11
84
 21
-75
  0
LINE
  8
0
 10
84
 20
-75
 11
94
 21
-75
  0
LINE
  8
0
 10
94
 20
-75
 11
94
 21
-83
  0
LINE
  8
0
 10
94
 20
-83
 11
104
 21
-83
  0
LINE
  8
0
 10
104
 20
-83
 11
104
 21
-75
  0
LINE
  8
0
 10
98.2
 20
18.6143
 11
97.4
 21
20
  0
LINE
  8
0
 10
97.4
 20
20
 11
97.4
 21
60
  0
LINE
  8
0
 10
97.4
 20
60
 11
98.2
 21
61.3856
  0
LINE
  8
0
 10
98.2
 20
61.3856
 11
99.8
 21
61.3856
  0
LINE
  8
0
 10
99.8
 20
61.3856
 11
100.6
 21
60
  0
LINE
  8
0
 10
100.6
 20
60
 11
100.6
 21
20
  0
LINE
  8
0
 10
100.6
 20
20
 11
99.8
 21
18.6143
  0
LINE
  8
0
 10
99.8
 20
18.6143
 11
98.2
 21
18.6143
  0
LINE
  8
0
 10
98.2
 20
-61.3856
 11
97.4
 21
-60
  0
LINE
  8
0
 10
97.4
 20
-60
 11
97.4
 21
-20
  0
LINE
  8
0
 10
97.4
 20
-20
 11
98.2
 21
-18.6143
  0
LINE
  8
0
 10
98.2
 20
-18.6143
 11
99.8
 21
-18.6143
  0
LINE
  8
0
 10
99.8
 20
-18.6143
 11
100.6
 21
-20
  0
LINE
  8
0
 10
100.6
 20
-20
 11
100.6
 21
-60
  0
LINE
  8
0
 10
100.6
 20
-60
 11
99.8
 21
-61.3856
  0
LINE
  8
0
 10
99.8
 20
-61.3856
 11
98.2
 21
-61.3856
  0
LINE
  8
0
 10
203
 20
-75
 11
213
 21
-75
  0
LINE
  8
0
 10
213
 20
-75
 11
213
 21
75
  0
LINE
  8
0
 10
213
 20
75
 11
203
 21
75
  0
LINE
  8
0
 10
203
 20
75
 11
203
 21
83
  0
LINE
  8
0
 10
203
 20
83
 11
193
 21
83
  0
LINE
  8
0
 10
193
 20
83
 11
193
 21
75
  0
LINE
  8
0
 10
193
 20
75
 11
183
 21
75
  0
LINE
  8
0
 10
183
 20
75
 11
183
 21
-75
  0
LINE
  8
0
 10
183
 20
-75
 11
193
 21
-75
  0
LINE
  8
0
 10
193
 20
-75
 11
193
 21
-83
  0
LINE
  8
0
 10
193
 20
-83
 11
203
 21
-83
  0
LINE
  8
0
 10
203
 20
-83
 11
203
 21
-75
  0
LINE
  8
0
 10
197.2
 20
18.6143
 11
196.4
 21
20
  0
LINE
  8
0
 10
196.4
 20
20
 11
196.4
 21
60
  0
LINE
  8
0
 10
196.4
 20
60
 11
197.2
 21
61.3856
  0
LINE
  8
0
 10
197.2
 20
61.3856
 11
198.8
 21
61.3856
  0
LINE
  8
0
 10
198.8
 20
61.3856
 11
199.6
 21
60
  0
LINE
  8
0
 10
199.6
 20
60
 11
199.6
 21
20
  0
LINE
  8
0
 10
199.6
 20
20
 11
198.8
 21
18.6143
  0
LINE
  8
0
 10
198.8
 20
18.6143
 11
197.2
 21
18.6143
  0
LINE
  8
0
 10
197.2
 20
-61.3856
 11
196.4
 21
-60
  0
LINE
  8
0
 10
196.4
 20
-60
 11
196.4
 21
-20
  0
LINE
  8
0
 10
196.4
 20
-20
 11
197.2
 21
-18.6143
  0
LINE
  8
0
 10
197.2
 20
-18.6143
 11
198.8
 21
-18.6143
  0
LINE
  8
0
 10
198.8
 20
-18.6143
 11
199.6
 21
-20
  0
LINE
  8
0
 10
199.6
 20
-20
 11
199.6
 21
-60
  0
LINE
  8
0
 10
199.6
 20
-60
 11
198.8
 21
-61.3856
  0
LINE
  8
0
 10
198.8
 20
-61.3856
 11
197.2
 21
-61.3856
  0
LINE
  8
0
 10
335
 20
-75
 11
345
 21
-75
  0
LINE
  8
0
 10
345
 20
-75
 11
345
 21
75
  0
LINE
  8
0
 10
345
 20
75
 11
335
 21
75
  0
LINE
  8
0
 10
335
 20
75
 11
335
 21
83
  0
LINE
  8
0
 10
335
 20
83
 11
325
 21
83
  0
LINE
  8
0
 10
325
 20
83
 11
325
 21
75
  0
LINE
  8
0
 10
325
 20
75
 11
315
 21
75
  0
LINE
  8
0
 10
315
 20
75
 11
315
 21
-75
  0
LINE
  8
0
 10
315
 20
-75
 11
325
 21
-75
  0
LINE
  8
0
 10
325
 20
-75
 11
325
 21
-83
  0
LINE
  8
0
 10
325
 20
-83
 11
335
 21
-83
  0
LINE
  8
0
 10
335
 20
-83
 11
335
 21
-75
  0
LINE
  8
0
 10
329.2
 20
18.6143
 11
328.4
 21
20
  0
LINE
  8
0
 10
328.4
 20
20
 11
328.4
 21
60
  0
LINE
  8
0
 10
328.4
 20
60
 11
329.2
 21
61.3856
  0
LINE
  8
0
 10
329.2
 20
61.3856
 11
330.8
 21
61.3856
  0
LINE
  8
0
 10
330.8
 20
61.3856
 11
331.6
 21
60
  0
LINE
  8
0
 10
331.6
 20
60
 11
331.6
 21
20
  0
LINE
  8
0
 10
331.6
 20
20
 11
330.8
 21
18.6143
  0
LINE
  8
0
 10
330.8
 20
18.6143
 11
329.2
 21
18.6143
  0
LINE
  8
0
 10
329.2
 20
-61.3856
 11
328.4
 21
-60
  0
LINE
  8
0
 10
328.4
 20
-60
 11
328.4
 21
-20
  0
LINE
  8
0
 10
328.4
 20
-20
 11
329.2
 21
-18.6143
  0
LINE
  8
0
 10
329.2
 20
-18.6143
 11
330.8
 21
-18.6143
  0
LINE
  8
0
 10
330.8
 20
-18.6143
 11
331.6
 21
-20
  0
LINE
  8
0
 10
331.6
 20
-20
 11
331.6
 21
-60
  0
LINE
  8
0
 10
331.6
 20
-60
 11
330.8
 21
-61.3856
  0
LINE
  8
0
 10
330.8
 20
-61.3856
 11
329.2
 21
-61.3856
  0
LINE
  8
0
 10
236
 20
-75
 11
246
 21
-75
  0
LINE
  8
0
 10
246
 20
-75
 11
246
 21
75
  0
LINE
  8
0
 10
246
 20
75
 11
236
 21
75
  0
LINE
  8
0
 10
236
 20
75
 11
236
 21
83
  0
LINE
  8
0
 10
236
 20
83
 11
226
 21
83
  0
LINE
  8
0
 10
226
 20
83
 11
226
 21
75
  0
LINE
  8
0
 10
226
 20
75
 11
216
 21
75
  0
LINE
  8
0
 10
216
 20
75
 11
216
 21
-75
  0
LINE
  8
0
 10
216
 20
-75
 11
226
 21
-75
  0
LINE
  8
0
 10
226
 20
-75
 11
226
 21
-83
  0
LINE
  8
0
 10
226
 20
-83
 11
236
 21
-83
  0
LINE
  8
0
 10
236
 20
-83
 11
236
 21
-75
  0
LINE
  8
0
 10
230.2
 20
18.6143
 11
229.4
 21
20
  0
LINE
  8
0
 10
229.4
 20
20
 11
229.4
 21
60
  0
LINE
  8
0
 10
229.4
 20
60
 11
230.2
 21
61.3856
  0
LINE
  8
0
 10
230.2
 20
61.3856
 11
231.8
 21
61.3856
  0
LINE
  8
0
 10
231.8
 20
61.3856
 11
232.6
 21
60
  0
LINE
  8
0
 10
232.6
 20
60
 11
232.6
 21
20
  0
LINE
  8
0
 10
232.6
 20
20
 11
231.8
 21
18.6143
  0
LINE
  8
0
 10
231.8
 20
18.6143
 11
230.2
 21
18.6143
  0
LINE
  8
0
 10
230.2
 20
-61.3856
 11
229.4
 21
-60
  0
LINE
  8
0
 10
229.4
 20
-60
 11
229.4
 21
-20
  0
LINE
  8
0
 10
229.4
 20
-20
 11
230.2
 21
-18.6143
  0
LINE
  8
0
 10
230.2
 20
-18.6143
 11
231.8
 21
-18.6143
  0
LINE
  8
0
 10
231.8
 20
-18.6143
 11
232.6
 21
-20
  0
LINE
  8
0
 10
232.6
 20
-20
 11
232.6
 21
-60
  0
LINE
  8
0
 10
232.6
 20
-60
 11
231.8
 21
-61.3856
  0
LINE
  8
0
 10
231.8
 20
-61.3856
 11
230.2
 21
-61.3856
  0
LINE
  8
0
 10
71
 20
-75
 11
81
 21
-75
  0
LINE
  8
0
 10
81
 20
-75
 11
81
 21
75
  0
LINE
  8
0
 10
81
 20
75
 11
71
 21
75
  0
LINE
  8
0
 10
71
 20
75
 11
71
 21
83
  0
LINE
  8
0
 10
71
 20
83
 11
61
 21
83
  0
LINE
  8
0
 10
61
 20
83
 11
61
 21
75
  0
LINE
  8
0
 10
61
 20
75
 11
51
 21
75
  0
LINE
  8
0
 10
51
 20
75
 11
51
 21
-75
  0
LINE
  8
0
 10
51
 20
-75
 11
61
 21
-75
  0
LINE
  8
0
 10
61
 20
-75
 11
61
 21
-83
  0
LINE
  8
0
 10
61
 20
-83
 11
71
 21
-83
  0
LINE
  8
0
 10
71
 20
-83
 11
71
 21
-75
  0
LINE
  8
0
 10
65.2
 20
18.6143
 11
64.4
 21
20
  0
LINE
  8
0
 10
64.4
 20
20
 11
64.4
 21
60
  0
LINE
  8
0
 10
64.4
 20
60
 11
65.2
 21
61.3856
  0
LINE
  8
0
 10
65.2
 20
61.3856
 11
66.8
 21
61.3856
  0
LINE
  8
0
 10
66.8
 20
61.3856
 11
67.6
 21
60
  0
LINE
  8
0
 10
67.6
 20
60
 11
67.6
 21
20
  0
LINE
  8
0
 10
67.6
 20
20
 11
66.8
 21
18.6143
  0
LINE
  8
0
 10
66.8
 20
18.6143
 11
65.2
 21
18.6143
  0
LINE
  8
0
 10
65.2
 20
-61.3856
 11
64.4
 21
-60
  0
LINE
  8
0
 10
64.4
 20
-60
 11
64.4
 21
-20
  0
LINE
  8
0
 10
64.4
 20
-20
 11
65.2
 21
-18.6143
  0
LINE
  8
0
 10
65.2
 20
-18.6143
 11
66.8
 21
-18.6143
  0
LINE
  8
0
 10
66.8
 20
-18.6143
 11
67.6
 21
-20
  0
LINE
  8
0
 10
67.6
 20
-20
 11
67.6
 21
-60
  0
LINE
  8
0
 10
67.6
 20
-60
 11
66.8
 21
-61.3856
  0
LINE
  8
0
 10
66.8
 20
-61.3856
 11
65.2
 21
-61.3856
  0
LINE
  8
0
 10
38
 20
-75
 11
48
 21
-75
  0
LINE
  8
0
 10
48
 20
-75
 11
48
 21
75
  0
LINE
  8
0
 10
48
 20
75
 11
38
 21
75
  0
LINE
  8
0
 10
38
 20
75
 11
38
 21
83
  0
LINE
  8
0
 10
38
 20
83
 11
28
 21
83
  0
LINE
  8
0
 10
28
 20
83
 11
28
 21
75
  0
LINE
  8
0
 10
28
 20
75
 11
18
 21
75
  0
LINE
  8
0
 10
18
 20
75
 11
18
 21
-75
  0
LINE
  8
0
 10
18
 20
-75
 11
28
 21
-75
  0
LINE
  8
0
 10
28
 20
-75
 11
28
 21
-83
  0
LINE
  8
0
 10
28
 20
-83
 11
38
 21
-83
  0
LINE
  8
0
 10
38
 20
-83
 11
38
 21
-75
  0
LINE
  8
0
 10
32.2
 20
18.6143
 11
31.4
 21
20
  0
LINE
  8
0
 10
31.4
 20
20
 11
31.4
 21
60
  0
LINE
  8
0
 10
31.4
 20
60
 11
32.2
 21
61.3856
  0
LINE
  8
0
 10
32.2
 20
61.3856
 11
33.8
 21
61.3856
  0
LINE
  8
0
 10
33.8
 20
61.3856
 11
34.6
 21
60
  0
LINE
  8
0
 10
34.6
 20
60
 11
34.6
 21
20
  0
LINE
  8
0
 10
34.6
 20
20
 11
33.8
 21
18.6143
  0
LINE
  8
0
 10
33.8
 20
18.6143
 11
32.2
 21
18.6143
  0
LINE
  8
0
 10
32.2
 20
-61.3856
 11
31.4
 21
-60
  0
LINE
  8
0
 10
31.4
 20
-60
 11
31.4
 21
-20
  0
LINE
  8
0
 10
31.4
 20
-20
 11
32.2
 21
-18.6143
  0
LINE
  8
0
 10
32.2
 20
-18.6143
 11
33.8
 21
-18.6143
  0
LINE
  8
0
 10
33.8
 20
-18.6143
 11
34.6
 21
-20
  0
LINE
  8
0
 10
34.6
 20
-20
 11
34.6
 21
-60
  0
LINE
  8
0
 10
34.6
 20
-60
 11
33.8
 21
-61.3856
  0
LINE
  8
0
 10
33.8
 20
-61.3856
 11
32.2
 21
-61.3856
  0
LINE
  8
0
 10
269
 20
-75
 11
279
 21
-75
  0
LINE
  8
0
 10
279
 20
-75
 11
279
 21
75
  0
LINE
  8
0
 10
279
 20
75
 11
269
 21
75
  0
LINE
  8
0
 10
269
 20
75
 11
269
 21
83
  0
LINE
  8
0
 10
269
 20
83
 11
259
 21
83
  0
LINE
  8
0
 10
259
 20
83
 11
259
 21
75
  0
LINE
  8
0
 10
259
 20
75
 11
249
 21
75
  0
LINE
  8
0
 10
249
 20
75
 11
249
 21
-75
  0
LINE
  8
0
 10
249
 20
-75
 11
259
 21
-75
  0
LINE
  8
0
 10
259
 20
-75
 11
259
 21
-83
  0
LINE
  8
0
 10
259
 20
-83
 11
269
 21
-83
  0
LINE
  8
0
 10
269
 20
-83
 11
269
 21
-75
  0
LINE
  8
0
 10
263.2
 20
18.6143
 11
262.4
 21
20
  0
LINE
  8
0
 10
262.4
 20
20
 11
262.4
 21
60
  0
LINE
  8
0
 10
262.4
 20
60
 11
263.2
 21
61.3856
  0
LINE
  8
0
 10
263.2
 20
61.3856
 11
264.8
 21
61.3856
  0
LINE
  8
0
 10
264.8
 20
61.3856
 11
265.6
 21
60
  0
LINE
  8
0
 10
265.6
 20
60
 11
265.6
 21
20
  0
LINE
  8
0
 10
265.6
 20
20
 11
264.8
 21
18.6143
  0
LINE
  8
0
 10
264.8
 20
18.6143
 11
263.2
 21
18.6143
  0
LINE
  8
0
 10
263.2
 20
-61.3856
 11
262.4
 21
-60
  0
LINE
  8
0
 10
262.4
 20
-60
 11
262.4
 21
-20
  0
LINE
  8
0
 10
262.4
 20
-20
 11
263.2
 21
-18.6143
  0
LINE
  8
0
 10
263.2
 20
-18.6143
 11
264.8
 21
-18.6143
  0
LINE
  8
0
 10
264.8
 20
-18.6143
 11
265.6
 21
-20
  0
LINE
  8
0
 10
265.6
 20
-20
 11
265.6
 21
-60
  0
LINE
  8
0
 10
265.6
 20
-60
 11
264.8
 21
-61.3856
  0
LINE
  8
0
 10
264.8
 20
-61.3856
 11
263.2
 21
-61.3856
  0
LINE
  8
0
 10
302
 20
-75
 11
312
 21
-75
  0
LINE
  8
0
 10
312
 20
-75
 11
312
 21
75
  0
LINE
  8
0
 10
312
 20
75
 11
302
 21
75
  0
LINE
  8
0
 10
302
 20
75
 11
302
 21
83
  0
LINE
  8
0
 10
302
 20
83
 11
292
 21
83
  0
LINE
  8
0
 10
292
 20
83
 11
292
 21
75
  0
LINE
  8
0
 10
292
 20
75
 11
282
 21
75
  0
LINE
  8
0
 10
282
 20
75
 11
282
 21
-75
  0
LINE
  8
0
 10
282
 20
-75
 11
292
 21
-75
  0
LINE
  8
0
 10
292
 20
-75
 11
292
 21
-83
  0
LINE
  8
0
 10
292
 20
-83
 11
302
 21
-83
  0
LINE
  8
0
 10
302
 20
-83
 11
302
 21
-75
  0
LINE
  8
0
 10
296.2
 20
18.6143
 11
295.4
 21
20
  0
LINE
  8
0
 10
295.4
 20
20
 11
295.4
 21
60
  0
LINE
  8
0
 10
295.4
 20
60
 11
296.2
 21
61.3856
  0
LINE
  8
0
 10
296.2
 20
61.3856
 11
297.8
 21
61.3856
  0
LINE
  8
0
 10
297.8
 20
61.3856
 11
298.6
 21
60
  0
LINE
  8
0
 10
298.6
 20
60
 11
298.6
 21
20
  0
LINE
  8
0
 10
298.6
 20
20
 11
297.8
 21
18.6143
  0
LINE
  8
0
 10
297.8
 20
18.6143
 11
296.2
 21
18.6143
  0
LINE
  8
0
 10
296.2
 20
-61.3856
 11
295.4
 21
-60
  0
LINE
  8
0
 10
295.4
 20
-60
 11
295.4
 21
-20
  0
LINE
  8
0
 10
295.4
 20
-20
 11
296.2
 21
-18.6143
  0
LINE
  8
0
 10
296.2
 20
-18.6143
 11
297.8
 21
-18.6143
  0
LINE
  8
0
 10
297.8
 20
-18.6143
 11
298.6
 21
-20
  0
LINE
  8
0
 10
298.6
 20
-20
 11
298.6
 21
-60
  0
LINE
  8
0
 10
298.6
 20
-60
 11
297.8
 21
-61.3856
  0
LINE
  8
0
 10
297.8
 20
-61.3856
 11
296.2
 21
-61.3856
  0
ENDSEC
  0
SECTION
  2
OBJECTS
  0
DICTIONARY
  0
ENDSEC
  0
EOF
