  0
SECTION
  2
BLOCKS
  0
ENDSEC
  0
SECTION
  2
ENTITIES
  0
LINE
  8
0
 10
3.12144
 20
-211.693
 11
6.12292
 21
-210.782
  0
LINE
  8
0
 10
6.12292
 20
-210.782
 11
8.88911
 21
-209.304
  0
LINE
  8
0
 10
8.88911
 20
-209.304
 11
11.3137
 21
-207.314
  0
LINE
  8
0
 10
11.3137
 20
-207.314
 11
13.3035
 21
-204.889
  0
LINE
  8
0
 10
13.3035
 20
-204.889
 11
14.7821
 21
-202.123
  0
LINE
  8
0
 10
14.7821
 20
-202.123
 11
15.6926
 21
-199.121
  0
LINE
  8
0
 10
15.6926
 20
-199.121
 11
16
 21
-196
  0
LINE
  8
0
 10
16
 20
-196
 11
15.9354
 21
-195.344
  0
LINE
  8
0
 10
15.9354
 20
-195.344
 11
17.0825
 21
-195.254
  0
LINE
  8
0
 10
17.0825
 20
-195.254
 11
20.4876
 21
-194.926
  0
LINE
  8
0
 10
20.4876
 20
-194.926
 11
23.8864
 21
-194.539
  0
LINE
  8
0
 10
23.8864
 20
-194.539
 11
27.2779
 21
-194.093
  0
LINE
  8
0
 10
27.2779
 20
-194.093
 11
30.6611
 21
-193.587
  0
LINE
  8
0
 10
30.6611
 20
-193.587
 11
34.035
 21
-193.022
  0
LINE
  8
0
 10
34.035
 20
-193.022
 11
37.3986
 21
-192.399
  0
LINE
  8
0
 10
37.3986
 20
-192.399
 11
40.7507
 21
-191.717
  0
LINE
  8
0
 10
40.7507
 20
-191.717
 11
44.0904
 21
-190.977
  0
LINE
  8
0
 10
44.0904
 20
-190.977
 11
47.4167
 21
-190.178
  0
LINE
  8
0
 10
47.4167
 20
-190.178
 11
50.7285
 21
-189.321
  0
LINE
  8
0
 10
50.7285
 20
-189.321
 11
54.0249
 21
-188.407
  0
LINE
  8
0
 10
54.0249
 20
-188.407
 11
57.3048
 21
-187.436
  0
LINE
  8
0
 10
57.3048
 20
-187.436
 11
60.5673
 21
-186.407
  0
LINE
  8
0
 10
60.5673
 20
-186.407
 11
63.8114
 21
-185.322
  0
LINE
  8
0
 10
63.8114
 20
-185.322
 11
67.0359
 21
-184.18
  0
LINE
  8
0
 10
67.0359
 20
-184.18
 11
70.2401
 21
-182.982
  0
LINE
  8
0
 10
70.2401
 20
-182.982
 11
73.4229
 21
-181.728
  0
LINE
  8
0
 10
73.4229
 20
-181.728
 11
76.5833
 21
-180.419
  0
LINE
  8
0
 10
76.5833
 20
-180.419
 11
79.7204
 21
-179.055
  0
LINE
  8
0
 10
79.7204
 20
-179.055
 11
82.8332
 21
-177.636
  0
LINE
  8
0
 10
82.8332
 20
-177.636
 11
85.9207
 21
-176.164
  0
LINE
  8
0
 10
85.9207
 20
-176.164
 11
88.9821
 21
-174.637
  0
LINE
  8
0
 10
88.9821
 20
-174.637
 11
92.0164
 21
-173.058
  0
LINE
  8
0
 10
92.0164
 20
-173.058
 11
95.0227
 21
-171.425
  0
LINE
  8
0
 10
95.0227
 20
-171.425
 11
98
 21
-169.741
  0
LINE
  8
0
 10
98
 20
-169.741
 11
100.947
 21
-168.005
  0
LINE
  8
0
 10
100.947
 20
-168.005
 11
103.864
 21
-166.217
  0
LINE
  8
0
 10
103.864
 20
-166.217
 11
106.749
 21
-164.379
  0
LINE
  8
0
 10
106.749
 20
-164.379
 11
109.602
 21
-162.491
  0
LINE
  8
0
 10
109.602
 20
-162.491
 11
112.421
 21
-160.554
  0
LINE
  8
0
 10
112.421
 20
-160.554
 11
115.206
 21
-158.567
  0
LINE
  8
0
 10
115.206
 20
-158.567
 11
117.956
 21
-156.533
  0
LINE
  8
0
 10
117.956
 20
-156.533
 11
120.67
 21
-154.45
  0
LINE
  8
0
 10
120.67
 20
-154.45
 11
123.347
 21
-152.321
  0
LINE
  8
0
 10
123.347
 20
-152.321
 11
125.986
 21
-150.145
  0
LINE
  8
0
 10
125.986
 20
-150.145
 11
126.861
 21
-149.397
  0
LINE
  8
0
 10
126.861
 20
-149.397
 11
127.279
 21
-149.907
  0
LINE
  8
0
 10
127.279
 20
-149.907
 11
129.704
 21
-151.896
  0
LINE
  8
0
 10
129.704
 20
-151.896
 11
132.47
 21
-153.375
  0
LINE
  8
0
 10
132.47
 20
-153.375
 11
135.471
 21
-154.285
  0
LINE
  8
0
 10
135.471
 20
-154.285
 11
138.593
 21
-154.593
  0
LINE
  8
0
 10
138.593
 20
-154.593
 11
141.714
 21
-154.285
  0
LINE
  8
0
 10
141.714
 20
-154.285
 11
144.716
 21
-153.375
  0
LINE
  8
0
 10
144.716
 20
-153.375
 11
147.482
 21
-151.896
  0
LINE
  8
0
 10
147.482
 20
-151.896
 11
149.907
 21
-149.907
  0
LINE
  8
0
 10
149.907
 20
-149.907
 11
151.896
 21
-147.482
  0
LINE
  8
0
 10
151.896
 20
-147.482
 11
153.375
 21
-144.716
  0
LINE
  8
0
 10
153.375
 20
-144.716
 11
154.285
 21
-141.714
  0
LINE
  8
0
 10
154.285
 20
-141.714
 11
154.593
 21
-138.593
  0
LINE
  8
0
 10
154.593
 20
-138.593
 11
154.285
 21
-135.471
  0
LINE
  8
0
 10
154.285
 20
-135.471
 11
153.375
 21
-132.47
  0
LINE
  8
0
 10
153.375
 20
-132.47
 11
151.896
 21
-129.704
  0
LINE
  8
0
 10
151.896
 20
-129.704
 11
149.907
 21
-127.279
  0
LINE
  8
0
 10
149.907
 20
-127.279
 11
149.397
 21
-126.861
  0
LINE
  8
0
 10
149.397
 20
-126.861
 11
150.145
 21
-125.986
  0
LINE
  8
0
 10
150.145
 20
-125.986
 11
152.321
 21
-123.347
  0
LINE
  8
0
 10
152.321
 20
-123.347
 11
154.45
 21
-120.67
  0
LINE
  8
0
 10
154.45
 20
-120.67
 11
156.533
 21
-117.956
  0
LINE
  8
0
 10
156.533
 20
-117.956
 11
158.567
 21
-115.206
  0
LINE
  8
0
 10
158.567
 20
-115.206
 11
160.554
 21
-112.421
  0
LINE
  8
0
 10
160.554
 20
-112.421
 11
162.491
 21
-109.602
  0
LINE
  8
0
 10
162.491
 20
-109.602
 11
164.379
 21
-106.749
  0
LINE
  8
0
 10
164.379
 20
-106.749
 11
166.217
 21
-103.864
  0
LINE
  8
0
 10
166.217
 20
-103.864
 11
168.005
 21
-100.947
  0
LINE
  8
0
 10
168.005
 20
-100.947
 11
169.741
 21
-98
  0
LINE
  8
0
 10
169.741
 20
-98
 11
171.425
 21
-95.0227
  0
LINE
  8
0
 10
171.425
 20
-95.0227
 11
173.058
 21
-92.0164
  0
LINE
  8
0
 10
173.058
 20
-92.0164
 11
174.637
 21
-88.9821
  0
LINE
  8
0
 10
174.637
 20
-88.9821
 11
176.164
 21
-85.9207
  0
LINE
  8
0
 10
176.164
 20
-85.9207
 11
177.636
 21
-82.8332
  0
LINE
  8
0
 10
177.636
 20
-82.8332
 11
179.055
 21
-79.7204
  0
LINE
  8
0
 10
179.055
 20
-79.7204
 11
180.419
 21
-76.5833
  0
LINE
  8
0
 10
180.419
 20
-76.5833
 11
181.728
 21
-73.4229
  0
LINE
  8
0
 10
181.728
 20
-73.4229
 11
182.982
 21
-70.2401
  0
LINE
  8
0
 10
182.982
 20
-70.2401
 11
184.18
 21
-67.0359
  0
LINE
  8
0
 10
184.18
 20
-67.0359
 11
185.322
 21
-63.8114
  0
LINE
  8
0
 10
185.322
 20
-63.8114
 11
186.407
 21
-60.5673
  0
LINE
  8
0
 10
186.407
 20
-60.5673
 11
187.436
 21
-57.3048
  0
LINE
  8
0
 10
187.436
 20
-57.3048
 11
188.407
 21
-54.0249
  0
LINE
  8
0
 10
188.407
 20
-54.0249
 11
189.321
 21
-50.7285
  0
LINE
  8
0
 10
189.321
 20
-50.7285
 11
190.178
 21
-47.4167
  0
LINE
  8
0
 10
190.178
 20
-47.4167
 11
190.977
 21
-44.0904
  0
LINE
  8
0
 10
190.977
 20
-44.0904
 11
191.717
 21
-40.7507
  0
LINE
  8
0
 10
191.717
 20
-40.7507
 11
192.399
 21
-37.3986
  0
LINE
  8
0
 10
192.399
 20
-37.3986
 11
193.022
 21
-34.035
  0
LINE
  8
0
 10
193.022
 20
-34.035
 11
193.587
 21
-30.6611
  0
LINE
  8
0
 10
193.587
 20
-30.6611
 11
194.093
 21
-27.2779
  0
LINE
  8
0
 10
194.093
 20
-27.2779
 11
194.539
 21
-23.8864
  0
LINE
  8
0
 10
194.539
 20
-23.8864
 11
194.926
 21
-20.4876
  0
LINE
  8
0
 10
194.926
 20
-20.4876
 11
195.254
 21
-17.0825
  0
LINE
  8
0
 10
195.254
 20
-17.0825
 11
195.344
 21
-15.9354
  0
LINE
  8
0
 10
195.344
 20
-15.9354
 11
196
 21
-16
  0
LINE
  8
0
 10
196
 20
-16
 11
199.121
 21
-15.6926
  0
LINE
  8
0
 10
199.121
 20
-15.6926
 11
202.123
 21
-14.7821
  0
LINE
  8
0
 10
202.123
 20
-14.7821
 11
204.889
 21
-13.3035
  0
LINE
  8
0
 10
204.889
 20
-13.3035
 11
207.314
 21
-11.3137
  0
LINE
  8
0
 10
207.314
 20
-11.3137
 11
209.304
 21
-8.88911
  0
LINE
  8
0
 10
209.304
 20
-8.88911
 11
210.782
 21
-6.12292
  0
LINE
  8
0
 10
210.782
 20
-6.12292
 11
211.693
 21
-3.12144
  0
LINE
  8
0
 10
211.693
 20
-3.12144
 11
212
 21
0
  0
LINE
  8
0
 10
212
 20
0
 11
211.693
 21
3.12144
  0
LINE
  8
0
 10
211.693
 20
3.12144
 11
210.782
 21
6.12292
  0
LINE
  8
0
 10
210.782
 20
6.12292
 11
209.304
 21
8.88911
  0
LINE
  8
0
 10
209.304
 20
8.88911
 11
207.314
 21
11.3137
  0
LINE
  8
0
 10
207.314
 20
11.3137
 11
204.889
 21
13.3035
  0
LINE
  8
0
 10
204.889
 20
13.3035
 11
202.123
 21
14.7821
  0
LINE
  8
0
 10
202.123
 20
14.7821
 11
199.121
 21
15.6926
  0
LINE
  8
0
 10
199.121
 20
15.6926
 11
196
 21
16
  0
LINE
  8
0
 10
196
 20
16
 11
195.344
 21
15.9354
  0
LINE
  8
0
 10
195.344
 20
15.9354
 11
195.254
 21
17.0825
  0
LINE
  8
0
 10
195.254
 20
17.0825
 11
194.926
 21
20.4876
  0
LINE
  8
0
 10
194.926
 20
20.4876
 11
194.539
 21
23.8864
  0
LINE
  8
0
 10
194.539
 20
23.8864
 11
194.093
 21
27.2779
  0
LINE
  8
0
 10
194.093
 20
27.2779
 11
193.587
 21
30.6611
  0
LINE
  8
0
 10
193.587
 20
30.6611
 11
193.022
 21
34.035
  0
LINE
  8
0
 10
193.022
 20
34.035
 11
192.399
 21
37.3986
  0
LINE
  8
0
 10
192.399
 20
37.3986
 11
191.717
 21
40.7507
  0
LINE
  8
0
 10
191.717
 20
40.7507
 11
190.977
 21
44.0904
  0
LINE
  8
0
 10
190.977
 20
44.0904
 11
190.178
 21
47.4167
  0
LINE
  8
0
 10
190.178
 20
47.4167
 11
189.321
 21
50.7285
  0
LINE
  8
0
 10
189.321
 20
50.7285
 11
188.407
 21
54.0249
  0
LINE
  8
0
 10
188.407
 20
54.0249
 11
187.436
 21
57.3048
  0
LINE
  8
0
 10
187.436
 20
57.3048
 11
186.407
 21
60.5673
  0
LINE
  8
0
 10
186.407
 20
60.5673
 11
185.322
 21
63.8114
  0
LINE
  8
0
 10
185.322
 20
63.8114
 11
184.18
 21
67.0359
  0
LINE
  8
0
 10
184.18
 20
67.0359
 11
182.982
 21
70.2401
  0
LINE
  8
0
 10
182.982
 20
70.2401
 11
181.728
 21
73.4229
  0
LINE
  8
0
 10
181.728
 20
73.4229
 11
180.419
 21
76.5833
  0
LINE
  8
0
 10
180.419
 20
76.5833
 11
179.055
 21
79.7204
  0
LINE
  8
0
 10
179.055
 20
79.7204
 11
177.636
 21
82.8332
  0
LINE
  8
0
 10
177.636
 20
82.8332
 11
176.164
 21
85.9207
  0
LINE
  8
0
 10
176.164
 20
85.9207
 11
174.637
 21
88.9821
  0
LINE
  8
0
 10
174.637
 20
88.9821
 11
173.058
 21
92.0164
  0
LINE
  8
0
 10
173.058
 20
92.0164
 11
171.425
 21
95.0227
  0
LINE
  8
0
 10
171.425
 20
95.0227
 11
169.741
 21
98
  0
LINE
  8
0
 10
169.741
 20
98
 11
168.005
 21
100.947
  0
LINE
  8
0
 10
168.005
 20
100.947
 11
166.217
 21
103.864
  0
LINE
  8
0
 10
166.217
 20
103.864
 11
164.379
 21
106.749
  0
LINE
  8
0
 10
164.379
 20
106.749
 11
162.491
 21
109.602
  0
LINE
  8
0
 10
162.491
 20
109.602
 11
160.554
 21
112.421
  0
LINE
  8
0
 10
160.554
 20
112.421
 11
158.567
 21
115.206
  0
LINE
  8
0
 10
158.567
 20
115.206
 11
156.533
 21
117.956
  0
LINE
  8
0
 10
156.533
 20
117.956
 11
154.45
 21
120.67
  0
LINE
  8
0
 10
154.45
 20
120.67
 11
152.321
 21
123.347
  0
LINE
  8
0
 10
152.321
 20
123.347
 11
150.145
 21
125.986
  0
LINE
  8
0
 10
150.145
 20
125.986
 11
149.397
 21
126.861
  0
LINE
  8
0
 10
149.397
 20
126.861
 11
149.907
 21
127.279
  0
LINE
  8
0
 10
149.907
 20
127.279
 11
151.896
 21
129.704
  0
LINE
  8
0
 10
151.896
 20
129.704
 11
153.375
 21
132.47
  0
LINE
  8
0
 10
153.375
 20
132.47
 11
154.285
 21
135.471
  0
LINE
  8
0
 10
154.285
 20
135.471
 11
154.593
 21
138.593
  0
LINE
  8
0
 10
154.593
 20
138.593
 11
154.285
 21
141.714
  0
LINE
  8
0
 10
154.285
 20
141.714
 11
153.375
 21
144.716
  0
LINE
  8
0
 10
153.375
 20
144.716
 11
151.896
 21
147.482
  0
LINE
  8
0
 10
151.896
 20
147.482
 11
149.907
 21
149.907
  0
LINE
  8
0
 10
149.907
 20
149.907
 11
147.482
 21
151.896
  0
LINE
  8
0
 10
147.482
 20
151.896
 11
144.716
 21
153.375
  0
LINE
  8
0
 10
144.716
 20
153.375
 11
141.714
 21
154.285
  0
LINE
  8
0
 10
141.714
 20
154.285
 11
138.593
 21
154.593
  0
LINE
  8
0
 10
138.593
 20
154.593
 11
135.471
 21
154.285
  0
LINE
  8
0
 10
135.471
 20
154.285
 11
132.47
 21
153.375
  0
LINE
  8
0
 10
132.47
 20
153.375
 11
129.704
 21
151.896
  0
LINE
  8
0
 10
129.704
 20
151.896
 11
127.279
 21
149.907
  0
LINE
  8
0
 10
127.279
 20
149.907
 11
126.861
 21
149.397
  0
LINE
  8
0
 10
126.861
 20
149.397
 11
125.986
 21
150.145
  0
LINE
  8
0
 10
125.986
 20
150.145
 11
123.347
 21
152.321
  0
LINE
  8
0
 10
123.347
 20
152.321
 11
120.67
 21
154.45
  0
LINE
  8
0
 10
120.67
 20
154.45
 11
117.956
 21
156.533
  0
LINE
  8
0
 10
117.956
 20
156.533
 11
115.206
 21
158.567
  0
LINE
  8
0
 10
115.206
 20
158.567
 11
112.421
 21
160.554
  0
LINE
  8
0
 10
112.421
 20
160.554
 11
109.602
 21
162.491
  0
LINE
  8
0
 10
109.602
 20
162.491
 11
106.749
 21
164.379
  0
LINE
  8
0
 10
106.749
 20
164.379
 11
103.864
 21
166.217
  0
LINE
  8
0
 10
103.864
 20
166.217
 11
100.947
 21
168.005
  0
LINE
  8
0
 10
100.947
 20
168.005
 11
98
 21
169.741
  0
LINE
  8
0
 10
98
 20
169.741
 11
95.0227
 21
171.425
  0
LINE
  8
0
 10
95.0227
 20
171.425
 11
92.0164
 21
173.058
  0
LINE
  8
0
 10
92.0164
 20
173.058
 11
88.9821
 21
174.637
  0
LINE
  8
0
 10
88.9821
 20
174.637
 11
85.9207
 21
176.164
  0
LINE
  8
0
 10
85.9207
 20
176.164
 11
82.8332
 21
177.636
  0
LINE
  8
0
 10
82.8332
 20
177.636
 11
79.7204
 21
179.055
  0
LINE
  8
0
 10
79.7204
 20
179.055
 11
76.5833
 21
180.419
  0
LINE
  8
0
 10
76.5833
 20
180.419
 11
73.4229
 21
181.728
  0
LINE
  8
0
 10
73.4229
 20
181.728
 11
70.2401
 21
182.982
  0
LINE
  8
0
 10
70.2401
 20
182.982
 11
67.0359
 21
184.18
  0
LINE
  8
0
 10
67.0359
 20
184.18
 11
63.8114
 21
185.322
  0
LINE
  8
0
 10
63.8114
 20
185.322
 11
60.5673
 21
186.407
  0
LINE
  8
0
 10
60.5673
 20
186.407
 11
57.3048
 21
187.436
  0
LINE
  8
0
 10
57.3048
 20
187.436
 11
54.0249
 21
188.407
  0
LINE
  8
0
 10
54.0249
 20
188.407
 11
50.7285
 21
189.321
  0
LINE
  8
0
 10
50.7285
 20
189.321
 11
47.4167
 21
190.178
  0
LINE
  8
0
 10
47.4167
 20
190.178
 11
44.0904
 21
190.977
  0
LINE
  8
0
 10
44.0904
 20
190.977
 11
40.7507
 21
191.717
  0
LINE
  8
0
 10
40.7507
 20
191.717
 11
37.3986
 21
192.399
  0
LINE
  8
0
 10
37.3986
 20
192.399
 11
34.035
 21
193.022
  0
LINE
  8
0
 10
34.035
 20
193.022
 11
30.6611
 21
193.587
  0
LINE
  8
0
 10
30.6611
 20
193.587
 11
27.2779
 21
194.093
  0
LINE
  8
0
 10
27.2779
 20
194.093
 11
23.8864
 21
194.539
  0
LINE
  8
0
 10
23.8864
 20
194.539
 11
20.4876
 21
194.926
  0
LINE
  8
0
 10
20.4876
 20
194.926
 11
17.0825
 21
195.254
  0
LINE
  8
0
 10
17.0825
 20
195.254
 11
15.9354
 21
195.344
  0
LINE
  8
0
 10
15.9354
 20
195.344
 11
16
 21
196
  0
LINE
  8
0
 10
16
 20
196
 11
15.6926
 21
199.121
  0
LINE
  8
0
 10
15.6926
 20
199.121
 11
14.7821
 21
202.123
  0
LINE
  8
0
 10
14.7821
 20
202.123
 11
13.3035
 21
204.889
  0
LINE
  8
0
 10
13.3035
 20
204.889
 11
11.3137
 21
207.314
  0
LINE
  8
0
 10
11.3137
 20
207.314
 11
8.88911
 21
209.304
  0
LINE
  8
0
 10
8.88911
 20
209.304
 11
6.12292
 21
210.782
  0
LINE
  8
0
 10
6.12292
 20
210.782
 11
3.12144
 21
211.693
  0
LINE
  8
0
 10
3.12144
 20
211.693
 11
0
 21
212
  0
LINE
  8
0
 10
0
 20
212
 11
-3.12144
 21
211.693
  0
LINE
  8
0
 10
-3.12144
 20
211.693
 11
-6.12292
 21
210.782
  0
LINE
  8
0
 10
-6.12292
 20
210.782
 11
-8.88911
 21
209.304
  0
LINE
  8
0
 10
-8.88911
 20
209.304
 11
-11.3137
 21
207.314
  0
LINE
  8
0
 10
-11.3137
 20
207.314
 11
-13.3035
 21
204.889
  0
LINE
  8
0
 10
-13.3035
 20
204.889
 11
-14.7821
 21
202.123
  0
LINE
  8
0
 10
-14.7821
 20
202.123
 11
-15.6926
 21
199.121
  0
LINE
  8
0
 10
-15.6926
 20
199.121
 11
-16
 21
196
  0
LINE
  8
0
 10
-16
 20
196
 11
-15.9354
 21
195.344
  0
LINE
  8
0
 10
-15.9354
 20
195.344
 11
-17.0825
 21
195.254
  0
LINE
  8
0
 10
-17.0825
 20
195.254
 11
-20.4876
 21
194.926
  0
LINE
  8
0
 10
-20.4876
 20
194.926
 11
-23.8864
 21
194.539
  0
LINE
  8
0
 10
-23.8864
 20
194.539
 11
-27.2779
 21
194.093
  0
LINE
  8
0
 10
-27.2779
 20
194.093
 11
-30.6611
 21
193.587
  0
LINE
  8
0
 10
-30.6611
 20
193.587
 11
-34.035
 21
193.022
  0
LINE
  8
0
 10
-34.035
 20
193.022
 11
-37.3986
 21
192.399
  0
LINE
  8
0
 10
-37.3986
 20
192.399
 11
-40.7507
 21
191.717
  0
LINE
  8
0
 10
-40.7507
 20
191.717
 11
-44.0904
 21
190.977
  0
LINE
  8
0
 10
-44.0904
 20
190.977
 11
-47.4167
 21
190.178
  0
LINE
  8
0
 10
-47.4167
 20
190.178
 11
-50.7285
 21
189.321
  0
LINE
  8
0
 10
-50.7285
 20
189.321
 11
-54.0249
 21
188.407
  0
LINE
  8
0
 10
-54.0249
 20
188.407
 11
-57.3048
 21
187.436
  0
LINE
  8
0
 10
-57.3048
 20
187.436
 11
-60.5673
 21
186.407
  0
LINE
  8
0
 10
-60.5673
 20
186.407
 11
-63.8114
 21
185.322
  0
LINE
  8
0
 10
-63.8114
 20
185.322
 11
-67.0359
 21
184.18
  0
LINE
  8
0
 10
-67.0359
 20
184.18
 11
-70.2401
 21
182.982
  0
LINE
  8
0
 10
-70.2401
 20
182.982
 11
-73.4229
 21
181.728
  0
LINE
  8
0
 10
-73.4229
 20
181.728
 11
-76.5833
 21
180.419
  0
LINE
  8
0
 10
-76.5833
 20
180.419
 11
-79.7204
 21
179.055
  0
LINE
  8
0
 10
-79.7204
 20
179.055
 11
-82.8332
 21
177.636
  0
LINE
  8
0
 10
-82.8332
 20
177.636
 11
-85.9207
 21
176.164
  0
LINE
  8
0
 10
-85.9207
 20
176.164
 11
-88.9821
 21
174.637
  0
LINE
  8
0
 10
-88.9821
 20
174.637
 11
-92.0164
 21
173.058
  0
LINE
  8
0
 10
-92.0164
 20
173.058
 11
-95.0227
 21
171.425
  0
LINE
  8
0
 10
-95.0227
 20
171.425
 11
-98
 21
169.741
  0
LINE
  8
0
 10
-98
 20
169.741
 11
-100.947
 21
168.005
  0
LINE
  8
0
 10
-100.947
 20
168.005
 11
-103.864
 21
166.217
  0
LINE
  8
0
 10
-103.864
 20
166.217
 11
-106.749
 21
164.379
  0
LINE
  8
0
 10
-106.749
 20
164.379
 11
-109.602
 21
162.491
  0
LINE
  8
0
 10
-109.602
 20
162.491
 11
-112.421
 21
160.554
  0
LINE
  8
0
 10
-112.421
 20
160.554
 11
-115.206
 21
158.567
  0
LINE
  8
0
 10
-115.206
 20
158.567
 11
-117.956
 21
156.533
  0
LINE
  8
0
 10
-117.956
 20
156.533
 11
-120.67
 21
154.45
  0
LINE
  8
0
 10
-120.67
 20
154.45
 11
-123.347
 21
152.321
  0
LINE
  8
0
 10
-123.347
 20
152.321
 11
-125.986
 21
150.145
  0
LINE
  8
0
 10
-125.986
 20
150.145
 11
-126.861
 21
149.397
  0
LINE
  8
0
 10
-126.861
 20
149.397
 11
-127.279
 21
149.907
  0
LINE
  8
0
 10
-127.279
 20
149.907
 11
-129.704
 21
151.896
  0
LINE
  8
0
 10
-129.704
 20
151.896
 11
-132.47
 21
153.375
  0
LINE
  8
0
 10
-132.47
 20
153.375
 11
-135.471
 21
154.285
  0
LINE
  8
0
 10
-135.471
 20
154.285
 11
-138.593
 21
154.593
  0
LINE
  8
0
 10
-138.593
 20
154.593
 11
-141.714
 21
154.285
  0
LINE
  8
0
 10
-141.714
 20
154.285
 11
-144.716
 21
153.375
  0
LINE
  8
0
 10
-144.716
 20
153.375
 11
-147.482
 21
151.896
  0
LINE
  8
0
 10
-147.482
 20
151.896
 11
-149.907
 21
149.907
  0
LINE
  8
0
 10
-149.907
 20
149.907
 11
-151.896
 21
147.482
  0
LINE
  8
0
 10
-151.896
 20
147.482
 11
-153.375
 21
144.716
  0
LINE
  8
0
 10
-153.375
 20
144.716
 11
-154.285
 21
141.714
  0
LINE
  8
0
 10
-154.285
 20
141.714
 11
-154.593
 21
138.593
  0
LINE
  8
0
 10
-154.593
 20
138.593
 11
-154.285
 21
135.471
  0
LINE
  8
0
 10
-154.285
 20
135.471
 11
-153.375
 21
132.47
  0
LINE
  8
0
 10
-153.375
 20
132.47
 11
-151.896
 21
129.704
  0
LINE
  8
0
 10
-151.896
 20
129.704
 11
-149.907
 21
127.279
  0
LINE
  8
0
 10
-149.907
 20
127.279
 11
-149.397
 21
126.861
  0
LINE
  8
0
 10
-149.397
 20
126.861
 11
-150.145
 21
125.986
  0
LINE
  8
0
 10
-150.145
 20
125.986
 11
-152.321
 21
123.347
  0
LINE
  8
0
 10
-152.321
 20
123.347
 11
-154.45
 21
120.67
  0
LINE
  8
0
 10
-154.45
 20
120.67
 11
-156.533
 21
117.956
  0
LINE
  8
0
 10
-156.533
 20
117.956
 11
-158.567
 21
115.206
  0
LINE
  8
0
 10
-158.567
 20
115.206
 11
-160.554
 21
112.421
  0
LINE
  8
0
 10
-160.554
 20
112.421
 11
-162.491
 21
109.602
  0
LINE
  8
0
 10
-162.491
 20
109.602
 11
-164.379
 21
106.749
  0
LINE
  8
0
 10
-164.379
 20
106.749
 11
-166.217
 21
103.864
  0
LINE
  8
0
 10
-166.217
 20
103.864
 11
-168.005
 21
100.947
  0
LINE
  8
0
 10
-168.005
 20
100.947
 11
-169.741
 21
98
  0
LINE
  8
0
 10
-169.741
 20
98
 11
-171.425
 21
95.0227
  0
LINE
  8
0
 10
-171.425
 20
95.0227
 11
-173.058
 21
92.0164
  0
LINE
  8
0
 10
-173.058
 20
92.0164
 11
-174.637
 21
88.9821
  0
LINE
  8
0
 10
-174.637
 20
88.9821
 11
-176.164
 21
85.9207
  0
LINE
  8
0
 10
-176.164
 20
85.9207
 11
-177.636
 21
82.8332
  0
LINE
  8
0
 10
-177.636
 20
82.8332
 11
-179.055
 21
79.7204
  0
LINE
  8
0
 10
-179.055
 20
79.7204
 11
-180.419
 21
76.5833
  0
LINE
  8
0
 10
-180.419
 20
76.5833
 11
-181.728
 21
73.4229
  0
LINE
  8
0
 10
-181.728
 20
73.4229
 11
-182.982
 21
70.2401
  0
LINE
  8
0
 10
-182.982
 20
70.2401
 11
-184.18
 21
67.0359
  0
LINE
  8
0
 10
-184.18
 20
67.0359
 11
-185.322
 21
63.8114
  0
LINE
  8
0
 10
-185.322
 20
63.8114
 11
-186.407
 21
60.5673
  0
LINE
  8
0
 10
-186.407
 20
60.5673
 11
-187.436
 21
57.3048
  0
LINE
  8
0
 10
-187.436
 20
57.3048
 11
-188.407
 21
54.0249
  0
LINE
  8
0
 10
-188.407
 20
54.0249
 11
-189.321
 21
50.7285
  0
LINE
  8
0
 10
-189.321
 20
50.7285
 11
-190.178
 21
47.4167
  0
LINE
  8
0
 10
-190.178
 20
47.4167
 11
-190.977
 21
44.0904
  0
LINE
  8
0
 10
-190.977
 20
44.0904
 11
-191.717
 21
40.7507
  0
LINE
  8
0
 10
-191.717
 20
40.7507
 11
-192.399
 21
37.3986
  0
LINE
  8
0
 10
-192.399
 20
37.3986
 11
-193.022
 21
34.035
  0
LINE
  8
0
 10
-193.022
 20
34.035
 11
-193.587
 21
30.6611
  0
LINE
  8
0
 10
-193.587
 20
30.6611
 11
-194.093
 21
27.2779
  0
LINE
  8
0
 10
-194.093
 20
27.2779
 11
-194.539
 21
23.8864
  0
LINE
  8
0
 10
-194.539
 20
23.8864
 11
-194.926
 21
20.4876
  0
LINE
  8
0
 10
-194.926
 20
20.4876
 11
-195.254
 21
17.0825
  0
LINE
  8
0
 10
-195.254
 20
17.0825
 11
-195.344
 21
15.9354
  0
LINE
  8
0
 10
-195.344
 20
15.9354
 11
-196
 21
16
  0
LINE
  8
0
 10
-196
 20
16
 11
-199.121
 21
15.6926
  0
LINE
  8
0
 10
-199.121
 20
15.6926
 11
-202.123
 21
14.7821
  0
LINE
  8
0
 10
-202.123
 20
14.7821
 11
-204.889
 21
13.3035
  0
LINE
  8
0
 10
-204.889
 20
13.3035
 11
-207.314
 21
11.3137
  0
LINE
  8
0
 10
-207.314
 20
11.3137
 11
-209.304
 21
8.88911
  0
LINE
  8
0
 10
-209.304
 20
8.88911
 11
-210.782
 21
6.12292
  0
LINE
  8
0
 10
-210.782
 20
6.12292
 11
-211.693
 21
3.12144
  0
LINE
  8
0
 10
-211.693
 20
3.12144
 11
-212
 21
0
  0
LINE
  8
0
 10
-212
 20
0
 11
-211.693
 21
-3.12144
  0
LINE
  8
0
 10
-211.693
 20
-3.12144
 11
-210.782
 21
-6.12292
  0
LINE
  8
0
 10
-210.782
 20
-6.12292
 11
-209.304
 21
-8.88911
  0
LINE
  8
0
 10
-209.304
 20
-8.88911
 11
-207.314
 21
-11.3137
  0
LINE
  8
0
 10
-207.314
 20
-11.3137
 11
-204.889
 21
-13.3035
  0
LINE
  8
0
 10
-204.889
 20
-13.3035
 11
-202.123
 21
-14.7821
  0
LINE
  8
0
 10
-202.123
 20
-14.7821
 11
-199.121
 21
-15.6926
  0
LINE
  8
0
 10
-199.121
 20
-15.6926
 11
-196
 21
-16
  0
LINE
  8
0
 10
-196
 20
-16
 11
-195.344
 21
-15.9354
  0
LINE
  8
0
 10
-195.344
 20
-15.9354
 11
-195.254
 21
-17.0825
  0
LINE
  8
0
 10
-195.254
 20
-17.0825
 11
-194.926
 21
-20.4876
  0
LINE
  8
0
 10
-194.926
 20
-20.4876
 11
-194.539
 21
-23.8864
  0
LINE
  8
0
 10
-194.539
 20
-23.8864
 11
-194.093
 21
-27.2779
  0
LINE
  8
0
 10
-194.093
 20
-27.2779
 11
-193.587
 21
-30.6611
  0
LINE
  8
0
 10
-193.587
 20
-30.6611
 11
-193.022
 21
-34.035
  0
LINE
  8
0
 10
-193.022
 20
-34.035
 11
-192.399
 21
-37.3986
  0
LINE
  8
0
 10
-192.399
 20
-37.3986
 11
-191.717
 21
-40.7507
  0
LINE
  8
0
 10
-191.717
 20
-40.7507
 11
-190.977
 21
-44.0904
  0
LINE
  8
0
 10
-190.977
 20
-44.0904
 11
-190.178
 21
-47.4167
  0
LINE
  8
0
 10
-190.178
 20
-47.4167
 11
-189.321
 21
-50.7285
  0
LINE
  8
0
 10
-189.321
 20
-50.7285
 11
-188.407
 21
-54.0249
  0
LINE
  8
0
 10
-188.407
 20
-54.0249
 11
-187.436
 21
-57.3048
  0
LINE
  8
0
 10
-187.436
 20
-57.3048
 11
-186.407
 21
-60.5673
  0
LINE
  8
0
 10
-186.407
 20
-60.5673
 11
-185.322
 21
-63.8114
  0
LINE
  8
0
 10
-185.322
 20
-63.8114
 11
-184.18
 21
-67.0359
  0
LINE
  8
0
 10
-184.18
 20
-67.0359
 11
-182.982
 21
-70.2401
  0
LINE
  8
0
 10
-182.982
 20
-70.2401
 11
-181.728
 21
-73.4229
  0
LINE
  8
0
 10
-181.728
 20
-73.4229
 11
-180.419
 21
-76.5833
  0
LINE
  8
0
 10
-180.419
 20
-76.5833
 11
-179.055
 21
-79.7204
  0
LINE
  8
0
 10
-179.055
 20
-79.7204
 11
-177.636
 21
-82.8332
  0
LINE
  8
0
 10
-177.636
 20
-82.8332
 11
-176.164
 21
-85.9207
  0
LINE
  8
0
 10
-176.164
 20
-85.9207
 11
-174.637
 21
-88.9821
  0
LINE
  8
0
 10
-174.637
 20
-88.9821
 11
-173.058
 21
-92.0164
  0
LINE
  8
0
 10
-173.058
 20
-92.0164
 11
-171.425
 21
-95.0227
  0
LINE
  8
0
 10
-171.425
 20
-95.0227
 11
-169.741
 21
-98
  0
LINE
  8
0
 10
-169.741
 20
-98
 11
-168.005
 21
-100.947
  0
LINE
  8
0
 10
-168.005
 20
-100.947
 11
-166.217
 21
-103.864
  0
LINE
  8
0
 10
-166.217
 20
-103.864
 11
-164.379
 21
-106.749
  0
LINE
  8
0
 10
-164.379
 20
-106.749
 11
-162.491
 21
-109.602
  0
LINE
  8
0
 10
-162.491
 20
-109.602
 11
-160.554
 21
-112.421
  0
LINE
  8
0
 10
-160.554
 20
-112.421
 11
-158.567
 21
-115.206
  0
LINE
  8
0
 10
-158.567
 20
-115.206
 11
-156.533
 21
-117.956
  0
LINE
  8
0
 10
-156.533
 20
-117.956
 11
-154.45
 21
-120.67
  0
LINE
  8
0
 10
-154.45
 20
-120.67
 11
-152.321
 21
-123.347
  0
LINE
  8
0
 10
-152.321
 20
-123.347
 11
-150.145
 21
-125.986
  0
LINE
  8
0
 10
-150.145
 20
-125.986
 11
-149.397
 21
-126.861
  0
LINE
  8
0
 10
-149.397
 20
-126.861
 11
-149.907
 21
-127.279
  0
LINE
  8
0
 10
-149.907
 20
-127.279
 11
-151.896
 21
-129.704
  0
LINE
  8
0
 10
-151.896
 20
-129.704
 11
-153.375
 21
-132.47
  0
LINE
  8
0
 10
-153.375
 20
-132.47
 11
-154.285
 21
-135.471
  0
LINE
  8
0
 10
-154.285
 20
-135.471
 11
-154.593
 21
-138.593
  0
LINE
  8
0
 10
-154.593
 20
-138.593
 11
-154.285
 21
-141.714
  0
LINE
  8
0
 10
-154.285
 20
-141.714
 11
-153.375
 21
-144.716
  0
LINE
  8
0
 10
-153.375
 20
-144.716
 11
-151.896
 21
-147.482
  0
LINE
  8
0
 10
-151.896
 20
-147.482
 11
-149.907
 21
-149.907
  0
LINE
  8
0
 10
-149.907
 20
-149.907
 11
-147.482
 21
-151.896
  0
LINE
  8
0
 10
-147.482
 20
-151.896
 11
-144.716
 21
-153.375
  0
LINE
  8
0
 10
-144.716
 20
-153.375
 11
-141.714
 21
-154.285
  0
LINE
  8
0
 10
-141.714
 20
-154.285
 11
-138.593
 21
-154.593
  0
LINE
  8
0
 10
-138.593
 20
-154.593
 11
-135.471
 21
-154.285
  0
LINE
  8
0
 10
-135.471
 20
-154.285
 11
-132.47
 21
-153.375
  0
LINE
  8
0
 10
-132.47
 20
-153.375
 11
-129.704
 21
-151.896
  0
LINE
  8
0
 10
-129.704
 20
-151.896
 11
-127.279
 21
-149.907
  0
LINE
  8
0
 10
-127.279
 20
-149.907
 11
-126.861
 21
-149.397
  0
LINE
  8
0
 10
-126.861
 20
-149.397
 11
-125.986
 21
-150.145
  0
LINE
  8
0
 10
-125.986
 20
-150.145
 11
-123.347
 21
-152.321
  0
LINE
  8
0
 10
-123.347
 20
-152.321
 11
-120.67
 21
-154.45
  0
LINE
  8
0
 10
-120.67
 20
-154.45
 11
-117.956
 21
-156.533
  0
LINE
  8
0
 10
-117.956
 20
-156.533
 11
-115.206
 21
-158.567
  0
LINE
  8
0
 10
-115.206
 20
-158.567
 11
-112.421
 21
-160.554
  0
LINE
  8
0
 10
-112.421
 20
-160.554
 11
-109.602
 21
-162.491
  0
LINE
  8
0
 10
-109.602
 20
-162.491
 11
-106.749
 21
-164.379
  0
LINE
  8
0
 10
-106.749
 20
-164.379
 11
-103.864
 21
-166.217
  0
LINE
  8
0
 10
-103.864
 20
-166.217
 11
-100.947
 21
-168.005
  0
LINE
  8
0
 10
-100.947
 20
-168.005
 11
-98
 21
-169.741
  0
LINE
  8
0
 10
-98
 20
-169.741
 11
-95.0227
 21
-171.425
  0
LINE
  8
0
 10
-95.0227
 20
-171.425
 11
-92.0164
 21
-173.058
  0
LINE
  8
0
 10
-92.0164
 20
-173.058
 11
-88.9821
 21
-174.637
  0
LINE
  8
0
 10
-88.9821
 20
-174.637
 11
-85.9207
 21
-176.164
  0
LINE
  8
0
 10
-85.9207
 20
-176.164
 11
-82.8332
 21
-177.636
  0
LINE
  8
0
 10
-82.8332
 20
-177.636
 11
-79.7204
 21
-179.055
  0
LINE
  8
0
 10
-79.7204
 20
-179.055
 11
-76.5833
 21
-180.419
  0
LINE
  8
0
 10
-76.5833
 20
-180.419
 11
-73.4229
 21
-181.728
  0
LINE
  8
0
 10
-73.4229
 20
-181.728
 11
-70.2401
 21
-182.982
  0
LINE
  8
0
 10
-70.2401
 20
-182.982
 11
-67.0359
 21
-184.18
  0
LINE
  8
0
 10
-67.0359
 20
-184.18
 11
-63.8114
 21
-185.322
  0
LINE
  8
0
 10
-63.8114
 20
-185.322
 11
-60.5673
 21
-186.407
  0
LINE
  8
0
 10
-60.5673
 20
-186.407
 11
-57.3048
 21
-187.436
  0
LINE
  8
0
 10
-57.3048
 20
-187.436
 11
-54.0249
 21
-188.407
  0
LINE
  8
0
 10
-54.0249
 20
-188.407
 11
-50.7285
 21
-189.321
  0
LINE
  8
0
 10
-50.7285
 20
-189.321
 11
-47.4167
 21
-190.178
  0
LINE
  8
0
 10
-47.4167
 20
-190.178
 11
-44.0904
 21
-190.977
  0
LINE
  8
0
 10
-44.0904
 20
-190.977
 11
-40.7507
 21
-191.717
  0
LINE
  8
0
 10
-40.7507
 20
-191.717
 11
-37.3986
 21
-192.399
  0
LINE
  8
0
 10
-37.3986
 20
-192.399
 11
-34.035
 21
-193.022
  0
LINE
  8
0
 10
-34.035
 20
-193.022
 11
-30.6611
 21
-193.587
  0
LINE
  8
0
 10
-30.6611
 20
-193.587
 11
-27.2779
 21
-194.093
  0
LINE
  8
0
 10
-27.2779
 20
-194.093
 11
-23.8864
 21
-194.539
  0
LINE
  8
0
 10
-23.8864
 20
-194.539
 11
-20.4876
 21
-194.926
  0
LINE
  8
0
 10
-20.4876
 20
-194.926
 11
-17.0825
 21
-195.254
  0
LINE
  8
0
 10
-17.0825
 20
-195.254
 11
-15.9354
 21
-195.344
  0
LINE
  8
0
 10
-15.9354
 20
-195.344
 11
-16
 21
-196
  0
LINE
  8
0
 10
-16
 20
-196
 11
-15.6926
 21
-199.121
  0
LINE
  8
0
 10
-15.6926
 20
-199.121
 11
-14.7821
 21
-202.123
  0
LINE
  8
0
 10
-14.7821
 20
-202.123
 11
-13.3035
 21
-204.889
  0
LINE
  8
0
 10
-13.3035
 20
-204.889
 11
-11.3137
 21
-207.314
  0
LINE
  8
0
 10
-11.3137
 20
-207.314
 11
-8.88911
 21
-209.304
  0
LINE
  8
0
 10
-8.88911
 20
-209.304
 11
-6.12292
 21
-210.782
  0
LINE
  8
0
 10
-6.12292
 20
-210.782
 11
-3.12144
 21
-211.693
  0
LINE
  8
0
 10
-3.12144
 20
-211.693
 11
0
 21
-212
  0
LINE
  8
0
 10
0
 20
-212
 11
3.12144
 21
-211.693
  0
LINE
  8
0
 10
-0.78035
 20
192.077
 11
-1.53073
 21
192.304
  0
LINE
  8
0
 10
-1.53073
 20
192.304
 11
-2.22227
 21
192.674
  0
LINE
  8
0
 10
-2.22227
 20
192.674
 11
-2.82841
 21
193.172
  0
LINE
  8
0
 10
-2.82841
 20
193.172
 11
-3.32587
 21
193.778
  0
LINE
  8
0
 10
-3.32587
 20
193.778
 11
-3.69551
 21
194.469
  0
LINE
  8
0
 10
-3.69551
 20
194.469
 11
-3.92313
 21
195.22
  0
LINE
  8
0
 10
-3.92313
 20
195.22
 11
-4
 21
196
  0
LINE
  8
0
 10
-4
 20
196
 11
-3.92313
 21
196.78
  0
LINE
  8
0
 10
-3.92313
 20
196.78
 11
-3.69551
 21
197.531
  0
LINE
  8
0
 10
-3.69551
 20
197.531
 11
-3.32587
 21
198.222
  0
LINE
  8
0
 10
-3.32587
 20
198.222
 11
-2.82841
 21
198.828
  0
LINE
  8
0
 10
-2.82841
 20
198.828
 11
-2.22227
 21
199.326
  0
LINE
  8
0
 10
-2.22227
 20
199.326
 11
-1.53073
 21
199.696
  0
LINE
  8
0
 10
-1.53073
 20
199.696
 11
-0.78035
 21
199.923
  0
LINE
  8
0
 10
-0.78035
 20
199.923
 11
0
 21
200
  0
LINE
  8
0
 10
0
 20
200
 11
0.78035
 21
199.923
  0
LINE
  8
0
 10
0.78035
 20
199.923
 11
1.53073
 21
199.696
  0
LINE
  8
0
 10
1.53073
 20
199.696
 11
2.22227
 21
199.326
  0
LINE
  8
0
 10
2.22227
 20
199.326
 11
2.82841
 21
198.828
  0
LINE
  8
0
 10
2.82841
 20
198.828
 11
3.32587
 21
198.222
  0
LINE
  8
0
 10
3.32587
 20
198.222
 11
3.69551
 21
197.531
  0
LINE
  8
0
 10
3.69551
 20
197.531
 11
3.92313
 21
196.78
  0
LINE
  8
0
 10
3.92313
 20
196.78
 11
4
 21
196
  0
LINE
  8
0
 10
4
 20
196
 11
3.92313
 21
195.22
  0
LINE
  8
0
 10
3.92313
 20
195.22
 11
3.69551
 21
194.469
  0
LINE
  8
0
 10
3.69551
 20
194.469
 11
3.32587
 21
193.778
  0
LINE
  8
0
 10
3.32587
 20
193.778
 11
2.82841
 21
193.172
  0
LINE
  8
0
 10
2.82841
 20
193.172
 11
2.22227
 21
192.674
  0
LINE
  8
0
 10
2.22227
 20
192.674
 11
1.53073
 21
192.304
  0
LINE
  8
0
 10
1.53073
 20
192.304
 11
0.78035
 21
192.077
  0
LINE
  8
0
 10
0.78035
 20
192.077
 11
0
 21
192
  0
LINE
  8
0
 10
0
 20
192
 11
-0.78035
 21
192.077
  0
LINE
  8
0
 10
-72.2918
 20
170.8
 11
-71.3705
 21
172.304
  0
LINE
  8
0
 10
-71.3705
 20
172.304
 11
-69.6558
 21
171.892
  0
LINE
  8
0
 10
-69.6558
 20
171.892
 11
-69.5175
 21
170.134
  0
LINE
  8
0
 10
-69.5175
 20
170.134
 11
-71.1466
 21
169.459
  0
LINE
  8
0
 10
-71.1466
 20
169.459
 11
-72.2918
 21
170.8
  0
LINE
  8
0
 10
69.5175
 20
170.134
 11
69.6558
 21
171.892
  0
LINE
  8
0
 10
69.6558
 20
171.892
 11
71.3705
 21
172.304
  0
LINE
  8
0
 10
71.3705
 20
172.304
 11
72.2918
 21
170.8
  0
LINE
  8
0
 10
72.2918
 20
170.8
 11
71.1466
 21
169.459
  0
LINE
  8
0
 10
71.1466
 20
169.459
 11
69.5175
 21
170.134
  0
LINE
  8
0
 10
-68.3554
 20
161.105
 11
-65.5838
 21
162.253
  0
LINE
  8
0
 10
-65.5838
 20
162.253
 11
-61.7569
 21
153.014
  0
LINE
  8
0
 10
-61.7569
 20
153.014
 11
-64.5286
 21
151.866
  0
LINE
  8
0
 10
-64.5286
 20
151.866
 11
-68.3554
 21
161.105
  0
LINE
  8
0
 10
61.7569
 20
153.014
 11
65.5838
 21
162.253
  0
LINE
  8
0
 10
65.5838
 20
162.253
 11
68.3554
 21
161.105
  0
LINE
  8
0
 10
68.3554
 20
161.105
 11
64.5286
 21
151.866
  0
LINE
  8
0
 10
64.5286
 20
151.866
 11
61.7569
 21
153.014
  0
LINE
  8
0
 10
6.55865
 20
154.538
 11
6.39644
 21
154.646
  0
LINE
  8
0
 10
6.39644
 20
154.646
 11
6.28806
 21
154.809
  0
LINE
  8
0
 10
6.28806
 20
154.809
 11
6.25
 21
155
  0
LINE
  8
0
 10
6.25
 20
155
 11
6.28806
 21
155.191
  0
LINE
  8
0
 10
6.28806
 20
155.191
 11
6.39644
 21
155.354
  0
LINE
  8
0
 10
6.39644
 20
155.354
 11
6.55865
 21
155.462
  0
LINE
  8
0
 10
6.55865
 20
155.462
 11
6.75
 21
155.5
  0
LINE
  8
0
 10
6.75
 20
155.5
 11
6.94133
 21
155.462
  0
LINE
  8
0
 10
6.94133
 20
155.462
 11
7.10355
 21
155.354
  0
LINE
  8
0
 10
7.10355
 20
155.354
 11
7.21193
 21
155.191
  0
LINE
  8
0
 10
7.21193
 20
155.191
 11
7.25
 21
155
  0
LINE
  8
0
 10
7.25
 20
155
 11
7.21193
 21
154.809
  0
LINE
  8
0
 10
7.21193
 20
154.809
 11
7.10355
 21
154.646
  0
LINE
  8
0
 10
7.10355
 20
154.646
 11
6.94133
 21
154.538
  0
LINE
  8
0
 10
6.94133
 20
154.538
 11
6.75
 21
154.5
  0
LINE
  8
0
 10
6.75
 20
154.5
 11
6.55865
 21
154.538
  0
LINE
  8
0
 10
-6.94133
 20
154.538
 11
-7.10355
 21
154.646
  0
LINE
  8
0
 10
-7.10355
 20
154.646
 11
-7.21193
 21
154.809
  0
LINE
  8
0
 10
-7.21193
 20
154.809
 11
-7.25
 21
155
  0
LINE
  8
0
 10
-7.25
 20
155
 11
-7.21193
 21
155.191
  0
LINE
  8
0
 10
-7.21193
 20
155.191
 11
-7.10355
 21
155.354
  0
LINE
  8
0
 10
-7.10355
 20
155.354
 11
-6.94133
 21
155.462
  0
LINE
  8
0
 10
-6.94133
 20
155.462
 11
-6.75
 21
155.5
  0
LINE
  8
0
 10
-6.75
 20
155.5
 11
-6.55865
 21
155.462
  0
LINE
  8
0
 10
-6.55865
 20
155.462
 11
-6.39644
 21
155.354
  0
LINE
  8
0
 10
-6.39644
 20
155.354
 11
-6.28806
 21
155.191
  0
LINE
  8
0
 10
-6.28806
 20
155.191
 11
-6.25
 21
155
  0
LINE
  8
0
 10
-6.25
 20
155
 11
-6.28806
 21
154.809
  0
LINE
  8
0
 10
-6.28806
 20
154.809
 11
-6.39644
 21
154.646
  0
LINE
  8
0
 10
-6.39644
 20
154.646
 11
-6.55865
 21
154.538
  0
LINE
  8
0
 10
-6.55865
 20
154.538
 11
-6.75
 21
154.5
  0
LINE
  8
0
 10
-6.75
 20
154.5
 11
-6.94133
 21
154.538
  0
LINE
  8
0
 10
-33.847
 20
151.033
 11
-33.9936
 21
151.161
  0
LINE
  8
0
 10
-33.9936
 20
151.161
 11
-34.0799
 21
151.336
  0
LINE
  8
0
 10
-34.0799
 20
151.336
 11
-34.0927
 21
151.531
  0
LINE
  8
0
 10
-34.0927
 20
151.531
 11
-34.03
 21
151.716
  0
LINE
  8
0
 10
-34.03
 20
151.716
 11
-33.9013
 21
151.862
  0
LINE
  8
0
 10
-33.9013
 20
151.862
 11
-33.7263
 21
151.948
  0
LINE
  8
0
 10
-33.7263
 20
151.948
 11
-33.5317
 21
151.961
  0
LINE
  8
0
 10
-33.5317
 20
151.961
 11
-33.347
 21
151.899
  0
LINE
  8
0
 10
-33.347
 20
151.899
 11
-33.2003
 21
151.77
  0
LINE
  8
0
 10
-33.2003
 20
151.77
 11
-33.114
 21
151.595
  0
LINE
  8
0
 10
-33.114
 20
151.595
 11
-33.1012
 21
151.4
  0
LINE
  8
0
 10
-33.1012
 20
151.4
 11
-33.1639
 21
151.216
  0
LINE
  8
0
 10
-33.1639
 20
151.216
 11
-33.2926
 21
151.069
  0
LINE
  8
0
 10
-33.2926
 20
151.069
 11
-33.4675
 21
150.983
  0
LINE
  8
0
 10
-33.4675
 20
150.983
 11
-33.6622
 21
150.97
  0
LINE
  8
0
 10
-33.6622
 20
150.97
 11
-33.847
 21
151.033
  0
LINE
  8
0
 10
33.4675
 20
150.983
 11
33.2926
 21
151.069
  0
LINE
  8
0
 10
33.2926
 20
151.069
 11
33.1639
 21
151.216
  0
LINE
  8
0
 10
33.1639
 20
151.216
 11
33.1012
 21
151.4
  0
LINE
  8
0
 10
33.1012
 20
151.4
 11
33.114
 21
151.595
  0
LINE
  8
0
 10
33.114
 20
151.595
 11
33.2003
 21
151.77
  0
LINE
  8
0
 10
33.2003
 20
151.77
 11
33.347
 21
151.899
  0
LINE
  8
0
 10
33.347
 20
151.899
 11
33.5317
 21
151.961
  0
LINE
  8
0
 10
33.5317
 20
151.961
 11
33.7263
 21
151.948
  0
LINE
  8
0
 10
33.7263
 20
151.948
 11
33.9013
 21
151.862
  0
LINE
  8
0
 10
33.9013
 20
151.862
 11
34.03
 21
151.716
  0
LINE
  8
0
 10
34.03
 20
151.716
 11
34.0927
 21
151.531
  0
LINE
  8
0
 10
34.0927
 20
151.531
 11
34.0799
 21
151.336
  0
LINE
  8
0
 10
34.0799
 20
151.336
 11
33.9936
 21
151.161
  0
LINE
  8
0
 10
33.9936
 20
151.161
 11
33.847
 21
151.033
  0
LINE
  8
0
 10
33.847
 20
151.033
 11
33.6622
 21
150.97
  0
LINE
  8
0
 10
33.6622
 20
150.97
 11
33.4675
 21
150.983
  0
LINE
  8
0
 10
-46.8869
 20
147.538
 11
-47.0336
 21
147.667
  0
LINE
  8
0
 10
-47.0336
 20
147.667
 11
-47.1199
 21
147.842
  0
LINE
  8
0
 10
-47.1199
 20
147.842
 11
-47.1327
 21
148.037
  0
LINE
  8
0
 10
-47.1327
 20
148.037
 11
-47.0699
 21
148.221
  0
LINE
  8
0
 10
-47.0699
 20
148.221
 11
-46.9413
 21
148.368
  0
LINE
  8
0
 10
-46.9413
 20
148.368
 11
-46.7664
 21
148.454
  0
LINE
  8
0
 10
-46.7664
 20
148.454
 11
-46.5717
 21
148.467
  0
LINE
  8
0
 10
-46.5717
 20
148.467
 11
-46.3869
 21
148.404
  0
LINE
  8
0
 10
-46.3869
 20
148.404
 11
-46.2403
 21
148.276
  0
LINE
  8
0
 10
-46.2403
 20
148.276
 11
-46.154
 21
148.101
  0
LINE
  8
0
 10
-46.154
 20
148.101
 11
-46.1412
 21
147.906
  0
LINE
  8
0
 10
-46.1412
 20
147.906
 11
-46.2039
 21
147.721
  0
LINE
  8
0
 10
-46.2039
 20
147.721
 11
-46.3326
 21
147.575
  0
LINE
  8
0
 10
-46.3326
 20
147.575
 11
-46.5075
 21
147.489
  0
LINE
  8
0
 10
-46.5075
 20
147.489
 11
-46.7022
 21
147.476
  0
LINE
  8
0
 10
-46.7022
 20
147.476
 11
-46.8869
 21
147.538
  0
LINE
  8
0
 10
46.5075
 20
147.489
 11
46.3326
 21
147.575
  0
LINE
  8
0
 10
46.3326
 20
147.575
 11
46.2039
 21
147.721
  0
LINE
  8
0
 10
46.2039
 20
147.721
 11
46.1412
 21
147.906
  0
LINE
  8
0
 10
46.1412
 20
147.906
 11
46.154
 21
148.101
  0
LINE
  8
0
 10
46.154
 20
148.101
 11
46.2403
 21
148.276
  0
LINE
  8
0
 10
46.2403
 20
148.276
 11
46.3869
 21
148.404
  0
LINE
  8
0
 10
46.3869
 20
148.404
 11
46.5717
 21
148.467
  0
LINE
  8
0
 10
46.5717
 20
148.467
 11
46.7664
 21
148.454
  0
LINE
  8
0
 10
46.7664
 20
148.454
 11
46.9413
 21
148.368
  0
LINE
  8
0
 10
46.9413
 20
148.368
 11
47.0699
 21
148.221
  0
LINE
  8
0
 10
47.0699
 20
148.221
 11
47.1327
 21
148.037
  0
LINE
  8
0
 10
47.1327
 20
148.037
 11
47.1199
 21
147.842
  0
LINE
  8
0
 10
47.1199
 20
147.842
 11
47.0336
 21
147.667
  0
LINE
  8
0
 10
47.0336
 20
147.667
 11
46.8869
 21
147.538
  0
LINE
  8
0
 10
46.8869
 20
147.538
 11
46.7022
 21
147.476
  0
LINE
  8
0
 10
46.7022
 20
147.476
 11
46.5075
 21
147.489
  0
LINE
  8
0
 10
-2.54805
 20
-145.978
 11
-5.09532
 21
-145.911
  0
LINE
  8
0
 10
-5.09532
 20
-145.911
 11
-7.64104
 21
-145.8
  0
LINE
  8
0
 10
-7.64104
 20
-145.8
 11
-10.1844
 21
-145.644
  0
LINE
  8
0
 10
-10.1844
 20
-145.644
 11
-12.7247
 21
-145.444
  0
LINE
  8
0
 10
-12.7247
 20
-145.444
 11
-15.2612
 21
-145.2
  0
LINE
  8
0
 10
-15.2612
 20
-145.2
 11
-17.7929
 21
-144.912
  0
LINE
  8
0
 10
-17.7929
 20
-144.912
 11
-20.3193
 21
-144.579
  0
LINE
  8
0
 10
-20.3193
 20
-144.579
 11
-22.8394
 21
-144.202
  0
LINE
  8
0
 10
-22.8394
 20
-144.202
 11
-25.3526
 21
-143.782
  0
LINE
  8
0
 10
-25.3526
 20
-143.782
 11
-27.8581
 21
-143.318
  0
LINE
  8
0
 10
-27.8581
 20
-143.318
 11
-30.3551
 21
-142.81
  0
LINE
  8
0
 10
-30.3551
 20
-142.81
 11
-32.8428
 21
-142.258
  0
LINE
  8
0
 10
-32.8428
 20
-142.258
 11
-35.3206
 21
-141.663
  0
LINE
  8
0
 10
-35.3206
 20
-141.663
 11
-37.7876
 21
-141.025
  0
LINE
  8
0
 10
-37.7876
 20
-141.025
 11
-40.243
 21
-140.344
  0
LINE
  8
0
 10
-40.243
 20
-140.344
 11
-42.6863
 21
-139.62
  0
LINE
  8
0
 10
-42.6863
 20
-139.62
 11
-45.1165
 21
-138.854
  0
LINE
  8
0
 10
-45.1165
 20
-138.854
 11
-47.5329
 21
-138.046
  0
LINE
  8
0
 10
-47.5329
 20
-138.046
 11
-49.9349
 21
-137.195
  0
LINE
  8
0
 10
-49.9349
 20
-137.195
 11
-52.3217
 21
-136.303
  0
LINE
  8
0
 10
-52.3217
 20
-136.303
 11
-54.6926
 21
-135.369
  0
LINE
  8
0
 10
-54.6926
 20
-135.369
 11
-57.0467
 21
-134.394
  0
LINE
  8
0
 10
-57.0467
 20
-134.394
 11
-59.3835
 21
-133.378
  0
LINE
  8
0
 10
-59.3835
 20
-133.378
 11
-61.7023
 21
-132.321
  0
LINE
  8
0
 10
-61.7023
 20
-132.321
 11
-64.0022
 21
-131.224
  0
LINE
  8
0
 10
-64.0022
 20
-131.224
 11
-66.2826
 21
-130.087
  0
LINE
  8
0
 10
-66.2826
 20
-130.087
 11
-68.5428
 21
-128.91
  0
LINE
  8
0
 10
-68.5428
 20
-128.91
 11
-70.7822
 21
-127.694
  0
LINE
  8
0
 10
-70.7822
 20
-127.694
 11
-73
 21
-126.44
  0
LINE
  8
0
 10
-73
 20
-126.44
 11
-75.1956
 21
-125.146
  0
LINE
  8
0
 10
-75.1956
 20
-125.146
 11
-77.3682
 21
-123.815
  0
LINE
  8
0
 10
-77.3682
 20
-123.815
 11
-79.5173
 21
-122.446
  0
LINE
  8
0
 10
-79.5173
 20
-122.446
 11
-81.6422
 21
-121.039
  0
LINE
  8
0
 10
-81.6422
 20
-121.039
 11
-83.7422
 21
-119.596
  0
LINE
  8
0
 10
-83.7422
 20
-119.596
 11
-85.8166
 21
-118.116
  0
LINE
  8
0
 10
-85.8166
 20
-118.116
 11
-87.865
 21
-116.601
  0
LINE
  8
0
 10
-87.865
 20
-116.601
 11
-89.8866
 21
-115.05
  0
LINE
  8
0
 10
-89.8866
 20
-115.05
 11
-91.8808
 21
-113.463
  0
LINE
  8
0
 10
-91.8808
 20
-113.463
 11
-93.847
 21
-111.842
  0
LINE
  8
0
 10
-93.847
 20
-111.842
 11
-95.7846
 21
-110.188
  0
LINE
  8
0
 10
-95.7846
 20
-110.188
 11
-97.6931
 21
-108.499
  0
LINE
  8
0
 10
-97.6931
 20
-108.499
 11
-99.5717
 21
-106.778
  0
LINE
  8
0
 10
-99.5717
 20
-106.778
 11
-101.42
 21
-105.024
  0
LINE
  8
0
 10
-101.42
 20
-105.024
 11
-103.238
 21
-103.238
  0
LINE
  8
0
 10
-103.238
 20
-103.238
 11
-105.024
 21
-101.42
  0
LINE
  8
0
 10
-105.024
 20
-101.42
 11
-106.778
 21
-99.5717
  0
LINE
  8
0
 10
-106.778
 20
-99.5717
 11
-108.499
 21
-97.6931
  0
LINE
  8
0
 10
-108.499
 20
-97.6931
 11
-110.188
 21
-95.7846
  0
LINE
  8
0
 10
-110.188
 20
-95.7846
 11
-111.842
 21
-93.847
  0
LINE
  8
0
 10
-111.842
 20
-93.847
 11
-113.463
 21
-91.8808
  0
LINE
  8
0
 10
-113.463
 20
-91.8808
 11
-115.05
 21
-89.8866
  0
LINE
  8
0
 10
-115.05
 20
-89.8866
 11
-116.601
 21
-87.865
  0
LINE
  8
0
 10
-116.601
 20
-87.865
 11
-118.116
 21
-85.8166
  0
LINE
  8
0
 10
-118.116
 20
-85.8166
 11
-119.596
 21
-83.7422
  0
LINE
  8
0
 10
-119.596
 20
-83.7422
 11
-121.039
 21
-81.6422
  0
LINE
  8
0
 10
-121.039
 20
-81.6422
 11
-122.446
 21
-79.5173
  0
LINE
  8
0
 10
-122.446
 20
-79.5173
 11
-123.815
 21
-77.3682
  0
LINE
  8
0
 10
-123.815
 20
-77.3682
 11
-125.146
 21
-75.1956
  0
LINE
  8
0
 10
-125.146
 20
-75.1956
 11
-126.44
 21
-73
  0
LINE
  8
0
 10
-126.44
 20
-73
 11
-127.694
 21
-70.7822
  0
LINE
  8
0
 10
-127.694
 20
-70.7822
 11
-128.91
 21
-68.5428
  0
LINE
  8
0
 10
-128.91
 20
-68.5428
 11
-130.087
 21
-66.2826
  0
LINE
  8
0
 10
-130.087
 20
-66.2826
 11
-131.224
 21
-64.0022
  0
LINE
  8
0
 10
-131.224
 20
-64.0022
 11
-132.321
 21
-61.7023
  0
LINE
  8
0
 10
-132.321
 20
-61.7023
 11
-133.378
 21
-59.3835
  0
LINE
  8
0
 10
-133.378
 20
-59.3835
 11
-134.394
 21
-57.0467
  0
LINE
  8
0
 10
-134.394
 20
-57.0467
 11
-135.369
 21
-54.6926
  0
LINE
  8
0
 10
-135.369
 20
-54.6926
 11
-136.303
 21
-52.3217
  0
LINE
  8
0
 10
-136.303
 20
-52.3217
 11
-137.195
 21
-49.9349
  0
LINE
  8
0
 10
-137.195
 20
-49.9349
 11
-138.046
 21
-47.5329
  0
LINE
  8
0
 10
-138.046
 20
-47.5329
 11
-138.854
 21
-45.1165
  0
LINE
  8
0
 10
-138.854
 20
-45.1165
 11
-139.62
 21
-42.6863
  0
LINE
  8
0
 10
-139.62
 20
-42.6863
 11
-140.344
 21
-40.243
  0
LINE
  8
0
 10
-140.344
 20
-40.243
 11
-141.025
 21
-37.7876
  0
LINE
  8
0
 10
-141.025
 20
-37.7876
 11
-141.663
 21
-35.3206
  0
LINE
  8
0
 10
-141.663
 20
-35.3206
 11
-142.258
 21
-32.8428
  0
LINE
  8
0
 10
-142.258
 20
-32.8428
 11
-142.81
 21
-30.3551
  0
LINE
  8
0
 10
-142.81
 20
-30.3551
 11
-143.318
 21
-27.8581
  0
LINE
  8
0
 10
-143.318
 20
-27.8581
 11
-143.782
 21
-25.3526
  0
LINE
  8
0
 10
-143.782
 20
-25.3526
 11
-144.202
 21
-22.8394
  0
LINE
  8
0
 10
-144.202
 20
-22.8394
 11
-144.579
 21
-20.3193
  0
LINE
  8
0
 10
-144.579
 20
-20.3193
 11
-144.912
 21
-17.7929
  0
LINE
  8
0
 10
-144.912
 20
-17.7929
 11
-145.2
 21
-15.2612
  0
LINE
  8
0
 10
-145.2
 20
-15.2612
 11
-145.444
 21
-12.7247
  0
LINE
  8
0
 10
-145.444
 20
-12.7247
 11
-145.644
 21
-10.1844
  0
LINE
  8
0
 10
-145.644
 20
-10.1844
 11
-145.8
 21
-7.64104
  0
LINE
  8
0
 10
-145.8
 20
-7.64104
 11
-145.911
 21
-5.09532
  0
LINE
  8
0
 10
-145.911
 20
-5.09532
 11
-145.978
 21
-2.54805
  0
LINE
  8
0
 10
-145.978
 20
-2.54805
 11
-146
 21
0
  0
LINE
  8
0
 10
-146
 20
0
 11
-145.978
 21
2.54805
  0
LINE
  8
0
 10
-145.978
 20
2.54805
 11
-145.911
 21
5.09532
  0
LINE
  8
0
 10
-145.911
 20
5.09532
 11
-145.8
 21
7.64104
  0
LINE
  8
0
 10
-145.8
 20
7.64104
 11
-145.644
 21
10.1844
  0
LINE
  8
0
 10
-145.644
 20
10.1844
 11
-145.444
 21
12.7247
  0
LINE
  8
0
 10
-145.444
 20
12.7247
 11
-145.2
 21
15.2612
  0
LINE
  8
0
 10
-145.2
 20
15.2612
 11
-144.912
 21
17.7929
  0
LINE
  8
0
 10
-144.912
 20
17.7929
 11
-144.579
 21
20.3193
  0
LINE
  8
0
 10
-144.579
 20
20.3193
 11
-144.202
 21
22.8394
  0
LINE
  8
0
 10
-144.202
 20
22.8394
 11
-143.782
 21
25.3526
  0
LINE
  8
0
 10
-143.782
 20
25.3526
 11
-143.318
 21
27.8581
  0
LINE
  8
0
 10
-143.318
 20
27.8581
 11
-142.81
 21
30.3551
  0
LINE
  8
0
 10
-142.81
 20
30.3551
 11
-142.258
 21
32.8428
  0
LINE
  8
0
 10
-142.258
 20
32.8428
 11
-141.663
 21
35.3206
  0
LINE
  8
0
 10
-141.663
 20
35.3206
 11
-141.025
 21
37.7876
  0
LINE
  8
0
 10
-141.025
 20
37.7876
 11
-140.344
 21
40.243
  0
LINE
  8
0
 10
-140.344
 20
40.243
 11
-139.62
 21
42.6863
  0
LINE
  8
0
 10
-139.62
 20
42.6863
 11
-138.854
 21
45.1165
  0
LINE
  8
0
 10
-138.854
 20
45.1165
 11
-138.046
 21
47.5329
  0
LINE
  8
0
 10
-138.046
 20
47.5329
 11
-137.195
 21
49.9349
  0
LINE
  8
0
 10
-137.195
 20
49.9349
 11
-136.303
 21
52.3217
  0
LINE
  8
0
 10
-136.303
 20
52.3217
 11
-135.369
 21
54.6926
  0
LINE
  8
0
 10
-135.369
 20
54.6926
 11
-134.394
 21
57.0467
  0
LINE
  8
0
 10
-134.394
 20
57.0467
 11
-133.378
 21
59.3835
  0
LINE
  8
0
 10
-133.378
 20
59.3835
 11
-132.321
 21
61.7023
  0
LINE
  8
0
 10
-132.321
 20
61.7023
 11
-131.224
 21
64.0022
  0
LINE
  8
0
 10
-131.224
 20
64.0022
 11
-130.087
 21
66.2826
  0
LINE
  8
0
 10
-130.087
 20
66.2826
 11
-128.91
 21
68.5428
  0
LINE
  8
0
 10
-128.91
 20
68.5428
 11
-127.694
 21
70.7822
  0
LINE
  8
0
 10
-127.694
 20
70.7822
 11
-126.44
 21
73
  0
LINE
  8
0
 10
-126.44
 20
73
 11
-125.146
 21
75.1956
  0
LINE
  8
0
 10
-125.146
 20
75.1956
 11
-123.815
 21
77.3682
  0
LINE
  8
0
 10
-123.815
 20
77.3682
 11
-122.446
 21
79.5173
  0
LINE
  8
0
 10
-122.446
 20
79.5173
 11
-121.039
 21
81.6422
  0
LINE
  8
0
 10
-121.039
 20
81.6422
 11
-119.596
 21
83.7422
  0
LINE
  8
0
 10
-119.596
 20
83.7422
 11
-118.116
 21
85.8166
  0
LINE
  8
0
 10
-118.116
 20
85.8166
 11
-116.601
 21
87.865
  0
LINE
  8
0
 10
-116.601
 20
87.865
 11
-115.05
 21
89.8866
  0
LINE
  8
0
 10
-115.05
 20
89.8866
 11
-113.463
 21
91.8808
  0
LINE
  8
0
 10
-113.463
 20
91.8808
 11
-111.842
 21
93.847
  0
LINE
  8
0
 10
-111.842
 20
93.847
 11
-110.188
 21
95.7846
  0
LINE
  8
0
 10
-110.188
 20
95.7846
 11
-108.499
 21
97.6931
  0
LINE
  8
0
 10
-108.499
 20
97.6931
 11
-106.778
 21
99.5717
  0
LINE
  8
0
 10
-106.778
 20
99.5717
 11
-105.024
 21
101.42
  0
LINE
  8
0
 10
-105.024
 20
101.42
 11
-103.238
 21
103.238
  0
LINE
  8
0
 10
-103.238
 20
103.238
 11
-101.42
 21
105.024
  0
LINE
  8
0
 10
-101.42
 20
105.024
 11
-99.5717
 21
106.778
  0
LINE
  8
0
 10
-99.5717
 20
106.778
 11
-97.6931
 21
108.499
  0
LINE
  8
0
 10
-97.6931
 20
108.499
 11
-95.7846
 21
110.188
  0
LINE
  8
0
 10
-95.7846
 20
110.188
 11
-93.847
 21
111.842
  0
LINE
  8
0
 10
-93.847
 20
111.842
 11
-91.8808
 21
113.463
  0
LINE
  8
0
 10
-91.8808
 20
113.463
 11
-89.8866
 21
115.05
  0
LINE
  8
0
 10
-89.8866
 20
115.05
 11
-87.865
 21
116.601
  0
LINE
  8
0
 10
-87.865
 20
116.601
 11
-85.8166
 21
118.116
  0
LINE
  8
0
 10
-85.8166
 20
118.116
 11
-83.7422
 21
119.596
  0
LINE
  8
0
 10
-83.7422
 20
119.596
 11
-81.6422
 21
121.039
  0
LINE
  8
0
 10
-81.6422
 20
121.039
 11
-79.5173
 21
122.446
  0
LINE
  8
0
 10
-79.5173
 20
122.446
 11
-77.3682
 21
123.815
  0
LINE
  8
0
 10
-77.3682
 20
123.815
 11
-75.1956
 21
125.146
  0
LINE
  8
0
 10
-75.1956
 20
125.146
 11
-73
 21
126.44
  0
LINE
  8
0
 10
-73
 20
126.44
 11
-70.7822
 21
127.694
  0
LINE
  8
0
 10
-70.7822
 20
127.694
 11
-68.5428
 21
128.91
  0
LINE
  8
0
 10
-68.5428
 20
128.91
 11
-66.2826
 21
130.087
  0
LINE
  8
0
 10
-66.2826
 20
130.087
 11
-64.0022
 21
131.224
  0
LINE
  8
0
 10
-64.0022
 20
131.224
 11
-61.7023
 21
132.321
  0
LINE
  8
0
 10
-61.7023
 20
132.321
 11
-59.3835
 21
133.378
  0
LINE
  8
0
 10
-59.3835
 20
133.378
 11
-57.0467
 21
134.394
  0
LINE
  8
0
 10
-57.0467
 20
134.394
 11
-54.6926
 21
135.369
  0
LINE
  8
0
 10
-54.6926
 20
135.369
 11
-52.3217
 21
136.303
  0
LINE
  8
0
 10
-52.3217
 20
136.303
 11
-49.9349
 21
137.195
  0
LINE
  8
0
 10
-49.9349
 20
137.195
 11
-47.5329
 21
138.046
  0
LINE
  8
0
 10
-47.5329
 20
138.046
 11
-45.1165
 21
138.854
  0
LINE
  8
0
 10
-45.1165
 20
138.854
 11
-42.6863
 21
139.62
  0
LINE
  8
0
 10
-42.6863
 20
139.62
 11
-40.243
 21
140.344
  0
LINE
  8
0
 10
-40.243
 20
140.344
 11
-37.7876
 21
141.025
  0
LINE
  8
0
 10
-37.7876
 20
141.025
 11
-35.3206
 21
141.663
  0
LINE
  8
0
 10
-35.3206
 20
141.663
 11
-32.8428
 21
142.258
  0
LINE
  8
0
 10
-32.8428
 20
142.258
 11
-30.3551
 21
142.81
  0
LINE
  8
0
 10
-30.3551
 20
142.81
 11
-27.8581
 21
143.318
  0
LINE
  8
0
 10
-27.8581
 20
143.318
 11
-25.3526
 21
143.782
  0
LINE
  8
0
 10
-25.3526
 20
143.782
 11
-22.8394
 21
144.202
  0
LINE
  8
0
 10
-22.8394
 20
144.202
 11
-20.3193
 21
144.579
  0
LINE
  8
0
 10
-20.3193
 20
144.579
 11
-17.7929
 21
144.912
  0
LINE
  8
0
 10
-17.7929
 20
144.912
 11
-15.2612
 21
145.2
  0
LINE
  8
0
 10
-15.2612
 20
145.2
 11
-12.7247
 21
145.444
  0
LINE
  8
0
 10
-12.7247
 20
145.444
 11
-10.1844
 21
145.644
  0
LINE
  8
0
 10
-10.1844
 20
145.644
 11
-7.64104
 21
145.8
  0
LINE
  8
0
 10
-7.64104
 20
145.8
 11
-5.09532
 21
145.911
  0
LINE
  8
0
 10
-5.09532
 20
145.911
 11
-2.54805
 21
145.978
  0
LINE
  8
0
 10
-2.54805
 20
145.978
 11
0
 21
146
  0
LINE
  8
0
 10
0
 20
146
 11
2.54805
 21
145.978
  0
LINE
  8
0
 10
2.54805
 20
145.978
 11
5.09532
 21
145.911
  0
LINE
  8
0
 10
5.09532
 20
145.911
 11
7.64104
 21
145.8
  0
LINE
  8
0
 10
7.64104
 20
145.8
 11
10.1844
 21
145.644
  0
LINE
  8
0
 10
10.1844
 20
145.644
 11
12.7247
 21
145.444
  0
LINE
  8
0
 10
12.7247
 20
145.444
 11
15.2612
 21
145.2
  0
LINE
  8
0
 10
15.2612
 20
145.2
 11
17.7929
 21
144.912
  0
LINE
  8
0
 10
17.7929
 20
144.912
 11
20.3193
 21
144.579
  0
LINE
  8
0
 10
20.3193
 20
144.579
 11
22.8394
 21
144.202
  0
LINE
  8
0
 10
22.8394
 20
144.202
 11
25.3526
 21
143.782
  0
LINE
  8
0
 10
25.3526
 20
143.782
 11
27.8581
 21
143.318
  0
LINE
  8
0
 10
27.8581
 20
143.318
 11
30.3551
 21
142.81
  0
LINE
  8
0
 10
30.3551
 20
142.81
 11
32.8428
 21
142.258
  0
LINE
  8
0
 10
32.8428
 20
142.258
 11
35.3206
 21
141.663
  0
LINE
  8
0
 10
35.3206
 20
141.663
 11
37.7876
 21
141.025
  0
LINE
  8
0
 10
37.7876
 20
141.025
 11
40.243
 21
140.344
  0
LINE
  8
0
 10
40.243
 20
140.344
 11
42.6863
 21
139.62
  0
LINE
  8
0
 10
42.6863
 20
139.62
 11
45.1165
 21
138.854
  0
LINE
  8
0
 10
45.1165
 20
138.854
 11
47.5329
 21
138.046
  0
LINE
  8
0
 10
47.5329
 20
138.046
 11
49.9349
 21
137.195
  0
LINE
  8
0
 10
49.9349
 20
137.195
 11
52.3217
 21
136.303
  0
LINE
  8
0
 10
52.3217
 20
136.303
 11
54.6926
 21
135.369
  0
LINE
  8
0
 10
54.6926
 20
135.369
 11
57.0467
 21
134.394
  0
LINE
  8
0
 10
57.0467
 20
134.394
 11
59.3835
 21
133.378
  0
LINE
  8
0
 10
59.3835
 20
133.378
 11
61.7023
 21
132.321
  0
LINE
  8
0
 10
61.7023
 20
132.321
 11
64.0022
 21
131.224
  0
LINE
  8
0
 10
64.0022
 20
131.224
 11
66.2826
 21
130.087
  0
LINE
  8
0
 10
66.2826
 20
130.087
 11
68.5428
 21
128.91
  0
LINE
  8
0
 10
68.5428
 20
128.91
 11
70.7822
 21
127.694
  0
LINE
  8
0
 10
70.7822
 20
127.694
 11
73
 21
126.44
  0
LINE
  8
0
 10
73
 20
126.44
 11
75.1956
 21
125.146
  0
LINE
  8
0
 10
75.1956
 20
125.146
 11
77.3682
 21
123.815
  0
LINE
  8
0
 10
77.3682
 20
123.815
 11
79.5173
 21
122.446
  0
LINE
  8
0
 10
79.5173
 20
122.446
 11
81.6422
 21
121.039
  0
LINE
  8
0
 10
81.6422
 20
121.039
 11
83.7422
 21
119.596
  0
LINE
  8
0
 10
83.7422
 20
119.596
 11
85.8166
 21
118.116
  0
LINE
  8
0
 10
85.8166
 20
118.116
 11
87.865
 21
116.601
  0
LINE
  8
0
 10
87.865
 20
116.601
 11
89.8866
 21
115.05
  0
LINE
  8
0
 10
89.8866
 20
115.05
 11
91.8808
 21
113.463
  0
LINE
  8
0
 10
91.8808
 20
113.463
 11
93.847
 21
111.842
  0
LINE
  8
0
 10
93.847
 20
111.842
 11
95.7846
 21
110.188
  0
LINE
  8
0
 10
95.7846
 20
110.188
 11
97.6931
 21
108.499
  0
LINE
  8
0
 10
97.6931
 20
108.499
 11
99.5717
 21
106.778
  0
LINE
  8
0
 10
99.5717
 20
106.778
 11
101.42
 21
105.024
  0
LINE
  8
0
 10
101.42
 20
105.024
 11
103.238
 21
103.238
  0
LINE
  8
0
 10
103.238
 20
103.238
 11
105.024
 21
101.42
  0
LINE
  8
0
 10
105.024
 20
101.42
 11
106.778
 21
99.5717
  0
LINE
  8
0
 10
106.778
 20
99.5717
 11
108.499
 21
97.6931
  0
LINE
  8
0
 10
108.499
 20
97.6931
 11
110.188
 21
95.7846
  0
LINE
  8
0
 10
110.188
 20
95.7846
 11
111.842
 21
93.847
  0
LINE
  8
0
 10
111.842
 20
93.847
 11
113.463
 21
91.8808
  0
LINE
  8
0
 10
113.463
 20
91.8808
 11
115.05
 21
89.8866
  0
LINE
  8
0
 10
115.05
 20
89.8866
 11
116.601
 21
87.865
  0
LINE
  8
0
 10
116.601
 20
87.865
 11
118.116
 21
85.8166
  0
LINE
  8
0
 10
118.116
 20
85.8166
 11
119.596
 21
83.7422
  0
LINE
  8
0
 10
119.596
 20
83.7422
 11
121.039
 21
81.6422
  0
LINE
  8
0
 10
121.039
 20
81.6422
 11
122.446
 21
79.5173
  0
LINE
  8
0
 10
122.446
 20
79.5173
 11
123.815
 21
77.3682
  0
LINE
  8
0
 10
123.815
 20
77.3682
 11
125.146
 21
75.1956
  0
LINE
  8
0
 10
125.146
 20
75.1956
 11
126.44
 21
73
  0
LINE
  8
0
 10
126.44
 20
73
 11
127.694
 21
70.7822
  0
LINE
  8
0
 10
127.694
 20
70.7822
 11
128.91
 21
68.5428
  0
LINE
  8
0
 10
128.91
 20
68.5428
 11
130.087
 21
66.2826
  0
LINE
  8
0
 10
130.087
 20
66.2826
 11
131.224
 21
64.0022
  0
LINE
  8
0
 10
131.224
 20
64.0022
 11
132.321
 21
61.7023
  0
LINE
  8
0
 10
132.321
 20
61.7023
 11
133.378
 21
59.3835
  0
LINE
  8
0
 10
133.378
 20
59.3835
 11
134.394
 21
57.0467
  0
LINE
  8
0
 10
134.394
 20
57.0467
 11
135.369
 21
54.6926
  0
LINE
  8
0
 10
135.369
 20
54.6926
 11
136.303
 21
52.3217
  0
LINE
  8
0
 10
136.303
 20
52.3217
 11
137.195
 21
49.9349
  0
LINE
  8
0
 10
137.195
 20
49.9349
 11
138.046
 21
47.5329
  0
LINE
  8
0
 10
138.046
 20
47.5329
 11
138.854
 21
45.1165
  0
LINE
  8
0
 10
138.854
 20
45.1165
 11
139.62
 21
42.6863
  0
LINE
  8
0
 10
139.62
 20
42.6863
 11
140.344
 21
40.243
  0
LINE
  8
0
 10
140.344
 20
40.243
 11
141.025
 21
37.7876
  0
LINE
  8
0
 10
141.025
 20
37.7876
 11
141.663
 21
35.3206
  0
LINE
  8
0
 10
141.663
 20
35.3206
 11
142.258
 21
32.8428
  0
LINE
  8
0
 10
142.258
 20
32.8428
 11
142.81
 21
30.3551
  0
LINE
  8
0
 10
142.81
 20
30.3551
 11
143.318
 21
27.8581
  0
LINE
  8
0
 10
143.318
 20
27.8581
 11
143.782
 21
25.3526
  0
LINE
  8
0
 10
143.782
 20
25.3526
 11
144.202
 21
22.8394
  0
LINE
  8
0
 10
144.202
 20
22.8394
 11
144.579
 21
20.3193
  0
LINE
  8
0
 10
144.579
 20
20.3193
 11
144.912
 21
17.7929
  0
LINE
  8
0
 10
144.912
 20
17.7929
 11
145.2
 21
15.2612
  0
LINE
  8
0
 10
145.2
 20
15.2612
 11
145.444
 21
12.7247
  0
LINE
  8
0
 10
145.444
 20
12.7247
 11
145.644
 21
10.1844
  0
LINE
  8
0
 10
145.644
 20
10.1844
 11
145.8
 21
7.64104
  0
LINE
  8
0
 10
145.8
 20
7.64104
 11
145.911
 21
5.09532
  0
LINE
  8
0
 10
145.911
 20
5.09532
 11
145.978
 21
2.54805
  0
LINE
  8
0
 10
145.978
 20
2.54805
 11
146
 21
0
  0
LINE
  8
0
 10
146
 20
0
 11
145.978
 21
-2.54805
  0
LINE
  8
0
 10
145.978
 20
-2.54805
 11
145.911
 21
-5.09532
  0
LINE
  8
0
 10
145.911
 20
-5.09532
 11
145.8
 21
-7.64104
  0
LINE
  8
0
 10
145.8
 20
-7.64104
 11
145.644
 21
-10.1844
  0
LINE
  8
0
 10
145.644
 20
-10.1844
 11
145.444
 21
-12.7247
  0
LINE
  8
0
 10
145.444
 20
-12.7247
 11
145.2
 21
-15.2612
  0
LINE
  8
0
 10
145.2
 20
-15.2612
 11
144.912
 21
-17.7929
  0
LINE
  8
0
 10
144.912
 20
-17.7929
 11
144.579
 21
-20.3193
  0
LINE
  8
0
 10
144.579
 20
-20.3193
 11
144.202
 21
-22.8394
  0
LINE
  8
0
 10
144.202
 20
-22.8394
 11
143.782
 21
-25.3526
  0
LINE
  8
0
 10
143.782
 20
-25.3526
 11
143.318
 21
-27.8581
  0
LINE
  8
0
 10
143.318
 20
-27.8581
 11
142.81
 21
-30.3551
  0
LINE
  8
0
 10
142.81
 20
-30.3551
 11
142.258
 21
-32.8428
  0
LINE
  8
0
 10
142.258
 20
-32.8428
 11
141.663
 21
-35.3206
  0
LINE
  8
0
 10
141.663
 20
-35.3206
 11
141.025
 21
-37.7876
  0
LINE
  8
0
 10
141.025
 20
-37.7876
 11
140.344
 21
-40.243
  0
LINE
  8
0
 10
140.344
 20
-40.243
 11
139.62
 21
-42.6863
  0
LINE
  8
0
 10
139.62
 20
-42.6863
 11
138.854
 21
-45.1165
  0
LINE
  8
0
 10
138.854
 20
-45.1165
 11
138.046
 21
-47.5329
  0
LINE
  8
0
 10
138.046
 20
-47.5329
 11
137.195
 21
-49.9349
  0
LINE
  8
0
 10
137.195
 20
-49.9349
 11
136.303
 21
-52.3217
  0
LINE
  8
0
 10
136.303
 20
-52.3217
 11
135.369
 21
-54.6926
  0
LINE
  8
0
 10
135.369
 20
-54.6926
 11
134.394
 21
-57.0467
  0
LINE
  8
0
 10
134.394
 20
-57.0467
 11
133.378
 21
-59.3835
  0
LINE
  8
0
 10
133.378
 20
-59.3835
 11
132.321
 21
-61.7023
  0
LINE
  8
0
 10
132.321
 20
-61.7023
 11
131.224
 21
-64.0022
  0
LINE
  8
0
 10
131.224
 20
-64.0022
 11
130.087
 21
-66.2826
  0
LINE
  8
0
 10
130.087
 20
-66.2826
 11
128.91
 21
-68.5428
  0
LINE
  8
0
 10
128.91
 20
-68.5428
 11
127.694
 21
-70.7822
  0
LINE
  8
0
 10
127.694
 20
-70.7822
 11
126.44
 21
-73
  0
LINE
  8
0
 10
126.44
 20
-73
 11
125.146
 21
-75.1956
  0
LINE
  8
0
 10
125.146
 20
-75.1956
 11
123.815
 21
-77.3682
  0
LINE
  8
0
 10
123.815
 20
-77.3682
 11
122.446
 21
-79.5173
  0
LINE
  8
0
 10
122.446
 20
-79.5173
 11
121.039
 21
-81.6422
  0
LINE
  8
0
 10
121.039
 20
-81.6422
 11
119.596
 21
-83.7422
  0
LINE
  8
0
 10
119.596
 20
-83.7422
 11
118.116
 21
-85.8166
  0
LINE
  8
0
 10
118.116
 20
-85.8166
 11
116.601
 21
-87.865
  0
LINE
  8
0
 10
116.601
 20
-87.865
 11
115.05
 21
-89.8866
  0
LINE
  8
0
 10
115.05
 20
-89.8866
 11
113.463
 21
-91.8808
  0
LINE
  8
0
 10
113.463
 20
-91.8808
 11
111.842
 21
-93.847
  0
LINE
  8
0
 10
111.842
 20
-93.847
 11
110.188
 21
-95.7846
  0
LINE
  8
0
 10
110.188
 20
-95.7846
 11
108.499
 21
-97.6931
  0
LINE
  8
0
 10
108.499
 20
-97.6931
 11
106.778
 21
-99.5717
  0
LINE
  8
0
 10
106.778
 20
-99.5717
 11
105.024
 21
-101.42
  0
LINE
  8
0
 10
105.024
 20
-101.42
 11
103.238
 21
-103.238
  0
LINE
  8
0
 10
103.238
 20
-103.238
 11
101.42
 21
-105.024
  0
LINE
  8
0
 10
101.42
 20
-105.024
 11
99.5717
 21
-106.778
  0
LINE
  8
0
 10
99.5717
 20
-106.778
 11
97.6931
 21
-108.499
  0
LINE
  8
0
 10
97.6931
 20
-108.499
 11
95.7846
 21
-110.188
  0
LINE
  8
0
 10
95.7846
 20
-110.188
 11
93.847
 21
-111.842
  0
LINE
  8
0
 10
93.847
 20
-111.842
 11
91.8808
 21
-113.463
  0
LINE
  8
0
 10
91.8808
 20
-113.463
 11
89.8866
 21
-115.05
  0
LINE
  8
0
 10
89.8866
 20
-115.05
 11
87.865
 21
-116.601
  0
LINE
  8
0
 10
87.865
 20
-116.601
 11
85.8166
 21
-118.116
  0
LINE
  8
0
 10
85.8166
 20
-118.116
 11
83.7422
 21
-119.596
  0
LINE
  8
0
 10
83.7422
 20
-119.596
 11
81.6422
 21
-121.039
  0
LINE
  8
0
 10
81.6422
 20
-121.039
 11
79.5173
 21
-122.446
  0
LINE
  8
0
 10
79.5173
 20
-122.446
 11
77.3682
 21
-123.815
  0
LINE
  8
0
 10
77.3682
 20
-123.815
 11
75.1956
 21
-125.146
  0
LINE
  8
0
 10
75.1956
 20
-125.146
 11
73
 21
-126.44
  0
LINE
  8
0
 10
73
 20
-126.44
 11
70.7822
 21
-127.694
  0
LINE
  8
0
 10
70.7822
 20
-127.694
 11
68.5428
 21
-128.91
  0
LINE
  8
0
 10
68.5428
 20
-128.91
 11
66.2826
 21
-130.087
  0
LINE
  8
0
 10
66.2826
 20
-130.087
 11
64.0022
 21
-131.224
  0
LINE
  8
0
 10
64.0022
 20
-131.224
 11
61.7023
 21
-132.321
  0
LINE
  8
0
 10
61.7023
 20
-132.321
 11
59.3835
 21
-133.378
  0
LINE
  8
0
 10
59.3835
 20
-133.378
 11
57.0467
 21
-134.394
  0
LINE
  8
0
 10
57.0467
 20
-134.394
 11
54.6926
 21
-135.369
  0
LINE
  8
0
 10
54.6926
 20
-135.369
 11
52.3217
 21
-136.303
  0
LINE
  8
0
 10
52.3217
 20
-136.303
 11
49.9349
 21
-137.195
  0
LINE
  8
0
 10
49.9349
 20
-137.195
 11
47.5329
 21
-138.046
  0
LINE
  8
0
 10
47.5329
 20
-138.046
 11
45.1165
 21
-138.854
  0
LINE
  8
0
 10
45.1165
 20
-138.854
 11
42.6863
 21
-139.62
  0
LINE
  8
0
 10
42.6863
 20
-139.62
 11
40.243
 21
-140.344
  0
LINE
  8
0
 10
40.243
 20
-140.344
 11
37.7876
 21
-141.025
  0
LINE
  8
0
 10
37.7876
 20
-141.025
 11
35.3206
 21
-141.663
  0
LINE
  8
0
 10
35.3206
 20
-141.663
 11
32.8428
 21
-142.258
  0
LINE
  8
0
 10
32.8428
 20
-142.258
 11
30.3551
 21
-142.81
  0
LINE
  8
0
 10
30.3551
 20
-142.81
 11
27.8581
 21
-143.318
  0
LINE
  8
0
 10
27.8581
 20
-143.318
 11
25.3526
 21
-143.782
  0
LINE
  8
0
 10
25.3526
 20
-143.782
 11
22.8394
 21
-144.202
  0
LINE
  8
0
 10
22.8394
 20
-144.202
 11
20.3193
 21
-144.579
  0
LINE
  8
0
 10
20.3193
 20
-144.579
 11
17.7929
 21
-144.912
  0
LINE
  8
0
 10
17.7929
 20
-144.912
 11
15.2612
 21
-145.2
  0
LINE
  8
0
 10
15.2612
 20
-145.2
 11
12.7247
 21
-145.444
  0
LINE
  8
0
 10
12.7247
 20
-145.444
 11
10.1844
 21
-145.644
  0
LINE
  8
0
 10
10.1844
 20
-145.644
 11
7.64104
 21
-145.8
  0
LINE
  8
0
 10
7.64104
 20
-145.8
 11
5.09532
 21
-145.911
  0
LINE
  8
0
 10
5.09532
 20
-145.911
 11
2.54805
 21
-145.978
  0
LINE
  8
0
 10
2.54805
 20
-145.978
 11
0
 21
-146
  0
LINE
  8
0
 10
0
 20
-146
 11
-2.54805
 21
-145.978
  0
LINE
  8
0
 10
-60.8113
 20
143.084
 11
-59.89
 21
144.587
  0
LINE
  8
0
 10
-59.89
 20
144.587
 11
-58.1753
 21
144.175
  0
LINE
  8
0
 10
-58.1753
 20
144.175
 11
-58.037
 21
142.418
  0
LINE
  8
0
 10
-58.037
 20
142.418
 11
-59.6661
 21
141.743
  0
LINE
  8
0
 10
-59.6661
 20
141.743
 11
-60.8113
 21
143.084
  0
LINE
  8
0
 10
58.037
 20
142.418
 11
58.1753
 21
144.175
  0
LINE
  8
0
 10
58.1753
 20
144.175
 11
59.8899
 21
144.587
  0
LINE
  8
0
 10
59.8899
 20
144.587
 11
60.8113
 21
143.084
  0
LINE
  8
0
 10
60.8113
 20
143.084
 11
59.6661
 21
141.743
  0
LINE
  8
0
 10
59.6661
 20
141.743
 11
58.037
 21
142.418
  0
LINE
  8
0
 10
137.813
 20
134.67
 11
137.062
 21
134.897
  0
LINE
  8
0
 10
137.062
 20
134.897
 11
136.371
 21
135.267
  0
LINE
  8
0
 10
136.371
 20
135.267
 11
135.764
 21
135.764
  0
LINE
  8
0
 10
135.764
 20
135.764
 11
135.267
 21
136.371
  0
LINE
  8
0
 10
135.267
 20
136.371
 11
134.897
 21
137.062
  0
LINE
  8
0
 10
134.897
 20
137.062
 11
134.67
 21
137.813
  0
LINE
  8
0
 10
134.67
 20
137.813
 11
134.593
 21
138.593
  0
LINE
  8
0
 10
134.593
 20
138.593
 11
134.67
 21
139.373
  0
LINE
  8
0
 10
134.67
 20
139.373
 11
134.897
 21
140.124
  0
LINE
  8
0
 10
134.897
 20
140.124
 11
135.267
 21
140.815
  0
LINE
  8
0
 10
135.267
 20
140.815
 11
135.764
 21
141.421
  0
LINE
  8
0
 10
135.764
 20
141.421
 11
136.371
 21
141.919
  0
LINE
  8
0
 10
136.371
 20
141.919
 11
137.062
 21
142.288
  0
LINE
  8
0
 10
137.062
 20
142.288
 11
137.813
 21
142.516
  0
LINE
  8
0
 10
137.813
 20
142.516
 11
138.593
 21
142.593
  0
LINE
  8
0
 10
138.593
 20
142.593
 11
139.373
 21
142.516
  0
LINE
  8
0
 10
139.373
 20
142.516
 11
140.124
 21
142.288
  0
LINE
  8
0
 10
140.124
 20
142.288
 11
140.815
 21
141.919
  0
LINE
  8
0
 10
140.815
 20
141.919
 11
141.421
 21
141.421
  0
LINE
  8
0
 10
141.421
 20
141.421
 11
141.919
 21
140.815
  0
LINE
  8
0
 10
141.919
 20
140.815
 11
142.288
 21
140.124
  0
LINE
  8
0
 10
142.288
 20
140.124
 11
142.516
 21
139.373
  0
LINE
  8
0
 10
142.516
 20
139.373
 11
142.593
 21
138.593
  0
LINE
  8
0
 10
142.593
 20
138.593
 11
142.516
 21
137.813
  0
LINE
  8
0
 10
142.516
 20
137.813
 11
142.288
 21
137.062
  0
LINE
  8
0
 10
142.288
 20
137.062
 11
141.919
 21
136.371
  0
LINE
  8
0
 10
141.919
 20
136.371
 11
141.421
 21
135.764
  0
LINE
  8
0
 10
141.421
 20
135.764
 11
140.815
 21
135.267
  0
LINE
  8
0
 10
140.815
 20
135.267
 11
140.124
 21
134.897
  0
LINE
  8
0
 10
140.124
 20
134.897
 11
139.373
 21
134.67
  0
LINE
  8
0
 10
139.373
 20
134.67
 11
138.593
 21
134.593
  0
LINE
  8
0
 10
138.593
 20
134.593
 11
137.813
 21
134.67
  0
LINE
  8
0
 10
-139.373
 20
134.67
 11
-140.124
 21
134.897
  0
LINE
  8
0
 10
-140.124
 20
134.897
 11
-140.815
 21
135.267
  0
LINE
  8
0
 10
-140.815
 20
135.267
 11
-141.421
 21
135.764
  0
LINE
  8
0
 10
-141.421
 20
135.764
 11
-141.919
 21
136.371
  0
LINE
  8
0
 10
-141.919
 20
136.371
 11
-142.288
 21
137.062
  0
LINE
  8
0
 10
-142.288
 20
137.062
 11
-142.516
 21
137.813
  0
LINE
  8
0
 10
-142.516
 20
137.813
 11
-142.593
 21
138.593
  0
LINE
  8
0
 10
-142.593
 20
138.593
 11
-142.516
 21
139.373
  0
LINE
  8
0
 10
-142.516
 20
139.373
 11
-142.288
 21
140.124
  0
LINE
  8
0
 10
-142.288
 20
140.124
 11
-141.919
 21
140.815
  0
LINE
  8
0
 10
-141.919
 20
140.815
 11
-141.421
 21
141.421
  0
LINE
  8
0
 10
-141.421
 20
141.421
 11
-140.815
 21
141.919
  0
LINE
  8
0
 10
-140.815
 20
141.919
 11
-140.124
 21
142.288
  0
LINE
  8
0
 10
-140.124
 20
142.288
 11
-139.373
 21
142.516
  0
LINE
  8
0
 10
-139.373
 20
142.516
 11
-138.593
 21
142.593
  0
LINE
  8
0
 10
-138.593
 20
142.593
 11
-137.813
 21
142.516
  0
LINE
  8
0
 10
-137.813
 20
142.516
 11
-137.062
 21
142.288
  0
LINE
  8
0
 10
-137.062
 20
142.288
 11
-136.371
 21
141.919
  0
LINE
  8
0
 10
-136.371
 20
141.919
 11
-135.764
 21
141.421
  0
LINE
  8
0
 10
-135.764
 20
141.421
 11
-135.267
 21
140.815
  0
LINE
  8
0
 10
-135.267
 20
140.815
 11
-134.897
 21
140.124
  0
LINE
  8
0
 10
-134.897
 20
140.124
 11
-134.67
 21
139.373
  0
LINE
  8
0
 10
-134.67
 20
139.373
 11
-134.593
 21
138.593
  0
LINE
  8
0
 10
-134.593
 20
138.593
 11
-134.67
 21
137.813
  0
LINE
  8
0
 10
-134.67
 20
137.813
 11
-134.897
 21
137.062
  0
LINE
  8
0
 10
-134.897
 20
137.062
 11
-135.267
 21
136.371
  0
LINE
  8
0
 10
-135.267
 20
136.371
 11
-135.764
 21
135.764
  0
LINE
  8
0
 10
-135.764
 20
135.764
 11
-136.371
 21
135.267
  0
LINE
  8
0
 10
-136.371
 20
135.267
 11
-137.062
 21
134.897
  0
LINE
  8
0
 10
-137.062
 20
134.897
 11
-137.813
 21
134.67
  0
LINE
  8
0
 10
-137.813
 20
134.67
 11
-138.593
 21
134.593
  0
LINE
  8
0
 10
-138.593
 20
134.593
 11
-139.373
 21
134.67
  0
LINE
  8
0
 10
71.4043
 20
137.176
 11
71.2577
 21
137.305
  0
LINE
  8
0
 10
71.2577
 20
137.305
 11
71.1714
 21
137.48
  0
LINE
  8
0
 10
71.1714
 20
137.48
 11
71.1586
 21
137.674
  0
LINE
  8
0
 10
71.1586
 20
137.674
 11
71.2213
 21
137.859
  0
LINE
  8
0
 10
71.2213
 20
137.859
 11
71.3499
 21
138.006
  0
LINE
  8
0
 10
71.3499
 20
138.006
 11
71.5249
 21
138.092
  0
LINE
  8
0
 10
71.5249
 20
138.092
 11
71.7196
 21
138.105
  0
LINE
  8
0
 10
71.7196
 20
138.105
 11
71.9043
 21
138.042
  0
LINE
  8
0
 10
71.9043
 20
138.042
 11
72.051
 21
137.913
  0
LINE
  8
0
 10
72.051
 20
137.913
 11
72.1373
 21
137.738
  0
LINE
  8
0
 10
72.1373
 20
137.738
 11
72.15
 21
137.544
  0
LINE
  8
0
 10
72.15
 20
137.544
 11
72.0873
 21
137.359
  0
LINE
  8
0
 10
72.0873
 20
137.359
 11
71.9587
 21
137.212
  0
LINE
  8
0
 10
71.9587
 20
137.212
 11
71.7837
 21
137.126
  0
LINE
  8
0
 10
71.7837
 20
137.126
 11
71.5891
 21
137.113
  0
LINE
  8
0
 10
71.5891
 20
137.113
 11
71.4043
 21
137.176
  0
LINE
  8
0
 10
-71.7837
 20
137.126
 11
-71.9587
 21
137.212
  0
LINE
  8
0
 10
-71.9587
 20
137.212
 11
-72.0873
 21
137.359
  0
LINE
  8
0
 10
-72.0873
 20
137.359
 11
-72.15
 21
137.544
  0
LINE
  8
0
 10
-72.15
 20
137.544
 11
-72.1373
 21
137.738
  0
LINE
  8
0
 10
-72.1373
 20
137.738
 11
-72.051
 21
137.913
  0
LINE
  8
0
 10
-72.051
 20
137.913
 11
-71.9043
 21
138.042
  0
LINE
  8
0
 10
-71.9043
 20
138.042
 11
-71.7196
 21
138.105
  0
LINE
  8
0
 10
-71.7196
 20
138.105
 11
-71.5249
 21
138.092
  0
LINE
  8
0
 10
-71.5249
 20
138.092
 11
-71.3499
 21
138.006
  0
LINE
  8
0
 10
-71.3499
 20
138.006
 11
-71.2213
 21
137.859
  0
LINE
  8
0
 10
-71.2213
 20
137.859
 11
-71.1586
 21
137.674
  0
LINE
  8
0
 10
-71.1586
 20
137.674
 11
-71.1714
 21
137.48
  0
LINE
  8
0
 10
-71.1714
 20
137.48
 11
-71.2577
 21
137.305
  0
LINE
  8
0
 10
-71.2577
 20
137.305
 11
-71.4043
 21
137.176
  0
LINE
  8
0
 10
-71.4043
 20
137.176
 11
-71.5891
 21
137.113
  0
LINE
  8
0
 10
-71.5891
 20
137.113
 11
-71.7837
 21
137.126
  0
LINE
  8
0
 10
83.0957
 20
130.426
 11
82.949
 21
130.555
  0
LINE
  8
0
 10
82.949
 20
130.555
 11
82.8627
 21
130.73
  0
LINE
  8
0
 10
82.8627
 20
130.73
 11
82.8499
 21
130.924
  0
LINE
  8
0
 10
82.8499
 20
130.924
 11
82.9127
 21
131.109
  0
LINE
  8
0
 10
82.9127
 20
131.109
 11
83.0413
 21
131.256
  0
LINE
  8
0
 10
83.0413
 20
131.256
 11
83.2162
 21
131.342
  0
LINE
  8
0
 10
83.2162
 20
131.342
 11
83.4109
 21
131.355
  0
LINE
  8
0
 10
83.4109
 20
131.355
 11
83.5957
 21
131.292
  0
LINE
  8
0
 10
83.5957
 20
131.292
 11
83.7423
 21
131.163
  0
LINE
  8
0
 10
83.7423
 20
131.163
 11
83.8286
 21
130.988
  0
LINE
  8
0
 10
83.8286
 20
130.988
 11
83.8414
 21
130.794
  0
LINE
  8
0
 10
83.8414
 20
130.794
 11
83.7787
 21
130.609
  0
LINE
  8
0
 10
83.7787
 20
130.609
 11
83.65
 21
130.462
  0
LINE
  8
0
 10
83.65
 20
130.462
 11
83.4751
 21
130.376
  0
LINE
  8
0
 10
83.4751
 20
130.376
 11
83.2804
 21
130.363
  0
LINE
  8
0
 10
83.2804
 20
130.363
 11
83.0957
 21
130.426
  0
LINE
  8
0
 10
-83.4751
 20
130.376
 11
-83.65
 21
130.462
  0
LINE
  8
0
 10
-83.65
 20
130.462
 11
-83.7787
 21
130.609
  0
LINE
  8
0
 10
-83.7787
 20
130.609
 11
-83.8414
 21
130.794
  0
LINE
  8
0
 10
-83.8414
 20
130.794
 11
-83.8286
 21
130.988
  0
LINE
  8
0
 10
-83.8286
 20
130.988
 11
-83.7423
 21
131.163
  0
LINE
  8
0
 10
-83.7423
 20
131.163
 11
-83.5957
 21
131.292
  0
LINE
  8
0
 10
-83.5957
 20
131.292
 11
-83.4109
 21
131.355
  0
LINE
  8
0
 10
-83.4109
 20
131.355
 11
-83.2162
 21
131.342
  0
LINE
  8
0
 10
-83.2162
 20
131.342
 11
-83.0413
 21
131.256
  0
LINE
  8
0
 10
-83.0413
 20
131.256
 11
-82.9127
 21
131.109
  0
LINE
  8
0
 10
-82.9127
 20
131.109
 11
-82.8499
 21
130.924
  0
LINE
  8
0
 10
-82.8499
 20
130.924
 11
-82.8627
 21
130.73
  0
LINE
  8
0
 10
-82.8627
 20
130.73
 11
-82.949
 21
130.555
  0
LINE
  8
0
 10
-82.949
 20
130.555
 11
-83.0957
 21
130.426
  0
LINE
  8
0
 10
-83.0957
 20
130.426
 11
-83.2804
 21
130.363
  0
LINE
  8
0
 10
-83.2804
 20
130.363
 11
-83.4751
 21
130.376
  0
LINE
  8
0
 10
-105.02
 20
113.913
 11
-105.182
 21
114.021
  0
LINE
  8
0
 10
-105.182
 20
114.021
 11
-105.291
 21
114.183
  0
LINE
  8
0
 10
-105.291
 20
114.183
 11
-105.329
 21
114.374
  0
LINE
  8
0
 10
-105.329
 20
114.374
 11
-105.291
 21
114.566
  0
LINE
  8
0
 10
-105.291
 20
114.566
 11
-105.182
 21
114.728
  0
LINE
  8
0
 10
-105.182
 20
114.728
 11
-105.02
 21
114.836
  0
LINE
  8
0
 10
-105.02
 20
114.836
 11
-104.829
 21
114.874
  0
LINE
  8
0
 10
-104.829
 20
114.874
 11
-104.637
 21
114.836
  0
LINE
  8
0
 10
-104.637
 20
114.836
 11
-104.475
 21
114.728
  0
LINE
  8
0
 10
-104.475
 20
114.728
 11
-104.367
 21
114.566
  0
LINE
  8
0
 10
-104.367
 20
114.566
 11
-104.329
 21
114.375
  0
LINE
  8
0
 10
-104.329
 20
114.375
 11
-104.367
 21
114.183
  0
LINE
  8
0
 10
-104.367
 20
114.183
 11
-104.475
 21
114.021
  0
LINE
  8
0
 10
-104.475
 20
114.021
 11
-104.637
 21
113.913
  0
LINE
  8
0
 10
-104.637
 20
113.913
 11
-104.829
 21
113.875
  0
LINE
  8
0
 10
-104.829
 20
113.875
 11
-105.02
 21
113.913
  0
LINE
  8
0
 10
104.637
 20
113.913
 11
104.475
 21
114.021
  0
LINE
  8
0
 10
104.475
 20
114.021
 11
104.367
 21
114.183
  0
LINE
  8
0
 10
104.367
 20
114.183
 11
104.329
 21
114.375
  0
LINE
  8
0
 10
104.329
 20
114.375
 11
104.367
 21
114.566
  0
LINE
  8
0
 10
104.367
 20
114.566
 11
104.475
 21
114.728
  0
LINE
  8
0
 10
104.475
 20
114.728
 11
104.637
 21
114.836
  0
LINE
  8
0
 10
104.637
 20
114.836
 11
104.829
 21
114.874
  0
LINE
  8
0
 10
104.829
 20
114.874
 11
105.02
 21
114.836
  0
LINE
  8
0
 10
105.02
 20
114.836
 11
105.182
 21
114.728
  0
LINE
  8
0
 10
105.182
 20
114.728
 11
105.291
 21
114.566
  0
LINE
  8
0
 10
105.291
 20
114.566
 11
105.329
 21
114.374
  0
LINE
  8
0
 10
105.329
 20
114.374
 11
105.291
 21
114.183
  0
LINE
  8
0
 10
105.291
 20
114.183
 11
105.182
 21
114.021
  0
LINE
  8
0
 10
105.182
 20
114.021
 11
105.02
 21
113.913
  0
LINE
  8
0
 10
105.02
 20
113.913
 11
104.829
 21
113.875
  0
LINE
  8
0
 10
104.829
 20
113.875
 11
104.637
 21
113.913
  0
LINE
  8
0
 10
-114.566
 20
104.367
 11
-114.728
 21
104.475
  0
LINE
  8
0
 10
-114.728
 20
104.475
 11
-114.836
 21
104.637
  0
LINE
  8
0
 10
-114.836
 20
104.637
 11
-114.874
 21
104.829
  0
LINE
  8
0
 10
-114.874
 20
104.829
 11
-114.836
 21
105.02
  0
LINE
  8
0
 10
-114.836
 20
105.02
 11
-114.728
 21
105.182
  0
LINE
  8
0
 10
-114.728
 20
105.182
 11
-114.566
 21
105.291
  0
LINE
  8
0
 10
-114.566
 20
105.291
 11
-114.374
 21
105.329
  0
LINE
  8
0
 10
-114.374
 20
105.329
 11
-114.183
 21
105.291
  0
LINE
  8
0
 10
-114.183
 20
105.291
 11
-114.021
 21
105.182
  0
LINE
  8
0
 10
-114.021
 20
105.182
 11
-113.913
 21
105.02
  0
LINE
  8
0
 10
-113.913
 20
105.02
 11
-113.875
 21
104.829
  0
LINE
  8
0
 10
-113.875
 20
104.829
 11
-113.913
 21
104.637
  0
LINE
  8
0
 10
-113.913
 20
104.637
 11
-114.021
 21
104.475
  0
LINE
  8
0
 10
-114.021
 20
104.475
 11
-114.183
 21
104.367
  0
LINE
  8
0
 10
-114.183
 20
104.367
 11
-114.375
 21
104.329
  0
LINE
  8
0
 10
-114.375
 20
104.329
 11
-114.566
 21
104.367
  0
LINE
  8
0
 10
114.183
 20
104.367
 11
114.021
 21
104.475
  0
LINE
  8
0
 10
114.021
 20
104.475
 11
113.913
 21
104.637
  0
LINE
  8
0
 10
113.913
 20
104.637
 11
113.875
 21
104.829
  0
LINE
  8
0
 10
113.875
 20
104.829
 11
113.913
 21
105.02
  0
LINE
  8
0
 10
113.913
 20
105.02
 11
114.021
 21
105.182
  0
LINE
  8
0
 10
114.021
 20
105.182
 11
114.183
 21
105.291
  0
LINE
  8
0
 10
114.183
 20
105.291
 11
114.374
 21
105.329
  0
LINE
  8
0
 10
114.374
 20
105.329
 11
114.566
 21
105.291
  0
LINE
  8
0
 10
114.566
 20
105.291
 11
114.728
 21
105.182
  0
LINE
  8
0
 10
114.728
 20
105.182
 11
114.836
 21
105.02
  0
LINE
  8
0
 10
114.836
 20
105.02
 11
114.874
 21
104.829
  0
LINE
  8
0
 10
114.874
 20
104.829
 11
114.836
 21
104.637
  0
LINE
  8
0
 10
114.836
 20
104.637
 11
114.728
 21
104.475
  0
LINE
  8
0
 10
114.728
 20
104.475
 11
114.566
 21
104.367
  0
LINE
  8
0
 10
114.566
 20
104.367
 11
114.375
 21
104.329
  0
LINE
  8
0
 10
114.375
 20
104.329
 11
114.183
 21
104.367
  0
LINE
  8
0
 10
130.73
 20
82.8627
 11
130.555
 21
82.949
  0
LINE
  8
0
 10
130.555
 20
82.949
 11
130.426
 21
83.0957
  0
LINE
  8
0
 10
130.426
 20
83.0957
 11
130.363
 21
83.2804
  0
LINE
  8
0
 10
130.363
 20
83.2804
 11
130.376
 21
83.4751
  0
LINE
  8
0
 10
130.376
 20
83.4751
 11
130.462
 21
83.65
  0
LINE
  8
0
 10
130.462
 20
83.65
 11
130.609
 21
83.7787
  0
LINE
  8
0
 10
130.609
 20
83.7787
 11
130.794
 21
83.8414
  0
LINE
  8
0
 10
130.794
 20
83.8414
 11
130.988
 21
83.8286
  0
LINE
  8
0
 10
130.988
 20
83.8286
 11
131.163
 21
83.7423
  0
LINE
  8
0
 10
131.163
 20
83.7423
 11
131.292
 21
83.5957
  0
LINE
  8
0
 10
131.292
 20
83.5957
 11
131.355
 21
83.4109
  0
LINE
  8
0
 10
131.355
 20
83.4109
 11
131.342
 21
83.2162
  0
LINE
  8
0
 10
131.342
 20
83.2162
 11
131.256
 21
83.0413
  0
LINE
  8
0
 10
131.256
 20
83.0413
 11
131.109
 21
82.9127
  0
LINE
  8
0
 10
131.109
 20
82.9127
 11
130.924
 21
82.8499
  0
LINE
  8
0
 10
130.924
 20
82.8499
 11
130.73
 21
82.8627
  0
LINE
  8
0
 10
-131.109
 20
82.9127
 11
-131.256
 21
83.0413
  0
LINE
  8
0
 10
-131.256
 20
83.0413
 11
-131.342
 21
83.2162
  0
LINE
  8
0
 10
-131.342
 20
83.2162
 11
-131.355
 21
83.4109
  0
LINE
  8
0
 10
-131.355
 20
83.4109
 11
-131.292
 21
83.5957
  0
LINE
  8
0
 10
-131.292
 20
83.5957
 11
-131.163
 21
83.7423
  0
LINE
  8
0
 10
-131.163
 20
83.7423
 11
-130.988
 21
83.8286
  0
LINE
  8
0
 10
-130.988
 20
83.8286
 11
-130.794
 21
83.8414
  0
LINE
  8
0
 10
-130.794
 20
83.8414
 11
-130.609
 21
83.7787
  0
LINE
  8
0
 10
-130.609
 20
83.7787
 11
-130.462
 21
83.65
  0
LINE
  8
0
 10
-130.462
 20
83.65
 11
-130.376
 21
83.4751
  0
LINE
  8
0
 10
-130.376
 20
83.4751
 11
-130.363
 21
83.2804
  0
LINE
  8
0
 10
-130.363
 20
83.2804
 11
-130.426
 21
83.0957
  0
LINE
  8
0
 10
-130.426
 20
83.0957
 11
-130.555
 21
82.949
  0
LINE
  8
0
 10
-130.555
 20
82.949
 11
-130.73
 21
82.8627
  0
LINE
  8
0
 10
-130.73
 20
82.8627
 11
-130.924
 21
82.8499
  0
LINE
  8
0
 10
-130.924
 20
82.8499
 11
-131.109
 21
82.9127
  0
LINE
  8
0
 10
-171.892
 20
69.6558
 11
-172.304
 21
71.3705
  0
LINE
  8
0
 10
-172.304
 20
71.3705
 11
-170.8
 21
72.2918
  0
LINE
  8
0
 10
-170.8
 20
72.2918
 11
-169.459
 21
71.1466
  0
LINE
  8
0
 10
-169.459
 20
71.1466
 11
-170.134
 21
69.5175
  0
LINE
  8
0
 10
-170.134
 20
69.5175
 11
-171.892
 21
69.6558
  0
LINE
  8
0
 10
169.459
 20
71.1466
 11
170.8
 21
72.2918
  0
LINE
  8
0
 10
170.8
 20
72.2918
 11
172.304
 21
71.3705
  0
LINE
  8
0
 10
172.304
 20
71.3705
 11
171.892
 21
69.6558
  0
LINE
  8
0
 10
171.892
 20
69.6558
 11
170.134
 21
69.5175
  0
LINE
  8
0
 10
170.134
 20
69.5175
 11
169.459
 21
71.1466
  0
LINE
  8
0
 10
-137.859
 20
71.2213
 11
-138.006
 21
71.3499
  0
LINE
  8
0
 10
-138.006
 20
71.3499
 11
-138.092
 21
71.5249
  0
LINE
  8
0
 10
-138.092
 20
71.5249
 11
-138.105
 21
71.7196
  0
LINE
  8
0
 10
-138.105
 20
71.7196
 11
-138.042
 21
71.9043
  0
LINE
  8
0
 10
-138.042
 20
71.9043
 11
-137.913
 21
72.051
  0
LINE
  8
0
 10
-137.913
 20
72.051
 11
-137.738
 21
72.1373
  0
LINE
  8
0
 10
-137.738
 20
72.1373
 11
-137.544
 21
72.15
  0
LINE
  8
0
 10
-137.544
 20
72.15
 11
-137.359
 21
72.0873
  0
LINE
  8
0
 10
-137.359
 20
72.0873
 11
-137.212
 21
71.9587
  0
LINE
  8
0
 10
-137.212
 20
71.9587
 11
-137.126
 21
71.7837
  0
LINE
  8
0
 10
-137.126
 20
71.7837
 11
-137.113
 21
71.5891
  0
LINE
  8
0
 10
-137.113
 20
71.5891
 11
-137.176
 21
71.4043
  0
LINE
  8
0
 10
-137.176
 20
71.4043
 11
-137.305
 21
71.2577
  0
LINE
  8
0
 10
-137.305
 20
71.2577
 11
-137.48
 21
71.1714
  0
LINE
  8
0
 10
-137.48
 20
71.1714
 11
-137.674
 21
71.1586
  0
LINE
  8
0
 10
-137.674
 20
71.1586
 11
-137.859
 21
71.2213
  0
LINE
  8
0
 10
137.48
 20
71.1714
 11
137.305
 21
71.2577
  0
LINE
  8
0
 10
137.305
 20
71.2577
 11
137.176
 21
71.4043
  0
LINE
  8
0
 10
137.176
 20
71.4043
 11
137.113
 21
71.5891
  0
LINE
  8
0
 10
137.113
 20
71.5891
 11
137.126
 21
71.7837
  0
LINE
  8
0
 10
137.126
 20
71.7837
 11
137.212
 21
71.9587
  0
LINE
  8
0
 10
137.212
 20
71.9587
 11
137.359
 21
72.0873
  0
LINE
  8
0
 10
137.359
 20
72.0873
 11
137.544
 21
72.15
  0
LINE
  8
0
 10
137.544
 20
72.15
 11
137.738
 21
72.1373
  0
LINE
  8
0
 10
137.738
 20
72.1373
 11
137.913
 21
72.051
  0
LINE
  8
0
 10
137.913
 20
72.051
 11
138.042
 21
71.9043
  0
LINE
  8
0
 10
138.042
 20
71.9043
 11
138.105
 21
71.7196
  0
LINE
  8
0
 10
138.105
 20
71.7196
 11
138.092
 21
71.5249
  0
LINE
  8
0
 10
138.092
 20
71.5249
 11
138.006
 21
71.3499
  0
LINE
  8
0
 10
138.006
 20
71.3499
 11
137.859
 21
71.2213
  0
LINE
  8
0
 10
137.859
 20
71.2213
 11
137.674
 21
71.1586
  0
LINE
  8
0
 10
137.674
 20
71.1586
 11
137.48
 21
71.1714
  0
LINE
  8
0
 10
151.866
 20
64.5286
 11
161.105
 21
68.3554
  0
LINE
  8
0
 10
161.105
 20
68.3554
 11
162.253
 21
65.5838
  0
LINE
  8
0
 10
162.253
 20
65.5838
 11
153.014
 21
61.7569
  0
LINE
  8
0
 10
153.014
 20
61.7569
 11
151.866
 21
64.5286
  0
LINE
  8
0
 10
-162.253
 20
65.5838
 11
-161.105
 21
68.3554
  0
LINE
  8
0
 10
-161.105
 20
68.3554
 11
-151.866
 21
64.5286
  0
LINE
  8
0
 10
-151.866
 20
64.5286
 11
-153.014
 21
61.7569
  0
LINE
  8
0
 10
-153.014
 20
61.7569
 11
-162.253
 21
65.5838
  0
LINE
  8
0
 10
-144.175
 20
58.1753
 11
-144.587
 21
59.8899
  0
LINE
  8
0
 10
-144.587
 20
59.8899
 11
-143.084
 21
60.8113
  0
LINE
  8
0
 10
-143.084
 20
60.8113
 11
-141.743
 21
59.6661
  0
LINE
  8
0
 10
-141.743
 20
59.6661
 11
-142.418
 21
58.037
  0
LINE
  8
0
 10
-142.418
 20
58.037
 11
-144.175
 21
58.1753
  0
LINE
  8
0
 10
141.743
 20
59.6661
 11
143.084
 21
60.8113
  0
LINE
  8
0
 10
143.084
 20
60.8113
 11
144.587
 21
59.89
  0
LINE
  8
0
 10
144.587
 20
59.89
 11
144.175
 21
58.1753
  0
LINE
  8
0
 10
144.175
 20
58.1753
 11
142.418
 21
58.037
  0
LINE
  8
0
 10
142.418
 20
58.037
 11
141.743
 21
59.6661
  0
LINE
  8
0
 10
-148.101
 20
46.154
 11
-148.276
 21
46.2403
  0
LINE
  8
0
 10
-148.276
 20
46.2403
 11
-148.404
 21
46.3869
  0
LINE
  8
0
 10
-148.404
 20
46.3869
 11
-148.467
 21
46.5717
  0
LINE
  8
0
 10
-148.467
 20
46.5717
 11
-148.454
 21
46.7664
  0
LINE
  8
0
 10
-148.454
 20
46.7664
 11
-148.368
 21
46.9413
  0
LINE
  8
0
 10
-148.368
 20
46.9413
 11
-148.221
 21
47.0699
  0
LINE
  8
0
 10
-148.221
 20
47.0699
 11
-148.037
 21
47.1327
  0
LINE
  8
0
 10
-148.037
 20
47.1327
 11
-147.842
 21
47.1199
  0
LINE
  8
0
 10
-147.842
 20
47.1199
 11
-147.667
 21
47.0336
  0
LINE
  8
0
 10
-147.667
 20
47.0336
 11
-147.538
 21
46.8869
  0
LINE
  8
0
 10
-147.538
 20
46.8869
 11
-147.476
 21
46.7022
  0
LINE
  8
0
 10
-147.476
 20
46.7022
 11
-147.489
 21
46.5075
  0
LINE
  8
0
 10
-147.489
 20
46.5075
 11
-147.575
 21
46.3326
  0
LINE
  8
0
 10
-147.575
 20
46.3326
 11
-147.721
 21
46.2039
  0
LINE
  8
0
 10
-147.721
 20
46.2039
 11
-147.906
 21
46.1412
  0
LINE
  8
0
 10
-147.906
 20
46.1412
 11
-148.101
 21
46.154
  0
LINE
  8
0
 10
147.721
 20
46.2039
 11
147.575
 21
46.3326
  0
LINE
  8
0
 10
147.575
 20
46.3326
 11
147.489
 21
46.5075
  0
LINE
  8
0
 10
147.489
 20
46.5075
 11
147.476
 21
46.7022
  0
LINE
  8
0
 10
147.476
 20
46.7022
 11
147.538
 21
46.8869
  0
LINE
  8
0
 10
147.538
 20
46.8869
 11
147.667
 21
47.0336
  0
LINE
  8
0
 10
147.667
 20
47.0336
 11
147.842
 21
47.1199
  0
LINE
  8
0
 10
147.842
 20
47.1199
 11
148.037
 21
47.1327
  0
LINE
  8
0
 10
148.037
 20
47.1327
 11
148.221
 21
47.0699
  0
LINE
  8
0
 10
148.221
 20
47.0699
 11
148.368
 21
46.9413
  0
LINE
  8
0
 10
148.368
 20
46.9413
 11
148.454
 21
46.7664
  0
LINE
  8
0
 10
148.454
 20
46.7664
 11
148.467
 21
46.5717
  0
LINE
  8
0
 10
148.467
 20
46.5717
 11
148.404
 21
46.3869
  0
LINE
  8
0
 10
148.404
 20
46.3869
 11
148.276
 21
46.2403
  0
LINE
  8
0
 10
148.276
 20
46.2403
 11
148.101
 21
46.154
  0
LINE
  8
0
 10
148.101
 20
46.154
 11
147.906
 21
46.1412
  0
LINE
  8
0
 10
147.906
 20
46.1412
 11
147.721
 21
46.2039
  0
LINE
  8
0
 10
-151.595
 20
33.114
 11
-151.77
 21
33.2003
  0
LINE
  8
0
 10
-151.77
 20
33.2003
 11
-151.899
 21
33.347
  0
LINE
  8
0
 10
-151.899
 20
33.347
 11
-151.961
 21
33.5317
  0
LINE
  8
0
 10
-151.961
 20
33.5317
 11
-151.948
 21
33.7263
  0
LINE
  8
0
 10
-151.948
 20
33.7263
 11
-151.862
 21
33.9013
  0
LINE
  8
0
 10
-151.862
 20
33.9013
 11
-151.716
 21
34.03
  0
LINE
  8
0
 10
-151.716
 20
34.03
 11
-151.531
 21
34.0927
  0
LINE
  8
0
 10
-151.531
 20
34.0927
 11
-151.336
 21
34.0799
  0
LINE
  8
0
 10
-151.336
 20
34.0799
 11
-151.161
 21
33.9936
  0
LINE
  8
0
 10
-151.161
 20
33.9936
 11
-151.033
 21
33.847
  0
LINE
  8
0
 10
-151.033
 20
33.847
 11
-150.97
 21
33.6622
  0
LINE
  8
0
 10
-150.97
 20
33.6622
 11
-150.983
 21
33.4675
  0
LINE
  8
0
 10
-150.983
 20
33.4675
 11
-151.069
 21
33.2926
  0
LINE
  8
0
 10
-151.069
 20
33.2926
 11
-151.216
 21
33.1639
  0
LINE
  8
0
 10
-151.216
 20
33.1639
 11
-151.4
 21
33.1012
  0
LINE
  8
0
 10
-151.4
 20
33.1012
 11
-151.595
 21
33.114
  0
LINE
  8
0
 10
151.216
 20
33.1639
 11
151.069
 21
33.2926
  0
LINE
  8
0
 10
151.069
 20
33.2926
 11
150.983
 21
33.4675
  0
LINE
  8
0
 10
150.983
 20
33.4675
 11
150.97
 21
33.6622
  0
LINE
  8
0
 10
150.97
 20
33.6622
 11
151.033
 21
33.847
  0
LINE
  8
0
 10
151.033
 20
33.847
 11
151.161
 21
33.9936
  0
LINE
  8
0
 10
151.161
 20
33.9936
 11
151.336
 21
34.0799
  0
LINE
  8
0
 10
151.336
 20
34.0799
 11
151.531
 21
34.0927
  0
LINE
  8
0
 10
151.531
 20
34.0927
 11
151.716
 21
34.03
  0
LINE
  8
0
 10
151.716
 20
34.03
 11
151.862
 21
33.9013
  0
LINE
  8
0
 10
151.862
 20
33.9013
 11
151.948
 21
33.7263
  0
LINE
  8
0
 10
151.948
 20
33.7263
 11
151.961
 21
33.5317
  0
LINE
  8
0
 10
151.961
 20
33.5317
 11
151.899
 21
33.347
  0
LINE
  8
0
 10
151.899
 20
33.347
 11
151.77
 21
33.2003
  0
LINE
  8
0
 10
151.77
 20
33.2003
 11
151.595
 21
33.114
  0
LINE
  8
0
 10
151.595
 20
33.114
 11
151.4
 21
33.1012
  0
LINE
  8
0
 10
151.4
 20
33.1012
 11
151.216
 21
33.1639
  0
LINE
  8
0
 10
-155.191
 20
6.28806
 11
-155.354
 21
6.39644
  0
LINE
  8
0
 10
-155.354
 20
6.39644
 11
-155.462
 21
6.55865
  0
LINE
  8
0
 10
-155.462
 20
6.55865
 11
-155.5
 21
6.75
  0
LINE
  8
0
 10
-155.5
 20
6.75
 11
-155.462
 21
6.94133
  0
LINE
  8
0
 10
-155.462
 20
6.94133
 11
-155.354
 21
7.10355
  0
LINE
  8
0
 10
-155.354
 20
7.10355
 11
-155.191
 21
7.21193
  0
LINE
  8
0
 10
-155.191
 20
7.21193
 11
-155
 21
7.25
  0
LINE
  8
0
 10
-155
 20
7.25
 11
-154.809
 21
7.21193
  0
LINE
  8
0
 10
-154.809
 20
7.21193
 11
-154.646
 21
7.10355
  0
LINE
  8
0
 10
-154.646
 20
7.10355
 11
-154.538
 21
6.94133
  0
LINE
  8
0
 10
-154.538
 20
6.94133
 11
-154.5
 21
6.75
  0
LINE
  8
0
 10
-154.5
 20
6.75
 11
-154.538
 21
6.55865
  0
LINE
  8
0
 10
-154.538
 20
6.55865
 11
-154.646
 21
6.39644
  0
LINE
  8
0
 10
-154.646
 20
6.39644
 11
-154.809
 21
6.28806
  0
LINE
  8
0
 10
-154.809
 20
6.28806
 11
-155
 21
6.25
  0
LINE
  8
0
 10
-155
 20
6.25
 11
-155.191
 21
6.28806
  0
LINE
  8
0
 10
154.809
 20
6.28806
 11
154.646
 21
6.39644
  0
LINE
  8
0
 10
154.646
 20
6.39644
 11
154.538
 21
6.55865
  0
LINE
  8
0
 10
154.538
 20
6.55865
 11
154.5
 21
6.75
  0
LINE
  8
0
 10
154.5
 20
6.75
 11
154.538
 21
6.94133
  0
LINE
  8
0
 10
154.538
 20
6.94133
 11
154.646
 21
7.10355
  0
LINE
  8
0
 10
154.646
 20
7.10355
 11
154.809
 21
7.21193
  0
LINE
  8
0
 10
154.809
 20
7.21193
 11
155
 21
7.25
  0
LINE
  8
0
 10
155
 20
7.25
 11
155.191
 21
7.21193
  0
LINE
  8
0
 10
155.191
 20
7.21193
 11
155.354
 21
7.10355
  0
LINE
  8
0
 10
155.354
 20
7.10355
 11
155.462
 21
6.94133
  0
LINE
  8
0
 10
155.462
 20
6.94133
 11
155.5
 21
6.75
  0
LINE
  8
0
 10
155.5
 20
6.75
 11
155.462
 21
6.55865
  0
LINE
  8
0
 10
155.462
 20
6.55865
 11
155.354
 21
6.39644
  0
LINE
  8
0
 10
155.354
 20
6.39644
 11
155.191
 21
6.28806
  0
LINE
  8
0
 10
155.191
 20
6.28806
 11
155
 21
6.25
  0
LINE
  8
0
 10
155
 20
6.25
 11
154.809
 21
6.28806
  0
LINE
  8
0
 10
-196.78
 20
-3.92313
 11
-197.531
 21
-3.69551
  0
LINE
  8
0
 10
-197.531
 20
-3.69551
 11
-198.222
 21
-3.32587
  0
LINE
  8
0
 10
-198.222
 20
-3.32587
 11
-198.828
 21
-2.82841
  0
LINE
  8
0
 10
-198.828
 20
-2.82841
 11
-199.326
 21
-2.22227
  0
LINE
  8
0
 10
-199.326
 20
-2.22227
 11
-199.696
 21
-1.53073
  0
LINE
  8
0
 10
-199.696
 20
-1.53073
 11
-199.923
 21
-0.78035
  0
LINE
  8
0
 10
-199.923
 20
-0.78035
 11
-200
 21
0
  0
LINE
  8
0
 10
-200
 20
0
 11
-199.923
 21
0.78035
  0
LINE
  8
0
 10
-199.923
 20
0.78035
 11
-199.696
 21
1.53073
  0
LINE
  8
0
 10
-199.696
 20
1.53073
 11
-199.326
 21
2.22227
  0
LINE
  8
0
 10
-199.326
 20
2.22227
 11
-198.828
 21
2.82841
  0
LINE
  8
0
 10
-198.828
 20
2.82841
 11
-198.222
 21
3.32587
  0
LINE
  8
0
 10
-198.222
 20
3.32587
 11
-197.531
 21
3.69551
  0
LINE
  8
0
 10
-197.531
 20
3.69551
 11
-196.78
 21
3.92313
  0
LINE
  8
0
 10
-196.78
 20
3.92313
 11
-196
 21
4
  0
LINE
  8
0
 10
-196
 20
4
 11
-195.22
 21
3.92313
  0
LINE
  8
0
 10
-195.22
 20
3.92313
 11
-194.469
 21
3.69551
  0
LINE
  8
0
 10
-194.469
 20
3.69551
 11
-193.778
 21
3.32587
  0
LINE
  8
0
 10
-193.778
 20
3.32587
 11
-193.172
 21
2.82841
  0
LINE
  8
0
 10
-193.172
 20
2.82841
 11
-192.674
 21
2.22227
  0
LINE
  8
0
 10
-192.674
 20
2.22227
 11
-192.304
 21
1.53073
  0
LINE
  8
0
 10
-192.304
 20
1.53073
 11
-192.077
 21
0.78035
  0
LINE
  8
0
 10
-192.077
 20
0.78035
 11
-192
 21
0
  0
LINE
  8
0
 10
-192
 20
0
 11
-192.077
 21
-0.78035
  0
LINE
  8
0
 10
-192.077
 20
-0.78035
 11
-192.304
 21
-1.53073
  0
LINE
  8
0
 10
-192.304
 20
-1.53073
 11
-192.674
 21
-2.22227
  0
LINE
  8
0
 10
-192.674
 20
-2.22227
 11
-193.172
 21
-2.82841
  0
LINE
  8
0
 10
-193.172
 20
-2.82841
 11
-193.778
 21
-3.32587
  0
LINE
  8
0
 10
-193.778
 20
-3.32587
 11
-194.469
 21
-3.69551
  0
LINE
  8
0
 10
-194.469
 20
-3.69551
 11
-195.22
 21
-3.92313
  0
LINE
  8
0
 10
-195.22
 20
-3.92313
 11
-196
 21
-4
  0
LINE
  8
0
 10
-196
 20
-4
 11
-196.78
 21
-3.92313
  0
LINE
  8
0
 10
195.22
 20
-3.92313
 11
194.469
 21
-3.69551
  0
LINE
  8
0
 10
194.469
 20
-3.69551
 11
193.778
 21
-3.32587
  0
LINE
  8
0
 10
193.778
 20
-3.32587
 11
193.172
 21
-2.82841
  0
LINE
  8
0
 10
193.172
 20
-2.82841
 11
192.674
 21
-2.22227
  0
LINE
  8
0
 10
192.674
 20
-2.22227
 11
192.304
 21
-1.53073
  0
LINE
  8
0
 10
192.304
 20
-1.53073
 11
192.077
 21
-0.78035
  0
LINE
  8
0
 10
192.077
 20
-0.78035
 11
192
 21
0
  0
LINE
  8
0
 10
192
 20
0
 11
192.077
 21
0.78035
  0
LINE
  8
0
 10
192.077
 20
0.78035
 11
192.304
 21
1.53073
  0
LINE
  8
0
 10
192.304
 20
1.53073
 11
192.674
 21
2.22227
  0
LINE
  8
0
 10
192.674
 20
2.22227
 11
193.172
 21
2.82841
  0
LINE
  8
0
 10
193.172
 20
2.82841
 11
193.778
 21
3.32587
  0
LINE
  8
0
 10
193.778
 20
3.32587
 11
194.469
 21
3.69551
  0
LINE
  8
0
 10
194.469
 20
3.69551
 11
195.22
 21
3.92313
  0
LINE
  8
0
 10
195.22
 20
3.92313
 11
196
 21
4
  0
LINE
  8
0
 10
196
 20
4
 11
196.78
 21
3.92313
  0
LINE
  8
0
 10
196.78
 20
3.92313
 11
197.531
 21
3.69551
  0
LINE
  8
0
 10
197.531
 20
3.69551
 11
198.222
 21
3.32587
  0
LINE
  8
0
 10
198.222
 20
3.32587
 11
198.828
 21
2.82841
  0
LINE
  8
0
 10
198.828
 20
2.82841
 11
199.326
 21
2.22227
  0
LINE
  8
0
 10
199.326
 20
2.22227
 11
199.696
 21
1.53073
  0
LINE
  8
0
 10
199.696
 20
1.53073
 11
199.923
 21
0.78035
  0
LINE
  8
0
 10
199.923
 20
0.78035
 11
200
 21
0
  0
LINE
  8
0
 10
200
 20
0
 11
199.923
 21
-0.78035
  0
LINE
  8
0
 10
199.923
 20
-0.78035
 11
199.696
 21
-1.53073
  0
LINE
  8
0
 10
199.696
 20
-1.53073
 11
199.326
 21
-2.22227
  0
LINE
  8
0
 10
199.326
 20
-2.22227
 11
198.828
 21
-2.82841
  0
LINE
  8
0
 10
198.828
 20
-2.82841
 11
198.222
 21
-3.32587
  0
LINE
  8
0
 10
198.222
 20
-3.32587
 11
197.531
 21
-3.69551
  0
LINE
  8
0
 10
197.531
 20
-3.69551
 11
196.78
 21
-3.92313
  0
LINE
  8
0
 10
196.78
 20
-3.92313
 11
196
 21
-4
  0
LINE
  8
0
 10
196
 20
-4
 11
195.22
 21
-3.92313
  0
LINE
  8
0
 10
-155.191
 20
-7.21193
 11
-155.354
 21
-7.10355
  0
LINE
  8
0
 10
-155.354
 20
-7.10355
 11
-155.462
 21
-6.94133
  0
LINE
  8
0
 10
-155.462
 20
-6.94133
 11
-155.5
 21
-6.75
  0
LINE
  8
0
 10
-155.5
 20
-6.75
 11
-155.462
 21
-6.55865
  0
LINE
  8
0
 10
-155.462
 20
-6.55865
 11
-155.354
 21
-6.39644
  0
LINE
  8
0
 10
-155.354
 20
-6.39644
 11
-155.191
 21
-6.28806
  0
LINE
  8
0
 10
-155.191
 20
-6.28806
 11
-155
 21
-6.25
  0
LINE
  8
0
 10
-155
 20
-6.25
 11
-154.809
 21
-6.28806
  0
LINE
  8
0
 10
-154.809
 20
-6.28806
 11
-154.646
 21
-6.39644
  0
LINE
  8
0
 10
-154.646
 20
-6.39644
 11
-154.538
 21
-6.55865
  0
LINE
  8
0
 10
-154.538
 20
-6.55865
 11
-154.5
 21
-6.75
  0
LINE
  8
0
 10
-154.5
 20
-6.75
 11
-154.538
 21
-6.94133
  0
LINE
  8
0
 10
-154.538
 20
-6.94133
 11
-154.646
 21
-7.10355
  0
LINE
  8
0
 10
-154.646
 20
-7.10355
 11
-154.809
 21
-7.21193
  0
LINE
  8
0
 10
-154.809
 20
-7.21193
 11
-155
 21
-7.25
  0
LINE
  8
0
 10
-155
 20
-7.25
 11
-155.191
 21
-7.21193
  0
LINE
  8
0
 10
154.809
 20
-7.21193
 11
154.646
 21
-7.10355
  0
LINE
  8
0
 10
154.646
 20
-7.10355
 11
154.538
 21
-6.94133
  0
LINE
  8
0
 10
154.538
 20
-6.94133
 11
154.5
 21
-6.75
  0
LINE
  8
0
 10
154.5
 20
-6.75
 11
154.538
 21
-6.55865
  0
LINE
  8
0
 10
154.538
 20
-6.55865
 11
154.646
 21
-6.39644
  0
LINE
  8
0
 10
154.646
 20
-6.39644
 11
154.809
 21
-6.28806
  0
LINE
  8
0
 10
154.809
 20
-6.28806
 11
155
 21
-6.25
  0
LINE
  8
0
 10
155
 20
-6.25
 11
155.191
 21
-6.28806
  0
LINE
  8
0
 10
155.191
 20
-6.28806
 11
155.354
 21
-6.39644
  0
LINE
  8
0
 10
155.354
 20
-6.39644
 11
155.462
 21
-6.55865
  0
LINE
  8
0
 10
155.462
 20
-6.55865
 11
155.5
 21
-6.75
  0
LINE
  8
0
 10
155.5
 20
-6.75
 11
155.462
 21
-6.94133
  0
LINE
  8
0
 10
155.462
 20
-6.94133
 11
155.354
 21
-7.10355
  0
LINE
  8
0
 10
155.354
 20
-7.10355
 11
155.191
 21
-7.21193
  0
LINE
  8
0
 10
155.191
 20
-7.21193
 11
155
 21
-7.25
  0
LINE
  8
0
 10
155
 20
-7.25
 11
154.809
 21
-7.21193
  0
LINE
  8
0
 10
-151.716
 20
-34.03
 11
-151.862
 21
-33.9013
  0
LINE
  8
0
 10
-151.862
 20
-33.9013
 11
-151.948
 21
-33.7263
  0
LINE
  8
0
 10
-151.948
 20
-33.7263
 11
-151.961
 21
-33.5317
  0
LINE
  8
0
 10
-151.961
 20
-33.5317
 11
-151.899
 21
-33.347
  0
LINE
  8
0
 10
-151.899
 20
-33.347
 11
-151.77
 21
-33.2003
  0
LINE
  8
0
 10
-151.77
 20
-33.2003
 11
-151.595
 21
-33.114
  0
LINE
  8
0
 10
-151.595
 20
-33.114
 11
-151.4
 21
-33.1012
  0
LINE
  8
0
 10
-151.4
 20
-33.1012
 11
-151.216
 21
-33.1639
  0
LINE
  8
0
 10
-151.216
 20
-33.1639
 11
-151.069
 21
-33.2926
  0
LINE
  8
0
 10
-151.069
 20
-33.2926
 11
-150.983
 21
-33.4675
  0
LINE
  8
0
 10
-150.983
 20
-33.4675
 11
-150.97
 21
-33.6622
  0
LINE
  8
0
 10
-150.97
 20
-33.6622
 11
-151.033
 21
-33.847
  0
LINE
  8
0
 10
-151.033
 20
-33.847
 11
-151.161
 21
-33.9936
  0
LINE
  8
0
 10
-151.161
 20
-33.9936
 11
-151.336
 21
-34.0799
  0
LINE
  8
0
 10
-151.336
 20
-34.0799
 11
-151.531
 21
-34.0927
  0
LINE
  8
0
 10
-151.531
 20
-34.0927
 11
-151.716
 21
-34.03
  0
LINE
  8
0
 10
151.336
 20
-34.0799
 11
151.161
 21
-33.9936
  0
LINE
  8
0
 10
151.161
 20
-33.9936
 11
151.033
 21
-33.847
  0
LINE
  8
0
 10
151.033
 20
-33.847
 11
150.97
 21
-33.6622
  0
LINE
  8
0
 10
150.97
 20
-33.6622
 11
150.983
 21
-33.4675
  0
LINE
  8
0
 10
150.983
 20
-33.4675
 11
151.069
 21
-33.2926
  0
LINE
  8
0
 10
151.069
 20
-33.2926
 11
151.216
 21
-33.1639
  0
LINE
  8
0
 10
151.216
 20
-33.1639
 11
151.4
 21
-33.1012
  0
LINE
  8
0
 10
151.4
 20
-33.1012
 11
151.595
 21
-33.114
  0
LINE
  8
0
 10
151.595
 20
-33.114
 11
151.77
 21
-33.2003
  0
LINE
  8
0
 10
151.77
 20
-33.2003
 11
151.899
 21
-33.347
  0
LINE
  8
0
 10
151.899
 20
-33.347
 11
151.961
 21
-33.5317
  0
LINE
  8
0
 10
151.961
 20
-33.5317
 11
151.948
 21
-33.7263
  0
LINE
  8
0
 10
151.948
 20
-33.7263
 11
151.862
 21
-33.9013
  0
LINE
  8
0
 10
151.862
 20
-33.9013
 11
151.716
 21
-34.03
  0
LINE
  8
0
 10
151.716
 20
-34.03
 11
151.531
 21
-34.0927
  0
LINE
  8
0
 10
151.531
 20
-34.0927
 11
151.336
 21
-34.0799
  0
LINE
  8
0
 10
147.842
 20
-47.1199
 11
147.667
 21
-47.0336
  0
LINE
  8
0
 10
147.667
 20
-47.0336
 11
147.538
 21
-46.8869
  0
LINE
  8
0
 10
147.538
 20
-46.8869
 11
147.476
 21
-46.7022
  0
LINE
  8
0
 10
147.476
 20
-46.7022
 11
147.489
 21
-46.5075
  0
LINE
  8
0
 10
147.489
 20
-46.5075
 11
147.575
 21
-46.3326
  0
LINE
  8
0
 10
147.575
 20
-46.3326
 11
147.721
 21
-46.2039
  0
LINE
  8
0
 10
147.721
 20
-46.2039
 11
147.906
 21
-46.1412
  0
LINE
  8
0
 10
147.906
 20
-46.1412
 11
148.101
 21
-46.154
  0
LINE
  8
0
 10
148.101
 20
-46.154
 11
148.276
 21
-46.2403
  0
LINE
  8
0
 10
148.276
 20
-46.2403
 11
148.404
 21
-46.3869
  0
LINE
  8
0
 10
148.404
 20
-46.3869
 11
148.467
 21
-46.5717
  0
LINE
  8
0
 10
148.467
 20
-46.5717
 11
148.454
 21
-46.7664
  0
LINE
  8
0
 10
148.454
 20
-46.7664
 11
148.368
 21
-46.9413
  0
LINE
  8
0
 10
148.368
 20
-46.9413
 11
148.221
 21
-47.0699
  0
LINE
  8
0
 10
148.221
 20
-47.0699
 11
148.037
 21
-47.1327
  0
LINE
  8
0
 10
148.037
 20
-47.1327
 11
147.842
 21
-47.1199
  0
LINE
  8
0
 10
-148.221
 20
-47.0699
 11
-148.368
 21
-46.9413
  0
LINE
  8
0
 10
-148.368
 20
-46.9413
 11
-148.454
 21
-46.7664
  0
LINE
  8
0
 10
-148.454
 20
-46.7664
 11
-148.467
 21
-46.5717
  0
LINE
  8
0
 10
-148.467
 20
-46.5717
 11
-148.404
 21
-46.3869
  0
LINE
  8
0
 10
-148.404
 20
-46.3869
 11
-148.276
 21
-46.2403
  0
LINE
  8
0
 10
-148.276
 20
-46.2403
 11
-148.101
 21
-46.154
  0
LINE
  8
0
 10
-148.101
 20
-46.154
 11
-147.906
 21
-46.1412
  0
LINE
  8
0
 10
-147.906
 20
-46.1412
 11
-147.721
 21
-46.2039
  0
LINE
  8
0
 10
-147.721
 20
-46.2039
 11
-147.575
 21
-46.3326
  0
LINE
  8
0
 10
-147.575
 20
-46.3326
 11
-147.489
 21
-46.5075
  0
LINE
  8
0
 10
-147.489
 20
-46.5075
 11
-147.476
 21
-46.7022
  0
LINE
  8
0
 10
-147.476
 20
-46.7022
 11
-147.538
 21
-46.8869
  0
LINE
  8
0
 10
-147.538
 20
-46.8869
 11
-147.667
 21
-47.0336
  0
LINE
  8
0
 10
-147.667
 20
-47.0336
 11
-147.842
 21
-47.1199
  0
LINE
  8
0
 10
-147.842
 20
-47.1199
 11
-148.037
 21
-47.1327
  0
LINE
  8
0
 10
-148.037
 20
-47.1327
 11
-148.221
 21
-47.0699
  0
LINE
  8
0
 10
-144.587
 20
-59.89
 11
-144.175
 21
-58.1753
  0
LINE
  8
0
 10
-144.175
 20
-58.1753
 11
-142.418
 21
-58.037
  0
LINE
  8
0
 10
-142.418
 20
-58.037
 11
-141.743
 21
-59.6661
  0
LINE
  8
0
 10
-141.743
 20
-59.6661
 11
-143.084
 21
-60.8113
  0
LINE
  8
0
 10
-143.084
 20
-60.8113
 11
-144.587
 21
-59.89
  0
LINE
  8
0
 10
141.743
 20
-59.6661
 11
142.418
 21
-58.037
  0
LINE
  8
0
 10
142.418
 20
-58.037
 11
144.175
 21
-58.1753
  0
LINE
  8
0
 10
144.175
 20
-58.1753
 11
144.587
 21
-59.8899
  0
LINE
  8
0
 10
144.587
 20
-59.8899
 11
143.084
 21
-60.8113
  0
LINE
  8
0
 10
143.084
 20
-60.8113
 11
141.743
 21
-59.6661
  0
LINE
  8
0
 10
-162.253
 20
-65.5838
 11
-153.014
 21
-61.7569
  0
LINE
  8
0
 10
-153.014
 20
-61.7569
 11
-151.866
 21
-64.5286
  0
LINE
  8
0
 10
-151.866
 20
-64.5286
 11
-161.105
 21
-68.3554
  0
LINE
  8
0
 10
-161.105
 20
-68.3554
 11
-162.253
 21
-65.5838
  0
LINE
  8
0
 10
151.866
 20
-64.5286
 11
153.014
 21
-61.7569
  0
LINE
  8
0
 10
153.014
 20
-61.7569
 11
162.253
 21
-65.5838
  0
LINE
  8
0
 10
162.253
 20
-65.5838
 11
161.105
 21
-68.3554
  0
LINE
  8
0
 10
161.105
 20
-68.3554
 11
151.866
 21
-64.5286
  0
LINE
  8
0
 10
169.459
 20
-71.1466
 11
170.134
 21
-69.5175
  0
LINE
  8
0
 10
170.134
 20
-69.5175
 11
171.892
 21
-69.6558
  0
LINE
  8
0
 10
171.892
 20
-69.6558
 11
172.304
 21
-71.3705
  0
LINE
  8
0
 10
172.304
 20
-71.3705
 11
170.8
 21
-72.2918
  0
LINE
  8
0
 10
170.8
 20
-72.2918
 11
169.459
 21
-71.1466
  0
LINE
  8
0
 10
-172.304
 20
-71.3705
 11
-171.892
 21
-69.6558
  0
LINE
  8
0
 10
-171.892
 20
-69.6558
 11
-170.134
 21
-69.5175
  0
LINE
  8
0
 10
-170.134
 20
-69.5175
 11
-169.459
 21
-71.1466
  0
LINE
  8
0
 10
-169.459
 20
-71.1466
 11
-170.8
 21
-72.2918
  0
LINE
  8
0
 10
-170.8
 20
-72.2918
 11
-172.304
 21
-71.3705
  0
LINE
  8
0
 10
137.359
 20
-72.0873
 11
137.212
 21
-71.9587
  0
LINE
  8
0
 10
137.212
 20
-71.9587
 11
137.126
 21
-71.7837
  0
LINE
  8
0
 10
137.126
 20
-71.7837
 11
137.113
 21
-71.5891
  0
LINE
  8
0
 10
137.113
 20
-71.5891
 11
137.176
 21
-71.4043
  0
LINE
  8
0
 10
137.176
 20
-71.4043
 11
137.305
 21
-71.2577
  0
LINE
  8
0
 10
137.305
 20
-71.2577
 11
137.48
 21
-71.1714
  0
LINE
  8
0
 10
137.48
 20
-71.1714
 11
137.674
 21
-71.1586
  0
LINE
  8
0
 10
137.674
 20
-71.1586
 11
137.859
 21
-71.2213
  0
LINE
  8
0
 10
137.859
 20
-71.2213
 11
138.006
 21
-71.3499
  0
LINE
  8
0
 10
138.006
 20
-71.3499
 11
138.092
 21
-71.5249
  0
LINE
  8
0
 10
138.092
 20
-71.5249
 11
138.105
 21
-71.7196
  0
LINE
  8
0
 10
138.105
 20
-71.7196
 11
138.042
 21
-71.9043
  0
LINE
  8
0
 10
138.042
 20
-71.9043
 11
137.913
 21
-72.051
  0
LINE
  8
0
 10
137.913
 20
-72.051
 11
137.738
 21
-72.1373
  0
LINE
  8
0
 10
137.738
 20
-72.1373
 11
137.544
 21
-72.15
  0
LINE
  8
0
 10
137.544
 20
-72.15
 11
137.359
 21
-72.0873
  0
LINE
  8
0
 10
-137.738
 20
-72.1373
 11
-137.913
 21
-72.051
  0
LINE
  8
0
 10
-137.913
 20
-72.051
 11
-138.042
 21
-71.9043
  0
LINE
  8
0
 10
-138.042
 20
-71.9043
 11
-138.105
 21
-71.7196
  0
LINE
  8
0
 10
-138.105
 20
-71.7196
 11
-138.092
 21
-71.5249
  0
LINE
  8
0
 10
-138.092
 20
-71.5249
 11
-138.006
 21
-71.3499
  0
LINE
  8
0
 10
-138.006
 20
-71.3499
 11
-137.859
 21
-71.2213
  0
LINE
  8
0
 10
-137.859
 20
-71.2213
 11
-137.674
 21
-71.1586
  0
LINE
  8
0
 10
-137.674
 20
-71.1586
 11
-137.48
 21
-71.1714
  0
LINE
  8
0
 10
-137.48
 20
-71.1714
 11
-137.305
 21
-71.2577
  0
LINE
  8
0
 10
-137.305
 20
-71.2577
 11
-137.176
 21
-71.4043
  0
LINE
  8
0
 10
-137.176
 20
-71.4043
 11
-137.113
 21
-71.5891
  0
LINE
  8
0
 10
-137.113
 20
-71.5891
 11
-137.126
 21
-71.7837
  0
LINE
  8
0
 10
-137.126
 20
-71.7837
 11
-137.212
 21
-71.9587
  0
LINE
  8
0
 10
-137.212
 20
-71.9587
 11
-137.359
 21
-72.0873
  0
LINE
  8
0
 10
-137.359
 20
-72.0873
 11
-137.544
 21
-72.15
  0
LINE
  8
0
 10
-137.544
 20
-72.15
 11
-137.738
 21
-72.1373
  0
LINE
  8
0
 10
130.609
 20
-83.7787
 11
130.462
 21
-83.65
  0
LINE
  8
0
 10
130.462
 20
-83.65
 11
130.376
 21
-83.4751
  0
LINE
  8
0
 10
130.376
 20
-83.4751
 11
130.363
 21
-83.2804
  0
LINE
  8
0
 10
130.363
 20
-83.2804
 11
130.426
 21
-83.0957
  0
LINE
  8
0
 10
130.426
 20
-83.0957
 11
130.555
 21
-82.949
  0
LINE
  8
0
 10
130.555
 20
-82.949
 11
130.73
 21
-82.8627
  0
LINE
  8
0
 10
130.73
 20
-82.8627
 11
130.924
 21
-82.8499
  0
LINE
  8
0
 10
130.924
 20
-82.8499
 11
131.109
 21
-82.9127
  0
LINE
  8
0
 10
131.109
 20
-82.9127
 11
131.256
 21
-83.0413
  0
LINE
  8
0
 10
131.256
 20
-83.0413
 11
131.342
 21
-83.2162
  0
LINE
  8
0
 10
131.342
 20
-83.2162
 11
131.355
 21
-83.4109
  0
LINE
  8
0
 10
131.355
 20
-83.4109
 11
131.292
 21
-83.5957
  0
LINE
  8
0
 10
131.292
 20
-83.5957
 11
131.163
 21
-83.7423
  0
LINE
  8
0
 10
131.163
 20
-83.7423
 11
130.988
 21
-83.8286
  0
LINE
  8
0
 10
130.988
 20
-83.8286
 11
130.794
 21
-83.8414
  0
LINE
  8
0
 10
130.794
 20
-83.8414
 11
130.609
 21
-83.7787
  0
LINE
  8
0
 10
-130.988
 20
-83.8286
 11
-131.163
 21
-83.7423
  0
LINE
  8
0
 10
-131.163
 20
-83.7423
 11
-131.292
 21
-83.5957
  0
LINE
  8
0
 10
-131.292
 20
-83.5957
 11
-131.355
 21
-83.4109
  0
LINE
  8
0
 10
-131.355
 20
-83.4109
 11
-131.342
 21
-83.2162
  0
LINE
  8
0
 10
-131.342
 20
-83.2162
 11
-131.256
 21
-83.0413
  0
LINE
  8
0
 10
-131.256
 20
-83.0413
 11
-131.109
 21
-82.9127
  0
LINE
  8
0
 10
-131.109
 20
-82.9127
 11
-130.924
 21
-82.8499
  0
LINE
  8
0
 10
-130.924
 20
-82.8499
 11
-130.73
 21
-82.8627
  0
LINE
  8
0
 10
-130.73
 20
-82.8627
 11
-130.555
 21
-82.949
  0
LINE
  8
0
 10
-130.555
 20
-82.949
 11
-130.426
 21
-83.0957
  0
LINE
  8
0
 10
-130.426
 20
-83.0957
 11
-130.363
 21
-83.2804
  0
LINE
  8
0
 10
-130.363
 20
-83.2804
 11
-130.376
 21
-83.4751
  0
LINE
  8
0
 10
-130.376
 20
-83.4751
 11
-130.462
 21
-83.65
  0
LINE
  8
0
 10
-130.462
 20
-83.65
 11
-130.609
 21
-83.7787
  0
LINE
  8
0
 10
-130.609
 20
-83.7787
 11
-130.794
 21
-83.8414
  0
LINE
  8
0
 10
-130.794
 20
-83.8414
 11
-130.988
 21
-83.8286
  0
LINE
  8
0
 10
-114.566
 20
-105.291
 11
-114.728
 21
-105.182
  0
LINE
  8
0
 10
-114.728
 20
-105.182
 11
-114.836
 21
-105.02
  0
LINE
  8
0
 10
-114.836
 20
-105.02
 11
-114.874
 21
-104.829
  0
LINE
  8
0
 10
-114.874
 20
-104.829
 11
-114.836
 21
-104.637
  0
LINE
  8
0
 10
-114.836
 20
-104.637
 11
-114.728
 21
-104.475
  0
LINE
  8
0
 10
-114.728
 20
-104.475
 11
-114.566
 21
-104.367
  0
LINE
  8
0
 10
-114.566
 20
-104.367
 11
-114.375
 21
-104.329
  0
LINE
  8
0
 10
-114.375
 20
-104.329
 11
-114.183
 21
-104.367
  0
LINE
  8
0
 10
-114.183
 20
-104.367
 11
-114.021
 21
-104.475
  0
LINE
  8
0
 10
-114.021
 20
-104.475
 11
-113.913
 21
-104.637
  0
LINE
  8
0
 10
-113.913
 20
-104.637
 11
-113.875
 21
-104.829
  0
LINE
  8
0
 10
-113.875
 20
-104.829
 11
-113.913
 21
-105.02
  0
LINE
  8
0
 10
-113.913
 20
-105.02
 11
-114.021
 21
-105.182
  0
LINE
  8
0
 10
-114.021
 20
-105.182
 11
-114.183
 21
-105.291
  0
LINE
  8
0
 10
-114.183
 20
-105.291
 11
-114.374
 21
-105.329
  0
LINE
  8
0
 10
-114.374
 20
-105.329
 11
-114.566
 21
-105.291
  0
LINE
  8
0
 10
114.183
 20
-105.291
 11
114.021
 21
-105.182
  0
LINE
  8
0
 10
114.021
 20
-105.182
 11
113.913
 21
-105.02
  0
LINE
  8
0
 10
113.913
 20
-105.02
 11
113.875
 21
-104.829
  0
LINE
  8
0
 10
113.875
 20
-104.829
 11
113.913
 21
-104.637
  0
LINE
  8
0
 10
113.913
 20
-104.637
 11
114.021
 21
-104.475
  0
LINE
  8
0
 10
114.021
 20
-104.475
 11
114.183
 21
-104.367
  0
LINE
  8
0
 10
114.183
 20
-104.367
 11
114.375
 21
-104.329
  0
LINE
  8
0
 10
114.375
 20
-104.329
 11
114.566
 21
-104.367
  0
LINE
  8
0
 10
114.566
 20
-104.367
 11
114.728
 21
-104.475
  0
LINE
  8
0
 10
114.728
 20
-104.475
 11
114.836
 21
-104.637
  0
LINE
  8
0
 10
114.836
 20
-104.637
 11
114.874
 21
-104.829
  0
LINE
  8
0
 10
114.874
 20
-104.829
 11
114.836
 21
-105.02
  0
LINE
  8
0
 10
114.836
 20
-105.02
 11
114.728
 21
-105.182
  0
LINE
  8
0
 10
114.728
 20
-105.182
 11
114.566
 21
-105.291
  0
LINE
  8
0
 10
114.566
 20
-105.291
 11
114.374
 21
-105.329
  0
LINE
  8
0
 10
114.374
 20
-105.329
 11
114.183
 21
-105.291
  0
LINE
  8
0
 10
104.637
 20
-114.836
 11
104.475
 21
-114.728
  0
LINE
  8
0
 10
104.475
 20
-114.728
 11
104.367
 21
-114.566
  0
LINE
  8
0
 10
104.367
 20
-114.566
 11
104.329
 21
-114.375
  0
LINE
  8
0
 10
104.329
 20
-114.375
 11
104.367
 21
-114.183
  0
LINE
  8
0
 10
104.367
 20
-114.183
 11
104.475
 21
-114.021
  0
LINE
  8
0
 10
104.475
 20
-114.021
 11
104.637
 21
-113.913
  0
LINE
  8
0
 10
104.637
 20
-113.913
 11
104.829
 21
-113.875
  0
LINE
  8
0
 10
104.829
 20
-113.875
 11
105.02
 21
-113.913
  0
LINE
  8
0
 10
105.02
 20
-113.913
 11
105.182
 21
-114.021
  0
LINE
  8
0
 10
105.182
 20
-114.021
 11
105.291
 21
-114.183
  0
LINE
  8
0
 10
105.291
 20
-114.183
 11
105.329
 21
-114.374
  0
LINE
  8
0
 10
105.329
 20
-114.374
 11
105.291
 21
-114.566
  0
LINE
  8
0
 10
105.291
 20
-114.566
 11
105.182
 21
-114.728
  0
LINE
  8
0
 10
105.182
 20
-114.728
 11
105.02
 21
-114.836
  0
LINE
  8
0
 10
105.02
 20
-114.836
 11
104.829
 21
-114.874
  0
LINE
  8
0
 10
104.829
 20
-114.874
 11
104.637
 21
-114.836
  0
LINE
  8
0
 10
-105.02
 20
-114.836
 11
-105.182
 21
-114.728
  0
LINE
  8
0
 10
-105.182
 20
-114.728
 11
-105.291
 21
-114.566
  0
LINE
  8
0
 10
-105.291
 20
-114.566
 11
-105.329
 21
-114.374
  0
LINE
  8
0
 10
-105.329
 20
-114.374
 11
-105.291
 21
-114.183
  0
LINE
  8
0
 10
-105.291
 20
-114.183
 11
-105.182
 21
-114.021
  0
LINE
  8
0
 10
-105.182
 20
-114.021
 11
-105.02
 21
-113.913
  0
LINE
  8
0
 10
-105.02
 20
-113.913
 11
-104.829
 21
-113.875
  0
LINE
  8
0
 10
-104.829
 20
-113.875
 11
-104.637
 21
-113.913
  0
LINE
  8
0
 10
-104.637
 20
-113.913
 11
-104.475
 21
-114.021
  0
LINE
  8
0
 10
-104.475
 20
-114.021
 11
-104.367
 21
-114.183
  0
LINE
  8
0
 10
-104.367
 20
-114.183
 11
-104.329
 21
-114.375
  0
LINE
  8
0
 10
-104.329
 20
-114.375
 11
-104.367
 21
-114.566
  0
LINE
  8
0
 10
-104.367
 20
-114.566
 11
-104.475
 21
-114.728
  0
LINE
  8
0
 10
-104.475
 20
-114.728
 11
-104.637
 21
-114.836
  0
LINE
  8
0
 10
-104.637
 20
-114.836
 11
-104.829
 21
-114.874
  0
LINE
  8
0
 10
-104.829
 20
-114.874
 11
-105.02
 21
-114.836
  0
LINE
  8
0
 10
83.2162
 20
-131.342
 11
83.0413
 21
-131.256
  0
LINE
  8
0
 10
83.0413
 20
-131.256
 11
82.9127
 21
-131.109
  0
LINE
  8
0
 10
82.9127
 20
-131.109
 11
82.8499
 21
-130.924
  0
LINE
  8
0
 10
82.8499
 20
-130.924
 11
82.8627
 21
-130.73
  0
LINE
  8
0
 10
82.8627
 20
-130.73
 11
82.949
 21
-130.555
  0
LINE
  8
0
 10
82.949
 20
-130.555
 11
83.0957
 21
-130.426
  0
LINE
  8
0
 10
83.0957
 20
-130.426
 11
83.2804
 21
-130.363
  0
LINE
  8
0
 10
83.2804
 20
-130.363
 11
83.4751
 21
-130.376
  0
LINE
  8
0
 10
83.4751
 20
-130.376
 11
83.65
 21
-130.462
  0
LINE
  8
0
 10
83.65
 20
-130.462
 11
83.7787
 21
-130.609
  0
LINE
  8
0
 10
83.7787
 20
-130.609
 11
83.8414
 21
-130.794
  0
LINE
  8
0
 10
83.8414
 20
-130.794
 11
83.8286
 21
-130.988
  0
LINE
  8
0
 10
83.8286
 20
-130.988
 11
83.7423
 21
-131.163
  0
LINE
  8
0
 10
83.7423
 20
-131.163
 11
83.5957
 21
-131.292
  0
LINE
  8
0
 10
83.5957
 20
-131.292
 11
83.4109
 21
-131.355
  0
LINE
  8
0
 10
83.4109
 20
-131.355
 11
83.2162
 21
-131.342
  0
LINE
  8
0
 10
-83.5957
 20
-131.292
 11
-83.7423
 21
-131.163
  0
LINE
  8
0
 10
-83.7423
 20
-131.163
 11
-83.8286
 21
-130.988
  0
LINE
  8
0
 10
-83.8286
 20
-130.988
 11
-83.8414
 21
-130.794
  0
LINE
  8
0
 10
-83.8414
 20
-130.794
 11
-83.7787
 21
-130.609
  0
LINE
  8
0
 10
-83.7787
 20
-130.609
 11
-83.65
 21
-130.462
  0
LINE
  8
0
 10
-83.65
 20
-130.462
 11
-83.4751
 21
-130.376
  0
LINE
  8
0
 10
-83.4751
 20
-130.376
 11
-83.2804
 21
-130.363
  0
LINE
  8
0
 10
-83.2804
 20
-130.363
 11
-83.0957
 21
-130.426
  0
LINE
  8
0
 10
-83.0957
 20
-130.426
 11
-82.949
 21
-130.555
  0
LINE
  8
0
 10
-82.949
 20
-130.555
 11
-82.8627
 21
-130.73
  0
LINE
  8
0
 10
-82.8627
 20
-130.73
 11
-82.8499
 21
-130.924
  0
LINE
  8
0
 10
-82.8499
 20
-130.924
 11
-82.9127
 21
-131.109
  0
LINE
  8
0
 10
-82.9127
 20
-131.109
 11
-83.0413
 21
-131.256
  0
LINE
  8
0
 10
-83.0413
 20
-131.256
 11
-83.2162
 21
-131.342
  0
LINE
  8
0
 10
-83.2162
 20
-131.342
 11
-83.4109
 21
-131.355
  0
LINE
  8
0
 10
-83.4109
 20
-131.355
 11
-83.5957
 21
-131.292
  0
LINE
  8
0
 10
-139.373
 20
-142.516
 11
-140.124
 21
-142.288
  0
LINE
  8
0
 10
-140.124
 20
-142.288
 11
-140.815
 21
-141.919
  0
LINE
  8
0
 10
-140.815
 20
-141.919
 11
-141.421
 21
-141.421
  0
LINE
  8
0
 10
-141.421
 20
-141.421
 11
-141.919
 21
-140.815
  0
LINE
  8
0
 10
-141.919
 20
-140.815
 11
-142.288
 21
-140.124
  0
LINE
  8
0
 10
-142.288
 20
-140.124
 11
-142.516
 21
-139.373
  0
LINE
  8
0
 10
-142.516
 20
-139.373
 11
-142.593
 21
-138.593
  0
LINE
  8
0
 10
-142.593
 20
-138.593
 11
-142.516
 21
-137.813
  0
LINE
  8
0
 10
-142.516
 20
-137.813
 11
-142.288
 21
-137.062
  0
LINE
  8
0
 10
-142.288
 20
-137.062
 11
-141.919
 21
-136.371
  0
LINE
  8
0
 10
-141.919
 20
-136.371
 11
-141.421
 21
-135.764
  0
LINE
  8
0
 10
-141.421
 20
-135.764
 11
-140.815
 21
-135.267
  0
LINE
  8
0
 10
-140.815
 20
-135.267
 11
-140.124
 21
-134.897
  0
LINE
  8
0
 10
-140.124
 20
-134.897
 11
-139.373
 21
-134.67
  0
LINE
  8
0
 10
-139.373
 20
-134.67
 11
-138.593
 21
-134.593
  0
LINE
  8
0
 10
-138.593
 20
-134.593
 11
-137.813
 21
-134.67
  0
LINE
  8
0
 10
-137.813
 20
-134.67
 11
-137.062
 21
-134.897
  0
LINE
  8
0
 10
-137.062
 20
-134.897
 11
-136.371
 21
-135.267
  0
LINE
  8
0
 10
-136.371
 20
-135.267
 11
-135.764
 21
-135.764
  0
LINE
  8
0
 10
-135.764
 20
-135.764
 11
-135.267
 21
-136.371
  0
LINE
  8
0
 10
-135.267
 20
-136.371
 11
-134.897
 21
-137.062
  0
LINE
  8
0
 10
-134.897
 20
-137.062
 11
-134.67
 21
-137.813
  0
LINE
  8
0
 10
-134.67
 20
-137.813
 11
-134.593
 21
-138.593
  0
LINE
  8
0
 10
-134.593
 20
-138.593
 11
-134.67
 21
-139.373
  0
LINE
  8
0
 10
-134.67
 20
-139.373
 11
-134.897
 21
-140.124
  0
LINE
  8
0
 10
-134.897
 20
-140.124
 11
-135.267
 21
-140.815
  0
LINE
  8
0
 10
-135.267
 20
-140.815
 11
-135.764
 21
-141.421
  0
LINE
  8
0
 10
-135.764
 20
-141.421
 11
-136.371
 21
-141.919
  0
LINE
  8
0
 10
-136.371
 20
-141.919
 11
-137.062
 21
-142.288
  0
LINE
  8
0
 10
-137.062
 20
-142.288
 11
-137.813
 21
-142.516
  0
LINE
  8
0
 10
-137.813
 20
-142.516
 11
-138.593
 21
-142.593
  0
LINE
  8
0
 10
-138.593
 20
-142.593
 11
-139.373
 21
-142.516
  0
LINE
  8
0
 10
137.813
 20
-142.516
 11
137.062
 21
-142.288
  0
LINE
  8
0
 10
137.062
 20
-142.288
 11
136.371
 21
-141.919
  0
LINE
  8
0
 10
136.371
 20
-141.919
 11
135.764
 21
-141.421
  0
LINE
  8
0
 10
135.764
 20
-141.421
 11
135.267
 21
-140.815
  0
LINE
  8
0
 10
135.267
 20
-140.815
 11
134.897
 21
-140.124
  0
LINE
  8
0
 10
134.897
 20
-140.124
 11
134.67
 21
-139.373
  0
LINE
  8
0
 10
134.67
 20
-139.373
 11
134.593
 21
-138.593
  0
LINE
  8
0
 10
134.593
 20
-138.593
 11
134.67
 21
-137.813
  0
LINE
  8
0
 10
134.67
 20
-137.813
 11
134.897
 21
-137.062
  0
LINE
  8
0
 10
134.897
 20
-137.062
 11
135.267
 21
-136.371
  0
LINE
  8
0
 10
135.267
 20
-136.371
 11
135.764
 21
-135.764
  0
LINE
  8
0
 10
135.764
 20
-135.764
 11
136.371
 21
-135.267
  0
LINE
  8
0
 10
136.371
 20
-135.267
 11
137.062
 21
-134.897
  0
LINE
  8
0
 10
137.062
 20
-134.897
 11
137.813
 21
-134.67
  0
LINE
  8
0
 10
137.813
 20
-134.67
 11
138.593
 21
-134.593
  0
LINE
  8
0
 10
138.593
 20
-134.593
 11
139.373
 21
-134.67
  0
LINE
  8
0
 10
139.373
 20
-134.67
 11
140.124
 21
-134.897
  0
LINE
  8
0
 10
140.124
 20
-134.897
 11
140.815
 21
-135.267
  0
LINE
  8
0
 10
140.815
 20
-135.267
 11
141.421
 21
-135.764
  0
LINE
  8
0
 10
141.421
 20
-135.764
 11
141.919
 21
-136.371
  0
LINE
  8
0
 10
141.919
 20
-136.371
 11
142.288
 21
-137.062
  0
LINE
  8
0
 10
142.288
 20
-137.062
 11
142.516
 21
-137.813
  0
LINE
  8
0
 10
142.516
 20
-137.813
 11
142.593
 21
-138.593
  0
LINE
  8
0
 10
142.593
 20
-138.593
 11
142.516
 21
-139.373
  0
LINE
  8
0
 10
142.516
 20
-139.373
 11
142.288
 21
-140.124
  0
LINE
  8
0
 10
142.288
 20
-140.124
 11
141.919
 21
-140.815
  0
LINE
  8
0
 10
141.919
 20
-140.815
 11
141.421
 21
-141.421
  0
LINE
  8
0
 10
141.421
 20
-141.421
 11
140.815
 21
-141.919
  0
LINE
  8
0
 10
140.815
 20
-141.919
 11
140.124
 21
-142.288
  0
LINE
  8
0
 10
140.124
 20
-142.288
 11
139.373
 21
-142.516
  0
LINE
  8
0
 10
139.373
 20
-142.516
 11
138.593
 21
-142.593
  0
LINE
  8
0
 10
138.593
 20
-142.593
 11
137.813
 21
-142.516
  0
LINE
  8
0
 10
-71.9043
 20
-138.042
 11
-72.051
 21
-137.913
  0
LINE
  8
0
 10
-72.051
 20
-137.913
 11
-72.1373
 21
-137.738
  0
LINE
  8
0
 10
-72.1373
 20
-137.738
 11
-72.15
 21
-137.544
  0
LINE
  8
0
 10
-72.15
 20
-137.544
 11
-72.0873
 21
-137.359
  0
LINE
  8
0
 10
-72.0873
 20
-137.359
 11
-71.9587
 21
-137.212
  0
LINE
  8
0
 10
-71.9587
 20
-137.212
 11
-71.7837
 21
-137.126
  0
LINE
  8
0
 10
-71.7837
 20
-137.126
 11
-71.5891
 21
-137.113
  0
LINE
  8
0
 10
-71.5891
 20
-137.113
 11
-71.4043
 21
-137.176
  0
LINE
  8
0
 10
-71.4043
 20
-137.176
 11
-71.2577
 21
-137.305
  0
LINE
  8
0
 10
-71.2577
 20
-137.305
 11
-71.1714
 21
-137.48
  0
LINE
  8
0
 10
-71.1714
 20
-137.48
 11
-71.1586
 21
-137.674
  0
LINE
  8
0
 10
-71.1586
 20
-137.674
 11
-71.2213
 21
-137.859
  0
LINE
  8
0
 10
-71.2213
 20
-137.859
 11
-71.3499
 21
-138.006
  0
LINE
  8
0
 10
-71.3499
 20
-138.006
 11
-71.5249
 21
-138.092
  0
LINE
  8
0
 10
-71.5249
 20
-138.092
 11
-71.7196
 21
-138.105
  0
LINE
  8
0
 10
-71.7196
 20
-138.105
 11
-71.9043
 21
-138.042
  0
LINE
  8
0
 10
71.5249
 20
-138.092
 11
71.3499
 21
-138.006
  0
LINE
  8
0
 10
71.3499
 20
-138.006
 11
71.2213
 21
-137.859
  0
LINE
  8
0
 10
71.2213
 20
-137.859
 11
71.1586
 21
-137.674
  0
LINE
  8
0
 10
71.1586
 20
-137.674
 11
71.1714
 21
-137.48
  0
LINE
  8
0
 10
71.1714
 20
-137.48
 11
71.2577
 21
-137.305
  0
LINE
  8
0
 10
71.2577
 20
-137.305
 11
71.4043
 21
-137.176
  0
LINE
  8
0
 10
71.4043
 20
-137.176
 11
71.5891
 21
-137.113
  0
LINE
  8
0
 10
71.5891
 20
-137.113
 11
71.7837
 21
-137.126
  0
LINE
  8
0
 10
71.7837
 20
-137.126
 11
71.9587
 21
-137.212
  0
LINE
  8
0
 10
71.9587
 20
-137.212
 11
72.0873
 21
-137.359
  0
LINE
  8
0
 10
72.0873
 20
-137.359
 11
72.15
 21
-137.544
  0
LINE
  8
0
 10
72.15
 20
-137.544
 11
72.1373
 21
-137.738
  0
LINE
  8
0
 10
72.1373
 20
-137.738
 11
72.051
 21
-137.913
  0
LINE
  8
0
 10
72.051
 20
-137.913
 11
71.9043
 21
-138.042
  0
LINE
  8
0
 10
71.9043
 20
-138.042
 11
71.7196
 21
-138.105
  0
LINE
  8
0
 10
71.7196
 20
-138.105
 11
71.5249
 21
-138.092
  0
LINE
  8
0
 10
-60.8113
 20
-143.084
 11
-59.6661
 21
-141.743
  0
LINE
  8
0
 10
-59.6661
 20
-141.743
 11
-58.037
 21
-142.418
  0
LINE
  8
0
 10
-58.037
 20
-142.418
 11
-58.1753
 21
-144.175
  0
LINE
  8
0
 10
-58.1753
 20
-144.175
 11
-59.8899
 21
-144.587
  0
LINE
  8
0
 10
-59.8899
 20
-144.587
 11
-60.8113
 21
-143.084
  0
LINE
  8
0
 10
58.1753
 20
-144.175
 11
58.037
 21
-142.418
  0
LINE
  8
0
 10
58.037
 20
-142.418
 11
59.6661
 21
-141.743
  0
LINE
  8
0
 10
59.6661
 20
-141.743
 11
60.8113
 21
-143.084
  0
LINE
  8
0
 10
60.8113
 20
-143.084
 11
59.89
 21
-144.587
  0
LINE
  8
0
 10
59.89
 20
-144.587
 11
58.1753
 21
-144.175
  0
LINE
  8
0
 10
-46.7664
 20
-148.454
 11
-46.9413
 21
-148.368
  0
LINE
  8
0
 10
-46.9413
 20
-148.368
 11
-47.0699
 21
-148.221
  0
LINE
  8
0
 10
-47.0699
 20
-148.221
 11
-47.1327
 21
-148.037
  0
LINE
  8
0
 10
-47.1327
 20
-148.037
 11
-47.1199
 21
-147.842
  0
LINE
  8
0
 10
-47.1199
 20
-147.842
 11
-47.0336
 21
-147.667
  0
LINE
  8
0
 10
-47.0336
 20
-147.667
 11
-46.8869
 21
-147.538
  0
LINE
  8
0
 10
-46.8869
 20
-147.538
 11
-46.7022
 21
-147.476
  0
LINE
  8
0
 10
-46.7022
 20
-147.476
 11
-46.5075
 21
-147.489
  0
LINE
  8
0
 10
-46.5075
 20
-147.489
 11
-46.3326
 21
-147.575
  0
LINE
  8
0
 10
-46.3326
 20
-147.575
 11
-46.2039
 21
-147.721
  0
LINE
  8
0
 10
-46.2039
 20
-147.721
 11
-46.1412
 21
-147.906
  0
LINE
  8
0
 10
-46.1412
 20
-147.906
 11
-46.154
 21
-148.101
  0
LINE
  8
0
 10
-46.154
 20
-148.101
 11
-46.2403
 21
-148.276
  0
LINE
  8
0
 10
-46.2403
 20
-148.276
 11
-46.3869
 21
-148.404
  0
LINE
  8
0
 10
-46.3869
 20
-148.404
 11
-46.5717
 21
-148.467
  0
LINE
  8
0
 10
-46.5717
 20
-148.467
 11
-46.7664
 21
-148.454
  0
LINE
  8
0
 10
46.3869
 20
-148.404
 11
46.2403
 21
-148.276
  0
LINE
  8
0
 10
46.2403
 20
-148.276
 11
46.154
 21
-148.101
  0
LINE
  8
0
 10
46.154
 20
-148.101
 11
46.1412
 21
-147.906
  0
LINE
  8
0
 10
46.1412
 20
-147.906
 11
46.2039
 21
-147.721
  0
LINE
  8
0
 10
46.2039
 20
-147.721
 11
46.3326
 21
-147.575
  0
LINE
  8
0
 10
46.3326
 20
-147.575
 11
46.5075
 21
-147.489
  0
LINE
  8
0
 10
46.5075
 20
-147.489
 11
46.7022
 21
-147.476
  0
LINE
  8
0
 10
46.7022
 20
-147.476
 11
46.8869
 21
-147.538
  0
LINE
  8
0
 10
46.8869
 20
-147.538
 11
47.0336
 21
-147.667
  0
LINE
  8
0
 10
47.0336
 20
-147.667
 11
47.1199
 21
-147.842
  0
LINE
  8
0
 10
47.1199
 20
-147.842
 11
47.1327
 21
-148.037
  0
LINE
  8
0
 10
47.1327
 20
-148.037
 11
47.0699
 21
-148.221
  0
LINE
  8
0
 10
47.0699
 20
-148.221
 11
46.9413
 21
-148.368
  0
LINE
  8
0
 10
46.9413
 20
-148.368
 11
46.7664
 21
-148.454
  0
LINE
  8
0
 10
46.7664
 20
-148.454
 11
46.5717
 21
-148.467
  0
LINE
  8
0
 10
46.5717
 20
-148.467
 11
46.3869
 21
-148.404
  0
LINE
  8
0
 10
33.347
 20
-151.899
 11
33.2003
 21
-151.77
  0
LINE
  8
0
 10
33.2003
 20
-151.77
 11
33.114
 21
-151.595
  0
LINE
  8
0
 10
33.114
 20
-151.595
 11
33.1012
 21
-151.4
  0
LINE
  8
0
 10
33.1012
 20
-151.4
 11
33.1639
 21
-151.216
  0
LINE
  8
0
 10
33.1639
 20
-151.216
 11
33.2926
 21
-151.069
  0
LINE
  8
0
 10
33.2926
 20
-151.069
 11
33.4675
 21
-150.983
  0
LINE
  8
0
 10
33.4675
 20
-150.983
 11
33.6622
 21
-150.97
  0
LINE
  8
0
 10
33.6622
 20
-150.97
 11
33.847
 21
-151.033
  0
LINE
  8
0
 10
33.847
 20
-151.033
 11
33.9936
 21
-151.161
  0
LINE
  8
0
 10
33.9936
 20
-151.161
 11
34.0799
 21
-151.336
  0
LINE
  8
0
 10
34.0799
 20
-151.336
 11
34.0927
 21
-151.531
  0
LINE
  8
0
 10
34.0927
 20
-151.531
 11
34.03
 21
-151.716
  0
LINE
  8
0
 10
34.03
 20
-151.716
 11
33.9013
 21
-151.862
  0
LINE
  8
0
 10
33.9013
 20
-151.862
 11
33.7263
 21
-151.948
  0
LINE
  8
0
 10
33.7263
 20
-151.948
 11
33.5317
 21
-151.961
  0
LINE
  8
0
 10
33.5317
 20
-151.961
 11
33.347
 21
-151.899
  0
LINE
  8
0
 10
-33.7263
 20
-151.948
 11
-33.9013
 21
-151.862
  0
LINE
  8
0
 10
-33.9013
 20
-151.862
 11
-34.03
 21
-151.716
  0
LINE
  8
0
 10
-34.03
 20
-151.716
 11
-34.0927
 21
-151.531
  0
LINE
  8
0
 10
-34.0927
 20
-151.531
 11
-34.0799
 21
-151.336
  0
LINE
  8
0
 10
-34.0799
 20
-151.336
 11
-33.9936
 21
-151.161
  0
LINE
  8
0
 10
-33.9936
 20
-151.161
 11
-33.847
 21
-151.033
  0
LINE
  8
0
 10
-33.847
 20
-151.033
 11
-33.6622
 21
-150.97
  0
LINE
  8
0
 10
-33.6622
 20
-150.97
 11
-33.4675
 21
-150.983
  0
LINE
  8
0
 10
-33.4675
 20
-150.983
 11
-33.2926
 21
-151.069
  0
LINE
  8
0
 10
-33.2926
 20
-151.069
 11
-33.1639
 21
-151.216
  0
LINE
  8
0
 10
-33.1639
 20
-151.216
 11
-33.1012
 21
-151.4
  0
LINE
  8
0
 10
-33.1012
 20
-151.4
 11
-33.114
 21
-151.595
  0
LINE
  8
0
 10
-33.114
 20
-151.595
 11
-33.2003
 21
-151.77
  0
LINE
  8
0
 10
-33.2003
 20
-151.77
 11
-33.347
 21
-151.899
  0
LINE
  8
0
 10
-33.347
 20
-151.899
 11
-33.5317
 21
-151.961
  0
LINE
  8
0
 10
-33.5317
 20
-151.961
 11
-33.7263
 21
-151.948
  0
LINE
  8
0
 10
61.7569
 20
-153.014
 11
64.5286
 21
-151.866
  0
LINE
  8
0
 10
64.5286
 20
-151.866
 11
68.3554
 21
-161.105
  0
LINE
  8
0
 10
68.3554
 20
-161.105
 11
65.5838
 21
-162.253
  0
LINE
  8
0
 10
65.5838
 20
-162.253
 11
61.7569
 21
-153.014
  0
LINE
  8
0
 10
-68.3554
 20
-161.105
 11
-64.5286
 21
-151.866
  0
LINE
  8
0
 10
-64.5286
 20
-151.866
 11
-61.7569
 21
-153.014
  0
LINE
  8
0
 10
-61.7569
 20
-153.014
 11
-65.5838
 21
-162.253
  0
LINE
  8
0
 10
-65.5838
 20
-162.253
 11
-68.3554
 21
-161.105
  0
LINE
  8
0
 10
-6.94133
 20
-155.462
 11
-7.10355
 21
-155.354
  0
LINE
  8
0
 10
-7.10355
 20
-155.354
 11
-7.21193
 21
-155.191
  0
LINE
  8
0
 10
-7.21193
 20
-155.191
 11
-7.25
 21
-155
  0
LINE
  8
0
 10
-7.25
 20
-155
 11
-7.21193
 21
-154.809
  0
LINE
  8
0
 10
-7.21193
 20
-154.809
 11
-7.10355
 21
-154.646
  0
LINE
  8
0
 10
-7.10355
 20
-154.646
 11
-6.94133
 21
-154.538
  0
LINE
  8
0
 10
-6.94133
 20
-154.538
 11
-6.75
 21
-154.5
  0
LINE
  8
0
 10
-6.75
 20
-154.5
 11
-6.55865
 21
-154.538
  0
LINE
  8
0
 10
-6.55865
 20
-154.538
 11
-6.39644
 21
-154.646
  0
LINE
  8
0
 10
-6.39644
 20
-154.646
 11
-6.28806
 21
-154.809
  0
LINE
  8
0
 10
-6.28806
 20
-154.809
 11
-6.25
 21
-155
  0
LINE
  8
0
 10
-6.25
 20
-155
 11
-6.28806
 21
-155.191
  0
LINE
  8
0
 10
-6.28806
 20
-155.191
 11
-6.39644
 21
-155.354
  0
LINE
  8
0
 10
-6.39644
 20
-155.354
 11
-6.55865
 21
-155.462
  0
LINE
  8
0
 10
-6.55865
 20
-155.462
 11
-6.75
 21
-155.5
  0
LINE
  8
0
 10
-6.75
 20
-155.5
 11
-6.94133
 21
-155.462
  0
LINE
  8
0
 10
6.55865
 20
-155.462
 11
6.39644
 21
-155.354
  0
LINE
  8
0
 10
6.39644
 20
-155.354
 11
6.28806
 21
-155.191
  0
LINE
  8
0
 10
6.28806
 20
-155.191
 11
6.25
 21
-155
  0
LINE
  8
0
 10
6.25
 20
-155
 11
6.28806
 21
-154.809
  0
LINE
  8
0
 10
6.28806
 20
-154.809
 11
6.39644
 21
-154.646
  0
LINE
  8
0
 10
6.39644
 20
-154.646
 11
6.55865
 21
-154.538
  0
LINE
  8
0
 10
6.55865
 20
-154.538
 11
6.75
 21
-154.5
  0
LINE
  8
0
 10
6.75
 20
-154.5
 11
6.94133
 21
-154.538
  0
LINE
  8
0
 10
6.94133
 20
-154.538
 11
7.10355
 21
-154.646
  0
LINE
  8
0
 10
7.10355
 20
-154.646
 11
7.21193
 21
-154.809
  0
LINE
  8
0
 10
7.21193
 20
-154.809
 11
7.25
 21
-155
  0
LINE
  8
0
 10
7.25
 20
-155
 11
7.21193
 21
-155.191
  0
LINE
  8
0
 10
7.21193
 20
-155.191
 11
7.10355
 21
-155.354
  0
LINE
  8
0
 10
7.10355
 20
-155.354
 11
6.94133
 21
-155.462
  0
LINE
  8
0
 10
6.94133
 20
-155.462
 11
6.75
 21
-155.5
  0
LINE
  8
0
 10
6.75
 20
-155.5
 11
6.55865
 21
-155.462
  0
LINE
  8
0
 10
-72.2918
 20
-170.8
 11
-71.1466
 21
-169.459
  0
LINE
  8
0
 10
-71.1466
 20
-169.459
 11
-69.5175
 21
-170.134
  0
LINE
  8
0
 10
-69.5175
 20
-170.134
 11
-69.6558
 21
-171.892
  0
LINE
  8
0
 10
-69.6558
 20
-171.892
 11
-71.3705
 21
-172.304
  0
LINE
  8
0
 10
-71.3705
 20
-172.304
 11
-72.2918
 21
-170.8
  0
LINE
  8
0
 10
69.6558
 20
-171.892
 11
69.5175
 21
-170.134
  0
LINE
  8
0
 10
69.5175
 20
-170.134
 11
71.1466
 21
-169.459
  0
LINE
  8
0
 10
71.1466
 20
-169.459
 11
72.2918
 21
-170.8
  0
LINE
  8
0
 10
72.2918
 20
-170.8
 11
71.3705
 21
-172.304
  0
LINE
  8
0
 10
71.3705
 20
-172.304
 11
69.6558
 21
-171.892
  0
LINE
  8
0
 10
-0.78035
 20
-199.923
 11
-1.53073
 21
-199.696
  0
LINE
  8
0
 10
-1.53073
 20
-199.696
 11
-2.22227
 21
-199.326
  0
LINE
  8
0
 10
-2.22227
 20
-199.326
 11
-2.82841
 21
-198.828
  0
LINE
  8
0
 10
-2.82841
 20
-198.828
 11
-3.32587
 21
-198.222
  0
LINE
  8
0
 10
-3.32587
 20
-198.222
 11
-3.69551
 21
-197.531
  0
LINE
  8
0
 10
-3.69551
 20
-197.531
 11
-3.92313
 21
-196.78
  0
LINE
  8
0
 10
-3.92313
 20
-196.78
 11
-4
 21
-196
  0
LINE
  8
0
 10
-4
 20
-196
 11
-3.92313
 21
-195.22
  0
LINE
  8
0
 10
-3.92313
 20
-195.22
 11
-3.69551
 21
-194.469
  0
LINE
  8
0
 10
-3.69551
 20
-194.469
 11
-3.32587
 21
-193.778
  0
LINE
  8
0
 10
-3.32587
 20
-193.778
 11
-2.82841
 21
-193.172
  0
LINE
  8
0
 10
-2.82841
 20
-193.172
 11
-2.22227
 21
-192.674
  0
LINE
  8
0
 10
-2.22227
 20
-192.674
 11
-1.53073
 21
-192.304
  0
LINE
  8
0
 10
-1.53073
 20
-192.304
 11
-0.78035
 21
-192.077
  0
LINE
  8
0
 10
-0.78035
 20
-192.077
 11
0
 21
-192
  0
LINE
  8
0
 10
0
 20
-192
 11
0.78035
 21
-192.077
  0
LINE
  8
0
 10
0.78035
 20
-192.077
 11
1.53073
 21
-192.304
  0
LINE
  8
0
 10
1.53073
 20
-192.304
 11
2.22227
 21
-192.674
  0
LINE
  8
0
 10
2.22227
 20
-192.674
 11
2.82841
 21
-193.172
  0
LINE
  8
0
 10
2.82841
 20
-193.172
 11
3.32587
 21
-193.778
  0
LINE
  8
0
 10
3.32587
 20
-193.778
 11
3.69551
 21
-194.469
  0
LINE
  8
0
 10
3.69551
 20
-194.469
 11
3.92313
 21
-195.22
  0
LINE
  8
0
 10
3.92313
 20
-195.22
 11
4
 21
-196
  0
LINE
  8
0
 10
4
 20
-196
 11
3.92313
 21
-196.78
  0
LINE
  8
0
 10
3.92313
 20
-196.78
 11
3.69551
 21
-197.531
  0
LINE
  8
0
 10
3.69551
 20
-197.531
 11
3.32587
 21
-198.222
  0
LINE
  8
0
 10
3.32587
 20
-198.222
 11
2.82841
 21
-198.828
  0
LINE
  8
0
 10
2.82841
 20
-198.828
 11
2.22227
 21
-199.326
  0
LINE
  8
0
 10
2.22227
 20
-199.326
 11
1.53073
 21
-199.696
  0
LINE
  8
0
 10
1.53073
 20
-199.696
 11
0.78035
 21
-199.923
  0
LINE
  8
0
 10
0.78035
 20
-199.923
 11
0
 21
-200
  0
LINE
  8
0
 10
0
 20
-200
 11
-0.78035
 21
-199.923
  0
ENDSEC
  0
SECTION
  2
OBJECTS
  0
DICTIONARY
  0
ENDSEC
  0
EOF
