  0
SECTION
  2
BLOCKS
  0
ENDSEC
  0
SECTION
  2
ENTITIES
  0
LINE
  8
0
 10
5
 20
25
 11
10
 21
25
  0
LINE
  8
0
 10
10
 20
25
 11
10
 21
55
  0
LINE
  8
0
 10
10
 20
55
 11
5
 21
55
  0
LINE
  8
0
 10
5
 20
55
 11
5
 21
59
  0
LINE
  8
0
 10
5
 20
59
 11
-5
 21
59
  0
LINE
  8
0
 10
-5
 20
59
 11
-5
 21
55
  0
LINE
  8
0
 10
-5
 20
55
 11
-10
 21
55
  0
LINE
  8
0
 10
-10
 20
55
 11
-10
 21
25
  0
LINE
  8
0
 10
-10
 20
25
 11
-5
 21
25
  0
LINE
  8
0
 10
-5
 20
25
 11
-5
 21
21
  0
LINE
  8
0
 10
-5
 20
21
 11
5
 21
21
  0
LINE
  8
0
 10
5
 20
21
 11
5
 21
25
  0
LINE
  8
0
 10
30
 20
25
 11
35
 21
25
  0
LINE
  8
0
 10
35
 20
25
 11
35
 21
55
  0
LINE
  8
0
 10
35
 20
55
 11
30
 21
55
  0
LINE
  8
0
 10
30
 20
55
 11
30
 21
59
  0
LINE
  8
0
 10
30
 20
59
 11
20
 21
59
  0
LINE
  8
0
 10
20
 20
59
 11
20
 21
55
  0
LINE
  8
0
 10
20
 20
55
 11
15
 21
55
  0
LINE
  8
0
 10
15
 20
55
 11
15
 21
25
  0
LINE
  8
0
 10
15
 20
25
 11
20
 21
25
  0
LINE
  8
0
 10
20
 20
25
 11
20
 21
21
  0
LINE
  8
0
 10
20
 20
21
 11
30
 21
21
  0
LINE
  8
0
 10
30
 20
21
 11
30
 21
25
  0
LINE
  8
0
 10
55
 20
25
 11
60
 21
25
  0
LINE
  8
0
 10
60
 20
25
 11
60
 21
55
  0
LINE
  8
0
 10
60
 20
55
 11
55
 21
55
  0
LINE
  8
0
 10
55
 20
55
 11
55
 21
59
  0
LINE
  8
0
 10
55
 20
59
 11
45
 21
59
  0
LINE
  8
0
 10
45
 20
59
 11
45
 21
55
  0
LINE
  8
0
 10
45
 20
55
 11
40
 21
55
  0
LINE
  8
0
 10
40
 20
55
 11
40
 21
25
  0
LINE
  8
0
 10
40
 20
25
 11
45
 21
25
  0
LINE
  8
0
 10
45
 20
25
 11
45
 21
21
  0
LINE
  8
0
 10
45
 20
21
 11
55
 21
21
  0
LINE
  8
0
 10
55
 20
21
 11
55
 21
25
  0
LINE
  8
0
 10
80
 20
25
 11
85
 21
25
  0
LINE
  8
0
 10
85
 20
25
 11
85
 21
55
  0
LINE
  8
0
 10
85
 20
55
 11
80
 21
55
  0
LINE
  8
0
 10
80
 20
55
 11
80
 21
59
  0
LINE
  8
0
 10
80
 20
59
 11
70
 21
59
  0
LINE
  8
0
 10
70
 20
59
 11
70
 21
55
  0
LINE
  8
0
 10
70
 20
55
 11
65
 21
55
  0
LINE
  8
0
 10
65
 20
55
 11
65
 21
25
  0
LINE
  8
0
 10
65
 20
25
 11
70
 21
25
  0
LINE
  8
0
 10
70
 20
25
 11
70
 21
21
  0
LINE
  8
0
 10
70
 20
21
 11
80
 21
21
  0
LINE
  8
0
 10
80
 20
21
 11
80
 21
25
  0
LINE
  8
0
 10
5
 20
-15
 11
10
 21
-15
  0
LINE
  8
0
 10
10
 20
-15
 11
10
 21
15
  0
LINE
  8
0
 10
10
 20
15
 11
5
 21
15
  0
LINE
  8
0
 10
5
 20
15
 11
5
 21
19
  0
LINE
  8
0
 10
5
 20
19
 11
-5
 21
19
  0
LINE
  8
0
 10
-5
 20
19
 11
-5
 21
15
  0
LINE
  8
0
 10
-5
 20
15
 11
-10
 21
15
  0
LINE
  8
0
 10
-10
 20
15
 11
-10
 21
-15
  0
LINE
  8
0
 10
-10
 20
-15
 11
-5
 21
-15
  0
LINE
  8
0
 10
-5
 20
-15
 11
-5
 21
-19
  0
LINE
  8
0
 10
-5
 20
-19
 11
5
 21
-19
  0
LINE
  8
0
 10
5
 20
-19
 11
5
 21
-15
  0
LINE
  8
0
 10
30
 20
-15
 11
35
 21
-15
  0
LINE
  8
0
 10
35
 20
-15
 11
35
 21
15
  0
LINE
  8
0
 10
35
 20
15
 11
30
 21
15
  0
LINE
  8
0
 10
30
 20
15
 11
30
 21
19
  0
LINE
  8
0
 10
30
 20
19
 11
20
 21
19
  0
LINE
  8
0
 10
20
 20
19
 11
20
 21
15
  0
LINE
  8
0
 10
20
 20
15
 11
15
 21
15
  0
LINE
  8
0
 10
15
 20
15
 11
15
 21
-15
  0
LINE
  8
0
 10
15
 20
-15
 11
20
 21
-15
  0
LINE
  8
0
 10
20
 20
-15
 11
20
 21
-19
  0
LINE
  8
0
 10
20
 20
-19
 11
30
 21
-19
  0
LINE
  8
0
 10
30
 20
-19
 11
30
 21
-15
  0
LINE
  8
0
 10
55
 20
-15
 11
60
 21
-15
  0
LINE
  8
0
 10
60
 20
-15
 11
60
 21
15
  0
LINE
  8
0
 10
60
 20
15
 11
55
 21
15
  0
LINE
  8
0
 10
55
 20
15
 11
55
 21
19
  0
LINE
  8
0
 10
55
 20
19
 11
45
 21
19
  0
LINE
  8
0
 10
45
 20
19
 11
45
 21
15
  0
LINE
  8
0
 10
45
 20
15
 11
40
 21
15
  0
LINE
  8
0
 10
40
 20
15
 11
40
 21
-15
  0
LINE
  8
0
 10
40
 20
-15
 11
45
 21
-15
  0
LINE
  8
0
 10
45
 20
-15
 11
45
 21
-19
  0
LINE
  8
0
 10
45
 20
-19
 11
55
 21
-19
  0
LINE
  8
0
 10
55
 20
-19
 11
55
 21
-15
  0
LINE
  8
0
 10
80
 20
-15
 11
85
 21
-15
  0
LINE
  8
0
 10
85
 20
-15
 11
85
 21
15
  0
LINE
  8
0
 10
85
 20
15
 11
80
 21
15
  0
LINE
  8
0
 10
80
 20
15
 11
80
 21
19
  0
LINE
  8
0
 10
80
 20
19
 11
70
 21
19
  0
LINE
  8
0
 10
70
 20
19
 11
70
 21
15
  0
LINE
  8
0
 10
70
 20
15
 11
65
 21
15
  0
LINE
  8
0
 10
65
 20
15
 11
65
 21
-15
  0
LINE
  8
0
 10
65
 20
-15
 11
70
 21
-15
  0
LINE
  8
0
 10
70
 20
-15
 11
70
 21
-19
  0
LINE
  8
0
 10
70
 20
-19
 11
80
 21
-19
  0
LINE
  8
0
 10
80
 20
-19
 11
80
 21
-15
  0
ENDSEC
  0
SECTION
  2
OBJECTS
  0
DICTIONARY
  0
ENDSEC
  0
EOF
