  0
SECTION
  2
BLOCKS
  0
ENDSEC
  0
SECTION
  2
ENTITIES
  0
LINE
  8
0
 10
3.12144
 20
-213.693
 11
6.12292
 21
-212.782
  0
LINE
  8
0
 10
6.12292
 20
-212.782
 11
8.88911
 21
-211.304
  0
LINE
  8
0
 10
8.88911
 20
-211.304
 11
11.3137
 21
-209.314
  0
LINE
  8
0
 10
11.3137
 20
-209.314
 11
13.3035
 21
-206.889
  0
LINE
  8
0
 10
13.3035
 20
-206.889
 11
14.7821
 21
-204.123
  0
LINE
  8
0
 10
14.7821
 20
-204.123
 11
15.6926
 21
-201.121
  0
LINE
  8
0
 10
15.6926
 20
-201.121
 11
16
 21
-198
  0
LINE
  8
0
 10
16
 20
-198
 11
15.936
 21
-197.35
  0
LINE
  8
0
 10
15.936
 20
-197.35
 11
17.2568
 21
-197.247
  0
LINE
  8
0
 10
17.2568
 20
-197.247
 11
20.6966
 21
-196.915
  0
LINE
  8
0
 10
20.6966
 20
-196.915
 11
24.1301
 21
-196.524
  0
LINE
  8
0
 10
24.1301
 20
-196.524
 11
27.5563
 21
-196.073
  0
LINE
  8
0
 10
27.5563
 20
-196.073
 11
30.974
 21
-195.562
  0
LINE
  8
0
 10
30.974
 20
-195.562
 11
34.3823
 21
-194.992
  0
LINE
  8
0
 10
34.3823
 20
-194.992
 11
37.7802
 21
-194.362
  0
LINE
  8
0
 10
37.7802
 20
-194.362
 11
41.1665
 21
-193.673
  0
LINE
  8
0
 10
41.1665
 20
-193.673
 11
44.5403
 21
-192.925
  0
LINE
  8
0
 10
44.5403
 20
-192.925
 11
47.9005
 21
-192.119
  0
LINE
  8
0
 10
47.9005
 20
-192.119
 11
51.2462
 21
-191.253
  0
LINE
  8
0
 10
51.2462
 20
-191.253
 11
54.5762
 21
-190.33
  0
LINE
  8
0
 10
54.5762
 20
-190.33
 11
57.8896
 21
-189.348
  0
LINE
  8
0
 10
57.8896
 20
-189.348
 11
61.1854
 21
-188.309
  0
LINE
  8
0
 10
61.1854
 20
-188.309
 11
64.4625
 21
-187.213
  0
LINE
  8
0
 10
64.4625
 20
-187.213
 11
67.72
 21
-186.059
  0
LINE
  8
0
 10
67.72
 20
-186.059
 11
70.9568
 21
-184.849
  0
LINE
  8
0
 10
70.9568
 20
-184.849
 11
74.1721
 21
-183.582
  0
LINE
  8
0
 10
74.1721
 20
-183.582
 11
77.3648
 21
-182.26
  0
LINE
  8
0
 10
77.3648
 20
-182.26
 11
80.5338
 21
-180.882
  0
LINE
  8
0
 10
80.5338
 20
-180.882
 11
83.6784
 21
-179.449
  0
LINE
  8
0
 10
83.6784
 20
-179.449
 11
86.7975
 21
-177.961
  0
LINE
  8
0
 10
86.7975
 20
-177.961
 11
89.8901
 21
-176.419
  0
LINE
  8
0
 10
89.8901
 20
-176.419
 11
92.9554
 21
-174.824
  0
LINE
  8
0
 10
92.9554
 20
-174.824
 11
95.9923
 21
-173.175
  0
LINE
  8
0
 10
95.9923
 20
-173.175
 11
99
 21
-171.473
  0
LINE
  8
0
 10
99
 20
-171.473
 11
101.978
 21
-169.719
  0
LINE
  8
0
 10
101.978
 20
-169.719
 11
104.924
 21
-167.914
  0
LINE
  8
0
 10
104.924
 20
-167.914
 11
107.839
 21
-166.057
  0
LINE
  8
0
 10
107.839
 20
-166.057
 11
110.72
 21
-164.149
  0
LINE
  8
0
 10
110.72
 20
-164.149
 11
113.568
 21
-162.192
  0
LINE
  8
0
 10
113.568
 20
-162.192
 11
116.381
 21
-160.185
  0
LINE
  8
0
 10
116.381
 20
-160.185
 11
119.159
 21
-158.13
  0
LINE
  8
0
 10
119.159
 20
-158.13
 11
121.901
 21
-156.026
  0
LINE
  8
0
 10
121.901
 20
-156.026
 11
124.605
 21
-153.875
  0
LINE
  8
0
 10
124.605
 20
-153.875
 11
127.272
 21
-151.677
  0
LINE
  8
0
 10
127.272
 20
-151.677
 11
128.279
 21
-150.816
  0
LINE
  8
0
 10
128.279
 20
-150.816
 11
128.693
 21
-151.321
  0
LINE
  8
0
 10
128.693
 20
-151.321
 11
131.118
 21
-153.311
  0
LINE
  8
0
 10
131.118
 20
-153.311
 11
133.884
 21
-154.789
  0
LINE
  8
0
 10
133.884
 20
-154.789
 11
136.886
 21
-155.7
  0
LINE
  8
0
 10
136.886
 20
-155.7
 11
140.007
 21
-156.007
  0
LINE
  8
0
 10
140.007
 20
-156.007
 11
143.129
 21
-155.7
  0
LINE
  8
0
 10
143.129
 20
-155.7
 11
146.13
 21
-154.789
  0
LINE
  8
0
 10
146.13
 20
-154.789
 11
148.896
 21
-153.311
  0
LINE
  8
0
 10
148.896
 20
-153.311
 11
151.321
 21
-151.321
  0
LINE
  8
0
 10
151.321
 20
-151.321
 11
153.311
 21
-148.896
  0
LINE
  8
0
 10
153.311
 20
-148.896
 11
154.789
 21
-146.13
  0
LINE
  8
0
 10
154.789
 20
-146.13
 11
155.7
 21
-143.129
  0
LINE
  8
0
 10
155.7
 20
-143.129
 11
156.007
 21
-140.007
  0
LINE
  8
0
 10
156.007
 20
-140.007
 11
155.7
 21
-136.886
  0
LINE
  8
0
 10
155.7
 20
-136.886
 11
154.789
 21
-133.884
  0
LINE
  8
0
 10
154.789
 20
-133.884
 11
153.311
 21
-131.118
  0
LINE
  8
0
 10
153.311
 20
-131.118
 11
151.321
 21
-128.693
  0
LINE
  8
0
 10
151.321
 20
-128.693
 11
150.816
 21
-128.279
  0
LINE
  8
0
 10
150.816
 20
-128.279
 11
151.677
 21
-127.272
  0
LINE
  8
0
 10
151.677
 20
-127.272
 11
153.875
 21
-124.605
  0
LINE
  8
0
 10
153.875
 20
-124.605
 11
156.026
 21
-121.901
  0
LINE
  8
0
 10
156.026
 20
-121.901
 11
158.13
 21
-119.159
  0
LINE
  8
0
 10
158.13
 20
-119.159
 11
160.185
 21
-116.381
  0
LINE
  8
0
 10
160.185
 20
-116.381
 11
162.192
 21
-113.568
  0
LINE
  8
0
 10
162.192
 20
-113.568
 11
164.149
 21
-110.72
  0
LINE
  8
0
 10
164.149
 20
-110.72
 11
166.057
 21
-107.839
  0
LINE
  8
0
 10
166.057
 20
-107.839
 11
167.914
 21
-104.924
  0
LINE
  8
0
 10
167.914
 20
-104.924
 11
169.719
 21
-101.978
  0
LINE
  8
0
 10
169.719
 20
-101.978
 11
171.473
 21
-99
  0
LINE
  8
0
 10
171.473
 20
-99
 11
173.175
 21
-95.9923
  0
LINE
  8
0
 10
173.175
 20
-95.9923
 11
174.824
 21
-92.9554
  0
LINE
  8
0
 10
174.824
 20
-92.9554
 11
176.419
 21
-89.8901
  0
LINE
  8
0
 10
176.419
 20
-89.8901
 11
177.961
 21
-86.7975
  0
LINE
  8
0
 10
177.961
 20
-86.7975
 11
179.449
 21
-83.6784
  0
LINE
  8
0
 10
179.449
 20
-83.6784
 11
180.882
 21
-80.5338
  0
LINE
  8
0
 10
180.882
 20
-80.5338
 11
182.26
 21
-77.3648
  0
LINE
  8
0
 10
182.26
 20
-77.3648
 11
183.582
 21
-74.1721
  0
LINE
  8
0
 10
183.582
 20
-74.1721
 11
184.849
 21
-70.9568
  0
LINE
  8
0
 10
184.849
 20
-70.9568
 11
186.059
 21
-67.72
  0
LINE
  8
0
 10
186.059
 20
-67.72
 11
187.213
 21
-64.4625
  0
LINE
  8
0
 10
187.213
 20
-64.4625
 11
188.309
 21
-61.1854
  0
LINE
  8
0
 10
188.309
 20
-61.1854
 11
189.348
 21
-57.8896
  0
LINE
  8
0
 10
189.348
 20
-57.8896
 11
190.33
 21
-54.5762
  0
LINE
  8
0
 10
190.33
 20
-54.5762
 11
191.253
 21
-51.2462
  0
LINE
  8
0
 10
191.253
 20
-51.2462
 11
192.119
 21
-47.9005
  0
LINE
  8
0
 10
192.119
 20
-47.9005
 11
192.925
 21
-44.5403
  0
LINE
  8
0
 10
192.925
 20
-44.5403
 11
193.673
 21
-41.1665
  0
LINE
  8
0
 10
193.673
 20
-41.1665
 11
194.362
 21
-37.7802
  0
LINE
  8
0
 10
194.362
 20
-37.7802
 11
194.992
 21
-34.3823
  0
LINE
  8
0
 10
194.992
 20
-34.3823
 11
195.562
 21
-30.974
  0
LINE
  8
0
 10
195.562
 20
-30.974
 11
196.073
 21
-27.5563
  0
LINE
  8
0
 10
196.073
 20
-27.5563
 11
196.524
 21
-24.1301
  0
LINE
  8
0
 10
196.524
 20
-24.1301
 11
196.915
 21
-20.6966
  0
LINE
  8
0
 10
196.915
 20
-20.6966
 11
197.247
 21
-17.2568
  0
LINE
  8
0
 10
197.247
 20
-17.2568
 11
197.35
 21
-15.936
  0
LINE
  8
0
 10
197.35
 20
-15.936
 11
198
 21
-16
  0
LINE
  8
0
 10
198
 20
-16
 11
201.121
 21
-15.6926
  0
LINE
  8
0
 10
201.121
 20
-15.6926
 11
204.123
 21
-14.7821
  0
LINE
  8
0
 10
204.123
 20
-14.7821
 11
206.889
 21
-13.3035
  0
LINE
  8
0
 10
206.889
 20
-13.3035
 11
209.314
 21
-11.3137
  0
LINE
  8
0
 10
209.314
 20
-11.3137
 11
211.304
 21
-8.88911
  0
LINE
  8
0
 10
211.304
 20
-8.88911
 11
212.782
 21
-6.12292
  0
LINE
  8
0
 10
212.782
 20
-6.12292
 11
213.693
 21
-3.12144
  0
LINE
  8
0
 10
213.693
 20
-3.12144
 11
214
 21
0
  0
LINE
  8
0
 10
214
 20
0
 11
213.693
 21
3.12144
  0
LINE
  8
0
 10
213.693
 20
3.12144
 11
212.782
 21
6.12292
  0
LINE
  8
0
 10
212.782
 20
6.12292
 11
211.304
 21
8.88911
  0
LINE
  8
0
 10
211.304
 20
8.88911
 11
209.314
 21
11.3137
  0
LINE
  8
0
 10
209.314
 20
11.3137
 11
206.889
 21
13.3035
  0
LINE
  8
0
 10
206.889
 20
13.3035
 11
204.123
 21
14.7821
  0
LINE
  8
0
 10
204.123
 20
14.7821
 11
201.121
 21
15.6926
  0
LINE
  8
0
 10
201.121
 20
15.6926
 11
198
 21
16
  0
LINE
  8
0
 10
198
 20
16
 11
197.35
 21
15.936
  0
LINE
  8
0
 10
197.35
 20
15.936
 11
197.247
 21
17.2568
  0
LINE
  8
0
 10
197.247
 20
17.2568
 11
196.915
 21
20.6966
  0
LINE
  8
0
 10
196.915
 20
20.6966
 11
196.524
 21
24.1301
  0
LINE
  8
0
 10
196.524
 20
24.1301
 11
196.073
 21
27.5563
  0
LINE
  8
0
 10
196.073
 20
27.5563
 11
195.562
 21
30.974
  0
LINE
  8
0
 10
195.562
 20
30.974
 11
194.992
 21
34.3823
  0
LINE
  8
0
 10
194.992
 20
34.3823
 11
194.362
 21
37.7802
  0
LINE
  8
0
 10
194.362
 20
37.7802
 11
193.673
 21
41.1665
  0
LINE
  8
0
 10
193.673
 20
41.1665
 11
192.925
 21
44.5403
  0
LINE
  8
0
 10
192.925
 20
44.5403
 11
192.119
 21
47.9005
  0
LINE
  8
0
 10
192.119
 20
47.9005
 11
191.253
 21
51.2462
  0
LINE
  8
0
 10
191.253
 20
51.2462
 11
190.33
 21
54.5762
  0
LINE
  8
0
 10
190.33
 20
54.5762
 11
189.348
 21
57.8896
  0
LINE
  8
0
 10
189.348
 20
57.8896
 11
188.309
 21
61.1854
  0
LINE
  8
0
 10
188.309
 20
61.1854
 11
187.213
 21
64.4625
  0
LINE
  8
0
 10
187.213
 20
64.4625
 11
186.059
 21
67.72
  0
LINE
  8
0
 10
186.059
 20
67.72
 11
184.849
 21
70.9568
  0
LINE
  8
0
 10
184.849
 20
70.9568
 11
183.582
 21
74.1721
  0
LINE
  8
0
 10
183.582
 20
74.1721
 11
182.26
 21
77.3648
  0
LINE
  8
0
 10
182.26
 20
77.3648
 11
180.882
 21
80.5338
  0
LINE
  8
0
 10
180.882
 20
80.5338
 11
179.449
 21
83.6784
  0
LINE
  8
0
 10
179.449
 20
83.6784
 11
177.961
 21
86.7975
  0
LINE
  8
0
 10
177.961
 20
86.7975
 11
176.419
 21
89.8901
  0
LINE
  8
0
 10
176.419
 20
89.8901
 11
174.824
 21
92.9554
  0
LINE
  8
0
 10
174.824
 20
92.9554
 11
173.175
 21
95.9923
  0
LINE
  8
0
 10
173.175
 20
95.9923
 11
171.473
 21
99
  0
LINE
  8
0
 10
171.473
 20
99
 11
169.719
 21
101.978
  0
LINE
  8
0
 10
169.719
 20
101.978
 11
167.914
 21
104.924
  0
LINE
  8
0
 10
167.914
 20
104.924
 11
166.057
 21
107.839
  0
LINE
  8
0
 10
166.057
 20
107.839
 11
164.149
 21
110.72
  0
LINE
  8
0
 10
164.149
 20
110.72
 11
162.192
 21
113.568
  0
LINE
  8
0
 10
162.192
 20
113.568
 11
160.185
 21
116.381
  0
LINE
  8
0
 10
160.185
 20
116.381
 11
158.13
 21
119.159
  0
LINE
  8
0
 10
158.13
 20
119.159
 11
156.026
 21
121.901
  0
LINE
  8
0
 10
156.026
 20
121.901
 11
153.875
 21
124.605
  0
LINE
  8
0
 10
153.875
 20
124.605
 11
151.677
 21
127.272
  0
LINE
  8
0
 10
151.677
 20
127.272
 11
150.816
 21
128.279
  0
LINE
  8
0
 10
150.816
 20
128.279
 11
151.321
 21
128.693
  0
LINE
  8
0
 10
151.321
 20
128.693
 11
153.311
 21
131.118
  0
LINE
  8
0
 10
153.311
 20
131.118
 11
154.789
 21
133.884
  0
LINE
  8
0
 10
154.789
 20
133.884
 11
155.7
 21
136.886
  0
LINE
  8
0
 10
155.7
 20
136.886
 11
156.007
 21
140.007
  0
LINE
  8
0
 10
156.007
 20
140.007
 11
155.7
 21
143.129
  0
LINE
  8
0
 10
155.7
 20
143.129
 11
154.789
 21
146.13
  0
LINE
  8
0
 10
154.789
 20
146.13
 11
153.311
 21
148.896
  0
LINE
  8
0
 10
153.311
 20
148.896
 11
151.321
 21
151.321
  0
LINE
  8
0
 10
151.321
 20
151.321
 11
148.896
 21
153.311
  0
LINE
  8
0
 10
148.896
 20
153.311
 11
146.13
 21
154.789
  0
LINE
  8
0
 10
146.13
 20
154.789
 11
143.129
 21
155.7
  0
LINE
  8
0
 10
143.129
 20
155.7
 11
140.007
 21
156.007
  0
LINE
  8
0
 10
140.007
 20
156.007
 11
136.886
 21
155.7
  0
LINE
  8
0
 10
136.886
 20
155.7
 11
133.884
 21
154.789
  0
LINE
  8
0
 10
133.884
 20
154.789
 11
131.118
 21
153.311
  0
LINE
  8
0
 10
131.118
 20
153.311
 11
128.693
 21
151.321
  0
LINE
  8
0
 10
128.693
 20
151.321
 11
128.279
 21
150.816
  0
LINE
  8
0
 10
128.279
 20
150.816
 11
127.272
 21
151.677
  0
LINE
  8
0
 10
127.272
 20
151.677
 11
124.605
 21
153.875
  0
LINE
  8
0
 10
124.605
 20
153.875
 11
121.901
 21
156.026
  0
LINE
  8
0
 10
121.901
 20
156.026
 11
119.159
 21
158.13
  0
LINE
  8
0
 10
119.159
 20
158.13
 11
116.381
 21
160.185
  0
LINE
  8
0
 10
116.381
 20
160.185
 11
113.568
 21
162.192
  0
LINE
  8
0
 10
113.568
 20
162.192
 11
110.72
 21
164.149
  0
LINE
  8
0
 10
110.72
 20
164.149
 11
107.839
 21
166.057
  0
LINE
  8
0
 10
107.839
 20
166.057
 11
104.924
 21
167.914
  0
LINE
  8
0
 10
104.924
 20
167.914
 11
101.978
 21
169.719
  0
LINE
  8
0
 10
101.978
 20
169.719
 11
99
 21
171.473
  0
LINE
  8
0
 10
99
 20
171.473
 11
95.9923
 21
173.175
  0
LINE
  8
0
 10
95.9923
 20
173.175
 11
92.9554
 21
174.824
  0
LINE
  8
0
 10
92.9554
 20
174.824
 11
89.8901
 21
176.419
  0
LINE
  8
0
 10
89.8901
 20
176.419
 11
86.7975
 21
177.961
  0
LINE
  8
0
 10
86.7975
 20
177.961
 11
83.6784
 21
179.449
  0
LINE
  8
0
 10
83.6784
 20
179.449
 11
80.5338
 21
180.882
  0
LINE
  8
0
 10
80.5338
 20
180.882
 11
77.3648
 21
182.26
  0
LINE
  8
0
 10
77.3648
 20
182.26
 11
74.1721
 21
183.582
  0
LINE
  8
0
 10
74.1721
 20
183.582
 11
70.9568
 21
184.849
  0
LINE
  8
0
 10
70.9568
 20
184.849
 11
67.72
 21
186.059
  0
LINE
  8
0
 10
67.72
 20
186.059
 11
64.4625
 21
187.213
  0
LINE
  8
0
 10
64.4625
 20
187.213
 11
61.1854
 21
188.309
  0
LINE
  8
0
 10
61.1854
 20
188.309
 11
57.8896
 21
189.348
  0
LINE
  8
0
 10
57.8896
 20
189.348
 11
54.5762
 21
190.33
  0
LINE
  8
0
 10
54.5762
 20
190.33
 11
51.2462
 21
191.253
  0
LINE
  8
0
 10
51.2462
 20
191.253
 11
47.9005
 21
192.119
  0
LINE
  8
0
 10
47.9005
 20
192.119
 11
44.5403
 21
192.925
  0
LINE
  8
0
 10
44.5403
 20
192.925
 11
41.1665
 21
193.673
  0
LINE
  8
0
 10
41.1665
 20
193.673
 11
37.7802
 21
194.362
  0
LINE
  8
0
 10
37.7802
 20
194.362
 11
34.3823
 21
194.992
  0
LINE
  8
0
 10
34.3823
 20
194.992
 11
30.974
 21
195.562
  0
LINE
  8
0
 10
30.974
 20
195.562
 11
27.5563
 21
196.073
  0
LINE
  8
0
 10
27.5563
 20
196.073
 11
24.1301
 21
196.524
  0
LINE
  8
0
 10
24.1301
 20
196.524
 11
20.6966
 21
196.915
  0
LINE
  8
0
 10
20.6966
 20
196.915
 11
17.2568
 21
197.247
  0
LINE
  8
0
 10
17.2568
 20
197.247
 11
15.936
 21
197.35
  0
LINE
  8
0
 10
15.936
 20
197.35
 11
16
 21
198
  0
LINE
  8
0
 10
16
 20
198
 11
15.6926
 21
201.121
  0
LINE
  8
0
 10
15.6926
 20
201.121
 11
14.7821
 21
204.123
  0
LINE
  8
0
 10
14.7821
 20
204.123
 11
13.3035
 21
206.889
  0
LINE
  8
0
 10
13.3035
 20
206.889
 11
11.3137
 21
209.314
  0
LINE
  8
0
 10
11.3137
 20
209.314
 11
8.88911
 21
211.304
  0
LINE
  8
0
 10
8.88911
 20
211.304
 11
6.12292
 21
212.782
  0
LINE
  8
0
 10
6.12292
 20
212.782
 11
3.12144
 21
213.693
  0
LINE
  8
0
 10
3.12144
 20
213.693
 11
0
 21
214
  0
LINE
  8
0
 10
0
 20
214
 11
-3.12144
 21
213.693
  0
LINE
  8
0
 10
-3.12144
 20
213.693
 11
-6.12292
 21
212.782
  0
LINE
  8
0
 10
-6.12292
 20
212.782
 11
-8.88911
 21
211.304
  0
LINE
  8
0
 10
-8.88911
 20
211.304
 11
-11.3137
 21
209.314
  0
LINE
  8
0
 10
-11.3137
 20
209.314
 11
-13.3035
 21
206.889
  0
LINE
  8
0
 10
-13.3035
 20
206.889
 11
-14.7821
 21
204.123
  0
LINE
  8
0
 10
-14.7821
 20
204.123
 11
-15.6926
 21
201.121
  0
LINE
  8
0
 10
-15.6926
 20
201.121
 11
-16
 21
198
  0
LINE
  8
0
 10
-16
 20
198
 11
-15.936
 21
197.35
  0
LINE
  8
0
 10
-15.936
 20
197.35
 11
-17.2568
 21
197.247
  0
LINE
  8
0
 10
-17.2568
 20
197.247
 11
-20.6966
 21
196.915
  0
LINE
  8
0
 10
-20.6966
 20
196.915
 11
-24.1301
 21
196.524
  0
LINE
  8
0
 10
-24.1301
 20
196.524
 11
-27.5563
 21
196.073
  0
LINE
  8
0
 10
-27.5563
 20
196.073
 11
-30.974
 21
195.562
  0
LINE
  8
0
 10
-30.974
 20
195.562
 11
-34.3823
 21
194.992
  0
LINE
  8
0
 10
-34.3823
 20
194.992
 11
-37.7802
 21
194.362
  0
LINE
  8
0
 10
-37.7802
 20
194.362
 11
-41.1665
 21
193.673
  0
LINE
  8
0
 10
-41.1665
 20
193.673
 11
-44.5403
 21
192.925
  0
LINE
  8
0
 10
-44.5403
 20
192.925
 11
-47.9005
 21
192.119
  0
LINE
  8
0
 10
-47.9005
 20
192.119
 11
-51.2462
 21
191.253
  0
LINE
  8
0
 10
-51.2462
 20
191.253
 11
-54.5762
 21
190.33
  0
LINE
  8
0
 10
-54.5762
 20
190.33
 11
-57.8896
 21
189.348
  0
LINE
  8
0
 10
-57.8896
 20
189.348
 11
-61.1854
 21
188.309
  0
LINE
  8
0
 10
-61.1854
 20
188.309
 11
-64.4625
 21
187.213
  0
LINE
  8
0
 10
-64.4625
 20
187.213
 11
-67.72
 21
186.059
  0
LINE
  8
0
 10
-67.72
 20
186.059
 11
-70.9568
 21
184.849
  0
LINE
  8
0
 10
-70.9568
 20
184.849
 11
-74.1721
 21
183.582
  0
LINE
  8
0
 10
-74.1721
 20
183.582
 11
-77.3648
 21
182.26
  0
LINE
  8
0
 10
-77.3648
 20
182.26
 11
-80.5338
 21
180.882
  0
LINE
  8
0
 10
-80.5338
 20
180.882
 11
-83.6784
 21
179.449
  0
LINE
  8
0
 10
-83.6784
 20
179.449
 11
-86.7975
 21
177.961
  0
LINE
  8
0
 10
-86.7975
 20
177.961
 11
-89.8901
 21
176.419
  0
LINE
  8
0
 10
-89.8901
 20
176.419
 11
-92.9554
 21
174.824
  0
LINE
  8
0
 10
-92.9554
 20
174.824
 11
-95.9923
 21
173.175
  0
LINE
  8
0
 10
-95.9923
 20
173.175
 11
-99
 21
171.473
  0
LINE
  8
0
 10
-99
 20
171.473
 11
-101.978
 21
169.719
  0
LINE
  8
0
 10
-101.978
 20
169.719
 11
-104.924
 21
167.914
  0
LINE
  8
0
 10
-104.924
 20
167.914
 11
-107.839
 21
166.057
  0
LINE
  8
0
 10
-107.839
 20
166.057
 11
-110.72
 21
164.149
  0
LINE
  8
0
 10
-110.72
 20
164.149
 11
-113.568
 21
162.192
  0
LINE
  8
0
 10
-113.568
 20
162.192
 11
-116.381
 21
160.185
  0
LINE
  8
0
 10
-116.381
 20
160.185
 11
-119.159
 21
158.13
  0
LINE
  8
0
 10
-119.159
 20
158.13
 11
-121.901
 21
156.026
  0
LINE
  8
0
 10
-121.901
 20
156.026
 11
-124.605
 21
153.875
  0
LINE
  8
0
 10
-124.605
 20
153.875
 11
-127.272
 21
151.677
  0
LINE
  8
0
 10
-127.272
 20
151.677
 11
-128.279
 21
150.816
  0
LINE
  8
0
 10
-128.279
 20
150.816
 11
-128.693
 21
151.321
  0
LINE
  8
0
 10
-128.693
 20
151.321
 11
-131.118
 21
153.311
  0
LINE
  8
0
 10
-131.118
 20
153.311
 11
-133.884
 21
154.789
  0
LINE
  8
0
 10
-133.884
 20
154.789
 11
-136.886
 21
155.7
  0
LINE
  8
0
 10
-136.886
 20
155.7
 11
-140.007
 21
156.007
  0
LINE
  8
0
 10
-140.007
 20
156.007
 11
-143.129
 21
155.7
  0
LINE
  8
0
 10
-143.129
 20
155.7
 11
-146.13
 21
154.789
  0
LINE
  8
0
 10
-146.13
 20
154.789
 11
-148.896
 21
153.311
  0
LINE
  8
0
 10
-148.896
 20
153.311
 11
-151.321
 21
151.321
  0
LINE
  8
0
 10
-151.321
 20
151.321
 11
-153.311
 21
148.896
  0
LINE
  8
0
 10
-153.311
 20
148.896
 11
-154.789
 21
146.13
  0
LINE
  8
0
 10
-154.789
 20
146.13
 11
-155.7
 21
143.129
  0
LINE
  8
0
 10
-155.7
 20
143.129
 11
-156.007
 21
140.007
  0
LINE
  8
0
 10
-156.007
 20
140.007
 11
-155.7
 21
136.886
  0
LINE
  8
0
 10
-155.7
 20
136.886
 11
-154.789
 21
133.884
  0
LINE
  8
0
 10
-154.789
 20
133.884
 11
-153.311
 21
131.118
  0
LINE
  8
0
 10
-153.311
 20
131.118
 11
-151.321
 21
128.693
  0
LINE
  8
0
 10
-151.321
 20
128.693
 11
-150.816
 21
128.279
  0
LINE
  8
0
 10
-150.816
 20
128.279
 11
-151.677
 21
127.272
  0
LINE
  8
0
 10
-151.677
 20
127.272
 11
-153.875
 21
124.605
  0
LINE
  8
0
 10
-153.875
 20
124.605
 11
-156.026
 21
121.901
  0
LINE
  8
0
 10
-156.026
 20
121.901
 11
-158.13
 21
119.159
  0
LINE
  8
0
 10
-158.13
 20
119.159
 11
-160.185
 21
116.381
  0
LINE
  8
0
 10
-160.185
 20
116.381
 11
-162.192
 21
113.568
  0
LINE
  8
0
 10
-162.192
 20
113.568
 11
-164.149
 21
110.72
  0
LINE
  8
0
 10
-164.149
 20
110.72
 11
-166.057
 21
107.839
  0
LINE
  8
0
 10
-166.057
 20
107.839
 11
-167.914
 21
104.924
  0
LINE
  8
0
 10
-167.914
 20
104.924
 11
-169.719
 21
101.978
  0
LINE
  8
0
 10
-169.719
 20
101.978
 11
-171.473
 21
99
  0
LINE
  8
0
 10
-171.473
 20
99
 11
-173.175
 21
95.9923
  0
LINE
  8
0
 10
-173.175
 20
95.9923
 11
-174.824
 21
92.9554
  0
LINE
  8
0
 10
-174.824
 20
92.9554
 11
-176.419
 21
89.8901
  0
LINE
  8
0
 10
-176.419
 20
89.8901
 11
-177.961
 21
86.7975
  0
LINE
  8
0
 10
-177.961
 20
86.7975
 11
-179.449
 21
83.6784
  0
LINE
  8
0
 10
-179.449
 20
83.6784
 11
-180.882
 21
80.5338
  0
LINE
  8
0
 10
-180.882
 20
80.5338
 11
-182.26
 21
77.3648
  0
LINE
  8
0
 10
-182.26
 20
77.3648
 11
-183.582
 21
74.1721
  0
LINE
  8
0
 10
-183.582
 20
74.1721
 11
-184.849
 21
70.9568
  0
LINE
  8
0
 10
-184.849
 20
70.9568
 11
-186.059
 21
67.72
  0
LINE
  8
0
 10
-186.059
 20
67.72
 11
-187.213
 21
64.4625
  0
LINE
  8
0
 10
-187.213
 20
64.4625
 11
-188.309
 21
61.1854
  0
LINE
  8
0
 10
-188.309
 20
61.1854
 11
-189.348
 21
57.8896
  0
LINE
  8
0
 10
-189.348
 20
57.8896
 11
-190.33
 21
54.5762
  0
LINE
  8
0
 10
-190.33
 20
54.5762
 11
-191.253
 21
51.2462
  0
LINE
  8
0
 10
-191.253
 20
51.2462
 11
-192.119
 21
47.9005
  0
LINE
  8
0
 10
-192.119
 20
47.9005
 11
-192.925
 21
44.5403
  0
LINE
  8
0
 10
-192.925
 20
44.5403
 11
-193.673
 21
41.1665
  0
LINE
  8
0
 10
-193.673
 20
41.1665
 11
-194.362
 21
37.7802
  0
LINE
  8
0
 10
-194.362
 20
37.7802
 11
-194.992
 21
34.3823
  0
LINE
  8
0
 10
-194.992
 20
34.3823
 11
-195.562
 21
30.974
  0
LINE
  8
0
 10
-195.562
 20
30.974
 11
-196.073
 21
27.5563
  0
LINE
  8
0
 10
-196.073
 20
27.5563
 11
-196.524
 21
24.1301
  0
LINE
  8
0
 10
-196.524
 20
24.1301
 11
-196.915
 21
20.6966
  0
LINE
  8
0
 10
-196.915
 20
20.6966
 11
-197.247
 21
17.2568
  0
LINE
  8
0
 10
-197.247
 20
17.2568
 11
-197.35
 21
15.936
  0
LINE
  8
0
 10
-197.35
 20
15.936
 11
-198
 21
16
  0
LINE
  8
0
 10
-198
 20
16
 11
-201.121
 21
15.6926
  0
LINE
  8
0
 10
-201.121
 20
15.6926
 11
-204.123
 21
14.7821
  0
LINE
  8
0
 10
-204.123
 20
14.7821
 11
-206.889
 21
13.3035
  0
LINE
  8
0
 10
-206.889
 20
13.3035
 11
-209.314
 21
11.3137
  0
LINE
  8
0
 10
-209.314
 20
11.3137
 11
-211.304
 21
8.88911
  0
LINE
  8
0
 10
-211.304
 20
8.88911
 11
-212.782
 21
6.12292
  0
LINE
  8
0
 10
-212.782
 20
6.12292
 11
-213.693
 21
3.12144
  0
LINE
  8
0
 10
-213.693
 20
3.12144
 11
-214
 21
0
  0
LINE
  8
0
 10
-214
 20
0
 11
-213.693
 21
-3.12144
  0
LINE
  8
0
 10
-213.693
 20
-3.12144
 11
-212.782
 21
-6.12292
  0
LINE
  8
0
 10
-212.782
 20
-6.12292
 11
-211.304
 21
-8.88911
  0
LINE
  8
0
 10
-211.304
 20
-8.88911
 11
-209.314
 21
-11.3137
  0
LINE
  8
0
 10
-209.314
 20
-11.3137
 11
-206.889
 21
-13.3035
  0
LINE
  8
0
 10
-206.889
 20
-13.3035
 11
-204.123
 21
-14.7821
  0
LINE
  8
0
 10
-204.123
 20
-14.7821
 11
-201.121
 21
-15.6926
  0
LINE
  8
0
 10
-201.121
 20
-15.6926
 11
-198
 21
-16
  0
LINE
  8
0
 10
-198
 20
-16
 11
-197.35
 21
-15.936
  0
LINE
  8
0
 10
-197.35
 20
-15.936
 11
-197.247
 21
-17.2568
  0
LINE
  8
0
 10
-197.247
 20
-17.2568
 11
-196.915
 21
-20.6966
  0
LINE
  8
0
 10
-196.915
 20
-20.6966
 11
-196.524
 21
-24.1301
  0
LINE
  8
0
 10
-196.524
 20
-24.1301
 11
-196.073
 21
-27.5563
  0
LINE
  8
0
 10
-196.073
 20
-27.5563
 11
-195.562
 21
-30.974
  0
LINE
  8
0
 10
-195.562
 20
-30.974
 11
-194.992
 21
-34.3823
  0
LINE
  8
0
 10
-194.992
 20
-34.3823
 11
-194.362
 21
-37.7802
  0
LINE
  8
0
 10
-194.362
 20
-37.7802
 11
-193.673
 21
-41.1665
  0
LINE
  8
0
 10
-193.673
 20
-41.1665
 11
-192.925
 21
-44.5403
  0
LINE
  8
0
 10
-192.925
 20
-44.5403
 11
-192.119
 21
-47.9005
  0
LINE
  8
0
 10
-192.119
 20
-47.9005
 11
-191.253
 21
-51.2462
  0
LINE
  8
0
 10
-191.253
 20
-51.2462
 11
-190.33
 21
-54.5762
  0
LINE
  8
0
 10
-190.33
 20
-54.5762
 11
-189.348
 21
-57.8896
  0
LINE
  8
0
 10
-189.348
 20
-57.8896
 11
-188.309
 21
-61.1854
  0
LINE
  8
0
 10
-188.309
 20
-61.1854
 11
-187.213
 21
-64.4625
  0
LINE
  8
0
 10
-187.213
 20
-64.4625
 11
-186.059
 21
-67.72
  0
LINE
  8
0
 10
-186.059
 20
-67.72
 11
-184.849
 21
-70.9568
  0
LINE
  8
0
 10
-184.849
 20
-70.9568
 11
-183.582
 21
-74.1721
  0
LINE
  8
0
 10
-183.582
 20
-74.1721
 11
-182.26
 21
-77.3648
  0
LINE
  8
0
 10
-182.26
 20
-77.3648
 11
-180.882
 21
-80.5338
  0
LINE
  8
0
 10
-180.882
 20
-80.5338
 11
-179.449
 21
-83.6784
  0
LINE
  8
0
 10
-179.449
 20
-83.6784
 11
-177.961
 21
-86.7975
  0
LINE
  8
0
 10
-177.961
 20
-86.7975
 11
-176.419
 21
-89.8901
  0
LINE
  8
0
 10
-176.419
 20
-89.8901
 11
-174.824
 21
-92.9554
  0
LINE
  8
0
 10
-174.824
 20
-92.9554
 11
-173.175
 21
-95.9923
  0
LINE
  8
0
 10
-173.175
 20
-95.9923
 11
-171.473
 21
-99
  0
LINE
  8
0
 10
-171.473
 20
-99
 11
-169.719
 21
-101.978
  0
LINE
  8
0
 10
-169.719
 20
-101.978
 11
-167.914
 21
-104.924
  0
LINE
  8
0
 10
-167.914
 20
-104.924
 11
-166.057
 21
-107.839
  0
LINE
  8
0
 10
-166.057
 20
-107.839
 11
-164.149
 21
-110.72
  0
LINE
  8
0
 10
-164.149
 20
-110.72
 11
-162.192
 21
-113.568
  0
LINE
  8
0
 10
-162.192
 20
-113.568
 11
-160.185
 21
-116.381
  0
LINE
  8
0
 10
-160.185
 20
-116.381
 11
-158.13
 21
-119.159
  0
LINE
  8
0
 10
-158.13
 20
-119.159
 11
-156.026
 21
-121.901
  0
LINE
  8
0
 10
-156.026
 20
-121.901
 11
-153.875
 21
-124.605
  0
LINE
  8
0
 10
-153.875
 20
-124.605
 11
-151.677
 21
-127.272
  0
LINE
  8
0
 10
-151.677
 20
-127.272
 11
-150.816
 21
-128.279
  0
LINE
  8
0
 10
-150.816
 20
-128.279
 11
-151.321
 21
-128.693
  0
LINE
  8
0
 10
-151.321
 20
-128.693
 11
-153.311
 21
-131.118
  0
LINE
  8
0
 10
-153.311
 20
-131.118
 11
-154.789
 21
-133.884
  0
LINE
  8
0
 10
-154.789
 20
-133.884
 11
-155.7
 21
-136.886
  0
LINE
  8
0
 10
-155.7
 20
-136.886
 11
-156.007
 21
-140.007
  0
LINE
  8
0
 10
-156.007
 20
-140.007
 11
-155.7
 21
-143.129
  0
LINE
  8
0
 10
-155.7
 20
-143.129
 11
-154.789
 21
-146.13
  0
LINE
  8
0
 10
-154.789
 20
-146.13
 11
-153.311
 21
-148.896
  0
LINE
  8
0
 10
-153.311
 20
-148.896
 11
-151.321
 21
-151.321
  0
LINE
  8
0
 10
-151.321
 20
-151.321
 11
-148.896
 21
-153.311
  0
LINE
  8
0
 10
-148.896
 20
-153.311
 11
-146.13
 21
-154.789
  0
LINE
  8
0
 10
-146.13
 20
-154.789
 11
-143.129
 21
-155.7
  0
LINE
  8
0
 10
-143.129
 20
-155.7
 11
-140.007
 21
-156.007
  0
LINE
  8
0
 10
-140.007
 20
-156.007
 11
-136.886
 21
-155.7
  0
LINE
  8
0
 10
-136.886
 20
-155.7
 11
-133.884
 21
-154.789
  0
LINE
  8
0
 10
-133.884
 20
-154.789
 11
-131.118
 21
-153.311
  0
LINE
  8
0
 10
-131.118
 20
-153.311
 11
-128.693
 21
-151.321
  0
LINE
  8
0
 10
-128.693
 20
-151.321
 11
-128.279
 21
-150.816
  0
LINE
  8
0
 10
-128.279
 20
-150.816
 11
-127.272
 21
-151.677
  0
LINE
  8
0
 10
-127.272
 20
-151.677
 11
-124.605
 21
-153.875
  0
LINE
  8
0
 10
-124.605
 20
-153.875
 11
-121.901
 21
-156.026
  0
LINE
  8
0
 10
-121.901
 20
-156.026
 11
-119.159
 21
-158.13
  0
LINE
  8
0
 10
-119.159
 20
-158.13
 11
-116.381
 21
-160.185
  0
LINE
  8
0
 10
-116.381
 20
-160.185
 11
-113.568
 21
-162.192
  0
LINE
  8
0
 10
-113.568
 20
-162.192
 11
-110.72
 21
-164.149
  0
LINE
  8
0
 10
-110.72
 20
-164.149
 11
-107.839
 21
-166.057
  0
LINE
  8
0
 10
-107.839
 20
-166.057
 11
-104.924
 21
-167.914
  0
LINE
  8
0
 10
-104.924
 20
-167.914
 11
-101.978
 21
-169.719
  0
LINE
  8
0
 10
-101.978
 20
-169.719
 11
-99
 21
-171.473
  0
LINE
  8
0
 10
-99
 20
-171.473
 11
-95.9923
 21
-173.175
  0
LINE
  8
0
 10
-95.9923
 20
-173.175
 11
-92.9554
 21
-174.824
  0
LINE
  8
0
 10
-92.9554
 20
-174.824
 11
-89.8901
 21
-176.419
  0
LINE
  8
0
 10
-89.8901
 20
-176.419
 11
-86.7975
 21
-177.961
  0
LINE
  8
0
 10
-86.7975
 20
-177.961
 11
-83.6784
 21
-179.449
  0
LINE
  8
0
 10
-83.6784
 20
-179.449
 11
-80.5338
 21
-180.882
  0
LINE
  8
0
 10
-80.5338
 20
-180.882
 11
-77.3648
 21
-182.26
  0
LINE
  8
0
 10
-77.3648
 20
-182.26
 11
-74.1721
 21
-183.582
  0
LINE
  8
0
 10
-74.1721
 20
-183.582
 11
-70.9568
 21
-184.849
  0
LINE
  8
0
 10
-70.9568
 20
-184.849
 11
-67.72
 21
-186.059
  0
LINE
  8
0
 10
-67.72
 20
-186.059
 11
-64.4625
 21
-187.213
  0
LINE
  8
0
 10
-64.4625
 20
-187.213
 11
-61.1854
 21
-188.309
  0
LINE
  8
0
 10
-61.1854
 20
-188.309
 11
-57.8896
 21
-189.348
  0
LINE
  8
0
 10
-57.8896
 20
-189.348
 11
-54.5762
 21
-190.33
  0
LINE
  8
0
 10
-54.5762
 20
-190.33
 11
-51.2462
 21
-191.253
  0
LINE
  8
0
 10
-51.2462
 20
-191.253
 11
-47.9005
 21
-192.119
  0
LINE
  8
0
 10
-47.9005
 20
-192.119
 11
-44.5403
 21
-192.925
  0
LINE
  8
0
 10
-44.5403
 20
-192.925
 11
-41.1665
 21
-193.673
  0
LINE
  8
0
 10
-41.1665
 20
-193.673
 11
-37.7802
 21
-194.362
  0
LINE
  8
0
 10
-37.7802
 20
-194.362
 11
-34.3823
 21
-194.992
  0
LINE
  8
0
 10
-34.3823
 20
-194.992
 11
-30.974
 21
-195.562
  0
LINE
  8
0
 10
-30.974
 20
-195.562
 11
-27.5563
 21
-196.073
  0
LINE
  8
0
 10
-27.5563
 20
-196.073
 11
-24.1301
 21
-196.524
  0
LINE
  8
0
 10
-24.1301
 20
-196.524
 11
-20.6966
 21
-196.915
  0
LINE
  8
0
 10
-20.6966
 20
-196.915
 11
-17.2568
 21
-197.247
  0
LINE
  8
0
 10
-17.2568
 20
-197.247
 11
-15.936
 21
-197.35
  0
LINE
  8
0
 10
-15.936
 20
-197.35
 11
-16
 21
-198
  0
LINE
  8
0
 10
-16
 20
-198
 11
-15.6926
 21
-201.121
  0
LINE
  8
0
 10
-15.6926
 20
-201.121
 11
-14.7821
 21
-204.123
  0
LINE
  8
0
 10
-14.7821
 20
-204.123
 11
-13.3035
 21
-206.889
  0
LINE
  8
0
 10
-13.3035
 20
-206.889
 11
-11.3137
 21
-209.314
  0
LINE
  8
0
 10
-11.3137
 20
-209.314
 11
-8.88911
 21
-211.304
  0
LINE
  8
0
 10
-8.88911
 20
-211.304
 11
-6.12292
 21
-212.782
  0
LINE
  8
0
 10
-6.12292
 20
-212.782
 11
-3.12144
 21
-213.693
  0
LINE
  8
0
 10
-3.12144
 20
-213.693
 11
0
 21
-214
  0
LINE
  8
0
 10
0
 20
-214
 11
3.12144
 21
-213.693
  0
LINE
  8
0
 10
-0.78035
 20
194.077
 11
-1.53073
 21
194.304
  0
LINE
  8
0
 10
-1.53073
 20
194.304
 11
-2.22227
 21
194.674
  0
LINE
  8
0
 10
-2.22227
 20
194.674
 11
-2.82841
 21
195.172
  0
LINE
  8
0
 10
-2.82841
 20
195.172
 11
-3.32587
 21
195.778
  0
LINE
  8
0
 10
-3.32587
 20
195.778
 11
-3.69551
 21
196.469
  0
LINE
  8
0
 10
-3.69551
 20
196.469
 11
-3.92313
 21
197.22
  0
LINE
  8
0
 10
-3.92313
 20
197.22
 11
-4
 21
198
  0
LINE
  8
0
 10
-4
 20
198
 11
-3.92313
 21
198.78
  0
LINE
  8
0
 10
-3.92313
 20
198.78
 11
-3.69551
 21
199.531
  0
LINE
  8
0
 10
-3.69551
 20
199.531
 11
-3.32587
 21
200.222
  0
LINE
  8
0
 10
-3.32587
 20
200.222
 11
-2.82841
 21
200.828
  0
LINE
  8
0
 10
-2.82841
 20
200.828
 11
-2.22227
 21
201.326
  0
LINE
  8
0
 10
-2.22227
 20
201.326
 11
-1.53073
 21
201.696
  0
LINE
  8
0
 10
-1.53073
 20
201.696
 11
-0.78035
 21
201.923
  0
LINE
  8
0
 10
-0.78035
 20
201.923
 11
0
 21
202
  0
LINE
  8
0
 10
0
 20
202
 11
0.78035
 21
201.923
  0
LINE
  8
0
 10
0.78035
 20
201.923
 11
1.53073
 21
201.696
  0
LINE
  8
0
 10
1.53073
 20
201.696
 11
2.22227
 21
201.326
  0
LINE
  8
0
 10
2.22227
 20
201.326
 11
2.82841
 21
200.828
  0
LINE
  8
0
 10
2.82841
 20
200.828
 11
3.32587
 21
200.222
  0
LINE
  8
0
 10
3.32587
 20
200.222
 11
3.69551
 21
199.531
  0
LINE
  8
0
 10
3.69551
 20
199.531
 11
3.92313
 21
198.78
  0
LINE
  8
0
 10
3.92313
 20
198.78
 11
4
 21
198
  0
LINE
  8
0
 10
4
 20
198
 11
3.92313
 21
197.22
  0
LINE
  8
0
 10
3.92313
 20
197.22
 11
3.69551
 21
196.469
  0
LINE
  8
0
 10
3.69551
 20
196.469
 11
3.32587
 21
195.778
  0
LINE
  8
0
 10
3.32587
 20
195.778
 11
2.82841
 21
195.172
  0
LINE
  8
0
 10
2.82841
 20
195.172
 11
2.22227
 21
194.674
  0
LINE
  8
0
 10
2.22227
 20
194.674
 11
1.53073
 21
194.304
  0
LINE
  8
0
 10
1.53073
 20
194.304
 11
0.78035
 21
194.077
  0
LINE
  8
0
 10
0.78035
 20
194.077
 11
0
 21
194
  0
LINE
  8
0
 10
0
 20
194
 11
-0.78035
 21
194.077
  0
LINE
  8
0
 10
-0.57402
 20
153.614
 11
-1.06065
 21
153.939
  0
LINE
  8
0
 10
-1.06065
 20
153.939
 11
-1.38582
 21
154.426
  0
LINE
  8
0
 10
-1.38582
 20
154.426
 11
-1.5
 21
155
  0
LINE
  8
0
 10
-1.5
 20
155
 11
-1.5
 21
180
  0
LINE
  8
0
 10
-1.5
 20
180
 11
-1.38582
 21
180.574
  0
LINE
  8
0
 10
-1.38582
 20
180.574
 11
-1.06065
 21
181.061
  0
LINE
  8
0
 10
-1.06065
 20
181.061
 11
-0.57402
 21
181.386
  0
LINE
  8
0
 10
-0.57402
 20
181.386
 11
0
 21
181.5
  0
LINE
  8
0
 10
0
 20
181.5
 11
0.57402
 21
181.386
  0
LINE
  8
0
 10
0.57402
 20
181.386
 11
1.06065
 21
181.061
  0
LINE
  8
0
 10
1.06065
 20
181.061
 11
1.38582
 21
180.574
  0
LINE
  8
0
 10
1.38582
 20
180.574
 11
1.5
 21
180
  0
LINE
  8
0
 10
1.5
 20
180
 11
1.5
 21
155
  0
LINE
  8
0
 10
1.5
 20
155
 11
1.38582
 21
154.426
  0
LINE
  8
0
 10
1.38582
 20
154.426
 11
1.06065
 21
153.939
  0
LINE
  8
0
 10
1.06065
 20
153.939
 11
0.57402
 21
153.614
  0
LINE
  8
0
 10
0.57402
 20
153.614
 11
0
 21
153.5
  0
LINE
  8
0
 10
0
 20
153.5
 11
-0.57402
 21
153.614
  0
LINE
  8
0
 10
39.7287
 20
148.27
 11
39.2038
 21
148.528
  0
LINE
  8
0
 10
39.2038
 20
148.528
 11
38.8179
 21
148.968
  0
LINE
  8
0
 10
38.8179
 20
148.968
 11
38.6298
 21
149.523
  0
LINE
  8
0
 10
38.6298
 20
149.523
 11
38.6681
 21
150.107
  0
LINE
  8
0
 10
38.6681
 20
150.107
 11
45.1385
 21
174.255
  0
LINE
  8
0
 10
45.1385
 20
174.255
 11
45.3974
 21
174.78
  0
LINE
  8
0
 10
45.3974
 20
174.78
 11
45.8374
 21
175.166
  0
LINE
  8
0
 10
45.8374
 20
175.166
 11
46.3916
 21
175.354
  0
LINE
  8
0
 10
46.3916
 20
175.354
 11
46.9756
 21
175.316
  0
LINE
  8
0
 10
46.9756
 20
175.316
 11
47.5006
 21
175.057
  0
LINE
  8
0
 10
47.5006
 20
175.057
 11
47.8865
 21
174.617
  0
LINE
  8
0
 10
47.8865
 20
174.617
 11
48.0746
 21
174.062
  0
LINE
  8
0
 10
48.0746
 20
174.062
 11
48.0363
 21
173.478
  0
LINE
  8
0
 10
48.0363
 20
173.478
 11
41.5658
 21
149.33
  0
LINE
  8
0
 10
41.5658
 20
149.33
 11
41.307
 21
148.805
  0
LINE
  8
0
 10
41.307
 20
148.805
 11
40.8669
 21
148.419
  0
LINE
  8
0
 10
40.8669
 20
148.419
 11
40.3127
 21
148.231
  0
LINE
  8
0
 10
40.3127
 20
148.231
 11
39.7287
 21
148.27
  0
LINE
  8
0
 10
-40.8669
 20
148.419
 11
-41.307
 21
148.805
  0
LINE
  8
0
 10
-41.307
 20
148.805
 11
-41.5658
 21
149.33
  0
LINE
  8
0
 10
-41.5658
 20
149.33
 11
-48.0363
 21
173.478
  0
LINE
  8
0
 10
-48.0363
 20
173.478
 11
-48.0746
 21
174.062
  0
LINE
  8
0
 10
-48.0746
 20
174.062
 11
-47.8865
 21
174.617
  0
LINE
  8
0
 10
-47.8865
 20
174.617
 11
-47.5006
 21
175.057
  0
LINE
  8
0
 10
-47.5006
 20
175.057
 11
-46.9756
 21
175.316
  0
LINE
  8
0
 10
-46.9756
 20
175.316
 11
-46.3916
 21
175.354
  0
LINE
  8
0
 10
-46.3916
 20
175.354
 11
-45.8374
 21
175.166
  0
LINE
  8
0
 10
-45.8374
 20
175.166
 11
-45.3974
 21
174.78
  0
LINE
  8
0
 10
-45.3974
 20
174.78
 11
-45.1385
 21
174.255
  0
LINE
  8
0
 10
-45.1385
 20
174.255
 11
-38.6681
 21
150.107
  0
LINE
  8
0
 10
-38.6681
 20
150.107
 11
-38.6298
 21
149.523
  0
LINE
  8
0
 10
-38.6298
 20
149.523
 11
-38.8179
 21
148.968
  0
LINE
  8
0
 10
-38.8179
 20
148.968
 11
-39.2038
 21
148.528
  0
LINE
  8
0
 10
-39.2038
 20
148.528
 11
-39.7287
 21
148.27
  0
LINE
  8
0
 10
-39.7287
 20
148.27
 11
-40.3127
 21
148.231
  0
LINE
  8
0
 10
-40.3127
 20
148.231
 11
-40.8669
 21
148.419
  0
LINE
  8
0
 10
69.5175
 20
170.134
 11
69.6558
 21
171.892
  0
LINE
  8
0
 10
69.6558
 20
171.892
 11
71.3705
 21
172.304
  0
LINE
  8
0
 10
71.3705
 20
172.304
 11
72.2918
 21
170.8
  0
LINE
  8
0
 10
72.2918
 20
170.8
 11
71.1466
 21
169.459
  0
LINE
  8
0
 10
71.1466
 20
169.459
 11
69.5175
 21
170.134
  0
LINE
  8
0
 10
-72.2918
 20
170.8
 11
-71.3705
 21
172.304
  0
LINE
  8
0
 10
-71.3705
 20
172.304
 11
-69.6558
 21
171.892
  0
LINE
  8
0
 10
-69.6558
 20
171.892
 11
-69.5175
 21
170.134
  0
LINE
  8
0
 10
-69.5175
 20
170.134
 11
-71.1466
 21
169.459
  0
LINE
  8
0
 10
-71.1466
 20
169.459
 11
-72.2918
 21
170.8
  0
LINE
  8
0
 10
-68.3554
 20
161.105
 11
-65.5838
 21
162.253
  0
LINE
  8
0
 10
-65.5838
 20
162.253
 11
-61.7569
 21
153.014
  0
LINE
  8
0
 10
-61.7569
 20
153.014
 11
-64.5286
 21
151.866
  0
LINE
  8
0
 10
-64.5286
 20
151.866
 11
-68.3554
 21
161.105
  0
LINE
  8
0
 10
61.7569
 20
153.014
 11
65.5838
 21
162.253
  0
LINE
  8
0
 10
65.5838
 20
162.253
 11
68.3554
 21
161.105
  0
LINE
  8
0
 10
68.3554
 20
161.105
 11
64.5286
 21
151.866
  0
LINE
  8
0
 10
64.5286
 20
151.866
 11
61.7569
 21
153.014
  0
LINE
  8
0
 10
76.75
 20
132.935
 11
76.31
 21
133.321
  0
LINE
  8
0
 10
76.31
 20
133.321
 11
76.0511
 21
133.846
  0
LINE
  8
0
 10
76.0511
 20
133.846
 11
76.0128
 21
134.43
  0
LINE
  8
0
 10
76.0128
 20
134.43
 11
76.201
 21
134.984
  0
LINE
  8
0
 10
76.201
 20
134.984
 11
88.701
 21
156.635
  0
LINE
  8
0
 10
88.701
 20
156.635
 11
89.0869
 21
157.075
  0
LINE
  8
0
 10
89.0869
 20
157.075
 11
89.6118
 21
157.333
  0
LINE
  8
0
 10
89.6118
 20
157.333
 11
90.1958
 21
157.372
  0
LINE
  8
0
 10
90.1958
 20
157.372
 11
90.75
 21
157.184
  0
LINE
  8
0
 10
90.75
 20
157.184
 11
91.19
 21
156.798
  0
LINE
  8
0
 10
91.19
 20
156.798
 11
91.4489
 21
156.273
  0
LINE
  8
0
 10
91.4489
 20
156.273
 11
91.4872
 21
155.689
  0
LINE
  8
0
 10
91.4872
 20
155.689
 11
91.299
 21
155.135
  0
LINE
  8
0
 10
91.299
 20
155.135
 11
78.799
 21
133.484
  0
LINE
  8
0
 10
78.799
 20
133.484
 11
78.4131
 21
133.044
  0
LINE
  8
0
 10
78.4131
 20
133.044
 11
77.8882
 21
132.785
  0
LINE
  8
0
 10
77.8882
 20
132.785
 11
77.3042
 21
132.747
  0
LINE
  8
0
 10
77.3042
 20
132.747
 11
76.75
 21
132.935
  0
LINE
  8
0
 10
-77.8882
 20
132.785
 11
-78.4131
 21
133.044
  0
LINE
  8
0
 10
-78.4131
 20
133.044
 11
-78.799
 21
133.484
  0
LINE
  8
0
 10
-78.799
 20
133.484
 11
-91.299
 21
155.135
  0
LINE
  8
0
 10
-91.299
 20
155.135
 11
-91.4872
 21
155.689
  0
LINE
  8
0
 10
-91.4872
 20
155.689
 11
-91.4489
 21
156.273
  0
LINE
  8
0
 10
-91.4489
 20
156.273
 11
-91.19
 21
156.798
  0
LINE
  8
0
 10
-91.19
 20
156.798
 11
-90.75
 21
157.184
  0
LINE
  8
0
 10
-90.75
 20
157.184
 11
-90.1958
 21
157.372
  0
LINE
  8
0
 10
-90.1958
 20
157.372
 11
-89.6118
 21
157.333
  0
LINE
  8
0
 10
-89.6118
 20
157.333
 11
-89.0869
 21
157.075
  0
LINE
  8
0
 10
-89.0869
 20
157.075
 11
-88.701
 21
156.635
  0
LINE
  8
0
 10
-88.701
 20
156.635
 11
-76.201
 21
134.984
  0
LINE
  8
0
 10
-76.201
 20
134.984
 11
-76.0128
 21
134.43
  0
LINE
  8
0
 10
-76.0128
 20
134.43
 11
-76.0511
 21
133.846
  0
LINE
  8
0
 10
-76.0511
 20
133.846
 11
-76.31
 21
133.321
  0
LINE
  8
0
 10
-76.31
 20
133.321
 11
-76.75
 21
132.935
  0
LINE
  8
0
 10
-76.75
 20
132.935
 11
-77.3042
 21
132.747
  0
LINE
  8
0
 10
-77.3042
 20
132.747
 11
-77.8882
 21
132.785
  0
LINE
  8
0
 10
-2.58295
 20
-147.977
 11
-5.16512
 21
-147.91
  0
LINE
  8
0
 10
-5.16512
 20
-147.91
 11
-7.74571
 21
-147.797
  0
LINE
  8
0
 10
-7.74571
 20
-147.797
 11
-10.3239
 21
-147.639
  0
LINE
  8
0
 10
-10.3239
 20
-147.639
 11
-12.899
 21
-147.437
  0
LINE
  8
0
 10
-12.899
 20
-147.437
 11
-15.4702
 21
-147.189
  0
LINE
  8
0
 10
-15.4702
 20
-147.189
 11
-18.0367
 21
-146.897
  0
LINE
  8
0
 10
-18.0367
 20
-146.897
 11
-20.5976
 21
-146.56
  0
LINE
  8
0
 10
-20.5976
 20
-146.56
 11
-23.1523
 21
-146.178
  0
LINE
  8
0
 10
-23.1523
 20
-146.178
 11
-25.6999
 21
-145.752
  0
LINE
  8
0
 10
-25.6999
 20
-145.752
 11
-28.2397
 21
-145.281
  0
LINE
  8
0
 10
-28.2397
 20
-145.281
 11
-30.7709
 21
-144.766
  0
LINE
  8
0
 10
-30.7709
 20
-144.766
 11
-33.2928
 21
-144.207
  0
LINE
  8
0
 10
-33.2928
 20
-144.207
 11
-35.8044
 21
-143.604
  0
LINE
  8
0
 10
-35.8044
 20
-143.604
 11
-38.3052
 21
-142.957
  0
LINE
  8
0
 10
-38.3052
 20
-142.957
 11
-40.7943
 21
-142.267
  0
LINE
  8
0
 10
-40.7943
 20
-142.267
 11
-43.271
 21
-141.533
  0
LINE
  8
0
 10
-43.271
 20
-141.533
 11
-45.7345
 21
-140.756
  0
LINE
  8
0
 10
-45.7345
 20
-140.756
 11
-48.1841
 21
-139.937
  0
LINE
  8
0
 10
-48.1841
 20
-139.937
 11
-50.619
 21
-139.074
  0
LINE
  8
0
 10
-50.619
 20
-139.074
 11
-53.0385
 21
-138.17
  0
LINE
  8
0
 10
-53.0385
 20
-138.17
 11
-55.4418
 21
-137.223
  0
LINE
  8
0
 10
-55.4418
 20
-137.223
 11
-57.8282
 21
-136.235
  0
LINE
  8
0
 10
-57.8282
 20
-136.235
 11
-60.197
 21
-135.205
  0
LINE
  8
0
 10
-60.197
 20
-135.205
 11
-62.5475
 21
-134.134
  0
LINE
  8
0
 10
-62.5475
 20
-134.134
 11
-64.8789
 21
-133.022
  0
LINE
  8
0
 10
-64.8789
 20
-133.022
 11
-67.1906
 21
-131.869
  0
LINE
  8
0
 10
-67.1906
 20
-131.869
 11
-69.4818
 21
-130.676
  0
LINE
  8
0
 10
-69.4818
 20
-130.676
 11
-71.7518
 21
-129.444
  0
LINE
  8
0
 10
-71.7518
 20
-129.444
 11
-74
 21
-128.172
  0
LINE
  8
0
 10
-74
 20
-128.172
 11
-76.2256
 21
-126.861
  0
LINE
  8
0
 10
-76.2256
 20
-126.861
 11
-78.428
 21
-125.511
  0
LINE
  8
0
 10
-78.428
 20
-125.511
 11
-80.6066
 21
-124.123
  0
LINE
  8
0
 10
-80.6066
 20
-124.123
 11
-82.7605
 21
-122.698
  0
LINE
  8
0
 10
-82.7605
 20
-122.698
 11
-84.8893
 21
-121.234
  0
LINE
  8
0
 10
-84.8893
 20
-121.234
 11
-86.9922
 21
-119.735
  0
LINE
  8
0
 10
-86.9922
 20
-119.735
 11
-89.0686
 21
-118.198
  0
LINE
  8
0
 10
-89.0686
 20
-118.198
 11
-91.1179
 21
-116.626
  0
LINE
  8
0
 10
-91.1179
 20
-116.626
 11
-93.1394
 21
-115.018
  0
LINE
  8
0
 10
-93.1394
 20
-115.018
 11
-95.1326
 21
-113.375
  0
LINE
  8
0
 10
-95.1326
 20
-113.375
 11
-97.0967
 21
-111.697
  0
LINE
  8
0
 10
-97.0967
 20
-111.697
 11
-99.0313
 21
-109.985
  0
LINE
  8
0
 10
-99.0313
 20
-109.985
 11
-100.936
 21
-108.24
  0
LINE
  8
0
 10
-100.936
 20
-108.24
 11
-102.809
 21
-106.462
  0
LINE
  8
0
 10
-102.809
 20
-106.462
 11
-104.652
 21
-104.652
  0
LINE
  8
0
 10
-104.652
 20
-104.652
 11
-106.462
 21
-102.809
  0
LINE
  8
0
 10
-106.462
 20
-102.809
 11
-108.24
 21
-100.936
  0
LINE
  8
0
 10
-108.24
 20
-100.936
 11
-109.985
 21
-99.0313
  0
LINE
  8
0
 10
-109.985
 20
-99.0313
 11
-111.697
 21
-97.0967
  0
LINE
  8
0
 10
-111.697
 20
-97.0967
 11
-113.375
 21
-95.1326
  0
LINE
  8
0
 10
-113.375
 20
-95.1326
 11
-115.018
 21
-93.1394
  0
LINE
  8
0
 10
-115.018
 20
-93.1394
 11
-116.626
 21
-91.1179
  0
LINE
  8
0
 10
-116.626
 20
-91.1179
 11
-118.198
 21
-89.0686
  0
LINE
  8
0
 10
-118.198
 20
-89.0686
 11
-119.735
 21
-86.9922
  0
LINE
  8
0
 10
-119.735
 20
-86.9922
 11
-121.234
 21
-84.8893
  0
LINE
  8
0
 10
-121.234
 20
-84.8893
 11
-122.698
 21
-82.7605
  0
LINE
  8
0
 10
-122.698
 20
-82.7605
 11
-124.123
 21
-80.6066
  0
LINE
  8
0
 10
-124.123
 20
-80.6066
 11
-125.511
 21
-78.428
  0
LINE
  8
0
 10
-125.511
 20
-78.428
 11
-126.861
 21
-76.2256
  0
LINE
  8
0
 10
-126.861
 20
-76.2256
 11
-128.172
 21
-74
  0
LINE
  8
0
 10
-128.172
 20
-74
 11
-129.444
 21
-71.7518
  0
LINE
  8
0
 10
-129.444
 20
-71.7518
 11
-130.676
 21
-69.4818
  0
LINE
  8
0
 10
-130.676
 20
-69.4818
 11
-131.869
 21
-67.1906
  0
LINE
  8
0
 10
-131.869
 20
-67.1906
 11
-133.022
 21
-64.8789
  0
LINE
  8
0
 10
-133.022
 20
-64.8789
 11
-134.134
 21
-62.5475
  0
LINE
  8
0
 10
-134.134
 20
-62.5475
 11
-135.205
 21
-60.197
  0
LINE
  8
0
 10
-135.205
 20
-60.197
 11
-136.235
 21
-57.8282
  0
LINE
  8
0
 10
-136.235
 20
-57.8282
 11
-137.223
 21
-55.4418
  0
LINE
  8
0
 10
-137.223
 20
-55.4418
 11
-138.17
 21
-53.0385
  0
LINE
  8
0
 10
-138.17
 20
-53.0385
 11
-139.074
 21
-50.619
  0
LINE
  8
0
 10
-139.074
 20
-50.619
 11
-139.937
 21
-48.1841
  0
LINE
  8
0
 10
-139.937
 20
-48.1841
 11
-140.756
 21
-45.7345
  0
LINE
  8
0
 10
-140.756
 20
-45.7345
 11
-141.533
 21
-43.271
  0
LINE
  8
0
 10
-141.533
 20
-43.271
 11
-142.267
 21
-40.7943
  0
LINE
  8
0
 10
-142.267
 20
-40.7943
 11
-142.957
 21
-38.3052
  0
LINE
  8
0
 10
-142.957
 20
-38.3052
 11
-143.604
 21
-35.8044
  0
LINE
  8
0
 10
-143.604
 20
-35.8044
 11
-144.207
 21
-33.2928
  0
LINE
  8
0
 10
-144.207
 20
-33.2928
 11
-144.766
 21
-30.7709
  0
LINE
  8
0
 10
-144.766
 20
-30.7709
 11
-145.281
 21
-28.2397
  0
LINE
  8
0
 10
-145.281
 20
-28.2397
 11
-145.752
 21
-25.6999
  0
LINE
  8
0
 10
-145.752
 20
-25.6999
 11
-146.178
 21
-23.1523
  0
LINE
  8
0
 10
-146.178
 20
-23.1523
 11
-146.56
 21
-20.5976
  0
LINE
  8
0
 10
-146.56
 20
-20.5976
 11
-146.897
 21
-18.0367
  0
LINE
  8
0
 10
-146.897
 20
-18.0367
 11
-147.189
 21
-15.4702
  0
LINE
  8
0
 10
-147.189
 20
-15.4702
 11
-147.437
 21
-12.899
  0
LINE
  8
0
 10
-147.437
 20
-12.899
 11
-147.639
 21
-10.3239
  0
LINE
  8
0
 10
-147.639
 20
-10.3239
 11
-147.797
 21
-7.74571
  0
LINE
  8
0
 10
-147.797
 20
-7.74571
 11
-147.91
 21
-5.16512
  0
LINE
  8
0
 10
-147.91
 20
-5.16512
 11
-147.977
 21
-2.58295
  0
LINE
  8
0
 10
-147.977
 20
-2.58295
 11
-148
 21
0
  0
LINE
  8
0
 10
-148
 20
0
 11
-147.977
 21
2.58295
  0
LINE
  8
0
 10
-147.977
 20
2.58295
 11
-147.91
 21
5.16512
  0
LINE
  8
0
 10
-147.91
 20
5.16512
 11
-147.797
 21
7.74571
  0
LINE
  8
0
 10
-147.797
 20
7.74571
 11
-147.639
 21
10.3239
  0
LINE
  8
0
 10
-147.639
 20
10.3239
 11
-147.437
 21
12.899
  0
LINE
  8
0
 10
-147.437
 20
12.899
 11
-147.189
 21
15.4702
  0
LINE
  8
0
 10
-147.189
 20
15.4702
 11
-146.897
 21
18.0367
  0
LINE
  8
0
 10
-146.897
 20
18.0367
 11
-146.56
 21
20.5976
  0
LINE
  8
0
 10
-146.56
 20
20.5976
 11
-146.178
 21
23.1523
  0
LINE
  8
0
 10
-146.178
 20
23.1523
 11
-145.752
 21
25.6999
  0
LINE
  8
0
 10
-145.752
 20
25.6999
 11
-145.281
 21
28.2397
  0
LINE
  8
0
 10
-145.281
 20
28.2397
 11
-144.766
 21
30.7709
  0
LINE
  8
0
 10
-144.766
 20
30.7709
 11
-144.207
 21
33.2928
  0
LINE
  8
0
 10
-144.207
 20
33.2928
 11
-143.604
 21
35.8044
  0
LINE
  8
0
 10
-143.604
 20
35.8044
 11
-142.957
 21
38.3052
  0
LINE
  8
0
 10
-142.957
 20
38.3052
 11
-142.267
 21
40.7943
  0
LINE
  8
0
 10
-142.267
 20
40.7943
 11
-141.533
 21
43.271
  0
LINE
  8
0
 10
-141.533
 20
43.271
 11
-140.756
 21
45.7345
  0
LINE
  8
0
 10
-140.756
 20
45.7345
 11
-139.937
 21
48.1841
  0
LINE
  8
0
 10
-139.937
 20
48.1841
 11
-139.074
 21
50.619
  0
LINE
  8
0
 10
-139.074
 20
50.619
 11
-138.17
 21
53.0385
  0
LINE
  8
0
 10
-138.17
 20
53.0385
 11
-137.223
 21
55.4418
  0
LINE
  8
0
 10
-137.223
 20
55.4418
 11
-136.235
 21
57.8282
  0
LINE
  8
0
 10
-136.235
 20
57.8282
 11
-135.205
 21
60.197
  0
LINE
  8
0
 10
-135.205
 20
60.197
 11
-134.134
 21
62.5475
  0
LINE
  8
0
 10
-134.134
 20
62.5475
 11
-133.022
 21
64.8789
  0
LINE
  8
0
 10
-133.022
 20
64.8789
 11
-131.869
 21
67.1906
  0
LINE
  8
0
 10
-131.869
 20
67.1906
 11
-130.676
 21
69.4818
  0
LINE
  8
0
 10
-130.676
 20
69.4818
 11
-129.444
 21
71.7518
  0
LINE
  8
0
 10
-129.444
 20
71.7518
 11
-128.172
 21
74
  0
LINE
  8
0
 10
-128.172
 20
74
 11
-126.861
 21
76.2256
  0
LINE
  8
0
 10
-126.861
 20
76.2256
 11
-125.511
 21
78.428
  0
LINE
  8
0
 10
-125.511
 20
78.428
 11
-124.123
 21
80.6066
  0
LINE
  8
0
 10
-124.123
 20
80.6066
 11
-122.698
 21
82.7605
  0
LINE
  8
0
 10
-122.698
 20
82.7605
 11
-121.234
 21
84.8893
  0
LINE
  8
0
 10
-121.234
 20
84.8893
 11
-119.735
 21
86.9922
  0
LINE
  8
0
 10
-119.735
 20
86.9922
 11
-118.198
 21
89.0686
  0
LINE
  8
0
 10
-118.198
 20
89.0686
 11
-116.626
 21
91.1179
  0
LINE
  8
0
 10
-116.626
 20
91.1179
 11
-115.018
 21
93.1394
  0
LINE
  8
0
 10
-115.018
 20
93.1394
 11
-113.375
 21
95.1326
  0
LINE
  8
0
 10
-113.375
 20
95.1326
 11
-111.697
 21
97.0967
  0
LINE
  8
0
 10
-111.697
 20
97.0967
 11
-109.985
 21
99.0313
  0
LINE
  8
0
 10
-109.985
 20
99.0313
 11
-108.24
 21
100.936
  0
LINE
  8
0
 10
-108.24
 20
100.936
 11
-106.462
 21
102.809
  0
LINE
  8
0
 10
-106.462
 20
102.809
 11
-104.652
 21
104.652
  0
LINE
  8
0
 10
-104.652
 20
104.652
 11
-102.809
 21
106.462
  0
LINE
  8
0
 10
-102.809
 20
106.462
 11
-100.936
 21
108.24
  0
LINE
  8
0
 10
-100.936
 20
108.24
 11
-99.0313
 21
109.985
  0
LINE
  8
0
 10
-99.0313
 20
109.985
 11
-97.0967
 21
111.697
  0
LINE
  8
0
 10
-97.0967
 20
111.697
 11
-95.1326
 21
113.375
  0
LINE
  8
0
 10
-95.1326
 20
113.375
 11
-93.1394
 21
115.018
  0
LINE
  8
0
 10
-93.1394
 20
115.018
 11
-91.1179
 21
116.626
  0
LINE
  8
0
 10
-91.1179
 20
116.626
 11
-89.0686
 21
118.198
  0
LINE
  8
0
 10
-89.0686
 20
118.198
 11
-86.9922
 21
119.735
  0
LINE
  8
0
 10
-86.9922
 20
119.735
 11
-84.8893
 21
121.234
  0
LINE
  8
0
 10
-84.8893
 20
121.234
 11
-82.7605
 21
122.698
  0
LINE
  8
0
 10
-82.7605
 20
122.698
 11
-80.6066
 21
124.123
  0
LINE
  8
0
 10
-80.6066
 20
124.123
 11
-78.428
 21
125.511
  0
LINE
  8
0
 10
-78.428
 20
125.511
 11
-76.2256
 21
126.861
  0
LINE
  8
0
 10
-76.2256
 20
126.861
 11
-74
 21
128.172
  0
LINE
  8
0
 10
-74
 20
128.172
 11
-71.7518
 21
129.444
  0
LINE
  8
0
 10
-71.7518
 20
129.444
 11
-69.4818
 21
130.676
  0
LINE
  8
0
 10
-69.4818
 20
130.676
 11
-67.1906
 21
131.869
  0
LINE
  8
0
 10
-67.1906
 20
131.869
 11
-64.8789
 21
133.022
  0
LINE
  8
0
 10
-64.8789
 20
133.022
 11
-62.5475
 21
134.134
  0
LINE
  8
0
 10
-62.5475
 20
134.134
 11
-60.197
 21
135.205
  0
LINE
  8
0
 10
-60.197
 20
135.205
 11
-57.8282
 21
136.235
  0
LINE
  8
0
 10
-57.8282
 20
136.235
 11
-55.4418
 21
137.223
  0
LINE
  8
0
 10
-55.4418
 20
137.223
 11
-53.0385
 21
138.17
  0
LINE
  8
0
 10
-53.0385
 20
138.17
 11
-50.619
 21
139.074
  0
LINE
  8
0
 10
-50.619
 20
139.074
 11
-48.1841
 21
139.937
  0
LINE
  8
0
 10
-48.1841
 20
139.937
 11
-45.7345
 21
140.756
  0
LINE
  8
0
 10
-45.7345
 20
140.756
 11
-43.271
 21
141.533
  0
LINE
  8
0
 10
-43.271
 20
141.533
 11
-40.7943
 21
142.267
  0
LINE
  8
0
 10
-40.7943
 20
142.267
 11
-38.3052
 21
142.957
  0
LINE
  8
0
 10
-38.3052
 20
142.957
 11
-35.8044
 21
143.604
  0
LINE
  8
0
 10
-35.8044
 20
143.604
 11
-33.2928
 21
144.207
  0
LINE
  8
0
 10
-33.2928
 20
144.207
 11
-30.7709
 21
144.766
  0
LINE
  8
0
 10
-30.7709
 20
144.766
 11
-28.2397
 21
145.281
  0
LINE
  8
0
 10
-28.2397
 20
145.281
 11
-25.6999
 21
145.752
  0
LINE
  8
0
 10
-25.6999
 20
145.752
 11
-23.1523
 21
146.178
  0
LINE
  8
0
 10
-23.1523
 20
146.178
 11
-20.5976
 21
146.56
  0
LINE
  8
0
 10
-20.5976
 20
146.56
 11
-18.0367
 21
146.897
  0
LINE
  8
0
 10
-18.0367
 20
146.897
 11
-15.4702
 21
147.189
  0
LINE
  8
0
 10
-15.4702
 20
147.189
 11
-12.899
 21
147.437
  0
LINE
  8
0
 10
-12.899
 20
147.437
 11
-10.3239
 21
147.639
  0
LINE
  8
0
 10
-10.3239
 20
147.639
 11
-7.74571
 21
147.797
  0
LINE
  8
0
 10
-7.74571
 20
147.797
 11
-5.16512
 21
147.91
  0
LINE
  8
0
 10
-5.16512
 20
147.91
 11
-2.58295
 21
147.977
  0
LINE
  8
0
 10
-2.58295
 20
147.977
 11
0
 21
148
  0
LINE
  8
0
 10
0
 20
148
 11
2.58295
 21
147.977
  0
LINE
  8
0
 10
2.58295
 20
147.977
 11
5.16512
 21
147.91
  0
LINE
  8
0
 10
5.16512
 20
147.91
 11
7.74571
 21
147.797
  0
LINE
  8
0
 10
7.74571
 20
147.797
 11
10.3239
 21
147.639
  0
LINE
  8
0
 10
10.3239
 20
147.639
 11
12.899
 21
147.437
  0
LINE
  8
0
 10
12.899
 20
147.437
 11
15.4702
 21
147.189
  0
LINE
  8
0
 10
15.4702
 20
147.189
 11
18.0367
 21
146.897
  0
LINE
  8
0
 10
18.0367
 20
146.897
 11
20.5976
 21
146.56
  0
LINE
  8
0
 10
20.5976
 20
146.56
 11
23.1523
 21
146.178
  0
LINE
  8
0
 10
23.1523
 20
146.178
 11
25.6999
 21
145.752
  0
LINE
  8
0
 10
25.6999
 20
145.752
 11
28.2397
 21
145.281
  0
LINE
  8
0
 10
28.2397
 20
145.281
 11
30.7709
 21
144.766
  0
LINE
  8
0
 10
30.7709
 20
144.766
 11
33.2928
 21
144.207
  0
LINE
  8
0
 10
33.2928
 20
144.207
 11
35.8044
 21
143.604
  0
LINE
  8
0
 10
35.8044
 20
143.604
 11
38.3052
 21
142.957
  0
LINE
  8
0
 10
38.3052
 20
142.957
 11
40.7943
 21
142.267
  0
LINE
  8
0
 10
40.7943
 20
142.267
 11
43.271
 21
141.533
  0
LINE
  8
0
 10
43.271
 20
141.533
 11
45.7345
 21
140.756
  0
LINE
  8
0
 10
45.7345
 20
140.756
 11
48.1841
 21
139.937
  0
LINE
  8
0
 10
48.1841
 20
139.937
 11
50.619
 21
139.074
  0
LINE
  8
0
 10
50.619
 20
139.074
 11
53.0385
 21
138.17
  0
LINE
  8
0
 10
53.0385
 20
138.17
 11
55.4418
 21
137.223
  0
LINE
  8
0
 10
55.4418
 20
137.223
 11
57.8282
 21
136.235
  0
LINE
  8
0
 10
57.8282
 20
136.235
 11
60.197
 21
135.205
  0
LINE
  8
0
 10
60.197
 20
135.205
 11
62.5475
 21
134.134
  0
LINE
  8
0
 10
62.5475
 20
134.134
 11
64.8789
 21
133.022
  0
LINE
  8
0
 10
64.8789
 20
133.022
 11
67.1906
 21
131.869
  0
LINE
  8
0
 10
67.1906
 20
131.869
 11
69.4818
 21
130.676
  0
LINE
  8
0
 10
69.4818
 20
130.676
 11
71.7518
 21
129.444
  0
LINE
  8
0
 10
71.7518
 20
129.444
 11
74
 21
128.172
  0
LINE
  8
0
 10
74
 20
128.172
 11
76.2256
 21
126.861
  0
LINE
  8
0
 10
76.2256
 20
126.861
 11
78.428
 21
125.511
  0
LINE
  8
0
 10
78.428
 20
125.511
 11
80.6066
 21
124.123
  0
LINE
  8
0
 10
80.6066
 20
124.123
 11
82.7605
 21
122.698
  0
LINE
  8
0
 10
82.7605
 20
122.698
 11
84.8893
 21
121.234
  0
LINE
  8
0
 10
84.8893
 20
121.234
 11
86.9922
 21
119.735
  0
LINE
  8
0
 10
86.9922
 20
119.735
 11
89.0686
 21
118.198
  0
LINE
  8
0
 10
89.0686
 20
118.198
 11
91.1179
 21
116.626
  0
LINE
  8
0
 10
91.1179
 20
116.626
 11
93.1394
 21
115.018
  0
LINE
  8
0
 10
93.1394
 20
115.018
 11
95.1326
 21
113.375
  0
LINE
  8
0
 10
95.1326
 20
113.375
 11
97.0967
 21
111.697
  0
LINE
  8
0
 10
97.0967
 20
111.697
 11
99.0313
 21
109.985
  0
LINE
  8
0
 10
99.0313
 20
109.985
 11
100.936
 21
108.24
  0
LINE
  8
0
 10
100.936
 20
108.24
 11
102.809
 21
106.462
  0
LINE
  8
0
 10
102.809
 20
106.462
 11
104.652
 21
104.652
  0
LINE
  8
0
 10
104.652
 20
104.652
 11
106.462
 21
102.809
  0
LINE
  8
0
 10
106.462
 20
102.809
 11
108.24
 21
100.936
  0
LINE
  8
0
 10
108.24
 20
100.936
 11
109.985
 21
99.0313
  0
LINE
  8
0
 10
109.985
 20
99.0313
 11
111.697
 21
97.0967
  0
LINE
  8
0
 10
111.697
 20
97.0967
 11
113.375
 21
95.1326
  0
LINE
  8
0
 10
113.375
 20
95.1326
 11
115.018
 21
93.1394
  0
LINE
  8
0
 10
115.018
 20
93.1394
 11
116.626
 21
91.1179
  0
LINE
  8
0
 10
116.626
 20
91.1179
 11
118.198
 21
89.0686
  0
LINE
  8
0
 10
118.198
 20
89.0686
 11
119.735
 21
86.9922
  0
LINE
  8
0
 10
119.735
 20
86.9922
 11
121.234
 21
84.8893
  0
LINE
  8
0
 10
121.234
 20
84.8893
 11
122.698
 21
82.7605
  0
LINE
  8
0
 10
122.698
 20
82.7605
 11
124.123
 21
80.6066
  0
LINE
  8
0
 10
124.123
 20
80.6066
 11
125.511
 21
78.428
  0
LINE
  8
0
 10
125.511
 20
78.428
 11
126.861
 21
76.2256
  0
LINE
  8
0
 10
126.861
 20
76.2256
 11
128.172
 21
74
  0
LINE
  8
0
 10
128.172
 20
74
 11
129.444
 21
71.7518
  0
LINE
  8
0
 10
129.444
 20
71.7518
 11
130.676
 21
69.4818
  0
LINE
  8
0
 10
130.676
 20
69.4818
 11
131.869
 21
67.1906
  0
LINE
  8
0
 10
131.869
 20
67.1906
 11
133.022
 21
64.8789
  0
LINE
  8
0
 10
133.022
 20
64.8789
 11
134.134
 21
62.5475
  0
LINE
  8
0
 10
134.134
 20
62.5475
 11
135.205
 21
60.197
  0
LINE
  8
0
 10
135.205
 20
60.197
 11
136.235
 21
57.8282
  0
LINE
  8
0
 10
136.235
 20
57.8282
 11
137.223
 21
55.4418
  0
LINE
  8
0
 10
137.223
 20
55.4418
 11
138.17
 21
53.0385
  0
LINE
  8
0
 10
138.17
 20
53.0385
 11
139.074
 21
50.619
  0
LINE
  8
0
 10
139.074
 20
50.619
 11
139.937
 21
48.1841
  0
LINE
  8
0
 10
139.937
 20
48.1841
 11
140.756
 21
45.7345
  0
LINE
  8
0
 10
140.756
 20
45.7345
 11
141.533
 21
43.271
  0
LINE
  8
0
 10
141.533
 20
43.271
 11
142.267
 21
40.7943
  0
LINE
  8
0
 10
142.267
 20
40.7943
 11
142.957
 21
38.3052
  0
LINE
  8
0
 10
142.957
 20
38.3052
 11
143.604
 21
35.8044
  0
LINE
  8
0
 10
143.604
 20
35.8044
 11
144.207
 21
33.2928
  0
LINE
  8
0
 10
144.207
 20
33.2928
 11
144.766
 21
30.7709
  0
LINE
  8
0
 10
144.766
 20
30.7709
 11
145.281
 21
28.2397
  0
LINE
  8
0
 10
145.281
 20
28.2397
 11
145.752
 21
25.6999
  0
LINE
  8
0
 10
145.752
 20
25.6999
 11
146.178
 21
23.1523
  0
LINE
  8
0
 10
146.178
 20
23.1523
 11
146.56
 21
20.5976
  0
LINE
  8
0
 10
146.56
 20
20.5976
 11
146.897
 21
18.0367
  0
LINE
  8
0
 10
146.897
 20
18.0367
 11
147.189
 21
15.4702
  0
LINE
  8
0
 10
147.189
 20
15.4702
 11
147.437
 21
12.899
  0
LINE
  8
0
 10
147.437
 20
12.899
 11
147.639
 21
10.3239
  0
LINE
  8
0
 10
147.639
 20
10.3239
 11
147.797
 21
7.74571
  0
LINE
  8
0
 10
147.797
 20
7.74571
 11
147.91
 21
5.16512
  0
LINE
  8
0
 10
147.91
 20
5.16512
 11
147.977
 21
2.58295
  0
LINE
  8
0
 10
147.977
 20
2.58295
 11
148
 21
0
  0
LINE
  8
0
 10
148
 20
0
 11
147.977
 21
-2.58295
  0
LINE
  8
0
 10
147.977
 20
-2.58295
 11
147.91
 21
-5.16512
  0
LINE
  8
0
 10
147.91
 20
-5.16512
 11
147.797
 21
-7.74571
  0
LINE
  8
0
 10
147.797
 20
-7.74571
 11
147.639
 21
-10.3239
  0
LINE
  8
0
 10
147.639
 20
-10.3239
 11
147.437
 21
-12.899
  0
LINE
  8
0
 10
147.437
 20
-12.899
 11
147.189
 21
-15.4702
  0
LINE
  8
0
 10
147.189
 20
-15.4702
 11
146.897
 21
-18.0367
  0
LINE
  8
0
 10
146.897
 20
-18.0367
 11
146.56
 21
-20.5976
  0
LINE
  8
0
 10
146.56
 20
-20.5976
 11
146.178
 21
-23.1523
  0
LINE
  8
0
 10
146.178
 20
-23.1523
 11
145.752
 21
-25.6999
  0
LINE
  8
0
 10
145.752
 20
-25.6999
 11
145.281
 21
-28.2397
  0
LINE
  8
0
 10
145.281
 20
-28.2397
 11
144.766
 21
-30.7709
  0
LINE
  8
0
 10
144.766
 20
-30.7709
 11
144.207
 21
-33.2928
  0
LINE
  8
0
 10
144.207
 20
-33.2928
 11
143.604
 21
-35.8044
  0
LINE
  8
0
 10
143.604
 20
-35.8044
 11
142.957
 21
-38.3052
  0
LINE
  8
0
 10
142.957
 20
-38.3052
 11
142.267
 21
-40.7943
  0
LINE
  8
0
 10
142.267
 20
-40.7943
 11
141.533
 21
-43.271
  0
LINE
  8
0
 10
141.533
 20
-43.271
 11
140.756
 21
-45.7345
  0
LINE
  8
0
 10
140.756
 20
-45.7345
 11
139.937
 21
-48.1841
  0
LINE
  8
0
 10
139.937
 20
-48.1841
 11
139.074
 21
-50.619
  0
LINE
  8
0
 10
139.074
 20
-50.619
 11
138.17
 21
-53.0385
  0
LINE
  8
0
 10
138.17
 20
-53.0385
 11
137.223
 21
-55.4418
  0
LINE
  8
0
 10
137.223
 20
-55.4418
 11
136.235
 21
-57.8282
  0
LINE
  8
0
 10
136.235
 20
-57.8282
 11
135.205
 21
-60.197
  0
LINE
  8
0
 10
135.205
 20
-60.197
 11
134.134
 21
-62.5475
  0
LINE
  8
0
 10
134.134
 20
-62.5475
 11
133.022
 21
-64.8789
  0
LINE
  8
0
 10
133.022
 20
-64.8789
 11
131.869
 21
-67.1906
  0
LINE
  8
0
 10
131.869
 20
-67.1906
 11
130.676
 21
-69.4818
  0
LINE
  8
0
 10
130.676
 20
-69.4818
 11
129.444
 21
-71.7518
  0
LINE
  8
0
 10
129.444
 20
-71.7518
 11
128.172
 21
-74
  0
LINE
  8
0
 10
128.172
 20
-74
 11
126.861
 21
-76.2256
  0
LINE
  8
0
 10
126.861
 20
-76.2256
 11
125.511
 21
-78.428
  0
LINE
  8
0
 10
125.511
 20
-78.428
 11
124.123
 21
-80.6066
  0
LINE
  8
0
 10
124.123
 20
-80.6066
 11
122.698
 21
-82.7605
  0
LINE
  8
0
 10
122.698
 20
-82.7605
 11
121.234
 21
-84.8893
  0
LINE
  8
0
 10
121.234
 20
-84.8893
 11
119.735
 21
-86.9922
  0
LINE
  8
0
 10
119.735
 20
-86.9922
 11
118.198
 21
-89.0686
  0
LINE
  8
0
 10
118.198
 20
-89.0686
 11
116.626
 21
-91.1179
  0
LINE
  8
0
 10
116.626
 20
-91.1179
 11
115.018
 21
-93.1394
  0
LINE
  8
0
 10
115.018
 20
-93.1394
 11
113.375
 21
-95.1326
  0
LINE
  8
0
 10
113.375
 20
-95.1326
 11
111.697
 21
-97.0967
  0
LINE
  8
0
 10
111.697
 20
-97.0967
 11
109.985
 21
-99.0313
  0
LINE
  8
0
 10
109.985
 20
-99.0313
 11
108.24
 21
-100.936
  0
LINE
  8
0
 10
108.24
 20
-100.936
 11
106.462
 21
-102.809
  0
LINE
  8
0
 10
106.462
 20
-102.809
 11
104.652
 21
-104.652
  0
LINE
  8
0
 10
104.652
 20
-104.652
 11
102.809
 21
-106.462
  0
LINE
  8
0
 10
102.809
 20
-106.462
 11
100.936
 21
-108.24
  0
LINE
  8
0
 10
100.936
 20
-108.24
 11
99.0313
 21
-109.985
  0
LINE
  8
0
 10
99.0313
 20
-109.985
 11
97.0967
 21
-111.697
  0
LINE
  8
0
 10
97.0967
 20
-111.697
 11
95.1326
 21
-113.375
  0
LINE
  8
0
 10
95.1326
 20
-113.375
 11
93.1394
 21
-115.018
  0
LINE
  8
0
 10
93.1394
 20
-115.018
 11
91.1179
 21
-116.626
  0
LINE
  8
0
 10
91.1179
 20
-116.626
 11
89.0686
 21
-118.198
  0
LINE
  8
0
 10
89.0686
 20
-118.198
 11
86.9922
 21
-119.735
  0
LINE
  8
0
 10
86.9922
 20
-119.735
 11
84.8893
 21
-121.234
  0
LINE
  8
0
 10
84.8893
 20
-121.234
 11
82.7605
 21
-122.698
  0
LINE
  8
0
 10
82.7605
 20
-122.698
 11
80.6066
 21
-124.123
  0
LINE
  8
0
 10
80.6066
 20
-124.123
 11
78.428
 21
-125.511
  0
LINE
  8
0
 10
78.428
 20
-125.511
 11
76.2256
 21
-126.861
  0
LINE
  8
0
 10
76.2256
 20
-126.861
 11
74
 21
-128.172
  0
LINE
  8
0
 10
74
 20
-128.172
 11
71.7518
 21
-129.444
  0
LINE
  8
0
 10
71.7518
 20
-129.444
 11
69.4818
 21
-130.676
  0
LINE
  8
0
 10
69.4818
 20
-130.676
 11
67.1906
 21
-131.869
  0
LINE
  8
0
 10
67.1906
 20
-131.869
 11
64.8789
 21
-133.022
  0
LINE
  8
0
 10
64.8789
 20
-133.022
 11
62.5475
 21
-134.134
  0
LINE
  8
0
 10
62.5475
 20
-134.134
 11
60.197
 21
-135.205
  0
LINE
  8
0
 10
60.197
 20
-135.205
 11
57.8282
 21
-136.235
  0
LINE
  8
0
 10
57.8282
 20
-136.235
 11
55.4418
 21
-137.223
  0
LINE
  8
0
 10
55.4418
 20
-137.223
 11
53.0385
 21
-138.17
  0
LINE
  8
0
 10
53.0385
 20
-138.17
 11
50.619
 21
-139.074
  0
LINE
  8
0
 10
50.619
 20
-139.074
 11
48.1841
 21
-139.937
  0
LINE
  8
0
 10
48.1841
 20
-139.937
 11
45.7345
 21
-140.756
  0
LINE
  8
0
 10
45.7345
 20
-140.756
 11
43.271
 21
-141.533
  0
LINE
  8
0
 10
43.271
 20
-141.533
 11
40.7943
 21
-142.267
  0
LINE
  8
0
 10
40.7943
 20
-142.267
 11
38.3052
 21
-142.957
  0
LINE
  8
0
 10
38.3052
 20
-142.957
 11
35.8044
 21
-143.604
  0
LINE
  8
0
 10
35.8044
 20
-143.604
 11
33.2928
 21
-144.207
  0
LINE
  8
0
 10
33.2928
 20
-144.207
 11
30.7709
 21
-144.766
  0
LINE
  8
0
 10
30.7709
 20
-144.766
 11
28.2397
 21
-145.281
  0
LINE
  8
0
 10
28.2397
 20
-145.281
 11
25.6999
 21
-145.752
  0
LINE
  8
0
 10
25.6999
 20
-145.752
 11
23.1523
 21
-146.178
  0
LINE
  8
0
 10
23.1523
 20
-146.178
 11
20.5976
 21
-146.56
  0
LINE
  8
0
 10
20.5976
 20
-146.56
 11
18.0367
 21
-146.897
  0
LINE
  8
0
 10
18.0367
 20
-146.897
 11
15.4702
 21
-147.189
  0
LINE
  8
0
 10
15.4702
 20
-147.189
 11
12.899
 21
-147.437
  0
LINE
  8
0
 10
12.899
 20
-147.437
 11
10.3239
 21
-147.639
  0
LINE
  8
0
 10
10.3239
 20
-147.639
 11
7.74571
 21
-147.797
  0
LINE
  8
0
 10
7.74571
 20
-147.797
 11
5.16512
 21
-147.91
  0
LINE
  8
0
 10
5.16512
 20
-147.91
 11
2.58295
 21
-147.977
  0
LINE
  8
0
 10
2.58295
 20
-147.977
 11
0
 21
-148
  0
LINE
  8
0
 10
0
 20
-148
 11
-2.58295
 21
-147.977
  0
LINE
  8
0
 10
-60.8113
 20
143.084
 11
-59.89
 21
144.587
  0
LINE
  8
0
 10
-59.89
 20
144.587
 11
-58.1753
 21
144.175
  0
LINE
  8
0
 10
-58.1753
 20
144.175
 11
-58.037
 21
142.418
  0
LINE
  8
0
 10
-58.037
 20
142.418
 11
-59.6661
 21
141.743
  0
LINE
  8
0
 10
-59.6661
 20
141.743
 11
-60.8113
 21
143.084
  0
LINE
  8
0
 10
58.037
 20
142.418
 11
58.1753
 21
144.175
  0
LINE
  8
0
 10
58.1753
 20
144.175
 11
59.8899
 21
144.587
  0
LINE
  8
0
 10
59.8899
 20
144.587
 11
60.8113
 21
143.084
  0
LINE
  8
0
 10
60.8113
 20
143.084
 11
59.6661
 21
141.743
  0
LINE
  8
0
 10
59.6661
 20
141.743
 11
58.037
 21
142.418
  0
LINE
  8
0
 10
-140.787
 20
136.084
 11
-141.538
 21
136.312
  0
LINE
  8
0
 10
-141.538
 20
136.312
 11
-142.229
 21
136.681
  0
LINE
  8
0
 10
-142.229
 20
136.681
 11
-142.836
 21
137.179
  0
LINE
  8
0
 10
-142.836
 20
137.179
 11
-143.333
 21
137.785
  0
LINE
  8
0
 10
-143.333
 20
137.785
 11
-143.703
 21
138.476
  0
LINE
  8
0
 10
-143.703
 20
138.476
 11
-143.93
 21
139.227
  0
LINE
  8
0
 10
-143.93
 20
139.227
 11
-144.007
 21
140.007
  0
LINE
  8
0
 10
-144.007
 20
140.007
 11
-143.93
 21
140.787
  0
LINE
  8
0
 10
-143.93
 20
140.787
 11
-143.703
 21
141.538
  0
LINE
  8
0
 10
-143.703
 20
141.538
 11
-143.333
 21
142.229
  0
LINE
  8
0
 10
-143.333
 20
142.229
 11
-142.836
 21
142.836
  0
LINE
  8
0
 10
-142.836
 20
142.836
 11
-142.229
 21
143.333
  0
LINE
  8
0
 10
-142.229
 20
143.333
 11
-141.538
 21
143.703
  0
LINE
  8
0
 10
-141.538
 20
143.703
 11
-140.787
 21
143.93
  0
LINE
  8
0
 10
-140.787
 20
143.93
 11
-140.007
 21
144.007
  0
LINE
  8
0
 10
-140.007
 20
144.007
 11
-139.227
 21
143.93
  0
LINE
  8
0
 10
-139.227
 20
143.93
 11
-138.476
 21
143.703
  0
LINE
  8
0
 10
-138.476
 20
143.703
 11
-137.785
 21
143.333
  0
LINE
  8
0
 10
-137.785
 20
143.333
 11
-137.179
 21
142.836
  0
LINE
  8
0
 10
-137.179
 20
142.836
 11
-136.681
 21
142.229
  0
LINE
  8
0
 10
-136.681
 20
142.229
 11
-136.312
 21
141.538
  0
LINE
  8
0
 10
-136.312
 20
141.538
 11
-136.084
 21
140.787
  0
LINE
  8
0
 10
-136.084
 20
140.787
 11
-136.007
 21
140.007
  0
LINE
  8
0
 10
-136.007
 20
140.007
 11
-136.084
 21
139.227
  0
LINE
  8
0
 10
-136.084
 20
139.227
 11
-136.312
 21
138.476
  0
LINE
  8
0
 10
-136.312
 20
138.476
 11
-136.681
 21
137.785
  0
LINE
  8
0
 10
-136.681
 20
137.785
 11
-137.179
 21
137.179
  0
LINE
  8
0
 10
-137.179
 20
137.179
 11
-137.785
 21
136.681
  0
LINE
  8
0
 10
-137.785
 20
136.681
 11
-138.476
 21
136.312
  0
LINE
  8
0
 10
-138.476
 20
136.312
 11
-139.227
 21
136.084
  0
LINE
  8
0
 10
-139.227
 20
136.084
 11
-140.007
 21
136.007
  0
LINE
  8
0
 10
-140.007
 20
136.007
 11
-140.787
 21
136.084
  0
LINE
  8
0
 10
139.227
 20
136.084
 11
138.476
 21
136.312
  0
LINE
  8
0
 10
138.476
 20
136.312
 11
137.785
 21
136.681
  0
LINE
  8
0
 10
137.785
 20
136.681
 11
137.179
 21
137.179
  0
LINE
  8
0
 10
137.179
 20
137.179
 11
136.681
 21
137.785
  0
LINE
  8
0
 10
136.681
 20
137.785
 11
136.312
 21
138.476
  0
LINE
  8
0
 10
136.312
 20
138.476
 11
136.084
 21
139.227
  0
LINE
  8
0
 10
136.084
 20
139.227
 11
136.007
 21
140.007
  0
LINE
  8
0
 10
136.007
 20
140.007
 11
136.084
 21
140.787
  0
LINE
  8
0
 10
136.084
 20
140.787
 11
136.312
 21
141.538
  0
LINE
  8
0
 10
136.312
 20
141.538
 11
136.681
 21
142.229
  0
LINE
  8
0
 10
136.681
 20
142.229
 11
137.179
 21
142.836
  0
LINE
  8
0
 10
137.179
 20
142.836
 11
137.785
 21
143.333
  0
LINE
  8
0
 10
137.785
 20
143.333
 11
138.476
 21
143.703
  0
LINE
  8
0
 10
138.476
 20
143.703
 11
139.227
 21
143.93
  0
LINE
  8
0
 10
139.227
 20
143.93
 11
140.007
 21
144.007
  0
LINE
  8
0
 10
140.007
 20
144.007
 11
140.787
 21
143.93
  0
LINE
  8
0
 10
140.787
 20
143.93
 11
141.538
 21
143.703
  0
LINE
  8
0
 10
141.538
 20
143.703
 11
142.229
 21
143.333
  0
LINE
  8
0
 10
142.229
 20
143.333
 11
142.836
 21
142.836
  0
LINE
  8
0
 10
142.836
 20
142.836
 11
143.333
 21
142.229
  0
LINE
  8
0
 10
143.333
 20
142.229
 11
143.703
 21
141.538
  0
LINE
  8
0
 10
143.703
 20
141.538
 11
143.93
 21
140.787
  0
LINE
  8
0
 10
143.93
 20
140.787
 11
144.007
 21
140.007
  0
LINE
  8
0
 10
144.007
 20
140.007
 11
143.93
 21
139.227
  0
LINE
  8
0
 10
143.93
 20
139.227
 11
143.703
 21
138.476
  0
LINE
  8
0
 10
143.703
 20
138.476
 11
143.333
 21
137.785
  0
LINE
  8
0
 10
143.333
 20
137.785
 11
142.836
 21
137.179
  0
LINE
  8
0
 10
142.836
 20
137.179
 11
142.229
 21
136.681
  0
LINE
  8
0
 10
142.229
 20
136.681
 11
141.538
 21
136.312
  0
LINE
  8
0
 10
141.538
 20
136.312
 11
140.787
 21
136.084
  0
LINE
  8
0
 10
140.787
 20
136.084
 11
140.007
 21
136.007
  0
LINE
  8
0
 10
140.007
 20
136.007
 11
139.227
 21
136.084
  0
LINE
  8
0
 10
109.028
 20
108.216
 11
108.541
 21
108.541
  0
LINE
  8
0
 10
108.541
 20
108.541
 11
108.216
 21
109.028
  0
LINE
  8
0
 10
108.216
 20
109.028
 11
108.102
 21
109.602
  0
LINE
  8
0
 10
108.102
 20
109.602
 11
108.216
 21
110.176
  0
LINE
  8
0
 10
108.216
 20
110.176
 11
108.541
 21
110.662
  0
LINE
  8
0
 10
108.541
 20
110.662
 11
126.219
 21
128.34
  0
LINE
  8
0
 10
126.219
 20
128.34
 11
126.705
 21
128.665
  0
LINE
  8
0
 10
126.705
 20
128.665
 11
127.279
 21
128.779
  0
LINE
  8
0
 10
127.279
 20
128.779
 11
127.853
 21
128.665
  0
LINE
  8
0
 10
127.853
 20
128.665
 11
128.34
 21
128.34
  0
LINE
  8
0
 10
128.34
 20
128.34
 11
128.665
 21
127.853
  0
LINE
  8
0
 10
128.665
 20
127.853
 11
128.779
 21
127.279
  0
LINE
  8
0
 10
128.779
 20
127.279
 11
128.665
 21
126.705
  0
LINE
  8
0
 10
128.665
 20
126.705
 11
128.34
 21
126.219
  0
LINE
  8
0
 10
128.34
 20
126.219
 11
110.662
 21
108.541
  0
LINE
  8
0
 10
110.662
 20
108.541
 11
110.176
 21
108.216
  0
LINE
  8
0
 10
110.176
 20
108.216
 11
109.602
 21
108.102
  0
LINE
  8
0
 10
109.602
 20
108.102
 11
109.028
 21
108.216
  0
LINE
  8
0
 10
-110.176
 20
108.216
 11
-110.662
 21
108.541
  0
LINE
  8
0
 10
-110.662
 20
108.541
 11
-128.34
 21
126.219
  0
LINE
  8
0
 10
-128.34
 20
126.219
 11
-128.665
 21
126.705
  0
LINE
  8
0
 10
-128.665
 20
126.705
 11
-128.779
 21
127.279
  0
LINE
  8
0
 10
-128.779
 20
127.279
 11
-128.665
 21
127.853
  0
LINE
  8
0
 10
-128.665
 20
127.853
 11
-128.34
 21
128.34
  0
LINE
  8
0
 10
-128.34
 20
128.34
 11
-127.853
 21
128.665
  0
LINE
  8
0
 10
-127.853
 20
128.665
 11
-127.279
 21
128.779
  0
LINE
  8
0
 10
-127.279
 20
128.779
 11
-126.705
 21
128.665
  0
LINE
  8
0
 10
-126.705
 20
128.665
 11
-126.219
 21
128.34
  0
LINE
  8
0
 10
-126.219
 20
128.34
 11
-108.541
 21
110.662
  0
LINE
  8
0
 10
-108.541
 20
110.662
 11
-108.216
 21
110.176
  0
LINE
  8
0
 10
-108.216
 20
110.176
 11
-108.102
 21
109.602
  0
LINE
  8
0
 10
-108.102
 20
109.602
 11
-108.216
 21
109.028
  0
LINE
  8
0
 10
-108.216
 20
109.028
 11
-108.541
 21
108.541
  0
LINE
  8
0
 10
-108.541
 20
108.541
 11
-109.028
 21
108.216
  0
LINE
  8
0
 10
-109.028
 20
108.216
 11
-109.602
 21
108.102
  0
LINE
  8
0
 10
-109.602
 20
108.102
 11
-110.176
 21
108.216
  0
LINE
  8
0
 10
-134.984
 20
76.201
 11
-156.635
 21
88.701
  0
LINE
  8
0
 10
-156.635
 20
88.701
 11
-157.075
 21
89.0869
  0
LINE
  8
0
 10
-157.075
 20
89.0869
 11
-157.333
 21
89.6118
  0
LINE
  8
0
 10
-157.333
 20
89.6118
 11
-157.372
 21
90.1958
  0
LINE
  8
0
 10
-157.372
 20
90.1958
 11
-157.184
 21
90.75
  0
LINE
  8
0
 10
-157.184
 20
90.75
 11
-156.798
 21
91.19
  0
LINE
  8
0
 10
-156.798
 20
91.19
 11
-156.273
 21
91.4489
  0
LINE
  8
0
 10
-156.273
 20
91.4489
 11
-155.689
 21
91.4872
  0
LINE
  8
0
 10
-155.689
 20
91.4872
 11
-155.135
 21
91.299
  0
LINE
  8
0
 10
-155.135
 20
91.299
 11
-133.484
 21
78.799
  0
LINE
  8
0
 10
-133.484
 20
78.799
 11
-133.044
 21
78.4131
  0
LINE
  8
0
 10
-133.044
 20
78.4131
 11
-132.785
 21
77.8882
  0
LINE
  8
0
 10
-132.785
 20
77.8882
 11
-132.747
 21
77.3042
  0
LINE
  8
0
 10
-132.747
 20
77.3042
 11
-132.935
 21
76.75
  0
LINE
  8
0
 10
-132.935
 20
76.75
 11
-133.321
 21
76.31
  0
LINE
  8
0
 10
-133.321
 20
76.31
 11
-133.846
 21
76.0511
  0
LINE
  8
0
 10
-133.846
 20
76.0511
 11
-134.43
 21
76.0128
  0
LINE
  8
0
 10
-134.43
 20
76.0128
 11
-134.984
 21
76.201
  0
LINE
  8
0
 10
133.846
 20
76.0511
 11
133.321
 21
76.31
  0
LINE
  8
0
 10
133.321
 20
76.31
 11
132.935
 21
76.75
  0
LINE
  8
0
 10
132.935
 20
76.75
 11
132.747
 21
77.3042
  0
LINE
  8
0
 10
132.747
 20
77.3042
 11
132.785
 21
77.8882
  0
LINE
  8
0
 10
132.785
 20
77.8882
 11
133.044
 21
78.4131
  0
LINE
  8
0
 10
133.044
 20
78.4131
 11
133.484
 21
78.799
  0
LINE
  8
0
 10
133.484
 20
78.799
 11
155.135
 21
91.299
  0
LINE
  8
0
 10
155.135
 20
91.299
 11
155.689
 21
91.4872
  0
LINE
  8
0
 10
155.689
 20
91.4872
 11
156.273
 21
91.4489
  0
LINE
  8
0
 10
156.273
 20
91.4489
 11
156.798
 21
91.19
  0
LINE
  8
0
 10
156.798
 20
91.19
 11
157.184
 21
90.75
  0
LINE
  8
0
 10
157.184
 20
90.75
 11
157.372
 21
90.1958
  0
LINE
  8
0
 10
157.372
 20
90.1958
 11
157.333
 21
89.6118
  0
LINE
  8
0
 10
157.333
 20
89.6118
 11
157.075
 21
89.0869
  0
LINE
  8
0
 10
157.075
 20
89.0869
 11
156.635
 21
88.701
  0
LINE
  8
0
 10
156.635
 20
88.701
 11
134.984
 21
76.201
  0
LINE
  8
0
 10
134.984
 20
76.201
 11
134.43
 21
76.0128
  0
LINE
  8
0
 10
134.43
 20
76.0128
 11
133.846
 21
76.0511
  0
LINE
  8
0
 10
169.459
 20
71.1466
 11
170.8
 21
72.2918
  0
LINE
  8
0
 10
170.8
 20
72.2918
 11
172.304
 21
71.3705
  0
LINE
  8
0
 10
172.304
 20
71.3705
 11
171.892
 21
69.6558
  0
LINE
  8
0
 10
171.892
 20
69.6558
 11
170.134
 21
69.5175
  0
LINE
  8
0
 10
170.134
 20
69.5175
 11
169.459
 21
71.1466
  0
LINE
  8
0
 10
-171.892
 20
69.6558
 11
-172.304
 21
71.3705
  0
LINE
  8
0
 10
-172.304
 20
71.3705
 11
-170.8
 21
72.2918
  0
LINE
  8
0
 10
-170.8
 20
72.2918
 11
-169.459
 21
71.1466
  0
LINE
  8
0
 10
-169.459
 20
71.1466
 11
-170.134
 21
69.5175
  0
LINE
  8
0
 10
-170.134
 20
69.5175
 11
-171.892
 21
69.6558
  0
LINE
  8
0
 10
151.866
 20
64.5286
 11
161.105
 21
68.3554
  0
LINE
  8
0
 10
161.105
 20
68.3554
 11
162.253
 21
65.5838
  0
LINE
  8
0
 10
162.253
 20
65.5838
 11
153.014
 21
61.7569
  0
LINE
  8
0
 10
153.014
 20
61.7569
 11
151.866
 21
64.5286
  0
LINE
  8
0
 10
-162.253
 20
65.5838
 11
-161.105
 21
68.3554
  0
LINE
  8
0
 10
-161.105
 20
68.3554
 11
-151.866
 21
64.5286
  0
LINE
  8
0
 10
-151.866
 20
64.5286
 11
-153.014
 21
61.7569
  0
LINE
  8
0
 10
-153.014
 20
61.7569
 11
-162.253
 21
65.5838
  0
LINE
  8
0
 10
-144.175
 20
58.1753
 11
-144.587
 21
59.8899
  0
LINE
  8
0
 10
-144.587
 20
59.8899
 11
-143.084
 21
60.8113
  0
LINE
  8
0
 10
-143.084
 20
60.8113
 11
-141.743
 21
59.6661
  0
LINE
  8
0
 10
-141.743
 20
59.6661
 11
-142.418
 21
58.037
  0
LINE
  8
0
 10
-142.418
 20
58.037
 11
-144.175
 21
58.1753
  0
LINE
  8
0
 10
141.743
 20
59.6661
 11
143.084
 21
60.8113
  0
LINE
  8
0
 10
143.084
 20
60.8113
 11
144.587
 21
59.89
  0
LINE
  8
0
 10
144.587
 20
59.89
 11
144.175
 21
58.1753
  0
LINE
  8
0
 10
144.175
 20
58.1753
 11
142.418
 21
58.037
  0
LINE
  8
0
 10
142.418
 20
58.037
 11
141.743
 21
59.6661
  0
LINE
  8
0
 10
148.968
 20
38.8179
 11
148.528
 21
39.2038
  0
LINE
  8
0
 10
148.528
 20
39.2038
 11
148.27
 21
39.7287
  0
LINE
  8
0
 10
148.27
 20
39.7287
 11
148.231
 21
40.3127
  0
LINE
  8
0
 10
148.231
 20
40.3127
 11
148.419
 21
40.8669
  0
LINE
  8
0
 10
148.419
 20
40.8669
 11
148.805
 21
41.307
  0
LINE
  8
0
 10
148.805
 20
41.307
 11
149.33
 21
41.5658
  0
LINE
  8
0
 10
149.33
 20
41.5658
 11
173.478
 21
48.0363
  0
LINE
  8
0
 10
173.478
 20
48.0363
 11
174.062
 21
48.0746
  0
LINE
  8
0
 10
174.062
 20
48.0746
 11
174.617
 21
47.8865
  0
LINE
  8
0
 10
174.617
 20
47.8865
 11
175.057
 21
47.5006
  0
LINE
  8
0
 10
175.057
 20
47.5006
 11
175.316
 21
46.9756
  0
LINE
  8
0
 10
175.316
 20
46.9756
 11
175.354
 21
46.3916
  0
LINE
  8
0
 10
175.354
 20
46.3916
 11
175.166
 21
45.8374
  0
LINE
  8
0
 10
175.166
 20
45.8374
 11
174.78
 21
45.3974
  0
LINE
  8
0
 10
174.78
 20
45.3974
 11
174.255
 21
45.1385
  0
LINE
  8
0
 10
174.255
 20
45.1385
 11
150.107
 21
38.6681
  0
LINE
  8
0
 10
150.107
 20
38.6681
 11
149.523
 21
38.6298
  0
LINE
  8
0
 10
149.523
 20
38.6298
 11
148.968
 21
38.8179
  0
LINE
  8
0
 10
-150.107
 20
38.6681
 11
-174.255
 21
45.1385
  0
LINE
  8
0
 10
-174.255
 20
45.1385
 11
-174.78
 21
45.3974
  0
LINE
  8
0
 10
-174.78
 20
45.3974
 11
-175.166
 21
45.8374
  0
LINE
  8
0
 10
-175.166
 20
45.8374
 11
-175.354
 21
46.3916
  0
LINE
  8
0
 10
-175.354
 20
46.3916
 11
-175.316
 21
46.9756
  0
LINE
  8
0
 10
-175.316
 20
46.9756
 11
-175.057
 21
47.5006
  0
LINE
  8
0
 10
-175.057
 20
47.5006
 11
-174.617
 21
47.8865
  0
LINE
  8
0
 10
-174.617
 20
47.8865
 11
-174.062
 21
48.0746
  0
LINE
  8
0
 10
-174.062
 20
48.0746
 11
-173.478
 21
48.0363
  0
LINE
  8
0
 10
-173.478
 20
48.0363
 11
-149.33
 21
41.5658
  0
LINE
  8
0
 10
-149.33
 20
41.5658
 11
-148.805
 21
41.307
  0
LINE
  8
0
 10
-148.805
 20
41.307
 11
-148.419
 21
40.8669
  0
LINE
  8
0
 10
-148.419
 20
40.8669
 11
-148.231
 21
40.3127
  0
LINE
  8
0
 10
-148.231
 20
40.3127
 11
-148.27
 21
39.7287
  0
LINE
  8
0
 10
-148.27
 20
39.7287
 11
-148.528
 21
39.2038
  0
LINE
  8
0
 10
-148.528
 20
39.2038
 11
-148.968
 21
38.8179
  0
LINE
  8
0
 10
-148.968
 20
38.8179
 11
-149.523
 21
38.6298
  0
LINE
  8
0
 10
-149.523
 20
38.6298
 11
-150.107
 21
38.6681
  0
LINE
  8
0
 10
-198.78
 20
-3.92313
 11
-199.531
 21
-3.69551
  0
LINE
  8
0
 10
-199.531
 20
-3.69551
 11
-200.222
 21
-3.32587
  0
LINE
  8
0
 10
-200.222
 20
-3.32587
 11
-200.828
 21
-2.82841
  0
LINE
  8
0
 10
-200.828
 20
-2.82841
 11
-201.326
 21
-2.22227
  0
LINE
  8
0
 10
-201.326
 20
-2.22227
 11
-201.696
 21
-1.53073
  0
LINE
  8
0
 10
-201.696
 20
-1.53073
 11
-201.923
 21
-0.78035
  0
LINE
  8
0
 10
-201.923
 20
-0.78035
 11
-202
 21
0
  0
LINE
  8
0
 10
-202
 20
0
 11
-201.923
 21
0.78035
  0
LINE
  8
0
 10
-201.923
 20
0.78035
 11
-201.696
 21
1.53073
  0
LINE
  8
0
 10
-201.696
 20
1.53073
 11
-201.326
 21
2.22227
  0
LINE
  8
0
 10
-201.326
 20
2.22227
 11
-200.828
 21
2.82841
  0
LINE
  8
0
 10
-200.828
 20
2.82841
 11
-200.222
 21
3.32587
  0
LINE
  8
0
 10
-200.222
 20
3.32587
 11
-199.531
 21
3.69551
  0
LINE
  8
0
 10
-199.531
 20
3.69551
 11
-198.78
 21
3.92313
  0
LINE
  8
0
 10
-198.78
 20
3.92313
 11
-198
 21
4
  0
LINE
  8
0
 10
-198
 20
4
 11
-197.22
 21
3.92313
  0
LINE
  8
0
 10
-197.22
 20
3.92313
 11
-196.469
 21
3.69551
  0
LINE
  8
0
 10
-196.469
 20
3.69551
 11
-195.778
 21
3.32587
  0
LINE
  8
0
 10
-195.778
 20
3.32587
 11
-195.172
 21
2.82841
  0
LINE
  8
0
 10
-195.172
 20
2.82841
 11
-194.674
 21
2.22227
  0
LINE
  8
0
 10
-194.674
 20
2.22227
 11
-194.304
 21
1.53073
  0
LINE
  8
0
 10
-194.304
 20
1.53073
 11
-194.077
 21
0.78035
  0
LINE
  8
0
 10
-194.077
 20
0.78035
 11
-194
 21
0
  0
LINE
  8
0
 10
-194
 20
0
 11
-194.077
 21
-0.78035
  0
LINE
  8
0
 10
-194.077
 20
-0.78035
 11
-194.304
 21
-1.53073
  0
LINE
  8
0
 10
-194.304
 20
-1.53073
 11
-194.674
 21
-2.22227
  0
LINE
  8
0
 10
-194.674
 20
-2.22227
 11
-195.172
 21
-2.82841
  0
LINE
  8
0
 10
-195.172
 20
-2.82841
 11
-195.778
 21
-3.32587
  0
LINE
  8
0
 10
-195.778
 20
-3.32587
 11
-196.469
 21
-3.69551
  0
LINE
  8
0
 10
-196.469
 20
-3.69551
 11
-197.22
 21
-3.92313
  0
LINE
  8
0
 10
-197.22
 20
-3.92313
 11
-198
 21
-4
  0
LINE
  8
0
 10
-198
 20
-4
 11
-198.78
 21
-3.92313
  0
LINE
  8
0
 10
197.22
 20
-3.92313
 11
196.469
 21
-3.69551
  0
LINE
  8
0
 10
196.469
 20
-3.69551
 11
195.778
 21
-3.32587
  0
LINE
  8
0
 10
195.778
 20
-3.32587
 11
195.172
 21
-2.82841
  0
LINE
  8
0
 10
195.172
 20
-2.82841
 11
194.674
 21
-2.22227
  0
LINE
  8
0
 10
194.674
 20
-2.22227
 11
194.304
 21
-1.53073
  0
LINE
  8
0
 10
194.304
 20
-1.53073
 11
194.077
 21
-0.78035
  0
LINE
  8
0
 10
194.077
 20
-0.78035
 11
194
 21
0
  0
LINE
  8
0
 10
194
 20
0
 11
194.077
 21
0.78035
  0
LINE
  8
0
 10
194.077
 20
0.78035
 11
194.304
 21
1.53073
  0
LINE
  8
0
 10
194.304
 20
1.53073
 11
194.674
 21
2.22227
  0
LINE
  8
0
 10
194.674
 20
2.22227
 11
195.172
 21
2.82841
  0
LINE
  8
0
 10
195.172
 20
2.82841
 11
195.778
 21
3.32587
  0
LINE
  8
0
 10
195.778
 20
3.32587
 11
196.469
 21
3.69551
  0
LINE
  8
0
 10
196.469
 20
3.69551
 11
197.22
 21
3.92313
  0
LINE
  8
0
 10
197.22
 20
3.92313
 11
198
 21
4
  0
LINE
  8
0
 10
198
 20
4
 11
198.78
 21
3.92313
  0
LINE
  8
0
 10
198.78
 20
3.92313
 11
199.531
 21
3.69551
  0
LINE
  8
0
 10
199.531
 20
3.69551
 11
200.222
 21
3.32587
  0
LINE
  8
0
 10
200.222
 20
3.32587
 11
200.828
 21
2.82841
  0
LINE
  8
0
 10
200.828
 20
2.82841
 11
201.326
 21
2.22227
  0
LINE
  8
0
 10
201.326
 20
2.22227
 11
201.696
 21
1.53073
  0
LINE
  8
0
 10
201.696
 20
1.53073
 11
201.923
 21
0.78035
  0
LINE
  8
0
 10
201.923
 20
0.78035
 11
202
 21
0
  0
LINE
  8
0
 10
202
 20
0
 11
201.923
 21
-0.78035
  0
LINE
  8
0
 10
201.923
 20
-0.78035
 11
201.696
 21
-1.53073
  0
LINE
  8
0
 10
201.696
 20
-1.53073
 11
201.326
 21
-2.22227
  0
LINE
  8
0
 10
201.326
 20
-2.22227
 11
200.828
 21
-2.82841
  0
LINE
  8
0
 10
200.828
 20
-2.82841
 11
200.222
 21
-3.32587
  0
LINE
  8
0
 10
200.222
 20
-3.32587
 11
199.531
 21
-3.69551
  0
LINE
  8
0
 10
199.531
 20
-3.69551
 11
198.78
 21
-3.92313
  0
LINE
  8
0
 10
198.78
 20
-3.92313
 11
198
 21
-4
  0
LINE
  8
0
 10
198
 20
-4
 11
197.22
 21
-3.92313
  0
LINE
  8
0
 10
-180
 20
-1.5
 11
-180.574
 21
-1.38582
  0
LINE
  8
0
 10
-180.574
 20
-1.38582
 11
-181.061
 21
-1.06065
  0
LINE
  8
0
 10
-181.061
 20
-1.06065
 11
-181.386
 21
-0.57402
  0
LINE
  8
0
 10
-181.386
 20
-0.57402
 11
-181.5
 21
0
  0
LINE
  8
0
 10
-181.5
 20
0
 11
-181.386
 21
0.57402
  0
LINE
  8
0
 10
-181.386
 20
0.57402
 11
-181.061
 21
1.06065
  0
LINE
  8
0
 10
-181.061
 20
1.06065
 11
-180.574
 21
1.38582
  0
LINE
  8
0
 10
-180.574
 20
1.38582
 11
-180
 21
1.5
  0
LINE
  8
0
 10
-180
 20
1.5
 11
-155
 21
1.5
  0
LINE
  8
0
 10
-155
 20
1.5
 11
-154.426
 21
1.38582
  0
LINE
  8
0
 10
-154.426
 20
1.38582
 11
-153.939
 21
1.06065
  0
LINE
  8
0
 10
-153.939
 20
1.06065
 11
-153.614
 21
0.57402
  0
LINE
  8
0
 10
-153.614
 20
0.57402
 11
-153.5
 21
0
  0
LINE
  8
0
 10
-153.5
 20
0
 11
-153.614
 21
-0.57402
  0
LINE
  8
0
 10
-153.614
 20
-0.57402
 11
-153.939
 21
-1.06065
  0
LINE
  8
0
 10
-153.939
 20
-1.06065
 11
-154.426
 21
-1.38582
  0
LINE
  8
0
 10
-154.426
 20
-1.38582
 11
-155
 21
-1.5
  0
LINE
  8
0
 10
-155
 20
-1.5
 11
-180
 21
-1.5
  0
LINE
  8
0
 10
155
 20
-1.5
 11
154.426
 21
-1.38582
  0
LINE
  8
0
 10
154.426
 20
-1.38582
 11
153.939
 21
-1.06065
  0
LINE
  8
0
 10
153.939
 20
-1.06065
 11
153.614
 21
-0.57402
  0
LINE
  8
0
 10
153.614
 20
-0.57402
 11
153.5
 21
0
  0
LINE
  8
0
 10
153.5
 20
0
 11
153.614
 21
0.57402
  0
LINE
  8
0
 10
153.614
 20
0.57402
 11
153.939
 21
1.06065
  0
LINE
  8
0
 10
153.939
 20
1.06065
 11
154.426
 21
1.38582
  0
LINE
  8
0
 10
154.426
 20
1.38582
 11
155
 21
1.5
  0
LINE
  8
0
 10
155
 20
1.5
 11
180
 21
1.5
  0
LINE
  8
0
 10
180
 20
1.5
 11
180.574
 21
1.38582
  0
LINE
  8
0
 10
180.574
 20
1.38582
 11
181.061
 21
1.06065
  0
LINE
  8
0
 10
181.061
 20
1.06065
 11
181.386
 21
0.57402
  0
LINE
  8
0
 10
181.386
 20
0.57402
 11
181.5
 21
0
  0
LINE
  8
0
 10
181.5
 20
0
 11
181.386
 21
-0.57402
  0
LINE
  8
0
 10
181.386
 20
-0.57402
 11
181.061
 21
-1.06065
  0
LINE
  8
0
 10
181.061
 20
-1.06065
 11
180.574
 21
-1.38582
  0
LINE
  8
0
 10
180.574
 20
-1.38582
 11
180
 21
-1.5
  0
LINE
  8
0
 10
180
 20
-1.5
 11
155
 21
-1.5
  0
LINE
  8
0
 10
-174.617
 20
-47.8865
 11
-175.057
 21
-47.5006
  0
LINE
  8
0
 10
-175.057
 20
-47.5006
 11
-175.316
 21
-46.9756
  0
LINE
  8
0
 10
-175.316
 20
-46.9756
 11
-175.354
 21
-46.3916
  0
LINE
  8
0
 10
-175.354
 20
-46.3916
 11
-175.166
 21
-45.8374
  0
LINE
  8
0
 10
-175.166
 20
-45.8374
 11
-174.78
 21
-45.3974
  0
LINE
  8
0
 10
-174.78
 20
-45.3974
 11
-174.255
 21
-45.1385
  0
LINE
  8
0
 10
-174.255
 20
-45.1385
 11
-150.107
 21
-38.6681
  0
LINE
  8
0
 10
-150.107
 20
-38.6681
 11
-149.523
 21
-38.6298
  0
LINE
  8
0
 10
-149.523
 20
-38.6298
 11
-148.968
 21
-38.8179
  0
LINE
  8
0
 10
-148.968
 20
-38.8179
 11
-148.528
 21
-39.2038
  0
LINE
  8
0
 10
-148.528
 20
-39.2038
 11
-148.27
 21
-39.7287
  0
LINE
  8
0
 10
-148.27
 20
-39.7287
 11
-148.231
 21
-40.3127
  0
LINE
  8
0
 10
-148.231
 20
-40.3127
 11
-148.419
 21
-40.8669
  0
LINE
  8
0
 10
-148.419
 20
-40.8669
 11
-148.805
 21
-41.307
  0
LINE
  8
0
 10
-148.805
 20
-41.307
 11
-149.33
 21
-41.5658
  0
LINE
  8
0
 10
-149.33
 20
-41.5658
 11
-173.478
 21
-48.0363
  0
LINE
  8
0
 10
-173.478
 20
-48.0363
 11
-174.062
 21
-48.0746
  0
LINE
  8
0
 10
-174.062
 20
-48.0746
 11
-174.617
 21
-47.8865
  0
LINE
  8
0
 10
173.478
 20
-48.0363
 11
149.33
 21
-41.5658
  0
LINE
  8
0
 10
149.33
 20
-41.5658
 11
148.805
 21
-41.307
  0
LINE
  8
0
 10
148.805
 20
-41.307
 11
148.419
 21
-40.8669
  0
LINE
  8
0
 10
148.419
 20
-40.8669
 11
148.231
 21
-40.3127
  0
LINE
  8
0
 10
148.231
 20
-40.3127
 11
148.27
 21
-39.7287
  0
LINE
  8
0
 10
148.27
 20
-39.7287
 11
148.528
 21
-39.2038
  0
LINE
  8
0
 10
148.528
 20
-39.2038
 11
148.968
 21
-38.8179
  0
LINE
  8
0
 10
148.968
 20
-38.8179
 11
149.523
 21
-38.6298
  0
LINE
  8
0
 10
149.523
 20
-38.6298
 11
150.107
 21
-38.6681
  0
LINE
  8
0
 10
150.107
 20
-38.6681
 11
174.255
 21
-45.1385
  0
LINE
  8
0
 10
174.255
 20
-45.1385
 11
174.78
 21
-45.3974
  0
LINE
  8
0
 10
174.78
 20
-45.3974
 11
175.166
 21
-45.8374
  0
LINE
  8
0
 10
175.166
 20
-45.8374
 11
175.354
 21
-46.3916
  0
LINE
  8
0
 10
175.354
 20
-46.3916
 11
175.316
 21
-46.9756
  0
LINE
  8
0
 10
175.316
 20
-46.9756
 11
175.057
 21
-47.5006
  0
LINE
  8
0
 10
175.057
 20
-47.5006
 11
174.617
 21
-47.8865
  0
LINE
  8
0
 10
174.617
 20
-47.8865
 11
174.062
 21
-48.0746
  0
LINE
  8
0
 10
174.062
 20
-48.0746
 11
173.478
 21
-48.0363
  0
LINE
  8
0
 10
141.743
 20
-59.6661
 11
142.418
 21
-58.037
  0
LINE
  8
0
 10
142.418
 20
-58.037
 11
144.175
 21
-58.1753
  0
LINE
  8
0
 10
144.175
 20
-58.1753
 11
144.587
 21
-59.8899
  0
LINE
  8
0
 10
144.587
 20
-59.8899
 11
143.084
 21
-60.8113
  0
LINE
  8
0
 10
143.084
 20
-60.8113
 11
141.743
 21
-59.6661
  0
LINE
  8
0
 10
-144.587
 20
-59.89
 11
-144.175
 21
-58.1753
  0
LINE
  8
0
 10
-144.175
 20
-58.1753
 11
-142.418
 21
-58.037
  0
LINE
  8
0
 10
-142.418
 20
-58.037
 11
-141.743
 21
-59.6661
  0
LINE
  8
0
 10
-141.743
 20
-59.6661
 11
-143.084
 21
-60.8113
  0
LINE
  8
0
 10
-143.084
 20
-60.8113
 11
-144.587
 21
-59.89
  0
LINE
  8
0
 10
151.866
 20
-64.5286
 11
153.014
 21
-61.7569
  0
LINE
  8
0
 10
153.014
 20
-61.7569
 11
162.253
 21
-65.5838
  0
LINE
  8
0
 10
162.253
 20
-65.5838
 11
161.105
 21
-68.3554
  0
LINE
  8
0
 10
161.105
 20
-68.3554
 11
151.866
 21
-64.5286
  0
LINE
  8
0
 10
-162.253
 20
-65.5838
 11
-153.014
 21
-61.7569
  0
LINE
  8
0
 10
-153.014
 20
-61.7569
 11
-151.866
 21
-64.5286
  0
LINE
  8
0
 10
-151.866
 20
-64.5286
 11
-161.105
 21
-68.3554
  0
LINE
  8
0
 10
-161.105
 20
-68.3554
 11
-162.253
 21
-65.5838
  0
LINE
  8
0
 10
169.459
 20
-71.1466
 11
170.134
 21
-69.5175
  0
LINE
  8
0
 10
170.134
 20
-69.5175
 11
171.892
 21
-69.6558
  0
LINE
  8
0
 10
171.892
 20
-69.6558
 11
172.304
 21
-71.3705
  0
LINE
  8
0
 10
172.304
 20
-71.3705
 11
170.8
 21
-72.2918
  0
LINE
  8
0
 10
170.8
 20
-72.2918
 11
169.459
 21
-71.1466
  0
LINE
  8
0
 10
-172.304
 20
-71.3705
 11
-171.892
 21
-69.6558
  0
LINE
  8
0
 10
-171.892
 20
-69.6558
 11
-170.134
 21
-69.5175
  0
LINE
  8
0
 10
-170.134
 20
-69.5175
 11
-169.459
 21
-71.1466
  0
LINE
  8
0
 10
-169.459
 20
-71.1466
 11
-170.8
 21
-72.2918
  0
LINE
  8
0
 10
-170.8
 20
-72.2918
 11
-172.304
 21
-71.3705
  0
LINE
  8
0
 10
155.135
 20
-91.299
 11
133.484
 21
-78.799
  0
LINE
  8
0
 10
133.484
 20
-78.799
 11
133.044
 21
-78.4131
  0
LINE
  8
0
 10
133.044
 20
-78.4131
 11
132.785
 21
-77.8882
  0
LINE
  8
0
 10
132.785
 20
-77.8882
 11
132.747
 21
-77.3042
  0
LINE
  8
0
 10
132.747
 20
-77.3042
 11
132.935
 21
-76.75
  0
LINE
  8
0
 10
132.935
 20
-76.75
 11
133.321
 21
-76.31
  0
LINE
  8
0
 10
133.321
 20
-76.31
 11
133.846
 21
-76.0511
  0
LINE
  8
0
 10
133.846
 20
-76.0511
 11
134.43
 21
-76.0128
  0
LINE
  8
0
 10
134.43
 20
-76.0128
 11
134.984
 21
-76.201
  0
LINE
  8
0
 10
134.984
 20
-76.201
 11
156.635
 21
-88.701
  0
LINE
  8
0
 10
156.635
 20
-88.701
 11
157.075
 21
-89.0869
  0
LINE
  8
0
 10
157.075
 20
-89.0869
 11
157.333
 21
-89.6118
  0
LINE
  8
0
 10
157.333
 20
-89.6118
 11
157.372
 21
-90.1958
  0
LINE
  8
0
 10
157.372
 20
-90.1958
 11
157.184
 21
-90.75
  0
LINE
  8
0
 10
157.184
 20
-90.75
 11
156.798
 21
-91.19
  0
LINE
  8
0
 10
156.798
 20
-91.19
 11
156.273
 21
-91.4489
  0
LINE
  8
0
 10
156.273
 20
-91.4489
 11
155.689
 21
-91.4872
  0
LINE
  8
0
 10
155.689
 20
-91.4872
 11
155.135
 21
-91.299
  0
LINE
  8
0
 10
-156.273
 20
-91.4489
 11
-156.798
 21
-91.19
  0
LINE
  8
0
 10
-156.798
 20
-91.19
 11
-157.184
 21
-90.75
  0
LINE
  8
0
 10
-157.184
 20
-90.75
 11
-157.372
 21
-90.1958
  0
LINE
  8
0
 10
-157.372
 20
-90.1958
 11
-157.333
 21
-89.6118
  0
LINE
  8
0
 10
-157.333
 20
-89.6118
 11
-157.075
 21
-89.0869
  0
LINE
  8
0
 10
-157.075
 20
-89.0869
 11
-156.635
 21
-88.701
  0
LINE
  8
0
 10
-156.635
 20
-88.701
 11
-134.984
 21
-76.201
  0
LINE
  8
0
 10
-134.984
 20
-76.201
 11
-134.43
 21
-76.0128
  0
LINE
  8
0
 10
-134.43
 20
-76.0128
 11
-133.846
 21
-76.0511
  0
LINE
  8
0
 10
-133.846
 20
-76.0511
 11
-133.321
 21
-76.31
  0
LINE
  8
0
 10
-133.321
 20
-76.31
 11
-132.935
 21
-76.75
  0
LINE
  8
0
 10
-132.935
 20
-76.75
 11
-132.747
 21
-77.3042
  0
LINE
  8
0
 10
-132.747
 20
-77.3042
 11
-132.785
 21
-77.8882
  0
LINE
  8
0
 10
-132.785
 20
-77.8882
 11
-133.044
 21
-78.4131
  0
LINE
  8
0
 10
-133.044
 20
-78.4131
 11
-133.484
 21
-78.799
  0
LINE
  8
0
 10
-133.484
 20
-78.799
 11
-155.135
 21
-91.299
  0
LINE
  8
0
 10
-155.135
 20
-91.299
 11
-155.689
 21
-91.4872
  0
LINE
  8
0
 10
-155.689
 20
-91.4872
 11
-156.273
 21
-91.4489
  0
LINE
  8
0
 10
126.705
 20
-128.665
 11
126.219
 21
-128.34
  0
LINE
  8
0
 10
126.219
 20
-128.34
 11
108.541
 21
-110.662
  0
LINE
  8
0
 10
108.541
 20
-110.662
 11
108.216
 21
-110.176
  0
LINE
  8
0
 10
108.216
 20
-110.176
 11
108.102
 21
-109.602
  0
LINE
  8
0
 10
108.102
 20
-109.602
 11
108.216
 21
-109.028
  0
LINE
  8
0
 10
108.216
 20
-109.028
 11
108.541
 21
-108.541
  0
LINE
  8
0
 10
108.541
 20
-108.541
 11
109.028
 21
-108.216
  0
LINE
  8
0
 10
109.028
 20
-108.216
 11
109.602
 21
-108.102
  0
LINE
  8
0
 10
109.602
 20
-108.102
 11
110.176
 21
-108.216
  0
LINE
  8
0
 10
110.176
 20
-108.216
 11
110.662
 21
-108.541
  0
LINE
  8
0
 10
110.662
 20
-108.541
 11
128.34
 21
-126.219
  0
LINE
  8
0
 10
128.34
 20
-126.219
 11
128.665
 21
-126.705
  0
LINE
  8
0
 10
128.665
 20
-126.705
 11
128.779
 21
-127.279
  0
LINE
  8
0
 10
128.779
 20
-127.279
 11
128.665
 21
-127.853
  0
LINE
  8
0
 10
128.665
 20
-127.853
 11
128.34
 21
-128.34
  0
LINE
  8
0
 10
128.34
 20
-128.34
 11
127.853
 21
-128.665
  0
LINE
  8
0
 10
127.853
 20
-128.665
 11
127.279
 21
-128.779
  0
LINE
  8
0
 10
127.279
 20
-128.779
 11
126.705
 21
-128.665
  0
LINE
  8
0
 10
-127.853
 20
-128.665
 11
-128.34
 21
-128.34
  0
LINE
  8
0
 10
-128.34
 20
-128.34
 11
-128.665
 21
-127.853
  0
LINE
  8
0
 10
-128.665
 20
-127.853
 11
-128.779
 21
-127.279
  0
LINE
  8
0
 10
-128.779
 20
-127.279
 11
-128.665
 21
-126.705
  0
LINE
  8
0
 10
-128.665
 20
-126.705
 11
-128.34
 21
-126.219
  0
LINE
  8
0
 10
-128.34
 20
-126.219
 11
-110.662
 21
-108.541
  0
LINE
  8
0
 10
-110.662
 20
-108.541
 11
-110.176
 21
-108.216
  0
LINE
  8
0
 10
-110.176
 20
-108.216
 11
-109.602
 21
-108.102
  0
LINE
  8
0
 10
-109.602
 20
-108.102
 11
-109.028
 21
-108.216
  0
LINE
  8
0
 10
-109.028
 20
-108.216
 11
-108.541
 21
-108.541
  0
LINE
  8
0
 10
-108.541
 20
-108.541
 11
-108.216
 21
-109.028
  0
LINE
  8
0
 10
-108.216
 20
-109.028
 11
-108.102
 21
-109.602
  0
LINE
  8
0
 10
-108.102
 20
-109.602
 11
-108.216
 21
-110.176
  0
LINE
  8
0
 10
-108.216
 20
-110.176
 11
-108.541
 21
-110.662
  0
LINE
  8
0
 10
-108.541
 20
-110.662
 11
-126.219
 21
-128.34
  0
LINE
  8
0
 10
-126.219
 20
-128.34
 11
-126.705
 21
-128.665
  0
LINE
  8
0
 10
-126.705
 20
-128.665
 11
-127.279
 21
-128.779
  0
LINE
  8
0
 10
-127.279
 20
-128.779
 11
-127.853
 21
-128.665
  0
LINE
  8
0
 10
89.6118
 20
-157.333
 11
89.0869
 21
-157.075
  0
LINE
  8
0
 10
89.0869
 20
-157.075
 11
88.701
 21
-156.635
  0
LINE
  8
0
 10
88.701
 20
-156.635
 11
76.201
 21
-134.984
  0
LINE
  8
0
 10
76.201
 20
-134.984
 11
76.0128
 21
-134.43
  0
LINE
  8
0
 10
76.0128
 20
-134.43
 11
76.0511
 21
-133.846
  0
LINE
  8
0
 10
76.0511
 20
-133.846
 11
76.31
 21
-133.321
  0
LINE
  8
0
 10
76.31
 20
-133.321
 11
76.75
 21
-132.935
  0
LINE
  8
0
 10
76.75
 20
-132.935
 11
77.3042
 21
-132.747
  0
LINE
  8
0
 10
77.3042
 20
-132.747
 11
77.8882
 21
-132.785
  0
LINE
  8
0
 10
77.8882
 20
-132.785
 11
78.4131
 21
-133.044
  0
LINE
  8
0
 10
78.4131
 20
-133.044
 11
78.799
 21
-133.484
  0
LINE
  8
0
 10
78.799
 20
-133.484
 11
91.299
 21
-155.135
  0
LINE
  8
0
 10
91.299
 20
-155.135
 11
91.4872
 21
-155.689
  0
LINE
  8
0
 10
91.4872
 20
-155.689
 11
91.4489
 21
-156.273
  0
LINE
  8
0
 10
91.4489
 20
-156.273
 11
91.19
 21
-156.798
  0
LINE
  8
0
 10
91.19
 20
-156.798
 11
90.75
 21
-157.184
  0
LINE
  8
0
 10
90.75
 20
-157.184
 11
90.1958
 21
-157.372
  0
LINE
  8
0
 10
90.1958
 20
-157.372
 11
89.6118
 21
-157.333
  0
LINE
  8
0
 10
-90.75
 20
-157.184
 11
-91.19
 21
-156.798
  0
LINE
  8
0
 10
-91.19
 20
-156.798
 11
-91.4489
 21
-156.273
  0
LINE
  8
0
 10
-91.4489
 20
-156.273
 11
-91.4872
 21
-155.689
  0
LINE
  8
0
 10
-91.4872
 20
-155.689
 11
-91.299
 21
-155.135
  0
LINE
  8
0
 10
-91.299
 20
-155.135
 11
-78.799
 21
-133.484
  0
LINE
  8
0
 10
-78.799
 20
-133.484
 11
-78.4131
 21
-133.044
  0
LINE
  8
0
 10
-78.4131
 20
-133.044
 11
-77.8882
 21
-132.785
  0
LINE
  8
0
 10
-77.8882
 20
-132.785
 11
-77.3042
 21
-132.747
  0
LINE
  8
0
 10
-77.3042
 20
-132.747
 11
-76.75
 21
-132.935
  0
LINE
  8
0
 10
-76.75
 20
-132.935
 11
-76.31
 21
-133.321
  0
LINE
  8
0
 10
-76.31
 20
-133.321
 11
-76.0511
 21
-133.846
  0
LINE
  8
0
 10
-76.0511
 20
-133.846
 11
-76.0128
 21
-134.43
  0
LINE
  8
0
 10
-76.0128
 20
-134.43
 11
-76.201
 21
-134.984
  0
LINE
  8
0
 10
-76.201
 20
-134.984
 11
-88.701
 21
-156.635
  0
LINE
  8
0
 10
-88.701
 20
-156.635
 11
-89.0869
 21
-157.075
  0
LINE
  8
0
 10
-89.0869
 20
-157.075
 11
-89.6118
 21
-157.333
  0
LINE
  8
0
 10
-89.6118
 20
-157.333
 11
-90.1958
 21
-157.372
  0
LINE
  8
0
 10
-90.1958
 20
-157.372
 11
-90.75
 21
-157.184
  0
LINE
  8
0
 10
139.227
 20
-143.93
 11
138.476
 21
-143.703
  0
LINE
  8
0
 10
138.476
 20
-143.703
 11
137.785
 21
-143.333
  0
LINE
  8
0
 10
137.785
 20
-143.333
 11
137.179
 21
-142.836
  0
LINE
  8
0
 10
137.179
 20
-142.836
 11
136.681
 21
-142.229
  0
LINE
  8
0
 10
136.681
 20
-142.229
 11
136.312
 21
-141.538
  0
LINE
  8
0
 10
136.312
 20
-141.538
 11
136.084
 21
-140.787
  0
LINE
  8
0
 10
136.084
 20
-140.787
 11
136.007
 21
-140.007
  0
LINE
  8
0
 10
136.007
 20
-140.007
 11
136.084
 21
-139.227
  0
LINE
  8
0
 10
136.084
 20
-139.227
 11
136.312
 21
-138.476
  0
LINE
  8
0
 10
136.312
 20
-138.476
 11
136.681
 21
-137.785
  0
LINE
  8
0
 10
136.681
 20
-137.785
 11
137.179
 21
-137.179
  0
LINE
  8
0
 10
137.179
 20
-137.179
 11
137.785
 21
-136.681
  0
LINE
  8
0
 10
137.785
 20
-136.681
 11
138.476
 21
-136.312
  0
LINE
  8
0
 10
138.476
 20
-136.312
 11
139.227
 21
-136.084
  0
LINE
  8
0
 10
139.227
 20
-136.084
 11
140.007
 21
-136.007
  0
LINE
  8
0
 10
140.007
 20
-136.007
 11
140.787
 21
-136.084
  0
LINE
  8
0
 10
140.787
 20
-136.084
 11
141.538
 21
-136.312
  0
LINE
  8
0
 10
141.538
 20
-136.312
 11
142.229
 21
-136.681
  0
LINE
  8
0
 10
142.229
 20
-136.681
 11
142.836
 21
-137.179
  0
LINE
  8
0
 10
142.836
 20
-137.179
 11
143.333
 21
-137.785
  0
LINE
  8
0
 10
143.333
 20
-137.785
 11
143.703
 21
-138.476
  0
LINE
  8
0
 10
143.703
 20
-138.476
 11
143.93
 21
-139.227
  0
LINE
  8
0
 10
143.93
 20
-139.227
 11
144.007
 21
-140.007
  0
LINE
  8
0
 10
144.007
 20
-140.007
 11
143.93
 21
-140.787
  0
LINE
  8
0
 10
143.93
 20
-140.787
 11
143.703
 21
-141.538
  0
LINE
  8
0
 10
143.703
 20
-141.538
 11
143.333
 21
-142.229
  0
LINE
  8
0
 10
143.333
 20
-142.229
 11
142.836
 21
-142.836
  0
LINE
  8
0
 10
142.836
 20
-142.836
 11
142.229
 21
-143.333
  0
LINE
  8
0
 10
142.229
 20
-143.333
 11
141.538
 21
-143.703
  0
LINE
  8
0
 10
141.538
 20
-143.703
 11
140.787
 21
-143.93
  0
LINE
  8
0
 10
140.787
 20
-143.93
 11
140.007
 21
-144.007
  0
LINE
  8
0
 10
140.007
 20
-144.007
 11
139.227
 21
-143.93
  0
LINE
  8
0
 10
-140.787
 20
-143.93
 11
-141.538
 21
-143.703
  0
LINE
  8
0
 10
-141.538
 20
-143.703
 11
-142.229
 21
-143.333
  0
LINE
  8
0
 10
-142.229
 20
-143.333
 11
-142.836
 21
-142.836
  0
LINE
  8
0
 10
-142.836
 20
-142.836
 11
-143.333
 21
-142.229
  0
LINE
  8
0
 10
-143.333
 20
-142.229
 11
-143.703
 21
-141.538
  0
LINE
  8
0
 10
-143.703
 20
-141.538
 11
-143.93
 21
-140.787
  0
LINE
  8
0
 10
-143.93
 20
-140.787
 11
-144.007
 21
-140.007
  0
LINE
  8
0
 10
-144.007
 20
-140.007
 11
-143.93
 21
-139.227
  0
LINE
  8
0
 10
-143.93
 20
-139.227
 11
-143.703
 21
-138.476
  0
LINE
  8
0
 10
-143.703
 20
-138.476
 11
-143.333
 21
-137.785
  0
LINE
  8
0
 10
-143.333
 20
-137.785
 11
-142.836
 21
-137.179
  0
LINE
  8
0
 10
-142.836
 20
-137.179
 11
-142.229
 21
-136.681
  0
LINE
  8
0
 10
-142.229
 20
-136.681
 11
-141.538
 21
-136.312
  0
LINE
  8
0
 10
-141.538
 20
-136.312
 11
-140.787
 21
-136.084
  0
LINE
  8
0
 10
-140.787
 20
-136.084
 11
-140.007
 21
-136.007
  0
LINE
  8
0
 10
-140.007
 20
-136.007
 11
-139.227
 21
-136.084
  0
LINE
  8
0
 10
-139.227
 20
-136.084
 11
-138.476
 21
-136.312
  0
LINE
  8
0
 10
-138.476
 20
-136.312
 11
-137.785
 21
-136.681
  0
LINE
  8
0
 10
-137.785
 20
-136.681
 11
-137.179
 21
-137.179
  0
LINE
  8
0
 10
-137.179
 20
-137.179
 11
-136.681
 21
-137.785
  0
LINE
  8
0
 10
-136.681
 20
-137.785
 11
-136.312
 21
-138.476
  0
LINE
  8
0
 10
-136.312
 20
-138.476
 11
-136.084
 21
-139.227
  0
LINE
  8
0
 10
-136.084
 20
-139.227
 11
-136.007
 21
-140.007
  0
LINE
  8
0
 10
-136.007
 20
-140.007
 11
-136.084
 21
-140.787
  0
LINE
  8
0
 10
-136.084
 20
-140.787
 11
-136.312
 21
-141.538
  0
LINE
  8
0
 10
-136.312
 20
-141.538
 11
-136.681
 21
-142.229
  0
LINE
  8
0
 10
-136.681
 20
-142.229
 11
-137.179
 21
-142.836
  0
LINE
  8
0
 10
-137.179
 20
-142.836
 11
-137.785
 21
-143.333
  0
LINE
  8
0
 10
-137.785
 20
-143.333
 11
-138.476
 21
-143.703
  0
LINE
  8
0
 10
-138.476
 20
-143.703
 11
-139.227
 21
-143.93
  0
LINE
  8
0
 10
-139.227
 20
-143.93
 11
-140.007
 21
-144.007
  0
LINE
  8
0
 10
-140.007
 20
-144.007
 11
-140.787
 21
-143.93
  0
LINE
  8
0
 10
-60.8113
 20
-143.084
 11
-59.6661
 21
-141.743
  0
LINE
  8
0
 10
-59.6661
 20
-141.743
 11
-58.037
 21
-142.418
  0
LINE
  8
0
 10
-58.037
 20
-142.418
 11
-58.1753
 21
-144.175
  0
LINE
  8
0
 10
-58.1753
 20
-144.175
 11
-59.8899
 21
-144.587
  0
LINE
  8
0
 10
-59.8899
 20
-144.587
 11
-60.8113
 21
-143.084
  0
LINE
  8
0
 10
58.1753
 20
-144.175
 11
58.037
 21
-142.418
  0
LINE
  8
0
 10
58.037
 20
-142.418
 11
59.6661
 21
-141.743
  0
LINE
  8
0
 10
59.6661
 20
-141.743
 11
60.8113
 21
-143.084
  0
LINE
  8
0
 10
60.8113
 20
-143.084
 11
59.89
 21
-144.587
  0
LINE
  8
0
 10
59.89
 20
-144.587
 11
58.1753
 21
-144.175
  0
LINE
  8
0
 10
45.8374
 20
-175.166
 11
45.3974
 21
-174.78
  0
LINE
  8
0
 10
45.3974
 20
-174.78
 11
45.1385
 21
-174.255
  0
LINE
  8
0
 10
45.1385
 20
-174.255
 11
38.6681
 21
-150.107
  0
LINE
  8
0
 10
38.6681
 20
-150.107
 11
38.6298
 21
-149.523
  0
LINE
  8
0
 10
38.6298
 20
-149.523
 11
38.8179
 21
-148.968
  0
LINE
  8
0
 10
38.8179
 20
-148.968
 11
39.2038
 21
-148.528
  0
LINE
  8
0
 10
39.2038
 20
-148.528
 11
39.7287
 21
-148.27
  0
LINE
  8
0
 10
39.7287
 20
-148.27
 11
40.3127
 21
-148.231
  0
LINE
  8
0
 10
40.3127
 20
-148.231
 11
40.8669
 21
-148.419
  0
LINE
  8
0
 10
40.8669
 20
-148.419
 11
41.307
 21
-148.805
  0
LINE
  8
0
 10
41.307
 20
-148.805
 11
41.5658
 21
-149.33
  0
LINE
  8
0
 10
41.5658
 20
-149.33
 11
48.0363
 21
-173.478
  0
LINE
  8
0
 10
48.0363
 20
-173.478
 11
48.0746
 21
-174.062
  0
LINE
  8
0
 10
48.0746
 20
-174.062
 11
47.8865
 21
-174.617
  0
LINE
  8
0
 10
47.8865
 20
-174.617
 11
47.5006
 21
-175.057
  0
LINE
  8
0
 10
47.5006
 20
-175.057
 11
46.9756
 21
-175.316
  0
LINE
  8
0
 10
46.9756
 20
-175.316
 11
46.3916
 21
-175.354
  0
LINE
  8
0
 10
46.3916
 20
-175.354
 11
45.8374
 21
-175.166
  0
LINE
  8
0
 10
-46.9756
 20
-175.316
 11
-47.5006
 21
-175.057
  0
LINE
  8
0
 10
-47.5006
 20
-175.057
 11
-47.8865
 21
-174.617
  0
LINE
  8
0
 10
-47.8865
 20
-174.617
 11
-48.0746
 21
-174.062
  0
LINE
  8
0
 10
-48.0746
 20
-174.062
 11
-48.0363
 21
-173.478
  0
LINE
  8
0
 10
-48.0363
 20
-173.478
 11
-41.5658
 21
-149.33
  0
LINE
  8
0
 10
-41.5658
 20
-149.33
 11
-41.307
 21
-148.805
  0
LINE
  8
0
 10
-41.307
 20
-148.805
 11
-40.8669
 21
-148.419
  0
LINE
  8
0
 10
-40.8669
 20
-148.419
 11
-40.3127
 21
-148.231
  0
LINE
  8
0
 10
-40.3127
 20
-148.231
 11
-39.7287
 21
-148.27
  0
LINE
  8
0
 10
-39.7287
 20
-148.27
 11
-39.2038
 21
-148.528
  0
LINE
  8
0
 10
-39.2038
 20
-148.528
 11
-38.8179
 21
-148.968
  0
LINE
  8
0
 10
-38.8179
 20
-148.968
 11
-38.6298
 21
-149.523
  0
LINE
  8
0
 10
-38.6298
 20
-149.523
 11
-38.6681
 21
-150.107
  0
LINE
  8
0
 10
-38.6681
 20
-150.107
 11
-45.1385
 21
-174.255
  0
LINE
  8
0
 10
-45.1385
 20
-174.255
 11
-45.3974
 21
-174.78
  0
LINE
  8
0
 10
-45.3974
 20
-174.78
 11
-45.8374
 21
-175.166
  0
LINE
  8
0
 10
-45.8374
 20
-175.166
 11
-46.3916
 21
-175.354
  0
LINE
  8
0
 10
-46.3916
 20
-175.354
 11
-46.9756
 21
-175.316
  0
LINE
  8
0
 10
-68.3554
 20
-161.105
 11
-64.5286
 21
-151.866
  0
LINE
  8
0
 10
-64.5286
 20
-151.866
 11
-61.7569
 21
-153.014
  0
LINE
  8
0
 10
-61.7569
 20
-153.014
 11
-65.5838
 21
-162.253
  0
LINE
  8
0
 10
-65.5838
 20
-162.253
 11
-68.3554
 21
-161.105
  0
LINE
  8
0
 10
61.7569
 20
-153.014
 11
64.5286
 21
-151.866
  0
LINE
  8
0
 10
64.5286
 20
-151.866
 11
68.3554
 21
-161.105
  0
LINE
  8
0
 10
68.3554
 20
-161.105
 11
65.5838
 21
-162.253
  0
LINE
  8
0
 10
65.5838
 20
-162.253
 11
61.7569
 21
-153.014
  0
LINE
  8
0
 10
-0.57402
 20
-181.386
 11
-1.06065
 21
-181.061
  0
LINE
  8
0
 10
-1.06065
 20
-181.061
 11
-1.38582
 21
-180.574
  0
LINE
  8
0
 10
-1.38582
 20
-180.574
 11
-1.5
 21
-180
  0
LINE
  8
0
 10
-1.5
 20
-180
 11
-1.5
 21
-155
  0
LINE
  8
0
 10
-1.5
 20
-155
 11
-1.38582
 21
-154.426
  0
LINE
  8
0
 10
-1.38582
 20
-154.426
 11
-1.06065
 21
-153.939
  0
LINE
  8
0
 10
-1.06065
 20
-153.939
 11
-0.57402
 21
-153.614
  0
LINE
  8
0
 10
-0.57402
 20
-153.614
 11
0
 21
-153.5
  0
LINE
  8
0
 10
0
 20
-153.5
 11
0.57402
 21
-153.614
  0
LINE
  8
0
 10
0.57402
 20
-153.614
 11
1.06065
 21
-153.939
  0
LINE
  8
0
 10
1.06065
 20
-153.939
 11
1.38582
 21
-154.426
  0
LINE
  8
0
 10
1.38582
 20
-154.426
 11
1.5
 21
-155
  0
LINE
  8
0
 10
1.5
 20
-155
 11
1.5
 21
-180
  0
LINE
  8
0
 10
1.5
 20
-180
 11
1.38582
 21
-180.574
  0
LINE
  8
0
 10
1.38582
 20
-180.574
 11
1.06065
 21
-181.061
  0
LINE
  8
0
 10
1.06065
 20
-181.061
 11
0.57402
 21
-181.386
  0
LINE
  8
0
 10
0.57402
 20
-181.386
 11
0
 21
-181.5
  0
LINE
  8
0
 10
0
 20
-181.5
 11
-0.57402
 21
-181.386
  0
LINE
  8
0
 10
-72.2918
 20
-170.8
 11
-71.1466
 21
-169.459
  0
LINE
  8
0
 10
-71.1466
 20
-169.459
 11
-69.5175
 21
-170.134
  0
LINE
  8
0
 10
-69.5175
 20
-170.134
 11
-69.6558
 21
-171.892
  0
LINE
  8
0
 10
-69.6558
 20
-171.892
 11
-71.3705
 21
-172.304
  0
LINE
  8
0
 10
-71.3705
 20
-172.304
 11
-72.2918
 21
-170.8
  0
LINE
  8
0
 10
69.6558
 20
-171.892
 11
69.5175
 21
-170.134
  0
LINE
  8
0
 10
69.5175
 20
-170.134
 11
71.1466
 21
-169.459
  0
LINE
  8
0
 10
71.1466
 20
-169.459
 11
72.2918
 21
-170.8
  0
LINE
  8
0
 10
72.2918
 20
-170.8
 11
71.3705
 21
-172.304
  0
LINE
  8
0
 10
71.3705
 20
-172.304
 11
69.6558
 21
-171.892
  0
LINE
  8
0
 10
-0.78035
 20
-201.923
 11
-1.53073
 21
-201.696
  0
LINE
  8
0
 10
-1.53073
 20
-201.696
 11
-2.22227
 21
-201.326
  0
LINE
  8
0
 10
-2.22227
 20
-201.326
 11
-2.82841
 21
-200.828
  0
LINE
  8
0
 10
-2.82841
 20
-200.828
 11
-3.32587
 21
-200.222
  0
LINE
  8
0
 10
-3.32587
 20
-200.222
 11
-3.69551
 21
-199.531
  0
LINE
  8
0
 10
-3.69551
 20
-199.531
 11
-3.92313
 21
-198.78
  0
LINE
  8
0
 10
-3.92313
 20
-198.78
 11
-4
 21
-198
  0
LINE
  8
0
 10
-4
 20
-198
 11
-3.92313
 21
-197.22
  0
LINE
  8
0
 10
-3.92313
 20
-197.22
 11
-3.69551
 21
-196.469
  0
LINE
  8
0
 10
-3.69551
 20
-196.469
 11
-3.32587
 21
-195.778
  0
LINE
  8
0
 10
-3.32587
 20
-195.778
 11
-2.82841
 21
-195.172
  0
LINE
  8
0
 10
-2.82841
 20
-195.172
 11
-2.22227
 21
-194.674
  0
LINE
  8
0
 10
-2.22227
 20
-194.674
 11
-1.53073
 21
-194.304
  0
LINE
  8
0
 10
-1.53073
 20
-194.304
 11
-0.78035
 21
-194.077
  0
LINE
  8
0
 10
-0.78035
 20
-194.077
 11
0
 21
-194
  0
LINE
  8
0
 10
0
 20
-194
 11
0.78035
 21
-194.077
  0
LINE
  8
0
 10
0.78035
 20
-194.077
 11
1.53073
 21
-194.304
  0
LINE
  8
0
 10
1.53073
 20
-194.304
 11
2.22227
 21
-194.674
  0
LINE
  8
0
 10
2.22227
 20
-194.674
 11
2.82841
 21
-195.172
  0
LINE
  8
0
 10
2.82841
 20
-195.172
 11
3.32587
 21
-195.778
  0
LINE
  8
0
 10
3.32587
 20
-195.778
 11
3.69551
 21
-196.469
  0
LINE
  8
0
 10
3.69551
 20
-196.469
 11
3.92313
 21
-197.22
  0
LINE
  8
0
 10
3.92313
 20
-197.22
 11
4
 21
-198
  0
LINE
  8
0
 10
4
 20
-198
 11
3.92313
 21
-198.78
  0
LINE
  8
0
 10
3.92313
 20
-198.78
 11
3.69551
 21
-199.531
  0
LINE
  8
0
 10
3.69551
 20
-199.531
 11
3.32587
 21
-200.222
  0
LINE
  8
0
 10
3.32587
 20
-200.222
 11
2.82841
 21
-200.828
  0
LINE
  8
0
 10
2.82841
 20
-200.828
 11
2.22227
 21
-201.326
  0
LINE
  8
0
 10
2.22227
 20
-201.326
 11
1.53073
 21
-201.696
  0
LINE
  8
0
 10
1.53073
 20
-201.696
 11
0.78035
 21
-201.923
  0
LINE
  8
0
 10
0.78035
 20
-201.923
 11
0
 21
-202
  0
LINE
  8
0
 10
0
 20
-202
 11
-0.78035
 21
-201.923
  0
ENDSEC
  0
SECTION
  2
OBJECTS
  0
DICTIONARY
  0
ENDSEC
  0
EOF
